<svg width="22" height="22" viewBox="0 0 22 22" fill="none" xmlns="http://www.w3.org/2000/svg">
<path d="M4.72225 16.3375C5.75742 15.6458 6.77292 15.1166 7.76875 14.75C8.76458 14.3833 9.84529 14.2 11.0109 14.2C12.1765 14.2 13.2633 14.3897 14.2713 14.7692C15.2794 15.1486 16.2931 15.6714 17.3125 16.3375C18.0208 15.4125 18.5146 14.5324 18.7938 13.6973C19.0729 12.8622 19.2125 11.964 19.2125 11.0025C19.2125 8.68003 18.4244 6.73025 16.8481 5.15315C15.2719 3.57603 13.3239 2.78748 11.0044 2.78748C8.68478 2.78748 6.73542 3.57603 5.15625 5.15315C3.57708 6.73025 2.7875 8.68003 2.7875 11.0025C2.7875 11.9625 2.92731 12.8581 3.20692 13.6892C3.48654 14.5203 3.99165 15.403 4.72225 16.3375ZM10.9967 11.9C9.98796 11.9 9.14464 11.5593 8.46677 10.878C7.78893 10.1966 7.45 9.35703 7.45 8.3592C7.45 7.36138 7.79002 6.51873 8.47005 5.83123C9.15008 5.14373 9.99449 4.79998 11.0033 4.79998C12.012 4.79998 12.8554 5.14482 13.5332 5.8345C14.2111 6.52417 14.55 7.36792 14.55 8.36575C14.55 9.36357 14.21 10.2021 13.53 10.8812C12.8499 11.5604 12.0055 11.9 10.9967 11.9ZM10.9909 21.5C9.56518 21.5 8.21444 21.2245 6.93867 20.6736C5.66289 20.1227 4.54628 19.3679 3.58885 18.4092C2.63143 17.4505 1.87727 16.3358 1.32635 15.0649C0.77545 13.7941 0.5 12.4362 0.5 10.9913C0.5 9.57362 0.777192 8.2239 1.33158 6.9421C1.88596 5.66028 2.64012 4.54323 3.59407 3.59093C4.54803 2.63863 5.66083 1.88123 6.93248 1.31873C8.20413 0.756226 9.56287 0.474976 11.0087 0.474976C12.4264 0.474976 13.7761 0.756334 15.0579 1.31905C16.3397 1.88177 17.4568 2.6401 18.409 3.59405C19.3613 4.548 20.1187 5.66625 20.6812 6.9488C21.2437 8.23133 21.525 9.58477 21.525 11.0091C21.525 12.4348 21.2436 13.7865 20.6809 15.0641C20.1182 16.3418 19.3599 17.4567 18.4059 18.409C17.452 19.3613 16.3337 20.1146 15.0512 20.6687C13.7686 21.2229 12.4152 21.5 10.9909 21.5ZM10.9993 19.2125C11.8581 19.2125 12.6771 19.0979 13.4563 18.8687C14.2354 18.6396 15.0583 18.2166 15.925 17.6C15.0417 17.0166 14.2148 16.5896 13.4443 16.3187C12.6738 16.0479 11.8595 15.9125 11.0015 15.9125C10.1435 15.9125 9.33082 16.0458 8.5635 16.3125C7.79617 16.5791 6.975 17.0083 6.1 17.6C6.96667 18.2166 7.78517 18.6396 8.5555 18.8687C9.32583 19.0979 10.1404 19.2125 10.9993 19.2125ZM11 10.1625C11.5228 10.1625 11.9556 9.99581 12.2983 9.66248C12.6411 9.32914 12.8125 8.89581 12.8125 8.36248C12.8125 7.82914 12.6411 7.39164 12.2983 7.04998C11.9556 6.70831 11.5228 6.53748 11 6.53748C10.4772 6.53748 10.0444 6.70831 9.70167 7.04998C9.35889 7.39164 9.1875 7.82914 9.1875 8.36248C9.1875 8.89581 9.35889 9.32914 9.70167 9.66248C10.0444 9.99581 10.4772 10.1625 11 10.1625Z" fill="#4D7BF1"/>
</svg>
