<svg width="20" height="20" viewBox="0 0 20 20" fill="none" xmlns="http://www.w3.org/2000/svg">
<path d="M17.8125 19.5C15.8192 19.5 13.7938 19.0208 11.7363 18.0625C9.67876 17.1041 7.77917 15.7458 6.0375 13.9875C4.27917 12.2458 2.91667 10.3441 1.95 8.28225C0.983333 6.22042 0.5 4.19556 0.5 2.20768C0.5 1.72516 0.665475 1.31575 0.996425 0.979451C1.32738 0.643134 1.73273 0.474976 2.2125 0.474976H5.625C6.14167 0.474976 6.56042 0.610392 6.88125 0.881226C7.20208 1.15206 7.42083 1.54581 7.5375 2.06248L8.21072 4.7535C8.27024 5.17615 8.25417 5.55414 8.1625 5.88748C8.07083 6.22081 7.89392 6.50186 7.63177 6.73063L5.075 9.07498C5.44167 9.67498 5.83073 10.2388 6.2422 10.7664C6.65365 11.2941 7.12292 11.8053 7.65 12.3C8.19167 12.8833 8.73958 13.3902 9.29375 13.8206C9.84792 14.251 10.4167 14.6191 11 14.925L13.5136 12.4C13.7879 12.1083 14.0908 11.9146 14.4225 11.8187C14.7542 11.7229 15.1092 11.725 15.4875 11.825L17.9216 12.3859C18.4405 12.5286 18.8375 12.7683 19.1125 13.105C19.3875 13.4416 19.525 13.8608 19.525 14.3625V17.7875C19.525 18.2768 19.3566 18.6845 19.0197 19.0107C18.6827 19.3369 18.2803 19.5 17.8125 19.5ZM3.925 7.06248L5.925 5.18748L5.3625 2.78748H2.85C2.85833 3.37914 2.94131 4.0224 3.09893 4.71725C3.25654 5.4121 3.5319 6.19384 3.925 7.06248ZM13.1 16.1125C13.6833 16.3958 14.3389 16.6291 15.0667 16.8125C15.7944 16.9958 16.5097 17.1125 17.2125 17.1625V14.5919L15.0375 14.1L13.1 16.1125Z" fill="#4D7BF1"/>
</svg>
