<svg width="22" height="18" viewBox="0 0 22 18" fill="none" xmlns="http://www.w3.org/2000/svg">
<path fill-rule="evenodd" clip-rule="evenodd" d="M2.75663 11.6096C1.07062 10.3936 0 8.60113 0 6.62651C0 2.95936 3.55839 0 7.95181 0C11.9129 0 15.199 2.41469 15.7976 5.56627C15.7612 5.56599 15.7249 5.56549 15.6886 5.56499C15.582 5.56352 15.4761 5.56207 15.3735 5.56627C11.3626 5.56064 8.11744 8.25965 8.11084 11.6096C8.11744 12.1499 8.21177 12.6928 8.3759 13.2C8.23975 13.2151 8.09437 13.2188 7.95181 13.2C7.04096 13.2188 6.16526 13.0892 5.35422 12.8819C5.26106 12.8594 5.12099 12.8334 5.03708 12.8334C4.95316 12.8334 4.82883 12.8679 4.71807 12.9349L2.96867 13.9422C2.90955 13.9737 2.86248 13.9952 2.80964 13.9952C2.65849 13.9952 2.54014 13.8769 2.54458 13.7301C2.54172 13.6885 2.55526 13.6492 2.57122 13.603C2.58006 13.5774 2.58964 13.5496 2.59759 13.5181C2.60579 13.4856 2.63191 13.3757 2.66868 13.2212C2.73189 12.9554 2.82655 12.5575 2.91566 12.1928C2.93661 12.107 2.94727 12.0418 2.94722 11.9811C2.94727 11.8056 2.88081 11.701 2.75663 11.6096ZM4.18795 4.50602C4.18795 5.09171 4.66255 5.56627 5.24819 5.56627C5.83383 5.56627 6.30843 5.09171 6.30843 4.50602C6.30843 3.92053 5.83383 3.44578 5.24819 3.44578C4.66255 3.44578 4.18795 3.92053 4.18795 4.50602ZM9.48915 4.50602C9.48915 5.09171 9.96371 5.56627 10.5494 5.56627C11.1349 5.56627 11.6096 5.09171 11.6096 4.50602C11.6096 3.92053 11.1349 3.44578 10.5494 3.44578C9.96371 3.44578 9.48915 3.92053 9.48915 4.50602Z" fill="#4D7BF1"/>
<path fill-rule="evenodd" clip-rule="evenodd" d="M15.3735 6.09639C19.033 6.09639 22 8.56223 22 11.6096C22 13.2635 21.1072 14.7576 19.7205 15.7446C19.598 15.8473 19.5413 15.9648 19.5413 16.0742C19.5413 16.1836 19.5484 16.2169 19.5614 16.2747C19.6534 16.6829 19.831 17.3296 19.8465 17.3821C19.8491 17.3908 19.8518 17.3995 19.8546 17.4082C19.8681 17.4515 19.8817 17.4948 19.8795 17.547C19.8821 17.6604 19.7835 17.759 19.6675 17.759C19.6133 17.759 19.5743 17.7413 19.5084 17.706L18.0771 16.8578C18.0731 16.8557 18.069 16.8535 18.0649 16.8514C17.9671 16.7997 17.8551 16.7405 17.7271 16.7656C17.6004 16.7905 17.5978 16.7912 17.5543 16.8029L17.547 16.8048C16.8596 17.0042 16.1295 17.1119 15.3735 17.1229C11.7138 17.1119 8.74699 14.6461 8.74699 11.6096C8.74699 8.56223 11.7138 6.09639 15.3735 6.09639ZM12.2988 9.78153C12.2988 10.2758 12.6787 10.6554 13.1213 10.6554C13.6157 10.6554 13.9952 10.2758 13.9952 9.78153C13.9952 9.33888 13.6157 8.95904 13.1213 8.95904C12.6787 8.95904 12.2988 9.33888 12.2988 9.78153ZM16.6988 9.78153C16.6988 10.2758 17.0787 10.6554 17.5213 10.6554C18.0157 10.6554 18.3952 10.2758 18.3952 9.78153C18.3952 9.33888 18.0157 8.95904 17.5213 8.95904C17.0787 8.95904 16.6988 9.33888 16.6988 9.78153Z" fill="#4D7BF1"/>
</svg>
