<svg width="20" height="20" viewBox="0 0 20 20" fill="none" xmlns="http://www.w3.org/2000/svg">
<g clip-path="url(#clip0_8191_110912)">
<mask id="mask0_8191_110912" style="mask-type:alpha" maskUnits="userSpaceOnUse" x="0" y="0" width="20" height="20">
<rect width="20" height="20" fill="#D9D9D9"/>
</mask>
<g mask="url(#mask0_8191_110912)">
<path d="M3.66536 19.0622C3.1316 19.0622 2.67698 18.8744 2.30149 18.499C1.92602 18.1235 1.73828 17.6688 1.73828 17.1351V4.90593H3.66536V17.1351H13.2174V19.0622H3.66536ZM6.76953 15.9372C6.24149 15.9372 5.79177 15.7515 5.42039 15.3801C5.04898 15.0087 4.86328 14.559 4.86328 14.0309V2.82259C4.86328 2.28883 5.04898 1.8342 5.42039 1.45872C5.79177 1.08324 6.24149 0.895508 6.76953 0.895508H15.5134C16.0369 0.895508 16.4883 1.08324 16.8674 1.45872C17.2466 1.8342 17.4362 2.28883 17.4362 2.82259V14.0309C17.4362 14.559 17.2466 15.0087 16.8674 15.3801C16.4883 15.7515 16.0369 15.9372 15.5134 15.9372H6.76953ZM6.76953 14.0309H15.5091V2.82259H6.76953V14.0309Z" opacity="0.8" fill="#4D7BF1"/>
</g>
</g>
<defs>
<clipPath id="clip0_8191_110912">
<rect width="20" height="20" fill="white"/>
</clipPath>
</defs>
</svg>
