<svg width="19" height="22" viewBox="0 0 19 22" fill="none" xmlns="http://www.w3.org/2000/svg">
<path d="M2.39844 21.875C1.75792 21.875 1.21237 21.6497 0.761787 21.1991C0.311221 20.7485 0.0859375 20.203 0.0859375 19.5625V4.88745H2.39844V19.5625H13.8609V21.875H2.39844ZM6.12344 18.125C5.48979 18.125 4.95013 17.9021 4.50446 17.4564C4.05878 17.0108 3.83594 16.4711 3.83594 15.8375V2.38745C3.83594 1.74693 4.05878 1.20138 4.50446 0.750801C4.95013 0.300234 5.48979 0.0749512 6.12344 0.0749512H16.6161C17.2443 0.0749512 17.7859 0.300234 18.2409 0.750801C18.6959 1.20138 18.9234 1.74693 18.9234 2.38745V15.8375C18.9234 16.4711 18.6959 17.0108 18.2409 17.4564C17.7859 17.9021 17.2443 18.125 16.6161 18.125H6.12344ZM6.12344 15.8375H16.6109V2.38745H6.12344V15.8375Z" fill="#4D7BF1"/>
</svg>
