<svg width="20" height="20" viewBox="0 0 20 20" fill="none" xmlns="http://www.w3.org/2000/svg">
<path d="M10.0002 19.2375C7.42126 19.2375 5.23744 18.3424 3.44873 16.5522C1.65999 14.762 0.765625 12.5786 0.765625 10.0022C0.765625 7.42571 1.66094 5.23539 3.45158 3.43123C5.24219 1.62706 7.42604 0.724976 10.0031 0.724976H10.2825C10.3879 0.724976 10.5448 0.733309 10.7531 0.749976C10.3115 1.35831 9.97188 2.01248 9.73438 2.71248C9.49687 3.41248 9.37813 4.14008 9.37813 4.89528C9.37813 6.49771 9.93958 7.85743 11.0625 8.97445C12.1854 10.0915 13.549 10.65 15.1531 10.65C15.8927 10.65 16.6165 10.5475 17.3245 10.3426C18.0325 10.1377 18.6837 9.83183 19.2781 9.42498V9.97285C19.2781 12.5472 18.3765 14.7349 16.5734 16.5359C14.7702 18.337 12.5791 19.2375 10.0002 19.2375ZM10.0072 16.95C11.4878 16.95 12.8094 16.5062 13.9719 15.6187C15.1344 14.7312 15.8948 13.6916 16.2531 12.5C15.9559 12.6326 15.6219 12.7303 15.251 12.7932C14.8802 12.856 14.5317 12.8708 14.2055 12.8375C12.3537 12.6208 10.7758 11.8771 9.47175 10.6064C8.16767 9.3356 7.39896 7.72435 7.16563 5.7726C7.14896 5.51863 7.16165 5.22151 7.2037 4.88123C7.24573 4.54094 7.35388 4.13886 7.52813 3.67498C6.23646 4.16664 5.16771 5.00426 4.32188 6.18783C3.47604 7.37139 3.05313 8.64356 3.05313 10.0043C3.05313 11.9463 3.72614 13.5894 5.07218 14.9336C6.41821 16.2779 8.06322 16.95 10.0072 16.95Z" fill="#4D7BF1"/>
</svg>
