<svg width="24" height="24" viewBox="0 0 24 24" fill="none" xmlns="http://www.w3.org/2000/svg">
<g clip-path="url(#clip0_422_111714)">
<mask id="mask0_422_111714" style="mask-type:alpha" maskUnits="userSpaceOnUse" x="0" y="0" width="24" height="24">
<rect width="24" height="24" fill="#D9D9D9"/>
</mask>
<g mask="url(#mask0_422_111714)">
<path d="M6.35938 21.5C5.70636 21.5 5.15768 21.2803 4.71335 20.8409C4.26903 20.4015 4.04688 19.8587 4.04688 19.2125V5.48752H2.60938V3.2042H8.29688V2.02502H15.6844V3.20002H21.3969V5.48752H19.9594V19.2125C19.9594 19.8462 19.7341 20.3858 19.2835 20.8315C18.8329 21.2772 18.2874 21.5 17.6469 21.5H6.35938ZM17.6469 5.48752H6.35938V19.2125H17.6469V5.48752ZM8.90938 17.275H10.7719V7.36252H8.90938V17.275ZM13.2344 17.275H15.1219V7.36252H13.2344V17.275Z" fill="#4D7BF1"/>
</g>
</g>
<defs>
<clipPath id="clip0_422_111714">
<rect width="24" height="24" fill="white"/>
</clipPath>
</defs>
</svg>
