<svg width="24" height="24" viewBox="0 0 24 24" fill="none" xmlns="http://www.w3.org/2000/svg">
<g clip-path="url(#clip0_8_62)">
<mask id="mask0_8_62" style="mask-type:alpha" maskUnits="userSpaceOnUse" x="0" y="0" width="24" height="24">
<rect width="24" height="24" fill="#D9D9D9"/>
</mask>
<g mask="url(#mask0_8_62)">
<path d="M3.7875 20.5124C3.15385 20.5124 2.61418 20.2896 2.1685 19.8439C1.72283 19.3982 1.5 18.8586 1.5 18.2249V5.7749C1.5 5.13439 1.72283 4.58884 2.1685 4.13825C2.6142 3.68769 3.15387 3.4624 3.7875 3.4624H20.2125C20.853 3.4624 21.3986 3.68769 21.8491 4.13825C22.2997 4.58884 22.525 5.13439 22.525 5.7749V18.2249C22.525 18.8586 22.2997 19.3982 21.8491 19.8439C21.3986 20.2896 20.853 20.5124 20.2125 20.5124H3.7875ZM12 13.1999L3.7875 7.6624V18.2249H20.2125V7.6624L12 13.1999ZM12 11.1874L20.1 5.7749H3.925L12 11.1874ZM3.7875 7.6624V5.7749V18.2249V7.6624Z" fill="#4D7BF1"/>
</g>
</g>
<defs>
<clipPath id="clip0_8_62">
<rect width="24" height="24" fill="white"/>
</clipPath>
</defs>
</svg>
