<svg width="19" height="19" viewBox="0 0 19 19" fill="none" xmlns="http://www.w3.org/2000/svg">
<path d="M1.75313 16.4375H2.50312L13.4031 5.48754L12.6531 4.73754L1.75313 15.6875V16.4375ZM16.8406 4.50004L13.6781 1.32504L14.1656 0.812536C14.624 0.354203 15.1635 0.12087 15.7844 0.112536C16.4052 0.104203 16.9448 0.32087 17.4031 0.762536L17.8156 1.17504C18.1823 1.53337 18.3427 1.94587 18.2969 2.41254C18.251 2.8792 18.0698 3.27087 17.7531 3.58754L16.8406 4.50004ZM15.8781 5.46254L3.17813 18.15H0.015625V14.9875L12.6906 2.32504L15.8781 5.46254ZM13.0531 5.11254L12.6531 4.73754L13.4031 5.48754L13.0531 5.11254Z" fill="#4D7BF1"/>
</svg>
