<svg width="24" height="24" viewBox="0 0 24 24" fill="none" xmlns="http://www.w3.org/2000/svg">
<g clip-path="url(#clip0_35_1054)">
<mask id="mask0_35_1054" style="mask-type:alpha" maskUnits="userSpaceOnUse" x="0" y="0" width="24" height="24">
<rect width="24" height="24" fill="#D9D9D9"/>
</mask>
<g mask="url(#mask0_35_1054)">
<path d="M7.40313 21.7375V19.45H10.8656V16.4845C9.94896 16.2782 9.13893 15.8801 8.43555 15.2902C7.73218 14.7004 7.21788 13.9786 6.89265 13.125C5.37463 13.1584 4.07812 12.6641 3.00313 11.6422C1.92813 10.6203 1.39062 9.35205 1.39062 7.83755V6.73755C1.39062 6.08037 1.61174 5.53065 2.05397 5.0884C2.49624 4.64617 3.04596 4.42505 3.70312 4.42505H6.32812V2.23755H17.7031V4.42505H20.3281C20.9609 4.42505 21.5004 4.64617 21.9465 5.0884C22.3926 5.53065 22.6156 6.08037 22.6156 6.73755V7.83755C22.6156 9.35205 22.0781 10.6203 21.0031 11.6422C19.9281 12.6641 18.634 13.1584 17.1209 13.125C16.7924 13.975 16.2768 14.6956 15.5743 15.2866C14.8717 15.8776 14.0647 16.2779 13.1531 16.4875V19.45H16.6156V21.7375H7.40313ZM6.32812 10.8375V6.73755H3.70312V7.83755C3.70312 8.58755 3.95312 9.23755 4.45312 9.78755C4.95312 10.3375 5.57812 10.6875 6.32812 10.8375ZM12.0017 14.35C12.9478 14.35 13.7491 14.0179 14.4057 13.3537C15.0623 12.6895 15.3906 11.8841 15.3906 10.9375V4.55005H8.61562V10.9375C8.61562 11.8841 8.94343 12.6895 9.59905 13.3537C10.2547 14.0179 11.0555 14.35 12.0017 14.35ZM17.7031 10.8375C18.4365 10.6875 19.0573 10.3375 19.5656 9.78755C20.074 9.23755 20.3281 8.58755 20.3281 7.83755V6.73755H17.7031V10.8375Z" fill="#4D7BF1"/>
</g>
</g>
<defs>
<clipPath id="clip0_35_1054">
<rect width="24" height="24" fill="white"/>
</clipPath>
</defs>
</svg>
