<svg width="24" height="24" viewBox="0 0 24 24" fill="none" xmlns="http://www.w3.org/2000/svg">
<path fill-rule="evenodd" clip-rule="evenodd" d="M13.9017 23.8501C19.6254 22.9388 24 17.9803 24 12C24 5.37258 18.6274 0 12 0C5.37258 0 0 5.37258 0 12C0 17.9797 4.37372 22.9378 10.0966 23.8499C10.0854 23.8221 10.0792 23.7918 10.0792 23.76V15.6C10.0792 15.4675 9.97177 15.36 9.83922 15.36H7.43922C7.30667 15.36 7.19922 15.2526 7.19922 15.12V12.24C7.19922 12.1075 7.30667 12 7.43922 12H9.83922C9.97177 12 10.0792 11.8926 10.0792 11.76V8.64005C10.0792 7.20005 11.6152 4.80005 13.9192 4.80005H17.0393C17.1718 4.80005 17.2792 4.9075 17.2792 5.04005V7.92005C17.2792 8.0526 17.1718 8.16005 17.0392 8.16005H15.5992C15.1192 8.16005 13.9192 8.64005 13.9192 9.60005V11.7602C13.9192 11.8928 14.0267 12 14.1592 12H16.5592C16.6918 12 16.7992 12.1075 16.7992 12.24V15.12C16.7992 15.2526 16.6918 15.36 16.5592 15.36H14.1592C14.0267 15.36 13.9192 15.4675 13.9192 15.6V23.76C13.9192 23.7919 13.913 23.8223 13.9017 23.8501Z" fill="#4D7BF1"/>
</svg>
