<svg width="22" height="22" viewBox="0 0 22 22" fill="none" xmlns="http://www.w3.org/2000/svg">
<path d="M11.0602 16.7375C11.3491 16.7375 11.6071 16.6247 11.8343 16.399C12.0614 16.1734 12.175 15.9108 12.175 15.6113C12.175 15.3117 12.0622 15.0537 11.8365 14.8372C11.6109 14.6207 11.3495 14.5125 11.0523 14.5125C10.7551 14.5125 10.4971 14.6193 10.2783 14.8329C10.0594 15.0465 9.95 15.3086 9.95 15.6192C9.95 15.9104 10.0597 16.1696 10.2792 16.3967C10.4987 16.6239 10.759 16.7375 11.0602 16.7375ZM10 13.15H11.8C11.8 12.7583 11.8562 12.3854 11.9688 12.0312C12.0813 11.6771 12.3875 11.2875 12.8875 10.8625C13.3708 10.5041 13.7125 10.1086 13.9125 9.67597C14.1125 9.24333 14.2125 8.76701 14.2125 8.24703C14.2125 7.32773 13.9476 6.59214 13.4179 6.04028C12.8882 5.48841 12.1505 5.21248 11.2049 5.21248C10.3496 5.21248 9.58564 5.44446 8.91302 5.90843C8.24043 6.37239 7.74442 6.99163 7.425 7.76615L9.11515 8.38748C9.31338 7.90414 9.58324 7.54164 9.92473 7.29998C10.2662 7.05831 10.633 6.93748 11.025 6.93748C11.4333 6.93748 11.7812 7.05957 12.0688 7.30375C12.3563 7.54795 12.5 7.87323 12.5 8.27958C12.5 8.58484 12.4045 8.88912 12.2135 9.1924C12.0225 9.49567 11.7619 9.78204 11.4317 10.0515C10.9772 10.4338 10.625 10.8678 10.375 11.3535C10.125 11.8392 10 12.4381 10 13.15ZM11.005 21.5C9.55323 21.5 8.18861 21.2262 6.91117 20.6788C5.63374 20.1314 4.51947 19.3813 3.56835 18.4285C2.61723 17.4757 1.86807 16.3629 1.32085 15.09C0.773617 13.8171 0.5 12.4555 0.5 11.005C0.5 9.53654 0.773725 8.16358 1.32118 6.88615C1.86863 5.60872 2.61742 4.49609 3.56755 3.54828C4.5177 2.60044 5.62983 1.85127 6.90393 1.30075C8.17804 0.750234 9.54102 0.474976 10.9929 0.474976C12.4627 0.474976 13.8374 0.750684 15.1169 1.3021C16.3964 1.85352 17.5094 2.60188 18.4559 3.54718C19.4024 4.49246 20.1505 5.60303 20.7003 6.87888C21.2501 8.15471 21.525 9.52788 21.525 10.9984C21.525 12.4525 21.2496 13.8181 20.6989 15.0953C20.1482 16.3724 19.3981 17.4856 18.4486 18.4347C17.4991 19.3838 16.3879 20.1319 15.1151 20.6792C13.8422 21.2264 12.4722 21.5 11.005 21.5ZM10.9992 19.2125C13.2747 19.2125 15.2125 18.4138 16.8125 16.8165C18.4125 15.2192 19.2125 13.2806 19.2125 11.0008C19.2125 8.72525 18.4128 6.78748 16.8133 5.18748C15.2139 3.58748 13.2722 2.78748 10.9883 2.78748C8.72111 2.78748 6.7875 3.5872 5.1875 5.18665C3.5875 6.7861 2.7875 8.72777 2.7875 11.0117C2.7875 13.2789 3.58616 15.2125 5.18348 16.8125C6.78079 18.4125 8.71936 19.2125 10.9992 19.2125Z" fill="#4D7BF1"/>
</svg>
