<svg width="24" height="24" viewBox="0 0 24 24" fill="none" xmlns="http://www.w3.org/2000/svg">
<g clip-path="url(#clip0_424_110436)">
<mask id="mask0_424_110436" style="mask-type:alpha" maskUnits="userSpaceOnUse" x="0" y="0" width="24" height="24">
<rect width="24" height="24" fill="#D9D9D9"/>
</mask>
<g mask="url(#mask0_424_110436)">
<path d="M12.0602 17.7375C12.3491 17.7375 12.6071 17.6247 12.8343 17.399C13.0614 17.1734 13.175 16.9108 13.175 16.6113C13.175 16.3117 13.0622 16.0537 12.8365 15.8372C12.6109 15.6207 12.3495 15.5125 12.0523 15.5125C11.7551 15.5125 11.4971 15.6193 11.2783 15.8329C11.0594 16.0465 10.95 16.3086 10.95 16.6192C10.95 16.9104 11.0597 17.1696 11.2792 17.3967C11.4987 17.6239 11.759 17.7375 12.0602 17.7375ZM11 14.15H12.8C12.8 13.7583 12.8562 13.3854 12.9688 13.0312C13.0813 12.6771 13.3875 12.2875 13.8875 11.8625C14.3708 11.5041 14.7125 11.1086 14.9125 10.676C15.1125 10.2433 15.2125 9.76701 15.2125 9.24703C15.2125 8.32773 14.9476 7.59214 14.4179 7.04028C13.8882 6.48841 13.1505 6.21248 12.2049 6.21248C11.3496 6.21248 10.5856 6.44446 9.91302 6.90843C9.24043 7.37239 8.74442 7.99163 8.425 8.76615L10.1151 9.38748C10.3134 8.90414 10.5832 8.54164 10.9247 8.29998C11.2662 8.05831 11.633 7.93748 12.025 7.93748C12.4333 7.93748 12.7812 8.05957 13.0688 8.30375C13.3563 8.54795 13.5 8.87323 13.5 9.27958C13.5 9.58484 13.4045 9.88912 13.2135 10.1924C13.0225 10.4957 12.7619 10.782 12.4317 11.0515C11.9772 11.4338 11.625 11.8678 11.375 12.3535C11.125 12.8392 11 13.4381 11 14.15ZM12.005 22.5C10.5532 22.5 9.18861 22.2262 7.91117 21.6788C6.63374 21.1314 5.51947 20.3813 4.56835 19.4285C3.61723 18.4757 2.86807 17.3629 2.32085 16.09C1.77362 14.8171 1.5 13.4555 1.5 12.005C1.5 10.5365 1.77373 9.16358 2.32118 7.88615C2.86863 6.60872 3.61742 5.49609 4.56755 4.54828C5.5177 3.60044 6.62983 2.85127 7.90393 2.30075C9.17804 1.75023 10.541 1.47498 11.9929 1.47498C13.4627 1.47498 14.8374 1.75068 16.1169 2.3021C17.3964 2.85352 18.5094 3.60188 19.4559 4.54718C20.4024 5.49246 21.1505 6.60303 21.7003 7.87888C22.2501 9.15471 22.525 10.5279 22.525 11.9984C22.525 13.4525 22.2496 14.8181 21.6989 16.0953C21.1482 17.3724 20.3981 18.4856 19.4486 19.4347C18.4991 20.3838 17.3879 21.1319 16.1151 21.6792C14.8422 22.2264 13.4722 22.5 12.005 22.5ZM11.9992 20.2125C14.2747 20.2125 16.2125 19.4138 17.8125 17.8165C19.4125 16.2192 20.2125 14.2806 20.2125 12.0008C20.2125 9.72525 19.4128 7.78748 17.8133 6.18748C16.2139 4.58748 14.2722 3.78748 11.9883 3.78748C9.72111 3.78748 7.7875 4.5872 6.1875 6.18665C4.5875 7.7861 3.7875 9.72777 3.7875 12.0117C3.7875 14.2789 4.58616 16.2125 6.18348 17.8125C7.78079 19.4125 9.71936 20.2125 11.9992 20.2125Z" fill="#4D7BF1"/>
</g>
</g>
<defs>
<clipPath id="clip0_424_110436">
<rect width="24" height="24" fill="white"/>
</clipPath>
</defs>
</svg>
