<svg width="224" height="1890" viewBox="0 0 224 1890" fill="none" xmlns="http://www.w3.org/2000/svg">
<rect width="224" height="1890" fill="white"/>
<path d="M104.5 107.508C103.882 107.508 103.529 108.213 103.9 108.708L111.4 118.708C111.7 119.108 112.3 119.108 112.6 118.708L120.1 108.708C120.471 108.213 120.118 107.508 119.5 107.508L104.5 107.508Z" fill="#4D7BF1"/>
<path d="M119.5 151.508C120.118 151.508 120.471 150.802 120.1 150.308L112.6 140.308C112.3 139.908 111.7 139.908 111.4 140.308L103.9 150.308C103.529 150.802 103.882 151.508 104.5 151.508L119.5 151.508Z" fill="#4D7BF1"/>
<g clip-path="url(#clip0_83_6836)">
<mask id="mask0_83_6836" style="mask-type:alpha" maskUnits="userSpaceOnUse" x="100" y="168" width="24" height="24">
<rect x="100" y="168" width="24" height="24" fill="#D9D9D9"/>
</mask>
<g mask="url(#mask0_83_6836)">
<path d="M103.788 188.512C103.154 188.512 102.614 188.29 102.168 187.844C101.723 187.398 101.5 186.859 101.5 186.225V173.775C101.5 173.134 101.723 172.589 102.168 172.138C102.614 171.688 103.154 171.462 103.788 171.462H120.212C120.853 171.462 121.399 171.688 121.849 172.138C122.3 172.589 122.525 173.134 122.525 173.775V186.225C122.525 186.859 122.3 187.398 121.849 187.844C121.399 188.29 120.853 188.512 120.212 188.512H103.788ZM112 181.2L103.788 175.662V186.225H120.212V175.662L112 181.2ZM112 179.187L120.1 173.775H103.925L112 179.187ZM103.788 175.662V173.775V186.225V175.662Z" fill="#4D7BF1"/>
</g>
</g>
<g clip-path="url(#clip1_83_6836)">
<mask id="mask1_83_6836" style="mask-type:alpha" maskUnits="userSpaceOnUse" x="100" y="202" width="24" height="24">
<rect x="100" y="202" width="24" height="24" fill="#D9D9D9"/>
</mask>
<g mask="url(#mask1_83_6836)">
<path d="M112.002 217.938L105.477 211.413L107.114 209.788L112.002 214.675L116.889 209.788L118.527 211.413L112.002 217.938Z" fill="#4D7BF1"/>
</g>
</g>
<g clip-path="url(#clip2_83_6836)">
<mask id="mask2_83_6836" style="mask-type:alpha" maskUnits="userSpaceOnUse" x="100" y="236" width="24" height="24">
<rect x="100" y="236" width="24" height="24" fill="#D9D9D9"/>
</mask>
<g mask="url(#mask2_83_6836)">
<path d="M112.002 246.725L107.114 251.612L105.477 249.987L112.002 243.462L118.527 249.987L116.889 251.612L112.002 246.725Z" fill="#4D7BF1"/>
</g>
</g>
<g clip-path="url(#clip3_83_6836)">
<mask id="mask3_83_6836" style="mask-type:alpha" maskUnits="userSpaceOnUse" x="100" y="270" width="24" height="24">
<rect x="124" y="294" width="24" height="24" transform="rotate(-180 124 294)" fill="#D9D9D9"/>
</mask>
<g mask="url(#mask3_83_6836)">
<path d="M109.989 275.475L116.539 282.025L109.989 288.575L108.364 286.937L113.277 282.025L108.364 277.112L109.989 275.475Z" fill="#4D7BF1"/>
</g>
</g>
<g clip-path="url(#clip4_83_6836)">
<mask id="mask4_83_6836" style="mask-type:alpha" maskUnits="userSpaceOnUse" x="100" y="304" width="24" height="24">
<rect x="100" y="304" width="24" height="24" fill="#D9D9D9"/>
</mask>
<g mask="url(#mask4_83_6836)">
<path d="M114.011 322.525L107.461 315.975L114.011 309.425L115.636 311.063L110.723 315.975L115.636 320.888L114.011 322.525Z" fill="#4D7BF1"/>
</g>
</g>
<g clip-path="url(#clip5_83_6836)">
<mask id="mask5_83_6836" style="mask-type:alpha" maskUnits="userSpaceOnUse" x="100" y="338" width="24" height="24">
<rect x="100" y="338" width="24" height="24" fill="#D9D9D9"/>
</mask>
<g mask="url(#mask5_83_6836)">
<path d="M107.687 350.7V343.85L105.1 346.463L103.5 344.85L108.862 339.475L114.212 344.838L112.612 346.45L110 343.85V350.7H107.687ZM115.175 360.5L109.825 355.15L111.425 353.538L114.012 356.125V349.275H116.325V356.125L118.925 353.538L120.525 355.15L115.175 360.5Z" fill="#4D7BF1"/>
</g>
</g>
<g clip-path="url(#clip6_83_6836)">
<mask id="mask6_83_6836" style="mask-type:alpha" maskUnits="userSpaceOnUse" x="100" y="372" width="24" height="24">
<rect x="100" y="372" width="24" height="24" fill="#D9D9D9"/>
</mask>
<g mask="url(#mask6_83_6836)">
<path d="M106.85 392.5L101.5 387.138L106.85 381.788L108.463 383.388L105.875 386H112.725V388.313H105.875L108.463 390.9L106.85 392.5ZM117.15 386.175L115.538 384.575L118.15 381.988H111.3V379.675H118.15L115.55 377.075L117.163 375.475L122.525 380.825L117.15 386.175Z" fill="#4D7BF1"/>
</g>
</g>
<g clip-path="url(#clip7_83_6836)">
<mask id="mask7_83_6836" style="mask-type:alpha" maskUnits="userSpaceOnUse" x="100" y="406" width="24" height="24">
<rect width="24" height="24" transform="matrix(-1 1.74846e-07 1.74846e-07 1 124 406)" fill="#D9D9D9"/>
</mask>
<g mask="url(#mask7_83_6836)">
<path d="M116.113 419.138L110.363 424.888L112 426.5L120.5 418L112 409.475L110.363 411.113L116.113 416.85L103.475 416.85L103.475 419.138L116.113 419.138Z" fill="#4D7BF1"/>
</g>
</g>
<g clip-path="url(#clip8_83_6836)">
<mask id="mask8_83_6836" style="mask-type:alpha" maskUnits="userSpaceOnUse" x="100" y="440" width="24" height="24">
<rect width="24" height="24" transform="matrix(1 -1.74846e-07 -1.74846e-07 -1 100 464)" fill="#D9D9D9"/>
</mask>
<g mask="url(#mask8_83_6836)">
<path d="M107.887 450.862L113.637 445.112L112 443.5L103.5 452L112 460.525L113.637 458.887L107.887 453.15L120.525 453.15L120.525 450.862L107.887 450.862Z" fill="#4D7BF1"/>
</g>
</g>
<g clip-path="url(#clip9_83_6836)">
<mask id="mask9_83_6836" style="mask-type:alpha" maskUnits="userSpaceOnUse" x="100" y="474" width="24" height="24">
<rect x="100" y="474" width="24" height="24" fill="#D9D9D9"/>
</mask>
<g mask="url(#mask9_83_6836)">
<path d="M110.862 477.475V490.113L105.112 484.363L103.5 486L112 494.5L120.525 486L118.887 484.363L113.15 490.113V477.475H110.862Z" fill="#4D7BF1"/>
</g>
</g>
<g clip-path="url(#clip10_83_6836)">
<mask id="mask10_83_6836" style="mask-type:alpha" maskUnits="userSpaceOnUse" x="100" y="508" width="24" height="24">
<rect x="100" y="508" width="24" height="24" fill="#D9D9D9"/>
</mask>
<g mask="url(#mask10_83_6836)">
<path d="M104.772 529.512C104.138 529.512 103.599 529.29 103.153 528.844C102.707 528.398 102.484 527.859 102.484 527.225V512.775C102.484 512.134 102.707 511.589 103.153 511.138C103.599 510.688 104.138 510.462 104.772 510.462H119.222C119.862 510.462 120.408 510.688 120.859 511.138C121.309 511.589 121.534 512.134 121.534 512.775V527.225C121.534 527.859 121.309 528.398 120.859 528.844C120.408 529.29 119.862 529.512 119.222 529.512H104.772ZM104.772 527.225H119.222V512.775H104.772V527.225ZM105.672 525.262H118.359L114.422 519.85L111.147 524.087L108.847 520.962L105.672 525.262Z" fill="#4D7BF1"/>
</g>
</g>
<g clip-path="url(#clip11_83_6836)">
<mask id="mask11_83_6836" style="mask-type:alpha" maskUnits="userSpaceOnUse" x="100" y="542" width="24" height="24">
<rect x="100" y="542" width="24" height="24" fill="#D9D9D9"/>
</mask>
<g mask="url(#mask11_83_6836)">
<path d="M111.937 562.512C109.578 562.512 107.567 561.681 105.906 560.02C104.245 558.358 103.414 556.352 103.414 554.004C103.414 551.656 104.245 549.645 105.906 547.972C107.567 546.299 109.578 545.462 111.939 545.462C113.439 545.462 114.765 545.766 115.918 546.374C117.07 546.982 118.061 547.836 118.889 548.937V545.462H120.627V552.6H113.464V550.887H117.502C116.851 549.954 116.072 549.201 115.163 548.631C114.255 548.06 113.18 547.775 111.94 547.775C110.194 547.775 108.717 548.377 107.511 549.583C106.305 550.788 105.702 552.261 105.702 554.001C105.702 555.742 106.304 557.214 107.508 558.419C108.712 559.623 110.188 560.225 111.936 560.225C113.223 560.225 114.417 559.854 115.516 559.112C116.615 558.371 117.399 557.387 117.869 556.162H120.227C119.735 558.046 118.72 559.575 117.183 560.75C115.645 561.925 113.897 562.512 111.937 562.512Z" fill="#4D7BF1"/>
</g>
</g>
<g clip-path="url(#clip12_83_6836)">
<mask id="mask12_83_6836" style="mask-type:alpha" maskUnits="userSpaceOnUse" x="100" y="576" width="24" height="24">
<rect x="100" y="576" width="24" height="24" fill="#D9D9D9"/>
</mask>
<g mask="url(#mask12_83_6836)">
<path d="M106.264 595.35L104.664 593.737L110.389 588L104.664 582.262L106.264 580.65L112.002 586.387L117.739 580.65L119.339 582.262L113.614 588L119.339 593.737L117.739 595.35L112.002 589.612L106.264 595.35Z" fill="#4D7BF1"/>
</g>
</g>
<g clip-path="url(#clip13_83_6836)">
<mask id="mask13_83_6836" style="mask-type:alpha" maskUnits="userSpaceOnUse" x="100" y="610" width="24" height="24">
<rect x="100" y="610" width="24" height="24" fill="#D9D9D9"/>
</mask>
<g mask="url(#mask13_83_6836)">
<path d="M107.403 631.738V629.45H110.866V626.484C109.949 626.278 109.139 625.88 108.436 625.29C107.732 624.7 107.218 623.979 106.893 623.125C105.375 623.158 104.078 622.664 103.003 621.642C101.928 620.62 101.391 619.352 101.391 617.838V616.738C101.391 616.08 101.612 615.531 102.054 615.088C102.496 614.646 103.046 614.425 103.703 614.425H106.328V612.238H117.703V614.425H120.328C120.961 614.425 121.5 614.646 121.946 615.088C122.393 615.531 122.616 616.08 122.616 616.738V617.838C122.616 619.352 122.078 620.62 121.003 621.642C119.928 622.664 118.634 623.158 117.121 623.125C116.792 623.975 116.277 624.696 115.574 625.287C114.872 625.878 114.065 626.278 113.153 626.488V629.45H116.616V631.738H107.403ZM106.328 620.838V616.738H103.703V617.838C103.703 618.588 103.953 619.238 104.453 619.788C104.953 620.338 105.578 620.688 106.328 620.838ZM112.002 624.35C112.948 624.35 113.749 624.018 114.406 623.354C115.062 622.689 115.391 621.884 115.391 620.938V614.55H108.616V620.938C108.616 621.884 108.943 622.689 109.599 623.354C110.255 624.018 111.056 624.35 112.002 624.35ZM117.703 620.838C118.436 620.688 119.057 620.338 119.566 619.788C120.074 619.238 120.328 618.588 120.328 617.838V616.738H117.703V620.838Z" fill="#4D7BF1"/>
</g>
</g>
<mask id="mask14_83_6836" style="mask-type:alpha" maskUnits="userSpaceOnUse" x="100" y="644" width="24" height="24">
<rect x="100" y="644" width="24" height="24" fill="#D9D9D9"/>
</mask>
<g mask="url(#mask14_83_6836)">
<path d="M111.1 663H112.85V661.75C113.683 661.6 114.4 661.275 115 660.775C115.6 660.275 115.9 659.533 115.9 658.55C115.9 657.85 115.7 657.208 115.3 656.625C114.9 656.042 114.1 655.533 112.9 655.1C111.9 654.767 111.208 654.475 110.825 654.225C110.442 653.975 110.25 653.633 110.25 653.2C110.25 652.767 110.404 652.425 110.713 652.175C111.021 651.925 111.467 651.8 112.05 651.8C112.583 651.8 113 651.929 113.3 652.188C113.6 652.446 113.817 652.767 113.95 653.15L115.55 652.5C115.367 651.917 115.029 651.408 114.538 650.975C114.046 650.542 113.5 650.3 112.9 650.25V649H111.15V650.25C110.317 650.433 109.667 650.8 109.2 651.35C108.733 651.9 108.5 652.517 108.5 653.2C108.5 653.983 108.729 654.617 109.188 655.1C109.646 655.583 110.367 656 111.35 656.35C112.4 656.733 113.129 657.075 113.538 657.375C113.946 657.675 114.15 658.067 114.15 658.55C114.15 659.1 113.954 659.504 113.562 659.762C113.171 660.021 112.7 660.15 112.15 660.15C111.6 660.15 111.113 659.979 110.688 659.637C110.262 659.296 109.95 658.783 109.75 658.1L108.1 658.75C108.333 659.55 108.696 660.196 109.188 660.688C109.679 661.179 110.317 661.517 111.1 661.7V663ZM112 666C110.617 666 109.317 665.737 108.1 665.212C106.883 664.688 105.825 663.975 104.925 663.075C104.025 662.175 103.312 661.117 102.788 659.9C102.262 658.683 102 657.383 102 656C102 654.617 102.262 653.317 102.788 652.1C103.312 650.883 104.025 649.825 104.925 648.925C105.825 648.025 106.883 647.312 108.1 646.788C109.317 646.262 110.617 646 112 646C113.383 646 114.683 646.262 115.9 646.788C117.117 647.312 118.175 648.025 119.075 648.925C119.975 649.825 120.688 650.883 121.212 652.1C121.737 653.317 122 654.617 122 656C122 657.383 121.737 658.683 121.212 659.9C120.688 661.117 119.975 662.175 119.075 663.075C118.175 663.975 117.117 664.688 115.9 665.212C114.683 665.737 113.383 666 112 666ZM112 664C114.233 664 116.125 663.225 117.675 661.675C119.225 660.125 120 658.233 120 656C120 653.767 119.225 651.875 117.675 650.325C116.125 648.775 114.233 648 112 648C109.767 648 107.875 648.775 106.325 650.325C104.775 651.875 104 653.767 104 656C104 658.233 104.775 660.125 106.325 661.675C107.875 663.225 109.767 664 112 664Z" fill="#4D7BF1"/>
</g>
<mask id="mask15_83_6836" style="mask-type:alpha" maskUnits="userSpaceOnUse" x="100" y="678" width="24" height="24">
<rect x="100" y="678" width="24" height="24" fill="#D9D9D9"/>
</mask>
<g mask="url(#mask15_83_6836)">
<path d="M114.925 692.25L112 690.475L109.075 692.25L109.85 688.925L107.25 686.675L110.675 686.4L112 683.25L113.325 686.4L116.75 686.675L114.15 688.925L114.925 692.25ZM122 700V682C122 681.45 121.804 680.979 121.412 680.588C121.021 680.196 120.55 680 120 680H104C103.45 680 102.979 680.196 102.587 680.588C102.196 680.979 102 681.45 102 682V694C102 694.55 102.196 695.021 102.587 695.413C102.979 695.804 103.45 696 104 696H118L122 700ZM118.85 694H104V682H120V695.125L118.85 694Z" fill="#4D7BF1"/>
</g>
<g clip-path="url(#clip14_83_6836)">
<mask id="mask16_83_6836" style="mask-type:alpha" maskUnits="userSpaceOnUse" x="100" y="712" width="24" height="24">
<rect x="100" y="712" width="24" height="24" fill="#D9D9D9"/>
</mask>
<g mask="url(#mask16_83_6836)">
<path d="M109.464 730.375L103.352 724.263L105.014 722.6L109.464 727.063L118.977 717.55L120.627 719.213L109.464 730.375Z" fill="#4D7BF1"/>
</g>
</g>
<g clip-path="url(#clip15_83_6836)">
<mask id="mask17_83_6836" style="mask-type:alpha" maskUnits="userSpaceOnUse" x="100" y="746" width="24" height="24">
<rect x="100" y="746" width="24" height="24" fill="#D9D9D9"/>
</mask>
<g mask="url(#mask17_83_6836)">
<path d="M102.5 764.825V762.512H121.525V764.825H102.5ZM102.5 759.137V756.85H121.525V759.137H102.5ZM102.5 753.475V751.162H121.525V753.475H102.5Z" fill="#4D7BF1"/>
</g>
</g>
<g clip-path="url(#clip16_83_6836)">
<mask id="mask18_83_6836" style="mask-type:alpha" maskUnits="userSpaceOnUse" x="100" y="780" width="24" height="24">
<rect x="100" y="780" width="24" height="24" fill="#D9D9D9"/>
</mask>
<g mask="url(#mask18_83_6836)">
<path d="M119.814 801.563L113.14 794.913C112.664 795.303 112.098 795.603 111.44 795.812C110.782 796.021 110.079 796.125 109.331 796.125C107.434 796.125 105.829 795.467 104.513 794.151C103.197 792.834 102.539 791.247 102.539 789.388C102.539 787.529 103.195 785.942 104.507 784.625C105.818 783.308 107.41 782.65 109.282 782.65C111.153 782.65 112.743 783.308 114.052 784.625C115.36 785.942 116.014 787.531 116.014 789.393C116.014 790.131 115.91 790.819 115.702 791.456C115.493 792.094 115.185 792.694 114.777 793.257L121.477 799.9L119.814 801.563ZM109.31 793.838C110.55 793.838 111.596 793.406 112.448 792.542C113.301 791.679 113.727 790.627 113.727 789.386C113.727 788.145 113.299 787.094 112.445 786.231C111.59 785.369 110.543 784.938 109.304 784.938C108.051 784.938 106.991 785.369 106.126 786.233C105.26 787.096 104.827 788.148 104.827 789.389C104.827 790.63 105.259 791.681 106.123 792.544C106.987 793.406 108.05 793.838 109.31 793.838Z" fill="#4D7BF1"/>
</g>
</g>
<g clip-path="url(#clip17_83_6836)">
<mask id="mask19_83_6836" style="mask-type:alpha" maskUnits="userSpaceOnUse" x="100" y="814" width="24" height="24">
<rect x="100" y="814" width="24" height="24" fill="#D9D9D9"/>
</mask>
<g mask="url(#mask19_83_6836)">
<path d="M106.359 835.5C105.706 835.5 105.158 835.28 104.713 834.841C104.269 834.401 104.047 833.859 104.047 833.213V819.488H102.609V817.204H108.297V816.025H115.684V817.2H121.397V819.488H119.959V833.213C119.959 833.846 119.734 834.386 119.284 834.832C118.833 835.277 118.287 835.5 117.647 835.5H106.359ZM117.647 819.488H106.359V833.213H117.647V819.488ZM108.909 831.275H110.772V821.363H108.909V831.275ZM113.234 831.275H115.122V821.363H113.234V831.275Z" fill="#4D7BF1"/>
</g>
</g>
<g clip-path="url(#clip18_83_6836)">
<mask id="mask20_83_6836" style="mask-type:alpha" maskUnits="userSpaceOnUse" x="100" y="848" width="24" height="24">
<rect x="100" y="848" width="24" height="24" fill="#D9D9D9"/>
</mask>
<g mask="url(#mask20_83_6836)">
<path d="M112.003 863.675C113.163 863.675 114.149 863.269 114.959 862.456C115.77 861.644 116.175 860.658 116.175 859.497C116.175 858.337 115.769 857.351 114.956 856.541C114.144 855.73 113.158 855.325 111.997 855.325C110.837 855.325 109.851 855.731 109.041 856.544C108.23 857.356 107.825 858.342 107.825 859.503C107.825 860.664 108.231 861.649 109.044 862.459C109.856 863.27 110.842 863.675 112.003 863.675ZM112.001 861.875C111.342 861.875 110.781 861.644 110.319 861.183C109.856 860.721 109.625 860.161 109.625 859.501C109.625 858.842 109.856 858.281 110.317 857.819C110.779 857.356 111.339 857.125 111.999 857.125C112.658 857.125 113.219 857.356 113.681 857.817C114.144 858.279 114.375 858.839 114.375 859.499C114.375 860.158 114.144 860.719 113.683 861.181C113.221 861.644 112.661 861.875 112.001 861.875ZM112 867.475C109.467 867.475 107.179 866.733 105.138 865.25C103.096 863.767 101.571 861.85 100.562 859.5C101.571 857.15 103.096 855.233 105.138 853.75C107.179 852.267 109.467 851.525 112 851.525C114.533 851.525 116.821 852.267 118.863 853.75C120.904 855.233 122.429 857.15 123.438 859.5C122.429 861.85 120.904 863.767 118.863 865.25C116.821 866.733 114.533 867.475 112 867.475ZM111.998 865.463C113.997 865.463 115.831 864.921 117.498 863.838C119.166 862.754 120.438 861.308 121.312 859.5C120.438 857.692 119.167 856.246 117.5 855.163C115.834 854.079 114.001 853.538 112.002 853.538C110.003 853.538 108.169 854.079 106.502 855.163C104.834 856.246 103.554 857.692 102.663 859.5C103.554 861.308 104.833 862.754 106.5 863.838C108.166 864.921 109.999 865.463 111.998 865.463Z" fill="#4D7BF1"/>
</g>
</g>
<g clip-path="url(#clip19_83_6836)">
<mask id="mask21_83_6836" style="mask-type:alpha" maskUnits="userSpaceOnUse" x="100" y="882" width="24" height="24">
<rect x="100" y="882" width="24" height="24" fill="#D9D9D9"/>
</mask>
<g mask="url(#mask21_83_6836)">
<path d="M112 897.887L106.387 892.262L108.037 890.675L110.862 893.5V885.475H113.15V893.5L115.975 890.675L117.625 892.262L112 897.887ZM105.787 902.5C105.154 902.5 104.614 902.277 104.169 901.831C103.723 901.386 103.5 900.846 103.5 900.212V896.662H105.787V900.212H118.212V896.662H120.525V900.212C120.525 900.845 120.3 901.385 119.849 901.831C119.399 902.277 118.853 902.5 118.212 902.5H105.787Z" fill="#4D7BF1"/>
</g>
</g>
<g clip-path="url(#clip20_83_6836)">
<mask id="mask22_83_6836" style="mask-type:alpha" maskUnits="userSpaceOnUse" x="100" y="916" width="24" height="24">
<rect x="100" y="916" width="24" height="24" fill="#D9D9D9"/>
</mask>
<g mask="url(#mask22_83_6836)">
<path d="M112.06 933.737C112.349 933.737 112.607 933.625 112.834 933.399C113.061 933.173 113.175 932.911 113.175 932.611C113.175 932.312 113.062 932.054 112.837 931.837C112.611 931.621 112.349 931.512 112.052 931.512C111.755 931.512 111.497 931.619 111.278 931.833C111.059 932.047 110.95 932.309 110.95 932.619C110.95 932.91 111.06 933.17 111.279 933.397C111.499 933.624 111.759 933.737 112.06 933.737ZM111 930.15H112.8C112.8 929.758 112.856 929.385 112.969 929.031C113.081 928.677 113.387 928.287 113.887 927.862C114.371 927.504 114.713 927.109 114.913 926.676C115.113 926.243 115.213 925.767 115.213 925.247C115.213 924.328 114.948 923.592 114.418 923.04C113.888 922.488 113.151 922.212 112.205 922.212C111.35 922.212 110.586 922.444 109.913 922.908C109.24 923.372 108.744 923.992 108.425 924.766L110.115 925.387C110.313 924.904 110.583 924.542 110.925 924.3C111.266 924.058 111.633 923.937 112.025 923.937C112.433 923.937 112.781 924.06 113.069 924.304C113.356 924.548 113.5 924.873 113.5 925.28C113.5 925.585 113.405 925.889 113.214 926.192C113.023 926.496 112.762 926.782 112.432 927.052C111.977 927.434 111.625 927.868 111.375 928.354C111.125 928.839 111 929.438 111 930.15ZM112.005 938.5C110.553 938.5 109.189 938.226 107.911 937.679C106.634 937.131 105.519 936.381 104.568 935.429C103.617 934.476 102.868 933.363 102.321 932.09C101.774 930.817 101.5 929.455 101.5 928.005C101.5 926.537 101.774 925.164 102.321 923.886C102.869 922.609 103.617 921.496 104.568 920.548C105.518 919.6 106.63 918.851 107.904 918.301C109.178 917.75 110.541 917.475 111.993 917.475C113.463 917.475 114.837 917.751 116.117 918.302C117.396 918.854 118.509 919.602 119.456 920.547C120.402 921.492 121.151 922.603 121.7 923.879C122.25 925.155 122.525 926.528 122.525 927.998C122.525 929.452 122.25 930.818 121.699 932.095C121.148 933.372 120.398 934.486 119.449 935.435C118.499 936.384 117.388 937.132 116.115 937.679C114.842 938.226 113.472 938.5 112.005 938.5ZM111.999 936.212C114.275 936.212 116.212 935.414 117.812 933.817C119.413 932.219 120.212 930.281 120.212 928.001C120.212 925.725 119.413 923.787 117.813 922.187C116.214 920.587 114.272 919.787 111.988 919.787C109.721 919.787 107.787 920.587 106.188 922.187C104.588 923.786 103.788 925.728 103.788 928.012C103.788 930.279 104.586 932.212 106.183 933.812C107.781 935.412 109.719 936.212 111.999 936.212Z" fill="#4D7BF1"/>
</g>
</g>
<mask id="mask23_83_6836" style="mask-type:alpha" maskUnits="userSpaceOnUse" x="100" y="950" width="24" height="24">
<rect x="100" y="950" width="24" height="24" fill="#D9D9D9"/>
</mask>
<g mask="url(#mask23_83_6836)">
<path d="M106.748 971.862C105.473 971.862 104.378 971.404 103.461 970.487C102.544 969.571 102.086 968.475 102.086 967.2C102.086 965.925 102.544 964.829 103.461 963.912C104.378 962.996 105.473 962.537 106.748 962.537C108.023 962.537 109.119 962.996 110.036 963.912C110.953 964.829 111.411 965.925 111.411 967.2C111.411 968.475 110.953 969.571 110.036 970.487C109.119 971.404 108.023 971.862 106.748 971.862ZM120.948 971.575L114.373 965C114.073 965.267 113.728 965.51 113.336 965.731C112.944 965.952 112.573 966.137 112.223 966.287C112.215 965.737 112.169 965.252 112.086 964.831C112.003 964.41 111.886 964.037 111.736 963.712C112.628 963.404 113.369 962.877 113.961 962.131C114.553 961.385 114.848 960.475 114.848 959.4C114.848 958.15 114.423 957.096 113.573 956.237C112.723 955.379 111.673 954.95 110.423 954.95C109.182 954.95 108.126 955.379 107.255 956.237C106.384 957.096 105.948 958.15 105.948 959.4C105.948 959.692 105.973 960.004 106.023 960.337C106.073 960.671 106.153 960.929 106.261 961.112C105.911 961.146 105.532 961.221 105.123 961.337C104.715 961.454 104.361 961.596 104.061 961.762C103.919 961.429 103.817 961.044 103.755 960.606C103.692 960.169 103.661 959.767 103.661 959.4C103.661 957.525 104.319 955.933 105.636 954.625C106.953 953.317 108.548 952.662 110.423 952.662C112.282 952.662 113.865 953.321 115.173 954.637C116.482 955.954 117.136 957.542 117.136 959.4C117.136 960.117 117.026 960.821 116.805 961.512C116.584 962.204 116.282 962.792 115.898 963.275L122.611 969.912L120.948 971.575ZM105.898 969.925L107.323 968.475L108.161 969.312L109.411 968.05L107.986 966.65L108.886 965.75L107.636 964.487L106.186 965.937L105.298 965.062L104.048 966.312L105.523 967.762L104.636 968.65L105.898 969.925Z" fill="#4D7BF1"/>
</g>
<g clip-path="url(#clip21_83_6836)">
<mask id="mask24_83_6836" style="mask-type:alpha" maskUnits="userSpaceOnUse" x="100" y="984" width="24" height="24">
<rect x="100" y="984" width="24" height="24" fill="#D9D9D9"/>
</mask>
<g mask="url(#mask24_83_6836)">
<path fill-rule="evenodd" clip-rule="evenodd" d="M119.682 992.954C120.036 993.886 120.212 994.903 120.212 996.003C120.212 996.964 120.073 997.862 119.794 998.697C119.515 999.532 119.021 1000.41 118.312 1001.34C117.293 1000.67 116.279 1000.15 115.271 999.769C114.263 999.39 113.176 999.2 112.011 999.2C110.845 999.2 109.765 999.383 108.769 999.75C107.773 1000.12 106.757 1000.65 105.722 1001.34C104.992 1000.4 104.487 999.52 104.207 998.689C103.927 997.858 103.788 996.963 103.788 996.003C103.788 993.68 104.577 991.73 106.156 990.153C107.735 988.576 109.685 987.787 112.004 987.787C112.703 987.787 113.369 987.859 114 988.002C114 988.002 114 988.001 114 988C114 987.205 114.186 986.453 114.516 985.786C113.705 985.579 112.869 985.475 112.009 985.475C110.563 985.475 109.204 985.756 107.932 986.319C106.661 986.881 105.548 987.639 104.594 988.591C103.64 989.543 102.886 990.66 102.332 991.942C101.777 993.224 101.5 994.574 101.5 995.991C101.5 997.436 101.775 998.794 102.326 1000.06C102.877 1001.34 103.631 1002.45 104.589 1003.41C105.546 1004.37 106.663 1005.12 107.939 1005.67C109.214 1006.22 110.565 1006.5 111.991 1006.5C113.415 1006.5 114.769 1006.22 116.051 1005.67C117.334 1005.11 118.452 1004.36 119.406 1003.41C120.36 1002.46 121.118 1001.34 121.681 1000.06C122.244 998.786 122.525 997.435 122.525 996.009C122.525 994.663 122.274 993.381 121.772 992.162C121.158 992.572 120.448 992.849 119.682 992.954ZM109.467 995.878C110.145 996.559 110.988 996.9 111.997 996.9C113.006 996.9 113.85 996.56 114.53 995.881C115.21 995.202 115.55 994.364 115.55 993.366C115.55 992.368 115.211 991.524 114.533 990.835C113.855 990.145 113.012 989.8 112.003 989.8C110.994 989.8 110.15 990.144 109.47 990.831C108.79 991.519 108.45 992.361 108.45 993.359C108.45 994.357 108.789 995.197 109.467 995.878ZM114.456 1003.87C113.677 1004.1 112.858 1004.21 111.999 1004.21C111.14 1004.21 110.326 1004.1 109.556 1003.87C108.785 1003.64 107.967 1003.22 107.1 1002.6C107.975 1002.01 108.796 1001.58 109.564 1001.31C110.331 1001.05 111.143 1000.91 112.002 1000.91C112.86 1000.91 113.674 1001.05 114.444 1001.32C115.215 1001.59 116.042 1002.02 116.925 1002.6C116.058 1003.22 115.235 1003.64 114.456 1003.87ZM113.298 994.662C112.956 994.996 112.523 995.162 112 995.162C111.477 995.162 111.044 994.996 110.702 994.662C110.359 994.329 110.188 993.896 110.188 993.362C110.188 992.829 110.359 992.392 110.702 992.05C111.044 991.708 111.477 991.537 112 991.537C112.523 991.537 112.956 991.708 113.298 992.05C113.641 992.392 113.812 992.829 113.812 993.362C113.812 993.896 113.641 994.329 113.298 994.662Z" fill="#4D7BF1"/>
</g>
<path d="M119 991C120.657 991 122 989.657 122 988C122 986.343 120.657 985 119 985C117.343 985 116 986.343 116 988C116 989.657 117.343 991 119 991Z" fill="#45DC93"/>
<path d="M119 991C120.657 991 122 989.657 122 988C122 986.343 120.657 985 119 985C117.343 985 116 986.343 116 988C116 989.657 117.343 991 119 991Z" fill="#4D7BF1" fill-opacity="0.2"/>
</g>
<g clip-path="url(#clip22_83_6836)">
<mask id="mask25_83_6836" style="mask-type:alpha" maskUnits="userSpaceOnUse" x="100" y="1018" width="24" height="24">
<rect x="100" y="1018" width="24" height="24" fill="#D9D9D9"/>
</mask>
<g mask="url(#mask25_83_6836)">
<path d="M104.398 1040.87C103.758 1040.87 103.212 1040.65 102.762 1040.2C102.311 1039.75 102.086 1039.2 102.086 1038.56V1023.89H104.398V1038.56H115.861V1040.87H104.398ZM108.123 1037.12C107.49 1037.12 106.95 1036.9 106.504 1036.46C106.059 1036.01 105.836 1035.47 105.836 1034.84V1021.39C105.836 1020.75 106.059 1020.2 106.504 1019.75C106.95 1019.3 107.49 1019.07 108.123 1019.07H118.616C119.244 1019.07 119.786 1019.3 120.241 1019.75C120.696 1020.2 120.923 1020.75 120.923 1021.39V1034.84C120.923 1035.47 120.696 1036.01 120.241 1036.46C119.786 1036.9 119.244 1037.12 118.616 1037.12H108.123ZM108.123 1034.84H118.611V1021.39H108.123V1034.84Z" fill="#4D7BF1"/>
</g>
</g>
<g clip-path="url(#clip23_83_6836)">
<mask id="mask26_83_6836" style="mask-type:alpha" maskUnits="userSpaceOnUse" x="100" y="1052" width="24" height="24">
<rect x="100" y="1052" width="24" height="24" fill="#D9D9D9"/>
</mask>
<g mask="url(#mask26_83_6836)">
<path d="M109.225 1074.5L108.7 1071.19C108.575 1071.16 108.369 1071.07 108.081 1070.91C107.794 1070.74 107.508 1070.57 107.225 1070.38L104.15 1071.8L101.312 1066.78L104.138 1064.73C104.121 1064.63 104.108 1064.51 104.1 1064.38C104.092 1064.24 104.088 1064.12 104.088 1064C104.088 1063.91 104.092 1063.79 104.1 1063.64C104.108 1063.5 104.121 1063.37 104.138 1063.25L101.312 1061.18L104.15 1056.21L107.3 1057.63C107.45 1057.5 107.66 1057.36 107.931 1057.21C108.202 1057.05 108.458 1056.94 108.7 1056.86L109.225 1053.46H114.788L115.312 1056.83C115.529 1056.91 115.777 1057.03 116.056 1057.18C116.335 1057.33 116.567 1057.48 116.75 1057.63L119.888 1056.21L122.7 1061.18L119.812 1063.23C119.821 1063.34 119.835 1063.47 119.856 1063.61C119.877 1063.74 119.888 1063.88 119.888 1064C119.888 1064.13 119.877 1064.25 119.856 1064.39C119.835 1064.52 119.821 1064.64 119.812 1064.75L122.688 1066.78L119.85 1071.8L116.725 1070.36C116.559 1070.51 116.349 1070.66 116.094 1070.82C115.84 1070.97 115.579 1071.1 115.312 1071.19L114.788 1074.5H109.225ZM111.931 1067.19C112.811 1067.19 113.561 1066.88 114.182 1066.26C114.802 1065.63 115.113 1064.88 115.113 1064C115.113 1063.12 114.802 1062.36 114.181 1061.74C113.56 1061.12 112.808 1060.81 111.925 1060.81C111.033 1060.81 110.279 1061.12 109.663 1061.74C109.046 1062.37 108.738 1063.12 108.738 1064C108.738 1064.88 109.046 1065.64 109.663 1066.26C110.279 1066.88 111.035 1067.19 111.931 1067.19ZM111.925 1065.75C111.417 1065.75 110.998 1065.58 110.669 1065.24C110.34 1064.9 110.175 1064.48 110.175 1064C110.175 1063.52 110.34 1063.1 110.669 1062.76C110.998 1062.42 111.417 1062.25 111.925 1062.25C112.408 1062.25 112.821 1062.42 113.163 1062.76C113.504 1063.1 113.675 1063.52 113.675 1064C113.675 1064.48 113.504 1064.9 113.163 1065.24C112.821 1065.58 112.408 1065.75 111.925 1065.75ZM111.109 1072.21H112.861L113.25 1069.43C113.81 1069.29 114.34 1069.09 114.84 1068.81C115.34 1068.54 115.789 1068.18 116.188 1067.73L118.85 1068.89L119.613 1067.43L117.3 1065.75C117.358 1065.45 117.415 1065.16 117.469 1064.87C117.523 1064.58 117.55 1064.29 117.55 1064C117.55 1063.7 117.529 1063.41 117.488 1063.13C117.446 1062.84 117.383 1062.55 117.3 1062.25L119.638 1060.56L118.863 1059.1L116.213 1060.26C115.838 1059.81 115.394 1059.43 114.881 1059.11C114.369 1058.8 113.825 1058.6 113.25 1058.54L112.9 1055.78H111.1L110.788 1058.54C110.171 1058.65 109.613 1058.85 109.113 1059.14C108.613 1059.43 108.154 1059.8 107.738 1060.26L105.15 1059.1L104.35 1060.56L106.625 1062.2C106.558 1062.51 106.5 1062.81 106.45 1063.11C106.4 1063.4 106.375 1063.7 106.375 1063.99C106.375 1064.29 106.398 1064.59 106.444 1064.89C106.49 1065.2 106.546 1065.5 106.613 1065.79L104.35 1067.43L105.146 1068.89L107.738 1067.74C108.163 1068.18 108.631 1068.54 109.144 1068.83C109.656 1069.12 110.204 1069.33 110.788 1069.46L111.109 1072.21Z" fill="#4D7BF1"/>
</g>
</g>
<g clip-path="url(#clip24_83_6836)">
<mask id="mask27_83_6836" style="mask-type:alpha" maskUnits="userSpaceOnUse" x="100" y="1086" width="24" height="24">
<rect x="100" y="1086" width="24" height="24" fill="#D9D9D9"/>
</mask>
<g mask="url(#mask27_83_6836)">
<path d="M104.753 1105.44H105.503L116.403 1094.49L115.653 1093.74L104.753 1104.69V1105.44ZM119.841 1093.5L116.678 1090.33L117.166 1089.81C117.624 1089.35 118.164 1089.12 118.784 1089.11C119.405 1089.1 119.945 1089.32 120.403 1089.76L120.816 1090.18C121.182 1090.53 121.343 1090.95 121.297 1091.41C121.251 1091.88 121.07 1092.27 120.753 1092.59L119.841 1093.5ZM118.878 1094.46L106.178 1107.15H103.016V1103.99L115.691 1091.33L118.878 1094.46ZM116.053 1094.11L115.653 1093.74L116.403 1094.49L116.053 1094.11Z" fill="#4D7BF1"/>
</g>
</g>
<g clip-path="url(#clip25_83_6836)">
<mask id="mask28_83_6836" style="mask-type:alpha" maskUnits="userSpaceOnUse" x="100" y="1120" width="24" height="24">
<rect x="100" y="1120" width="24" height="24" fill="#D9D9D9"/>
</mask>
<g mask="url(#mask28_83_6836)">
<path d="M119.812 1141.5C117.819 1141.5 115.794 1141.02 113.736 1140.06C111.679 1139.1 109.779 1137.75 108.037 1135.99C106.279 1134.25 104.917 1132.34 103.95 1130.28C102.983 1128.22 102.5 1126.2 102.5 1124.21C102.5 1123.73 102.665 1123.32 102.996 1122.98C103.327 1122.64 103.733 1122.47 104.212 1122.47H107.625C108.142 1122.47 108.56 1122.61 108.881 1122.88C109.202 1123.15 109.421 1123.55 109.537 1124.06L110.211 1126.75C110.27 1127.18 110.254 1127.55 110.162 1127.89C110.071 1128.22 109.894 1128.5 109.632 1128.73L107.075 1131.07C107.442 1131.67 107.831 1132.24 108.242 1132.77C108.654 1133.29 109.123 1133.81 109.65 1134.3C110.192 1134.88 110.74 1135.39 111.294 1135.82C111.848 1136.25 112.417 1136.62 113 1136.92L115.514 1134.4C115.788 1134.11 116.091 1133.91 116.423 1133.82C116.754 1133.72 117.109 1133.72 117.488 1133.82L119.922 1134.39C120.441 1134.53 120.838 1134.77 121.113 1135.1C121.388 1135.44 121.525 1135.86 121.525 1136.36V1139.79C121.525 1140.28 121.357 1140.68 121.02 1141.01C120.683 1141.34 120.28 1141.5 119.812 1141.5ZM105.925 1129.06L107.925 1127.19L107.363 1124.79H104.85C104.858 1125.38 104.941 1126.02 105.099 1126.72C105.257 1127.41 105.532 1128.19 105.925 1129.06ZM115.1 1138.11C115.683 1138.4 116.339 1138.63 117.067 1138.81C117.794 1139 118.51 1139.11 119.212 1139.16V1136.59L117.038 1136.1L115.1 1138.11Z" fill="#4D7BF1"/>
</g>
</g>
<g clip-path="url(#clip26_83_6836)">
<mask id="mask29_83_6836" style="mask-type:alpha" maskUnits="userSpaceOnUse" x="100" y="1154" width="24" height="24">
<rect x="100" y="1154" width="24" height="24" fill="#D9D9D9"/>
</mask>
<g mask="url(#mask29_83_6836)">
<path d="M118.572 1167.16V1164.09H115.497V1162.35H118.572V1159.27H120.309V1162.35H123.384V1164.09H120.309V1167.16H118.572ZM109.055 1165.66C107.776 1165.66 106.738 1165.26 105.942 1164.47C105.145 1163.67 104.747 1162.63 104.747 1161.36C104.747 1160.08 105.145 1159.04 105.941 1158.24C106.737 1157.44 107.775 1157.04 109.054 1157.04C110.332 1157.04 111.376 1157.44 112.184 1158.24C112.993 1159.04 113.397 1160.08 113.397 1161.35C113.397 1162.63 112.993 1163.67 112.185 1164.47C111.377 1165.26 110.334 1165.66 109.055 1165.66ZM100.547 1174.79V1171.84C100.547 1171.14 100.726 1170.52 101.083 1169.97C101.44 1169.42 101.938 1168.99 102.576 1168.69C103.848 1168.13 104.983 1167.73 105.979 1167.5C106.976 1167.27 107.997 1167.15 109.043 1167.15C110.121 1167.15 111.159 1167.27 112.157 1167.5C113.156 1167.73 114.286 1168.13 115.546 1168.69C116.182 1168.98 116.682 1169.4 117.048 1169.94C117.414 1170.49 117.597 1171.12 117.597 1171.84V1174.79H100.547ZM102.834 1172.5H115.284V1171.94C115.284 1171.68 115.209 1171.43 115.058 1171.2C114.906 1170.96 114.705 1170.78 114.453 1170.67C113.357 1170.18 112.424 1169.86 111.652 1169.7C110.88 1169.54 110.013 1169.46 109.05 1169.46C108.115 1169.46 107.253 1169.54 106.466 1169.7C105.678 1169.86 104.742 1170.18 103.658 1170.67C103.392 1170.78 103.189 1170.96 103.047 1171.19C102.905 1171.43 102.834 1171.68 102.834 1171.94V1172.5ZM109.059 1163.37C109.659 1163.37 110.147 1163.18 110.522 1162.8C110.897 1162.42 111.084 1161.94 111.084 1161.35C111.084 1160.76 110.897 1160.27 110.523 1159.89C110.148 1159.51 109.665 1159.32 109.073 1159.32C108.481 1159.32 107.993 1159.51 107.609 1159.89C107.226 1160.27 107.034 1160.75 107.034 1161.34C107.034 1161.93 107.225 1162.42 107.606 1162.8C107.986 1163.18 108.471 1163.37 109.059 1163.37Z" fill="#4D7BF1"/>
</g>
</g>
<g clip-path="url(#clip27_83_6836)">
<mask id="mask30_83_6836" style="mask-type:alpha" maskUnits="userSpaceOnUse" x="100" y="1188" width="24" height="24">
<rect x="100" y="1188" width="24" height="24" fill="#D9D9D9"/>
</mask>
<g mask="url(#mask30_83_6836)">
<path d="M111.863 1209.56V1207.27H119.212V1192.79H111.863V1190.47H119.212C119.853 1190.47 120.399 1190.7 120.849 1191.15C121.3 1191.6 121.525 1192.15 121.525 1192.79V1207.27C121.525 1207.91 121.3 1208.45 120.849 1208.89C120.399 1209.34 119.853 1209.56 119.212 1209.56H111.863ZM110 1205.19L108.338 1203.6L110.762 1201.17H102.5V1198.89H110.713L108.287 1196.46L109.95 1194.86L115.113 1200.05L110 1205.19Z" fill="#4D7BF1"/>
</g>
</g>
<g clip-path="url(#clip28_83_6836)">
<mask id="mask31_83_6836" style="mask-type:alpha" maskUnits="userSpaceOnUse" x="100" y="1222" width="24" height="24">
<rect x="100" y="1222" width="24" height="24" fill="#D9D9D9"/>
</mask>
<g mask="url(#mask31_83_6836)">
<path d="M105.722 1239.34C106.757 1238.65 107.773 1238.12 108.769 1237.75C109.765 1237.38 110.845 1237.2 112.011 1237.2C113.176 1237.2 114.263 1237.39 115.271 1237.77C116.279 1238.15 117.293 1238.67 118.312 1239.34C119.021 1238.41 119.515 1237.53 119.794 1236.7C120.073 1235.86 120.212 1234.96 120.212 1234C120.212 1231.68 119.424 1229.73 117.848 1228.15C116.272 1226.58 114.324 1225.79 112.004 1225.79C109.685 1225.79 107.735 1226.58 106.156 1228.15C104.577 1229.73 103.788 1231.68 103.788 1234C103.788 1234.96 103.927 1235.86 104.207 1236.69C104.487 1237.52 104.992 1238.4 105.722 1239.34ZM111.997 1234.9C110.988 1234.9 110.145 1234.56 109.467 1233.88C108.789 1233.2 108.45 1232.36 108.45 1231.36C108.45 1230.36 108.79 1229.52 109.47 1228.83C110.15 1228.14 110.994 1227.8 112.003 1227.8C113.012 1227.8 113.855 1228.14 114.533 1228.83C115.211 1229.52 115.55 1230.37 115.55 1231.37C115.55 1232.36 115.21 1233.2 114.53 1233.88C113.85 1234.56 113.006 1234.9 111.997 1234.9ZM111.991 1244.5C110.565 1244.5 109.214 1244.22 107.939 1243.67C106.663 1243.12 105.546 1242.37 104.589 1241.41C103.631 1240.45 102.877 1239.34 102.326 1238.06C101.775 1236.79 101.5 1235.44 101.5 1233.99C101.5 1232.57 101.777 1231.22 102.332 1229.94C102.886 1228.66 103.64 1227.54 104.594 1226.59C105.548 1225.64 106.661 1224.88 107.932 1224.32C109.204 1223.76 110.563 1223.47 112.009 1223.47C113.426 1223.47 114.776 1223.76 116.058 1224.32C117.34 1224.88 118.457 1225.64 119.409 1226.59C120.361 1227.55 121.119 1228.67 121.681 1229.95C122.244 1231.23 122.525 1232.58 122.525 1234.01C122.525 1235.43 122.244 1236.79 121.681 1238.06C121.118 1239.34 120.36 1240.46 119.406 1241.41C118.452 1242.36 117.334 1243.11 116.051 1243.67C114.769 1244.22 113.415 1244.5 111.991 1244.5ZM111.999 1242.21C112.858 1242.21 113.677 1242.1 114.456 1241.87C115.235 1241.64 116.058 1241.22 116.925 1240.6C116.042 1240.02 115.215 1239.59 114.444 1239.32C113.674 1239.05 112.86 1238.91 112.002 1238.91C111.143 1238.91 110.331 1239.05 109.564 1239.31C108.796 1239.58 107.975 1240.01 107.1 1240.6C107.967 1241.22 108.785 1241.64 109.556 1241.87C110.326 1242.1 111.14 1242.21 111.999 1242.21ZM112 1233.16C112.523 1233.16 112.956 1233 113.298 1232.66C113.641 1232.33 113.812 1231.9 113.812 1231.36C113.812 1230.83 113.641 1230.39 113.298 1230.05C112.956 1229.71 112.523 1229.54 112 1229.54C111.477 1229.54 111.044 1229.71 110.702 1230.05C110.359 1230.39 110.188 1230.83 110.188 1231.36C110.188 1231.9 110.359 1232.33 110.702 1232.66C111.044 1233 111.477 1233.16 112 1233.16Z" fill="#4D7BF1"/>
</g>
</g>
<g clip-path="url(#clip29_83_6836)">
<mask id="mask32_83_6836" style="mask-type:alpha" maskUnits="userSpaceOnUse" x="100" y="1256" width="24" height="24">
<rect x="100" y="1256" width="24" height="24" fill="#D9D9D9"/>
</mask>
<g mask="url(#mask32_83_6836)">
<path d="M104.788 1277.56C104.154 1277.56 103.614 1277.34 103.169 1276.89C102.723 1276.45 102.5 1275.91 102.5 1275.27V1260.79C102.5 1260.15 102.723 1259.6 103.169 1259.15C103.614 1258.7 104.154 1258.47 104.788 1258.47H112.137V1260.79H104.788V1275.27H112.137V1277.56H104.788ZM116.387 1273.19L114.75 1271.6L117.15 1269.17H108.888V1266.89H117.1L114.7 1264.46L116.338 1262.86L121.525 1268.05L116.387 1273.19Z" fill="#4D7BF1"/>
</g>
</g>
<g clip-path="url(#clip30_83_6836)">
<mask id="mask33_83_6836" style="mask-type:alpha" maskUnits="userSpaceOnUse" x="100" y="1290" width="24" height="24">
<rect x="100" y="1290" width="24" height="24" fill="#D9D9D9"/>
</mask>
<g mask="url(#mask33_83_6836)">
<path d="M111.993 1304.65C112.737 1304.65 113.372 1304.39 113.897 1303.88C114.422 1303.37 114.684 1302.75 114.684 1302C114.684 1301.26 114.424 1300.62 113.904 1300.1C113.384 1299.57 112.751 1299.31 112.004 1299.31C111.258 1299.31 110.628 1299.57 110.116 1300.09C109.603 1300.61 109.347 1301.25 109.347 1301.99C109.347 1302.74 109.602 1303.37 110.112 1303.88C110.622 1304.39 111.249 1304.65 111.993 1304.65ZM111.999 1306.96C110.623 1306.96 109.451 1306.48 108.484 1305.51C107.518 1304.54 107.034 1303.37 107.034 1302C107.034 1300.62 107.518 1299.45 108.486 1298.48C109.454 1297.51 110.624 1297.02 111.998 1297.02C113.372 1297.02 114.545 1297.51 115.516 1298.48C116.486 1299.45 116.972 1300.62 116.972 1302C116.972 1303.37 116.487 1304.55 115.518 1305.51C114.548 1306.48 113.375 1306.96 111.999 1306.96ZM101.747 1303.14C101.426 1303.14 101.156 1303.03 100.938 1302.81C100.719 1302.59 100.609 1302.32 100.609 1302C100.609 1301.67 100.719 1301.4 100.938 1301.18C101.156 1300.96 101.426 1300.85 101.747 1300.85H104.247C104.568 1300.85 104.84 1300.96 105.062 1301.19C105.285 1301.41 105.397 1301.68 105.397 1302C105.397 1302.33 105.285 1302.6 105.062 1302.81C104.84 1303.03 104.568 1303.14 104.247 1303.14H101.747ZM119.747 1303.14C119.426 1303.14 119.156 1303.03 118.938 1302.81C118.719 1302.59 118.609 1302.32 118.609 1302C118.609 1301.67 118.719 1301.4 118.938 1301.18C119.156 1300.96 119.426 1300.85 119.747 1300.85H122.247C122.568 1300.85 122.84 1300.96 123.062 1301.19C123.285 1301.41 123.397 1301.68 123.397 1302C123.397 1302.33 123.285 1302.6 123.062 1302.81C122.84 1303.03 122.568 1303.14 122.247 1303.14H119.747ZM111.993 1295.39C111.67 1295.39 111.401 1295.28 111.184 1295.06C110.968 1294.84 110.859 1294.57 110.859 1294.25V1291.75C110.859 1291.43 110.969 1291.16 111.189 1290.93C111.408 1290.71 111.679 1290.6 112.001 1290.6C112.323 1290.6 112.595 1290.71 112.816 1290.93C113.036 1291.16 113.147 1291.43 113.147 1291.75V1294.25C113.147 1294.57 113.035 1294.84 112.811 1295.06C112.587 1295.28 112.315 1295.39 111.993 1295.39ZM111.993 1313.39C111.67 1313.39 111.401 1313.28 111.184 1313.06C110.968 1312.84 110.859 1312.57 110.859 1312.25V1309.75C110.859 1309.43 110.969 1309.16 111.189 1308.93C111.408 1308.71 111.679 1308.6 112.001 1308.6C112.323 1308.6 112.595 1308.71 112.816 1308.93C113.036 1309.16 113.147 1309.43 113.147 1309.75V1312.25C113.147 1312.57 113.035 1312.84 112.811 1313.06C112.587 1313.28 112.315 1313.39 111.993 1313.39ZM105.722 1297.35L104.297 1295.95C104.064 1295.72 103.95 1295.45 103.956 1295.13C103.962 1294.82 104.077 1294.54 104.3 1294.3C104.52 1294.07 104.784 1293.96 105.094 1293.96C105.404 1293.95 105.68 1294.06 105.922 1294.29L107.347 1295.71C107.564 1295.94 107.672 1296.21 107.672 1296.52C107.672 1296.83 107.564 1297.09 107.347 1297.32C107.114 1297.54 106.841 1297.66 106.528 1297.67C106.216 1297.69 105.947 1297.58 105.722 1297.35ZM118.072 1309.7L116.647 1308.27C116.43 1308.05 116.322 1307.78 116.322 1307.48C116.322 1307.17 116.434 1306.9 116.659 1306.66C116.876 1306.44 117.143 1306.33 117.459 1306.33C117.775 1306.34 118.05 1306.45 118.284 1306.67L119.709 1308.05C119.934 1308.27 120.044 1308.55 120.038 1308.87C120.031 1309.18 119.917 1309.46 119.693 1309.7C119.474 1309.93 119.21 1310.04 118.899 1310.04C118.589 1310.05 118.314 1309.93 118.072 1309.7ZM116.668 1297.35C116.437 1297.12 116.324 1296.85 116.328 1296.54C116.332 1296.22 116.447 1295.95 116.672 1295.71L118.047 1294.29C118.272 1294.06 118.544 1293.95 118.862 1293.96C119.18 1293.97 119.46 1294.08 119.699 1294.3C119.923 1294.52 120.036 1294.79 120.041 1295.1C120.045 1295.41 119.934 1295.68 119.709 1295.92L118.284 1297.35C118.07 1297.57 117.806 1297.67 117.492 1297.67C117.178 1297.67 116.904 1297.57 116.668 1297.35ZM104.294 1309.7C104.071 1309.48 103.957 1309.21 103.953 1308.9C103.949 1308.59 104.064 1308.32 104.297 1308.07L105.722 1306.65C105.944 1306.42 106.205 1306.31 106.507 1306.31C106.809 1306.3 107.081 1306.42 107.325 1306.65C107.556 1306.87 107.67 1307.15 107.666 1307.46C107.661 1307.78 107.547 1308.05 107.322 1308.27L105.947 1309.7C105.722 1309.93 105.45 1310.05 105.132 1310.04C104.813 1310.03 104.534 1309.92 104.294 1309.7Z" fill="#4D7BF1"/>
</g>
</g>
<g clip-path="url(#clip31_83_6836)">
<mask id="mask34_83_6836" style="mask-type:alpha" maskUnits="userSpaceOnUse" x="100" y="1324" width="24" height="24">
<rect x="100" y="1324" width="24" height="24" fill="#D9D9D9"/>
</mask>
<g mask="url(#mask34_83_6836)">
<path d="M112 1345.24C109.421 1345.24 107.237 1344.34 105.449 1342.55C103.66 1340.76 102.766 1338.58 102.766 1336C102.766 1333.43 103.661 1331.24 105.452 1329.43C107.242 1327.63 109.426 1326.72 112.003 1326.72H112.283C112.388 1326.72 112.545 1326.73 112.753 1326.75C112.311 1327.36 111.972 1328.01 111.734 1328.71C111.497 1329.41 111.378 1330.14 111.378 1330.9C111.378 1332.5 111.94 1333.86 113.062 1334.97C114.185 1336.09 115.549 1336.65 117.153 1336.65C117.893 1336.65 118.617 1336.55 119.325 1336.34C120.033 1336.14 120.684 1335.83 121.278 1335.42V1335.97C121.278 1338.55 120.377 1340.73 118.573 1342.54C116.77 1344.34 114.579 1345.24 112 1345.24ZM112.007 1342.95C113.488 1342.95 114.809 1342.51 115.972 1341.62C117.134 1340.73 117.895 1339.69 118.253 1338.5C117.956 1338.63 117.622 1338.73 117.251 1338.79C116.88 1338.86 116.532 1338.87 116.205 1338.84C114.354 1338.62 112.776 1337.88 111.472 1336.61C110.168 1335.34 109.399 1333.72 109.166 1331.77C109.149 1331.52 109.162 1331.22 109.204 1330.88C109.246 1330.54 109.354 1330.14 109.528 1329.67C108.236 1330.17 107.168 1331 106.322 1332.19C105.476 1333.37 105.053 1334.64 105.053 1336C105.053 1337.95 105.726 1339.59 107.072 1340.93C108.418 1342.28 110.063 1342.95 112.007 1342.95Z" fill="#4D7BF1"/>
</g>
</g>
<mask id="mask35_83_6836" style="mask-type:alpha" maskUnits="userSpaceOnUse" x="100" y="1358" width="24" height="24">
<rect x="100" y="1358" width="24" height="24" fill="#D9D9D9"/>
</mask>
<g mask="url(#mask35_83_6836)">
<path d="M112 1380C110.633 1380 109.342 1379.74 108.125 1379.21C106.908 1378.69 105.846 1377.97 104.938 1377.06C104.029 1376.15 103.312 1375.09 102.788 1373.88C102.262 1372.66 102 1371.37 102 1370C102 1368.62 102.262 1367.32 102.788 1366.11C103.312 1364.9 104.029 1363.85 104.938 1362.94C105.846 1362.03 106.908 1361.31 108.125 1360.79C109.342 1360.26 110.633 1360 112 1360C113.383 1360 114.679 1360.26 115.887 1360.79C117.096 1361.31 118.154 1362.03 119.062 1362.94C119.971 1363.85 120.688 1364.9 121.212 1366.11C121.737 1367.32 122 1368.62 122 1370C122 1371.37 121.737 1372.66 121.212 1373.88C120.688 1375.09 119.971 1376.15 119.062 1377.06C118.154 1377.97 117.096 1378.69 115.887 1379.21C114.679 1379.74 113.383 1380 112 1380ZM112 1377.95C112.433 1377.35 112.808 1376.73 113.125 1376.08C113.442 1375.43 113.7 1374.73 113.9 1374H110.1C110.3 1374.73 110.558 1375.43 110.875 1376.08C111.192 1376.73 111.567 1377.35 112 1377.95ZM109.4 1377.55C109.1 1377 108.838 1376.43 108.613 1375.84C108.388 1375.25 108.2 1374.63 108.05 1374H105.1C105.583 1374.83 106.188 1375.56 106.912 1376.18C107.637 1376.79 108.467 1377.25 109.4 1377.55ZM114.6 1377.55C115.533 1377.25 116.363 1376.79 117.088 1376.18C117.813 1375.56 118.417 1374.83 118.9 1374H115.95C115.8 1374.63 115.613 1375.25 115.387 1375.84C115.162 1376.43 114.9 1377 114.6 1377.55ZM104.25 1372H107.65C107.6 1371.67 107.562 1371.34 107.537 1371.01C107.512 1370.69 107.5 1370.35 107.5 1370C107.5 1369.65 107.512 1369.31 107.537 1368.99C107.562 1368.66 107.6 1368.33 107.65 1368H104.25C104.167 1368.33 104.104 1368.66 104.062 1368.99C104.021 1369.31 104 1369.65 104 1370C104 1370.35 104.021 1370.69 104.062 1371.01C104.104 1371.34 104.167 1371.67 104.25 1372ZM109.65 1372H114.35C114.4 1371.67 114.438 1371.34 114.463 1371.01C114.488 1370.69 114.5 1370.35 114.5 1370C114.5 1369.65 114.488 1369.31 114.463 1368.99C114.438 1368.66 114.4 1368.33 114.35 1368H109.65C109.6 1368.33 109.562 1368.66 109.537 1368.99C109.512 1369.31 109.5 1369.65 109.5 1370C109.5 1370.35 109.512 1370.69 109.537 1371.01C109.562 1371.34 109.6 1371.67 109.65 1372ZM116.35 1372H119.75C119.833 1371.67 119.896 1371.34 119.938 1371.01C119.979 1370.69 120 1370.35 120 1370C120 1369.65 119.979 1369.31 119.938 1368.99C119.896 1368.66 119.833 1368.33 119.75 1368H116.35C116.4 1368.33 116.438 1368.66 116.463 1368.99C116.488 1369.31 116.5 1369.65 116.5 1370C116.5 1370.35 116.488 1370.69 116.463 1371.01C116.438 1371.34 116.4 1371.67 116.35 1372ZM115.95 1366H118.9C118.417 1365.17 117.813 1364.44 117.088 1363.83C116.363 1363.21 115.533 1362.75 114.6 1362.45C114.9 1363 115.162 1363.57 115.387 1364.16C115.613 1364.75 115.8 1365.37 115.95 1366ZM110.1 1366H113.9C113.7 1365.27 113.442 1364.57 113.125 1363.92C112.808 1363.27 112.433 1362.65 112 1362.05C111.567 1362.65 111.192 1363.27 110.875 1363.92C110.558 1364.57 110.3 1365.27 110.1 1366ZM105.1 1366H108.05C108.2 1365.37 108.388 1364.75 108.613 1364.16C108.838 1363.57 109.1 1363 109.4 1362.45C108.467 1362.75 107.637 1363.21 106.912 1363.83C106.188 1364.44 105.583 1365.17 105.1 1366Z" fill="#4D7BF1"/>
</g>
<circle cx="112" cy="1404" r="5" fill="#45DC93"/>
<circle cx="112" cy="1438" r="9" fill="#4D7BF1"/>
<path fill-rule="evenodd" clip-rule="evenodd" d="M103.375 1470.32C108.744 1467.92 112.324 1466.34 114.115 1465.57C119.229 1463.39 120.292 1463.01 120.985 1463C121.137 1463 121.478 1463.04 121.698 1463.22C121.885 1463.37 121.936 1463.58 121.96 1463.73C121.985 1463.88 122.015 1464.21 121.991 1464.47C121.714 1467.46 120.515 1474.71 119.905 1478.06C119.646 1479.47 119.138 1479.95 118.646 1479.99C117.577 1480.09 116.764 1479.27 115.729 1478.57C114.108 1477.48 113.192 1476.8 111.619 1475.74C109.801 1474.51 110.979 1473.83 112.015 1472.73C112.287 1472.44 116.999 1468.05 117.09 1467.65C117.101 1467.6 117.112 1467.41 117.004 1467.31C116.897 1467.21 116.738 1467.25 116.623 1467.27C116.46 1467.31 113.871 1469.07 108.855 1472.54C108.12 1473.06 107.454 1473.31 106.858 1473.3C106.2 1473.28 104.935 1472.92 103.995 1472.6C102.842 1472.22 101.925 1472.02 102.005 1471.36C102.046 1471.02 102.503 1470.67 103.375 1470.32Z" fill="#4D7BF1"/>
<path d="M114.85 1503.67C114.858 1503.84 114.733 1503.98 114.571 1503.99C114.409 1504 114.272 1503.87 114.264 1503.7C114.215 1502.66 113.75 1502.16 112.787 1502.11C112.625 1502.1 112.501 1501.96 112.509 1501.79C112.518 1501.62 112.656 1501.5 112.818 1501.5C114.085 1501.57 114.787 1502.32 114.85 1503.67Z" fill="#4D7BF1"/>
<path d="M116.054 1504.51C116.216 1504.51 116.351 1504.38 116.354 1504.21C116.38 1503.03 116.037 1502.02 115.323 1501.22C114.608 1500.41 113.622 1499.97 112.374 1499.88C112.212 1499.86 112.072 1499.99 112.06 1500.16C112.049 1500.33 112.171 1500.47 112.332 1500.48C113.438 1500.56 114.283 1500.95 114.891 1501.63C115.499 1502.32 115.79 1503.17 115.768 1504.2C115.764 1504.37 115.892 1504.51 116.054 1504.51Z" fill="#4D7BF1"/>
<path d="M117.897 1504.83C117.898 1504.99 117.767 1505.13 117.605 1505.13C117.443 1505.13 117.311 1505 117.31 1504.83C117.296 1502.98 116.769 1501.55 115.731 1500.5C114.688 1499.45 113.393 1498.92 111.836 1498.91C111.674 1498.9 111.543 1498.77 111.544 1498.6C111.545 1498.43 111.678 1498.3 111.84 1498.3C113.546 1498.31 114.987 1498.9 116.141 1500.06C117.298 1501.23 117.882 1502.83 117.897 1504.83Z" fill="#4D7BF1"/>
<path d="M113.495 1507.5C113.276 1507.79 112.861 1507.75 112.861 1507.75C109.846 1506.95 109.039 1503.8 109.039 1503.8C109.039 1503.8 109.004 1503.37 109.279 1503.14L109.822 1502.69C110.094 1502.48 110.264 1501.96 109.989 1501.44C109.836 1501.16 109.53 1500.65 109.303 1500.33C109.063 1499.99 108.506 1499.3 108.503 1499.3C108.235 1498.97 107.838 1498.89 107.42 1499.11C107.42 1499.11 107.416 1499.12 107.413 1499.12C107.016 1499.35 106.647 1499.66 106.302 1500.05L106.295 1500.06C106.038 1500.38 105.888 1500.69 105.853 1501C105.846 1501.04 105.843 1501.09 105.846 1501.14C105.843 1501.28 105.864 1501.41 105.905 1501.54L105.919 1501.56C106.048 1502.03 106.375 1502.83 107.082 1504.16C107.542 1505.02 108.012 1505.74 108.478 1506.35C108.722 1506.67 109 1506.99 109.321 1507.33L109.446 1507.46C109.77 1507.79 110.087 1508.08 110.397 1508.33C110.981 1508.81 111.674 1509.3 112.51 1509.77C113.794 1510.51 114.564 1510.84 115.027 1510.98L115.037 1510.99C115.166 1511.03 115.295 1511.05 115.427 1511.05C115.479 1511.06 115.525 1511.05 115.56 1511.05C115.859 1511.01 116.165 1510.85 116.475 1510.59L116.482 1510.58C116.862 1510.22 117.161 1509.84 117.384 1509.43C117.384 1509.43 117.387 1509.43 117.387 1509.43C117.603 1508.99 117.53 1508.58 117.21 1508.3C117.21 1508.3 116.538 1507.73 116.211 1507.48C115.904 1507.24 115.41 1506.93 115.135 1506.77C114.64 1506.48 114.136 1506.66 113.927 1506.94L113.495 1507.5Z" fill="#4D7BF1"/>
<path fill-rule="evenodd" clip-rule="evenodd" d="M112.423 1494.02C117.61 1494.04 119.939 1495.79 120.517 1496.34C122.429 1498.06 123.49 1501.87 122.777 1507.89C122.149 1513.2 118.564 1514.15 117.361 1514.46C117.243 1514.5 117.148 1514.52 117.081 1514.54C116.757 1514.65 113.892 1515.39 110.17 1515.07C109.759 1515.56 109.213 1516.21 108.819 1516.65C108.701 1516.78 108.589 1516.91 108.483 1517.04C107.944 1517.67 107.533 1518.16 106.905 1517.95C106.281 1517.76 106.316 1516.78 106.316 1516.78L106.32 1514.36H106.316C100.871 1512.77 100.951 1506.94 101.014 1503.82C101.073 1500.7 101.658 1498.18 103.319 1496.47C106.302 1493.64 112.423 1494.02 112.423 1494.02ZM116.743 1512.78C117.765 1512.54 120.62 1511.85 121.147 1507.45C121.75 1502.43 120.925 1498.99 119.309 1497.56C118.822 1497.1 116.719 1495.74 112.329 1495.71C112.329 1495.71 107.131 1495.36 104.607 1497.72C103.204 1499.16 102.73 1501.29 102.678 1503.89L102.672 1504.16C102.613 1506.82 102.51 1511.51 106.96 1512.79C106.96 1512.79 106.943 1516.48 106.939 1516.81C106.939 1517.04 106.974 1517.19 107.1 1517.22C107.19 1517.25 107.326 1517.2 107.441 1517.08C108.175 1516.31 110.532 1513.37 110.532 1513.37C113.693 1513.59 116.207 1512.94 116.479 1512.85C116.541 1512.83 116.631 1512.81 116.743 1512.78Z" fill="#4D7BF1"/>
<path d="M108.662 1534.88C108.856 1534.89 109.071 1534.9 109.275 1535.35C109.415 1535.66 109.649 1536.24 109.837 1536.7C109.974 1537.04 110.086 1537.32 110.115 1537.38C110.183 1537.51 110.229 1537.67 110.138 1537.85C110.124 1537.88 110.112 1537.91 110.1 1537.93C110.031 1538.07 109.981 1538.17 109.866 1538.31C109.82 1538.36 109.774 1538.42 109.727 1538.47C109.633 1538.59 109.539 1538.7 109.457 1538.79C109.32 1538.92 109.178 1539.07 109.337 1539.34C109.496 1539.61 110.043 1540.51 110.853 1541.23C111.723 1542 112.479 1542.33 112.863 1542.5C112.939 1542.53 113 1542.56 113.044 1542.58C113.317 1542.72 113.476 1542.69 113.635 1542.51C113.794 1542.33 114.316 1541.72 114.497 1541.44C114.679 1541.17 114.861 1541.22 115.11 1541.31C115.36 1541.4 116.7 1542.06 116.972 1542.19C117.025 1542.22 117.075 1542.24 117.121 1542.27C117.311 1542.36 117.44 1542.42 117.495 1542.51C117.563 1542.63 117.563 1543.17 117.336 1543.81C117.109 1544.44 115.996 1545.06 115.497 1545.1C115.448 1545.11 115.401 1545.11 115.351 1545.12C114.89 1545.17 114.307 1545.24 112.227 1544.42C109.667 1543.41 107.979 1540.91 107.631 1540.39C107.602 1540.35 107.583 1540.32 107.572 1540.31L107.569 1540.3C107.422 1540.11 106.46 1538.82 106.46 1537.49C106.46 1536.24 107.076 1535.58 107.36 1535.27C107.38 1535.25 107.397 1535.24 107.413 1535.22C107.663 1534.94 107.958 1534.88 108.14 1534.88C108.15 1534.88 108.16 1534.88 108.17 1534.88C108.341 1534.88 108.512 1534.88 108.662 1534.88Z" fill="#4D7BF1"/>
<path fill-rule="evenodd" clip-rule="evenodd" d="M102.562 1545.35C101.594 1543.7 101.088 1541.83 101.088 1539.89C101.088 1533.88 105.994 1529 112 1529C114.926 1529 117.654 1530.14 119.722 1532.19C121.768 1534.26 122.912 1536.99 122.912 1539.91C122.912 1545.92 118.006 1550.8 112 1550.8C110.174 1550.8 108.37 1550.36 106.786 1549.48L101 1551L102.562 1545.35ZM104.322 1544.73L104.542 1545.06L103.618 1548.4L107.05 1547.5L107.38 1547.7C108.766 1548.54 110.372 1548.98 112 1548.98C116.994 1548.98 121.064 1544.91 121.064 1539.91C121.064 1537.49 120.118 1535.2 118.402 1533.49C116.708 1531.79 114.42 1530.85 112 1530.85C107.006 1530.85 102.936 1534.9 102.936 1539.91C102.936 1541.61 103.42 1543.28 104.322 1544.73Z" fill="#4D7BF1"/>
<path fill-rule="evenodd" clip-rule="evenodd" d="M101 1573.67C101 1567.54 105.803 1563 112 1563C118.197 1563 123 1567.54 123 1573.67C123 1579.8 118.197 1584.34 112 1584.34C110.887 1584.34 109.818 1584.19 108.815 1583.92C108.62 1583.86 108.415 1583.88 108.229 1583.96L106.046 1584.93C105.475 1585.18 104.831 1584.77 104.811 1584.15L104.752 1582.19C104.743 1581.95 104.634 1581.72 104.455 1581.56C102.315 1579.65 101 1576.88 101 1573.67ZM108.627 1571.67L105.396 1576.79C105.084 1577.28 105.69 1577.84 106.153 1577.49L109.625 1574.85C109.86 1574.67 110.183 1574.67 110.42 1574.85L112.989 1576.78C113.76 1577.35 114.862 1577.15 115.375 1576.34L118.605 1571.21C118.917 1570.72 118.31 1570.16 117.848 1570.52L114.377 1573.15C114.143 1573.33 113.819 1573.33 113.583 1573.15L111.013 1571.22C110.243 1570.65 109.141 1570.85 108.627 1571.67Z" fill="#4D7BF1"/>
<path fill-rule="evenodd" clip-rule="evenodd" d="M103.757 1610.61C102.071 1609.39 101 1607.6 101 1605.63C101 1601.96 104.558 1599 108.952 1599C112.913 1599 116.199 1601.41 116.798 1604.57C116.761 1604.57 116.725 1604.57 116.689 1604.56C116.582 1604.56 116.476 1604.56 116.373 1604.57C112.363 1604.56 109.117 1607.26 109.111 1610.61C109.117 1611.15 109.212 1611.69 109.376 1612.2C109.24 1612.22 109.094 1612.22 108.952 1612.2C108.041 1612.22 107.165 1612.09 106.354 1611.88C106.261 1611.86 106.121 1611.83 106.037 1611.83C105.953 1611.83 105.829 1611.87 105.718 1611.93L103.969 1612.94C103.91 1612.97 103.862 1613 103.81 1613C103.658 1613 103.54 1612.88 103.545 1612.73C103.542 1612.69 103.555 1612.65 103.571 1612.6C103.58 1612.58 103.59 1612.55 103.598 1612.52C103.606 1612.49 103.632 1612.38 103.669 1612.22C103.732 1611.96 103.827 1611.56 103.916 1611.19C103.937 1611.11 103.947 1611.04 103.947 1610.98C103.947 1610.81 103.881 1610.7 103.757 1610.61ZM105.188 1603.51C105.188 1604.09 105.663 1604.57 106.248 1604.57C106.834 1604.57 107.308 1604.09 107.308 1603.51C107.308 1602.92 106.834 1602.45 106.248 1602.45C105.663 1602.45 105.188 1602.92 105.188 1603.51ZM110.489 1603.51C110.489 1604.09 110.964 1604.57 111.549 1604.57C112.135 1604.57 112.61 1604.09 112.61 1603.51C112.61 1602.92 112.135 1602.45 111.549 1602.45C110.964 1602.45 110.489 1602.92 110.489 1603.51Z" fill="#4D7BF1"/>
<path fill-rule="evenodd" clip-rule="evenodd" d="M116.373 1605.1C120.033 1605.1 123 1607.56 123 1610.61C123 1612.26 122.107 1613.76 120.72 1614.74C120.598 1614.85 120.541 1614.96 120.541 1615.07C120.541 1615.18 120.548 1615.22 120.561 1615.27C120.653 1615.68 120.831 1616.33 120.847 1616.38C120.849 1616.39 120.852 1616.4 120.855 1616.41C120.868 1616.45 120.882 1616.49 120.88 1616.55C120.882 1616.66 120.784 1616.76 120.667 1616.76C120.613 1616.76 120.574 1616.74 120.508 1616.71L119.077 1615.86C119.073 1615.86 119.069 1615.85 119.065 1615.85C118.967 1615.8 118.855 1615.74 118.727 1615.77C118.6 1615.79 118.598 1615.79 118.554 1615.8L118.547 1615.8C117.86 1616 117.13 1616.11 116.373 1616.12C112.714 1616.11 109.747 1613.65 109.747 1610.61C109.747 1607.56 112.714 1605.1 116.373 1605.1ZM113.299 1608.78C113.299 1609.28 113.679 1609.66 114.121 1609.66C114.616 1609.66 114.995 1609.28 114.995 1608.78C114.995 1608.34 114.616 1607.96 114.121 1607.96C113.679 1607.96 113.299 1608.34 113.299 1608.78ZM117.699 1608.78C117.699 1609.28 118.079 1609.66 118.521 1609.66C119.016 1609.66 119.395 1609.28 119.395 1608.78C119.395 1608.34 119.016 1607.96 118.521 1607.96C118.079 1607.96 117.699 1608.34 117.699 1608.78Z" fill="#4D7BF1"/>
<path d="M109.169 1644.47C111.922 1644.29 114.264 1643.41 115.914 1640.88C117.476 1638.49 117.435 1636.15 115.97 1634.09C114.264 1631.7 110.328 1632.09 110.328 1632.09C110.328 1632.09 113.974 1631.36 117.451 1634.03C120.928 1636.71 121.959 1641.44 120.059 1645.17C118.16 1648.89 114.779 1650.39 111.173 1650.07C108.711 1652.12 105.716 1652 105.716 1652C105.716 1652 106.859 1650.92 108.099 1649.29C106.505 1648.6 103.656 1646.77 103.117 1643.33C102.577 1639.9 104.083 1638.4 104.083 1638.4C102.255 1642.23 106.159 1644.66 109.169 1644.47ZM116.799 1638.12C116.799 1638.12 117.395 1633.89 113.17 1632.51C110.932 1631.78 108.244 1632.42 106.682 1633.56C105.064 1634.74 104.3 1636.55 104.404 1636.85C104.533 1637.23 105.716 1635.75 108.026 1635.17C110.433 1634.56 114.232 1635.06 116.799 1638.12ZM113.974 1642.63C113.781 1638.47 108.936 1635.38 105.37 1637.38C107.882 1636.32 110.264 1637.6 110.956 1640.82C111.31 1642.45 110.916 1643.98 110.916 1643.98C110.916 1643.98 113.017 1643.61 113.974 1642.63ZM110.86 1641.12C110.191 1635.97 104.195 1636.21 103.769 1639.66C103.519 1641.67 104.59 1642.43 104.59 1642.43C105.99 1639.77 109.668 1640.22 110.86 1641.12Z" fill="#4D7BF1"/>
<path fill-rule="evenodd" clip-rule="evenodd" d="M107.483 1665C108.703 1665 109.887 1665.34 110.906 1665.97C111.269 1665.93 111.635 1665.91 112.001 1665.91C113.349 1665.91 114.685 1666.17 115.93 1666.68C117.176 1667.19 118.308 1667.94 119.261 1668.88C120.215 1669.82 120.971 1670.94 121.487 1672.17C122.003 1673.4 122.269 1674.72 122.269 1676.05C122.269 1676.52 122.235 1676.99 122.169 1677.46C122.295 1677.68 122.408 1677.91 122.506 1678.15C122.832 1678.92 123 1679.75 123 1680.6C123 1681.44 122.832 1682.27 122.506 1683.05C122.18 1683.82 121.703 1684.53 121.101 1685.12C120.498 1685.72 119.784 1686.19 118.997 1686.51C118.21 1686.83 117.367 1687 116.515 1687C115.349 1687 114.214 1686.69 113.226 1686.12C112.82 1686.16 112.411 1686.19 112.001 1686.19C110.653 1686.19 109.318 1685.93 108.072 1685.42C106.826 1684.91 105.694 1684.16 104.741 1683.22C103.787 1682.28 103.031 1681.16 102.515 1679.93C101.999 1678.7 101.733 1677.38 101.733 1676.05C101.733 1675.55 101.771 1675.05 101.844 1674.56C101.296 1673.61 101 1672.52 101 1671.4C101 1669.7 101.683 1668.08 102.899 1666.88C104.114 1665.67 105.763 1665 107.483 1665ZM108.102 1674.64C108.353 1675.06 108.699 1675.43 109.114 1675.7C109.664 1676.05 110.248 1676.35 110.858 1676.59C111.541 1676.88 112.07 1677.12 112.447 1677.31C112.765 1677.47 113.054 1677.68 113.301 1677.93C113.488 1678.13 113.591 1678.38 113.591 1678.65C113.599 1678.84 113.561 1679.03 113.481 1679.21C113.4 1679.38 113.279 1679.53 113.128 1679.65C112.723 1679.92 112.239 1680.05 111.753 1680.01C111.478 1680.01 111.204 1679.99 110.935 1679.93C110.718 1679.88 110.505 1679.81 110.299 1679.73C110.119 1679.65 109.873 1679.54 109.561 1679.38C109.31 1679.25 109.031 1679.18 108.747 1679.17C108.492 1679.16 108.242 1679.25 108.05 1679.42C107.959 1679.5 107.887 1679.61 107.841 1679.73C107.794 1679.84 107.773 1679.97 107.78 1680.09C107.774 1680.33 107.847 1680.56 107.986 1680.75C108.154 1680.97 108.371 1681.13 108.618 1681.24C109.586 1681.66 110.635 1681.85 111.689 1681.82C112.456 1681.83 113.219 1681.71 113.942 1681.45C114.541 1681.24 115.063 1680.86 115.44 1680.35C115.811 1679.82 115.999 1679.18 115.976 1678.53C115.991 1678 115.857 1677.47 115.589 1677.01C115.318 1676.58 114.952 1676.2 114.518 1675.92C113.968 1675.57 113.385 1675.28 112.777 1675.04C112.712 1675.01 112.644 1674.98 112.575 1674.96C111.952 1674.7 111.484 1674.5 111.169 1674.34C110.889 1674.21 110.635 1674.03 110.419 1673.81C110.239 1673.62 110.139 1673.37 110.141 1673.11C110.133 1672.91 110.178 1672.72 110.272 1672.54C110.366 1672.37 110.506 1672.22 110.677 1672.12C111.082 1671.88 111.548 1671.76 112.02 1671.78C112.381 1671.77 112.742 1671.82 113.091 1671.91C113.471 1672.02 113.843 1672.15 114.204 1672.31C114.35 1672.38 114.509 1672.42 114.671 1672.42C114.788 1672.42 114.905 1672.4 115.013 1672.35C115.121 1672.31 115.219 1672.24 115.299 1672.16C115.384 1672.07 115.45 1671.96 115.493 1671.84C115.536 1671.72 115.555 1671.6 115.549 1671.48C115.553 1671.24 115.469 1671 115.312 1670.82C115.099 1670.6 114.835 1670.43 114.542 1670.33C114.223 1670.22 113.894 1670.13 113.558 1670.08C113.09 1670.01 112.615 1669.97 112.14 1669.97C111.414 1669.97 110.693 1670.09 110.009 1670.33C109.379 1670.54 108.818 1670.91 108.38 1671.41C107.96 1671.9 107.737 1672.53 107.756 1673.18C107.741 1673.69 107.86 1674.19 108.102 1674.64Z" fill="#4D7BF1"/>
<g clip-path="url(#clip32_83_6836)">
<path d="M115.405 1698.13C114.649 1698.07 113.929 1698.22 113.225 1698.6C112.285 1699.1 111.615 1699.88 111.313 1700.88V1700.95L111.278 1701.18L111.144 1700.95L110.809 1700.34C110.273 1699.51 109.603 1699 108.765 1698.77C108.029 1698.6 107.425 1698.67 106.789 1699.01C106.084 1699.45 105.683 1700.12 105.515 1701.06C105.347 1702.03 105.515 1702.97 106.017 1703.9L106.253 1704.24L105.446 1703.97C104.441 1703.74 103.502 1703.87 102.563 1704.37C101.591 1704.87 100.989 1705.58 100.587 1706.55C100.217 1707.49 100.251 1708.39 100.72 1709.23C100.922 1709.6 101.224 1709.9 101.492 1710.1C101.894 1710.5 102.397 1710.74 103 1710.84L103.234 1710.9L102.732 1711.34C102.262 1711.74 101.994 1712.25 101.826 1712.75C101.658 1713.35 101.726 1713.96 102.062 1714.53C102.232 1714.79 102.396 1715.03 102.664 1715.2C102.932 1715.43 103.268 1715.6 103.67 1715.63C104.408 1715.8 105.178 1715.8 106.016 1715.53L105.412 1716.54L105.244 1716.97C104.909 1718.05 105.011 1718.98 105.514 1719.96C105.749 1720.33 106.014 1720.66 106.284 1720.96C106.684 1721.33 107.19 1721.56 107.794 1721.73C108.798 1722 109.804 1721.97 110.774 1721.46C111.714 1720.96 112.317 1720.15 112.619 1719.15L112.651 1718.95C113.288 1719.65 113.891 1720.12 114.563 1720.29C115.233 1720.49 115.903 1720.46 116.507 1720.06C117.077 1719.72 117.48 1719.15 117.681 1718.45C117.849 1717.71 117.849 1716.97 117.681 1716.13C118.016 1716.37 118.351 1716.53 118.753 1716.64C119.826 1716.97 120.763 1716.94 121.703 1716.44C122.607 1715.93 123.211 1715.13 123.513 1714.09C123.781 1713.08 123.715 1712.11 123.213 1711.17L123.043 1710.9C122.776 1710.5 122.506 1710.1 122.103 1709.83C121.769 1709.6 121.368 1709.43 120.999 1709.26C122.039 1708.76 122.775 1708.05 123.109 1707.15C123.345 1706.41 123.279 1705.81 122.942 1705.2V1705.14C122.54 1704.47 122.005 1704.03 121.167 1703.8C120.664 1703.7 120.095 1703.7 119.593 1703.73L118.485 1703.97L118.855 1703.13C119.189 1702.05 119.09 1701.02 118.52 1700.04L118.42 1699.87C117.917 1699.04 117.18 1698.53 116.174 1698.27C115.914 1698.2 115.657 1698.15 115.405 1698.13ZM114.835 1699.55C115.158 1699.52 115.485 1699.56 115.802 1699.68C116.506 1699.84 117.009 1700.21 117.312 1700.78V1700.78C117.48 1701.12 117.579 1701.52 117.579 1701.96L117.479 1702.69C117.345 1703.06 117.177 1703.4 116.976 1703.7L113.96 1707.39C113.66 1707.15 113.323 1706.99 112.988 1706.82L112.652 1703.03L112.619 1701.69L112.651 1701.35C112.819 1700.68 113.289 1700.18 113.891 1699.85C114.193 1699.68 114.511 1699.58 114.835 1699.55ZM107.952 1700.08C108.086 1700.08 108.228 1700.11 108.362 1700.18C108.965 1700.35 109.468 1700.78 109.87 1701.62C110.04 1701.96 110.206 1702.29 110.273 1702.69L110.943 1706.65L110.439 1706.82L107.456 1703.57L107.288 1703.23C107.018 1702.63 106.853 1702.06 106.92 1701.46V1701.45C106.954 1700.85 107.188 1700.45 107.59 1700.22C107.69 1700.13 107.817 1700.09 107.95 1700.09L107.952 1700.08ZM120.082 1705.12C120.232 1705.12 120.379 1705.12 120.53 1705.14C121.1 1705.21 121.502 1705.48 121.703 1705.88L121.838 1706.31L121.771 1706.65C121.537 1707.25 121.033 1707.72 120.196 1708.09C119.861 1708.26 119.493 1708.33 119.091 1708.39L114.968 1708.89L114.901 1708.66L114.833 1708.56L114.968 1708.39L118.355 1705.58L118.755 1705.41L118.757 1705.41C119.207 1705.21 119.642 1705.12 120.085 1705.12L120.082 1705.12ZM104.621 1705.3C104.781 1705.31 104.945 1705.33 105.111 1705.38V1705.38L106.019 1705.74L108.969 1707.89C108.699 1708.23 108.534 1708.56 108.433 1708.9L103.605 1709.5L103.271 1709.43C102.668 1709.33 102.264 1709.06 101.995 1708.56C101.725 1708.06 101.728 1707.56 101.929 1707.05C102.164 1706.42 102.599 1705.91 103.235 1705.65C103.688 1705.39 104.14 1705.27 104.621 1705.3ZM111.781 1707.99C112.385 1707.99 112.956 1708.23 113.325 1708.59C113.795 1709.06 113.995 1709.57 113.995 1710.17C113.995 1710.77 113.795 1711.34 113.325 1711.74C112.889 1712.18 112.385 1712.41 111.782 1712.41C111.146 1712.41 110.612 1712.18 110.209 1711.74C109.773 1711.34 109.539 1710.77 109.539 1710.17C109.539 1709.57 109.773 1709.06 110.209 1708.59C110.611 1708.22 111.146 1707.99 111.783 1707.99H111.781ZM120.196 1710.57L120.532 1710.61C121.036 1710.77 121.505 1711.07 121.772 1711.58C122.108 1711.95 122.275 1712.45 122.275 1713.02L122.175 1713.69C122.008 1714.36 121.605 1714.86 121.035 1715.13C120.432 1715.46 119.828 1715.53 119.158 1715.3C118.756 1715.2 118.488 1715.03 118.254 1714.76L114.734 1711.84L114.969 1711.34L115.069 1710.94L118.857 1710.6L120.197 1710.57L120.196 1710.57ZM113.56 1713.02L114.967 1714.46L115.837 1715.53L116.007 1715.87C116.307 1716.44 116.475 1716.97 116.407 1717.61C116.341 1718.21 116.14 1718.65 115.737 1718.82C115.503 1718.98 115.235 1718.99 114.967 1718.95C114.33 1718.79 113.827 1718.28 113.459 1717.48L113.056 1716.37L112.554 1713.45L113.122 1713.25L113.558 1713.02H113.56ZM109.94 1713.09C110.274 1713.25 110.61 1713.42 110.98 1713.45C111.046 1714.59 111.145 1715.8 111.312 1717.11V1718.45L111.279 1718.78C111.043 1719.39 110.641 1719.89 110.039 1720.16C109.435 1720.49 108.799 1720.56 108.194 1720.39C107.524 1720.23 107.021 1719.82 106.754 1719.29C106.584 1718.95 106.45 1718.55 106.45 1718.15L106.62 1717.38C106.686 1717.04 106.855 1716.71 107.123 1716.44L109.939 1713.09H109.94Z" fill="#4D7BF1"/>
</g>
<path d="M101 1743.5C101 1742.67 101.672 1742 102.5 1742C103.328 1742 104 1742.67 104 1743.5V1746.5C104 1747.33 103.328 1748 102.5 1748C101.672 1748 101 1747.33 101 1746.5V1743.5Z" fill="#4D7BF1"/>
<path d="M120 1743.5C120 1742.67 120.672 1742 121.5 1742C122.328 1742 123 1742.67 123 1743.5V1746.5C123 1747.33 122.328 1748 121.5 1748C120.672 1748 120 1747.33 120 1746.5V1743.5Z" fill="#4D7BF1"/>
<path fill-rule="evenodd" clip-rule="evenodd" d="M112 1736C108.134 1736 105 1739.13 105 1743V1748C105 1750.21 106.791 1752 109 1752H115C117.209 1752 119 1750.21 119 1748V1743C119 1739.13 115.866 1736 112 1736ZM112 1738C109.239 1738 107 1740.24 107 1743V1743.33C107 1744.81 108.194 1746 109.667 1746H114.333C115.806 1746 117 1744.81 117 1743.33V1743C117 1740.24 114.761 1738 112 1738Z" fill="#4D7BF1"/>
<g clip-path="url(#clip33_83_6836)">
<path fill-rule="evenodd" clip-rule="evenodd" d="M107.053 1766.07C108.332 1766.01 108.74 1766 112 1766C115.26 1766 115.668 1766.01 116.946 1766.07C118.225 1766.13 119.097 1766.33 119.861 1766.63C120.661 1766.93 121.386 1767.4 121.986 1768.01C122.597 1768.61 123.068 1769.34 123.369 1770.14C123.666 1770.9 123.869 1771.78 123.928 1773.05C123.987 1774.33 124 1774.74 124 1778C124 1781.26 123.986 1781.67 123.928 1782.95C123.87 1784.22 123.666 1785.1 123.369 1785.86C123.068 1786.66 122.596 1787.39 121.986 1787.99C121.386 1788.6 120.661 1789.07 119.861 1789.37C119.097 1789.67 118.225 1789.87 116.948 1789.93C115.668 1789.99 115.26 1790 112 1790C108.74 1790 108.332 1789.99 107.053 1789.93C105.776 1789.87 104.904 1789.67 104.14 1789.37C103.339 1789.07 102.614 1788.6 102.014 1787.99C101.403 1787.39 100.931 1786.66 100.629 1785.86C100.334 1785.1 100.131 1784.22 100.072 1782.95C100.013 1781.67 100 1781.26 100 1778C100 1774.74 100.014 1774.33 100.072 1773.05C100.13 1771.78 100.334 1770.9 100.629 1770.14C100.931 1769.34 101.404 1768.61 102.015 1768.01C102.614 1767.4 103.339 1766.93 104.139 1766.63C104.903 1766.33 105.775 1766.13 107.052 1766.07H107.053ZM116.849 1768.23C115.584 1768.17 115.204 1768.16 112 1768.16C108.796 1768.16 108.416 1768.17 107.151 1768.23C105.98 1768.29 105.345 1768.48 104.922 1768.65C104.363 1768.86 103.962 1769.12 103.542 1769.54C103.144 1769.93 102.838 1770.4 102.645 1770.92C102.481 1771.35 102.285 1771.98 102.232 1773.15C102.174 1774.42 102.162 1774.8 102.162 1778C102.162 1781.2 102.174 1781.58 102.232 1782.85C102.285 1784.02 102.481 1784.65 102.645 1785.08C102.837 1785.6 103.144 1786.07 103.542 1786.46C103.929 1786.86 104.402 1787.16 104.922 1787.35C105.345 1787.52 105.98 1787.71 107.151 1787.77C108.416 1787.83 108.795 1787.84 112 1787.84C115.205 1787.84 115.584 1787.83 116.849 1787.77C118.02 1787.71 118.655 1787.52 119.078 1787.35C119.637 1787.14 120.038 1786.88 120.458 1786.46C120.856 1786.07 121.163 1785.6 121.355 1785.08C121.519 1784.65 121.715 1784.02 121.768 1782.85C121.826 1781.58 121.838 1781.2 121.838 1778C121.838 1774.8 121.826 1774.42 121.768 1773.15C121.715 1771.98 121.519 1771.35 121.355 1770.92C121.136 1770.36 120.878 1769.96 120.458 1769.54C120.07 1769.14 119.599 1768.84 119.078 1768.65C118.655 1768.48 118.02 1768.29 116.849 1768.23ZM110.467 1781.7C111.323 1782.06 112.276 1782.1 113.164 1781.84C114.051 1781.57 114.818 1781 115.333 1780.23C115.849 1779.46 116.08 1778.53 115.988 1777.61C115.897 1776.69 115.488 1775.82 114.831 1775.17C114.412 1774.75 113.906 1774.43 113.349 1774.23C112.791 1774.03 112.197 1773.96 111.608 1774.02C111.019 1774.07 110.45 1774.26 109.942 1774.57C109.435 1774.87 109.001 1775.28 108.672 1775.78C108.343 1776.27 108.127 1776.83 108.041 1777.41C107.954 1778 107.998 1778.6 108.169 1779.16C108.341 1779.73 108.636 1780.25 109.034 1780.69C109.431 1781.13 109.921 1781.47 110.467 1781.7ZM107.639 1773.64C108.211 1773.07 108.891 1772.61 109.64 1772.3C110.388 1771.99 111.19 1771.83 112 1771.83C112.81 1771.83 113.612 1771.99 114.36 1772.3C115.109 1772.61 115.789 1773.07 116.361 1773.64C116.934 1774.21 117.389 1774.89 117.699 1775.64C118.008 1776.39 118.168 1777.19 118.168 1778C118.168 1778.81 118.008 1779.61 117.699 1780.36C117.389 1781.11 116.934 1781.79 116.361 1782.36C115.205 1783.52 113.636 1784.17 112 1784.17C110.364 1784.17 108.795 1783.52 107.639 1782.36C106.482 1781.2 105.832 1779.64 105.832 1778C105.832 1776.36 106.482 1774.8 107.639 1773.64ZM119.536 1772.75C119.678 1772.62 119.792 1772.46 119.87 1772.28C119.949 1772.1 119.991 1771.91 119.994 1771.71C119.996 1771.52 119.96 1771.32 119.887 1771.14C119.813 1770.96 119.704 1770.8 119.567 1770.66C119.429 1770.52 119.264 1770.41 119.083 1770.34C118.903 1770.26 118.709 1770.23 118.514 1770.23C118.319 1770.23 118.126 1770.28 117.948 1770.35C117.769 1770.43 117.608 1770.55 117.474 1770.69C117.214 1770.96 117.071 1771.33 117.077 1771.71C117.082 1772.09 117.235 1772.45 117.504 1772.72C117.772 1772.99 118.134 1773.14 118.514 1773.15C118.893 1773.15 119.26 1773.01 119.536 1772.75Z" fill="#4D7BF1"/>
</g>
<defs>
<clipPath id="clip0_83_6836">
<rect width="24" height="24" fill="white" transform="translate(100 168)"/>
</clipPath>
<clipPath id="clip1_83_6836">
<rect width="24" height="24" fill="white" transform="translate(100 202)"/>
</clipPath>
<clipPath id="clip2_83_6836">
<rect width="24" height="24" fill="white" transform="translate(100 236)"/>
</clipPath>
<clipPath id="clip3_83_6836">
<rect width="24" height="24" fill="white" transform="translate(100 270)"/>
</clipPath>
<clipPath id="clip4_83_6836">
<rect width="24" height="24" fill="white" transform="translate(100 304)"/>
</clipPath>
<clipPath id="clip5_83_6836">
<rect width="24" height="24" fill="white" transform="translate(100 338)"/>
</clipPath>
<clipPath id="clip6_83_6836">
<rect width="24" height="24" fill="white" transform="translate(100 372)"/>
</clipPath>
<clipPath id="clip7_83_6836">
<rect width="24" height="24" fill="white" transform="translate(100 406)"/>
</clipPath>
<clipPath id="clip8_83_6836">
<rect width="24" height="24" fill="white" transform="translate(100 440)"/>
</clipPath>
<clipPath id="clip9_83_6836">
<rect width="24" height="24" fill="white" transform="translate(100 474)"/>
</clipPath>
<clipPath id="clip10_83_6836">
<rect width="24" height="24" fill="white" transform="translate(100 508)"/>
</clipPath>
<clipPath id="clip11_83_6836">
<rect width="24" height="24" fill="white" transform="translate(100 542)"/>
</clipPath>
<clipPath id="clip12_83_6836">
<rect width="24" height="24" fill="white" transform="translate(100 576)"/>
</clipPath>
<clipPath id="clip13_83_6836">
<rect width="24" height="24" fill="white" transform="translate(100 610)"/>
</clipPath>
<clipPath id="clip14_83_6836">
<rect width="24" height="24" fill="white" transform="translate(100 712)"/>
</clipPath>
<clipPath id="clip15_83_6836">
<rect width="24" height="24" fill="white" transform="translate(100 746)"/>
</clipPath>
<clipPath id="clip16_83_6836">
<rect width="24" height="24" fill="white" transform="translate(100 780)"/>
</clipPath>
<clipPath id="clip17_83_6836">
<rect width="24" height="24" fill="white" transform="translate(100 814)"/>
</clipPath>
<clipPath id="clip18_83_6836">
<rect width="24" height="24" fill="white" transform="translate(100 848)"/>
</clipPath>
<clipPath id="clip19_83_6836">
<rect width="24" height="24" fill="white" transform="translate(100 882)"/>
</clipPath>
<clipPath id="clip20_83_6836">
<rect width="24" height="24" fill="white" transform="translate(100 916)"/>
</clipPath>
<clipPath id="clip21_83_6836">
<rect width="24" height="24" fill="white" transform="translate(100 984)"/>
</clipPath>
<clipPath id="clip22_83_6836">
<rect width="24" height="24" fill="white" transform="translate(100 1018)"/>
</clipPath>
<clipPath id="clip23_83_6836">
<rect width="24" height="24" fill="white" transform="translate(100 1052)"/>
</clipPath>
<clipPath id="clip24_83_6836">
<rect width="24" height="24" fill="white" transform="translate(100 1086)"/>
</clipPath>
<clipPath id="clip25_83_6836">
<rect width="24" height="24" fill="white" transform="translate(100 1120)"/>
</clipPath>
<clipPath id="clip26_83_6836">
<rect width="24" height="24" fill="white" transform="translate(100 1154)"/>
</clipPath>
<clipPath id="clip27_83_6836">
<rect width="24" height="24" fill="white" transform="translate(100 1188)"/>
</clipPath>
<clipPath id="clip28_83_6836">
<rect width="24" height="24" fill="white" transform="translate(100 1222)"/>
</clipPath>
<clipPath id="clip29_83_6836">
<rect width="24" height="24" fill="white" transform="translate(100 1256)"/>
</clipPath>
<clipPath id="clip30_83_6836">
<rect width="24" height="24" fill="white" transform="translate(100 1290)"/>
</clipPath>
<clipPath id="clip31_83_6836">
<rect width="24" height="24" fill="white" transform="translate(100 1324)"/>
</clipPath>
<clipPath id="clip32_83_6836">
<rect width="24" height="24" fill="white" transform="translate(100 1698)"/>
</clipPath>
<clipPath id="clip33_83_6836">
<rect width="24" height="24" fill="white" transform="translate(100 1766)"/>
</clipPath>
</defs>
</svg>
