<svg width="24" height="24" viewBox="0 0 24 24" fill="none" xmlns="http://www.w3.org/2000/svg">
<mask id="mask0_425_127630" style="mask-type:alpha" maskUnits="userSpaceOnUse" x="0" y="0" width="24" height="24">
<rect width="24" height="24" fill="#D9D9D9"/>
</mask>
<g mask="url(#mask0_425_127630)">
<path d="M6.74844 21.8625C5.47344 21.8625 4.3776 21.4041 3.46094 20.4875C2.54427 19.5708 2.08594 18.475 2.08594 17.2C2.08594 15.925 2.54427 14.8291 3.46094 13.9125C4.3776 12.9958 5.47344 12.5375 6.74844 12.5375C8.02344 12.5375 9.11927 12.9958 10.0359 13.9125C10.9526 14.8291 11.4109 15.925 11.4109 17.2C11.4109 18.475 10.9526 19.5708 10.0359 20.4875C9.11927 21.4041 8.02344 21.8625 6.74844 21.8625ZM20.9484 21.575L14.3734 15C14.0734 15.2666 13.7276 15.5104 13.3359 15.7312C12.9443 15.9521 12.5734 16.1375 12.2234 16.2875C12.2151 15.7375 12.1693 15.2521 12.0859 14.8312C12.0026 14.4104 11.8859 14.0375 11.7359 13.7125C12.6276 13.4041 13.3693 12.8771 13.9609 12.1312C14.5526 11.3854 14.8484 10.475 14.8484 9.39998C14.8484 8.14998 14.4234 7.09581 13.5734 6.23748C12.7234 5.37914 11.6734 4.94998 10.4234 4.94998C9.18177 4.94998 8.12552 5.37914 7.25469 6.23748C6.38385 7.09581 5.94844 8.14998 5.94844 9.39998C5.94844 9.69164 5.97344 10.0041 6.02344 10.3375C6.07344 10.6708 6.1526 10.9291 6.26094 11.1125C5.91094 11.1458 5.53177 11.2208 5.12344 11.3375C4.7151 11.4541 4.36094 11.5958 4.06094 11.7625C3.91927 11.4291 3.81719 11.0437 3.75469 10.6062C3.69219 10.1687 3.66094 9.76664 3.66094 9.39998C3.66094 7.52498 4.31927 5.93331 5.63594 4.62498C6.9526 3.31664 8.54844 2.66248 10.4234 2.66248C12.2818 2.66248 13.8651 3.32081 15.1734 4.63748C16.4818 5.95414 17.1359 7.54164 17.1359 9.39998C17.1359 10.1166 17.0255 10.8208 16.8047 11.5125C16.5839 12.2041 16.2818 12.7916 15.8984 13.275L22.6109 19.9125L20.9484 21.575ZM5.89844 19.925L7.32344 18.475L8.16094 19.3125L9.41094 18.05L7.98594 16.65L8.88594 15.75L7.63594 14.4875L6.18594 15.9375L5.29844 15.0625L4.04844 16.3125L5.52344 17.7625L4.63594 18.65L5.89844 19.925Z" fill="#4D7BF1"/>
</g>
</svg>
