<svg width="24" height="24" viewBox="0 0 24 24" fill="none" xmlns="http://www.w3.org/2000/svg">
<g clip-path="url(#clip0_1889_141072)">
<path d="M15.4052 0.133019C14.6492 0.0700192 13.9292 0.223019 13.2252 0.600019C12.2852 1.10302 11.6152 1.87502 11.3132 2.88002V2.94702L11.2782 3.18202L11.1442 2.94702L10.8092 2.34402C10.2732 1.50702 9.60318 1.00402 8.76518 0.770019C8.02918 0.604019 7.42518 0.673019 6.78918 1.01002C6.08418 1.44602 5.68318 2.11602 5.51518 3.05502C5.34718 4.02702 5.51518 4.96502 6.01718 5.90202L6.25318 6.23802L5.44618 5.97102C4.44118 5.73502 3.50218 5.86702 2.56318 6.37102C1.59118 6.87002 0.989183 7.57602 0.587183 8.55002C0.217183 9.48802 0.251183 10.393 0.720183 11.23C0.922183 11.6 1.22418 11.9 1.49218 12.102C1.89418 12.504 2.39718 12.738 3.00018 12.838L3.23418 12.904L2.73218 13.342C2.26218 13.744 1.99418 14.245 1.82618 14.748C1.65818 15.351 1.72618 15.955 2.06218 16.525C2.23218 16.793 2.39618 17.028 2.66418 17.195C2.93218 17.43 3.26818 17.598 3.67018 17.631C4.40818 17.801 5.17818 17.799 6.01618 17.531L5.41218 18.536L5.24418 18.972C4.90918 20.046 5.01118 20.982 5.51418 21.955C5.74918 22.325 6.01418 22.66 6.28418 22.961C6.68418 23.329 7.19018 23.563 7.79418 23.731C8.79818 23.999 9.80418 23.967 10.7742 23.464C11.7142 22.961 12.3172 22.154 12.6192 21.149L12.6512 20.949C13.2882 21.652 13.8912 22.122 14.5632 22.289C15.2332 22.491 15.9032 22.459 16.5072 22.056C17.0772 21.721 17.4802 21.15 17.6812 20.446C17.8492 19.708 17.8492 18.972 17.6812 18.134C18.0162 18.369 18.3512 18.534 18.7532 18.636C19.8262 18.971 20.7632 18.936 21.7032 18.436C22.6072 17.932 23.2112 17.128 23.5132 16.089C23.7812 15.084 23.7152 14.112 23.2132 13.173L23.0432 12.903C22.7762 12.501 22.5062 12.099 22.1032 11.831C21.7692 11.596 21.3682 11.429 20.9992 11.261C22.0392 10.758 22.7752 10.054 23.1092 9.14902C23.3452 8.41102 23.2792 7.80702 22.9422 7.20402V7.13802C22.5402 6.46802 22.0052 6.03302 21.1672 5.79802C20.6642 5.69802 20.0952 5.69602 19.5932 5.73002L18.4852 5.96502L18.8552 5.12702C19.1892 4.05402 19.0902 3.01502 18.5202 2.04302L18.4202 1.87302C17.9172 1.03502 17.1802 0.533019 16.1742 0.266019C15.9142 0.199019 15.6572 0.153019 15.4052 0.133019ZM14.8352 1.54702C15.1582 1.51702 15.4852 1.55902 15.8022 1.67702C16.5062 1.84302 17.0092 2.21102 17.3122 2.78102V2.78402C17.4802 3.11902 17.5792 3.52002 17.5792 3.95602L17.4792 4.69402C17.3452 5.06402 17.1772 5.39702 16.9762 5.69802L13.9602 9.38802C13.6602 9.15302 13.3232 8.98502 12.9882 8.81802L12.6522 5.02802L12.6192 3.68802L12.6512 3.35302C12.8192 2.68302 13.2892 2.18002 13.8912 1.84502C14.1932 1.67702 14.5112 1.57602 14.8352 1.54702ZM7.95218 2.08402C8.08618 2.08002 8.22818 2.11402 8.36218 2.18002C8.96518 2.34802 9.46818 2.78302 9.87018 3.62002C10.0402 3.95602 10.2062 4.29002 10.2732 4.69302L10.9432 8.65002L10.4392 8.81802L7.45618 5.56602L7.28818 5.23202C7.01818 4.62802 6.85318 4.05902 6.92018 3.45502V3.45302C6.95418 2.85002 7.18818 2.45002 7.59018 2.21502C7.69018 2.13102 7.81718 2.08802 7.95018 2.08502L7.95218 2.08402ZM20.0822 7.11702C20.2322 7.11702 20.3792 7.12402 20.5302 7.14102C21.1002 7.20902 21.5022 7.47802 21.7032 7.88102L21.8382 8.31402L21.7712 8.64902C21.5372 9.25202 21.0332 9.72302 20.1962 10.091C19.8612 10.259 19.4932 10.326 19.0912 10.391L14.9682 10.894L14.9012 10.659L14.8332 10.559L14.9682 10.392L18.3552 7.57602L18.7552 7.41002L18.7572 7.40802C19.2072 7.20802 19.6422 7.12202 20.0852 7.11802L20.0822 7.11702ZM4.62118 7.30002C4.78118 7.30802 4.94518 7.33302 5.11118 7.37502V7.37702L6.01918 7.74402L8.96918 9.89102C8.69918 10.227 8.53418 10.561 8.43318 10.896L3.60518 11.499L3.27118 11.433C2.66818 11.333 2.26418 11.063 1.99518 10.563C1.72518 10.06 1.72818 9.55702 1.92918 9.05302C2.16418 8.41702 2.59918 7.91302 3.23518 7.64602C3.68818 7.39402 4.14018 7.27302 4.62118 7.30002ZM11.7812 9.99002C12.3852 9.99002 12.9562 10.226 13.3252 10.594C13.7952 11.064 13.9952 11.567 13.9952 12.17C13.9952 12.773 13.7952 13.342 13.3252 13.744C12.8892 14.18 12.3852 14.414 11.7822 14.414C11.1462 14.414 10.6122 14.179 10.2092 13.744C9.77318 13.342 9.53918 12.774 9.53918 12.17C9.53918 11.567 9.77318 11.063 10.2092 10.594C10.6112 10.224 11.1462 9.99002 11.7832 9.99002H11.7812ZM20.1962 12.57L20.5322 12.605C21.0362 12.773 21.5052 13.073 21.7722 13.575C22.1082 13.945 22.2752 14.448 22.2752 15.018L22.1752 15.688C22.0082 16.358 21.6052 16.861 21.0352 17.128C20.4322 17.464 19.8282 17.531 19.1582 17.298C18.7562 17.198 18.4882 17.03 18.2542 16.762L14.7342 13.844L14.9692 13.342L15.0692 12.939L18.8572 12.604L20.1972 12.569L20.1962 12.57ZM13.5602 15.018L14.9672 16.458L15.8372 17.531L16.0072 17.868C16.3072 18.438 16.4752 18.973 16.4072 19.61C16.3412 20.212 16.1402 20.648 15.7372 20.816C15.5032 20.984 15.2352 20.986 14.9672 20.951C14.3302 20.785 13.8272 20.283 13.4592 19.478L13.0562 18.37L12.5542 15.453L13.1222 15.253L13.5582 15.018H13.5602ZM9.94018 15.086C10.2742 15.253 10.6102 15.42 10.9802 15.453C11.0462 16.593 11.1452 17.8 11.3122 19.107V20.449L11.2792 20.782C11.0432 21.385 10.6412 21.889 10.0392 22.157C9.43518 22.492 8.79918 22.559 8.19418 22.392C7.52418 22.225 7.02118 21.822 6.75418 21.286C6.58418 20.951 6.45018 20.546 6.45018 20.146L6.62018 19.376C6.68618 19.041 6.85518 18.706 7.12318 18.436L9.93918 15.086H9.94018Z" fill="#4D7BF1"/>
</g>
<defs>
<clipPath id="clip0_1889_141072">
<rect width="24" height="24" fill="white"/>
</clipPath>
</defs>
</svg>
