<svg width="20" height="20" viewBox="0 0 20 20" fill="none" xmlns="http://www.w3.org/2000/svg">
<path d="M2.77188 19.5124C2.13823 19.5124 1.59857 19.2896 1.1529 18.8439C0.707217 18.3982 0.484375 17.8586 0.484375 17.2249V2.7749C0.484375 2.13439 0.707217 1.58884 1.1529 1.13825C1.59857 0.687686 2.13823 0.462402 2.77188 0.462402H17.2219C17.8624 0.462402 18.4079 0.687686 18.8585 1.13825C19.3091 1.58884 19.5344 2.13439 19.5344 2.7749V17.2249C19.5344 17.8586 19.3091 18.3982 18.8585 18.8439C18.4079 19.2896 17.8624 19.5124 17.2219 19.5124H2.77188ZM2.77188 17.2249H17.2219V2.7749H2.77188V17.2249ZM3.67188 15.2624H16.3594L12.4219 9.8499L9.14688 14.0874L6.84688 10.9624L3.67188 15.2624Z" fill="#4D7BF1"/>
</svg>
