<svg width="24" height="24" viewBox="0 0 24 24" fill="none" xmlns="http://www.w3.org/2000/svg">
<path d="M11.9932 14.65C12.7373 14.65 13.3719 14.3949 13.8969 13.8849C14.4219 13.3749 14.6844 12.7478 14.6844 12.0037C14.6844 11.2595 14.4243 10.625 13.9042 10.1C13.3841 9.57498 12.7508 9.31248 12.0042 9.31248C11.2577 9.31248 10.6281 9.57253 10.1156 10.0926C9.60313 10.6127 9.34688 11.2461 9.34688 11.9926C9.34688 12.7392 9.6019 13.3687 10.1119 13.8812C10.622 14.3937 11.2491 14.65 11.9932 14.65ZM11.9991 16.9625C10.6226 16.9625 9.45104 16.4786 8.48438 15.511C7.51771 14.5433 7.03438 13.3725 7.03438 11.9985C7.03438 10.6245 7.51821 9.45206 8.48588 8.48123C9.45354 7.51039 10.6244 7.02498 11.9984 7.02498C13.3724 7.02498 14.5448 7.50967 15.5156 8.47905C16.4865 9.44845 16.9719 10.6214 16.9719 11.9978C16.9719 13.3743 16.4872 14.5458 15.5178 15.5125C14.5484 16.4791 13.3755 16.9625 11.9991 16.9625ZM1.74688 13.1375C1.42604 13.1375 1.15625 13.0277 0.9375 12.8081C0.71875 12.5885 0.609375 12.3177 0.609375 11.9956C0.609375 11.6735 0.71875 11.4021 0.9375 11.1812C1.15625 10.9604 1.42604 10.85 1.74688 10.85H4.24688C4.56771 10.85 4.83958 10.9619 5.0625 11.1856C5.28542 11.4094 5.39687 11.6823 5.39687 12.0044C5.39687 12.3264 5.28542 12.5958 5.0625 12.8125C4.83958 13.0291 4.56771 13.1375 4.24688 13.1375H1.74688ZM19.7469 13.1375C19.426 13.1375 19.1562 13.0277 18.9375 12.8081C18.7188 12.5885 18.6094 12.3177 18.6094 11.9956C18.6094 11.6735 18.7188 11.4021 18.9375 11.1812C19.1562 10.9604 19.426 10.85 19.7469 10.85H22.2469C22.5677 10.85 22.8396 10.9619 23.0625 11.1856C23.2854 11.4094 23.3969 11.6823 23.3969 12.0044C23.3969 12.3264 23.2854 12.5958 23.0625 12.8125C22.8396 13.0291 22.5677 13.1375 22.2469 13.1375H19.7469ZM11.9925 5.38748C11.6704 5.38748 11.401 5.2781 11.1844 5.05935C10.9677 4.8406 10.8594 4.57081 10.8594 4.24998V1.74998C10.8594 1.42914 10.9692 1.15727 11.1888 0.934351C11.4083 0.711434 11.6792 0.599976 12.0013 0.599976C12.3233 0.599976 12.5948 0.711434 12.8156 0.934351C13.0365 1.15727 13.1469 1.42914 13.1469 1.74998V4.24998C13.1469 4.57081 13.035 4.8406 12.8113 5.05935C12.5875 5.2781 12.3146 5.38748 11.9925 5.38748ZM11.9925 23.3875C11.6704 23.3875 11.401 23.2781 11.1844 23.0594C10.9677 22.8406 10.8594 22.5708 10.8594 22.25V19.75C10.8594 19.4291 10.9692 19.1573 11.1888 18.9344C11.4083 18.7114 11.6792 18.6 12.0013 18.6C12.3233 18.6 12.5948 18.7114 12.8156 18.9344C13.0365 19.1573 13.1469 19.4291 13.1469 19.75V22.25C13.1469 22.5708 13.035 22.8406 12.8113 23.0594C12.5875 23.2781 12.3146 23.3875 11.9925 23.3875ZM5.72188 7.34998L4.29688 5.94998C4.06354 5.72498 3.94997 5.45328 3.95615 5.1349C3.96232 4.8165 4.07703 4.53733 4.30028 4.2974C4.51956 4.07412 4.78423 3.96039 5.0943 3.95623C5.40435 3.95206 5.68021 4.06248 5.92188 4.28748L7.34688 5.71248C7.56354 5.94336 7.67188 6.21273 7.67188 6.52058C7.67188 6.82841 7.56354 7.0936 7.34688 7.31615C7.11354 7.5387 6.84063 7.65831 6.52813 7.67498C6.21563 7.69164 5.94688 7.58331 5.72188 7.34998ZM18.0719 19.7L16.6469 18.275C16.4302 18.05 16.3219 17.7844 16.3219 17.4781C16.3219 17.1719 16.4344 16.9 16.6594 16.6625C16.876 16.4375 17.1426 16.3271 17.459 16.3312C17.7754 16.3354 18.0505 16.45 18.2844 16.675L19.7094 18.05C19.9344 18.275 20.0438 18.5467 20.0376 18.8651C20.0314 19.1835 19.9167 19.4626 19.6935 19.7026C19.4742 19.9258 19.2095 20.0396 18.8995 20.0437C18.5894 20.0479 18.3135 19.9333 18.0719 19.7ZM16.6682 7.34998C16.4373 7.12498 16.324 6.85428 16.3281 6.5379C16.3323 6.2215 16.4469 5.94636 16.6719 5.71248L18.0469 4.28748C18.2719 4.06248 18.5436 3.95307 18.862 3.95925C19.1804 3.96542 19.4595 4.08013 19.6995 4.30338C19.9227 4.52266 20.0365 4.78733 20.0406 5.0974C20.0448 5.40745 19.9344 5.68331 19.7094 5.92498L18.2844 7.34998C18.0702 7.56664 17.8061 7.67498 17.4922 7.67498C17.1783 7.67498 16.9036 7.56664 16.6682 7.34998ZM4.2943 19.703C4.07102 19.4793 3.95729 19.2124 3.95312 18.9025C3.94896 18.5925 4.06354 18.3166 4.29688 18.075L5.72188 16.65C5.94354 16.425 6.20521 16.3104 6.50688 16.3062C6.80854 16.3021 7.08112 16.4166 7.3246 16.65C7.55612 16.875 7.66979 17.1458 7.66563 17.4625C7.66146 17.7791 7.54688 18.05 7.32188 18.275L5.94688 19.7C5.72188 19.9333 5.45018 20.0469 5.1318 20.0407C4.8134 20.0345 4.53423 19.922 4.2943 19.703Z" fill="#4D7BF1"/>
</svg>
