<svg width="18" height="18" viewBox="0 0 18 18" fill="none" xmlns="http://www.w3.org/2000/svg">
<g clip-path="url(#clip0_8203_111502)">
<mask id="mask0_8203_111502" style="mask-type:alpha" maskUnits="userSpaceOnUse" x="0" y="0" width="18" height="18">
<rect width="18" height="18" fill="#D9D9D9"/>
</mask>
<g mask="url(#mask0_8203_111502)">
<path d="M3.59063 16.1721C3.11539 16.1721 2.71064 16.0049 2.37639 15.6707C2.04213 15.3364 1.875 14.9317 1.875 14.4564V3.59082C1.875 3.11043 2.04213 2.70127 2.37639 2.36333C2.71064 2.02541 3.11539 1.85645 3.59063 1.85645H9.10312V3.59082H3.59063V14.4564H9.10312V16.1721H3.59063ZM12.2906 12.8908L11.0625 11.7002L12.8625 9.88144H6.66563V8.16582H12.825L11.025 6.34707L12.2531 5.14707L16.1437 9.03769L12.2906 12.8908Z" fill="#4D7BF1"/>
</g>
</g>
<defs>
<clipPath id="clip0_8203_111502">
<rect width="18" height="18" fill="white"/>
</clipPath>
</defs>
</svg>
