<svg width="22" height="18" viewBox="0 0 22 18" fill="none" xmlns="http://www.w3.org/2000/svg">
<path d="M2.7875 17.5124C2.15385 17.5124 1.61418 17.2896 1.1685 16.8439C0.722833 16.3982 0.5 15.8586 0.5 15.2249V2.7749C0.5 2.13439 0.722833 1.58884 1.1685 1.13825C1.6142 0.687686 2.15387 0.462402 2.7875 0.462402H19.2125C19.853 0.462402 20.3986 0.687686 20.8491 1.13825C21.2997 1.58884 21.525 2.13439 21.525 2.7749V15.2249C21.525 15.8586 21.2997 16.3982 20.8491 16.8439C20.3986 17.2896 19.853 17.5124 19.2125 17.5124H2.7875ZM11 10.1999L2.7875 4.6624V15.2249H19.2125V4.6624L11 10.1999ZM11 8.1874L19.1 2.7749H2.925L11 8.1874ZM2.7875 4.6624V2.7749V15.2249V4.6624Z" fill="#4D7BF1"/>
</svg>
