<svg width="24" height="24" viewBox="0 0 24 24" fill="none" xmlns="http://www.w3.org/2000/svg">
<path fill-rule="evenodd" clip-rule="evenodd" d="M1 11.6704C1 5.53949 5.80288 1 12.0001 1C18.1974 1 23.0003 5.53949 23.0003 11.6704C23.0003 17.8012 18.1974 22.3407 12.0001 22.3407C10.8868 22.3407 9.81782 22.1946 8.81519 21.918C8.62042 21.8649 8.41458 21.8803 8.22866 21.9622L6.04634 22.925C5.47531 23.1751 4.83124 22.7701 4.81132 22.1459L4.75156 20.1894C4.7427 19.9481 4.63425 19.7246 4.45497 19.563C2.3147 17.6485 1 14.8774 1 11.6704ZM8.62704 9.6651L5.39561 14.7911C5.08353 15.2825 5.68998 15.838 6.15256 15.4861L9.62524 12.85C9.85985 12.673 10.183 12.6708 10.4198 12.8478L12.9895 14.7756C13.7597 15.3533 14.8619 15.1497 15.3754 14.3352L18.6046 9.21137C18.9167 8.72002 18.3103 8.16448 17.8477 8.51639L14.3772 11.1502C14.1426 11.3273 13.8195 11.3295 13.5826 11.1524L11.013 9.22465C10.2428 8.64698 9.14052 8.8506 8.62704 9.6651Z" fill="#4D7BF1"/>
</svg>
