<svg width="32" height="32" viewBox="0 0 32 32" fill="none" xmlns="http://www.w3.org/2000/svg">
<mask id="mask0_6468_103168" style="mask-type:alpha" maskUnits="userSpaceOnUse" x="-1" y="-2" width="34" height="35">
<rect x="-0.847656" y="-1.33301" width="33.6953" height="33.6953" fill="#D9D9D9"/>
</mask>
<g mask="url(#mask0_6468_103168)">
<path d="M15.1365 24.3412H16.832V22.7749C17.8662 22.6618 18.7763 22.2294 19.5624 21.4778C20.3484 20.7262 20.7415 19.8433 20.7415 18.8293C20.7415 17.7822 20.4186 16.9281 19.7729 16.2667C19.1272 15.6054 18.1406 15.039 16.8131 14.5674C15.3137 14.0166 14.3723 13.5509 13.9889 13.1702C13.6055 12.7895 13.4138 12.2796 13.4138 11.6406C13.4138 11.1186 13.6501 10.6693 14.1226 10.2927C14.5951 9.91604 15.1867 9.72772 15.8974 9.72772C16.5126 9.72772 17.0827 9.87195 17.6077 10.1604C18.1328 10.4488 18.5078 10.8531 18.7328 11.3733L20.1772 10.7412C19.8487 10.0593 19.3974 9.50746 18.8232 9.08583C18.249 8.66419 17.5853 8.38821 16.832 8.25787V6.68897H15.1688V8.29139C14.1078 8.47948 13.2728 8.88539 12.664 9.50913C12.0552 10.1328 11.7507 10.855 11.7507 11.6757C11.7507 12.6693 12.0959 13.5061 12.7862 14.186C13.4765 14.8659 14.6224 15.4885 16.2241 16.0537C17.2891 16.4371 18.0414 16.8409 18.481 17.2652C18.9207 17.6894 19.1405 18.2103 19.1405 18.8279C19.1405 19.5443 18.8491 20.13 18.2664 20.5849C17.6836 21.0398 17.0219 21.2673 16.2812 21.2673C15.5027 21.2673 14.7993 21.0169 14.1708 20.5161C13.5424 20.0152 13.0948 19.3873 12.828 18.6322L11.3052 19.2991C11.6337 20.1738 12.1386 20.9059 12.8199 21.4954C13.5012 22.0849 14.2734 22.4977 15.1365 22.7338V24.3412ZM16.0013 28.0077C14.2911 28.0077 12.6768 27.6816 11.1584 27.0296C9.63999 26.3775 8.31062 25.4807 7.17032 24.3391C6.03001 23.1975 5.13452 21.8686 4.48385 20.3525C3.83316 18.8364 3.50781 17.2242 3.50781 15.5159C3.50781 13.7824 3.83385 12.1622 4.48592 10.6555C5.13798 9.14878 6.0348 7.82527 7.17639 6.68497C8.31798 5.54466 9.64685 4.64917 11.163 3.9985C12.6791 3.34781 14.2913 3.02246 15.9995 3.02246C17.7331 3.02246 19.3532 3.3485 20.86 4.00057C22.3667 4.65262 23.6902 5.54945 24.8305 6.69104C25.9708 7.83263 26.8663 9.15565 27.517 10.6601C28.1677 12.1645 28.493 13.7826 28.493 15.5142C28.493 17.2243 28.167 18.8386 27.5149 20.3571C26.8629 21.8755 25.966 23.2049 24.8245 24.3452C23.6829 25.4855 22.3598 26.381 20.8554 27.0316C19.351 27.6823 17.7329 28.0077 16.0013 28.0077Z" fill="white"/>
</g>
</svg>
