<svg width="40" height="41" viewBox="0 0 40 41" fill="none" xmlns="http://www.w3.org/2000/svg">
<g clip-path="url(#clip0_8164_96479)">
<mask id="mask0_8164_96479" style="mask-type:alpha" maskUnits="userSpaceOnUse" x="0" y="0" width="40" height="41">
<rect y="0.5" width="40" height="40" fill="#D9D9D9"/>
</mask>
<g mask="url(#mask0_8164_96479)">
<path fill-rule="evenodd" clip-rule="evenodd" d="M32.8038 15.4228C33.3929 16.9772 33.6875 18.6709 33.6875 20.5039C33.6875 22.1063 33.4549 23.6035 32.9896 24.9953C32.5243 26.3871 31.7014 27.8538 30.5208 29.3955C28.8219 28.2854 27.1324 27.4141 25.4522 26.7817C23.7721 26.1492 21.9608 25.833 20.0181 25.833C18.0755 25.833 16.2743 26.1386 14.6146 26.7497C12.9549 27.3608 11.2624 28.2427 9.53708 29.3955C8.31942 27.8381 7.47757 26.3669 7.01154 24.9817C6.54551 23.5965 6.3125 22.1039 6.3125 20.5039C6.3125 16.6331 7.62847 13.3835 10.2604 10.755C12.8924 8.12644 16.1413 6.81217 20.0072 6.81217C21.1722 6.81217 22.2809 6.93151 23.3333 7.17019C23.3333 7.16892 23.3333 7.16765 23.3333 7.16638C23.3333 5.84148 23.6425 4.58879 24.1927 3.47653C22.8417 3.13085 21.449 2.95801 20.0145 2.95801C17.6048 2.95801 15.3402 3.42676 13.2208 4.36426C11.1014 5.30176 9.24671 6.56409 7.65679 8.15126C6.06687 9.73842 4.80993 11.6002 3.88596 13.7365C2.96199 15.8729 2.5 18.1224 2.5 20.4851C2.5 22.8933 2.95908 25.1565 3.87725 27.2745C4.79544 29.3926 6.05239 31.2506 7.64808 32.8484C9.24381 34.4462 11.1048 35.7042 13.2311 36.6224C15.3574 37.5406 17.6086 37.9997 19.9848 37.9997C22.3587 37.9997 24.6144 37.5379 26.752 36.6143C28.8895 35.6906 30.7533 34.4353 32.3432 32.8481C33.9331 31.2609 35.197 29.4026 36.1349 27.2732C37.0727 25.1438 37.5417 22.8911 37.5417 20.5149C37.5417 18.2721 37.1233 16.1348 36.2865 14.103C35.2627 14.7862 34.0792 15.2488 32.8038 15.4228ZM15.778 20.2963C16.9077 21.4319 18.3133 21.9997 19.9945 21.9997C21.6758 21.9997 23.0832 21.4337 24.2166 20.3018C25.35 19.1698 25.9167 17.7723 25.9167 16.1093C25.9167 14.4462 25.3518 13.04 24.222 11.8905C23.0923 10.7411 21.6867 10.1663 20.0055 10.1663C18.3242 10.1663 16.9168 10.7393 15.7834 11.8851C14.65 13.0309 14.0833 14.4354 14.0833 16.0984C14.0833 17.7614 14.6482 19.1607 15.778 20.2963ZM24.0938 33.6143C22.7951 33.9962 21.4301 34.1872 19.9988 34.1872C18.5674 34.1872 17.2097 33.9962 15.9258 33.6143C14.6419 33.2323 13.2778 32.5275 11.8333 31.4997C13.2917 30.5136 14.6603 29.7983 15.9392 29.3538C17.218 28.9094 18.5725 28.6872 20.0025 28.6872C21.4325 28.6872 22.7896 28.9129 24.0738 29.3643C25.3579 29.8156 26.7361 30.5275 28.2083 31.4997C26.7639 32.5275 25.3924 33.2323 24.0938 33.6143ZM22.1639 18.2705C21.5926 18.8261 20.8713 19.1038 20 19.1038C19.1287 19.1038 18.4074 18.8261 17.8361 18.2705C17.2648 17.715 16.9792 16.9927 16.9792 16.1038C16.9792 15.215 17.2648 14.4858 17.8361 13.9163C18.4074 13.3469 19.1287 13.0622 20 13.0622C20.8713 13.0622 21.5926 13.3469 22.1639 13.9163C22.7352 14.4858 23.0208 15.215 23.0208 16.1038C23.0208 16.9927 22.7352 17.715 22.1639 18.2705Z" fill="white"/>
</g>
<path d="M31.6667 12.167C34.4282 12.167 36.6667 9.92842 36.6667 7.16699C36.6667 4.40557 34.4282 2.16699 31.6667 2.16699C28.9053 2.16699 26.6667 4.40557 26.6667 7.16699C26.6667 9.92842 28.9053 12.167 31.6667 12.167Z" fill="#45DC93"/>
</g>
<defs>
<clipPath id="clip0_8164_96479">
<rect width="40" height="40" fill="white" transform="translate(0 0.5)"/>
</clipPath>
</defs>
</svg>
