<svg width="24" height="24" viewBox="0 0 24 24" fill="none" xmlns="http://www.w3.org/2000/svg">
<g clip-path="url(#clip0_1754_144051)">
<mask id="mask0_1754_144051" style="mask-type:alpha" maskUnits="userSpaceOnUse" x="0" y="0" width="24" height="24">
<rect width="24" height="24" fill="#D9D9D9"/>
</mask>
<g mask="url(#mask0_1754_144051)">
<path d="M18.5719 13.1625V10.0875H15.4969V8.34998H18.5719V5.27498H20.3094V8.34998H23.3844V10.0875H20.3094V13.1625H18.5719ZM9.05485 11.6625C7.77608 11.6625 6.73839 11.2644 5.94178 10.4681C5.14518 9.67188 4.74688 8.63438 4.74688 7.35563C4.74688 6.07686 5.14499 5.03748 5.94123 4.23748C6.73747 3.43748 7.77498 3.03748 9.05373 3.03748C10.3325 3.03748 11.376 3.43729 12.1844 4.23693C12.9927 5.03656 13.3969 6.07575 13.3969 7.3545C13.3969 8.63327 12.9929 9.67096 12.1849 10.4676C11.377 11.2642 10.3336 11.6625 9.05485 11.6625ZM0.546875 20.7875V17.8375C0.546875 17.1398 0.725583 16.5158 1.083 15.9655C1.44043 15.4152 1.93823 14.9906 2.5764 14.6916C3.84838 14.1305 4.98268 13.7333 5.9793 13.5C6.97592 13.2666 7.99709 13.15 9.04283 13.15C10.1205 13.15 11.1587 13.2666 12.1575 13.5C13.1562 13.7333 14.2858 14.1291 15.5463 14.6872C16.1818 14.9784 16.6825 15.3967 17.0483 15.9421C17.414 16.4875 17.5969 17.1194 17.5969 17.8378V20.7875H0.546875ZM2.83438 18.5H15.2844V17.9434C15.2844 17.6823 15.2088 17.4331 15.0575 17.1959C14.9063 16.9588 14.7046 16.7842 14.4526 16.6721C13.3571 16.1824 12.4236 15.8583 11.652 15.7C10.8805 15.5416 10.0132 15.4625 9.05015 15.4625C8.11463 15.4625 7.25313 15.5416 6.46563 15.7C5.67813 15.8583 4.74212 16.182 3.6576 16.6711C3.39212 16.783 3.18854 16.957 3.04688 17.1932C2.90521 17.4294 2.83438 17.6775 2.83438 17.9375V18.5ZM9.0585 9.37498C9.65908 9.37498 10.1469 9.18459 10.5219 8.80383C10.8969 8.42306 11.0844 7.93873 11.0844 7.35085C11.0844 6.7561 10.8972 6.26977 10.5227 5.89185C10.1483 5.51393 9.66502 5.32498 9.07275 5.32498C8.4805 5.32498 7.99271 5.51432 7.60938 5.893C7.22604 6.27168 7.03438 6.75351 7.03438 7.33848C7.03438 7.93031 7.22476 8.41769 7.60553 8.8006C7.98629 9.18352 8.47062 9.37498 9.0585 9.37498Z" fill="#4D7BF1"/>
</g>
</g>
<defs>
<clipPath id="clip0_1754_144051">
<rect width="24" height="24" fill="white"/>
</clipPath>
</defs>
</svg>
