<svg width="24" height="18" viewBox="0 0 24 18" fill="none" xmlns="http://www.w3.org/2000/svg">
<path d="M18.5719 10.1625V7.08748H15.4969V5.34998H18.5719V2.27498H20.3094V5.34998H23.3844V7.08748H20.3094V10.1625H18.5719ZM9.05485 8.66248C7.77608 8.66248 6.73839 8.26436 5.94178 7.46813C5.14518 6.67188 4.74688 5.63438 4.74688 4.35563C4.74688 3.07686 5.14499 2.03748 5.94123 1.23748C6.73747 0.437476 7.77498 0.0374756 9.05373 0.0374756C10.3325 0.0374756 11.376 0.437293 12.1844 1.23693C12.9927 2.03656 13.3969 3.07575 13.3969 4.3545C13.3969 5.63327 12.9929 6.67096 12.1849 7.46758C11.377 8.26418 10.3336 8.66248 9.05485 8.66248ZM0.546875 17.7875V14.8375C0.546875 14.1398 0.725583 13.5158 1.083 12.9655C1.44043 12.4152 1.93823 11.9906 2.5764 11.6916C3.84838 11.1305 4.98268 10.7333 5.9793 10.5C6.97592 10.2666 7.99709 10.15 9.04283 10.15C10.1205 10.15 11.1587 10.2666 12.1575 10.5C13.1562 10.7333 14.2858 11.1291 15.5463 11.6872C16.1818 11.9784 16.6825 12.3967 17.0483 12.9421C17.414 13.4875 17.5969 14.1194 17.5969 14.8378V17.7875H0.546875ZM2.83438 15.5H15.2844V14.9434C15.2844 14.6823 15.2088 14.4331 15.0575 14.1959C14.9063 13.9588 14.7046 13.7842 14.4526 13.6721C13.3571 13.1824 12.4236 12.8583 11.652 12.7C10.8805 12.5416 10.0132 12.4625 9.05015 12.4625C8.11463 12.4625 7.25313 12.5416 6.46563 12.7C5.67813 12.8583 4.74212 13.182 3.6576 13.6711C3.39212 13.783 3.18854 13.957 3.04688 14.1932C2.90521 14.4294 2.83438 14.6775 2.83438 14.9375V15.5ZM9.0585 6.37498C9.65908 6.37498 10.1469 6.18459 10.5219 5.80383C10.8969 5.42306 11.0844 4.93873 11.0844 4.35085C11.0844 3.7561 10.8972 3.26977 10.5227 2.89185C10.1483 2.51393 9.66502 2.32498 9.07275 2.32498C8.4805 2.32498 7.99271 2.51432 7.60938 2.893C7.22604 3.27168 7.03438 3.75351 7.03438 4.33848C7.03438 4.93031 7.22476 5.41769 7.60553 5.8006C7.98629 6.18352 8.47062 6.37498 9.0585 6.37498Z" fill="#4D7BF1"/>
</svg>
