<svg width="24" height="24" viewBox="0 0 24 24" fill="none" xmlns="http://www.w3.org/2000/svg">
<g clip-path="url(#clip0_1754_144046)">
<mask id="mask0_1754_144046" style="mask-type:alpha" maskUnits="userSpaceOnUse" x="0" y="0" width="24" height="24">
<rect width="24" height="24" fill="#D9D9D9"/>
</mask>
<g mask="url(#mask0_1754_144046)">
<path d="M19.8125 21.5C17.8192 21.5 15.7938 21.0208 13.7363 20.0625C11.6788 19.1041 9.77917 17.7458 8.0375 15.9875C6.27917 14.2458 4.91667 12.3441 3.95 10.2823C2.98333 8.22042 2.5 6.19556 2.5 4.20768C2.5 3.72516 2.66548 3.31575 2.99643 2.97945C3.32738 2.64313 3.73273 2.47498 4.2125 2.47498H7.625C8.14167 2.47498 8.56042 2.61039 8.88125 2.88123C9.20208 3.15206 9.42083 3.54581 9.5375 4.06248L10.2107 6.7535C10.2702 7.17615 10.2542 7.55414 10.1625 7.88748C10.0708 8.22081 9.89392 8.50186 9.63177 8.73063L7.075 11.075C7.44167 11.675 7.83073 12.2388 8.2422 12.7664C8.65365 13.2941 9.12292 13.8053 9.65 14.3C10.1917 14.8833 10.7396 15.3902 11.2937 15.8206C11.8479 16.251 12.4167 16.6191 13 16.925L15.5136 14.4C15.7879 14.1083 16.0908 13.9146 16.4225 13.8187C16.7542 13.7229 17.1092 13.725 17.4875 13.825L19.9216 14.3859C20.4405 14.5286 20.8375 14.7683 21.1125 15.105C21.3875 15.4416 21.525 15.8608 21.525 16.3625V19.7875C21.525 20.2768 21.3566 20.6845 21.0197 21.0107C20.6827 21.3369 20.2803 21.5 19.8125 21.5ZM5.925 9.06248L7.925 7.18748L7.3625 4.78748H4.85C4.85833 5.37914 4.94131 6.0224 5.09893 6.71725C5.25654 7.4121 5.5319 8.19384 5.925 9.06248ZM15.1 18.1125C15.6833 18.3958 16.3389 18.6291 17.0667 18.8125C17.7944 18.9958 18.5097 19.1125 19.2125 19.1625V16.5919L17.0375 16.1L15.1 18.1125Z" fill="#4D7BF1"/>
</g>
</g>
<defs>
<clipPath id="clip0_1754_144046">
<rect width="24" height="24" fill="white"/>
</clipPath>
</defs>
</svg>
