<svg width="24" height="24" viewBox="0 0 24 24" fill="none" xmlns="http://www.w3.org/2000/svg">
<g clip-path="url(#clip0_24_1200)">
<mask id="mask0_24_1200" style="mask-type:alpha" maskUnits="userSpaceOnUse" x="0" y="0" width="24" height="24">
<rect width="24" height="24" fill="#D9D9D9"/>
</mask>
<g mask="url(#mask0_24_1200)">
<path d="M4.77188 21.5124C4.13823 21.5124 3.59857 21.2896 3.1529 20.8439C2.70722 20.3982 2.48438 19.8586 2.48438 19.2249V4.7749C2.48438 4.13439 2.70722 3.58884 3.1529 3.13825C3.59857 2.68769 4.13823 2.4624 4.77188 2.4624H19.2219C19.8624 2.4624 20.4079 2.68769 20.8585 3.13825C21.3091 3.58884 21.5344 4.13439 21.5344 4.7749V19.2249C21.5344 19.8586 21.3091 20.3982 20.8585 20.8439C20.4079 21.2896 19.8624 21.5124 19.2219 21.5124H4.77188ZM4.77188 19.2249H19.2219V4.7749H4.77188V19.2249ZM5.67188 17.2624H18.3594L14.4219 11.8499L11.1469 16.0874L8.84688 12.9624L5.67188 17.2624Z" fill="#4D7BF1"/>
</g>
</g>
<defs>
<clipPath id="clip0_24_1200">
<rect width="24" height="24" fill="white"/>
</clipPath>
</defs>
</svg>
