<svg width="18" height="18" viewBox="0 0 18 18" fill="none" xmlns="http://www.w3.org/2000/svg">
<path d="M8.93739 17.5124C6.57767 17.5124 4.56719 16.6814 2.90594 15.0195C1.24469 13.3576 0.414062 11.3524 0.414062 9.00403C0.414062 6.65564 1.24469 4.64494 2.90594 2.97193C4.56719 1.29891 6.57823 0.462402 8.93906 0.462402C10.4391 0.462402 11.7653 0.766345 12.9177 1.37423C14.0701 1.98209 15.0605 2.83649 15.8891 3.9374V0.462402H17.6266V7.5999H10.4641V5.8874H14.5016C13.851 4.95352 13.0716 4.20129 12.1631 3.63073C11.2547 3.06018 10.1804 2.7749 8.94004 2.7749C7.19355 2.7749 5.71719 3.37748 4.51094 4.58263C3.30469 5.78778 2.70156 7.26069 2.70156 9.00138C2.70156 10.7421 3.30371 12.2145 4.50801 13.4187C5.71233 14.6228 7.18817 15.2249 8.93554 15.2249C10.2234 15.2249 11.4168 14.8541 12.5157 14.1124C13.6146 13.3707 14.399 12.3874 14.8688 11.1624H17.2266C16.7349 13.0457 15.7203 14.5749 14.1829 15.7499C12.6455 16.9249 10.897 17.5124 8.93739 17.5124Z" fill="#4D7BF1"/>
</svg>
