<svg width="24" height="24" viewBox="0 0 24 24" fill="none" xmlns="http://www.w3.org/2000/svg">
<g clip-path="url(#clip0_8191_86648)">
<mask id="mask0_8191_86648" style="mask-type:alpha" maskUnits="userSpaceOnUse" x="0" y="0" width="24" height="24">
<rect width="24" height="24" fill="#D9D9D9"/>
</mask>
<g mask="url(#mask0_8191_86648)">
<path d="M11.9374 20.5129C9.57767 20.5129 7.56719 19.6819 5.90594 18.02C4.24469 16.3581 3.41406 14.3529 3.41406 12.0045C3.41406 9.65613 4.24469 7.64543 5.90594 5.97242C7.56719 4.2994 9.57823 3.46289 11.9391 3.46289C13.4391 3.46289 14.7653 3.76683 15.9177 4.37472C17.0701 4.98258 18.0605 5.83697 18.8891 6.93789V3.46289H20.6266V10.6004H13.4641V8.88789H17.5016C16.851 7.95401 16.0716 7.20178 15.1631 6.63122C14.2547 6.06067 13.1804 5.77539 11.94 5.77539C10.1936 5.77539 8.71719 6.37797 7.51094 7.58312C6.30469 8.78827 5.70156 10.2612 5.70156 12.0019C5.70156 13.7425 6.30371 15.215 7.50801 16.4191C8.71233 17.6233 10.1882 18.2254 11.9355 18.2254C13.2234 18.2254 14.4168 17.8546 15.5157 17.1129C16.6146 16.3712 17.399 15.3879 17.8688 14.1629H20.2266C19.7349 16.0462 18.7203 17.5754 17.1829 18.7504C15.6455 19.9254 13.897 20.5129 11.9374 20.5129Z" fill="#4D7BF1"/>
</g>
</g>
<defs>
<clipPath id="clip0_8191_86648">
<rect width="24" height="24" fill="white"/>
</clipPath>
</defs>
</svg>
