<svg width="32" height="32" viewBox="0 0 32 32" fill="none" xmlns="http://www.w3.org/2000/svg">
<mask id="mask0_6468_103159" style="mask-type:alpha" maskUnits="userSpaceOnUse" x="0" y="0" width="32" height="32">
<rect width="32" height="32" transform="matrix(-1 0 0 1 32 0)" fill="#D9D9D9"/>
</mask>
<g mask="url(#mask0_6468_103159)">
<path d="M27.8633 27.1143V6.11754C27.8633 5.55139 27.6701 5.07515 27.2838 4.68884C26.8975 4.30253 26.4219 4.10938 25.8571 4.10938H6.14131C5.57652 4.10938 5.10096 4.30253 4.71465 4.68884C4.32831 5.07515 4.13515 5.5508 4.13515 6.11578V21.0849C4.13515 21.6499 4.32831 22.1255 4.71465 22.5118C5.10096 22.8982 5.5765 23.0913 6.14128 23.0913H23.8402L27.8633 27.1143ZM19.3338 18.308L15.9984 16.3272L12.6582 18.308L13.571 14.5888L10.6377 12.0862L14.4851 11.7309L15.9992 8.24654L17.5115 11.7309L21.3543 12.0862L18.4274 14.5888L19.3338 18.308Z" fill="white"/>
</g>
</svg>
