<svg width="21" height="20" viewBox="0 0 21 20" fill="none" xmlns="http://www.w3.org/2000/svg">
<path d="M4.74844 19.8625C3.47344 19.8625 2.3776 19.4041 1.46094 18.4875C0.544271 17.5708 0.0859375 16.475 0.0859375 15.2C0.0859375 13.925 0.544271 12.8291 1.46094 11.9125C2.3776 10.9958 3.47344 10.5375 4.74844 10.5375C6.02344 10.5375 7.11927 10.9958 8.03594 11.9125C8.9526 12.8291 9.41094 13.925 9.41094 15.2C9.41094 16.475 8.9526 17.5708 8.03594 18.4875C7.11927 19.4041 6.02344 19.8625 4.74844 19.8625ZM18.9484 19.575L12.3734 13C12.0734 13.2666 11.7276 13.5104 11.3359 13.7312C10.9443 13.9521 10.5734 14.1375 10.2234 14.2875C10.2151 13.7375 10.1693 13.2521 10.0859 12.8312C10.0026 12.4104 9.88594 12.0375 9.73594 11.7125C10.6276 11.4041 11.3693 10.8771 11.9609 10.1312C12.5526 9.38539 12.8484 8.47498 12.8484 7.39998C12.8484 6.14998 12.4234 5.09581 11.5734 4.23748C10.7234 3.37914 9.67344 2.94998 8.42344 2.94998C7.18177 2.94998 6.12552 3.37914 5.25469 4.23748C4.38385 5.09581 3.94844 6.14998 3.94844 7.39998C3.94844 7.69164 3.97344 8.00414 4.02344 8.33748C4.07344 8.67081 4.1526 8.92914 4.26094 9.11248C3.91094 9.14581 3.53177 9.22081 3.12344 9.33748C2.7151 9.45414 2.36094 9.59581 2.06094 9.76248C1.91927 9.42914 1.81719 9.04373 1.75469 8.60623C1.69219 8.16873 1.66094 7.76664 1.66094 7.39998C1.66094 5.52498 2.31927 3.93331 3.63594 2.62498C4.9526 1.31664 6.54844 0.662476 8.42344 0.662476C10.2818 0.662476 11.8651 1.32081 13.1734 2.63748C14.4818 3.95414 15.1359 5.54164 15.1359 7.39998C15.1359 8.11664 15.0255 8.82081 14.8047 9.51248C14.5839 10.2041 14.2818 10.7916 13.8984 11.275L20.6109 17.9125L18.9484 19.575ZM3.89844 17.925L5.32344 16.475L6.16094 17.3125L7.41094 16.05L5.98594 14.65L6.88594 13.75L5.63594 12.4875L4.18594 13.9375L3.29844 13.0625L2.04844 14.3125L3.52344 15.7625L2.63594 16.65L3.89844 17.925Z" fill="#4D7BF1"/>
</svg>
