<svg width="20" height="20" viewBox="0 0 20 20" fill="none" xmlns="http://www.w3.org/2000/svg">
<path d="M17.8141 19.5625L11.1396 12.9125C10.6642 13.3029 10.0977 13.6026 9.44009 13.8116C8.78244 14.0205 8.07925 14.125 7.33051 14.125C5.4345 14.125 3.82859 13.4669 2.51279 12.1506C1.19697 10.8343 0.539062 9.24682 0.539062 7.3881C0.539062 5.52938 1.19493 3.94169 2.50666 2.62502C3.8184 1.30836 5.41006 0.650024 7.28166 0.650024C9.15326 0.650024 10.7432 1.30842 12.0516 2.6252C13.3599 3.94197 14.0141 5.53132 14.0141 7.39325C14.0141 8.1311 13.9099 8.81878 13.7016 9.45627C13.4932 10.0938 13.1849 10.6939 12.7766 11.2567L19.4766 17.9L17.8141 19.5625ZM7.31039 11.8375C8.55034 11.8375 9.59635 11.4058 10.4484 10.5423C11.3005 9.67882 11.7266 8.62673 11.7266 7.38605C11.7266 6.14537 11.2993 5.09377 10.4448 4.23127C9.59023 3.36877 8.54335 2.93752 7.30414 2.93752C6.05104 2.93752 4.9915 3.36927 4.12551 4.23275C3.25955 5.09623 2.82656 6.14832 2.82656 7.389C2.82656 8.62968 3.25867 9.68127 4.12289 10.5438C4.9871 11.4063 6.0496 11.8375 7.31039 11.8375Z" fill="#4D7BF1"/>
</svg>
