<svg width="22" height="22" viewBox="0 0 22 22" fill="none" xmlns="http://www.w3.org/2000/svg">
<path d="M8.225 21.5L7.7 18.1875C7.575 18.1625 7.36875 18.0688 7.08125 17.9063C6.79375 17.7438 6.50833 17.5667 6.225 17.375L3.15 18.8L0.3125 13.775L3.1375 11.725C3.12083 11.6254 3.10833 11.5089 3.1 11.3753C3.09167 11.2418 3.0875 11.1167 3.0875 11C3.0875 10.9084 3.09167 10.7896 3.1 10.6438C3.10833 10.4979 3.12083 10.3667 3.1375 10.25L0.3125 8.17502L3.15 3.21252L6.3 4.62502C6.45 4.50002 6.66042 4.36044 6.93125 4.20627C7.20208 4.05211 7.45833 3.93752 7.7 3.86252L8.225 0.462524H13.7875L14.3125 3.82502C14.5292 3.90836 14.7771 4.02502 15.0563 4.17502C15.3354 4.32502 15.5667 4.47502 15.75 4.62502L18.8875 3.21252L21.7 8.17502L18.8125 10.226C18.8208 10.342 18.8354 10.4688 18.8563 10.6063C18.8771 10.7438 18.8875 10.875 18.8875 11C18.8875 11.125 18.8771 11.2536 18.8563 11.3856C18.8354 11.5177 18.8208 11.6399 18.8125 11.7521L21.6875 13.775L18.85 18.8L15.725 17.3625C15.5588 17.5103 15.3485 17.6618 15.0941 17.8171C14.8397 17.9724 14.5792 18.0959 14.3125 18.1875L13.7875 21.5H8.225ZM10.9308 14.1875C11.8109 14.1875 12.5612 13.8769 13.1817 13.2556C13.8022 12.6344 14.1125 11.8823 14.1125 10.9994C14.1125 10.1165 13.8019 9.36461 13.1808 8.74377C12.5597 8.12294 11.8077 7.81252 10.925 7.81252C10.0333 7.81252 9.27917 8.12315 8.6625 8.7444C8.04583 9.36567 7.7375 10.1177 7.7375 11.0006C7.7375 11.8836 8.04583 12.6354 8.6625 13.2563C9.27917 13.8771 10.0353 14.1875 10.9308 14.1875ZM10.925 12.75C10.4167 12.75 9.99792 12.5792 9.66875 12.2375C9.33958 11.8959 9.175 11.4834 9.175 11C9.175 10.5167 9.33958 10.1042 9.66875 9.76252C9.99792 9.42086 10.4167 9.25002 10.925 9.25002C11.4083 9.25002 11.8208 9.42086 12.1625 9.76252C12.5042 10.1042 12.675 10.5167 12.675 11C12.675 11.4834 12.5042 11.8959 12.1625 12.2375C11.8208 12.5792 11.4083 12.75 10.925 12.75ZM10.1087 19.2125H11.8609L12.25 16.425C12.8097 16.2906 13.3396 16.0869 13.8396 15.8139C14.3396 15.541 14.7889 15.178 15.1875 14.725L17.85 15.8875L18.6125 14.4311L16.3 12.75C16.3583 12.45 16.4146 12.1566 16.4688 11.8698C16.5229 11.583 16.55 11.2921 16.55 10.9971C16.55 10.699 16.5292 10.4084 16.4875 10.125C16.4458 9.84169 16.3833 9.55002 16.3 9.25002L18.6375 7.56252L17.8625 6.10002L15.2125 7.26252C14.8375 6.81252 14.3938 6.42919 13.8813 6.11252C13.3688 5.79586 12.825 5.60419 12.25 5.53752L11.9 2.77502H10.1L9.7875 5.5384C9.17083 5.64615 8.6125 5.84586 8.1125 6.13752C7.6125 6.42919 7.15417 6.80419 6.7375 7.26252L4.15 6.10002L3.35 7.56252L5.625 9.20002C5.55833 9.50836 5.5 9.81102 5.45 10.108C5.4 10.405 5.375 10.6979 5.375 10.9868C5.375 11.2873 5.39792 11.5896 5.44375 11.8938C5.48958 12.1979 5.54583 12.4959 5.6125 12.7875L3.35 14.425L4.14647 15.8875L6.7375 14.7375C7.1625 15.1792 7.63125 15.5438 8.14375 15.8313C8.65625 16.1188 9.20417 16.3292 9.7875 16.4625L10.1087 19.2125Z" fill="#4D7BF1"/>
</svg>
