<svg width="24" height="24" viewBox="0 0 24 24" fill="none" xmlns="http://www.w3.org/2000/svg">
<path fill-rule="evenodd" clip-rule="evenodd" d="M7.48269 1C8.70258 1 9.88702 1.33955 10.9064 1.96566C11.2693 1.92723 11.6347 1.90787 12.0011 1.90787C13.3495 1.90787 14.6846 2.17014 15.9304 2.67971C17.1761 3.18929 18.308 3.93618 19.2614 4.87775C20.2149 5.81931 20.9712 6.93712 21.4872 8.16733C22.0032 9.39755 22.2688 10.7161 22.2688 12.0477C22.2688 12.5209 22.2352 12.9924 22.1688 13.459C22.2948 13.6804 22.4075 13.9094 22.5064 14.145C22.8323 14.922 23 15.7548 23 16.5958C23 17.4368 22.8323 18.2696 22.5064 19.0466C22.1805 19.8236 21.7028 20.5296 21.1006 21.1243C20.4984 21.7189 19.7835 22.1907 18.9968 22.5125C18.21 22.8344 17.3667 23 16.5151 23C15.3485 23 14.2144 22.6896 13.2258 22.1151C12.8202 22.1632 12.4113 22.1875 12.0011 22.1875C10.6527 22.1875 9.31758 21.9252 8.07185 21.4156C6.82612 20.906 5.69422 20.1592 4.74078 19.2176C3.78734 18.276 3.03103 17.1582 2.51504 15.928C1.99904 14.6978 1.73346 13.3792 1.73346 12.0477C1.73346 11.5491 1.77069 11.0523 1.84436 10.5614C1.29572 9.60639 1 8.51925 1 7.402C1 5.70408 1.683 4.07571 2.89874 2.8751C4.11448 1.67449 5.76337 1 7.48269 1ZM8.10217 10.6382C8.35274 11.0632 8.69898 11.4251 9.11391 11.6957C9.66366 12.0521 10.2481 12.353 10.8584 12.594C11.5408 12.8766 12.0702 13.1161 12.4467 13.3127C12.765 13.4678 13.0539 13.6762 13.3008 13.9287C13.4875 14.125 13.5913 14.3848 13.5909 14.6547C13.5989 14.845 13.5611 15.0344 13.4805 15.2073C13.3999 15.3803 13.279 15.5317 13.1276 15.6491C12.7232 15.9187 12.2394 16.0465 11.7532 16.0121C11.4782 16.0149 11.2039 15.9868 10.9353 15.9285C10.7176 15.8811 10.5045 15.8143 10.2988 15.729C10.1187 15.6518 9.87278 15.5359 9.56094 15.3814C9.31016 15.2489 9.03101 15.1777 8.74681 15.1739C8.49174 15.1635 8.24242 15.2507 8.05036 15.4173C7.95876 15.5037 7.88716 15.6088 7.84052 15.7253C7.79388 15.8418 7.77331 15.9669 7.78022 16.092C7.77449 16.3292 7.84669 16.5619 7.98597 16.7549C8.15373 16.9656 8.37064 17.1327 8.61803 17.2419C9.58574 17.6574 10.6347 17.8541 11.6888 17.8175C12.4558 17.8328 13.2192 17.7096 13.9417 17.4538C14.5411 17.2429 15.0631 16.859 15.4404 16.3516C15.811 15.8157 15.9987 15.1763 15.9763 14.5271C15.9907 13.9968 15.8567 13.473 15.5892 13.0135C15.3175 12.5763 14.9515 12.2041 14.5175 11.9237C13.9679 11.5725 13.3849 11.2755 12.7768 11.0371C12.7117 11.0056 12.6445 10.9789 12.5754 10.9572C11.9523 10.702 11.4835 10.4972 11.1692 10.3427C10.8886 10.2123 10.6345 10.0321 10.4195 9.811C10.2385 9.62277 10.1387 9.37208 10.1412 9.11213C10.1325 8.91414 10.1777 8.71747 10.2719 8.54268C10.3662 8.36788 10.5061 8.22138 10.677 8.11847C11.0821 7.87918 11.5483 7.76102 12.0196 7.7782C12.3812 7.77445 12.7417 7.81885 13.0913 7.9102C13.4712 8.01873 13.8429 8.15351 14.2037 8.31353C14.3501 8.38084 14.5093 8.41635 14.6707 8.41767C14.788 8.42075 14.9046 8.39921 15.0129 8.35447C15.1212 8.30973 15.2187 8.2428 15.2991 8.15807C15.384 8.06612 15.4498 7.9585 15.4927 7.84135C15.5356 7.72421 15.5548 7.59983 15.5492 7.47533C15.553 7.23568 15.4686 7.00287 15.3117 6.82047C15.0987 6.59877 14.8345 6.43166 14.5419 6.33353C14.2233 6.21759 13.8938 6.13333 13.5583 6.082C13.0896 6.00582 12.6152 5.96976 12.1403 5.9742C11.4143 5.96994 10.6932 6.09028 10.0087 6.32987C9.37939 6.54038 8.81758 6.91233 8.38046 7.40787C7.95984 7.90132 7.73746 8.53102 7.7558 9.17667C7.74087 9.68542 7.86026 10.1892 8.10217 10.6382Z" fill="#4D7BF1"/>
</svg>
