<svg width="24" height="24" viewBox="0 0 24 24" fill="none" xmlns="http://www.w3.org/2000/svg">
<path d="M1 11.5C1 10.6716 1.67157 10 2.5 10C3.32843 10 4 10.6716 4 11.5V14.5C4 15.3284 3.32843 16 2.5 16C1.67157 16 1 15.3284 1 14.5V11.5Z" fill="#4D7BF1"/>
<path d="M20 11.5C20 10.6716 20.6716 10 21.5 10C22.3284 10 23 10.6716 23 11.5V14.5C23 15.3284 22.3284 16 21.5 16C20.6716 16 20 15.3284 20 14.5V11.5Z" fill="#4D7BF1"/>
<path fill-rule="evenodd" clip-rule="evenodd" d="M12 4C8.13401 4 5 7.13401 5 11V16C5 18.2091 6.79086 20 9 20H15C17.2091 20 19 18.2091 19 16V11C19 7.13401 15.866 4 12 4ZM12 6C9.23858 6 7 8.23858 7 11V11.3333C7 12.8061 8.19391 14 9.66667 14H14.3333C15.8061 14 17 12.8061 17 11.3333V11C17 8.23858 14.7614 6 12 6Z" fill="#4D7BF1"/>
</svg>
