<svg width="22" height="22" viewBox="0 0 22 22" fill="none" xmlns="http://www.w3.org/2000/svg">
<path d="M7.6621 5.88309C7.8563 5.89103 8.07114 5.90013 8.27527 6.35387C8.41477 6.66406 8.64949 7.24234 8.83655 7.70319C8.97439 8.04278 9.08634 8.3186 9.11525 8.37641C9.18337 8.51267 9.22876 8.67178 9.13794 8.85373C9.12434 8.88093 9.11177 8.9066 9.09975 8.93112C9.03149 9.07045 8.98133 9.17281 8.86574 9.3081C8.82043 9.361 8.7736 9.41797 8.72675 9.47495C8.6327 9.58935 8.53863 9.70377 8.45696 9.78527C8.32028 9.92111 8.17833 10.0687 8.33728 10.3412C8.49628 10.614 9.04314 11.5059 9.85316 12.2281C10.7233 13.0039 11.4793 13.3321 11.8631 13.4988C11.9385 13.5315 11.9996 13.558 12.0443 13.5804C12.3168 13.7167 12.4758 13.694 12.6347 13.5119C12.7937 13.3302 13.3156 12.7166 13.4973 12.4441C13.679 12.1713 13.8606 12.2167 14.1104 12.3076C14.3602 12.3984 15.6998 13.0577 15.9723 13.1939C16.0255 13.2205 16.0751 13.2445 16.1212 13.2667C16.3114 13.3585 16.4398 13.4204 16.4946 13.5119C16.5628 13.6259 16.5628 14.1711 16.3357 14.8073C16.1086 15.4436 14.9961 16.0572 14.4965 16.1026C14.4484 16.107 14.4006 16.1126 14.3515 16.1184C13.8898 16.1727 13.307 16.2412 11.2268 15.4209C8.66712 14.4115 6.97938 11.91 6.6307 11.3932C6.60211 11.3509 6.58252 11.3218 6.5722 11.3081L6.56916 11.304C6.42224 11.1076 5.45959 9.82116 5.45959 8.48998C5.45959 7.23516 6.0764 6.57739 6.36019 6.27476C6.37958 6.25408 6.39742 6.23505 6.4134 6.21761C6.66302 5.94494 6.95828 5.87671 7.13992 5.87671C7.14988 5.87671 7.15984 5.87671 7.16979 5.8767C7.34134 5.87668 7.51202 5.87666 7.6621 5.88309Z" fill="#4D7BF1"/>
<path fill-rule="evenodd" clip-rule="evenodd" d="M1.562 16.346C0.594001 14.696 0.0880002 12.826 0.0880002 10.89C0.0880002 4.884 4.994 0 11 0C13.926 0 16.654 1.144 18.722 3.19C20.768 5.258 21.912 7.986 21.912 10.912C21.912 16.918 17.006 21.802 11 21.802C9.174 21.802 7.37 21.362 5.786 20.482L0 22L1.562 16.346ZM3.322 15.73L3.542 16.06L2.618 19.404L6.05 18.502L6.38 18.7C7.766 19.536 9.372 19.976 11 19.976C15.994 19.976 20.064 15.906 20.064 10.912C20.064 8.492 19.118 6.204 17.402 4.488C15.708 2.794 13.42 1.848 11 1.848C6.006 1.848 1.936 5.896 1.936 10.912C1.936 12.606 2.42 14.278 3.322 15.73Z" fill="#4D7BF1"/>
</svg>
