<svg width="24" height="24" viewBox="0 0 24 24" fill="none" xmlns="http://www.w3.org/2000/svg">
<path d="M14.85 9.66937C14.8578 9.83682 14.7329 9.97913 14.5711 9.98722C14.4092 9.99531 14.2716 9.86613 14.2638 9.69868C14.2153 8.66129 13.7495 8.16361 12.7867 8.11069C12.6248 8.1018 12.5006 7.95888 12.5092 7.79147C12.5178 7.62406 12.656 7.49555 12.8178 7.50445C14.0849 7.57408 14.7871 8.32437 14.85 9.66937Z" fill="#4D7BF1"/>
<path d="M16.0542 10.5097C16.2162 10.5135 16.3506 10.3808 16.3542 10.2132C16.3803 9.02668 16.0368 8.02491 15.3231 7.22053C14.6082 6.41472 13.6221 5.96853 12.3739 5.87684C12.2123 5.86497 12.0719 5.99091 12.0604 6.15813C12.049 6.32536 12.1707 6.47054 12.3323 6.48242C13.4379 6.56363 14.283 6.94599 14.8908 7.63106C15.4992 8.31673 15.7903 9.1657 15.7675 10.1994C15.7639 10.367 15.8922 10.5059 16.0542 10.5097Z" fill="#4D7BF1"/>
<path d="M17.8966 10.8271C17.8978 10.9947 17.7674 11.1316 17.6054 11.1329C17.4433 11.1341 17.311 10.9993 17.3098 10.8316C17.2964 8.98439 16.7694 7.5485 15.7308 6.49786C14.6885 5.44698 13.3928 4.91596 11.836 4.90566C11.6739 4.90458 11.5434 4.76781 11.5444 4.60017C11.5455 4.43253 11.6777 4.2975 11.8397 4.29857C13.5458 4.30986 14.9875 4.90074 16.1407 6.06344C17.298 7.23405 17.8821 8.82572 17.8966 10.8271Z" fill="#4D7BF1"/>
<path d="M13.495 13.5018C13.2757 13.7863 12.8614 13.7503 12.8614 13.7503C9.84645 12.9543 9.03874 9.79568 9.03874 9.79568C9.03874 9.79568 9.00393 9.37068 9.27897 9.14018L9.82208 8.69357C10.0936 8.47748 10.2642 7.95524 9.98919 7.44381C9.836 7.15928 9.52963 6.65144 9.30334 6.3309C9.06312 5.99234 8.50608 5.30083 8.5026 5.29723C8.23452 4.96588 7.83764 4.89024 7.41986 5.11354C7.41986 5.11354 7.41638 5.11715 7.41289 5.11715C7.01601 5.34765 6.64697 5.65739 6.3023 6.04997L6.29534 6.05717C6.03771 6.37772 5.88801 6.69466 5.85319 7.00441C5.84623 7.04042 5.84275 7.08724 5.84623 7.14127C5.84275 7.27813 5.86364 7.41139 5.90541 7.54465L5.91934 7.55546C6.04815 8.03447 6.37541 8.83044 7.08215 10.1594C7.54171 11.0202 8.01171 11.7406 8.47823 12.3456C8.72193 12.6662 9.00045 12.9939 9.32074 13.3289L9.44608 13.4585C9.76986 13.7899 10.0867 14.078 10.3965 14.3301C10.9814 14.8128 11.6742 15.299 12.5098 15.7744C13.7944 16.5055 14.5639 16.8441 15.0269 16.9773L15.0373 16.9917C15.1661 17.035 15.295 17.053 15.4273 17.053C15.4795 17.0566 15.5247 17.053 15.5596 17.0458C15.859 17.0098 16.1653 16.8549 16.4752 16.5884L16.4821 16.5812C16.8616 16.2246 17.161 15.8392 17.3839 15.4322C17.3839 15.4322 17.3873 15.4286 17.3873 15.425C17.6032 14.9928 17.5301 14.5823 17.2098 14.3049C17.2098 14.3049 16.5379 13.7251 16.2106 13.4765C15.9042 13.2424 15.4099 12.9291 15.1348 12.767C14.6404 12.4825 14.1356 12.659 13.9267 12.9399L13.495 13.5018Z" fill="#4D7BF1"/>
<path fill-rule="evenodd" clip-rule="evenodd" d="M12.4227 0.0172273C17.6101 0.0424387 19.9393 1.79283 20.5172 2.34028C22.4285 4.05827 23.4904 7.8688 22.7767 13.8871C22.1488 19.2047 18.5635 20.148 17.3608 20.4645C17.243 20.4955 17.148 20.5205 17.081 20.543C16.7572 20.651 13.8919 21.393 10.1702 21.0688C9.75941 21.5622 9.21282 22.2105 8.81941 22.6499C8.70056 22.7824 8.58928 22.9132 8.48294 23.0382C7.9445 23.671 7.53257 24.1552 6.9046 23.9537C6.28141 23.7556 6.31623 22.776 6.31623 22.776L6.31971 20.3593H6.31623C0.871195 18.7746 0.951269 12.9363 1.01394 9.81729C1.07312 6.69827 1.65801 4.18432 3.31867 2.46634C6.3023 -0.364547 12.4227 0.0172273 12.4227 0.0172273ZM16.7431 18.7811C17.7653 18.5357 20.6202 17.8503 21.1473 13.4549C21.7496 8.42705 20.9245 4.99469 19.3091 3.55764C18.8217 3.10023 16.7189 1.73521 12.3287 1.7136C12.3287 1.7136 7.13089 1.36064 4.60682 3.72331C3.20379 5.15676 2.7303 7.28893 2.67808 9.89292L2.67239 10.1582C2.61347 12.8211 2.50963 17.5144 6.9603 18.7926C6.9603 18.7926 6.94289 22.4842 6.93941 22.8084C6.93941 23.0353 6.97423 23.1902 7.09956 23.2226C7.19008 23.2478 7.32586 23.1974 7.44074 23.0785C8.17534 22.3114 10.5323 19.3724 10.5323 19.3724C13.6935 19.5885 16.2071 18.9402 16.4787 18.8502C16.5412 18.8296 16.6312 18.808 16.7431 18.7811Z" fill="#4D7BF1"/>
</svg>
