<svg width="22" height="24" viewBox="0 0 22 24" fill="none" xmlns="http://www.w3.org/2000/svg">
<path d="M13.85 9.66937C13.8578 9.83682 13.7329 9.97913 13.5711 9.98722C13.4092 9.99531 13.2716 9.86613 13.2638 9.69868C13.2153 8.66129 12.7495 8.16361 11.7867 8.11069C11.6248 8.1018 11.5006 7.95888 11.5092 7.79147C11.5178 7.62406 11.656 7.49555 11.8178 7.50445C13.0849 7.57408 13.7871 8.32437 13.85 9.66937Z" fill="#4D7BF1"/>
<path d="M15.0542 10.5097C15.2162 10.5135 15.3506 10.3808 15.3542 10.2132C15.3803 9.02668 15.0368 8.02491 14.3231 7.22053C13.6082 6.41472 12.6221 5.96853 11.3739 5.87684C11.2123 5.86497 11.0719 5.99091 11.0604 6.15813C11.049 6.32536 11.1707 6.47054 11.3323 6.48242C12.4379 6.56363 13.283 6.94599 13.8908 7.63106C14.4992 8.31673 14.7903 9.1657 14.7675 10.1994C14.7639 10.367 14.8922 10.5059 15.0542 10.5097Z" fill="#4D7BF1"/>
<path d="M16.8966 10.8271C16.8978 10.9947 16.7674 11.1316 16.6054 11.1329C16.4433 11.1341 16.311 10.9993 16.3098 10.8316C16.2964 8.98439 15.7694 7.5485 14.7308 6.49786C13.6885 5.44698 12.3928 4.91596 10.836 4.90566C10.6739 4.90458 10.5434 4.76781 10.5444 4.60017C10.5455 4.43253 10.6777 4.2975 10.8397 4.29857C12.5458 4.30986 13.9875 4.90074 15.1407 6.06344C16.298 7.23405 16.8821 8.82572 16.8966 10.8271Z" fill="#4D7BF1"/>
<path d="M12.495 13.5018C12.2757 13.7863 11.8614 13.7503 11.8614 13.7503C8.84645 12.9543 8.03874 9.79568 8.03874 9.79568C8.03874 9.79568 8.00393 9.37068 8.27897 9.14018L8.82208 8.69357C9.09363 8.47748 9.26423 7.95524 8.98919 7.44381C8.836 7.15928 8.52963 6.65144 8.30334 6.3309C8.06312 5.99234 7.50608 5.30083 7.5026 5.29723C7.23452 4.96588 6.83764 4.89024 6.41986 5.11354C6.41986 5.11354 6.41638 5.11715 6.41289 5.11715C6.01601 5.34765 5.64697 5.65739 5.3023 6.04997L5.29534 6.05717C5.03771 6.37772 4.88801 6.69466 4.85319 7.00441C4.84623 7.04042 4.84275 7.08724 4.84623 7.14127C4.84275 7.27813 4.86364 7.41139 4.90541 7.54465L4.91934 7.55546C5.04815 8.03447 5.37541 8.83044 6.08215 10.1594C6.54171 11.0202 7.01171 11.7406 7.47823 12.3456C7.72193 12.6662 8.00045 12.9939 8.32074 13.3289L8.44608 13.4585C8.76986 13.7899 9.08667 14.078 9.39652 14.3301C9.98141 14.8128 10.6742 15.299 11.5098 15.7744C12.7944 16.5055 13.5639 16.8441 14.0269 16.9773L14.0373 16.9917C14.1661 17.035 14.295 17.053 14.4273 17.053C14.4795 17.0566 14.5247 17.053 14.5596 17.0458C14.859 17.0098 15.1653 16.8549 15.4752 16.5884L15.4821 16.5812C15.8616 16.2246 16.161 15.8392 16.3839 15.4322C16.3839 15.4322 16.3873 15.4286 16.3873 15.425C16.6032 14.9928 16.5301 14.5823 16.2098 14.3049C16.2098 14.3049 15.5379 13.7251 15.2106 13.4765C14.9042 13.2424 14.4099 12.9291 14.1348 12.767C13.6404 12.4825 13.1356 12.659 12.9267 12.9399L12.495 13.5018Z" fill="#4D7BF1"/>
<path fill-rule="evenodd" clip-rule="evenodd" d="M11.4227 0.0172273C16.6101 0.0424387 18.9393 1.79283 19.5172 2.34028C21.4285 4.05827 22.4904 7.8688 21.7767 13.8871C21.1488 19.2047 17.5635 20.148 16.3608 20.4645C16.243 20.4955 16.148 20.5205 16.081 20.543C15.7572 20.651 12.8919 21.393 9.17023 21.0688C8.75941 21.5622 8.21282 22.2105 7.81941 22.6499C7.70056 22.7824 7.58928 22.9132 7.48294 23.0382C6.9445 23.671 6.53257 24.1552 5.9046 23.9537C5.28141 23.7556 5.31623 22.776 5.31623 22.776L5.31971 20.3593H5.31623C-0.128805 18.7746 -0.0487314 12.9363 0.0139352 9.81729C0.0731203 6.69827 0.658009 4.18432 2.31867 2.46634C5.3023 -0.364547 11.4227 0.0172273 11.4227 0.0172273ZM15.7431 18.7811C16.7653 18.5357 19.6202 17.8503 20.1473 13.4549C20.7496 8.42705 19.9245 4.99469 18.3091 3.55764C17.8217 3.10023 15.7189 1.73521 11.3287 1.7136C11.3287 1.7136 6.13089 1.36064 3.60682 3.72331C2.20379 5.15676 1.7303 7.28893 1.67808 9.89292L1.67239 10.1582C1.61347 12.8211 1.50963 17.5144 5.9603 18.7926C5.9603 18.7926 5.94289 22.4842 5.93941 22.8084C5.93941 23.0353 5.97423 23.1902 6.09956 23.2226C6.19008 23.2478 6.32586 23.1974 6.44074 23.0785C7.17534 22.3114 9.5323 19.3724 9.5323 19.3724C12.6935 19.5885 15.2071 18.9402 15.4787 18.8502C15.5412 18.8296 15.6312 18.808 15.7431 18.7811Z" fill="#4D7BF1"/>
</svg>
