<svg width="24" height="17" viewBox="0 0 24 17" fill="none" xmlns="http://www.w3.org/2000/svg">
<path d="M12.003 12.675C13.1635 12.675 14.149 12.2688 14.9594 11.4564C15.7698 10.6441 16.175 9.65762 16.175 8.49707C16.175 7.33654 15.7688 6.35107 14.9564 5.54065C14.1441 4.73023 13.1576 4.32502 11.9971 4.32502C10.8365 4.32502 9.85104 4.73122 9.04063 5.5436C8.23021 6.35597 7.825 7.34242 7.825 8.50297C7.825 9.66351 8.23119 10.649 9.04358 11.4594C9.85594 12.2698 10.8424 12.675 12.003 12.675ZM12.0015 10.875C11.3422 10.875 10.7812 10.6443 10.3188 10.1827C9.85625 9.72123 9.625 9.16082 9.625 8.5015C9.625 7.84218 9.85576 7.28127 10.3173 6.81877C10.7788 6.35627 11.3392 6.12502 11.9985 6.12502C12.6578 6.12502 13.2188 6.35578 13.6813 6.8173C14.1438 7.27882 14.375 7.83923 14.375 8.49855C14.375 9.15787 14.1442 9.71877 13.6827 10.1813C13.2212 10.6438 12.6608 10.875 12.0015 10.875ZM12 16.475C9.46667 16.475 7.17917 15.7334 5.1375 14.25C3.09583 12.7667 1.57083 10.85 0.5625 8.50002C1.57083 6.15002 3.09583 4.23336 5.1375 2.75002C7.17917 1.26669 9.46667 0.525024 12 0.525024C14.5333 0.525024 16.8208 1.26669 18.8625 2.75002C20.9042 4.23336 22.4292 6.15002 23.4375 8.50002C22.4292 10.85 20.9042 12.7667 18.8625 14.25C16.8208 15.7334 14.5333 16.475 12 16.475ZM11.998 14.4625C13.9972 14.4625 15.8307 13.9209 17.4984 12.8375C19.1661 11.7542 20.4375 10.3084 21.3125 8.50002C20.4375 6.69169 19.1668 5.24586 17.5004 4.16252C15.834 3.07919 14.0012 2.53752 12.002 2.53752C10.0028 2.53752 8.16929 3.07919 6.50157 4.16252C4.83386 5.24586 3.55417 6.69169 2.6625 8.50002C3.55417 10.3084 4.83319 11.7542 6.49958 12.8375C8.16598 13.9209 9.99878 14.4625 11.998 14.4625Z" fill="#4D7BF1"/>
</svg>
