<svg width="24" height="24" viewBox="0 0 24 24" fill="none" xmlns="http://www.w3.org/2000/svg">
<path fill-rule="evenodd" clip-rule="evenodd" d="M3.75663 14.6096C2.07062 13.3936 1 11.6011 1 9.62651C1 5.95936 4.55839 3 8.95181 3C12.9129 3 16.199 5.41469 16.7976 8.56627C16.7612 8.56599 16.7249 8.56549 16.6886 8.56499C16.582 8.56352 16.4761 8.56207 16.3735 8.56627C12.3626 8.56064 9.11744 11.2596 9.11084 14.6096C9.11744 15.1499 9.21177 15.6928 9.3759 16.2C9.23975 16.2151 9.09437 16.2188 8.95181 16.2C8.04096 16.2188 7.16526 16.0892 6.35422 15.8819C6.26106 15.8594 6.12099 15.8334 6.03708 15.8334C5.95316 15.8334 5.82883 15.8679 5.71807 15.9349L3.96867 16.9422C3.90955 16.9737 3.86248 16.9952 3.80964 16.9952C3.65849 16.9952 3.54014 16.8769 3.54458 16.7301C3.54172 16.6885 3.55526 16.6492 3.57122 16.603C3.58006 16.5774 3.58964 16.5496 3.59759 16.5181C3.60579 16.4856 3.63191 16.3757 3.66868 16.2212C3.73189 15.9554 3.82655 15.5575 3.91566 15.1928C3.93661 15.107 3.94727 15.0418 3.94722 14.9811C3.94727 14.8056 3.88081 14.701 3.75663 14.6096ZM5.18795 7.50602C5.18795 8.09171 5.66255 8.56627 6.24819 8.56627C6.83383 8.56627 7.30843 8.09171 7.30843 7.50602C7.30843 6.92053 6.83383 6.44578 6.24819 6.44578C5.66255 6.44578 5.18795 6.92053 5.18795 7.50602ZM10.4892 7.50602C10.4892 8.09171 10.9637 8.56627 11.5494 8.56627C12.1349 8.56627 12.6096 8.09171 12.6096 7.50602C12.6096 6.92053 12.1349 6.44578 11.5494 6.44578C10.9637 6.44578 10.4892 6.92053 10.4892 7.50602Z" fill="#4D7BF1"/>
<path fill-rule="evenodd" clip-rule="evenodd" d="M16.3735 9.09639C20.033 9.09639 23 11.5622 23 14.6096C23 16.2635 22.1072 17.7576 20.7205 18.7446C20.598 18.8473 20.5413 18.9648 20.5413 19.0742C20.5413 19.1836 20.5484 19.2169 20.5614 19.2747C20.6534 19.6829 20.831 20.3296 20.8465 20.3821C20.8491 20.3908 20.8518 20.3995 20.8546 20.4082C20.8681 20.4515 20.8817 20.4948 20.8795 20.547C20.8821 20.6604 20.7835 20.759 20.6675 20.759C20.6133 20.759 20.5743 20.7413 20.5084 20.706L19.0771 19.8578C19.0731 19.8557 19.069 19.8535 19.0649 19.8514C18.9671 19.7997 18.8551 19.7405 18.7271 19.7656C18.6004 19.7905 18.5978 19.7912 18.5543 19.8029L18.547 19.8048C17.8596 20.0042 17.1295 20.1119 16.3735 20.1229C12.7138 20.1119 9.74699 17.6461 9.74699 14.6096C9.74699 11.5622 12.7138 9.09639 16.3735 9.09639ZM13.2988 12.7815C13.2988 13.2758 13.6787 13.6554 14.1213 13.6554C14.6157 13.6554 14.9952 13.2758 14.9952 12.7815C14.9952 12.3389 14.6157 11.959 14.1213 11.959C13.6787 11.959 13.2988 12.3389 13.2988 12.7815ZM17.6988 12.7815C17.6988 13.2758 18.0787 13.6554 18.5213 13.6554C19.0157 13.6554 19.3952 13.2758 19.3952 12.7815C19.3952 12.3389 19.0157 11.959 18.5213 11.959C18.0787 11.959 17.6988 12.3389 17.6988 12.7815Z" fill="#4D7BF1"/>
</svg>
