<svg width="24" height="24" viewBox="0 0 24 24" fill="none" xmlns="http://www.w3.org/2000/svg">
<path d="M8.6621 6.88309C8.8563 6.89103 9.07114 6.90013 9.27527 7.35387C9.41477 7.66406 9.64949 8.24234 9.83655 8.70319C9.97439 9.04278 10.0863 9.3186 10.1152 9.37641C10.1834 9.51267 10.2288 9.67178 10.1379 9.85373C10.1243 9.88093 10.1118 9.9066 10.0998 9.93112C10.0315 10.0704 9.98133 10.1728 9.86574 10.3081C9.82043 10.361 9.7736 10.418 9.72675 10.4749C9.6327 10.5893 9.53863 10.7038 9.45696 10.7853C9.32028 10.9211 9.17833 11.0687 9.33728 11.3412C9.49628 11.614 10.0431 12.5059 10.8532 13.2281C11.7233 14.0039 12.4793 14.3321 12.8631 14.4988C12.9385 14.5315 12.9996 14.558 13.0443 14.5804C13.3168 14.7167 13.4758 14.694 13.6347 14.5119C13.7937 14.3302 14.3156 13.7166 14.4973 13.4441C14.679 13.1713 14.8606 13.2167 15.1104 13.3076C15.3602 13.3984 16.6998 14.0577 16.9723 14.1939C17.0255 14.2205 17.0751 14.2445 17.1212 14.2667C17.3114 14.3585 17.4398 14.4204 17.4946 14.5119C17.5628 14.6259 17.5628 15.1711 17.3357 15.8073C17.1086 16.4436 15.9961 17.0572 15.4965 17.1026C15.4484 17.107 15.4006 17.1126 15.3515 17.1184C14.8898 17.1727 14.307 17.2412 12.2268 16.4209C9.66712 15.4115 7.97938 12.91 7.6307 12.3932C7.60211 12.3509 7.58252 12.3218 7.5722 12.3081L7.56916 12.304C7.42224 12.1076 6.45959 10.8212 6.45959 9.48998C6.45959 8.23516 7.0764 7.57739 7.36019 7.27476C7.37958 7.25408 7.39742 7.23505 7.4134 7.21761C7.66302 6.94494 7.95828 6.87671 8.13992 6.87671C8.14988 6.87671 8.15984 6.87671 8.16979 6.8767C8.34134 6.87668 8.51202 6.87666 8.6621 6.88309Z" fill="#4D7BF1"/>
<path fill-rule="evenodd" clip-rule="evenodd" d="M2.562 17.346C1.594 15.696 1.088 13.826 1.088 11.89C1.088 5.884 5.994 1 12 1C14.926 1 17.654 2.144 19.722 4.19C21.768 6.258 22.912 8.986 22.912 11.912C22.912 17.918 18.006 22.802 12 22.802C10.174 22.802 8.37 22.362 6.786 21.482L1 23L2.562 17.346ZM4.322 16.73L4.542 17.06L3.618 20.404L7.05 19.502L7.38 19.7C8.766 20.536 10.372 20.976 12 20.976C16.994 20.976 21.064 16.906 21.064 11.912C21.064 9.492 20.118 7.204 18.402 5.488C16.708 3.794 14.42 2.848 12 2.848C7.006 2.848 2.936 6.896 2.936 11.912C2.936 13.606 3.42 15.278 4.322 16.73Z" fill="#4D7BF1"/>
</svg>
