<svg width="202" height="40" viewBox="0 0 202 40" fill="none" xmlns="http://www.w3.org/2000/svg">
<path d="M187.222 14.3168C187.201 14.3429 187.17 14.3834 187.129 14.4385C187.051 14.4298 186.973 14.4182 186.898 14.4066C186.919 14.4095 186.936 14.4095 186.956 14.4095C186.982 14.4095 187.008 14.4066 187.031 14.4009C187.04 14.4009 187.046 14.4008 187.054 14.3979C187.074 14.3922 187.095 14.3863 187.115 14.3777C187.161 14.3603 187.198 14.3371 187.222 14.3168Z" fill="#C49A6C"/>
<path d="M201.426 24.0318C200.956 20.1644 196.262 13.7978 195.737 13.4209C195.55 13.2876 195.27 12.5367 196.193 10.6841C196.825 9.41431 197.777 7.75889 198.287 6.88335C198.457 6.59343 198.431 6.23684 198.218 5.97591C198.007 5.71499 197.664 5.61642 197.347 5.72659C196.663 5.95852 195.679 6.25133 194.88 6.32091C194.309 6.3673 193.819 6.15856 193.25 5.91794C192.506 5.59903 191.664 5.23953 190.443 5.3526C189.431 5.44827 188.649 5.66281 187.96 5.85415C187.244 6.0513 186.627 6.21945 185.952 6.19046C184.397 6.11798 182.513 5.68021 182.262 5.45697C182.063 5.25983 181.821 5.28592 181.668 5.39608C181.29 5.6715 181.241 5.70629 184.134 11.522C184.59 12.4352 184.276 13.5021 183.171 14.7777C182.692 15.3315 178.506 20.2977 178.512 24.7914C178.517 29.5431 181.89 34.6659 189.278 34.6891H189.333C191.479 34.6891 194.592 34.2716 197.338 32.2973C199.522 30.7289 201.957 28.3719 201.426 24.0318ZM182.695 6.55285C183.687 6.83697 185.083 7.01961 185.911 7.0573C186.722 7.09499 187.434 6.90074 188.187 6.692C188.842 6.51226 189.587 6.30642 190.524 6.21945C191.528 6.12668 192.232 6.42529 192.91 6.7181C193.527 6.98193 194.168 7.25444 194.955 7.18486C195.769 7.11528 196.727 6.84567 197.445 6.60793C196.822 7.67772 195.997 9.1302 195.417 10.2957C195.238 10.6552 195.099 10.9799 194.993 11.2785C194.658 11.3567 193.977 11.5133 193.135 11.6583L194.341 9.47519L193.582 9.05482L192.05 11.8293C191.387 11.9221 190.68 11.9946 189.99 12.0206C189.488 12.0409 188.972 12.0177 188.473 11.9685L186.99 9.06641L186.22 9.46359L187.432 11.838C186.309 11.6611 185.375 11.406 184.982 11.2901C184.959 11.2379 184.936 11.1857 184.91 11.1335C183.774 8.84897 183.073 7.38491 182.695 6.55285ZM194.722 13.2325C193.83 13.3919 191.851 13.7109 189.999 13.7456C188.981 13.7659 187.913 13.6703 187.008 13.5456C186.162 13.4296 185.461 13.2934 185.075 13.2122C185.173 12.8846 185.213 12.5657 185.199 12.2555C186.128 12.5019 187.876 12.8962 189.613 12.8962C189.748 12.8962 189.887 12.8933 190.022 12.8904C191.848 12.8208 193.744 12.4526 194.736 12.2323C194.664 12.6411 194.673 12.9716 194.722 13.2325ZM196.836 31.5899C194.274 33.4309 191.352 33.8194 189.333 33.8194H189.278C181.472 33.7962 179.383 28.1341 179.377 24.7914C179.371 21.3994 182.17 17.2594 183.823 15.3489C184.212 14.8966 184.521 14.4588 184.743 14.0327C185 14.0877 185.502 14.1921 186.145 14.2965C185.929 14.598 185.637 15.0126 185.239 15.5895L185.952 16.0853C186.393 15.4445 186.895 14.74 187.126 14.4385C187.879 14.5342 188.73 14.6096 189.575 14.6154V16.2969H190.44V14.6038C191.24 14.5719 192.033 14.4965 192.745 14.4124L194.658 16.81L195.333 16.265L193.747 14.2762C194.361 14.1834 194.851 14.0964 195.128 14.0443C195.163 14.0761 195.198 14.1022 195.224 14.1225C195.757 14.5777 200.145 20.6804 200.569 24.1362C200.944 27.2093 199.828 29.4387 196.836 31.5899Z" fill="black"/>
<path d="M194.725 13.2325C193.834 13.392 191.855 13.7109 190.003 13.7457C188.984 13.766 187.917 13.6703 187.011 13.5456C186.166 13.4296 185.465 13.2934 185.078 13.2122C185.176 12.8846 185.217 12.5657 185.202 12.2555C186.131 12.5019 187.879 12.8962 189.616 12.8962C189.752 12.8962 189.89 12.8933 190.026 12.8904C191.852 12.8208 193.747 12.4526 194.739 12.2323C194.667 12.6411 194.676 12.9716 194.725 13.2325Z" fill="#C49A6C"/>
<path d="M197.445 6.60792C196.822 7.6777 195.997 9.13018 195.417 10.2956C195.239 10.6551 195.1 10.9798 194.993 11.2784C194.659 11.3567 193.978 11.5133 193.136 11.6582L194.341 9.47517L193.583 9.0548L192.051 11.8293C191.387 11.9221 190.681 11.9945 189.991 12.0206C189.489 12.0409 188.973 12.0177 188.474 11.9684L186.991 9.06639L186.221 9.46357L187.432 11.838C186.31 11.6611 185.375 11.406 184.983 11.29C184.96 11.2379 184.937 11.1857 184.911 11.1335C183.774 8.84896 183.073 7.38489 182.695 6.55283C183.688 6.83695 185.084 7.01959 185.912 7.05728C186.723 7.09497 187.435 6.90072 188.188 6.69199C188.843 6.51224 189.587 6.30641 190.525 6.21943C191.529 6.12666 192.233 6.42527 192.91 6.71809C193.528 6.98191 194.168 7.25442 194.956 7.18485C195.769 7.11527 196.727 6.84565 197.445 6.60792Z" fill="#C49A6C"/>
<path d="M191.966 22.1532C191.952 22.8808 191.513 23.1476 191.357 23.2171H188.672C188.675 22.1445 188.669 21.4835 188.66 21.1008C189.471 21.1008 190.501 21.1037 190.922 21.1153C191.412 21.1298 191.983 21.411 191.966 22.1532Z" fill="#C49A6C"/>
<path d="M190.993 24.1479C190.396 24.1305 189.257 24.1392 188.668 24.145C188.668 24.7451 188.662 25.4438 188.654 26.2498H191.273C191.388 26.2498 191.498 26.2179 191.576 26.1599C191.876 25.9483 192.032 25.6178 192.04 25.1858C192.055 24.4407 191.487 24.1624 190.993 24.1479ZM190.993 24.1479C190.396 24.1305 189.257 24.1392 188.668 24.145C188.668 24.7451 188.662 25.4438 188.654 26.2498H191.273C191.388 26.2498 191.498 26.2179 191.576 26.1599C191.876 25.9483 192.032 25.6178 192.04 25.1858C192.055 24.4407 191.487 24.1624 190.993 24.1479ZM190.993 24.1479C190.396 24.1305 189.257 24.1392 188.668 24.145C188.668 24.7451 188.662 25.4438 188.654 26.2498H191.273C191.388 26.2498 191.498 26.2179 191.576 26.1599C191.876 25.9483 192.032 25.6178 192.04 25.1858C192.055 24.4407 191.487 24.1624 190.993 24.1479ZM190.993 24.1479C190.396 24.1305 189.257 24.1392 188.668 24.145C188.668 24.7451 188.662 25.4438 188.654 26.2498H191.273C191.388 26.2498 191.498 26.2179 191.576 26.1599C191.876 25.9483 192.032 25.6178 192.04 25.1858C192.055 24.4407 191.487 24.1624 190.993 24.1479ZM190.993 24.1479C190.396 24.1305 189.257 24.1392 188.668 24.145C188.668 24.7451 188.662 25.4438 188.654 26.2498H191.273C191.388 26.2498 191.498 26.2179 191.576 26.1599C191.876 25.9483 192.032 25.6178 192.04 25.1858C192.055 24.4407 191.487 24.1624 190.993 24.1479ZM190.993 24.1479C190.396 24.1305 189.257 24.1392 188.668 24.145C188.668 24.7451 188.662 25.4438 188.654 26.2498H191.273C191.388 26.2498 191.498 26.2179 191.576 26.1599C191.876 25.9483 192.032 25.6178 192.04 25.1858C192.055 24.4407 191.487 24.1624 190.993 24.1479ZM200.571 24.1363C200.147 20.6805 195.759 14.5778 195.225 14.1226C195.199 14.1024 195.165 14.0763 195.13 14.0444C194.853 14.0966 194.363 14.1835 193.748 14.2763L195.335 16.2651L194.66 16.8102L192.747 14.4126C192.035 14.4966 191.241 14.572 190.442 14.6039V16.297H189.577V14.6155C188.732 14.6097 187.881 14.5343 187.128 14.4387C186.897 14.7402 186.395 15.4447 185.953 16.0854L185.241 15.5896C185.639 15.0127 185.93 14.5981 186.147 14.2966C185.503 14.1922 185.001 14.0879 184.745 14.0328C184.523 14.459 184.214 14.8967 183.824 15.349C182.171 17.2595 179.373 21.3995 179.379 24.7915C179.385 28.1343 181.473 33.7963 189.28 33.8195H189.334C191.354 33.8195 194.276 33.431 196.838 31.59C199.829 29.4389 200.946 27.2094 200.571 24.1363ZM188.146 20.2312H188.29V19.315H189.156V20.2341C189.375 20.2312 189.588 20.2312 189.793 20.2341V19.315H190.659V20.2399C190.771 20.2428 190.866 20.2428 190.944 20.2457C192.061 20.2775 192.854 21.0893 192.831 22.1707C192.816 22.9216 192.508 23.3941 192.199 23.6811C192.649 24.0232 192.917 24.5654 192.906 25.2032C192.886 26.1512 192.381 26.6557 192.078 26.8702C191.85 27.0326 191.57 27.1195 191.273 27.1195H190.659V27.9458H189.793V27.1195H189.156V27.9458H188.29V27.1195H187.113V26.2498H187.788C187.817 23.2405 187.805 21.7474 187.794 21.1009C187.257 21.1038 186.874 21.1038 186.874 21.1038V20.2341C186.874 20.2341 187.43 20.2341 188.146 20.2312ZM191.576 26.1599C191.876 25.9483 192.032 25.6178 192.04 25.1858C192.055 24.4407 191.487 24.1624 190.993 24.1479C190.396 24.1305 189.257 24.1392 188.668 24.145C188.668 24.7451 188.662 25.4438 188.654 26.2498H191.273C191.388 26.2498 191.498 26.2179 191.576 26.1599ZM190.993 24.1479C190.396 24.1305 189.257 24.1392 188.668 24.145C188.668 24.7451 188.662 25.4438 188.654 26.2498H191.273C191.388 26.2498 191.498 26.2179 191.576 26.1599C191.876 25.9483 192.032 25.6178 192.04 25.1858C192.055 24.4407 191.487 24.1624 190.993 24.1479ZM190.993 24.1479C190.396 24.1305 189.257 24.1392 188.668 24.145C188.668 24.7451 188.662 25.4438 188.654 26.2498H191.273C191.388 26.2498 191.498 26.2179 191.576 26.1599C191.876 25.9483 192.032 25.6178 192.04 25.1858C192.055 24.4407 191.487 24.1624 190.993 24.1479ZM190.993 24.1479C190.396 24.1305 189.257 24.1392 188.668 24.145C188.668 24.7451 188.662 25.4438 188.654 26.2498H191.273C191.388 26.2498 191.498 26.2179 191.576 26.1599C191.876 25.9483 192.032 25.6178 192.04 25.1858C192.055 24.4407 191.487 24.1624 190.993 24.1479ZM190.993 24.1479C190.396 24.1305 189.257 24.1392 188.668 24.145C188.668 24.7451 188.662 25.4438 188.654 26.2498H191.273C191.388 26.2498 191.498 26.2179 191.576 26.1599C191.876 25.9483 192.032 25.6178 192.04 25.1858C192.055 24.4407 191.487 24.1624 190.993 24.1479Z" fill="#C49A6C"/>
<path d="M0.5 11.2667C1.602 11.0464 3.83198 10.8782 5.92636 10.8782C8.48809 10.8782 10.0574 11.1276 11.4075 11.9306C12.7028 12.6235 13.6375 13.8963 13.6375 15.5836C13.6375 17.2709 12.674 18.7958 10.5796 19.5699V19.625C12.6999 20.2048 14.2693 21.8109 14.2693 24.2201C14.2693 25.9074 13.499 27.2381 12.3422 28.1775C10.9921 29.256 8.7333 29.8648 5.04361 29.8648C2.97807 29.8648 1.43468 29.7256 0.5 29.5894L0.5 11.2667ZM4.65992 18.4073H6.03599C8.24 18.4073 9.42278 17.4941 9.42278 16.1112C9.42278 14.7283 8.34962 13.9513 6.44852 13.9513C5.5398 13.9513 5.01764 14.0064 4.65704 14.0615V18.4073H4.65992ZM4.65992 26.6844C5.07245 26.7395 5.56864 26.7395 6.28408 26.7395C8.18518 26.7395 9.86415 25.9915 9.86415 24.0549C9.86415 22.1182 8.18518 21.4253 6.0908 21.4253H4.65992V26.6844Z" fill="black"/>
<path d="M21.3214 12.3741C21.3214 13.5367 20.4387 14.4789 19.0626 14.4789C17.6865 14.4789 16.8586 13.5367 16.8874 12.3741C16.8586 11.1565 17.7414 10.2432 19.0915 10.2432C20.4416 10.2432 21.2955 11.1565 21.3214 12.3741ZM16.9971 29.6733V16.1372H21.183V29.6733H16.9971Z" fill="black"/>
<path d="M29.2229 12.4584V16.1403H32.226V19.2395H29.2229V24.1391C29.2229 25.7713 29.6094 26.5193 30.8759 26.5193C31.4528 26.5193 31.7009 26.4903 32.1163 26.4091L32.1452 29.5924C31.5942 29.8127 30.6018 29.9808 29.419 29.9808C28.0689 29.9808 26.941 29.4822 26.2803 28.7893C25.5101 27.9862 25.1235 26.6845 25.1235 24.7769V19.2424H23.332V16.1432H25.1235V12.4613H29.2286L29.2229 12.4584Z" fill="black"/>
<path d="M44.6209 29.3401C43.8766 29.6735 42.4717 29.9779 40.8764 29.9779C36.526 29.9779 33.7422 27.2933 33.7422 23.0315C33.7422 19.0742 36.4424 15.8358 41.4533 15.8358C42.5553 15.8358 43.767 16.0301 44.6497 16.3606L43.9891 19.4887C43.4929 19.2684 42.7486 19.0742 41.6466 19.0742C39.4426 19.0742 38.0117 20.6513 38.0377 22.8663C38.0377 25.3566 39.6907 26.6584 41.7274 26.6584C42.7198 26.6584 43.49 26.4931 44.1247 26.2148L44.6209 29.343V29.3401Z" fill="black"/>
<path d="M59.9355 22.753C59.9355 27.7076 56.4391 29.9777 52.8301 29.9777C48.8923 29.9777 45.8633 27.3771 45.8633 23.0023C45.8633 18.6275 48.7279 15.8327 53.0523 15.8327C57.3766 15.8327 59.9384 18.6826 59.9384 22.753H59.9355ZM50.1848 22.8921C50.1848 25.2173 51.1483 26.9625 52.9398 26.9625C54.5639 26.9625 55.6111 25.3303 55.6111 22.8921C55.6111 20.8714 54.8409 18.8246 52.9398 18.8246C50.929 18.8246 50.1848 20.9004 50.1848 22.8921Z" fill="black"/>
<path d="M66.8488 12.3741C66.8488 13.5367 65.966 14.4789 64.59 14.4789C63.2139 14.4789 62.3859 13.5367 62.4148 12.3741C62.3859 11.1565 63.2687 10.2432 64.6188 10.2432C65.9689 10.2432 66.8228 11.1565 66.8488 12.3741ZM62.5244 29.6733V16.1372H66.7103V29.6733H62.5244Z" fill="black"/>
<path d="M70.0706 20.4571C70.0706 18.7698 70.0157 17.3289 69.9609 16.1402H73.5958L73.7891 17.9957H73.8728C74.4238 17.1375 75.7998 15.8358 78.0327 15.8358C80.7877 15.8358 82.8532 17.6623 82.8532 21.6486V29.6764H78.6674V22.1763C78.6674 20.431 78.0615 19.2423 76.547 19.2423C75.3902 19.2423 74.7007 20.0454 74.4267 20.8195C74.317 21.0978 74.2622 21.4834 74.2622 21.8719V29.6764H70.0763V20.46L70.0706 20.4571Z" fill="black"/>
<path d="M101.882 15.7342H101.799C101.222 18.1145 97.7629 25.89 97.7629 25.89H94.4857C94.4857 25.89 90.9749 18.1695 90.5335 15.7342H90.4787C90.3691 18.2536 90.6114 29.6734 90.6114 29.6734H86.5352L86.5409 11.0173H92.7087C92.7087 11.0173 95.6829 18.5406 96.0955 20.7266H96.1791C96.7013 18.5667 99.9236 11.0173 99.9236 11.0173H105.982L106.14 29.6734H102.006C102.006 29.6734 101.88 18.4479 101.88 15.7342H101.882Z" fill="black"/>
<path d="M120.83 26.3798C120.83 27.6815 120.885 28.9253 121.023 29.6733H117.25L117.002 28.3165H116.918C116.036 29.3949 114.659 29.9777 113.061 29.9777C110.335 29.9777 108.711 27.9859 108.711 25.8261C108.711 22.3094 111.85 20.6221 116.615 20.6511V20.4569C116.615 19.7379 116.229 18.7145 114.163 18.7145C112.787 18.7145 111.327 19.1841 110.445 19.7379L109.674 17.0243C110.612 16.4995 112.455 15.8327 114.908 15.8327C119.396 15.8327 120.83 18.4912 120.83 21.6745V26.3798ZM116.754 23.2806C114.55 23.2516 112.842 23.7793 112.842 25.4115C112.842 26.49 113.557 27.0176 114.495 27.0176C115.542 27.0176 116.396 26.3247 116.67 25.4666C116.725 25.2462 116.754 24.9969 116.754 24.7476V23.2806Z" fill="black"/>
<path d="M124.133 20.5962C124.133 18.6045 124.078 17.3028 124.023 16.1402H127.632L127.771 18.6306H127.88C128.57 16.665 130.223 15.8358 131.515 15.8358C131.902 15.8358 132.092 15.8358 132.398 15.8909V19.8772C132.095 19.7932 131.737 19.7381 131.27 19.7381C129.727 19.7381 128.682 20.5672 128.405 21.8689C128.351 22.1473 128.322 22.4778 128.322 22.8112V29.6764H124.136V20.5962H124.133Z" fill="black"/>
<path d="M138.704 21.8397H138.759C139.062 21.286 139.394 20.7323 139.723 20.2075L142.449 16.14H147.105L142.008 23.5589L148.175 29.6732H143.026L138.702 25.4376V29.6732H134.516V10.0199H138.702V21.8397H138.704Z" fill="black"/>
<path d="M152.282 24.2489C152.42 25.9913 154.128 26.8234 156.084 26.8234C157.515 26.8234 158.672 26.6291 159.802 26.2696L160.353 29.1195C158.977 29.6733 157.295 29.9777 155.478 29.9777C150.906 29.9777 148.289 27.2931 148.289 23.0574C148.289 19.6248 150.409 15.8327 155.091 15.8327C159.442 15.8327 161.095 19.2363 161.095 22.5877C161.095 23.3067 161.011 23.9445 160.956 24.2489H152.282ZM157.212 21.3701C157.212 20.3467 156.77 18.6304 154.843 18.6304C153.081 18.6304 152.365 20.2365 152.256 21.3701H157.215H157.212Z" fill="black"/>
<path d="M168.281 12.4584V16.1403H171.285V19.2395H168.281V24.1391C168.281 25.7713 168.668 26.5193 169.934 26.5193C170.511 26.5193 170.76 26.4903 171.175 26.4091L171.204 29.5924C170.653 29.8127 169.66 29.9808 168.478 29.9808C167.128 29.9808 166 29.4822 165.339 28.7893C164.569 27.9862 164.182 26.6845 164.182 24.7769V19.2424H162.391V16.1432H164.182V12.4613H168.287L168.281 12.4584Z" fill="black"/>
<path d="M189.67 32.4742C187.076 32.4742 185.218 31.5986 185.129 31.5551L185.501 30.7695C185.524 30.7811 187.838 31.8624 190.795 31.5435C193.778 31.2217 196.201 29.6011 196.224 29.5866L196.706 30.3085C196.599 30.381 194.081 32.0625 190.884 32.4104C190.466 32.4568 190.059 32.4742 189.667 32.4742H189.67Z" fill="black"/>
<path d="M184.151 30.7926C184.044 30.7172 183.104 30.0417 182.734 29.4531L183.464 28.9864C183.701 29.3604 184.402 29.9054 184.65 30.0823L184.151 30.7926Z" fill="black"/>
<path d="M187.222 14.3168C187.201 14.3429 187.17 14.3834 187.129 14.4385C187.051 14.4298 186.973 14.4182 186.898 14.4066C186.919 14.4095 186.936 14.4095 186.956 14.4095C186.982 14.4095 187.008 14.4066 187.031 14.4009C187.04 14.4009 187.046 14.4008 187.054 14.3979C187.074 14.3922 187.095 14.3863 187.115 14.3777C187.161 14.3603 187.198 14.3371 187.222 14.3168Z" fill="black"/>
<path d="M187.222 14.3168C187.201 14.3429 187.17 14.3834 187.129 14.4385C187.051 14.4298 186.973 14.4182 186.898 14.4066C186.919 14.4095 186.936 14.4095 186.956 14.4095C186.982 14.4095 187.008 14.4066 187.031 14.4009C187.04 14.4009 187.046 14.4008 187.054 14.3979C187.074 14.3922 187.095 14.3863 187.115 14.3777C187.161 14.3603 187.198 14.3371 187.222 14.3168Z" fill="black"/>
<path d="M191.966 22.153C191.952 22.8807 191.513 23.1474 191.357 23.217H188.672C188.675 22.1443 188.669 21.4833 188.66 21.1006C189.471 21.1006 190.501 21.1035 190.922 21.1151C191.412 21.1296 191.983 21.4109 191.966 22.153Z" fill="#FFAF46"/>
<path d="M190.995 24.1475C190.397 24.1301 189.258 24.1388 188.669 24.1446C188.669 24.7447 188.664 25.4434 188.655 26.2494H191.274C191.39 26.2494 191.499 26.2175 191.577 26.1595C191.877 25.9479 192.033 25.6174 192.042 25.1854C192.056 24.4403 191.488 24.162 190.995 24.1475ZM190.995 24.1475C190.397 24.1301 189.258 24.1388 188.669 24.1446C188.669 24.7447 188.664 25.4434 188.655 26.2494H191.274C191.39 26.2494 191.499 26.2175 191.577 26.1595C191.877 25.9479 192.033 25.6174 192.042 25.1854C192.056 24.4403 191.488 24.162 190.995 24.1475ZM190.995 24.1475C190.397 24.1301 189.258 24.1388 188.669 24.1446C188.669 24.7447 188.664 25.4434 188.655 26.2494H191.274C191.39 26.2494 191.499 26.2175 191.577 26.1595C191.877 25.9479 192.033 25.6174 192.042 25.1854C192.056 24.4403 191.488 24.162 190.995 24.1475ZM190.995 24.1475C190.397 24.1301 189.258 24.1388 188.669 24.1446C188.669 24.7447 188.664 25.4434 188.655 26.2494H191.274C191.39 26.2494 191.499 26.2175 191.577 26.1595C191.877 25.9479 192.033 25.6174 192.042 25.1854C192.056 24.4403 191.488 24.162 190.995 24.1475ZM190.995 24.1475C190.397 24.1301 189.258 24.1388 188.669 24.1446C188.669 24.7447 188.664 25.4434 188.655 26.2494H191.274C191.39 26.2494 191.499 26.2175 191.577 26.1595C191.877 25.9479 192.033 25.6174 192.042 25.1854C192.056 24.4403 191.488 24.162 190.995 24.1475ZM190.995 24.1475C190.397 24.1301 189.258 24.1388 188.669 24.1446C188.669 24.7447 188.664 25.4434 188.655 26.2494H191.274C191.39 26.2494 191.499 26.2175 191.577 26.1595C191.877 25.9479 192.033 25.6174 192.042 25.1854C192.056 24.4403 191.488 24.162 190.995 24.1475ZM189.734 17.5519C186.388 17.5519 183.676 20.2771 183.676 23.6402C183.676 27.0032 186.388 29.7284 189.734 29.7284C193.08 29.7284 195.792 27.0032 195.792 23.6402C195.792 20.2771 193.08 17.5519 189.734 17.5519ZM192.079 26.8698C191.851 27.0322 191.572 27.1191 191.274 27.1191H190.66V27.9454H189.794V27.1191H189.157V27.9454H188.292V27.1191H187.114V26.2494H187.79C187.818 23.2401 187.807 21.747 187.795 21.1005C187.259 21.1034 186.875 21.1034 186.875 21.1034V20.2337C186.875 20.2337 187.432 20.2337 188.147 20.2308H188.292V19.3146H189.157V20.2337C189.376 20.2308 189.59 20.2308 189.794 20.2337V19.3146H190.66V20.2395C190.772 20.2423 190.868 20.2423 190.946 20.2452C192.062 20.2771 192.855 21.0889 192.832 22.1703C192.818 22.9212 192.509 23.3937 192.2 23.6807C192.65 24.0228 192.919 24.565 192.907 25.2028C192.887 26.1508 192.382 26.6553 192.079 26.8698ZM190.995 24.1475C190.397 24.1301 189.258 24.1388 188.669 24.1446C188.669 24.7447 188.664 25.4434 188.655 26.2494H191.274C191.39 26.2494 191.499 26.2175 191.577 26.1595C191.877 25.9479 192.033 25.6174 192.042 25.1854C192.056 24.4403 191.488 24.162 190.995 24.1475ZM190.995 24.1475C190.397 24.1301 189.258 24.1388 188.669 24.1446C188.669 24.7447 188.664 25.4434 188.655 26.2494H191.274C191.39 26.2494 191.499 26.2175 191.577 26.1595C191.877 25.9479 192.033 25.6174 192.042 25.1854C192.056 24.4403 191.488 24.162 190.995 24.1475ZM190.995 24.1475C190.397 24.1301 189.258 24.1388 188.669 24.1446C188.669 24.7447 188.664 25.4434 188.655 26.2494H191.274C191.39 26.2494 191.499 26.2175 191.577 26.1595C191.877 25.9479 192.033 25.6174 192.042 25.1854C192.056 24.4403 191.488 24.162 190.995 24.1475ZM190.995 24.1475C190.397 24.1301 189.258 24.1388 188.669 24.1446C188.669 24.7447 188.664 25.4434 188.655 26.2494H191.274C191.39 26.2494 191.499 26.2175 191.577 26.1595C191.877 25.9479 192.033 25.6174 192.042 25.1854C192.056 24.4403 191.488 24.162 190.995 24.1475ZM190.995 24.1475C190.397 24.1301 189.258 24.1388 188.669 24.1446C188.669 24.7447 188.664 25.4434 188.655 26.2494H191.274C191.39 26.2494 191.499 26.2175 191.577 26.1595C191.877 25.9479 192.033 25.6174 192.042 25.1854C192.056 24.4403 191.488 24.162 190.995 24.1475Z" fill="#FFAF46"/>
<path d="M189.733 17.1171C186.153 17.1171 183.242 20.0423 183.242 23.6402C183.242 27.238 186.153 30.1632 189.733 30.1632C193.313 30.1632 196.224 27.238 196.224 23.6402C196.224 20.0423 193.313 17.1171 189.733 17.1171ZM189.733 29.2935C186.632 29.2935 184.108 26.7567 184.108 23.6402C184.108 20.5236 186.632 17.9868 189.733 17.9868C192.834 17.9868 195.358 20.5236 195.358 23.6402C195.358 26.7567 192.834 29.2935 189.733 29.2935Z" fill="black"/>
<path d="M192.195 23.6809C192.504 23.3939 192.813 22.9214 192.827 22.1705C192.85 21.0891 192.057 20.2773 190.941 20.2454C190.863 20.2425 190.767 20.2425 190.655 20.2396V19.3148H189.79V20.2339C189.585 20.231 189.371 20.231 189.152 20.2339V19.3148H188.287V20.231H188.142C187.427 20.2339 186.867 20.2339 186.867 20.2339V21.1036C186.867 21.1036 187.254 21.1036 187.79 21.1007C187.802 21.7472 187.813 23.2403 187.785 26.2496H187.11V27.1193H188.287V27.9456H189.152V27.1193H189.79V27.9456H190.655V27.1193H191.269C191.567 27.1193 191.846 27.0324 192.074 26.87C192.377 26.6555 192.882 26.151 192.902 25.203C192.914 24.5652 192.646 24.023 192.195 23.6809ZM190.917 21.1152C191.408 21.1297 191.979 21.4109 191.962 22.1531C191.947 22.8808 191.509 23.1475 191.353 23.2171H188.667C188.67 22.1444 188.664 21.4834 188.656 21.1007C189.466 21.1007 190.496 21.1036 190.917 21.1152ZM191.572 26.1597C191.494 26.2177 191.385 26.2496 191.269 26.2496H188.65C188.659 25.4436 188.664 24.7449 188.664 24.1448C189.253 24.139 190.392 24.1303 190.99 24.1477C191.483 24.1622 192.051 24.4405 192.037 25.1856C192.028 25.6176 191.872 25.9481 191.572 26.1597Z" fill="black"/>
</svg>
