<svg width="90" height="40" viewBox="0 0 90 40" fill="none" xmlns="http://www.w3.org/2000/svg">
<g clip-path="url(#clip0_6795_169018)">
<path d="M0 10H10.3217C12.3079 10 13.8627 10.4673 14.9861 11.402C16.1096 12.3367 16.6713 13.691 16.6713 15.465C16.6713 16.3614 16.4506 17.1817 16.0093 17.9256C15.5679 18.6505 14.966 19.2131 14.2037 19.6137C15.2469 19.9762 16.0294 20.5293 16.5509 21.2732C17.0725 21.9981 17.3333 22.9518 17.3333 24.1345C17.3333 25.3362 17.0424 26.3853 16.4607 27.2818C15.899 28.1593 15.1165 28.8364 14.1134 29.3133C13.1304 29.7711 12.037 30 10.8334 30H0V10ZM9.44909 18.1259C10.2515 18.1259 10.8835 17.9351 11.3449 17.5536C11.8063 17.1721 12.037 16.5618 12.037 15.7225C12.037 14.8069 11.8063 14.1774 11.3449 13.834C10.9036 13.4907 10.2214 13.319 9.29863 13.319H4.57408V18.1259H9.44909ZM9.71991 26.6809C10.703 26.6809 11.4452 26.4998 11.9468 26.1373C12.4684 25.7558 12.7292 25.0977 12.7292 24.1631C12.7292 23.2093 12.4583 22.5227 11.9167 22.103C11.3951 21.6833 10.6127 21.4735 9.56945 21.4735H4.57408V26.6809H9.71991Z" fill="black"/>
<path d="M24.3333 13.939C23.6774 13.939 23.1245 13.7177 22.6747 13.2751C22.2249 12.8326 22 12.2745 22 11.601C22 10.9468 22.2249 10.3983 22.6747 9.95577C23.1245 9.49394 23.6774 9.26303 24.3333 9.26303C24.9893 9.26303 25.5421 9.49394 25.992 9.95577C26.4418 10.3983 26.6667 10.9468 26.6667 11.601C26.6667 12.2745 26.4418 12.8326 25.992 13.2751C25.5421 13.7177 24.9893 13.939 24.3333 13.939ZM22.1968 16.0749H26.4699V29.9297H22.1968V16.0749Z" fill="black"/>
<path d="M38.0827 29.9297C36.5141 29.9297 35.319 29.4818 34.4973 28.586C33.6943 27.6707 33.2928 26.4048 33.2928 24.7884V18.6538H31.332V15.4696H33.2928V11.263H37.5225V15.4696H40.6878V18.6538H37.5225V24.2041C37.5225 25.022 37.6719 25.616 37.9707 25.9861C38.2694 26.3366 38.8017 26.5119 39.5673 26.5119C40.1835 26.5119 40.7718 26.356 41.332 26.0445V29.3455C40.473 29.735 39.3899 29.9297 38.0827 29.9297Z" fill="black"/>
<path d="M66.3146 17.4118C66.9033 19.5381 66.7506 21.7931 65.8801 23.8269C65.0096 25.8606 63.4699 27.5595 61.5 28.6602C59.53 29.7609 57.2398 30.2018 54.9845 29.9144C52.7293 29.6271 50.635 28.6277 49.0265 27.0711C47.4181 25.5144 46.3853 23.4878 46.0884 21.3052C45.7915 19.1227 46.247 16.9064 47.3844 15C48.5217 13.0936 50.2773 11.6036 52.3789 10.7612C54.4805 9.91879 56.8105 9.771 59.0077 10.3407L56.3333 20L66.3146 17.4118Z" fill="black"/>
<path d="M71.332 10H75.7661V18.6981L83.4681 10H88.7486L80.1132 19.7568L89.332 30H84.0515L75.7661 20.8155V30H71.332V10Z" fill="black"/>
</g>
<defs>
<clipPath id="clip0_6795_169018">
<rect width="89.3333" height="40" fill="white"/>
</clipPath>
</defs>
</svg>
