<svg width="78" height="40" viewBox="0 0 78 40" fill="none" xmlns="http://www.w3.org/2000/svg">
<path d="M8.57248 30H0V10.002H8.22776C12.2265 10.002 14.5565 12.1927 14.5565 15.6196C14.5565 17.8378 13.0601 19.2713 12.0243 19.7486C13.2606 20.31 14.8432 21.5737 14.8432 24.2433C14.8432 27.9776 12.2265 30 8.57248 30ZM7.91125 13.4854H3.99871V18.0917H7.91125C9.60824 18.0917 10.5578 17.1647 10.5578 15.7878C10.5578 14.4125 9.60824 13.4854 7.91125 13.4854ZM8.16978 21.6027H3.99871V26.5181H8.16978C9.98267 26.5181 10.8444 25.3953 10.8444 24.0459C10.8444 22.6981 9.98107 21.6027 8.16978 21.6027Z" fill="black"/>
<path d="M28.1932 21.7981V29.9996H24.2227V21.7981L18.0664 10.0015H22.4098L26.2362 18.0622L30.0046 10.0015H34.348L28.1932 21.7981Z" fill="black"/>
<path d="M46.1467 29.9996H37.5742V10.0015H45.802C49.8007 10.0015 52.1307 12.1922 52.1307 15.6191C52.1307 17.8373 50.6343 19.2708 49.5986 19.7481C50.8349 20.3096 52.4175 21.5732 52.4175 24.2428C52.4175 27.9771 49.8007 29.9996 46.1467 29.9996ZM45.4855 13.4849H41.5729V18.0912H45.4855C47.1825 18.0912 48.132 17.1642 48.132 15.7873C48.132 14.412 47.1825 13.4849 45.4855 13.4849ZM45.744 21.6023H41.5729V26.5176H45.744C47.5569 26.5176 48.4187 25.3948 48.4187 24.0454C48.4187 22.6976 47.5569 21.6023 45.744 21.6023Z" fill="black"/>
<path d="M55.6445 29.9996V10.0015H59.6432V29.9996H55.6445Z" fill="#F7A600"/>
<path d="M72.2168 13.4835V29.9996H68.2181V13.4835H62.8672V10H77.5678V13.4835H72.2168Z" fill="black"/>
</svg>
