<svg width="128" height="40" viewBox="0 0 128 40" fill="none" xmlns="http://www.w3.org/2000/svg">
<g clip-path="url(#clip0_6795_169010)">
<path d="M8.02445 26.8528C8.34215 26.1746 8.4442 25.2436 8.33062 24.0596C8.32891 24.0402 8.33134 24.0207 8.33777 24.0023C8.34419 23.9838 8.35447 23.9669 8.36794 23.9526C8.38141 23.9383 8.39779 23.9269 8.41602 23.9191C8.43425 23.9113 8.45394 23.9073 8.47383 23.9074L12.1158 23.9098C12.2014 23.9098 12.2475 23.9509 12.254 24.033C12.4516 26.5049 12.0022 29.4745 9.18 30.2767C7.54792 30.7406 5.35782 30.7212 3.8245 30.2356C1.13811 29.3875 0.639353 26.7465 0.609723 24.265C0.58174 22.071 0.578448 19.8762 0.599847 17.6807C0.627007 14.6966 1.38008 11.8599 4.91338 11.4419C9.76271 10.8716 12.4071 12.5002 12.1577 17.4849C12.1565 17.511 12.145 17.5356 12.1257 17.5536C12.1064 17.5716 12.0807 17.5816 12.054 17.5816L8.40963 17.5768C8.38499 17.5768 8.36059 17.5719 8.338 17.5623C8.3154 17.5526 8.2951 17.5385 8.27839 17.5208C8.26167 17.5031 8.2489 17.4821 8.24089 17.4593C8.23288 17.4365 8.2298 17.4123 8.23186 17.3883C8.29606 16.6827 8.23351 15.9764 8.04421 15.2692C7.58742 13.5585 5.33806 13.8388 4.84177 15.3248C4.62614 15.9756 4.51832 16.7005 4.51832 17.4994C4.51997 19.6934 4.52902 21.8882 4.54548 24.0838C4.55207 24.8988 4.65906 25.701 4.86646 26.4904C5.26646 28.0054 7.33804 28.3316 8.02445 26.8528Z" fill="black"/>
<path d="M62.5651 27.4352L62.5676 23.3735C62.5676 23.356 62.5641 23.3388 62.5573 23.3226C62.5504 23.3065 62.5404 23.2919 62.5278 23.2795C62.5152 23.2672 62.5002 23.2574 62.4838 23.2507C62.4673 23.244 62.4496 23.2406 62.4318 23.2406L60.8442 23.2309C60.7816 23.2293 60.7503 23.1979 60.7503 23.1367L60.7528 20.573C60.7528 20.4861 60.7981 20.4426 60.8886 20.4426L66.3725 20.4401C66.4098 20.4401 66.4456 20.4547 66.472 20.4805C66.4984 20.5063 66.5132 20.5413 66.5132 20.5779L66.5083 29.8153C66.5075 29.8444 66.4969 29.8726 66.4782 29.8953C66.4594 29.918 66.4336 29.934 66.4046 29.9409C64.8079 30.3195 63.1725 30.553 61.4985 30.6416C57.0516 30.876 54.9553 29.5011 54.6418 25.048C54.5809 24.2023 54.5479 22.1291 54.543 18.8285C54.5381 15.511 55.0862 12.2393 59.0294 11.5362C63.5059 10.7388 66.8984 12.423 66.4811 17.3546C66.4793 17.3802 66.4675 17.4042 66.4483 17.4217C66.429 17.4392 66.4037 17.4489 66.3774 17.4488L62.7404 17.4416C62.7186 17.4416 62.697 17.4373 62.677 17.4287C62.6569 17.4202 62.6389 17.4077 62.6241 17.3921C62.6092 17.3764 62.5979 17.3579 62.5907 17.3377C62.5835 17.3176 62.5807 17.2961 62.5824 17.2748C62.6812 15.7574 62.3503 13.8969 60.2639 14.2086C58.6368 14.4526 58.538 16.173 58.5133 17.4391C58.4615 20.2783 58.2788 23.33 58.6763 26.1401C58.9627 28.1529 60.9182 28.0248 62.454 27.5826C62.5281 27.5601 62.5651 27.5109 62.5651 27.4352Z" fill="black"/>
<path d="M31.1163 26.4179L30.3879 30.209C30.3816 30.2403 30.3644 30.2686 30.3392 30.2888C30.314 30.3091 30.2823 30.3202 30.2497 30.3202L26.7411 30.3226C26.72 30.3224 26.6992 30.3176 26.6802 30.3085C26.6613 30.2993 26.6447 30.2862 26.6316 30.2699C26.6186 30.2537 26.6095 30.2348 26.6049 30.2146C26.6003 30.1945 26.6005 30.1735 26.6053 30.1534L30.8892 11.6907C30.8964 11.6607 30.9137 11.6339 30.9383 11.6146C30.9629 11.5953 30.9934 11.5847 31.025 11.5844L35.4175 11.582C35.4495 11.5817 35.4806 11.5921 35.5057 11.6114C35.5308 11.6308 35.5485 11.6579 35.5558 11.6883L39.8298 30.1583C39.8347 30.1786 39.8348 30.1997 39.8301 30.22C39.8254 30.2404 39.816 30.2594 39.8027 30.2757C39.7894 30.292 39.7724 30.3051 39.7532 30.3141C39.7339 30.323 39.7129 30.3276 39.6915 30.3274L36.1805 30.3177C36.1475 30.3177 36.1156 30.3063 36.0903 30.2855C36.065 30.2647 36.048 30.236 36.0422 30.2042L35.3434 26.4227C35.3377 26.3909 35.3206 26.3621 35.2954 26.3414C35.2701 26.3206 35.2382 26.3092 35.2052 26.3091L31.2546 26.3067C31.222 26.3067 31.1903 26.3178 31.1651 26.338C31.1399 26.3583 31.1226 26.3865 31.1163 26.4179ZM33.3114 15.3852C33.2768 15.1951 33.2414 15.1951 33.2052 15.3852L31.6793 23.4217C31.6771 23.4315 31.6772 23.4416 31.6797 23.4514C31.6821 23.4611 31.6868 23.4703 31.6934 23.4781C31.7 23.486 31.7084 23.4923 31.7179 23.4968C31.7274 23.5013 31.7378 23.5037 31.7484 23.5039H34.6521C34.7558 23.5039 34.7986 23.4539 34.7805 23.3541L33.3114 15.3852Z" fill="black"/>
<path d="M44.6448 19.865L44.6522 30.1317C44.6522 30.2605 44.5863 30.325 44.4547 30.325L40.9436 30.3322C40.9036 30.3322 40.8653 30.3167 40.8371 30.2891C40.8088 30.2614 40.793 30.2239 40.793 30.1848L40.8127 11.7076C40.8127 11.675 40.8262 11.6436 40.8503 11.6205C40.8744 11.5974 40.9071 11.5844 40.9411 11.5844L44.5164 11.582C44.5529 11.582 44.5886 11.5928 44.619 11.613C44.6494 11.6332 44.673 11.662 44.6868 11.6956L49.0546 22.2353C49.1287 22.4173 49.1657 22.4101 49.1657 22.2136L49.1682 11.756C49.1682 11.6416 49.2266 11.5844 49.3435 11.5844L52.8792 11.582C52.9179 11.582 52.9549 11.5968 52.9823 11.623C53.0096 11.6493 53.0249 11.685 53.0249 11.7221L53.0274 30.1413C53.0274 30.1903 53.0077 30.2372 52.9726 30.2721C52.9375 30.3069 52.8897 30.3268 52.8397 30.3274L49.2818 30.3346C49.2081 30.3347 49.136 30.3128 49.0749 30.2719C49.0137 30.231 48.9662 30.1729 48.9386 30.1051L44.746 19.8456C44.6769 19.6765 44.6431 19.6829 44.6448 19.865Z" fill="black"/>
<path d="M72.157 22.2812L72.1644 27.4061C72.1644 27.4395 72.1779 27.4714 72.202 27.495C72.2261 27.5185 72.2587 27.5318 72.2928 27.5318L77.789 27.5245C77.8231 27.5245 77.8557 27.5378 77.8798 27.5613C77.9039 27.5849 77.9174 27.6168 77.9174 27.6502V30.1945C77.9174 30.2278 77.9039 30.2598 77.8798 30.2833C77.8557 30.3069 77.8231 30.3201 77.789 30.3201L68.357 30.3226C68.323 30.3226 68.2903 30.3093 68.2662 30.2858C68.2422 30.2622 68.2286 30.2302 68.2286 30.1969L68.2188 11.7076C68.2188 11.6743 68.2323 11.6424 68.2564 11.6188C68.2804 11.5952 68.3131 11.582 68.3471 11.582H77.6853C77.7194 11.582 77.752 11.5952 77.7761 11.6188C77.8002 11.6424 77.8137 11.6743 77.8137 11.7076L77.8112 14.2496C77.8112 14.2829 77.7977 14.3148 77.7736 14.3384C77.7495 14.362 77.7169 14.3752 77.6828 14.3752L72.2854 14.3776C72.2513 14.3776 72.2187 14.3909 72.1946 14.4144C72.1705 14.438 72.157 14.4699 72.157 14.5033L72.1594 19.2077C72.1594 19.2242 72.1628 19.2406 72.1692 19.2558C72.1757 19.2711 72.1851 19.2849 72.197 19.2966C72.209 19.3082 72.2231 19.3175 72.2387 19.3238C72.2543 19.3301 72.271 19.3334 72.2878 19.3334L77.4853 19.3479C77.5194 19.3479 77.552 19.3611 77.5761 19.3847C77.6002 19.4082 77.6137 19.4402 77.6137 19.4735L77.6112 22.0275C77.6112 22.0608 77.5977 22.0928 77.5736 22.1164C77.5495 22.1399 77.5169 22.1532 77.4828 22.1532L72.2854 22.1556C72.2513 22.1556 72.2187 22.1688 72.1946 22.1924C72.1705 22.2159 72.157 22.2479 72.157 22.2812Z" fill="black"/>
<path d="M86.8708 22.982L86.8733 30.1293C86.8733 30.1799 86.853 30.2285 86.8168 30.2643C86.7807 30.3001 86.7317 30.3202 86.6807 30.3202H83.0931C83.0518 30.3202 83.0122 30.3044 82.9831 30.2763C82.9539 30.2482 82.9375 30.2101 82.9375 30.1704V11.6956C82.9375 11.6665 82.9494 11.6386 82.9706 11.6178C82.9919 11.5971 83.0207 11.5851 83.0511 11.5845C85.2535 11.5764 87.4527 11.5796 89.6485 11.5941C90.2033 11.5973 90.902 11.7359 91.7448 12.0097C94.6337 12.9424 94.7793 16.2672 94.4435 18.768C94.3333 19.5815 94.1464 20.2605 93.883 20.8049C92.8929 22.8491 89.2436 22.9095 87.0658 22.8032C86.9358 22.7967 86.8708 22.8563 86.8708 22.982ZM86.8757 14.4791L86.8659 19.9399C86.8659 19.9662 86.8765 19.9914 86.8955 20.01C86.9145 20.0285 86.9402 20.039 86.9671 20.039L88.5522 20.0414C89.0964 20.042 89.6186 19.828 90.0038 19.4465C90.3891 19.0649 90.6059 18.5471 90.6065 18.0069L90.6115 16.4218C90.6118 16.1543 90.5591 15.8894 90.4563 15.6421C90.3534 15.3949 90.2026 15.1701 90.0123 14.9808C89.822 14.7914 89.596 14.6411 89.3471 14.5384C89.0983 14.4358 88.8316 14.3828 88.5621 14.3825L86.977 14.3801C86.9637 14.3801 86.9505 14.3826 86.9382 14.3876C86.9259 14.3926 86.9148 14.3999 86.9054 14.4091C86.896 14.4183 86.8885 14.4292 86.8834 14.4412C86.8783 14.4532 86.8757 14.4661 86.8757 14.4791Z" fill="black"/>
<path d="M104.726 21.2301C106.679 21.504 107.642 22.6195 107.615 24.5767C107.582 26.935 107.619 28.8076 107.726 30.1945C107.733 30.2783 107.693 30.3201 107.605 30.3201H104.033C103.99 30.32 103.949 30.3049 103.917 30.2778C103.886 30.2507 103.865 30.2134 103.86 30.1727C103.615 28.375 103.716 26.4469 103.682 24.6298C103.64 22.4721 101.781 22.6171 100.205 22.6147C100.17 22.6147 100.136 22.6284 100.111 22.6529C100.086 22.6774 100.072 22.7105 100.072 22.7451L100.075 30.1969C100.075 30.2309 100.061 30.2635 100.036 30.2875C100.012 30.3115 99.9784 30.325 99.9437 30.325L96.3882 30.3322C96.3194 30.3322 96.2535 30.3052 96.2048 30.2572C96.1562 30.2092 96.1289 30.144 96.1289 30.0761L96.1314 11.7028C96.1314 11.6727 96.1436 11.6438 96.1654 11.6225C96.1871 11.6012 96.2166 11.5892 96.2474 11.5892C98.1783 11.5828 100.114 11.5723 102.055 11.5578C105.894 11.5288 107.662 12.9593 107.635 16.8398C107.63 17.7709 107.467 18.5964 107.146 19.3165C106.62 20.498 105.788 20.7735 104.719 21.1601C104.628 21.1923 104.631 21.2157 104.726 21.2301ZM100.057 14.496L100.087 19.7248C100.087 19.7524 100.098 19.7788 100.118 19.7983C100.138 19.8178 100.165 19.8287 100.193 19.8287L101.739 19.819C101.995 19.8178 102.248 19.7661 102.484 19.667C102.719 19.5678 102.933 19.4232 103.113 19.2412C103.293 19.0592 103.436 18.8435 103.533 18.6065C103.629 18.3694 103.678 18.1155 103.677 17.8595L103.667 16.3227C103.664 15.8056 103.457 15.3107 103.089 14.9468C102.722 14.5829 102.226 14.3799 101.709 14.3825L100.163 14.3921C100.135 14.3921 100.108 14.4031 100.088 14.4225C100.068 14.442 100.057 14.4685 100.057 14.496Z" fill="black"/>
<path d="M127.918 20.3723V21.5466C127.303 26.57 123.325 30.523 118.029 30.3297C108.251 29.977 105.13 17.3061 113.743 12.7055C116.799 11.0745 120.461 11.2412 123.414 13.0462C126.005 14.6297 127.506 17.0717 127.918 20.3723ZM126.826 20.9498C126.826 18.7344 125.927 16.6098 124.326 15.0433C122.726 13.4768 120.555 12.5968 118.291 12.5968C116.027 12.5968 113.856 13.4768 112.255 15.0433C110.654 16.6098 109.755 18.7344 109.755 20.9498C109.755 23.1652 110.654 25.2898 112.255 26.8563C113.856 28.4228 116.027 29.3028 118.291 29.3028C120.555 29.3028 122.726 28.4228 124.326 26.8563C125.927 25.2898 126.826 23.1652 126.826 20.9498Z" fill="black"/>
<path d="M17.5793 22.3417L17.5842 30.2671C17.5842 30.2998 17.5709 30.3311 17.5473 30.3542C17.5237 30.3773 17.4917 30.3903 17.4583 30.3903H13.7744C13.741 30.3903 13.7089 30.3773 13.6853 30.3542C13.6617 30.3311 13.6484 30.2998 13.6484 30.2671V11.7633C13.6484 11.7471 13.6517 11.7311 13.658 11.7162C13.6644 11.7012 13.6736 11.6876 13.6853 11.6762C13.697 11.6647 13.7109 11.6557 13.7262 11.6495C13.7415 11.6433 13.7578 11.6401 13.7744 11.6401H17.4583C17.4917 11.6401 17.5237 11.6531 17.5473 11.6762C17.5709 11.6993 17.5842 11.7306 17.5842 11.7633L17.5817 19.2948C17.5817 19.3275 17.595 19.3588 17.6186 19.3819C17.6422 19.4051 17.6743 19.418 17.7076 19.418L21.1842 19.4156C21.2176 19.4156 21.2496 19.4026 21.2732 19.3795C21.2968 19.3564 21.3101 19.3251 21.3101 19.2924V11.7657C21.3101 11.733 21.3233 11.7017 21.347 11.6786C21.3706 11.6555 21.4026 11.6425 21.436 11.6425L25.1199 11.6377C25.1533 11.6377 25.1853 11.6506 25.209 11.6738C25.2326 11.6969 25.2458 11.7282 25.2458 11.7609V30.2671C25.2458 30.2998 25.2326 30.3311 25.209 30.3542C25.1853 30.3773 25.1533 30.3903 25.1199 30.3903L21.436 30.3927C21.4026 30.3927 21.3706 30.3797 21.347 30.3566C21.3233 30.3335 21.3101 30.3022 21.3101 30.2695V22.3417C21.3101 22.309 21.2968 22.2777 21.2732 22.2546C21.2496 22.2315 21.2176 22.2185 21.1842 22.2185H17.7052C17.6718 22.2185 17.6398 22.2315 17.6161 22.2546C17.5925 22.2777 17.5793 22.309 17.5793 22.3417Z" fill="black"/>
<path d="M118.324 28.5564C122.635 28.5564 126.129 25.1368 126.129 20.9186C126.129 16.7003 122.635 13.2808 118.324 13.2808C114.014 13.2808 110.52 16.7003 110.52 20.9186C110.52 25.1368 114.014 28.5564 118.324 28.5564Z" fill="#FF0000"/>
</g>
<defs>
<clipPath id="clip0_6795_169010">
<rect width="127.333" height="40" fill="white" transform="translate(0.585938)"/>
</clipPath>
</defs>
</svg>
