<svg width="137" height="40" viewBox="0 0 137 40" fill="none" xmlns="http://www.w3.org/2000/svg">
<g clip-path="url(#clip0_6795_169016)">
<path fill-rule="evenodd" clip-rule="evenodd" d="M15.1425 6.72043C15.1425 6.31423 15.2653 5.91715 15.4955 5.57941C15.7256 5.24167 16.0527 4.97844 16.4355 4.82299C16.8182 4.66755 17.2394 4.62687 17.6456 4.70612C18.052 4.78537 18.4252 4.98097 18.7181 5.26819C19.011 5.55542 19.2105 5.92137 19.2913 6.31976C19.3721 6.71815 19.3307 7.13109 19.1721 7.50637C19.0136 7.88165 18.7451 8.20241 18.4007 8.42808C18.0562 8.65376 17.6513 8.7742 17.237 8.7742C16.962 8.77434 16.6895 8.7213 16.4353 8.61814C16.1812 8.51497 15.9502 8.3637 15.7557 8.17297C15.5611 7.98223 15.4068 7.75576 15.3017 7.50653C15.1965 7.2573 15.1424 6.99017 15.1425 6.72043ZM15.0748 33.2786C15.075 32.8724 15.198 32.4754 15.4282 32.1378C15.6585 31.8002 15.9857 31.5371 16.3685 31.3818C16.7512 31.2265 17.1723 31.186 17.5785 31.2654C17.9847 31.3448 18.3578 31.5404 18.6507 31.8277C18.9435 32.1149 19.1428 32.4809 19.2236 32.8793C19.3043 33.2776 19.2628 33.6905 19.1043 34.0657C18.9457 34.4409 18.6773 34.7617 18.3328 34.9872C17.9884 35.2129 17.5834 35.3333 17.1693 35.3333C16.894 35.3336 16.6215 35.2807 16.3672 35.1775C16.1128 35.0743 15.8818 34.9229 15.6873 34.732C15.4927 34.5411 15.3384 34.3146 15.2333 34.0651C15.1282 33.8157 15.0743 33.5484 15.0748 33.2786ZM21.8634 26.6229C21.8634 26.2167 21.9863 25.8196 22.2165 25.4819C22.4466 25.1441 22.7736 24.881 23.1564 24.7255C23.5391 24.57 23.9603 24.5294 24.3665 24.6086C24.7729 24.6878 25.1461 24.8835 25.439 25.1707C25.7319 25.4579 25.9314 25.8239 26.0122 26.2223C26.093 26.6207 26.0516 27.0336 25.8931 27.4089C25.7345 27.7841 25.4661 28.1049 25.1216 28.3306C24.7772 28.5563 24.3722 28.6767 23.958 28.6767C23.6829 28.6769 23.4104 28.6238 23.1562 28.5206C22.9021 28.4174 22.6711 28.2662 22.4766 28.0754C22.282 27.8847 22.1278 27.6583 22.0226 27.409C21.9174 27.1598 21.8633 26.8927 21.8634 26.6229ZM28.6521 19.9663C28.6519 19.56 28.7746 19.1629 29.0046 18.825C29.2346 18.4871 29.5617 18.2237 29.9444 18.0681C30.3271 17.9125 30.7483 17.8717 31.1546 17.9508C31.561 18.0299 31.9343 18.2255 32.2273 18.5127C32.5204 18.7998 32.7199 19.1658 32.8008 19.5643C32.8817 19.9626 32.8403 20.3757 32.6818 20.751C32.5233 21.1263 32.2548 21.4471 31.9104 21.6729C31.566 21.8985 31.1609 22.019 30.7466 22.019C30.4716 22.0191 30.1993 21.9662 29.9452 21.8631C29.6911 21.76 29.4602 21.6087 29.2656 21.4181C29.0711 21.2275 28.9168 21.0012 28.8115 20.752C28.7064 20.5029 28.6521 20.2359 28.6521 19.9663ZM7.46675 22.6644L7.73165 22.9241C7.98017 23.174 8.29065 23.3562 8.63264 23.4529C8.97462 23.5497 9.33634 23.5575 9.68239 23.4758C10.1665 23.3697 10.6685 23.3697 11.1526 23.4758C11.4987 23.5575 11.8605 23.5497 12.2024 23.4529C12.5444 23.3562 12.8549 23.174 13.1034 22.9241L13.4023 22.6301C13.6575 22.3868 13.8437 22.0823 13.9424 21.7469C14.0411 21.4115 14.0488 21.0565 13.9648 20.7173C13.9115 20.4809 13.8846 20.2396 13.8848 19.9975C13.8848 19.1328 14.235 18.3036 14.8584 17.6921C15.4818 17.0805 16.3275 16.7369 17.2093 16.7366C17.4562 16.7368 17.7024 16.7635 17.9434 16.8162C18.2894 16.8979 18.6512 16.8899 18.9932 16.7932C19.3352 16.6965 19.6457 16.5143 19.8942 16.2644L20.193 15.9705C20.4485 15.7272 20.6347 15.4228 20.7334 15.0874C20.8321 14.7518 20.8398 14.3969 20.7556 14.0576C20.7023 13.8209 20.6754 13.5792 20.6755 13.3368C20.676 12.6614 20.8904 12.0028 21.2891 11.4521C21.6878 10.9014 22.2512 10.4858 22.9015 10.2628C23.5516 10.0397 24.2564 10.0202 24.9183 10.207C25.5802 10.3939 26.1665 10.7777 26.5963 11.3055C27.0261 11.8334 27.278 12.4791 27.3171 13.1534C27.3563 13.8277 27.1809 14.4972 26.8151 15.0695C26.4492 15.6418 25.9112 16.0885 25.2752 16.3479C24.6392 16.6072 23.9367 16.6663 23.265 16.5172C22.9188 16.4355 22.557 16.4436 22.215 16.5405C21.873 16.6374 21.5626 16.8198 21.3142 17.0699L21.0153 17.3628C20.7604 17.6064 20.5743 17.9108 20.4756 18.2461C20.3767 18.5815 20.3685 18.9362 20.4517 19.2756C20.575 19.8128 20.5577 20.3719 20.4014 20.9008C20.2452 21.4297 19.955 21.9112 19.558 22.3007C19.1609 22.6901 18.67 22.9747 18.1305 23.1281C17.5912 23.2814 17.021 23.2985 16.4731 23.1778C16.1271 23.0961 15.7654 23.104 15.4233 23.2007C15.0814 23.2975 14.7709 23.4797 14.5224 23.7295L14.2236 24.0235C13.968 24.2666 13.7814 24.5709 13.6826 24.9065C13.5837 25.2419 13.5759 25.5969 13.6599 25.9363C13.7694 26.4133 13.7681 26.9083 13.656 27.3846C13.544 27.861 13.324 28.3066 13.0126 28.6884C12.7011 29.0701 12.306 29.3783 11.8567 29.5901C11.4073 29.8019 10.9151 29.9118 10.4165 29.9118C9.9179 29.9118 9.42577 29.8019 8.97635 29.5901C8.52697 29.3783 8.13194 29.0701 7.82049 28.6884C7.50902 28.3066 7.28908 27.861 7.17703 27.3846C7.06497 26.9083 7.06366 26.4133 7.17312 25.9363C7.25705 25.5969 7.24916 25.242 7.15031 24.9065C7.05145 24.571 6.86501 24.2666 6.60942 24.0235L6.34452 23.7637C6.09611 23.5137 5.78568 23.3313 5.44369 23.2344C5.10169 23.1375 4.73988 23.1294 4.39375 23.2111C3.72149 23.3607 3.01843 23.3017 2.38182 23.0424C1.7452 22.7831 1.20654 22.3362 0.840278 21.7636C0.47402 21.1909 0.29826 20.5208 0.337395 19.8459C0.376529 19.1711 0.628608 18.5248 1.05871 17.9966C1.48881 17.4683 2.07567 17.0841 2.73816 16.8973C3.40065 16.7104 4.10599 16.73 4.75661 16.9534C5.40724 17.1768 5.97101 17.5929 6.36989 18.1442C6.76877 18.6955 6.98309 19.3547 6.98316 20.0307C6.9833 20.2727 6.95641 20.5142 6.90305 20.7505C6.81966 21.0901 6.82779 21.445 6.92661 21.7806C7.02544 22.1161 7.21158 22.4207 7.46675 22.6644ZM8.35385 13.3771C8.35385 12.9709 8.47669 12.5738 8.70683 12.2361C8.93698 11.8983 9.2641 11.6351 9.64685 11.4796C10.0295 11.3242 10.4506 11.2835 10.857 11.3628C11.2633 11.442 11.6365 11.6376 11.9293 11.9248C12.2223 12.2121 12.4217 12.578 12.5026 12.9764C12.5834 13.3748 12.542 13.7877 12.3834 14.163C12.2249 14.5383 11.9564 14.8591 11.612 15.0848C11.2675 15.3104 10.8626 15.4308 10.4483 15.4308C9.89349 15.4306 9.36137 15.2145 8.96867 14.83C8.57603 14.4456 8.35493 13.9242 8.35385 13.3801V13.3771Z" fill="#105E8A"/>
<path d="M36.4084 27.5588C36.2497 27.5588 36.1198 27.5084 36.0187 27.4076C35.9177 27.3068 35.8672 27.1773 35.8672 27.0189V12.9813C35.8672 12.8229 35.9177 12.6933 36.0187 12.5926C36.1198 12.4918 36.2497 12.4414 36.4084 12.4414H39.2007C39.3595 12.4414 39.4893 12.4918 39.5904 12.5926C39.6914 12.6933 39.7419 12.8229 39.7419 12.9813V18.186H41.0623L44.266 12.8517C44.3381 12.7365 44.4391 12.6429 44.569 12.571C44.6989 12.4846 44.8648 12.4414 45.0668 12.4414H48.1839C48.3282 12.4414 48.4437 12.4918 48.5303 12.5926C48.6168 12.6789 48.6601 12.7797 48.6601 12.8949C48.6601 12.9813 48.6313 13.0677 48.5736 13.1541L44.5474 19.7193L48.9632 26.8245C49.0065 26.882 49.0282 26.9612 49.0282 27.0621C49.0282 27.206 48.9776 27.3284 48.8766 27.4292C48.79 27.5156 48.6746 27.5588 48.5303 27.5588H45.3267C45.0957 27.5588 44.9225 27.5084 44.8071 27.4076C44.7061 27.3068 44.6267 27.2204 44.569 27.1484L41.2138 21.6414H39.7419V27.0189C39.7419 27.1773 39.6914 27.3068 39.5904 27.4076C39.4893 27.5084 39.3595 27.5588 39.2007 27.5588H36.4084Z" fill="#080A0C"/>
<path d="M57.4004 27.5917C56.1882 27.5917 55.1636 27.3973 54.3265 27.0086C53.504 26.6198 52.869 26.0656 52.4217 25.3457C51.9888 24.6114 51.7434 23.7403 51.6857 22.7325C51.6713 22.4445 51.6641 22.1207 51.6641 21.7607C51.6641 21.3864 51.6713 21.0624 51.6857 20.7888C51.7434 19.7666 52.0033 18.8956 52.465 18.1758C52.9268 17.4558 53.569 16.9015 54.3915 16.5128C55.2285 16.1241 56.2315 15.9297 57.4004 15.9297C58.5837 15.9297 59.5866 16.1241 60.4092 16.5128C61.2462 16.9015 61.8955 17.4558 62.3574 18.1758C62.8191 18.8956 63.0789 19.7666 63.1366 20.7888C63.151 21.0624 63.1582 21.3864 63.1582 21.7607C63.1582 22.1207 63.151 22.4445 63.1366 22.7325C63.0789 23.7403 62.8263 24.6114 62.379 25.3457C61.946 26.0656 61.3111 26.6198 60.4741 27.0086C59.6516 27.3973 58.627 27.5917 57.4004 27.5917ZM57.4004 24.957C58.0497 24.957 58.5188 24.7626 58.8074 24.3738C59.1104 23.9851 59.2836 23.402 59.3268 22.6246C59.3413 22.4086 59.3485 22.1207 59.3485 21.7607C59.3485 21.4007 59.3413 21.1128 59.3268 20.8969C59.2836 20.1338 59.1104 19.5579 58.8074 19.1692C58.5188 18.766 58.0497 18.5644 57.4004 18.5644C56.7654 18.5644 56.2964 18.766 55.9934 19.1692C55.6903 19.5579 55.5243 20.1338 55.4955 20.8969C55.481 21.1128 55.4738 21.4007 55.4738 21.7607C55.4738 22.1207 55.481 22.4086 55.4955 22.6246C55.5243 23.402 55.6903 23.9851 55.9934 24.3738C56.2964 24.7626 56.7654 24.957 57.4004 24.957Z" fill="#080A0C"/>
<path d="M66.8516 27.1597C66.7073 27.1597 66.5846 27.1093 66.4835 27.0086C66.3825 26.9077 66.332 26.7853 66.332 26.6414V16.4696C66.332 16.3112 66.3825 16.1816 66.4835 16.0809C66.5846 15.98 66.7145 15.9297 66.8732 15.9297H69.4275C69.5718 15.9297 69.6945 15.98 69.7955 16.0809C69.9109 16.1816 69.9686 16.3112 69.9686 16.4696V24.3522L68.9945 23.877L74.3411 16.2752C74.4134 16.1744 74.4999 16.0952 74.601 16.0377C74.702 15.9657 74.8174 15.9297 74.9473 15.9297H77.2634C77.4077 15.9297 77.5304 15.98 77.6314 16.0809C77.7324 16.1816 77.7829 16.304 77.7829 16.448V26.6198C77.7829 26.7782 77.7324 26.9077 77.6314 27.0086C77.5304 27.1093 77.4005 27.1597 77.2418 27.1597H74.6875C74.5288 27.1597 74.3989 27.1093 74.2978 27.0086C74.1968 26.9077 74.1463 26.7782 74.1463 26.6198V18.9747L75.1421 19.1691L69.7522 26.8142C69.6945 26.9149 69.6151 27.0013 69.5141 27.0733C69.4131 27.1309 69.2904 27.1597 69.146 27.1597H66.8516Z" fill="#080A0C"/>
<path d="M81.5411 27.1597C81.3824 27.1597 81.2525 27.1093 81.1515 27.0086C81.0505 26.9077 81 26.7782 81 26.6198V16.4696C81 16.3112 81.0505 16.1816 81.1515 16.0809C81.2525 15.98 81.3824 15.9297 81.5411 15.9297H84.0954C84.2397 15.9297 84.3624 15.98 84.4634 16.0809C84.5789 16.1816 84.6366 16.3112 84.6366 16.4696V20.0545H88.5331V16.4696C88.5331 16.3112 88.583 16.1816 88.6845 16.0809C88.7852 15.98 88.9152 15.9297 89.0738 15.9297H91.6284C91.7727 15.9297 91.8956 15.98 91.9963 16.0809C92.112 16.1816 92.1691 16.3112 92.1691 16.4696V26.6198C92.1691 26.7782 92.112 26.9077 91.9963 27.0086C91.8956 27.1093 91.7727 27.1597 91.6284 27.1597H89.0738C88.9152 27.1597 88.7852 27.1093 88.6845 27.0086C88.583 26.9077 88.5331 26.7782 88.5331 26.6198V22.8836H84.6366V26.6198C84.6366 26.7782 84.5789 26.9077 84.4634 27.0086C84.3624 27.1093 84.2397 27.1597 84.0954 27.1597H81.5411Z" fill="#080A0C"/>
<path d="M95.7772 27.6666C95.6195 27.6666 95.4904 27.6155 95.3897 27.5133C95.2891 27.4111 95.2383 27.2797 95.2383 27.1191V12.8809C95.2383 12.7203 95.2891 12.5889 95.3897 12.4866C95.4904 12.3844 95.6195 12.3333 95.7772 12.3333H98.5572C98.7157 12.3333 98.8449 12.3844 98.9455 12.4866C99.0462 12.5889 99.096 12.7203 99.096 12.8809V18.16H100.411L103.6 12.7495C103.672 12.6327 103.772 12.5378 103.902 12.4647C104.031 12.3771 104.196 12.3333 104.398 12.3333H107.501C107.644 12.3333 107.759 12.3844 107.846 12.4866C107.932 12.5743 107.975 12.6765 107.975 12.7933C107.975 12.8809 107.946 12.9686 107.888 13.0562L103.88 19.7152L108.277 26.9219C108.32 26.9803 108.341 27.0606 108.341 27.1628C108.341 27.3088 108.291 27.433 108.19 27.5352C108.104 27.6228 107.989 27.6666 107.846 27.6666H104.656C104.426 27.6666 104.253 27.6155 104.138 27.5133C104.039 27.4111 103.959 27.3235 103.902 27.2505L100.561 21.6647H99.096V27.1191C99.096 27.2797 99.0462 27.4111 98.9455 27.5133C98.8449 27.6155 98.7157 27.6666 98.5572 27.6666H95.7772Z" fill="#105E8A"/>
<path d="M112.182 27.9868C112.038 27.9868 111.916 27.9357 111.815 27.8335C111.715 27.7313 111.664 27.6071 111.664 27.4611V17.144C111.664 16.9834 111.715 16.852 111.815 16.7497C111.916 16.6475 112.045 16.5963 112.203 16.5963H114.746C114.889 16.5963 115.011 16.6475 115.112 16.7497C115.227 16.852 115.285 16.9834 115.285 17.144V25.1393L114.315 24.6573L119.638 16.9468C119.71 16.8447 119.796 16.7643 119.896 16.7059C119.997 16.6329 120.112 16.5963 120.242 16.5963H122.547C122.691 16.5963 122.813 16.6475 122.914 16.7497C123.014 16.852 123.065 16.9761 123.065 17.1221V27.4393C123.065 27.5999 123.014 27.7313 122.914 27.8335C122.813 27.9357 122.684 27.9868 122.526 27.9868H119.983C119.825 27.9868 119.696 27.9357 119.595 27.8335C119.494 27.7313 119.444 27.5999 119.444 27.4393V19.6849L120.435 19.8821L115.069 27.6363C115.011 27.7386 114.933 27.8262 114.832 27.8993C114.732 27.9576 114.61 27.9868 114.466 27.9868H112.182Z" fill="#105E8A"/>
<path d="M130.017 27.9868C129.874 27.9868 129.744 27.9357 129.63 27.8335C129.529 27.7313 129.478 27.5999 129.478 27.4393V19.4659H126.203C126.06 19.4659 125.929 19.4148 125.815 19.3126C125.714 19.2103 125.664 19.0789 125.664 18.9183V17.144C125.664 16.9834 125.714 16.852 125.815 16.7497C125.929 16.6475 126.06 16.5963 126.203 16.5963H136.331C136.475 16.5963 136.597 16.6475 136.698 16.7497C136.812 16.852 136.87 16.9834 136.87 17.144V18.9183C136.87 19.0789 136.812 19.2103 136.698 19.3126C136.597 19.4148 136.475 19.4659 136.331 19.4659H133.055V27.4393C133.055 27.5999 133.005 27.7313 132.905 27.8335C132.804 27.9357 132.675 27.9868 132.517 27.9868H130.017Z" fill="#105E8A"/>
</g>
<defs>
<clipPath id="clip0_6795_169016">
<rect width="136.667" height="40" fill="white" transform="translate(0.332031)"/>
</clipPath>
</defs>
</svg>
