<svg width="136" height="41" viewBox="0 0 136 41" fill="none" xmlns="http://www.w3.org/2000/svg">
<path d="M50.1212 8.49131V16.7131H52.9417C54.1353 16.7131 54.9311 16.5371 55.3289 16.1762C55.8594 15.7096 56.1601 14.8822 56.2219 13.6938H56.7878V20.9296H56.2219C56.0805 19.9173 55.9302 19.2659 55.7887 18.9843C55.603 18.6233 55.3024 18.3416 54.878 18.1392C54.4536 17.9367 53.8082 17.831 52.9417 17.831H50.1212V24.6884C50.1212 25.6127 50.1654 26.1673 50.245 26.3697C50.3246 26.5722 50.4749 26.7307 50.6782 26.8451C50.8816 26.9596 49.5023 27.0211 50.077 27.0211H53.6225C54.7984 27.0211 55.6561 26.9419 56.1954 26.7747C56.7259 26.6074 57.2387 26.2906 57.7338 25.8064C58.3704 25.1726 59.0247 24.2131 59.6878 22.9367H60.3068L58.503 28.1479H44.1797V27.5845H44.9224C45.4175 27.5845 45.8861 27.4701 46.3282 27.2325C46.6553 27.0652 46.8764 26.8275 47.0002 26.493C47.1151 26.1673 47.177 25.4983 47.177 24.486V10.9737C47.177 9.65329 47.0444 8.84341 46.7791 8.53532C46.4078 8.13039 45.7888 7.91916 44.9312 7.91916H44.1885V7.35577H58.5119L58.7418 11.9068H58.1406C57.9284 10.8152 57.6896 10.0582 57.4244 9.65329C57.1591 9.24836 56.779 8.93146 56.2573 8.72019C55.8506 8.57055 55.1256 8.49131 54.0822 8.49131H50.1212Z" fill="#368787"/>
<path d="M65.558 11.9065L67.3263 14.5385C67.8215 15.2692 68.184 15.7269 68.4227 15.9206C68.6614 16.1142 68.962 16.2198 69.3246 16.2374V16.4575H65.7791V16.2374C66.0178 16.2374 66.1857 16.2111 66.3007 16.1671C66.3891 16.1319 66.4598 16.079 66.5129 15.9998C66.5659 15.9294 66.5925 15.8502 66.5925 15.7709C66.5925 15.6741 66.5748 15.5861 66.5394 15.4892C66.5129 15.4188 66.398 15.2428 66.2034 14.9523L64.8065 12.8396L63.0735 15.0491C62.8879 15.2868 62.7818 15.4364 62.7464 15.5157C62.711 15.5949 62.6934 15.6741 62.6934 15.7621C62.6934 15.8942 62.7464 15.9998 62.8613 16.079C62.9763 16.1582 63.1796 16.2111 63.4891 16.2287V16.4488H60.5625V16.2287C60.7659 16.2111 60.9515 16.1671 61.1018 16.1054C61.3494 15.9998 61.597 15.859 61.818 15.6829C62.0479 15.5069 62.3043 15.2339 62.5961 14.8642L64.5412 12.4171L62.9144 10.0491C62.4723 9.40652 62.101 8.98399 61.7915 8.78152C61.482 8.57906 61.1284 8.47344 60.7216 8.46464V8.24457H64.5412V8.46464C64.2141 8.47344 63.993 8.52625 63.8781 8.62308C63.7632 8.71991 63.7013 8.81672 63.7013 8.93116C63.7013 9.0808 63.7985 9.30086 63.993 9.58255L65.2574 11.4664L66.7251 9.6178C66.8931 9.39773 66.9992 9.24807 67.0346 9.16885C67.0699 9.08962 67.0965 9.00157 67.0965 8.92235C67.0965 8.84312 67.0699 8.7639 67.0257 8.70228C66.9638 8.61425 66.8842 8.56147 66.7958 8.52626C66.6986 8.49105 66.5129 8.47344 66.2211 8.46464V8.24457H69.1477V8.46464C68.9178 8.47344 68.7321 8.51745 68.5818 8.57027C68.3608 8.6671 68.1663 8.79033 67.9806 8.94878C67.7949 9.10723 67.5385 9.39771 67.2025 9.82025L65.5669 11.9065H65.558Z" fill="#368787"/>
<path d="M76.9696 8.05093L77.1553 10.8414H76.9696C76.7132 10.0052 76.3596 9.40655 75.891 9.03683C75.4224 8.66712 74.8653 8.48225 74.2111 8.48225C73.6629 8.48225 73.1678 8.62313 72.7257 8.89601C72.2836 9.1689 71.9388 9.61784 71.6824 10.2164C71.426 10.8238 71.3022 11.5721 71.3022 12.4787C71.3022 13.2182 71.4171 13.8696 71.6647 14.4154C71.9034 14.9611 72.2659 15.3749 72.7434 15.6653C73.2208 15.9558 73.769 16.1055 74.3879 16.1055C74.9272 16.1055 75.3958 15.991 75.8025 15.7622C76.2093 15.5333 76.6602 15.0844 77.1553 14.3977L77.341 14.521C76.9254 15.2516 76.448 15.7886 75.891 16.1231C75.3428 16.4664 74.6797 16.6336 73.9281 16.6336C72.5577 16.6336 71.5056 16.1319 70.754 15.1196C70.197 14.3713 69.9141 13.4822 69.9141 12.4611C69.9141 11.6425 70.0997 10.8854 70.4711 10.1988C70.8424 9.51219 71.3464 8.98402 71.9918 8.6055C72.6373 8.22699 73.3446 8.04211 74.1138 8.04211C74.7062 8.04211 75.2986 8.19176 75.8821 8.48225C76.0501 8.57028 76.1739 8.61432 76.2446 8.61432C76.3507 8.61432 76.448 8.5791 76.5276 8.49988C76.6337 8.39424 76.7044 8.23578 76.7486 8.04211H76.9608L76.9696 8.05093Z" fill="#368787"/>
<path d="M80.3412 12.0561H84.1784V9.7058C84.1784 9.28327 84.1519 9.01038 84.0988 8.87834C84.0546 8.78151 83.9751 8.69349 83.8425 8.61427C83.6656 8.51744 83.4799 8.46464 83.2854 8.46464H82.9936V8.24457H86.5214V8.46464H86.2297C86.0352 8.46464 85.8495 8.50863 85.6727 8.60546C85.54 8.66708 85.4516 8.76392 85.4074 8.89596C85.3632 9.02801 85.3367 9.29207 85.3367 9.69699V14.9963C85.3367 15.41 85.3632 15.6917 85.4162 15.8237C85.4604 15.9206 85.54 16.0086 85.6638 16.0878C85.8407 16.1846 86.0263 16.2374 86.2208 16.2374H86.5126V16.4575H82.9848V16.2374H83.2766C83.6126 16.2374 83.8601 16.1406 84.0104 15.9382C84.1165 15.8061 84.1607 15.498 84.1607 15.0051V12.5051H80.3235V15.0051C80.3235 15.4188 80.35 15.7005 80.4031 15.8326C80.4473 15.9294 80.5268 16.0174 80.6594 16.0966C80.8363 16.1935 81.022 16.2463 81.2165 16.2463H81.5171V16.4663H77.9805V16.2463H78.2723C78.6171 16.2463 78.8646 16.1495 79.0149 15.947C79.1122 15.815 79.1653 15.5069 79.1653 15.0139V9.71462C79.1653 9.29208 79.1387 9.01919 79.0857 8.88715C79.0415 8.79032 78.9619 8.70231 78.8381 8.62308C78.6612 8.52625 78.4756 8.47345 78.2811 8.47345H77.9893V8.25338H81.526V8.47345H81.2253C81.0308 8.47345 80.8451 8.51744 80.6683 8.61427C80.5445 8.67589 80.4561 8.77273 80.4031 8.90478C80.3589 9.03682 80.3323 9.30088 80.3323 9.7058V12.0561H80.3412Z" fill="#368787"/>
<path d="M92.4912 13.7111H89.2994L88.7424 15.0052C88.6009 15.3221 88.5391 15.5597 88.5391 15.7182C88.5391 15.8414 88.601 15.9559 88.7159 16.0527C88.8397 16.1495 89.0961 16.2111 89.494 16.2375V16.4576H86.8945V16.2375C87.2394 16.1759 87.4604 16.0967 87.5665 15.9999C87.7699 15.8062 87.9997 15.4101 88.2561 14.8203L91.1562 8.05975H91.3684L94.2419 14.8995C94.4718 15.4453 94.6839 15.8062 94.8696 15.9646C95.0553 16.1319 95.3206 16.2199 95.6565 16.2375V16.4576H92.4028V16.2375C92.73 16.2199 92.951 16.1671 93.066 16.0703C93.1809 15.9734 93.2428 15.8678 93.2428 15.727C93.2428 15.5509 93.1632 15.2692 92.9952 14.8819L92.5001 13.7024L92.4912 13.7111ZM92.3232 13.2622L90.9263 9.94356L89.494 13.2622H92.3321H92.3232Z" fill="#368787"/>
<path d="M95.6172 8.24457H97.8541L102.903 14.4065V9.67061C102.903 9.16885 102.85 8.85195 102.735 8.72871C102.584 8.56146 102.346 8.47345 102.018 8.47345H101.736V8.25338H104.609V8.47345H104.317C103.972 8.47345 103.725 8.57907 103.575 8.79034C103.486 8.92238 103.442 9.21288 103.442 9.67942V16.6072H103.221L97.7834 9.9875V15.0491C97.7834 15.5509 97.8364 15.8678 97.9514 15.991C98.1017 16.1583 98.3404 16.2463 98.6675 16.2463H98.9593V16.4663H96.0858V16.2463H96.3687C96.7224 16.2463 96.97 16.1406 97.1203 15.9294C97.2087 15.7973 97.2529 15.5068 97.2529 15.0491V9.3361C97.0141 9.05441 96.8285 8.86955 96.7047 8.78152C96.5809 8.6935 96.3952 8.61425 96.1565 8.53502C96.0416 8.49981 95.8648 8.48221 95.6172 8.48221V8.26214V8.24457Z" fill="#368787"/>
<path d="M112.436 8.05093L112.649 10.6478H112.436C112.224 10.0052 111.941 9.51222 111.605 9.18652C111.11 8.71117 110.482 8.4735 109.713 8.4735C108.661 8.4735 107.865 8.8872 107.317 9.71466C106.857 10.4101 106.627 11.2464 106.627 12.2147C106.627 12.9981 106.778 13.7111 107.087 14.3626C107.388 15.0052 107.786 15.4805 108.281 15.7798C108.776 16.0791 109.28 16.2287 109.802 16.2287C110.102 16.2287 110.403 16.1935 110.686 16.1143C110.969 16.0351 111.243 15.9206 111.508 15.771V13.3942C111.508 12.9805 111.473 12.7164 111.411 12.5844C111.349 12.4523 111.252 12.3643 111.119 12.2939C110.986 12.2234 110.756 12.1971 110.42 12.1971V11.9682H113.612V12.1971H113.462C113.144 12.1971 112.932 12.3027 112.808 12.5139C112.728 12.6636 112.684 12.9541 112.684 13.3942V15.9118C112.215 16.1583 111.756 16.3431 111.305 16.4664C110.854 16.5808 110.341 16.6424 109.793 16.6424C108.201 16.6424 106.99 16.1319 106.159 15.1196C105.54 14.3537 105.23 13.4735 105.23 12.4787C105.23 11.7569 105.407 11.0615 105.752 10.4013C106.168 9.60906 106.734 9.01046 107.459 8.57912C108.06 8.22701 108.776 8.05093 109.598 8.05093C109.899 8.05093 110.173 8.07735 110.42 8.12136C110.668 8.16538 111.013 8.2798 111.464 8.43825C111.694 8.52628 111.844 8.5615 111.924 8.5615C112.003 8.5615 112.065 8.52629 112.118 8.45587C112.171 8.38545 112.206 8.24458 112.215 8.04211H112.436V8.05093Z" fill="#368787"/>
<path d="M116.396 8.69374V11.942H118.208C118.677 11.942 118.995 11.8715 119.154 11.7307C119.367 11.5458 119.482 11.2201 119.508 10.7447H119.729V13.6057H119.508C119.455 13.2095 119.393 12.9454 119.34 12.8398C119.269 12.699 119.146 12.5845 118.978 12.5053C118.81 12.4261 118.553 12.3821 118.208 12.3821H116.396V15.0933C116.396 15.4542 116.414 15.6743 116.44 15.7535C116.475 15.8328 116.529 15.8944 116.608 15.9384C116.688 15.9824 116.847 16.0088 117.068 16.0088H118.465C118.933 16.0088 119.269 15.9736 119.482 15.912C119.694 15.8504 119.897 15.7183 120.092 15.5335C120.339 15.287 120.605 14.9085 120.861 14.3979H121.108L120.392 16.4577H114.035V16.2377H114.327C114.521 16.2377 114.707 16.1937 114.884 16.0969C115.017 16.0352 115.105 15.9384 115.149 15.8063C115.193 15.6743 115.22 15.4103 115.22 15.0141V9.67965C115.22 9.16028 115.167 8.83456 115.061 8.72012C114.911 8.56167 114.672 8.47367 114.327 8.47367H114.035V8.2536H120.392L120.481 10.0493H120.242C120.154 9.61801 120.065 9.31871 119.959 9.16026C119.853 9.00181 119.703 8.87859 119.499 8.79056C119.34 8.72894 119.048 8.7025 118.642 8.7025H116.378L116.396 8.69374Z" fill="#368787"/>
<path d="M129.826 16.4575H127.625L124.831 12.6195C124.627 12.6195 124.459 12.6283 124.327 12.6283C124.274 12.6283 124.221 12.6283 124.159 12.6283C124.097 12.6283 124.035 12.6283 123.973 12.6195V15.0051C123.973 15.5245 124.026 15.8413 124.141 15.9646C124.291 16.1406 124.53 16.2287 124.839 16.2287H125.158V16.4488H121.621V16.2287H121.931C122.275 16.2287 122.532 16.1142 122.682 15.8854C122.771 15.7621 122.806 15.4628 122.806 14.9963V9.68818C122.806 9.16882 122.753 8.85195 122.638 8.72871C122.479 8.55265 122.24 8.46464 121.931 8.46464H121.621V8.24457H124.627C125.503 8.24457 126.148 8.30616 126.564 8.4382C126.979 8.57024 127.333 8.79911 127.625 9.14241C127.916 9.48572 128.058 9.89066 128.058 10.366C128.058 10.8678 127.89 11.3079 127.563 11.6776C127.236 12.0473 126.723 12.3114 126.024 12.4699L127.731 14.829C128.12 15.3748 128.456 15.7269 128.739 15.9118C129.022 16.0966 129.384 16.2023 129.835 16.2551V16.4751L129.826 16.4575ZM123.964 12.2322C124.044 12.2322 124.106 12.2322 124.167 12.2322C124.221 12.2322 124.274 12.2322 124.309 12.2322C125.096 12.2322 125.688 12.065 126.086 11.7217C126.484 11.3784 126.687 10.947 126.687 10.4276C126.687 9.90828 126.528 9.49456 126.201 9.17766C125.883 8.86076 125.45 8.69352 124.919 8.69352C124.68 8.69352 124.362 8.72868 123.964 8.8079V12.2234V12.2322Z" fill="#368787"/>
<path d="M135.431 8.05072V10.8941H135.209C135.139 10.3483 135.006 9.91691 134.82 9.59121C134.635 9.2655 134.361 9.01023 134.016 8.82537C133.662 8.63171 133.309 8.54367 132.928 8.54367C132.504 8.54367 132.159 8.67572 131.885 8.931C131.611 9.18628 131.469 9.47676 131.469 9.80246C131.469 10.0489 131.558 10.2778 131.735 10.4891C131.991 10.7884 132.584 11.1933 133.53 11.7039C134.299 12.1176 134.829 12.4345 135.112 12.6546C135.395 12.8747 135.607 13.1299 135.766 13.4292C135.917 13.7285 135.996 14.0454 135.996 14.3711C135.996 14.9961 135.758 15.5331 135.271 15.982C134.785 16.431 134.166 16.6599 133.397 16.6599C133.158 16.6599 132.928 16.6423 132.725 16.607C132.601 16.5894 132.336 16.5102 131.947 16.387C131.549 16.2637 131.302 16.1933 131.195 16.1933C131.089 16.1933 131.01 16.2197 130.957 16.2813C130.904 16.343 130.851 16.4662 130.824 16.6599H130.603V13.843H130.824C130.93 14.4327 131.072 14.8729 131.248 15.1634C131.425 15.4539 131.699 15.7004 132.071 15.894C132.442 16.0877 132.84 16.1845 133.282 16.1845C133.786 16.1845 134.193 16.0525 134.484 15.7884C134.776 15.5243 134.927 15.2074 134.927 14.8465C134.927 14.644 134.873 14.4416 134.759 14.2303C134.644 14.0278 134.476 13.8341 134.237 13.6581C134.078 13.5348 133.645 13.2796 132.937 12.8834C132.23 12.4873 131.726 12.1793 131.434 11.9416C131.134 11.7039 130.912 11.4486 130.753 11.1669C130.603 10.8852 130.523 10.5772 130.523 10.2338C130.523 9.64406 130.753 9.13346 131.204 8.71093C131.655 8.2884 132.239 8.06834 132.937 8.06834C133.379 8.06834 133.839 8.17396 134.334 8.38523C134.564 8.48206 134.723 8.53486 134.812 8.53486C134.918 8.53486 135.006 8.49966 135.068 8.43804C135.139 8.37643 135.192 8.25319 135.227 8.05953H135.448L135.431 8.05072Z" fill="#368787"/>
<path d="M72.5766 40.9913L65.3176 23.3417L63.5493 37.3557C63.3194 38.6674 63.346 39.4508 63.6289 39.7677C64.0091 40.199 64.6192 40.4191 65.4503 40.4191H66.193V40.9913H58.8633V40.4191H59.6059C60.4989 40.4191 61.1267 40.155 61.4981 39.618C61.7279 39.2835 61.9136 38.4209 62.1789 37.3557L63.9472 23.6498C63.9472 22.7255 63.8411 22.0477 63.6377 21.6428C63.4962 21.3435 63.2222 21.097 62.8332 20.8945C62.4441 20.6921 61.8164 20.5952 60.9587 20.5952V20.0231H66.9268L73.6907 36.4314L80.3219 20.0231H86.29V20.5952H85.5561C84.6542 20.5952 84.0176 20.8593 83.6463 21.3963C83.4164 21.7308 83.3015 22.479 83.3015 23.6586L85.0698 37.3645C85.3262 38.8434 85.5737 39.4596 85.8567 39.7765C86.2369 40.2078 86.8469 40.4279 87.678 40.4279H88.4119V41H79.4642V40.4279H80.2069C81.1088 40.4279 81.7365 40.1638 82.099 39.6268C82.3289 39.2923 82.3201 38.6497 82.0813 37.3645L80.313 23.3505L73.0717 41H72.5589L72.5766 40.9913Z" fill="#368787"/>
<path d="M93.5343 21.7393C94.6041 21.7393 95.5324 22.1442 96.3194 22.954C97.1063 23.7639 97.4953 24.7762 97.4953 25.991C97.4953 27.2058 97.0974 28.2798 96.3105 29.0984C95.5236 29.9259 94.5599 30.3308 93.437 30.3308C92.3141 30.3308 91.3504 29.9259 90.5723 29.1248C89.8031 28.3237 89.4141 27.285 89.4141 26.0086C89.4141 24.7322 89.8562 23.6407 90.7492 22.8132C91.5272 22.1002 92.4556 21.7393 93.5343 21.7393ZM93.4193 22.1794C92.6855 22.1794 92.0842 22.4523 91.6422 22.9981C91.0851 23.6759 90.8111 24.6706 90.8111 25.9822C90.8111 27.2938 91.1028 28.359 91.6775 29.0808C92.1196 29.6266 92.7031 29.9083 93.4281 29.9083C94.2062 29.9083 94.8428 29.6089 95.3468 29.0015C95.8508 28.403 96.1072 27.4523 96.1072 26.1495C96.1072 24.741 95.8331 23.6935 95.276 23.0069C94.834 22.4611 94.215 22.1794 93.4281 22.1794H93.4193Z" fill="#368787"/>
<path d="M97.8125 21.9331H100.049L105.098 28.095V23.3592C105.098 22.8574 105.045 22.5405 104.93 22.4172C104.78 22.25 104.541 22.162 104.214 22.162H103.931V21.9419H106.804V22.162H106.513C106.168 22.162 105.92 22.2676 105.77 22.4789C105.682 22.6109 105.637 22.9014 105.637 23.368V30.2957H105.416L99.9787 23.676V28.7376C99.9787 29.2394 100.032 29.5563 100.147 29.6795C100.297 29.8468 100.536 29.9348 100.863 29.9348H101.155V30.1549H98.2811V29.9348H98.564C98.9177 29.9348 99.1653 29.8292 99.3156 29.6179C99.404 29.4859 99.4482 29.1954 99.4482 28.7376V23.0246C99.2095 22.743 99.0238 22.5581 98.9 22.4701C98.7762 22.382 98.5905 22.3028 98.3518 22.2236C98.2369 22.1884 98.0601 22.1708 97.8125 22.1708V21.9507V21.9331Z" fill="#368787"/>
<path d="M110.826 29.9258V30.1459H107.289V29.9258H107.581C107.926 29.9258 108.173 29.829 108.324 29.6265C108.421 29.4945 108.474 29.1864 108.474 28.6934V23.3854C108.474 22.9716 108.447 22.6987 108.394 22.5579C108.35 22.4611 108.27 22.373 108.147 22.2938C107.97 22.1969 107.784 22.1441 107.59 22.1441H107.298V21.9241H110.835V22.1441H110.534C110.198 22.1441 109.95 22.241 109.8 22.4435C109.694 22.5755 109.65 22.8836 109.65 23.3766V28.6846C109.65 29.0983 109.676 29.38 109.729 29.5121C109.774 29.6089 109.853 29.6969 109.986 29.7761C110.163 29.873 110.348 29.9258 110.543 29.9258H110.843H110.826Z" fill="#368787"/>
<path d="M118.345 21.9329L118.434 23.8607H118.204C118.16 23.5174 118.098 23.2797 118.018 23.13C117.894 22.8924 117.726 22.7252 117.514 22.6107C117.302 22.4963 117.028 22.4435 116.692 22.4435H115.534V28.7198C115.534 29.2216 115.587 29.5385 115.702 29.6617C115.852 29.8289 116.091 29.917 116.418 29.917H116.701V30.1371H113.199V29.917H113.491C113.836 29.917 114.084 29.8114 114.234 29.6001C114.322 29.4681 114.367 29.1776 114.367 28.7198V22.4435H113.376C112.987 22.4435 112.713 22.4698 112.554 22.5315C112.342 22.6107 112.165 22.7515 112.015 22.9716C111.864 23.1917 111.776 23.4822 111.749 23.8519H111.52L111.617 21.9241H118.354L118.345 21.9329Z" fill="#368787"/>
<path d="M123.085 21.7393C124.155 21.7393 125.083 22.1442 125.87 22.954C126.657 23.7639 127.046 24.7762 127.046 25.991C127.046 27.2058 126.648 28.2798 125.861 29.0984C125.074 29.9259 124.111 30.3308 122.988 30.3308C121.865 30.3308 120.901 29.9259 120.123 29.1248C119.354 28.3237 118.965 27.285 118.965 26.0086C118.965 24.7322 119.407 23.6407 120.3 22.8132C121.078 22.1002 122.006 21.7393 123.085 21.7393ZM122.97 22.1794C122.236 22.1794 121.635 22.4523 121.193 22.9981C120.636 23.6759 120.362 24.6706 120.362 25.9822C120.362 27.2938 120.654 28.359 121.228 29.0808C121.67 29.6266 122.254 29.9083 122.979 29.9083C123.757 29.9083 124.394 29.6089 124.898 29.0015C125.402 28.403 125.658 27.4523 125.658 26.1495C125.658 24.741 125.384 23.6935 124.827 23.0069C124.385 22.4611 123.766 22.1794 122.979 22.1794H122.97Z" fill="#368787"/>
<path d="M135.947 30.1461H133.746L130.952 26.3081C130.748 26.3081 130.58 26.3169 130.448 26.3169C130.395 26.3169 130.342 26.3169 130.28 26.3169C130.218 26.3169 130.156 26.3169 130.094 26.3081V28.6936C130.094 29.213 130.147 29.5299 130.262 29.6532C130.412 29.8292 130.651 29.9172 130.961 29.9172H131.279V30.1373H127.742V29.9172H128.052C128.396 29.9172 128.653 29.8028 128.803 29.5739C128.892 29.4507 128.927 29.1514 128.927 28.6848V23.3768C128.927 22.8574 128.874 22.5405 128.759 22.4172C128.6 22.2412 128.361 22.1532 128.052 22.1532H127.742V21.9331H130.748C131.624 21.9331 132.269 21.9947 132.685 22.1267C133.1 22.2588 133.454 22.4877 133.746 22.831C134.037 23.1743 134.179 23.5792 134.179 24.0546C134.179 24.5563 134.011 24.9965 133.684 25.3662C133.357 25.7359 132.844 26 132.145 26.1584L133.852 28.5176C134.241 29.0633 134.577 29.4155 134.86 29.6003C135.143 29.7852 135.505 29.8908 135.956 29.9436V30.1637L135.947 30.1461ZM130.085 25.9207C130.165 25.9207 130.227 25.9207 130.289 25.9207C130.342 25.9207 130.395 25.9207 130.43 25.9207C131.217 25.9207 131.809 25.7535 132.207 25.4102C132.605 25.0669 132.808 24.6355 132.808 24.1162C132.808 23.5968 132.649 23.1831 132.322 22.8662C132.004 22.5493 131.571 22.3821 131.04 22.3821C130.801 22.3821 130.483 22.4173 130.085 22.4965V25.912V25.9207Z" fill="#368787"/>
<path d="M109.282 39.2391C109.441 39.2391 109.582 39.2919 109.688 39.4063C109.795 39.5208 109.856 39.6528 109.856 39.8113C109.856 39.9697 109.803 40.1018 109.688 40.2162C109.573 40.3307 109.441 40.3835 109.282 40.3835C109.123 40.3835 108.99 40.3307 108.875 40.2162C108.76 40.1018 108.707 39.9697 108.707 39.8113C108.707 39.6528 108.76 39.512 108.875 39.4063C108.99 39.3007 109.123 39.2391 109.282 39.2391Z" fill="black"/>
<path d="M117 33.086L117.159 35.4627H117C116.787 34.7497 116.478 34.2391 116.08 33.9222C115.682 33.6053 115.205 33.4557 114.648 33.4557C114.179 33.4557 113.763 33.5701 113.383 33.8078C113.003 34.0455 112.711 34.4152 112.499 34.9346C112.287 35.4539 112.172 36.0877 112.172 36.8624C112.172 37.4962 112.278 38.042 112.481 38.5085C112.685 38.975 112.994 39.3271 113.401 39.5736C113.808 39.8201 114.276 39.9434 114.798 39.9434C115.258 39.9434 115.656 39.8465 116.009 39.6528C116.363 39.4592 116.743 39.0719 117.159 38.4909L117.318 38.5965C116.964 39.2215 116.557 39.6704 116.089 39.9609C115.62 40.2514 115.063 40.3922 114.418 40.3922C113.251 40.3922 112.349 39.9609 111.712 39.1071C111.235 38.4645 110.996 37.7162 110.996 36.8448C110.996 36.1493 111.155 35.5067 111.465 34.917C111.774 34.3272 112.207 33.8782 112.764 33.5613C113.321 33.2444 113.914 33.0771 114.568 33.0771C115.072 33.0771 115.576 33.2004 116.071 33.4469C116.213 33.5261 116.319 33.5613 116.381 33.5613C116.478 33.5613 116.557 33.5261 116.628 33.4645C116.717 33.3676 116.778 33.2444 116.823 33.0771H117.008L117 33.086Z" fill="black"/>
<path d="M121.574 33.086C122.484 33.086 123.271 33.4293 123.943 34.1159C124.615 34.8025 124.942 35.6652 124.942 36.6951C124.942 37.7251 124.606 38.6405 123.934 39.3447C123.262 40.0489 122.449 40.4011 121.485 40.4011C120.521 40.4011 119.708 40.0578 119.045 39.3712C118.382 38.6845 118.055 37.8042 118.055 36.7127C118.055 35.6212 118.435 34.6969 119.195 33.9927C119.858 33.3853 120.645 33.0771 121.565 33.0771L121.574 33.086ZM121.476 33.4645C120.849 33.4645 120.345 33.6934 119.964 34.1599C119.487 34.7409 119.257 35.586 119.257 36.6951C119.257 37.8043 119.505 38.711 119.991 39.3271C120.371 39.7937 120.866 40.0314 121.485 40.0314C122.148 40.0314 122.688 39.7761 123.121 39.2655C123.554 38.755 123.766 37.9451 123.766 36.8448C123.766 35.6476 123.528 34.7585 123.059 34.1687C122.679 33.7022 122.157 33.4645 121.485 33.4645H121.476Z" fill="black"/>
<path d="M129.689 40.2428L126.974 34.3537V39.028C126.974 39.4593 127.019 39.7234 127.116 39.8291C127.24 39.9699 127.443 40.0491 127.726 40.0491H127.974V40.2428H125.524V40.0491H125.772C126.073 40.0491 126.276 39.9611 126.4 39.785C126.479 39.6794 126.515 39.4241 126.515 39.028V34.4593C126.515 34.1512 126.479 33.9224 126.409 33.7903C126.364 33.6935 126.267 33.6055 126.143 33.5439C126.02 33.4822 125.807 33.447 125.516 33.447V33.2534H127.505L130.051 38.7287L132.562 33.2534H134.552V33.447H134.304C134.004 33.447 133.791 33.5351 133.668 33.7111C133.588 33.8168 133.553 34.072 133.553 34.4681V39.0368C133.553 39.4681 133.597 39.7322 133.694 39.8378C133.818 39.9787 134.021 40.0579 134.304 40.0579H134.552V40.2516H131.563V40.0579H131.811C132.111 40.0579 132.324 39.9699 132.439 39.7938C132.518 39.6882 132.554 39.4329 132.554 39.0368V34.3625L129.848 40.2516H129.68L129.689 40.2428Z" fill="black"/>
<path d="M18.396 21.2202L16.4332 16.4491L15.9557 20.2431C15.8939 20.5952 15.9027 20.8065 15.9734 20.8945C16.0795 21.0089 16.2387 21.0706 16.4686 21.0706H16.6719V21.229H14.6914V21.0706H14.8948C15.1335 21.0706 15.3103 21.0001 15.4076 20.8505C15.4695 20.7625 15.5225 20.5248 15.5933 20.2431L16.0707 16.5371C16.0707 16.2818 16.0442 16.1058 15.9823 15.9913C15.9469 15.9121 15.8674 15.8417 15.7701 15.7889C15.6729 15.7361 15.496 15.7097 15.2661 15.7097V15.5512H16.8842L18.7143 19.9878L20.5092 15.5512H22.1272V15.7097H21.9327C21.6851 15.7097 21.5171 15.7801 21.4199 15.9297C21.358 16.0177 21.3315 16.2202 21.3315 16.5371L21.8089 20.2431C21.8796 20.6392 21.9416 20.8065 22.0211 20.8945C22.1272 21.0089 22.2864 21.0706 22.5163 21.0706H22.7107V21.229H20.2882V21.0706H20.4915C20.7391 21.0706 20.9071 21.0001 21.0043 20.8505C21.0662 20.7625 21.0662 20.5864 21.0043 20.2431L20.5269 16.4491L18.564 21.2202H18.4226H18.396Z" fill="#368787"/>
<path d="M9.76776 15.8416V19.301H10.9526C11.4565 19.301 11.7925 19.2218 11.9605 19.0722C12.1816 18.8785 12.3142 18.5264 12.3318 18.0246H12.5706V21.0704H12.3318C12.27 20.6479 12.208 20.3749 12.1462 20.2517C12.0666 20.1021 11.9428 19.9788 11.766 19.8996C11.5891 19.8116 11.3151 19.7676 10.9526 19.7676H9.76776V22.6549C9.76776 23.0422 9.78544 23.2799 9.82081 23.3591C9.85617 23.4383 9.91808 23.5087 10.0065 23.5616C10.0949 23.6144 9.5114 23.632 9.75896 23.632H11.2531C11.7483 23.632 12.1108 23.5968 12.3318 23.5264C12.5529 23.4559 12.7739 23.3239 12.9773 23.1214C13.2425 22.8573 13.5166 22.4524 13.7995 21.9154H14.056L13.2956 24.1073H7.26562V23.8697H7.57506C7.77842 23.8697 7.98176 23.8168 8.16743 23.72C8.3089 23.6496 8.39732 23.544 8.45037 23.4119C8.50342 23.2711 8.52112 22.9894 8.52112 22.5668V16.8803C8.52112 16.3257 8.46807 15.9824 8.35312 15.8503C8.19398 15.6743 7.93757 15.5951 7.57506 15.5951H7.26562V15.3574H13.2956L13.3928 17.2764H13.1364C13.048 16.8187 12.9419 16.5018 12.8358 16.3257C12.7297 16.1496 12.5617 16.0264 12.3495 15.9296C12.1727 15.8679 11.8721 15.8327 11.4388 15.8327H9.77661L9.76776 15.8416Z" fill="#368787"/>
<path d="M21.5283 26.748C21.5283 26.748 16.7362 29.116 10.2553 28.5086C5.96712 28.1037 3.08474 25.9206 2.44815 22.9365C2.06796 21.1407 3.4826 17.2851 5.25092 15.3837C7.01924 13.4823 7.24913 13.0685 7.24913 13.0685C7.24913 13.0685 4.53478 14.653 2.3509 17.3379C0.644471 19.4329 -1.28304 24.6354 1.1484 28.1037C3.3588 31.2551 7.14305 34.5649 14.7291 34.0984C20.6795 33.7287 24.6317 30.9382 24.6317 30.9382L21.5371 26.7568L21.5283 26.748Z" fill="url(#paint0_linear_8924_74228)"/>
<path d="M11.795 9.94368C11.795 9.94368 15.1725 8.23596 19.7613 8.64088C22.794 8.90497 25.7205 11.5986 26.2156 13.7025C26.6489 15.5511 26.0035 18.0863 25.2254 19.75C24.7126 20.8503 23.0238 23.8697 23.0238 23.8697C23.0238 23.8697 25.579 21.2904 26.8699 19.213C27.8955 17.5492 29.3367 13.2447 27.1087 10.0493C25.5525 7.8134 21.786 4.574 16.4191 4.95252C12.2105 5.24301 9.16016 6.44895 9.16016 6.44895L11.8038 9.9613L11.795 9.94368Z" fill="url(#paint1_linear_8924_74228)"/>
<path d="M14.7188 24.838L22.2076 29.5475L22.3844 37.3996L31.6416 24.4683L14.7188 24.838Z" fill="#368787"/>
<path fill-rule="evenodd" clip-rule="evenodd" d="M31.9403 24.3124C31.9996 24.4239 31.9905 24.5591 31.917 24.6618L22.6598 37.5931C22.5761 37.71 22.4266 37.7604 22.2888 37.7182C22.1509 37.676 22.0557 37.5506 22.0525 37.4071L21.8797 29.7339L14.5428 25.1199C14.4179 25.0413 14.3594 24.8906 14.3989 24.7489C14.4384 24.6072 14.5665 24.508 14.7142 24.5048L31.637 24.1351C31.7637 24.1323 31.8811 24.201 31.9403 24.3124ZM15.8398 25.147L22.3892 29.2657C22.484 29.3254 22.5426 29.4284 22.5451 29.5401L22.6993 36.3893L30.9842 24.8162L15.8398 25.147Z" fill="white"/>
<path d="M16.5854 12.3028L10.0338 7.97184V1L1.55469 12.3028H16.5854Z" fill="#368787"/>
<path fill-rule="evenodd" clip-rule="evenodd" d="M10.1382 0.683648C10.2751 0.728922 10.3675 0.856381 10.3675 0.999979V7.79302L16.7695 12.0251C16.8925 12.1064 16.9475 12.2583 16.9048 12.3991C16.8621 12.5398 16.7319 12.6361 16.5843 12.6361H1.55355C1.42686 12.6361 1.31102 12.5649 1.25425 12.4521C1.19748 12.3394 1.2095 12.2044 1.28531 12.1033L9.76443 0.800513C9.85074 0.685462 10.0014 0.638374 10.1382 0.683648ZM2.22149 11.9694H15.4748L9.84748 8.24951C9.75404 8.18774 9.69787 8.08349 9.69787 7.97182V2.00331L2.22149 11.9694Z" fill="white"/>
<defs>
<linearGradient id="paint0_linear_8924_74228" x1="-0.00983736" y1="23.5967" x2="24.6229" y2="23.5967" gradientUnits="userSpaceOnUse">
<stop stop-color="#B7CDCD" stop-opacity="0.4"/>
<stop offset="1" stop-color="#3B9393"/>
</linearGradient>
<linearGradient id="paint1_linear_8924_74228" x1="28.3128" y1="14.2777" x2="9.24203" y2="14.4248" gradientUnits="userSpaceOnUse">
<stop stop-color="#BED2D2" stop-opacity="0.4"/>
<stop offset="1" stop-color="#2B9898"/>
</linearGradient>
</defs>
</svg>
