<svg width="119" height="40" viewBox="0 0 119 40" fill="none" xmlns="http://www.w3.org/2000/svg">
<path d="M0.978171 10.6615C0.966444 10.5001 1.01921 10.3387 1.12475 10.2147C1.18046 10.1571 1.24788 10.111 1.32411 10.0821C1.40033 10.0533 1.47949 10.0389 1.56157 10.0447H14.7776C14.8626 10.0389 14.9476 10.0533 15.0268 10.0821C15.106 10.111 15.1763 10.1571 15.2379 10.2176C15.3464 10.3502 15.4021 10.5174 15.3933 10.6874V14.008C15.3903 14.1665 15.3346 14.3222 15.2379 14.449C15.1822 14.5182 15.1148 14.5729 15.0356 14.6104C14.9564 14.6479 14.8685 14.668 14.7805 14.6652H6.13794V18.0001H12.8046C12.9541 17.9944 13.1007 18.0347 13.2267 18.1183C13.2854 18.1673 13.3294 18.2307 13.3587 18.2999C13.388 18.3691 13.3968 18.4469 13.388 18.5218V21.3812C13.388 21.4879 13.3557 21.5916 13.2971 21.6781C13.2385 21.7675 13.1535 21.8366 13.0538 21.877C12.9805 21.9087 12.8984 21.9231 12.8192 21.9173H6.15259V25.359H15.1147C15.1968 25.3474 15.2819 25.3561 15.361 25.382C15.4402 25.4079 15.5105 25.4541 15.5692 25.5146C15.6278 25.5751 15.6718 25.6472 15.6982 25.725C15.7245 25.8057 15.7304 25.8893 15.7187 25.97V29.3424C15.7187 29.3886 15.7069 29.4347 15.6894 29.4779C15.6718 29.5211 15.6425 29.5586 15.6102 29.5903C15.6102 29.8353 15.3962 29.9622 15.0708 29.9622H1.57624C1.42086 29.9708 1.26548 29.9218 1.14528 29.8209C1.08958 29.7633 1.0456 29.697 1.01922 29.622C0.992833 29.5471 0.981105 29.4664 0.9899 29.3886V10.6615H0.978171ZM17.0438 29.6422L17.2578 29.2329C17.3311 29.0974 17.422 28.9562 17.5158 28.815L23.517 19.7843L20.4885 15.1869L17.4513 10.5952C17.4044 10.5318 17.3634 10.4626 17.3252 10.3934C17.2959 10.3271 17.2754 10.258 17.2666 10.183C17.2666 10.1081 17.334 10.0793 17.422 10.0793C17.5129 10.085 17.6008 10.0619 17.68 10.0187H22.3179C22.4821 10.0187 22.6433 10.0677 22.7811 10.1599C22.9189 10.2522 23.0274 10.3819 23.0948 10.5347L26.3607 15.4751L29.6647 10.5404C29.7292 10.3934 29.8318 10.2666 29.9608 10.1773C30.0898 10.0879 30.2452 10.0331 30.4035 10.0274H35.1147C35.1909 10.0331 35.2642 10.0475 35.3375 10.0706C35.3639 10.0793 35.3873 10.0994 35.402 10.1196C35.4167 10.1427 35.4255 10.1686 35.4255 10.1974C35.4196 10.3242 35.3668 10.4482 35.2789 10.5404L29.1839 19.7815L35.443 29.1868C35.5222 29.2934 35.5896 29.4087 35.6424 29.5298C35.6893 29.6105 35.7128 29.6999 35.7098 29.7921C35.7098 29.9276 35.6277 29.9939 35.4665 29.9939H30.6966C30.5471 29.9939 30.4005 29.9478 30.2833 29.8584C30.1543 29.7633 30.0517 29.6393 29.9872 29.4923L26.3636 24.082L22.7782 29.4923C22.7137 29.6365 22.6111 29.7633 22.4821 29.8584C22.3619 29.9478 22.2153 29.9939 22.0687 29.9939H17.2842C17.2168 29.9939 17.1523 29.9737 17.0995 29.9333C17.0731 29.9132 17.0526 29.8872 17.0379 29.8584C17.0233 29.8296 17.0174 29.795 17.0174 29.7633C17.0174 29.7229 17.0262 29.6797 17.0467 29.6451L17.0438 29.6422ZM38.4128 10.6327C38.407 10.4799 38.4597 10.33 38.5594 10.2147C38.6151 10.1571 38.6826 10.111 38.7588 10.0821C38.835 10.0533 38.9142 10.0389 38.9962 10.0447H43.3586C43.4934 10.0447 43.6254 10.0793 43.7426 10.1427C43.8863 10.2147 44.0094 10.3243 44.0915 10.4626C45.2173 12.2987 46.3372 14.106 47.4454 15.8873L50.8227 21.3149V10.552C50.8549 10.405 50.9429 10.2753 51.066 10.1859C51.1686 10.0966 51.3005 10.0504 51.4354 10.0504H55.2348C55.4049 10.0476 55.569 10.1023 55.701 10.2061C55.7655 10.258 55.8124 10.3243 55.8446 10.4021C55.8769 10.477 55.8915 10.5577 55.8857 10.6413V29.4721C55.8915 29.5471 55.8827 29.622 55.8534 29.6883C55.8241 29.7575 55.7801 29.8181 55.7215 29.8671C55.5954 29.9564 55.4401 30.0025 55.2847 29.9939H51.0044C50.8872 29.9939 50.7757 29.9535 50.6937 29.8757C50.591 29.7777 50.5002 29.671 50.421 29.5557L46.9089 23.7131C45.7391 21.7646 44.5664 19.8161 43.3908 17.8676V29.4058C43.4026 29.5644 43.3557 29.72 43.256 29.8469C43.1915 29.9016 43.1153 29.9449 43.0302 29.9708C42.9482 29.9968 42.8602 30.0054 42.7752 29.9968H38.9904C38.9083 30.0054 38.8233 29.9968 38.747 29.9651C38.6708 29.9362 38.6005 29.8872 38.5477 29.8238C38.4509 29.7114 38.4011 29.5673 38.407 29.4203V10.6327H38.4128ZM100.09 20.0351C100.09 20.9488 99.9694 21.8597 99.7261 22.7446C99.4915 23.5747 99.1456 24.3703 98.697 25.1111C97.8146 26.5811 96.5569 27.8032 95.053 28.6564C93.4845 29.524 91.7138 29.9766 89.9137 29.9708H83.3438C83.1943 29.9708 83.0448 29.9362 82.9129 29.8671C82.7868 29.7921 82.7282 29.6422 82.7282 29.403V10.6615C82.7282 10.5722 82.7428 10.4857 82.7751 10.4021C82.8073 10.3214 82.8572 10.2464 82.9217 10.183C82.9774 10.1196 83.0507 10.0706 83.1298 10.0389C83.209 10.0072 83.294 9.99566 83.3819 10.0014H89.9518C90.8636 10.0014 91.7724 10.1167 92.6549 10.3531C93.5021 10.5779 94.3171 10.9123 95.0764 11.3446C95.824 11.7741 96.5159 12.293 97.1345 12.8896C97.7531 13.4892 98.2896 14.1665 98.7264 14.9044C99.172 15.6596 99.5209 16.4667 99.7554 17.3083C99.9929 18.1961 100.104 19.1127 100.09 20.0322V20.0351ZM87.8909 14.8468V25.1831H89.6088L90.1952 25.1399C90.8431 25.088 91.4763 24.9208 92.0626 24.647C92.6167 24.376 93.1181 24.0128 93.5432 23.5718C93.98 23.1193 94.3259 22.5861 94.5575 22.0038C94.8067 21.3812 94.9328 20.7125 94.9269 20.0409C94.9357 19.3491 94.7979 18.6631 94.5311 18.0261C94.2614 17.3862 93.8627 16.8097 93.3585 16.3254C92.8747 15.8614 92.3031 15.4982 91.6757 15.2561C91.0219 14.9938 90.3212 14.8612 89.6176 14.8669L87.8909 14.8439V14.8468ZM103.57 10.6586C103.558 10.4972 103.611 10.3358 103.719 10.2118C103.775 10.1542 103.842 10.1081 103.918 10.0793C103.995 10.0504 104.077 10.036 104.156 10.0418H117.378C117.46 10.036 117.545 10.0476 117.624 10.0793C117.703 10.1081 117.774 10.1542 117.829 10.2147C117.944 10.3444 118.002 10.5145 117.993 10.6846V14.0051C117.993 14.1665 117.935 14.3222 117.829 14.4461C117.774 14.5153 117.7 14.5701 117.621 14.6046C117.539 14.6392 117.451 14.6536 117.363 14.6479H108.726V17.9828H115.393C115.543 17.9771 115.692 18.0174 115.815 18.101C115.874 18.15 115.918 18.2134 115.947 18.2826C115.976 18.3518 115.985 18.4296 115.979 18.5046V21.3783C115.979 21.5109 115.927 21.6406 115.83 21.7357C115.78 21.7963 115.715 21.8453 115.639 21.877C115.566 21.9087 115.487 21.9202 115.405 21.9173H108.738V25.359H117.7C117.782 25.3474 117.867 25.3561 117.946 25.382C118.026 25.4079 118.096 25.454 118.155 25.5117C118.213 25.5722 118.257 25.6443 118.284 25.725C118.31 25.8057 118.316 25.8893 118.304 25.97V29.3424C118.304 29.4347 118.26 29.524 118.193 29.5903C118.193 29.8353 117.979 29.9651 117.645 29.9651H104.156C104.08 29.9708 104 29.9593 103.927 29.9362C103.854 29.9132 103.786 29.8728 103.728 29.8238C103.672 29.7662 103.628 29.6999 103.602 29.6249C103.575 29.55 103.564 29.4693 103.572 29.3915V10.6644L103.57 10.6586Z" fill="black"/>
<path fill-rule="evenodd" clip-rule="evenodd" d="M75.8747 11.9469L68.8373 22.3132L66.0608 20.3067C65.6023 19.9757 65.0493 20.2535 65.1496 20.7618L66.631 28.1907C66.7026 28.5513 67.0837 28.8261 67.439 28.7729L74.717 27.6677C75.2128 27.5909 75.2758 26.9614 74.8202 26.6305L72.0408 24.624L78.422 15.2241C80.2128 18.7494 80.0781 23.1583 77.7113 26.6423C74.3331 31.6186 67.6826 32.8272 62.8573 29.3432C58.032 25.8592 56.8601 19.0006 60.2383 14.0243C63.6166 9.04807 70.2671 7.83946 75.0924 11.3234C75.3646 11.5214 75.6254 11.7283 75.8747 11.944V11.9469Z" fill="black"/>
<path fill-rule="evenodd" clip-rule="evenodd" d="M72.1167 11.9518C72.0431 11.5735 71.6517 11.282 71.2868 11.3409L63.8117 12.5005C63.2997 12.5811 63.2379 13.2415 63.7058 13.5888L66.5575 15.6941L59.6445 26.0933C60.3685 27.3366 61.3014 28.4373 62.3932 29.3333L69.8447 18.1187L72.6965 20.224C73.1673 20.5712 73.7353 20.2798 73.6323 19.7465L72.1108 11.9518H72.1167Z" fill="#5490E0"/>
</svg>
