<svg width="150" height="40" viewBox="0 0 150 40" fill="none" xmlns="http://www.w3.org/2000/svg">
<g clip-path="url(#clip0_6795_169014)">
<path d="M52.2406 13.8644V20.5707H50.081L49.9847 19.3013C48.7483 20.2993 47.1346 20.8023 45.1276 20.8023C43.6022 20.8023 42.2695 20.5468 41.1455 20.0358C40.0216 19.5249 39.1465 18.7903 38.5363 17.8403C37.9262 16.8902 37.6211 15.7725 37.6211 14.4791V14.2316C37.6211 12.9622 37.9262 11.8524 38.5443 10.8944C39.1625 9.93633 40.0376 9.19383 41.1776 8.67489C42.3176 8.14796 43.6423 7.88449 45.1436 7.88449C46.5486 7.88449 47.7769 8.06812 48.8527 8.44336C49.9285 8.81859 50.7474 9.34552 51.3334 10.0401C51.9195 10.7347 52.2085 11.5251 52.2085 12.4273V12.5231H49.784V12.4273C49.784 12.0121 49.5752 11.6209 49.1658 11.2616C48.7563 10.9024 48.1944 10.6149 47.4879 10.4074C46.7814 10.1998 46.0107 10.096 45.1677 10.096C43.546 10.096 42.2936 10.4553 41.3944 11.1658C40.4952 11.8844 40.0456 12.8903 40.0456 14.1997V14.519C40.0456 15.8523 40.4792 16.8663 41.3543 17.5608C42.2293 18.2554 43.4978 18.6067 45.1677 18.6067C46.1712 18.6067 47.0704 18.463 47.8652 18.1676C48.66 17.8722 49.3183 17.473 49.8562 16.97V16.004H43.4577V13.8723H52.2486L52.2406 13.8644Z" fill="black"/>
<path d="M65.3512 16.6029H56.5843C56.6726 17.2735 57.0017 17.7925 57.5718 18.1597C58.1418 18.527 58.8964 18.7106 59.8357 18.7106C60.7108 18.7106 61.4253 18.5829 61.9793 18.3274C62.5332 18.0719 62.8303 17.7286 62.8945 17.2975H65.3592C65.2307 18.4152 64.6848 19.2774 63.7214 19.8842C62.758 20.491 61.4655 20.7944 59.8357 20.7944C58.6797 20.7944 57.6761 20.6028 56.8251 20.2116C55.9741 19.8283 55.3238 19.2774 54.8662 18.5589C54.4086 17.8404 54.1758 17.0021 54.1758 16.044V15.6608C54.1758 14.6868 54.4086 13.8325 54.8662 13.114C55.3238 12.3954 55.9822 11.8366 56.8332 11.4533C57.6842 11.0701 58.6877 10.8705 59.8357 10.8705C61.5698 10.8705 62.9186 11.2857 63.8981 12.124C64.8695 12.9623 65.3592 14.1119 65.3592 15.581V16.5869L65.3512 16.6029ZM57.7243 13.4333C57.1784 13.7367 56.8171 14.1598 56.6565 14.7027H62.8704C62.7179 14.1598 62.3727 13.7367 61.8348 13.4333C61.2969 13.1299 60.6225 12.9782 59.8116 12.9782C59.0008 12.9782 58.2782 13.1299 57.7323 13.4333H57.7243Z" fill="black"/>
<path d="M71.3863 13.1219V17.3054C71.3863 17.7126 71.4987 18.024 71.7315 18.2395C71.9643 18.4551 72.2935 18.5589 72.727 18.5589H74.983V20.5708H72.5183C71.4585 20.5708 70.6236 20.2834 70.0135 19.7165C69.4033 19.1497 69.0982 18.3673 69.0982 17.3773V13.1219H65.7344V11.11H68.5282C68.7691 11.11 68.9377 11.0701 69.026 10.9743C69.1143 10.8864 69.1625 10.7188 69.1625 10.4793V8.57913H71.4024V11.11H75.569V13.1219H71.4024H71.3863Z" fill="black"/>
<path d="M89.1644 15.2219C89.4856 15.669 89.6461 16.2039 89.6461 16.8266V17.0342C89.6461 17.7447 89.4615 18.3675 89.0842 18.8944C88.7068 19.4293 88.177 19.8365 87.4865 20.1319C86.7961 20.4273 85.9933 20.571 85.078 20.571H77.3789V8.10831H84.7007C86.1378 8.10831 87.2617 8.38774 88.0565 8.95459C88.8513 9.52144 89.2528 10.3118 89.2528 11.3417V11.5493C89.2528 12.691 88.7711 13.5612 87.7996 14.168C88.4018 14.4235 88.8594 14.7748 89.1725 15.2219H89.1644ZM79.7633 10.232V13.2179H84.6766C85.3992 13.2179 85.9371 13.1062 86.2903 12.8746C86.6436 12.6431 86.8122 12.2998 86.8122 11.8288V11.6212C86.8122 11.1661 86.6275 10.8228 86.2662 10.5833C85.905 10.3518 85.3751 10.232 84.6927 10.232H79.7633ZM87.2136 16.7468C87.2136 16.2757 87.0369 15.9244 86.6757 15.6929C86.3224 15.4614 85.7685 15.3416 85.0299 15.3416H79.7553V18.4393H85.0299C85.7203 18.4393 86.2502 18.3116 86.6355 18.0481C87.0209 17.7847 87.2055 17.4254 87.2055 16.9543V16.7468H87.2136Z" fill="black"/>
<path d="M93.1149 19.8922C92.5931 19.4371 92.3281 18.7825 92.3281 17.9362V7.34967H94.6242V17.529C94.6242 17.8963 94.7125 18.1597 94.8891 18.3194C95.0658 18.4791 95.3628 18.5589 95.7642 18.5589H96.5831V20.5708H95.3387C94.3673 20.5708 93.6287 20.3393 93.0988 19.8842L93.1149 19.8922Z" fill="black"/>
<path d="M100.354 20.2195C99.4867 19.8363 98.8203 19.2774 98.3547 18.5589C97.8891 17.8404 97.6562 16.9861 97.6562 16.0121V15.7247C97.6562 14.7347 97.8891 13.8804 98.3467 13.1459C98.8043 12.4194 99.4706 11.8605 100.338 11.4613C101.205 11.0701 102.232 10.8705 103.413 10.8705C104.593 10.8705 105.596 11.0701 106.447 11.4613C107.298 11.8525 107.957 12.4114 108.414 13.1459C108.872 13.8724 109.105 14.7347 109.105 15.7247V16.0121C109.105 16.9861 108.872 17.8324 108.414 18.5589C107.957 19.2854 107.298 19.8363 106.447 20.2195C105.596 20.6028 104.585 20.8024 103.413 20.8024C102.24 20.8024 101.221 20.6107 100.354 20.2195ZM105.845 17.9921C106.439 17.521 106.736 16.8584 106.736 16.0041V15.7167C106.736 14.8464 106.439 14.1678 105.861 13.6808C105.275 13.2018 104.456 12.9623 103.396 12.9623C102.337 12.9623 101.486 13.2018 100.9 13.6728C100.314 14.1439 100.033 14.8305 100.033 15.7167V16.0041C100.033 16.8504 100.33 17.513 100.924 17.9921C101.518 18.4711 102.345 18.7026 103.396 18.7026C104.448 18.7026 105.259 18.4631 105.853 17.9921H105.845Z" fill="black"/>
<path d="M113.423 20.2195C112.572 19.8363 111.914 19.2774 111.448 18.5589C110.983 17.8404 110.75 16.9941 110.75 16.028V15.7247C110.75 14.7347 110.983 13.8804 111.44 13.1459C111.898 12.4194 112.556 11.8605 113.415 11.4613C114.274 11.0701 115.286 10.8705 116.442 10.8705C117.502 10.8705 118.449 11.0462 119.292 11.4054C120.135 11.7567 120.785 12.2517 121.259 12.8904C121.733 13.5211 121.966 14.2397 121.966 15.0381V15.0939H119.597V15.0381C119.597 14.4313 119.3 13.9363 118.722 13.5451C118.136 13.1619 117.381 12.9623 116.45 12.9623C115.39 12.9623 114.571 13.2018 113.993 13.6808C113.415 14.1598 113.126 14.8464 113.126 15.7326V15.9961C113.126 16.8584 113.415 17.521 113.993 17.9921C114.571 18.4631 115.39 18.6946 116.45 18.6946C117.381 18.6946 118.136 18.503 118.722 18.1278C119.308 17.7446 119.597 17.2575 119.597 16.6428V16.5869H121.966V16.6428C121.966 17.4571 121.733 18.1757 121.275 18.7984C120.817 19.4291 120.167 19.9161 119.332 20.2595C118.497 20.6107 117.534 20.7784 116.434 20.7784C115.278 20.7784 114.266 20.5868 113.415 20.1956L113.423 20.2195Z" fill="black"/>
<path d="M135.382 20.2515V20.5708H132.532L128.863 16.6348L126.534 18.5749V20.5708H124.238V7.34967H126.534V15.7646L132.154 11.11H135.157V11.4374L130.645 15.1977L135.382 20.2515Z" fill="black"/>
<path d="M44.4299 30.5264C44.6306 30.7739 44.735 31.0773 44.735 31.4286V31.5484C44.735 32.0833 44.5262 32.5064 44.1168 32.8178C43.7073 33.1291 43.1534 33.2888 42.471 33.2888H38.6094V26.814H42.2542C42.9687 26.814 43.5227 26.9577 43.9241 27.2371C44.3175 27.5165 44.5182 27.9157 44.5182 28.4187V28.5464C44.5182 28.8658 44.4379 29.1532 44.2693 29.3927C44.1007 29.6402 43.8679 29.8318 43.5548 29.9755C43.9402 30.0953 44.2292 30.2789 44.4299 30.5264ZM39.364 27.4926V29.6881H42.2462C42.7359 29.6881 43.1132 29.6003 43.3702 29.4167C43.6271 29.2331 43.7555 28.9776 43.7555 28.6343V28.5145C43.7555 28.1952 43.6271 27.9397 43.3621 27.764C43.0972 27.5884 42.7279 27.5006 42.2542 27.5006H39.364V27.4926ZM43.9643 31.4126C43.9643 31.0693 43.8358 30.8059 43.5789 30.6302C43.322 30.4466 42.9447 30.3588 42.4549 30.3588H39.364V32.6102H42.4549C42.9286 32.6102 43.3059 32.5144 43.5628 32.3228C43.8197 32.1312 43.9562 31.8677 43.9562 31.5324V31.4126H43.9643Z" fill="black"/>
<path d="M46.4688 32.0514V26.4149H47.2074V31.9317C47.2074 32.1792 47.2636 32.3628 47.384 32.4746C47.5044 32.5863 47.7051 32.6422 47.9781 32.6422H48.4036V33.2809H47.8496C46.9264 33.2809 46.4688 32.8737 46.4688 32.0434V32.0514Z" fill="black"/>
<path d="M50.4586 33.0974C50.017 32.8978 49.6798 32.6184 49.447 32.2511C49.2142 31.8839 49.0938 31.4527 49.0938 30.9577V30.7661C49.0938 30.2632 49.2142 29.832 49.447 29.4568C49.6798 29.0816 50.017 28.8021 50.4586 28.6025C50.8921 28.4029 51.4139 28.3071 52.008 28.3071C52.6021 28.3071 53.0999 28.4029 53.5334 28.6105C53.9669 28.8101 54.3041 29.0975 54.5369 29.4648C54.7698 29.832 54.8902 30.2711 54.8902 30.7661V30.9577C54.8902 31.4527 54.7698 31.8839 54.5369 32.2511C54.3041 32.6184 53.9669 32.9058 53.5334 33.0974C53.0999 33.297 52.5941 33.3928 52.008 33.3928C51.422 33.3928 50.9081 33.297 50.4666 33.0974H50.4586ZM53.5575 32.2511C53.9348 31.9318 54.1275 31.5006 54.1275 30.9577V30.7661C54.1275 30.2153 53.9348 29.7761 53.5575 29.4568C53.1802 29.1374 52.6583 28.9778 51.992 28.9778C51.3256 28.9778 50.7877 29.1374 50.4104 29.4488C50.0331 29.7682 49.8484 30.1993 49.8484 30.7582V30.9498C49.8484 31.4927 50.0411 31.9238 50.4264 32.2431C50.8118 32.5625 51.3336 32.7142 51.992 32.7142C52.6503 32.7142 53.1721 32.5545 53.5575 32.2431V32.2511Z" fill="black"/>
<path d="M57.2596 33.0974C56.826 32.8978 56.4888 32.6183 56.248 32.2511C56.0071 31.8838 55.8867 31.4527 55.8867 30.9657V30.7661C55.8867 30.2711 56.0071 29.84 56.24 29.4647C56.4728 29.0975 56.81 28.8101 57.2515 28.6025C57.6851 28.4029 58.1989 28.2991 58.793 28.2991C59.3228 28.2991 59.7965 28.3869 60.214 28.5626C60.6314 28.7382 60.9606 28.9777 61.2014 29.2971C61.4423 29.6164 61.5627 29.9597 61.5627 30.3509V30.3988H60.8081V30.3509C60.8081 30.0875 60.7198 29.8559 60.5431 29.6484C60.3665 29.4408 60.1257 29.2811 59.8206 29.1614C59.5155 29.0416 59.1703 28.9857 58.7849 28.9857C58.1186 28.9857 57.5887 29.1454 57.2114 29.4647C56.8341 29.7841 56.6414 30.2232 56.6414 30.7821V30.9577C56.6414 31.5006 56.8341 31.9317 57.2114 32.2511C57.5887 32.5704 58.1186 32.7221 58.7849 32.7221C59.1703 32.7221 59.5155 32.6662 59.8206 32.5465C60.1257 32.4267 60.3665 32.267 60.5431 32.0595C60.7198 31.8519 60.8 31.6204 60.8 31.3569V31.309H61.5547V31.3569C61.5547 31.7481 61.4343 32.1074 61.2014 32.4108C60.9686 32.7221 60.6395 32.9616 60.222 33.1293C59.8045 33.297 59.3228 33.3848 58.7849 33.3848C58.1989 33.3848 57.6931 33.289 57.2596 33.0894V33.0974Z" fill="black"/>
<path d="M68.4653 33.1771V33.2889H67.5661L65.1014 30.9496L63.6644 32.0195V33.2889H62.9258V26.4149H63.6644V31.1333L67.3895 28.4188H68.3449V28.5306L65.6715 30.5265L68.4733 33.1851L68.4653 33.1771Z" fill="black"/>
<path d="M70.3377 33.0974C69.9042 32.8978 69.567 32.6183 69.3261 32.2511C69.0853 31.8838 68.9648 31.4527 68.9648 30.9657V30.7661C68.9648 30.2711 69.0853 29.84 69.3181 29.4647C69.5509 29.0975 69.8881 28.8101 70.3297 28.6025C70.7632 28.4029 71.277 28.2991 71.8711 28.2991C72.401 28.2991 72.8746 28.3869 73.2921 28.5626C73.7096 28.7382 74.0387 28.9777 74.2796 29.2971C74.5204 29.6164 74.6409 29.9597 74.6409 30.3509V30.3988H73.8862V30.3509C73.8862 30.0875 73.7979 29.8559 73.6213 29.6484C73.4446 29.4408 73.2038 29.2811 72.8987 29.1614C72.5936 29.0416 72.2484 28.9857 71.8631 28.9857C71.1967 28.9857 70.6668 29.1454 70.2895 29.4647C69.9122 29.7841 69.7195 30.2232 69.7195 30.7821V30.9577C69.7195 31.5006 69.9122 31.9317 70.2895 32.2511C70.6668 32.5704 71.1967 32.7221 71.8631 32.7221C72.2484 32.7221 72.5936 32.6662 72.8987 32.5465C73.2038 32.4267 73.4446 32.267 73.6213 32.0595C73.7979 31.8519 73.8782 31.6204 73.8782 31.3569V31.309H74.6328V31.3569C74.6328 31.7481 74.5124 32.1074 74.2796 32.4108C74.0468 32.7221 73.7176 32.9616 73.3001 33.1293C72.8827 33.297 72.401 33.3848 71.8631 33.3848C71.277 33.3848 70.7712 33.289 70.3377 33.0894V33.0974Z" fill="black"/>
<path d="M80.6846 28.9458C81.1262 29.3689 81.3429 29.9757 81.3429 30.774V33.2889H80.6043V30.774C80.6043 30.1992 80.4438 29.7521 80.1146 29.4487C79.7855 29.1454 79.3118 28.9937 78.6936 28.9937C78.2842 28.9937 77.8988 29.0895 77.5456 29.2811C77.1923 29.4727 76.9193 29.7282 76.7347 30.0395V33.2969H75.9961V26.4229H76.7347V29.1533C76.9916 28.8819 77.2967 28.6743 77.6419 28.5306C77.9871 28.3869 78.3644 28.315 78.7578 28.315C79.6008 28.315 80.235 28.5226 80.6766 28.9458H80.6846Z" fill="black"/>
<path d="M89.2414 32.6423V33.281H88.6393C88.3182 33.281 88.0452 33.2091 87.8365 33.0734C87.6278 32.9377 87.4832 32.7381 87.419 32.4906C86.8651 33.0894 86.0703 33.3848 85.0346 33.3848C84.3362 33.3848 83.7983 33.265 83.429 33.0335C83.0597 32.802 82.875 32.4666 82.875 32.0196C82.875 31.2292 83.4691 30.7741 84.6653 30.6463L87.3869 30.3589C87.3869 29.9038 87.2263 29.5605 86.9132 29.329C86.5921 29.0975 86.1265 28.9857 85.5163 28.9857C84.9543 28.9857 84.4967 29.0895 84.1595 29.3051C83.8223 29.5206 83.6457 29.7921 83.6457 30.1354V30.1913H82.9232V30.1354C82.9232 29.7761 83.0356 29.4647 83.2523 29.1853C83.4691 28.9059 83.7742 28.6903 84.1676 28.5306C84.5609 28.3789 85.0186 28.2991 85.5324 28.2991C86.3513 28.2991 86.9935 28.4827 87.4511 28.842C87.9087 29.2013 88.1335 29.7122 88.1335 30.3589V32.0036C88.1335 32.2032 88.1897 32.3549 88.3102 32.4666C88.4306 32.5784 88.5992 32.6263 88.824 32.6263H89.2575L89.2414 32.6423ZM86.4636 32.4826C86.8731 32.299 87.1782 32.0435 87.3789 31.7162V30.9737L84.8098 31.2371C84.4004 31.285 84.0953 31.3729 83.9026 31.5006C83.7099 31.6283 83.6136 31.804 83.6136 32.0275C83.6136 32.5066 84.0873 32.7461 85.0346 32.7461C85.5805 32.7461 86.0622 32.6583 86.4717 32.4746L86.4636 32.4826Z" fill="black"/>
<path d="M90.3205 27.3888C90.2242 27.293 90.168 27.1733 90.168 27.0296C90.168 26.8858 90.2161 26.7661 90.3205 26.6783C90.4249 26.5904 90.5453 26.5425 90.6978 26.5425C90.8504 26.5425 90.9788 26.5904 91.0752 26.6783C91.1715 26.7661 91.2277 26.8858 91.2277 27.0296C91.2277 27.1733 91.1795 27.293 91.0752 27.3888C90.9788 27.4846 90.8504 27.5325 90.6978 27.5325C90.5453 27.5325 90.4168 27.4846 90.3205 27.3888ZM91.0671 28.4187V33.2888H90.3285V28.4187H91.0671Z" fill="black"/>
<path d="M97.6924 28.9378C98.126 29.353 98.3508 29.9677 98.3508 30.7661V33.281H97.6122V30.7661C97.6122 30.1833 97.4516 29.7362 97.1224 29.4328C96.7933 29.1294 96.3196 28.9777 95.7014 28.9777C95.2839 28.9777 94.8986 29.0735 94.5453 29.2572C94.1921 29.4408 93.9272 29.6963 93.7425 30.0156V33.281H93.0039V28.4109H93.6863L93.7184 29.1534C93.9673 28.8819 94.2724 28.6743 94.6256 28.5226C94.9789 28.371 95.3562 28.2991 95.7656 28.2991C96.6086 28.2991 97.2509 28.5067 97.6924 28.9298V28.9378Z" fill="black"/>
<path d="M109.548 26.8139V27.4925H104.884V29.7041H109.347V30.3827H104.884V32.6022H109.548V33.2808H104.129V26.8059H109.548V26.8139Z" fill="black"/>
<path d="M116.435 33.1771V33.2888H115.568L113.569 31.261L111.57 33.2888H110.703V33.1771L113.047 30.8298L110.743 28.5305V28.4187H111.594L113.561 30.3907L115.544 28.4187H116.371V28.5305L114.067 30.8298L116.419 33.1771H116.435Z" fill="black"/>
<path d="M122.018 28.6105C122.451 28.8101 122.788 29.0975 123.029 29.4648C123.262 29.832 123.382 30.2632 123.382 30.7582V30.9338C123.382 31.4288 123.262 31.8599 123.021 32.2352C122.78 32.6104 122.443 32.8898 122.018 33.0974C121.584 33.297 121.078 33.4008 120.492 33.4008C120.099 33.4008 119.721 33.3369 119.376 33.2012C119.031 33.0655 118.726 32.8818 118.469 32.6343V34.9656H117.73V28.4189H118.413L118.445 29.0975C118.694 28.85 118.999 28.6504 119.352 28.5147C119.705 28.379 120.083 28.3071 120.492 28.3071C121.078 28.3071 121.584 28.4029 122.018 28.6105ZM122.62 30.7582C122.62 30.2073 122.427 29.7682 122.05 29.4568C121.672 29.1374 121.142 28.9858 120.476 28.9858C120.051 28.9858 119.657 29.0656 119.304 29.2253C118.943 29.3849 118.662 29.6005 118.469 29.864V31.836C118.67 32.1074 118.951 32.323 119.304 32.4827C119.665 32.6423 120.059 32.7222 120.476 32.7222C121.142 32.7222 121.672 32.5625 122.05 32.2511C122.427 31.9318 122.62 31.5006 122.62 30.9418V30.7661V30.7582Z" fill="black"/>
<path d="M124.93 32.0514V26.4149H125.668V31.9317C125.668 32.1792 125.724 32.3628 125.845 32.4746C125.965 32.5863 126.166 32.6422 126.439 32.6422H126.865V33.2809H126.311C125.387 33.2809 124.93 32.8737 124.93 32.0434V32.0514Z" fill="black"/>
<path d="M128.912 33.0974C128.47 32.8978 128.133 32.6184 127.9 32.2511C127.667 31.8839 127.547 31.4527 127.547 30.9577V30.7661C127.547 30.2632 127.667 29.832 127.9 29.4568C128.133 29.0816 128.47 28.8021 128.912 28.6025C129.345 28.4029 129.867 28.3071 130.461 28.3071C131.055 28.3071 131.553 28.4029 131.987 28.6105C132.42 28.8101 132.757 29.0975 132.99 29.4648C133.223 29.832 133.343 30.2711 133.343 30.7661V30.9577C133.343 31.4527 133.223 31.8839 132.99 32.2511C132.757 32.6184 132.42 32.9058 131.987 33.0974C131.553 33.297 131.047 33.3928 130.461 33.3928C129.875 33.3928 129.361 33.297 128.92 33.0974H128.912ZM132.011 32.2511C132.388 31.9318 132.581 31.5006 132.581 30.9577V30.7661C132.581 30.2153 132.388 29.7761 132.011 29.4568C131.633 29.1374 131.111 28.9778 130.445 28.9778C129.779 28.9778 129.241 29.1374 128.864 29.4488C128.486 29.7682 128.302 30.1993 128.302 30.7582V30.9498C128.302 31.4927 128.494 31.9238 128.88 32.2431C129.265 32.5625 129.787 32.7142 130.445 32.7142C131.103 32.7142 131.625 32.5545 132.011 32.2431V32.2511Z" fill="black"/>
<path d="M138.415 28.4187V29.0734H137.355C136.97 29.0734 136.633 29.1453 136.336 29.281C136.039 29.4167 135.806 29.6163 135.629 29.8638V33.2888H134.891V28.4187H135.573L135.605 29.0814C135.822 28.8658 136.087 28.6982 136.408 28.5864C136.721 28.4746 137.066 28.4187 137.444 28.4187H138.415Z" fill="black"/>
<path d="M144.503 31.0935H139.622C139.638 31.5965 139.838 31.9957 140.216 32.2911C140.593 32.5785 141.091 32.7222 141.733 32.7222C142.319 32.7222 142.785 32.6184 143.154 32.4029C143.515 32.1953 143.708 31.9158 143.732 31.5646H144.519C144.479 32.1314 144.214 32.5785 143.716 32.9058C143.218 33.2332 142.56 33.3928 141.741 33.3928C141.155 33.3928 140.649 33.297 140.224 33.0974C139.79 32.8979 139.461 32.6184 139.228 32.2512C138.995 31.8839 138.875 31.4528 138.875 30.9658V30.7502C138.875 30.2552 138.995 29.8241 139.228 29.4568C139.461 29.0896 139.798 28.8022 140.224 28.6106C140.657 28.411 141.163 28.3152 141.741 28.3152C142.319 28.3152 142.793 28.411 143.218 28.6026C143.644 28.7942 143.965 29.0736 144.19 29.4329C144.415 29.7922 144.527 30.2233 144.527 30.7183V31.0935H144.503ZM140.248 29.377C139.879 29.6405 139.678 30.0077 139.63 30.4788H143.732C143.692 30.0157 143.491 29.6484 143.138 29.377C142.777 29.1135 142.311 28.9778 141.717 28.9778C141.123 28.9778 140.617 29.1135 140.256 29.377H140.248Z" fill="black"/>
<path d="M149.583 28.4187V29.0734H148.523C148.138 29.0734 147.801 29.1453 147.504 29.281C147.207 29.4167 146.974 29.6163 146.797 29.8638V33.2888H146.059V28.4187H146.741L146.773 29.0814C146.99 28.8658 147.255 28.6982 147.576 28.5864C147.889 28.4746 148.234 28.4187 148.612 28.4187H149.583Z" fill="black"/>
<path d="M24.3349 9.02609H0.25V32.9775H24.3349V9.02609Z" fill="#2949B7"/>
<path d="M24.3339 9.02609H8.27734V24.9937H24.3339V9.02609Z" fill="#8594CF"/>
<path opacity="0.5" d="M29.33 5.03439H13.2734V21.002H29.33V5.03439Z" fill="white"/>
</g>
<defs>
<clipPath id="clip0_6795_169014">
<rect width="149.333" height="40" fill="white" transform="translate(0.25)"/>
</clipPath>
</defs>
</svg>
