<svg width="136" height="40" viewBox="0 0 136 40" fill="none" xmlns="http://www.w3.org/2000/svg">
<path d="M55.5721 19.7285H61.7354V27.7852C60.9191 28.0561 60.0754 28.2688 59.1939 28.4266C58.3159 28.5843 57.3213 28.6666 56.2066 28.6666C54.6632 28.6666 53.3496 28.3614 52.2726 27.7509C51.1956 27.1404 50.3759 26.2417 49.8169 25.0516C49.2578 23.8615 48.9766 22.3969 48.9766 20.6614C48.9766 19.0323 49.2887 17.6227 49.9163 16.4326C50.544 15.2424 51.4597 14.3198 52.6705 13.6681C53.8777 13.0164 55.3526 12.6906 57.0983 12.6906C57.9215 12.6906 58.7309 12.7798 59.5335 12.9581C60.3326 13.1365 61.0598 13.3663 61.7114 13.6475L60.6173 16.285C60.144 16.0449 59.6021 15.8426 58.9916 15.6779C58.3811 15.5167 57.7431 15.4344 57.0778 15.4344C56.1208 15.4344 55.2908 15.654 54.5843 16.093C53.8777 16.532 53.3324 17.1459 52.9483 17.9382C52.5607 18.7271 52.3686 19.6566 52.3686 20.7267C52.3686 21.7385 52.5058 22.637 52.7836 23.4225C53.0615 24.2044 53.497 24.8184 54.0904 25.2609C54.6837 25.7033 55.4623 25.9262 56.4192 25.9262C56.8857 25.9262 57.2835 25.9022 57.6059 25.8576C57.9283 25.8131 58.2302 25.765 58.5148 25.7135V22.4724H55.5721V19.7285Z" fill="black"/>
<path d="M65.4375 28.454V12.9136H68.7335V25.7307H75.0375V28.4505H65.4409L65.4375 28.454Z" fill="black"/>
<path d="M87.2471 28.454L86.1221 24.7567H80.4561L79.3311 28.454H75.7812L81.2655 12.8518H85.2921L90.7969 28.454H87.2471ZM85.3332 21.9923L84.2083 18.3773C84.1363 18.1372 84.0436 17.8251 83.927 17.4478C83.8104 17.0671 83.6938 16.6829 83.5772 16.2885C83.4606 15.8941 83.368 15.5545 83.2959 15.263C83.2239 15.5545 83.1279 15.9147 83.0044 16.3434C82.8809 16.7721 82.7609 17.1768 82.6477 17.5609C82.5345 17.9451 82.4522 18.2161 82.4042 18.3807L81.2895 21.9957H85.3401L85.3332 21.9923Z" fill="black"/>
<path d="M102.878 28.4539H91.3125V26.3172L98.762 15.6368H91.5114V12.917H102.672V15.0435L95.2328 25.7376H102.874V28.4574L102.878 28.4539Z" fill="black"/>
<path d="M119.464 20.6615C119.464 21.8585 119.317 22.9492 119.018 23.9301C118.72 24.911 118.271 25.7582 117.664 26.4648C117.056 27.1747 116.292 27.7166 115.362 28.0974C114.433 28.4746 113.335 28.6667 112.066 28.6667C110.797 28.6667 109.699 28.4781 108.77 28.0974C107.841 27.7166 107.076 27.1747 106.469 26.4648C105.862 25.7548 105.412 24.9076 105.114 23.9232C104.815 22.9389 104.668 21.8448 104.668 20.6375C104.668 19.029 104.932 17.6262 105.46 16.4326C105.988 15.239 106.801 14.3129 107.899 13.6544C108.996 12.9959 110.392 12.6667 112.087 12.6667C113.781 12.6667 115.16 12.9959 116.247 13.6544C117.334 14.3129 118.144 15.2425 118.672 16.4395C119.2 17.6365 119.464 19.0426 119.464 20.658V20.6615ZM108.122 20.6615C108.122 21.7453 108.259 22.6783 108.53 23.4637C108.804 24.2457 109.23 24.8493 109.809 25.2712C110.389 25.6931 111.14 25.9022 112.063 25.9022C112.985 25.9022 113.757 25.6931 114.337 25.2712C114.916 24.8493 115.342 24.2457 115.606 23.4637C115.87 22.6817 116.003 21.7487 116.003 20.6615C116.003 19.0323 115.698 17.7496 115.088 16.8133C114.477 15.8769 113.476 15.4105 112.08 15.4105C111.15 15.4105 110.396 15.6231 109.809 16.0415C109.226 16.4634 108.797 17.0671 108.523 17.8491C108.249 18.6311 108.115 19.5708 108.115 20.6615H108.122Z" fill="black"/>
<path d="M135.181 28.4539H131.439L127.368 21.9065L125.976 22.9045V28.4539H122.68V12.9136H125.976V20.0235C126.195 19.7183 126.411 19.413 126.624 19.1077C126.837 18.8025 127.053 18.4972 127.272 18.192L131.481 12.9101H135.137L129.718 19.7869L135.181 28.4505V28.4539Z" fill="black"/>
<path d="M26.86 17.5902L28.9026 15.525L28.4046 14.6612L26.1172 17.3679C26.3676 17.4354 26.6152 17.5086 26.86 17.5873V17.5902Z" fill="black"/>
<path d="M24.0727 16.9346L26.6978 11.7069L26.0169 10.5252L23.4453 16.8473C23.6563 16.8726 23.8645 16.9008 24.0727 16.9346Z" fill="black"/>
<path d="M25.4035 17.1907L27.8767 13.7496L27.3112 12.7733L24.7227 17.0472C24.9506 17.0922 25.1785 17.14 25.4035 17.1907Z" fill="black"/>
<path d="M30.1567 19.0307L30.7504 18.7241L30.3002 17.9419L29.293 18.5693C29.5884 18.7156 29.8754 18.8675 30.1596 19.0307H30.1567Z" fill="black"/>
<path d="M28.4459 18.181L29.8387 17.1541L29.3744 16.3522L27.6328 17.8575C27.9057 17.9588 28.1786 18.0657 28.4431 18.181H28.4459Z" fill="black"/>
<path d="M19.2392 16.7996L17.8155 7.67509L16.8477 9.35199L18.5752 16.8755C18.7947 16.8474 19.0169 16.8193 19.2392 16.7996Z" fill="black"/>
<path d="M17.9543 16.9712L16.0298 10.77L15.332 11.9799L17.3634 17.0809C17.5604 17.0415 17.7545 17.005 17.9515 16.974L17.9543 16.9712Z" fill="black"/>
<path d="M20.7058 16.7123L20.3682 3.25493L18.9727 5.66895L19.949 16.7433C20.2022 16.7292 20.4526 16.7179 20.7058 16.7123Z" fill="black"/>
<path d="M21.1266 16.7095C21.2588 16.7095 21.3882 16.7095 21.5177 16.7151C21.5627 16.7151 21.6077 16.7151 21.6499 16.718L23.2959 5.82091L21.951 3.49406L21.8722 5.91942L21.0703 16.7123C21.0872 16.7123 21.1069 16.7123 21.1238 16.7123L21.1266 16.7095Z" fill="black"/>
<path d="M22.8387 16.7855L25.2443 9.19441L24.3524 7.64975L22.2422 16.7433C22.442 16.7546 22.6389 16.7686 22.8387 16.7883V16.7855Z" fill="black"/>
<path d="M35.0887 26.2476L34.7764 25.7045C34.661 25.8537 34.5429 26 34.4219 26.1463L35.0915 26.2476H35.0887Z" fill="black"/>
<path d="M14.6604 25.6934C14.576 25.533 14.5 25.3698 14.4297 25.2038L12.8906 25.4345C13.1298 25.6061 13.3746 25.7721 13.6278 25.9297L14.6604 25.6934Z" fill="black"/>
<path d="M31.8182 28.6194C31.5312 28.8361 31.2386 29.0443 30.9375 29.2441L39.2376 33.4307L37.8955 31.1039L31.8182 28.6223V28.6194Z" fill="black"/>
<path d="M15.1745 26.5346C15.0817 26.4052 14.9945 26.2729 14.9129 26.1351L14.3164 26.3208C14.519 26.4277 14.7244 26.5318 14.9326 26.6303L15.1774 26.5318L15.1745 26.5346Z" fill="black"/>
<path d="M13.8788 22.9163H13.8704C13.5496 23.0908 13.2401 23.2736 12.9531 23.4593L13.9491 23.5325C13.9154 23.3299 13.8929 23.1217 13.8788 22.9135V22.9163Z" fill="black"/>
<path d="M14.0695 24.112H12.0494C11.9931 24.1599 11.9368 24.2049 11.8834 24.2499C11.8299 24.2977 11.7596 24.3569 11.6836 24.4216C11.7596 24.4919 11.8299 24.5566 11.8834 24.6072C11.965 24.6832 12.0494 24.7564 12.1338 24.8295L14.2355 24.6748C14.1736 24.4891 14.1202 24.3006 14.0723 24.112H14.0695Z" fill="black"/>
<path d="M30.2133 24.703L27.9259 24.5369C27.864 24.7339 27.7936 24.928 27.7148 25.1194L29.3805 25.3726C29.524 25.2656 29.6619 25.1559 29.7997 25.0434C29.9038 24.959 30.0558 24.8324 30.2133 24.6973V24.703Z" fill="black"/>
<path d="M28.0859 23.9404L29.9288 23.9292C29.9035 23.9067 29.8782 23.8898 29.8585 23.8729C29.6475 23.7013 29.3689 23.4902 29.0369 23.2651L28.1929 23.3355C28.1647 23.5381 28.131 23.7407 28.0859 23.9404Z" fill="black"/>
<path d="M33.5753 27.0804C33.2968 27.3646 33.0042 27.6403 32.7031 27.9019L36.8054 29.2103L35.8881 27.6206L33.5782 27.0804H33.5753Z" fill="black"/>
<path d="M27.4699 25.6511C27.3827 25.8199 27.2927 25.9831 27.1914 26.1463L27.8413 26.3545C28.0974 26.2166 28.3506 26.0703 28.5954 25.9155L27.4699 25.6511Z" fill="black"/>
<path d="M26.8865 26.6049C26.8077 26.7118 26.7289 26.8159 26.6445 26.92C26.8105 26.8525 26.9737 26.7793 27.1341 26.7062L26.8865 26.6049Z" fill="black"/>
<path d="M31.3665 19.796L31.2005 19.5091L31.043 19.5766C31.1527 19.6497 31.2596 19.72 31.3665 19.796Z" fill="black"/>
<path d="M21.875 32.1196L22.8288 37.9972H23.9739L22.5249 32.0802C22.3083 32.0971 22.0916 32.1111 21.875 32.1196Z" fill="black"/>
<path d="M16.4721 31.5484L13.3828 37.9972H14.7221L17.1727 31.7172C16.9392 31.6666 16.7029 31.6103 16.4721 31.5512V31.5484Z" fill="black"/>
<path d="M19.4957 32.0689L18.4688 37.9972H19.6026L20.1766 32.1139C19.9487 32.1026 19.7236 32.0858 19.4957 32.0661V32.0689Z" fill="black"/>
<path d="M17.9087 31.8607L16.0039 37.9972H17.2475L18.6825 31.9789C18.4236 31.9451 18.1648 31.9057 17.9087 31.8607Z" fill="black"/>
<path d="M23.1875 32.0155L25.1655 37.9972H26.4203L23.8656 31.9254C23.6405 31.9592 23.4126 31.9902 23.1875 32.0155Z" fill="black"/>
<path d="M21.08 32.1364C20.914 32.1364 20.748 32.1364 20.582 32.1308L20.6045 37.9972H21.7103L21.2263 32.1364C21.1757 32.1364 21.1279 32.1364 21.0772 32.1364H21.08Z" fill="black"/>
<path d="M40.9493 36.3934L30.0663 29.7815C29.7849 29.9419 29.5007 30.0966 29.2109 30.2429L39.9673 38H41.8749L40.9493 36.3962V36.3934Z" fill="black"/>
<path d="M27.5586 30.9632L34.6517 37.9971H37.0629L28.3745 30.6311C28.1072 30.7493 27.8343 30.8591 27.5586 30.9632Z" fill="black"/>
<path d="M26.0352 31.4612L30.8323 37.9972H32.6387L26.8061 31.2277C26.5529 31.3121 26.294 31.3881 26.0352 31.4612Z" fill="black"/>
<path d="M24.5664 31.8045L27.7655 37.9972H29.2229L25.2867 31.6525C25.0475 31.7088 24.8084 31.7595 24.5664 31.8073V31.8045Z" fill="black"/>
<path d="M15.6719 17.5001L13.7052 14.7935L13.2578 15.5672L15.0895 17.6831C15.2808 17.6184 15.4749 17.5564 15.6719 17.4973V17.5001Z" fill="black"/>
<path d="M11.1367 19.5962C11.2886 19.4978 11.4434 19.3993 11.5981 19.3036L11.2098 19.118L10.8047 19.8185C10.9144 19.7426 11.0241 19.6666 11.1367 19.5934V19.5962Z" fill="black"/>
<path d="M13.1348 18.4736L12.0263 17.7027L11.6211 18.4033L12.3892 18.8507C12.634 18.7184 12.8816 18.5946 13.1348 18.4736Z" fill="black"/>
<path d="M14.4808 17.9024L12.8377 16.2987L12.4297 17.0049L13.8309 18.1613C14.0447 18.0713 14.2613 17.984 14.4808 17.9024Z" fill="black"/>
<path d="M16.2678 17.3313C16.4423 17.2863 16.6195 17.2412 16.794 17.2018L14.726 13.0293L14.1914 13.9578L16.2369 17.3425C16.2369 17.3425 16.2594 17.3369 16.2678 17.3341V17.3313Z" fill="black"/>
<path d="M7.74463 26.2053L7.05811 26.3067L6.3125 27.5953L8.57183 27.0804C8.28765 26.799 8.01192 26.5064 7.74463 26.2025V26.2053Z" fill="black"/>
<path d="M13.8361 30.6396L6.64453 37.9972H8.65063L14.4945 30.9097C14.2722 30.8253 14.0555 30.7353 13.8389 30.6396H13.8361Z" fill="black"/>
<path d="M15.1439 31.1489L10.3945 37.9972H11.9561L15.8023 31.3599C15.5828 31.2924 15.3633 31.222 15.1467 31.1489H15.1439Z" fill="black"/>
<path d="M9.40224 27.8513L5.46039 29.0781L4.45312 30.8253L10.221 28.5181C9.94245 28.3043 9.66953 28.0821 9.40224 27.8513Z" fill="black"/>
<path d="M12.4649 29.97L1.39062 37.9944H4.27456L13.1627 30.3273C12.9264 30.212 12.6928 30.0938 12.4649 29.9672V29.97Z" fill="black"/>
<path d="M11.0133 29.0893L3.21686 32.9636L1.63281 35.7041L11.7758 29.5761C11.517 29.4185 11.2609 29.2581 11.0133 29.0865V29.0893Z" fill="black"/>
<path d="M33.8701 24.3878C28.1839 32.2799 14.9994 33.0959 8.23828 24.4328C10.2894 21.5489 13.3224 19.6722 16.6509 18.7972C19.5067 18.046 22.5764 18.0319 25.4237 18.755C28.7888 19.6075 31.8443 21.487 33.8701 24.3878Z" fill="#AACFA9"/>
<path d="M25.4237 18.755C22.5764 18.0319 19.5039 18.046 16.6509 18.7972C13.3224 19.6722 10.2894 21.5489 8.23828 24.4328C14.9994 33.0959 28.1839 32.2799 33.8701 24.3878C31.8443 21.487 28.7888 19.6075 25.4237 18.755ZM30.7611 26.2166C25.2324 30.7718 16.0967 30.5439 10.8521 25.7242C9.44532 24.43 9.44532 24.3427 10.8887 23.1019C12.1801 21.9906 14.1215 20.9974 15.7253 20.4094C15.4974 21.0256 15.3707 21.6896 15.3707 22.3845C15.3707 25.5217 17.9142 28.0652 21.0514 28.0652C24.1886 28.0652 26.732 25.5217 26.732 22.3845C26.732 21.6417 26.5886 20.9327 26.3297 20.2828C28.2486 20.8483 29.8495 21.9259 30.8005 22.694C32.8488 24.3456 32.8094 24.5228 30.7583 26.2138L30.7611 26.2166Z" fill="black"/>
<path d="M24.0352 22.9219C24.0352 24.5623 22.7044 25.8931 21.064 25.8931C19.4237 25.8931 18.0929 24.5623 18.0929 22.9219C18.0929 22.7306 18.1098 22.5449 18.1463 22.362C17.5527 22.1679 17.125 21.608 17.125 20.9496C17.125 20.128 17.789 19.464 18.6106 19.464C19.1536 19.464 19.6291 19.7567 19.8879 20.1928C20.2481 20.0352 20.6476 19.9508 21.064 19.9508C22.7044 19.9508 24.0352 21.2816 24.0352 22.9219Z" fill="#AACFA9"/>
</svg>
