<svg width="85" height="40" viewBox="0 0 85 40" fill="none" xmlns="http://www.w3.org/2000/svg">
<g clip-path="url(#clip0_8924_74379)">
<mask id="mask0_8924_74379" style="mask-type:luminance" maskUnits="userSpaceOnUse" x="0" y="0" width="85" height="40">
<path d="M84.5 0H0.5V40H84.5V0Z" fill="white"/>
</mask>
<g mask="url(#mask0_8924_74379)">
<path d="M14.4975 13.3545C14.5942 8.54684 11.881 4.35749 10.4677 3.35063C10.4613 3.34415 10.3355 3.27617 10.3451 3.46394C10.3451 3.46717 10.3419 3.46717 10.3419 3.47041C10.1967 12.5517 5.5443 14.9993 3.01812 18.3274C-2.59571 25.7283 2.08889 34.1718 8.1576 35.771C8.26095 35.797 8.5416 35.8812 9.07397 35.9912C9.35141 36.0496 9.4321 35.8131 9.22876 35.4603C8.50286 34.1944 7.21229 32.0576 6.95752 29.3122C6.37677 22.9375 14.3845 18.9489 14.4975 13.3545Z" fill="black"/>
<path d="M17.4586 16.6894C17.4087 16.6541 17.3389 16.6573 17.3322 16.7182C17.199 17.8644 15.9702 20.2401 14.3518 22.4616C8.90404 29.9515 11.648 33.348 13.7792 35.7045C14.172 36.1411 14.3684 36.0448 14.575 35.7334C14.7681 35.4381 15.0611 35.0624 16.3199 34.4878C16.5163 34.3979 21.2715 31.9645 21.7876 26.4233C22.2838 21.062 18.7173 17.6717 17.4586 16.6894Z" fill="#008CD6"/>
<path d="M44.4987 15.3334V34.6667H40.2759V26.8567H32.1606V34.6667H27.832V15.3334H32.1606V23.1436H40.2759V15.3334H44.4987Z" fill="black"/>
<path d="M64.4987 15.3334V19.1572H62.4509H58.3226V34.6667H53.8972V19.1572H49.8798H47.832V15.3334H64.4987Z" fill="black"/>
<path fill-rule="evenodd" clip-rule="evenodd" d="M79.7483 34.6667L74.8266 27.9464L69.9433 34.6383L65.168 34.6446L72.4073 24.7845L65.5749 15.3334H70.347L84.5013 34.6667H79.7483Z" fill="black"/>
<path d="M75.832 19.5225L78.2068 22.6667L83.832 15.3334H79.0602L75.832 19.5225Z" fill="#008CD6"/>
</g>
</g>
<defs>
<clipPath id="clip0_8924_74379">
<rect width="84" height="40" fill="white" transform="translate(0.5)"/>
</clipPath>
</defs>
</svg>
