<svg width="139" height="40" viewBox="0 0 139 40" fill="none" xmlns="http://www.w3.org/2000/svg">
<path d="M109.291 20.3578C109.291 19.5239 109.291 18.7519 109.26 18.0414C109.229 17.3311 109.168 16.6517 109.075 16.0649C108.983 15.4473 108.799 14.8913 108.522 14.3354C108.276 13.7795 107.876 13.2854 107.414 12.7912C106.737 12.1118 105.999 11.6176 105.168 11.247C104.338 10.9073 103.384 10.6911 102.307 10.6911C101.231 10.6911 100.277 10.8764 99.4465 11.247C98.6159 11.5867 97.8467 12.1118 97.17 12.7912C96.6778 13.2854 96.3394 13.7795 96.0933 14.3354C95.8472 14.8913 95.6318 15.4473 95.5396 16.0649C95.4473 16.6826 95.3857 17.3311 95.355 18.0414C95.3242 18.7519 95.3242 19.5239 95.3242 20.3578C95.3242 21.1916 95.3242 21.9329 95.355 22.6741C95.3857 23.3844 95.4473 24.0638 95.5396 24.6506C95.6318 25.2684 95.8164 25.8243 96.0933 26.3801C96.3394 26.936 96.7393 27.4302 97.17 27.9243C97.8467 28.6038 98.5851 29.0979 99.4465 29.4685C100.277 29.8083 101.231 30.0244 102.307 30.0244C103.384 30.0244 104.307 29.8391 105.168 29.4685C105.999 29.1288 106.768 28.6038 107.414 27.9243C107.906 27.4302 108.245 26.936 108.522 26.3801C108.768 25.8243 108.983 25.2684 109.075 24.6506C109.168 24.0329 109.26 23.3844 109.26 22.6741C109.291 21.902 109.291 21.1916 109.291 20.3578ZM105.63 20.3578C105.63 21.2534 105.63 22.0256 105.599 22.6432C105.568 23.2609 105.538 23.7241 105.445 24.1256C105.384 24.4962 105.292 24.8359 105.168 25.0522C105.045 25.2992 104.922 25.5463 104.707 25.7316C104.461 26.0404 104.092 26.2875 103.723 26.4728C103.323 26.6581 102.861 26.7199 102.338 26.7507C101.815 26.7507 101.384 26.6581 100.954 26.4728C100.554 26.2875 100.216 26.0713 99.9387 25.7316C99.7541 25.5463 99.631 25.3301 99.4772 25.0522C99.3542 24.805 99.2619 24.4962 99.2004 24.1256C99.1388 23.755 99.0773 23.2609 99.0773 22.6432C99.0466 22.0256 99.0466 21.2843 99.0466 20.3578C99.0466 19.4622 99.0466 18.6901 99.0773 18.0723C99.1081 17.4547 99.1388 16.9914 99.2004 16.5899C99.2619 16.1885 99.3542 15.8796 99.4772 15.6635C99.6003 15.4164 99.7233 15.1692 99.9387 14.9839C100.185 14.6751 100.554 14.4281 100.954 14.2428C101.354 14.0575 101.815 13.9957 102.338 13.9648C102.861 13.9648 103.292 14.0575 103.723 14.2428C104.092 14.4281 104.461 14.6443 104.707 14.9839C104.892 15.1692 105.015 15.3855 105.168 15.6635C105.292 15.9105 105.384 16.2194 105.445 16.5899C105.507 16.9605 105.568 17.4547 105.599 18.0723C105.599 18.6901 105.63 19.4622 105.63 20.3578Z" fill="#01BC8D"/>
<path d="M138.557 10.9961C138.557 10.8131 138.401 10.6911 138.244 10.6911H135.173C134.985 10.6911 134.859 10.8436 134.859 10.9961V22.1595L127.309 10.7826C127.247 10.7216 127.215 10.6911 127.121 10.6911H124.239C124.082 10.6911 123.926 10.8436 123.926 10.9961C123.926 17.0353 123.926 23.0745 123.926 29.0528C123.926 29.2358 124.082 29.3578 124.239 29.3578H127.309C127.497 29.3578 127.623 29.2053 127.623 29.0528V17.8588L135.173 29.2663C135.235 29.3273 135.267 29.3578 135.361 29.3578H138.244C138.432 29.3578 138.557 29.2053 138.557 29.0528V10.9961Z" fill="#01BC8D"/>
<path d="M117.939 10.9961C117.939 10.8131 117.798 10.6911 117.657 10.6911H114.895C114.726 10.6911 114.613 10.8436 114.613 10.9961V29.0528C114.613 29.2358 114.754 29.3578 114.895 29.3578H117.657C117.826 29.3578 117.939 29.2053 117.939 29.0528V10.9961Z" fill="#01BC8D"/>
<path d="M81.774 20.0845C81.774 19.2142 81.774 18.4639 81.8049 17.8636C81.8358 17.2634 81.8667 16.8133 81.9285 16.4232C82.2065 14.8325 83.4735 13.9023 85.0802 13.9023C86.1307 13.9023 87.0578 14.2624 87.6758 15.1326C87.923 15.4929 88.1393 15.943 88.2629 16.4532C88.2629 16.5132 88.2938 16.5432 88.3555 16.5432H91.9399C92.0017 16.5432 92.0017 16.5132 92.0017 16.4532C91.6309 14.3224 90.4259 12.3417 88.3246 11.3814C87.3668 10.9312 86.2543 10.6911 85.0184 10.6911C83.0099 10.6911 81.2796 11.3814 79.8892 12.7018C79.0857 13.4821 78.5913 14.4124 78.3441 15.4629C78.1278 16.4832 78.0352 18.0137 78.0352 20.0244C78.0352 22.0352 78.1278 23.5657 78.3441 24.586C78.5604 25.6365 79.1166 26.5668 79.8892 27.347C81.2796 28.6976 82.979 29.3578 85.0184 29.3578C86.2234 29.3578 87.3359 29.1477 88.3246 28.6675C90.395 27.7072 91.6309 25.7865 92.0017 23.5957C92.0017 23.5357 92.0017 23.5057 91.9399 23.5057H88.3555C88.2938 23.5057 88.2629 23.5357 88.2629 23.5957C88.1393 24.1059 87.9539 24.526 87.6758 24.9162C87.0578 25.7565 86.1307 26.1166 85.0802 26.1466C83.4735 26.1466 82.2374 25.2163 81.9285 23.6257C81.8667 23.2656 81.8049 22.7854 81.8049 22.1852C81.774 21.7051 81.774 20.9547 81.774 20.0845Z" fill="#01BC8D"/>
<path d="M43.7939 10.9956C43.7939 10.8129 43.6385 10.6911 43.483 10.6911H40.4359C40.2494 10.6911 40.125 10.8434 40.125 10.9956V29.0228C40.125 29.2055 40.2805 29.3273 40.4359 29.3273H43.483C43.6696 29.3273 43.7939 29.1751 43.7939 29.0228V23.7242L46.2814 20.8314L51.3496 29.2664C51.3807 29.3273 51.4429 29.3578 51.5361 29.3578H55.2673C55.4227 29.3578 55.4538 29.2664 55.3916 29.1142L48.7689 18.1212L54.8631 10.9652C54.9874 10.8129 54.9252 10.6911 54.7387 10.6911H50.6344C50.5722 10.6911 50.5411 10.6911 50.51 10.752L43.7939 18.578V10.9956Z" fill="#01BC8D"/>
<path d="M66.3355 26.6513C64.6051 26.6513 63.0602 25.0271 63.0602 23.1218V11.0034C63.0602 10.816 62.9057 10.6911 62.7511 10.6911H59.723C59.5377 10.6911 59.4141 10.8473 59.4141 11.0034V23.0906C59.4141 27.3384 62.5657 30.0244 66.3973 30.0244C70.2288 30.0244 73.3806 27.3384 73.3806 23.0906V11.0034C73.3806 10.816 73.2261 10.6911 73.0716 10.6911H70.0434C69.858 10.6911 69.7345 10.8473 69.7345 11.0034V23.1218C69.58 25.0271 68.0349 26.6513 66.3355 26.6513Z" fill="#01BC8D"/>
<path d="M9.42801 20.0244L18.8797 29.4979L24.8523 23.5114C25.8991 22.4623 27.6231 22.4623 28.67 23.5114C29.7167 24.5605 29.7167 26.2887 28.67 27.3378L20.7884 35.2376C19.7417 36.2867 18.0176 36.2867 16.9708 35.2376L5.64119 23.8508V30.6396C5.64119 32.1209 4.4405 33.3552 2.93192 33.3552C1.42335 33.3552 0.222656 32.1517 0.222656 30.6396V9.47089C0.222656 7.95884 1.42335 6.75537 2.93192 6.75537C4.4405 6.75537 5.64119 7.95884 5.64119 9.47089V16.198L17.0016 4.8113C18.0483 3.76212 19.7725 3.76212 20.8192 4.8113L28.7008 12.711C29.7475 13.7602 29.7475 15.4882 28.7008 16.5375C27.6539 17.5866 25.9299 17.5866 24.8832 16.5375L18.9105 10.5509L9.42801 20.0244ZM18.9105 17.3089C17.4018 17.3089 16.2012 18.5123 16.2012 20.0244C16.2012 21.5364 17.4018 22.74 18.9105 22.74C20.419 22.74 21.6196 21.5364 21.6196 20.0244C21.5888 18.5123 20.3882 17.3089 18.9105 17.3089Z" fill="#01BC8D"/>
</svg>
