<svg width="97" height="40" viewBox="0 0 97 40" fill="none" xmlns="http://www.w3.org/2000/svg">
<g clip-path="url(#clip0_6795_169012)">
<path d="M42.668 6.4899H45.378V12.9971H46.9359L51.6815 6.4899H54.8451L49.2222 14.0836L55.2331 22.3102H52.0277L46.9001 15.2597H45.384V22.3102H42.6739V6.4899H42.668Z" fill="black"/>
<path d="M55.3672 6.4899H58.3936L62.4825 14.6687L65.491 6.4899H68.3801L63.8614 18.2387C62.96 20.6087 62.1243 22.3042 59.1159 22.3042H58.0772V20.0476H58.5547C60.2739 20.0476 60.7693 19.1222 61.223 18.0118L55.3672 6.4899Z" fill="black"/>
<path d="M75.9236 6.4899C79.7618 6.4899 81.7556 8.23311 81.7556 11.3017C81.7556 14.3702 79.7678 16.1373 75.9236 16.1373H73.1241V22.3042H70.4141V6.4899H75.9296H75.9236ZM75.8341 13.8807C78.0964 13.8807 78.95 12.8837 78.95 11.3076C78.95 9.73156 78.0905 8.7525 75.8341 8.7525H73.1241V13.8807H75.8341Z" fill="black"/>
<path d="M93.8839 17.4746L96.2537 18.4C95.6448 20.8417 93.5854 22.5789 90.2009 22.5789C86.8163 22.5789 84.5958 20.6148 84.0108 17.8328C83.7601 16.6568 83.7422 15.9822 83.7422 14.4001C83.7422 12.8181 83.7661 12.1614 84.0108 10.9674C84.5779 8.20933 86.8104 6.22134 90.2009 6.22134C93.3646 6.22134 95.3523 7.71382 96.1223 10.0839L93.7287 10.9435C93.1616 9.3854 92.2364 8.47797 90.2068 8.47797C88.1773 8.47797 87.2461 9.69583 86.8641 11.1226C86.5955 12.1375 86.5477 12.7942 86.5477 14.4001C86.5477 16.006 86.5955 16.6627 86.8641 17.6776C87.2461 19.0805 88.1773 20.3223 90.2068 20.3223C92.2364 20.3223 93.3944 19.1223 93.8898 17.4746H93.8839Z" fill="black"/>
<path d="M45.191 25.0566C46.743 25.0566 47.4892 25.6894 47.4892 26.758C47.4892 27.6296 47.0415 28.0416 46.4505 28.2804V28.3162C47.2086 28.5371 47.6264 29.0744 47.6264 29.946C47.6264 31.1101 46.8087 31.8504 45.2567 31.8504H42.5586V25.0566H45.191ZM43.7226 26.0297V27.8625H45.0418C45.9133 27.8625 46.3252 27.4923 46.3252 26.9133C46.3252 26.2625 45.8297 26.0297 44.9582 26.0297H43.7286H43.7226ZM43.7226 28.8356V30.8832H45.0597C45.9312 30.8832 46.4207 30.5549 46.4207 29.8743C46.4207 29.0982 45.9252 28.8356 44.9522 28.8356H43.7226Z" fill="black"/>
<path d="M52.2778 30.4235L53.1971 30.8773C52.8569 31.6175 52.1764 31.9459 51.2094 31.9459C50.2423 31.9459 49.4842 31.4981 49.2216 30.7041C49.0843 30.3041 49.0664 29.946 49.0664 29.4206C49.0664 28.8952 49.0843 28.537 49.2216 28.1371C49.4842 27.3431 50.2423 26.8953 51.2094 26.8953C52.1764 26.8953 52.8986 27.3431 53.1613 28.1371C53.2866 28.537 53.3165 28.8773 53.3165 29.3967V29.7848H50.1886C50.1886 30.1131 50.2006 30.328 50.308 30.5429C50.4513 30.8653 50.7258 31.0504 51.2094 31.0504C51.6929 31.0504 52.0749 30.8534 52.2778 30.4176V30.4235ZM50.1886 28.9549H52.1883C52.1764 28.6803 52.1704 28.5191 52.0749 28.3042C51.9495 28.0117 51.6988 27.7908 51.2094 27.7908C50.7199 27.7908 50.4334 28.0117 50.2961 28.3042C50.2006 28.5191 50.1886 28.6923 50.1886 28.9549Z" fill="black"/>
<path d="M54.9453 26.9968H56.0317V27.4804H56.0675C56.3899 27.0804 56.9032 26.8953 57.3867 26.8953C58.0851 26.8953 58.7179 27.2475 58.9984 28.0415C59.1357 28.4296 59.1536 28.8952 59.1536 29.4206C59.1536 29.946 59.1357 30.3997 58.9984 30.7877C58.7179 31.5817 58.0851 31.9399 57.3867 31.9399C56.9032 31.9399 56.3899 31.7548 56.0675 31.3548H56.0317V33.7786H54.9453V26.9849V26.9968ZM56.0317 29.9101C56.0317 30.5907 56.4555 31.0564 57.0405 31.0564C57.4285 31.0564 57.7687 30.8593 57.912 30.4474C58.0075 30.1668 58.0314 29.9161 58.0314 29.4266C58.0314 28.937 58.0135 28.6982 57.912 28.4057C57.7747 27.9998 57.4285 27.7968 57.0405 27.7968C56.4555 27.7968 56.0317 28.2624 56.0317 28.943V29.9161V29.9101Z" fill="black"/>
<path d="M63.5744 30.4056L64.5056 30.8593C64.1832 31.5757 63.5147 31.9459 62.6432 31.9459C61.6702 31.9459 60.9061 31.4922 60.6435 30.6922C60.5062 30.2922 60.4883 29.946 60.4883 29.4206C60.4883 28.8952 60.5062 28.549 60.6435 28.149C60.9061 27.355 61.6702 26.8953 62.6432 26.8953C63.5147 26.8953 64.1593 27.2058 64.4697 27.9221L63.5266 28.358C63.3595 27.9341 63.0312 27.7848 62.6432 27.7848C62.1597 27.7848 61.8672 28.0475 61.7299 28.4356C61.6403 28.6863 61.6105 29.0087 61.6105 29.4146C61.6105 29.8206 61.6284 30.143 61.7299 30.3937C61.8731 30.7996 62.1597 31.0444 62.6432 31.0444C63.0312 31.0444 63.4072 30.8116 63.5744 30.3937V30.4056Z" fill="black"/>
<path d="M67.0473 26.9968V30.2086L69.1067 26.9968H70.1931V31.8503H69.1067V28.6385L67.0473 31.8503H65.9609V26.9968H67.0473Z" fill="black"/>
<path d="M73.926 30.0056L72.947 31.8503H71.6875L72.8336 29.8922C72.3202 29.7071 71.8427 29.337 71.8427 28.5132C71.8427 27.349 72.9172 26.9968 73.6991 26.9968H75.9197V31.8503H74.8333V30.0056H73.9319H73.926ZM74.8273 27.8326H73.8842C73.3231 27.8326 72.9649 28.0356 72.9649 28.5132C72.9649 29.0743 73.4186 29.1758 74.0633 29.1758H74.8273V27.8386V27.8326Z" fill="black"/>
<path d="M83.6979 25.0566C85.3454 25.0566 86.199 25.8028 86.199 27.1222C86.199 28.4416 85.3454 29.1997 83.6979 29.1997H82.4921V31.8504H81.3281V25.0566H83.6979ZM83.6561 28.2326C84.6291 28.2326 84.9932 27.8087 84.9932 27.1282C84.9932 26.4476 84.6231 26.0297 83.6561 26.0297H82.4921V28.2326H83.6561Z" fill="black"/>
<path d="M87.7364 26.9968H88.8228V27.4804H88.8587C89.1213 27.158 89.4914 26.8953 90.0047 26.8953C90.6136 26.8953 90.9777 27.1759 91.2643 27.5938L90.4286 28.2027C90.2614 27.9401 90.0406 27.7848 89.7182 27.7848C89.2108 27.7848 88.8169 28.2206 88.8169 28.9132V31.8444H87.7305V26.9908L87.7364 26.9968Z" fill="black"/>
<path d="M94.1135 31.9459C93.1406 31.9459 92.4063 31.4981 92.1318 30.7041C91.9945 30.3041 91.9766 29.946 91.9766 29.4206C91.9766 28.8952 91.9945 28.537 92.1318 28.1371C92.4063 27.3431 93.1406 26.8953 94.1135 26.8953C95.0865 26.8953 95.8207 27.3431 96.0953 28.1371C96.2326 28.537 96.2505 28.8952 96.2505 29.4206C96.2505 29.946 96.2326 30.3041 96.0953 30.7041C95.8207 31.4981 95.0865 31.9459 94.1135 31.9459ZM95.0089 30.4594C95.1283 30.137 95.1283 29.8266 95.1283 29.4206C95.1283 29.0146 95.1283 28.7042 95.0089 28.3818C94.8836 28.0415 94.603 27.7908 94.1135 27.7908C93.6241 27.7908 93.3495 28.0415 93.2182 28.3818C93.0988 28.7042 93.0988 29.0146 93.0988 29.4206C93.0988 29.8266 93.0988 30.137 93.2182 30.4594C93.3435 30.8116 93.6241 31.0504 94.1135 31.0504C94.603 31.0504 94.8776 30.8056 95.0089 30.4594Z" fill="black"/>
<path d="M5.69724 6.32877H3.30956C1.99088 6.32877 0.921875 7.39789 0.921875 8.71673V30.8054C0.921875 32.1243 1.99088 33.1934 3.30956 33.1934H5.69724C7.01592 33.1934 8.08493 32.1243 8.08493 30.8054V8.71673C8.08493 7.39789 7.01592 6.32877 5.69724 6.32877Z" fill="#FF4237"/>
<path d="M14.0566 6.32877H11.6689C10.3503 6.32877 9.28125 7.39789 9.28125 8.71673V30.8054C9.28125 32.1243 10.3503 33.1934 11.6689 33.1934H14.0566C15.3753 33.1934 16.4443 32.1243 16.4443 30.8054V8.71673C16.4443 7.39789 15.3753 6.32877 14.0566 6.32877Z" fill="#FF4237"/>
<path d="M22.4082 6.32877H20.0205C18.7018 6.32877 17.6328 7.39789 17.6328 8.71673V30.8054C17.6328 32.1243 18.7018 33.1934 20.0205 33.1934H22.4082C23.7269 33.1934 24.7959 32.1243 24.7959 30.8054V8.71673C24.7959 7.39789 23.7269 6.32877 22.4082 6.32877Z" fill="#FF4237"/>
<path d="M30.7676 6.32877H28.3799C27.0612 6.32877 25.9922 7.39789 25.9922 8.71673V30.8054C25.9922 32.1243 27.0612 33.1934 28.3799 33.1934H30.7676C32.0862 33.1934 33.1552 32.1243 33.1552 30.8054V8.71673C33.1552 7.39789 32.0862 6.32877 30.7676 6.32877Z" fill="#FF4237"/>
<path d="M5.69724 16.9672H3.30956C1.99088 16.9672 0.921875 18.0364 0.921875 19.3552V30.8055C0.921875 32.1243 1.99088 33.1935 3.30956 33.1935H5.69724C7.01592 33.1935 8.08493 32.1243 8.08493 30.8055V19.3552C8.08493 18.0364 7.01592 16.9672 5.69724 16.9672Z" fill="#00C0A2"/>
<path d="M14.0566 14.3882H11.6689C10.3503 14.3882 9.28125 15.4573 9.28125 16.7761V30.8054C9.28125 32.1243 10.3503 33.1934 11.6689 33.1934H14.0566C15.3753 33.1934 16.4443 32.1243 16.4443 30.8054V16.7761C16.4443 15.4573 15.3753 14.3882 14.0566 14.3882Z" fill="#00C0A2"/>
<path d="M22.4082 10.5078H20.0205C18.7018 10.5078 17.6328 11.5769 17.6328 12.8958V30.8055C17.6328 32.1244 18.7018 33.1935 20.0205 33.1935H22.4082C23.7269 33.1935 24.7959 32.1244 24.7959 30.8055V12.8958C24.7959 11.5769 23.7269 10.5078 22.4082 10.5078Z" fill="#00C0A2"/>
<path d="M30.7676 8.11975H28.3799C27.0612 8.11975 25.9922 9.18888 25.9922 10.5077V30.8054C25.9922 32.1243 27.0612 33.1934 28.3799 33.1934H30.7676C32.0862 33.1934 33.1552 32.1243 33.1552 30.8054V10.5077C33.1552 9.18888 32.0862 8.11975 30.7676 8.11975Z" fill="#00C0A2"/>
<path d="M5.69724 21.8505H3.30956C1.99088 21.8505 0.921875 22.9196 0.921875 24.2385V30.8054C0.921875 32.1242 1.99088 33.1933 3.30956 33.1933H5.69724C7.01592 33.1933 8.08493 32.1242 8.08493 30.8054V24.2385C8.08493 22.9196 7.01592 21.8505 5.69724 21.8505Z" fill="#00928C"/>
<path d="M14.0566 25.0803H11.6689C10.3503 25.0803 9.28125 26.1495 9.28125 27.4683V30.8055C9.28125 32.1243 10.3503 33.1934 11.6689 33.1934H14.0566C15.3753 33.1934 16.4443 32.1243 16.4443 30.8055V27.4683C16.4443 26.1495 15.3753 25.0803 14.0566 25.0803Z" fill="#00928C"/>
<path d="M22.4082 16.0777H20.0205C18.7018 16.0777 17.6328 17.1468 17.6328 18.4657V30.8055C17.6328 32.1243 18.7018 33.1934 20.0205 33.1934H22.4082C23.7269 33.1934 24.7959 32.1243 24.7959 30.8055V18.4657C24.7959 17.1468 23.7269 16.0777 22.4082 16.0777Z" fill="#00928C"/>
<path d="M30.7676 11.9464H28.3799C27.0612 11.9464 25.9922 13.0155 25.9922 14.3343V30.8053C25.9922 32.1242 27.0612 33.1933 28.3799 33.1933H30.7676C32.0862 33.1933 33.1552 32.1242 33.1552 30.8053V14.3343C33.1552 13.0155 32.0862 11.9464 30.7676 11.9464Z" fill="#00928C"/>
</g>
<defs>
<clipPath id="clip0_6795_169012">
<rect width="95.3317" height="40" fill="white" transform="translate(0.921875)"/>
</clipPath>
</defs>
</svg>
