<svg width="147" height="40" viewBox="0 0 147 40" fill="none" xmlns="http://www.w3.org/2000/svg">
<g clip-path="url(#clip0_6795_169022)">
<path d="M40.8073 10.4421H44.4289L49.3705 23.2186C49.468 23.4787 49.559 23.7388 49.6371 23.9989C49.7216 24.2524 49.7866 24.5125 49.8451 24.7791H49.9427C50.0012 24.519 50.0662 24.2589 50.1507 23.9924C50.2352 23.7258 50.3198 23.4722 50.4173 23.2186L55.3719 10.4421H59.0195V28.2577H56.2691V15.8973C56.2691 15.6437 56.2691 15.3642 56.2821 15.0456C56.2886 14.7335 56.3082 14.4474 56.3407 14.1938H56.2431C56.1911 14.4474 56.1261 14.7335 56.0351 15.0456C55.944 15.3577 55.853 15.6437 55.7555 15.8973L50.97 28.2577H48.5967L43.8372 15.8973C43.7397 15.6437 43.6422 15.3642 43.5511 15.0456C43.4601 14.7335 43.3886 14.4474 43.3366 14.1938H43.239C43.2716 14.4474 43.2911 14.7335 43.2976 15.0456C43.3041 15.3577 43.3106 15.6437 43.3106 15.8973V28.2577H40.8008V10.4421H40.8073Z" fill="black"/>
<path d="M62.0391 21.6126C62.0391 19.649 62.6112 18.056 63.7556 16.8336C64.9 15.6112 66.4149 15.0065 68.3005 15.0065C70.1861 15.0065 71.7011 15.6177 72.8389 16.8336C73.9833 18.056 74.549 19.649 74.549 21.6126V22.0027C74.549 23.9793 73.9768 25.5723 72.8389 26.7947C71.6946 28.0171 70.1861 28.6218 68.3005 28.6218C66.4149 28.6218 64.9 28.0106 63.7556 26.7947C62.6112 25.5788 62.0391 23.9793 62.0391 22.0027V21.6126ZM64.8284 22.0808C64.8284 23.3682 65.121 24.4215 65.7062 25.2407C66.2914 26.06 67.1562 26.4631 68.3005 26.4631C69.4449 26.4631 70.2967 26.0535 70.8818 25.2407C71.467 24.428 71.7596 23.3747 71.7596 22.0808V21.5541C71.7596 20.2667 71.467 19.2134 70.8753 18.3876C70.2836 17.5618 69.4254 17.1587 68.3005 17.1587C67.1757 17.1587 66.3044 17.5683 65.7127 18.3876C65.121 19.2068 64.8284 20.2602 64.8284 21.5541V22.0808Z" fill="black"/>
<path d="M77.2852 15.3707H79.8079L79.9055 16.9507H79.964C80.3866 16.3981 80.9328 15.9494 81.6025 15.6178C82.2722 15.2862 83.007 15.1172 83.8197 15.1172C85.1266 15.1172 86.1734 15.4878 86.9667 16.2355C87.7599 16.9832 88.1566 18.2446 88.1566 20.0262V28.2643H85.4257V19.9807C85.4257 19.0249 85.2176 18.3487 84.795 17.9455C84.3724 17.5424 83.7742 17.3409 82.9874 17.3409C82.3372 17.3409 81.7456 17.5229 81.2254 17.8805C80.7052 18.2381 80.3021 18.7193 80.016 19.311V28.2708H77.2852V15.3707Z" fill="black"/>
<path d="M90.7578 21.6126C90.7578 19.6555 91.3105 18.0625 92.4223 16.8401C93.5342 15.6177 94.9841 15.0065 96.7787 15.0065C98.5733 15.0065 99.9647 15.5787 100.953 16.7231C101.941 17.8674 102.435 19.4279 102.435 21.3915V22.4579H92.5264V20.4878H99.7241V20.2082C99.7241 19.3499 99.477 18.6217 98.9764 18.0235C98.4757 17.4253 97.767 17.1262 96.8502 17.1262C95.7384 17.1262 94.9061 17.5423 94.3534 18.3811C93.8008 19.2199 93.5212 20.2732 93.5212 21.5541V22.0808C93.5212 23.3421 93.8138 24.3955 94.4055 25.2342C94.9971 26.073 95.8944 26.4891 97.1038 26.4891C97.8775 26.4891 98.5473 26.3136 99.1064 25.9625C99.6656 25.6114 100.121 25.2017 100.472 24.7271L102.305 26.06C101.896 26.7297 101.246 27.3279 100.355 27.8481C99.464 28.3682 98.3847 28.6283 97.1298 28.6283C95.1012 28.6283 93.5277 28.0171 92.4223 26.7947C91.317 25.5723 90.7643 23.9793 90.7643 22.0092V21.6191L90.7578 21.6126Z" fill="black"/>
<path d="M103.324 15.3704H110.86V17.412H103.324V15.3704ZM105.502 16.5343V12.2364H108.22V24.8309C108.22 25.4031 108.337 25.8062 108.565 26.0468C108.792 26.2873 109.131 26.4109 109.579 26.4109C109.8 26.4109 110.015 26.3849 110.223 26.3393C110.431 26.2873 110.639 26.2288 110.854 26.1443V28.264C110.652 28.3615 110.379 28.446 110.034 28.524C109.69 28.5956 109.319 28.6346 108.909 28.6346C107.876 28.6346 107.05 28.329 106.432 27.7243C105.815 27.1196 105.509 26.1638 105.509 24.8699V16.5473L105.502 16.5343Z" fill="black"/>
<path d="M112.188 21.6126C112.188 19.649 112.76 18.056 113.904 16.8336C115.048 15.6112 116.563 15.0065 118.449 15.0065C120.335 15.0065 121.85 15.6177 122.987 16.8336C124.132 18.056 124.697 19.649 124.697 21.6126V22.0027C124.697 23.9793 124.125 25.5723 122.987 26.7947C121.843 28.0171 120.335 28.6218 118.449 28.6218C116.563 28.6218 115.048 28.0106 113.904 26.7947C112.76 25.5788 112.188 23.9793 112.188 22.0027V21.6126ZM114.977 22.0808C114.977 23.3682 115.269 24.4215 115.855 25.2407C116.44 26.06 117.305 26.4631 118.449 26.4631C119.593 26.4631 120.445 26.0535 121.03 25.2407C121.615 24.428 121.908 23.3747 121.908 22.0808V21.5541C121.908 20.2667 121.615 19.2134 121.024 18.3876C120.432 17.5618 119.574 17.1587 118.449 17.1587C117.324 17.1587 116.453 17.5683 115.861 18.3876C115.269 19.2068 114.977 20.2602 114.977 21.5541V22.0808Z" fill="black"/>
<path d="M127.434 15.3706H129.956L130.054 16.9376H130.125C130.425 16.424 130.828 15.9753 131.335 15.5852C131.842 15.1951 132.434 15.0065 133.11 15.0065C133.279 15.0065 133.461 15.026 133.656 15.065C133.845 15.1041 133.981 15.1431 134.053 15.1756V17.6334C133.897 17.6008 133.734 17.5748 133.565 17.5553C133.396 17.5358 133.201 17.5228 132.993 17.5228C132.323 17.5228 131.744 17.7049 131.257 18.0755C130.769 18.4461 130.405 18.9013 130.164 19.4474V28.2577H127.434V15.3706Z" fill="black"/>
<path d="M135.469 31.1576C135.684 31.2226 135.918 31.2746 136.171 31.3201C136.431 31.3591 136.672 31.3786 136.913 31.3786C137.478 31.3786 137.966 31.1771 138.389 30.7804C138.811 30.3773 139.227 29.5255 139.643 28.2121L139.591 28.1991L134.734 15.3771H137.426L140.326 23.5242C140.443 23.8428 140.534 24.1419 140.612 24.4149C140.69 24.688 140.762 24.9546 140.827 25.2082H140.898C140.963 24.9546 141.041 24.688 141.126 24.4149C141.21 24.1419 141.301 23.8428 141.399 23.5242L144.143 15.3771H146.666L141.418 29.9157C140.996 31.0925 140.424 31.9963 139.708 32.64C138.993 33.2772 138.122 33.6023 137.082 33.6023C136.737 33.6023 136.438 33.5828 136.184 33.5438C135.924 33.5048 135.684 33.4398 135.456 33.3617L135.469 31.1706V31.1576Z" fill="black"/>
<path d="M14.402 4.03088C6.45003 4.03088 0 10.4744 0 18.4264C0 26.3784 6.45003 32.8284 14.402 32.8284C22.354 32.8284 28.804 26.3784 28.804 18.4264C28.804 10.4744 22.354 4.03088 14.402 4.03088ZM14.402 27.1131C9.61002 27.1131 5.7218 23.2249 5.7218 18.4264C5.7218 13.6279 9.61002 9.74618 14.402 9.74618C19.194 9.74618 23.0822 13.6344 23.0822 18.4264C23.0822 23.2184 19.2005 27.1131 14.402 27.1131Z" fill="url(#paint0_linear_6795_169022)"/>
<path d="M31.469 34.9028C30.8384 35.6115 29.9541 35.9691 29.0698 35.9691C28.3026 35.9691 27.5288 35.696 26.9176 35.1434L21.9566 30.683C19.7589 32.0484 17.1711 32.8286 14.4012 32.8286C7.63907 32.8286 1.95628 28.1602 0.4218 21.8727C0.382787 21.6841 0.363281 21.4891 0.363281 21.294C0.363281 19.714 1.64418 18.4331 3.23068 18.4331C4.50508 18.4331 5.59092 19.2719 5.95504 20.4292C5.96154 20.4357 5.96154 20.4422 5.96154 20.4487C5.98105 20.5398 6.00055 20.6308 6.03306 20.7218C6.03306 20.7283 6.03956 20.7413 6.03956 20.7543C7.05388 24.4215 10.4154 27.1133 14.4012 27.1133C18.582 27.1133 22.0606 24.1679 22.8929 20.2342C22.9059 20.1887 22.9124 20.1431 22.9189 20.0911C23.2115 18.8167 24.3558 17.8674 25.7147 17.8674C27.2947 17.8674 28.5821 19.1483 28.5821 20.7283C28.5821 20.8129 28.5821 20.8974 28.5691 20.9819C28.5431 21.1835 28.4976 21.385 28.4521 21.5801C28.088 23.2316 27.4378 24.7726 26.5535 26.151L31.2285 30.3513C32.5419 31.5347 32.6524 33.5829 31.469 34.9028Z" fill="#9437FF"/>
</g>
<defs>
<linearGradient id="paint0_linear_6795_169022" x1="0" y1="18.4329" x2="28.804" y2="18.4329" gradientUnits="userSpaceOnUse">
<stop offset="0.24" stop-color="#9437FF"/>
<stop offset="1" stop-color="#9437FF" stop-opacity="0.1"/>
</linearGradient>
<clipPath id="clip0_6795_169022">
<rect width="146.666" height="40" fill="white"/>
</clipPath>
</defs>
</svg>
