<svg width="163" height="40" viewBox="0 0 163 40" fill="none" xmlns="http://www.w3.org/2000/svg">
<g clip-path="url(#clip0_8924_74236)">
<path d="M30.7422 29.9241V9H34.8284L39.6845 23.8153C40.1322 25.195 40.4588 26.2274 40.664 26.9125C40.8973 26.1513 41.2611 25.0332 41.7556 23.5584L46.6675 9H50.3199V29.9241H47.703V12.4112L41.7415 29.9241H39.2926L33.359 12.1115V29.9241H30.7422Z" fill="black"/>
<path d="M64.1163 29.9241V27.6975C62.9594 29.4103 61.3874 30.2667 59.4002 30.2667C58.5232 30.2667 57.7022 30.0953 56.9372 29.7528C56.1815 29.4103 55.6171 28.982 55.2439 28.4682C54.8801 27.9449 54.6236 27.3074 54.4743 26.5557C54.3716 26.0514 54.3203 25.2521 54.3203 24.1578V14.7662H56.8393V23.173C56.8393 24.5146 56.8906 25.4186 56.9933 25.8849C57.1518 26.5605 57.4877 27.0933 58.0008 27.4834C58.5139 27.864 59.1483 28.0543 59.904 28.0543C60.6596 28.0543 61.3687 27.8593 62.0311 27.4691C62.6935 27.0695 63.16 26.5319 63.4306 25.8563C63.7104 25.1712 63.8503 24.1816 63.8503 22.8875V14.7662H66.3693V29.9241H64.1163Z" fill="black"/>
<path d="M70.2734 29.9241V9H72.7924V29.9241H70.2734Z" fill="black"/>
<path d="M82.2132 27.6262L82.5772 29.8956C81.8681 30.0478 81.2337 30.124 80.6739 30.124C79.7597 30.124 79.0506 29.9765 78.5469 29.6815C78.043 29.3865 77.6885 29.0012 77.4832 28.5254C77.278 28.0401 77.1754 27.0267 77.1754 25.4852V16.7645H75.3281V14.7663H77.1754V11.0125L79.6803 9.47101V14.7663H82.2132V16.7645H79.6803V25.628C79.6803 26.3606 79.7223 26.8316 79.8063 27.041C79.8996 27.2503 80.0442 27.4168 80.2401 27.5405C80.4454 27.6643 80.7346 27.7261 81.1078 27.7261C81.3876 27.7261 81.7562 27.6928 82.2132 27.6262Z" fill="black"/>
<path d="M84.7031 11.9545V9H87.2218V11.9545H84.7031ZM84.7031 29.9241V14.7663H87.2218V29.9241H84.7031Z" fill="black"/>
<path d="M91.4336 29.9241V9H100.53C102.359 9 103.749 9.19031 104.7 9.57092C105.651 9.94201 106.412 10.6033 106.981 11.5549C107.551 12.5064 107.835 13.5578 107.835 14.7092C107.835 16.1936 107.364 17.4448 106.422 18.463C105.479 19.4811 104.024 20.1281 102.055 20.4041C102.774 20.7561 103.32 21.1034 103.693 21.446C104.486 22.1882 105.237 23.1159 105.946 24.2292L109.515 29.9241H106.099L103.385 25.5708C102.592 24.3148 101.939 23.3538 101.425 22.6878C100.912 22.0217 100.451 21.5554 100.04 21.289C99.6394 21.0226 99.2284 20.8371 98.8089 20.7323C98.5009 20.6657 97.9973 20.6325 97.2973 20.6325H94.1488V29.9241H91.4336ZM94.1488 18.2345H99.9842C101.225 18.2345 102.195 18.1062 102.895 17.8492C103.595 17.5828 104.126 17.1641 104.491 16.5932C104.854 16.0128 105.036 15.3848 105.036 14.7092C105.036 13.7196 104.682 12.906 103.973 12.2685C103.273 11.631 102.162 11.3122 100.642 11.3122H94.1488V18.2345Z" fill="black"/>
<path d="M121.478 28.0544C120.545 28.8632 119.645 29.434 118.776 29.7671C117.918 30.1001 116.995 30.2667 116.006 30.2667C114.373 30.2667 113.119 29.8622 112.242 29.0534C111.364 28.2351 110.926 27.1932 110.926 25.9277C110.926 25.1855 111.09 24.5099 111.416 23.9009C111.752 23.2825 112.185 22.7877 112.717 22.4166C113.258 22.0455 113.865 21.7647 114.537 21.5745C115.031 21.4413 115.777 21.3128 116.776 21.189C118.809 20.9417 120.307 20.6467 121.268 20.3041C121.277 19.9521 121.281 19.7285 121.281 19.6333C121.281 18.5866 121.044 17.8492 120.568 17.421C119.924 16.8406 118.968 16.5504 117.699 16.5504C116.514 16.5504 115.637 16.7645 115.069 17.1927C114.508 17.6113 114.093 18.3583 113.823 19.4335L111.36 19.091C111.584 18.0158 111.952 17.1498 112.466 16.4933C112.979 15.8272 113.72 15.3181 114.69 14.9661C115.661 14.6045 116.785 14.4237 118.063 14.4237C119.331 14.4237 120.363 14.576 121.155 14.8804C121.949 15.1849 122.531 15.5703 122.905 16.0366C123.278 16.4933 123.539 17.0737 123.689 17.7778C123.773 18.2155 123.815 19.0053 123.815 20.1471V23.5726C123.815 25.961 123.866 27.4739 123.968 28.1115C124.081 28.7394 124.295 29.3437 124.613 29.9241H121.981C121.72 29.3913 121.553 28.768 121.478 28.0544ZM121.268 22.3167C120.353 22.6973 118.982 23.0208 117.153 23.2872C116.118 23.4395 115.385 23.6107 114.956 23.8011C114.527 23.9913 114.196 24.272 113.963 24.6431C113.729 25.0047 113.613 25.4091 113.613 25.8563C113.613 26.5414 113.865 27.1123 114.369 27.569C114.882 28.0258 115.628 28.2542 116.608 28.2542C117.578 28.2542 118.441 28.0401 119.197 27.6119C119.953 27.1742 120.508 26.5795 120.862 25.8278C121.132 25.2473 121.268 24.3909 121.268 23.2586V22.3167Z" fill="black"/>
<path d="M133.233 27.6262L133.597 29.8956C132.887 30.0478 132.253 30.124 131.694 30.124C130.78 30.124 130.07 29.9765 129.566 29.6815C129.063 29.3865 128.709 29.0012 128.503 28.5254C128.298 28.0401 128.195 27.0267 128.195 25.4852V16.7645H126.348V14.7663H128.195V11.0125L130.7 9.47101V14.7663H133.233V16.7645H130.7V25.628C130.7 26.3606 130.742 26.8316 130.826 27.041C130.919 27.2503 131.063 27.4168 131.26 27.5405C131.465 27.6643 131.754 27.7261 132.127 27.7261C132.407 27.7261 132.776 27.6928 133.233 27.6262Z" fill="black"/>
<path d="M145.885 25.0427L148.488 25.3711C148.078 26.9221 147.317 28.1257 146.206 28.9821C145.096 29.8385 143.678 30.2667 141.952 30.2667C139.779 30.2667 138.053 29.5864 136.775 28.2256C135.506 26.8555 134.871 24.9381 134.871 22.4737C134.871 19.9235 135.515 17.9444 136.802 16.5361C138.09 15.1278 139.76 14.4237 141.812 14.4237C143.8 14.4237 145.423 15.1136 146.683 16.4933C147.942 17.873 148.572 19.8141 148.572 22.3167C148.572 22.4689 148.567 22.6973 148.558 23.0018H137.474C137.567 24.6669 138.03 25.9419 138.859 26.8269C139.69 27.7118 140.725 28.1542 141.967 28.1542C142.89 28.1542 143.678 27.9069 144.331 27.4121C144.985 26.9173 145.502 26.1275 145.885 25.0427ZM137.615 20.8893H145.913C145.801 19.6143 145.483 18.658 144.961 18.0205C144.159 17.0309 143.119 16.5361 141.841 16.5361C140.683 16.5361 139.709 16.931 138.916 17.7208C138.132 18.5105 137.698 19.5667 137.615 20.8893Z" fill="black"/>
<path d="M150.656 25.3996L153.147 25C153.287 26.018 153.674 26.7983 154.308 27.3407C154.952 27.8831 155.847 28.1542 156.995 28.1542C158.152 28.1542 159.01 27.9164 159.57 27.4407C160.13 26.9553 160.41 26.3891 160.41 25.7422C160.41 25.1617 160.163 24.705 159.668 24.3719C159.323 24.1436 158.465 23.8533 157.093 23.5012C155.246 23.0255 153.963 22.6164 153.245 22.2738C152.536 21.9217 151.995 21.4413 151.621 20.8322C151.258 20.2137 151.076 19.5334 151.076 18.7912C151.076 18.1156 151.225 17.4924 151.524 16.9215C151.832 16.341 152.247 15.8605 152.769 15.4799C153.16 15.1849 153.692 14.9375 154.364 14.7377C155.045 14.5284 155.773 14.4237 156.547 14.4237C157.713 14.4237 158.735 14.595 159.612 14.9375C160.498 15.2801 161.152 15.7463 161.571 16.3363C161.991 16.9167 162.281 17.697 162.439 18.677L159.976 19.0196C159.864 18.2394 159.537 17.6304 158.997 17.1927C158.465 16.7549 157.709 16.5361 156.729 16.5361C155.573 16.5361 154.747 16.7312 154.253 17.1213C153.758 17.5114 153.51 17.9682 153.51 18.4915C153.51 18.8245 153.613 19.1242 153.818 19.3907C154.023 19.6666 154.346 19.895 154.784 20.0758C155.036 20.171 155.778 20.3898 157.009 20.7323C158.791 21.2176 160.032 21.6173 160.731 21.9312C161.441 22.2357 161.996 22.6829 162.397 23.2729C162.798 23.8628 162.999 24.5955 162.999 25.471C162.999 26.3274 162.752 27.1361 162.257 27.8974C161.772 28.6491 161.068 29.2343 160.144 29.6529C159.221 30.0621 158.176 30.2667 157.009 30.2667C155.078 30.2667 153.604 29.8575 152.587 29.0392C151.579 28.2209 150.936 27.0077 150.656 25.3996Z" fill="black"/>
<path fill-rule="evenodd" clip-rule="evenodd" d="M15.0132 18.089L21.4474 11.489V28.511L15.0132 21.911V18.089ZM12.5867 15.6L19.0209 9H2.4265L8.86068 15.6H12.5867ZM6.43421 18.089L0 11.489V28.511L6.43421 21.911V18.089ZM8.86068 24.4L2.4265 31H19.0209L12.5867 24.4H8.86068Z" fill="black"/>
</g>
<defs>
<clipPath id="clip0_8924_74236">
<rect width="163" height="22" fill="white" transform="translate(0 9)"/>
</clipPath>
</defs>
</svg>
