<svg width="133" height="40" viewBox="0 0 133 40" fill="none" xmlns="http://www.w3.org/2000/svg">
<path d="M16.7482 8H14.0441C12.1221 8 9.54467 9.82393 9.2027 12.7902L8.97472 14.1377H1.65716V16.4949H8.57259L8.03113 19.6727H0.691406V22.0299H7.629L7.2237 24.4187C7.20153 24.586 7.19837 24.7501 7.19203 24.9078C7.04005 27.9372 9.64283 29.2121 11.4065 29.2121H13.8067C15.7635 29.2121 18.3251 28.0477 19.0091 24.4219L20.6208 12.7902C20.6429 12.6261 20.6303 12.462 20.6524 12.3074C20.9659 10.272 19.3637 8 16.7546 8H16.7482ZM16.1656 13.0648C16.1625 13.0995 14.8452 23.6866 14.8452 23.6866C14.7946 24.0116 14.4779 25.6778 13.6357 25.6778H12.8409C12.0778 25.58 12.1031 24.8952 12.2646 23.9422C12.2709 23.9075 13.623 13.1878 13.623 13.1878C13.7275 12.6104 13.7718 11.5374 14.7819 11.5374H15.412C16.5424 11.5374 16.2258 12.5031 16.1656 13.0648Z" fill="black"/>
<path d="M32.034 18.398L35.1329 29.2121H29.9555L27.5168 19.5246L26.0574 29.2121H21.2969L24.4937 8H29.2542L27.8421 17.3643L33.1523 8H38.2666L32.034 18.398Z" fill="black"/>
<path d="M49.7322 14.1571C49.655 13.8952 49.5252 13.6595 49.3831 13.4336C48.8702 12.5857 48.0576 11.967 47.0998 11.7346C46.8341 11.6724 46.5591 11.6364 46.2748 11.6364H43.593C40.8895 11.6364 38.6371 13.702 38.1705 16.4224L38.1056 16.9331L37.1478 24.1941C37.1478 24.1941 36.7863 26.4267 37.4877 27.6183C38.0006 28.4923 38.739 29.2126 39.6659 29.5628C40.0985 29.7298 40.5589 29.8182 41.0439 29.8182H43.4694C44.9277 29.684 46.142 29.3926 46.8186 28.8394C47.6837 28.1486 48.209 27.4677 48.5458 25.8996L48.6106 25.4118L48.8053 23.9518L49.0432 22.1349H44.6064L44.4766 23.1367L44.4642 23.248L43.9915 26.3645C43.9297 26.8293 43.5744 26.9635 43.1975 26.9635H42.8329C42.4961 26.9635 42.0605 26.79 42.0605 26.4038C42.0605 26.3612 42.0635 26.3121 42.0697 26.2663L42.3602 22.9763L42.5857 21.2609L42.9348 18.642L43.2593 15.8659L43.2963 15.5746C43.3581 15.1097 43.4663 14.1735 44.078 14.1473H44.6033C44.9741 14.1407 45.1811 14.5499 45.144 15.4207C45.144 15.4698 44.8505 17.9872 44.8505 17.9872H49.5005C49.5005 17.9872 49.9238 14.7987 49.7322 14.1538V14.1571Z" fill="black"/>
<path d="M64.323 14.5811C64.323 14.7877 64.3073 15.0039 64.279 15.2233L62.3397 29.2121H57.8263C57.8263 29.2121 59.489 17.0482 59.5958 16.3742C59.7498 15.4204 58.9955 15.0929 58.6561 15.0929H58.0369C57.666 15.0929 56.9023 15.0039 56.6791 16.3837L54.9001 29.2121H50.3867L53.5989 8H58.1123L57.1411 13.055C57.7792 12.2189 59.8253 11.6848 60.6865 11.6848H61.4188C63.2669 11.6848 64.3261 12.842 64.3261 14.5779L64.323 14.5811Z" fill="black"/>
<path d="M78.8623 15.7708C78.8494 15.9343 78.8493 16.1009 78.8266 16.2709L76.8257 29.6548L71.4391 29.7038L71.6661 28.1578C71.1083 29.4684 69.5873 29.8182 68.449 29.8182H67.9982C66.0589 29.8182 64.9336 28.622 64.9336 26.8276C64.9336 26.6185 64.9498 26.4028 64.979 26.1805L65.3065 23.8436C65.686 21.3924 67.8718 20.5786 69.9116 19.7157C71.9677 18.8463 73.1773 18.343 73.1773 18.343C73.1773 18.343 73.4984 16.6565 73.547 15.7479C73.5827 15.0518 73.5892 14.153 72.6584 14.1399C71.3061 14.1203 71.2769 15.4374 71.2088 15.9015L71.0402 17.8528H66.4546L66.8145 15.274C67.1096 13.2575 69.9376 11.6364 72.0066 11.6364H74.1891C77.0365 11.6364 79.0375 13.6072 78.8623 15.7708ZM72.6811 21.278C72.6811 21.278 71.0337 21.8663 70.5116 23.422C70.09 24.6771 69.9959 26.0563 70.0738 26.5335C70.1386 26.942 70.3494 27.1381 70.9396 27.076C71.5266 27.0335 71.9709 26.1968 71.9709 26.1968C71.9709 26.1968 72.6163 22.667 72.6811 21.278Z" fill="black"/>
<path d="M92.2047 14.5402C92.2047 14.7473 92.1923 14.9641 92.1646 15.184L90.3948 29.2089H85.9582C85.9582 29.2089 87.4535 17.5364 87.5183 17.0136C87.5645 16.6503 87.842 15.0852 86.877 15.0565H86.3621C85.8102 15.098 85.4433 15.49 85.1997 16.9977L83.6026 29.2121H79.4805L81.688 11.7989H85.2861L85.3107 13.6062C85.8379 12.4332 86.9386 11.6364 87.8975 11.6364H89.5531C91.2396 11.6364 92.2077 12.7966 92.2077 14.537L92.2047 14.5402Z" fill="black"/>
<path d="M108.569 11.8011L105.852 30.7788C105.554 32.9682 103.565 34.6667 101.31 34.6667H94.2484L94.7137 31.205H100.281C100.779 31.205 101.143 30.8789 101.209 30.4527L101.556 28.0017C100.963 28.9704 99.9766 29.6034 99.0525 29.6034H97.7646C95.8082 29.6034 93.8781 28.3924 94.0321 26.0061C94.0452 25.7962 94.0485 25.5798 94.078 25.3538L95.6018 15.8892C95.9 13.7644 98.1578 11.6364 100.347 11.6364H101.802C102.896 11.6364 103.696 12.5276 103.814 13.8096L104.522 11.7978H108.566L108.569 11.8011ZM100.776 26.1417C101.468 26.1417 101.802 25.7607 101.907 25.0599C101.907 25.0599 103.136 16.6997 103.139 16.6545C103.316 15.295 103.175 15.1012 102.434 15.1012H101.527C100.757 15.1012 100.665 15.6986 100.498 16.648C100.498 16.648 99.3015 24.8404 99.2917 24.8856C99.1409 25.6961 99.4621 26.1449 100.098 26.1449H100.779L100.776 26.1417Z" fill="black"/>
<path d="M121.27 16.2757L120.484 21.4902H113.799L113.276 25.2213C113.215 25.6852 113.564 26.3354 114.126 26.3158H114.61C115.204 26.2733 115.582 25.6852 115.64 25.2213L115.942 23.274H120.24L119.878 25.182C119.605 27.1652 116.904 29.8182 114.998 29.8182H112.499C110.594 29.8182 108.345 27.1652 108.589 25.182L109.981 16.2725C110.392 13.2373 112.955 11.6364 114.86 11.6364H117.36C119.265 11.6364 121.575 13.2177 121.27 16.2725V16.2757ZM114.184 18.4843H116.548L116.882 16.5731C117.042 15.4688 116.712 15.1486 116.06 15.1486H115.576C114.848 15.1878 114.613 15.9458 114.514 16.5731L114.184 18.4843Z" fill="black"/>
<path d="M132.205 11.6428L131.299 16.1598L129.745 16.3046C128.879 16.3786 128.524 16.8515 128.325 18.1609L126.902 29.2121H122.508L124.861 11.6364H128.606L128.634 13.9142C129.157 12.5919 130.191 11.6364 131.73 11.6364H132.205V11.6428Z" fill="black"/>
</svg>
