<svg width="207" height="40" viewBox="0 0 207 40" fill="none" xmlns="http://www.w3.org/2000/svg">
<path d="M38.0436 4.32439L33.4256 0V2.82738H6.65625V13.2161H22.1923C23.5407 13.2161 24.6354 14.3144 24.6354 15.6592C24.6354 17.004 23.5371 18.1024 22.1923 18.1024H6.65625V31.6484H9.65398V21.1001H22.1923C22.8012 21.1001 23.3884 20.9986 23.9358 20.8137C26.0817 20.0851 27.6331 18.0516 27.6331 15.6592C27.6331 13.2668 26.0853 11.2333 23.9358 10.5047C23.3884 10.3162 22.8012 10.2184 22.1923 10.2184H9.65398V5.82512H33.4256V8.6525L38.0436 4.32802V4.32439Z" fill="url(#paint0_linear_5744_119686)"/>
<path d="M37.1897 15.826C37.1897 12.8899 36.1198 10.1858 34.3209 8.02179H29.7746C32.3143 9.81608 33.9525 12.647 33.9525 15.826C33.9525 19.5885 31.6558 22.8618 28.2893 24.5111C27.3722 24.9606 26.3454 25.1853 25.3068 25.1853H14.9327V34.1785H5.9696V31.3511L0.976562 35.6755L5.9696 40V37.1726H18.1739V28.2773H25.0952C25.5576 28.2773 26.024 28.241 26.4825 28.1721C27.0665 28.0815 27.8307 27.9511 28.1168 27.8532C33.4077 26.048 37.1936 21.3357 37.1936 15.8223L37.1897 15.826Z" fill="url(#paint1_linear_5744_119686)"/>
<path d="M52.3967 13.9714C51.5424 13.9714 50.7041 14.1399 49.9059 14.4728C49.3083 14.7215 48.7989 15.0303 48.3857 15.3953V14.2483H45.7305V32.6667H48.3857V26.7264C49.2321 27.1836 50.3351 27.4122 51.6788 27.4122C53.6682 27.4122 55.2967 26.7464 56.516 25.4348C57.7474 24.1072 58.3731 22.4466 58.3731 20.5013C58.3731 18.556 57.8236 17.0158 56.7446 15.8205C55.6897 14.5932 54.2298 13.9754 52.4007 13.9754L52.3967 13.9714ZM55.5774 20.5816C55.5774 21.8651 55.2004 22.9159 54.4624 23.7061C53.7244 24.4963 52.7256 24.8934 51.4862 24.8934C50.3431 24.8934 49.3002 24.6006 48.3898 24.027V18.0587C49.2682 16.9998 50.3712 16.4863 51.763 16.4863C52.9462 16.4863 53.8888 16.8593 54.5587 17.5893C55.2365 18.3274 55.5774 19.3342 55.5774 20.5776V20.5816Z" fill="black"/>
<path d="M66.6686 14.0276C65.4814 14.0276 64.5067 14.4487 63.7646 15.283V14.2483H61.1094V27.1355H63.7646V18.1469C64.3342 17.068 65.1123 16.5425 66.1432 16.5425C66.6887 16.5425 67.2181 16.6909 67.7195 16.9837L67.9481 17.1161L68.8746 14.6413L68.7423 14.5411C68.281 14.2001 67.5871 14.0276 66.6766 14.0276H66.6686Z" fill="black"/>
<path d="M76.5424 13.9714C74.5168 13.9714 72.8483 14.6172 71.5728 15.8887C70.2973 17.1602 69.6836 18.7565 69.6836 20.6898C69.6836 22.6231 70.3173 24.2275 71.5728 25.5191H71.5768C72.8683 26.7745 74.5369 27.4122 76.5424 27.4122C78.5479 27.4122 80.2285 26.7745 81.4839 25.5231C82.7554 24.2516 83.4012 22.6271 83.4012 20.6938C83.4012 18.7605 82.7554 17.1441 81.4839 15.8927C80.2285 14.6212 78.5679 13.9754 76.5424 13.9754V13.9714ZM79.4664 23.7302C78.7123 24.5043 77.7256 24.8934 76.5424 24.8934C75.3591 24.8934 74.3684 24.4963 73.6023 23.7141C72.8563 22.948 72.4752 21.9332 72.4752 20.6898C72.4752 19.4464 72.8643 18.4317 73.6304 17.6616C74.3764 16.8795 75.3551 16.4863 76.5384 16.4863C77.7216 16.4863 78.7043 16.8835 79.4463 17.6616C80.2124 18.4638 80.6015 19.4825 80.6015 20.6898C80.6015 21.8971 80.2164 22.9561 79.4624 23.7302H79.4664Z" fill="black"/>
<path d="M93.6021 18.1189H86.5508V20.6338H93.6021V18.1189Z" fill="black"/>
<path d="M103.585 13.9714C101.56 13.9714 99.8912 14.6172 98.6157 15.8887C97.3603 17.1441 96.7266 18.7565 96.7266 20.6898C96.7266 22.6231 97.3603 24.2275 98.6157 25.5191H98.6198C99.9113 26.7745 101.58 27.4122 103.585 27.4122C105.591 27.4122 107.271 26.7745 108.527 25.5231C109.798 24.2516 110.444 22.6271 110.444 20.6938C110.444 18.7605 109.798 17.1441 108.527 15.8927C107.271 14.6212 105.611 13.9754 103.585 13.9754V13.9714ZM106.509 23.7302C105.755 24.5043 104.769 24.8934 103.585 24.8934C102.402 24.8934 101.411 24.4963 100.645 23.7141C99.8993 22.948 99.5182 21.9332 99.5182 20.6898C99.5182 19.4464 99.9073 18.4317 100.673 17.6616C101.419 16.8795 102.398 16.4863 103.581 16.4863C104.765 16.4863 105.747 16.8835 106.489 17.6616C107.255 18.4638 107.644 19.4825 107.644 20.6898C107.644 21.8971 107.259 22.9561 106.505 23.7302H106.509Z" fill="black"/>
<path d="M119.489 13.9714C118.767 13.9714 118.029 14.1118 117.295 14.3886C116.737 14.5972 116.252 14.8619 115.839 15.1787V7.33333H113.184V25.8641L113.276 25.9322C114.616 26.9149 116.372 27.4122 118.494 27.4122C120.616 27.4122 122.389 26.7866 123.68 25.5512C124.972 24.2958 125.63 22.5951 125.63 20.4973C125.63 18.552 125.068 16.9636 123.969 15.7844C122.878 14.5811 121.374 13.9675 119.493 13.9675L119.489 13.9714ZM121.659 23.7422C120.877 24.5083 119.85 24.8974 118.606 24.8974C117.556 24.8974 116.629 24.6447 115.839 24.1433V17.9544C116.164 17.5653 116.617 17.2244 117.183 16.9396C117.776 16.6428 118.386 16.4944 118.991 16.4944C120.159 16.4944 121.097 16.8674 121.791 17.6014C122.485 18.3394 122.838 19.3743 122.838 20.6699C122.838 21.9654 122.441 22.9842 121.659 23.7462V23.7422Z" fill="black"/>
<path d="M143.047 14.0276C142.113 14.0276 141.235 14.2322 140.432 14.6333C139.75 14.9742 139.181 15.4235 138.732 15.973C138.455 15.4275 138.018 14.9823 137.436 14.6413C136.742 14.2362 135.896 14.0316 134.917 14.0316C134.095 14.0316 133.289 14.2041 132.519 14.5491C131.937 14.8058 131.436 15.1266 131.019 15.5077V14.2523H128.363V27.1395H131.019V18.0827C131.769 17.0479 132.767 16.5465 134.059 16.5465C134.825 16.5465 135.427 16.7592 135.856 17.1763C136.285 17.5975 136.494 18.1629 136.494 18.8969V27.1395H139.149V19.0092C139.149 18.5079 139.141 18.2793 139.129 18.167C139.402 17.6817 139.803 17.2925 140.32 17.0038C140.866 16.7029 141.483 16.5465 142.161 16.5465C143.818 16.5465 144.624 17.4691 144.624 19.3663V27.1355H147.279V18.7566C147.279 15.62 145.855 14.0276 143.047 14.0276Z" fill="black"/>
<path d="M160.652 15.6401C159.525 14.533 158.089 13.9714 156.376 13.9714C154.311 13.9714 152.674 14.6172 151.511 15.8967C150.336 17.1682 149.738 18.7806 149.738 20.6938C149.738 22.7194 150.376 24.364 151.627 25.5793C152.863 26.7946 154.543 27.4122 156.621 27.4122C158.587 27.4122 160.207 26.8427 161.442 25.7236L161.555 25.6193L160.688 23.4334L160.452 23.658C159.577 24.4803 158.342 24.8974 156.786 24.8974C155.61 24.8974 154.64 24.5805 153.902 23.9548C153.224 23.3812 152.815 22.591 152.69 21.6084H162.196L162.232 21.4319C162.329 20.9586 162.377 20.4411 162.377 19.8957C162.377 18.1629 161.795 16.731 160.652 15.6441V15.6401ZM153.713 17.3487C154.379 16.7792 155.237 16.4903 156.264 16.4903C157.291 16.4903 158.081 16.7671 158.671 17.3166C159.212 17.818 159.529 18.5079 159.621 19.3663H152.57C152.726 18.544 153.107 17.8662 153.713 17.3487Z" fill="black"/>
<path d="M171.451 14.0277C170.669 14.0277 169.883 14.1962 169.109 14.5291C168.527 14.7818 168.026 15.0907 167.604 15.4597V14.2483H164.949V27.1356H167.604V18.0106C168.487 17.0359 169.594 16.5426 170.898 16.5426C173.112 16.5426 174.191 17.7178 174.191 20.1364V27.1316H176.846V19.7193C176.846 15.9409 175.033 14.0237 171.455 14.0237L171.451 14.0277Z" fill="black"/>
<path d="M181.32 23.7342C180.819 23.7342 180.394 23.9027 180.045 24.2396C179.696 24.5765 179.523 24.9736 179.523 25.4228C179.523 25.9242 179.7 26.3535 180.045 26.6984C180.39 27.0433 180.819 27.2197 181.32 27.2197C181.822 27.2197 182.215 27.0433 182.536 26.6904C182.849 26.3454 183.009 25.9202 183.009 25.4228C183.009 24.9776 182.837 24.5805 182.5 24.2436C182.163 23.9067 181.766 23.7382 181.32 23.7382V23.7342Z" fill="black"/>
<path d="M191.501 14.0276C190.313 14.0276 189.339 14.4487 188.597 15.283V14.2483H185.941V27.1355H188.597V18.1469C189.166 17.068 189.944 16.5425 190.975 16.5425C191.521 16.5425 192.05 16.6909 192.552 16.9837L192.78 17.1161L193.707 14.6413L193.574 14.5411C193.113 14.2001 192.419 14.0276 191.509 14.0276H191.501Z" fill="black"/>
<path d="M204.055 14.2483V23.1888C203.678 23.6861 203.181 24.0952 202.583 24.408C201.965 24.7329 201.332 24.8934 200.71 24.8934C198.7 24.8934 197.722 23.7463 197.722 21.3798V14.2443H195.066V21.8772C195.066 23.6781 195.492 25.0619 196.326 25.9925C197.168 26.931 198.363 27.4082 199.88 27.4082C201.516 27.4082 202.92 26.8347 204.055 25.7036V27.1315H206.71V14.2443H204.055V14.2483Z" fill="black"/>
<defs>
<linearGradient id="paint0_linear_5744_119686" x1="22.3518" y1="-969.094" x2="22.3518" y2="-969.094" gradientUnits="userSpaceOnUse">
<stop offset="0.19" stop-color="#0C80EF"/>
<stop offset="0.54" stop-color="#0D64DA"/>
<stop offset="1" stop-color="#113ABA"/>
</linearGradient>
<linearGradient id="paint1_linear_5744_119686" x1="19.0831" y1="-969.093" x2="19.0831" y2="-969.093" gradientUnits="userSpaceOnUse">
<stop stop-color="#93C937"/>
<stop offset="1" stop-color="#29AC24"/>
</linearGradient>
</defs>
</svg>
