<svg width="110" height="40" viewBox="0 0 110 40" fill="none" xmlns="http://www.w3.org/2000/svg">
<g clip-path="url(#clip0_8924_73851)">
<path d="M36.7488 8.97971C36.7488 4.03524 32.7025 0 27.7442 0C25.1796 0 22.8429 1.07981 21.2471 2.78486L0.901108 15.5725C0.502168 15.7998 0.38824 16.3682 0.616192 16.766C0.78718 17.0502 1.0721 17.1638 1.35711 17.1638C1.528 17.1638 1.64202 17.107 1.81301 17.0502L19.1955 6.08124C18.8535 6.99057 18.6825 7.95676 18.6825 9.03657C18.6825 11.3099 19.5374 13.356 20.9052 14.9473L7.22718 28.5306C6.88521 28.8716 6.88521 29.3831 7.22718 29.7241C7.39817 29.8946 7.62612 29.9514 7.85408 29.9514C8.08212 29.9514 8.31007 29.8946 8.48106 29.7241L22.159 16.1409C23.6977 17.3343 25.6355 18.0731 27.6872 18.0731C28.8841 18.0731 30.0238 17.8458 31.0498 17.448L20.1643 35.0665C19.9363 35.4643 20.0503 35.9758 20.4493 36.26C20.5633 36.3736 20.7342 36.3736 20.9052 36.3736C21.1902 36.3736 21.4751 36.2031 21.6461 35.9758L34.7541 14.6631C36.008 13.0718 36.7488 11.1394 36.7488 8.97971ZM23.4128 14.8905L27.4022 10.969C27.7442 10.6279 27.7442 10.1164 27.4022 9.77543C27.0603 9.43438 26.5474 9.43438 26.2054 9.77543L22.159 13.7538C21.0762 12.5034 20.3923 10.8552 20.3923 9.03657C20.4493 5.00133 23.6977 1.70505 27.7442 1.70505C31.7906 1.70505 35.0392 5.00133 35.0392 8.97971C35.0392 13.015 31.7336 16.2545 27.7442 16.2545C26.1484 16.3113 24.6097 15.743 23.4128 14.8905Z" fill="#25B7EB"/>
<path d="M27.7458 3.06903C24.4404 3.06903 21.7617 5.74017 21.7617 9.03655C21.7617 9.49122 22.1607 9.88903 22.6167 9.88903C23.0726 9.88903 23.4715 9.49122 23.4715 9.03655C23.4715 6.70636 25.3522 4.77398 27.7458 4.77398C28.2018 4.77398 28.6008 4.37617 28.6008 3.92151C28.6008 3.46684 28.2018 3.06903 27.7458 3.06903Z" fill="#25B7EB"/>
<path d="M42.1761 37.2172C44.9109 37.2172 46.2784 36.1756 46.2784 34.0922C46.2784 32.1577 45.1504 31.1904 42.8943 31.1904H41.5318C40.2286 31.1904 39.5769 30.62 39.5769 29.4791C39.5769 28.1894 40.5396 27.5446 42.4648 27.5446C43.699 27.5446 44.8468 27.743 45.9081 28.1398V26.875C44.8468 26.5773 43.699 26.4285 42.4648 26.4285C39.6263 26.4285 38.207 27.4454 38.207 29.4791C38.207 31.4136 39.3153 32.3809 41.5318 32.3809H42.8943C44.2371 32.3809 44.9085 32.9513 44.9085 34.0922C44.9085 35.4315 43.9977 36.1011 42.1761 36.1011C40.8876 36.1011 39.688 35.9027 38.5773 35.5059V36.7708C39.688 37.0684 40.8876 37.2172 42.1761 37.2172ZM50.5288 37.1428L52.6466 31.302L54.8754 37.1428H56.1269L58.1558 29.3303H56.7045L55.4604 35.4538L53.2982 29.3303H52.0616L50.04 35.4538L48.6627 29.3303H47.278L49.2477 37.1428H50.5288ZM65.7088 37.1428V31.7559C65.7088 30.1388 64.5536 29.3303 62.2433 29.3303C61.4436 29.3303 60.6241 29.4543 59.7849 29.7023V30.8184C60.6241 30.5704 61.4436 30.4464 62.2433 30.4464C63.6404 30.4464 64.3389 30.8953 64.3389 31.7931V32.5297C63.6626 32.4305 62.9863 32.3809 62.31 32.3809C60.207 32.3809 59.1555 33.182 59.1555 34.7842C59.1555 36.3566 60.0811 37.1428 61.9323 37.1428C62.8456 37.1428 63.6897 36.8849 64.4648 36.369L64.9387 37.1428H65.7088ZM61.9323 36.0267C60.9944 36.0267 60.5254 35.6051 60.5254 34.7619C60.5254 33.9186 61.1202 33.497 62.31 33.497C62.9863 33.497 63.6626 33.5466 64.3389 33.6458V35.2678C63.6823 35.7738 62.8801 36.0267 61.9323 36.0267ZM69.3002 39.9702V36.7708C69.8827 37.0188 70.485 37.1428 71.107 37.1428C73.6148 37.1428 74.8687 35.7762 74.8687 33.0431C74.8687 30.5679 73.6222 29.3303 71.1292 29.3303C70.0283 29.3303 68.962 29.437 67.9303 29.6503V39.9702H69.3002ZM71.0996 35.9523C70.4381 35.9523 69.8383 35.8184 69.3002 35.5506V30.6547C69.8185 30.5357 70.4232 30.4761 71.1144 30.4761C72.7188 30.4761 73.521 31.3268 73.521 33.0282C73.521 34.9776 72.7138 35.9523 71.0996 35.9523ZM82.4216 37.1428V36.1011H77.9269L82.5697 30.4464V29.3303H76.4977V30.4464H81.0517L76.3496 36.1011V37.1428H82.4216ZM87.7532 37.1354C90.2215 37.1354 91.4556 35.8358 91.4556 33.2366C91.4556 30.6324 90.2215 29.3303 87.7532 29.3303C85.2849 29.3303 84.0507 30.6324 84.0507 33.2366C84.0606 35.8358 85.2947 37.1354 87.7532 37.1354ZM87.7532 36.0267C86.1981 36.0267 85.4206 35.0868 85.4206 33.2068C85.4206 31.3665 86.1981 30.4464 87.7532 30.4464C89.3082 30.4464 90.0857 31.3665 90.0857 33.2068C90.0857 35.0868 89.3082 36.0267 87.7532 36.0267ZM94.6767 37.1428V31.4657C95.3827 30.806 96.1281 30.4761 96.913 30.4761C98.0632 30.4761 98.6384 31.0565 98.6384 32.2172V37.1428H100.008V32.2395C100.008 30.3001 99.0382 29.3303 97.0981 29.3303C96.1454 29.3303 95.2716 29.6627 94.4768 30.3273L94.2324 29.3303H93.3068V37.1428H94.6767ZM105.866 37.1428C106.848 37.1428 107.682 37.0436 108.368 36.8452V35.7291C107.682 35.9275 106.897 36.0267 106.014 36.0267C104.157 36.0267 103.229 35.2281 103.229 33.6309H108.687C108.731 33.2738 108.753 32.9389 108.753 32.6264C108.753 30.429 107.648 29.3303 105.436 29.3303C103.052 29.3303 101.859 30.6026 101.859 33.1473C101.859 35.811 103.195 37.1428 105.866 37.1428ZM107.435 32.4851H103.229C103.318 31.116 104.054 30.4315 105.436 30.4315C106.739 30.4315 107.406 31.116 107.435 32.4851Z" fill="black"/>
<path d="M42.1761 37.2172C44.9109 37.2172 46.2784 36.1756 46.2784 34.0922C46.2784 32.1577 45.1504 31.1904 42.8943 31.1904H41.5318C40.2286 31.1904 39.5769 30.62 39.5769 29.4791C39.5769 28.1894 40.5396 27.5446 42.4648 27.5446C43.699 27.5446 44.8468 27.743 45.9081 28.1398V26.875C44.8468 26.5773 43.699 26.4285 42.4648 26.4285C39.6263 26.4285 38.207 27.4454 38.207 29.4791C38.207 31.4136 39.3153 32.3809 41.5318 32.3809H42.8943C44.2371 32.3809 44.9085 32.9513 44.9085 34.0922C44.9085 35.4315 43.9977 36.1011 42.1761 36.1011C40.8876 36.1011 39.688 35.9027 38.5773 35.5059V36.7708C39.688 37.0684 40.8876 37.2172 42.1761 37.2172ZM50.5288 37.1428L52.6466 31.302L54.8754 37.1428H56.1269L58.1558 29.3303H56.7045L55.4604 35.4538L53.2982 29.3303H52.0616L50.04 35.4538L48.6627 29.3303H47.278L49.2477 37.1428H50.5288ZM65.7088 37.1428V31.7559C65.7088 30.1388 64.5536 29.3303 62.2433 29.3303C61.4436 29.3303 60.6241 29.4543 59.7849 29.7023V30.8184C60.6241 30.5704 61.4436 30.4464 62.2433 30.4464C63.6404 30.4464 64.3389 30.8953 64.3389 31.7931V32.5297C63.6626 32.4305 62.9863 32.3809 62.31 32.3809C60.207 32.3809 59.1555 33.182 59.1555 34.7842C59.1555 36.3566 60.0811 37.1428 61.9323 37.1428C62.8456 37.1428 63.6897 36.8849 64.4648 36.369L64.9387 37.1428H65.7088ZM61.9323 36.0267C60.9944 36.0267 60.5254 35.6051 60.5254 34.7619C60.5254 33.9186 61.1202 33.497 62.31 33.497C62.9863 33.497 63.6626 33.5466 64.3389 33.6458V35.2678C63.6823 35.7738 62.8801 36.0267 61.9323 36.0267ZM69.3002 39.9702V36.7708C69.8827 37.0188 70.485 37.1428 71.107 37.1428C73.6148 37.1428 74.8687 35.7762 74.8687 33.0431C74.8687 30.5679 73.6222 29.3303 71.1292 29.3303C70.0283 29.3303 68.962 29.437 67.9303 29.6503V39.9702H69.3002ZM71.0996 35.9523C70.4381 35.9523 69.8383 35.8184 69.3002 35.5506V30.6547C69.8185 30.5357 70.4232 30.4761 71.1144 30.4761C72.7188 30.4761 73.521 31.3268 73.521 33.0282C73.521 34.9776 72.7138 35.9523 71.0996 35.9523ZM82.4216 37.1428V36.1011H77.9269L82.5697 30.4464V29.3303H76.4977V30.4464H81.0517L76.3496 36.1011V37.1428H82.4216ZM87.7532 37.1354C90.2215 37.1354 91.4556 35.8358 91.4556 33.2366C91.4556 30.6324 90.2215 29.3303 87.7532 29.3303C85.2849 29.3303 84.0507 30.6324 84.0507 33.2366C84.0606 35.8358 85.2947 37.1354 87.7532 37.1354ZM87.7532 36.0267C86.1981 36.0267 85.4206 35.0868 85.4206 33.2068C85.4206 31.3665 86.1981 30.4464 87.7532 30.4464C89.3082 30.4464 90.0857 31.3665 90.0857 33.2068C90.0857 35.0868 89.3082 36.0267 87.7532 36.0267ZM94.6767 37.1428V31.4657C95.3827 30.806 96.1281 30.4761 96.913 30.4761C98.0632 30.4761 98.6384 31.0565 98.6384 32.2172V37.1428H100.008V32.2395C100.008 30.3001 99.0382 29.3303 97.0981 29.3303C96.1454 29.3303 95.2716 29.6627 94.4768 30.3273L94.2324 29.3303H93.3068V37.1428H94.6767ZM105.866 37.1428C106.848 37.1428 107.682 37.0436 108.368 36.8452V35.7291C107.682 35.9275 106.897 36.0267 106.014 36.0267C104.157 36.0267 103.229 35.2281 103.229 33.6309H108.687C108.731 33.2738 108.753 32.9389 108.753 32.6264C108.753 30.429 107.648 29.3303 105.436 29.3303C103.052 29.3303 101.859 30.6026 101.859 33.1473C101.859 35.811 103.195 37.1428 105.866 37.1428ZM107.435 32.4851H103.229C103.318 31.116 104.054 30.4315 105.436 30.4315C106.739 30.4315 107.406 31.116 107.435 32.4851Z" fill="#E8168D"/>
</g>
<defs>
<clipPath id="clip0_8924_73851">
<rect width="109" height="40" fill="white" transform="translate(0.5)"/>
</clipPath>
</defs>
</svg>
