<svg width="95" height="40" viewBox="0 0 95 40" fill="none" xmlns="http://www.w3.org/2000/svg">
<g clip-path="url(#clip0_6950_129226)">
<path d="M31.149 31.5151H22.6556L20.1102 19.897C19.989 19.4097 19.7975 18.4424 19.5368 16.9964C19.3139 15.7915 19.1228 14.581 18.9635 13.3661C18.8665 14.1564 18.709 15.1394 18.4908 16.3115C18.2726 17.4861 18.0569 18.5648 17.8447 19.5503C17.6326 20.5345 16.7502 24.5236 15.1987 31.5151H6.70534L0.121094 4.84848H7.05079L9.94291 18.2182C10.5975 21.1733 11.0459 23.5261 11.2884 25.2776C11.4459 24.0364 11.7284 22.3527 12.1344 20.2242C12.5405 18.097 12.9187 16.3333 13.2702 14.9345L15.6169 4.84848H22.2738L24.5478 14.9345C24.9356 16.5527 25.3296 18.4194 25.7296 20.5345C26.1296 22.6509 26.3962 24.2315 26.5296 25.2776C26.6872 23.9273 27.1175 21.5867 27.8205 18.2545L30.7672 4.84848H37.6968L31.149 31.5151Z" fill="#EF4035"/>
<path d="M81.9855 31.5151H74.64V10.7394H68V4.84848H88.6061V10.7394H81.9855V31.5151Z" fill="#FF961B"/>
<path d="M70.1296 30.4102C72.2375 27.3233 73.4575 23.6284 73.4575 19.6498C73.4575 8.79481 64.3549 3.05176e-05 53.1242 3.05176e-05C48.2984 3.05176e-05 43.8657 1.62119 40.3819 4.33663C34.6344 14.3067 33.3873 31.187 49.8776 31.849C54.8118 32.0449 57.7805 29.782 59.1699 26.6816C57.611 28.4446 55.4693 29.5254 53.097 29.5254C51.5178 29.5254 50.0403 29.0458 48.766 28.2014C37.2642 24.1012 41.6629 6.50492 53.5512 5.20124C67.4524 3.67465 74.5419 18.0962 70.4617 29.4375C70.3668 29.7685 70.2584 30.0928 70.1296 30.4102Z" fill="url(#paint0_linear_6950_129226)"/>
<path fill-rule="evenodd" clip-rule="evenodd" d="M70.481 29.4646C70.3861 29.7955 70.2777 30.1198 70.1557 30.4373C66.5296 35.7938 60.2669 39.3334 53.1434 39.3334C51.0491 39.3334 49.0293 39.0294 47.1316 38.4552C54.1601 39.7454 61.6563 36.8678 65.2553 28.4581C69.7761 17.9003 59.562 6.09287 50.5679 10.3079C50.5611 10.3011 50.5476 10.3079 50.5408 10.3146C47.0163 11.5643 44.4543 15.2997 44.4543 19.7173C44.4543 23.3582 46.1962 26.533 48.7786 28.2352C37.2834 24.1282 41.6822 6.53869 53.5637 5.23501C67.4717 3.70842 74.5544 18.13 70.481 29.4646Z" fill="url(#paint1_linear_6950_129226)"/>
<path fill-rule="evenodd" clip-rule="evenodd" d="M65.2343 28.4311C61.6353 36.8408 54.1391 39.7184 47.1105 38.4282C47.1037 38.4282 47.097 38.4282 47.0902 38.4215C47.0834 38.4282 47.0766 38.4215 47.0766 38.4215C38.801 35.9357 32.7891 28.4784 32.7891 19.6566C32.7891 13.4691 35.7442 7.95721 40.3666 4.36365C34.6258 14.3405 33.3991 31.1938 49.8691 31.8558C54.8033 32.0517 57.7652 29.7888 59.1682 26.6951C60.7542 24.9118 61.7437 22.4328 61.7437 19.6903C61.7437 16.3197 60.2594 13.3543 57.9888 11.5778C56.5926 10.4835 54.9049 9.84856 53.0885 9.84856C52.2006 9.84856 51.3466 9.99717 50.5468 10.2809C59.5409 6.07262 69.7551 17.8733 65.2343 28.4311Z" fill="url(#paint2_linear_6950_129226)"/>
</g>
<defs>
<linearGradient id="paint0_linear_6950_129226" x1="86.8504" y1="-3061.6" x2="56.0315" y2="-63.0678" gradientUnits="userSpaceOnUse">
<stop stop-color="#5CE379"/>
<stop offset="1" stop-color="#347A44"/>
</linearGradient>
<linearGradient id="paint1_linear_6950_129226" x1="-2604.25" y1="-1470.61" x2="-61.5735" y2="-33.0695" gradientUnits="userSpaceOnUse">
<stop stop-color="#347A44"/>
<stop offset="1" stop-color="#5CE379"/>
</linearGradient>
<linearGradient id="paint2_linear_6950_129226" x1="1988.65" y1="1965.59" x2="-1855.76" y2="-1913.27" gradientUnits="userSpaceOnUse">
<stop stop-color="#347A44"/>
<stop offset="1" stop-color="#5CE379"/>
</linearGradient>
<clipPath id="clip0_6950_129226">
<rect width="94.5454" height="40" fill="white" transform="translate(0.121094)"/>
</clipPath>
</defs>
</svg>
