<svg width="50" height="50" viewBox="0 0 50 50" fill="none" xmlns="http://www.w3.org/2000/svg">
<rect width="50" height="50" rx="25" fill="#4D7BF1"/>
<g clip-path="url(#clip0_7990_69639)">
<mask id="mask0_7990_69639" style="mask-type:alpha" maskUnits="userSpaceOnUse" x="9" y="9" width="32" height="32">
<rect x="9" y="9" width="32" height="32" fill="#D9D9D9"/>
</mask>
<g mask="url(#mask0_7990_69639)">
<path d="M19.7302 35.2909V33.6923H24.2058V29.0422C23.2408 28.8884 22.3613 28.5074 21.5672 27.8993C20.7732 27.2912 20.1989 26.5683 19.8444 25.7307C18.3913 25.5478 17.1725 24.955 16.1878 23.9525C15.2032 22.9499 14.7109 21.7482 14.7109 20.3474V19.4807C14.7109 19.0391 14.867 18.6623 15.1791 18.3502C15.4912 18.0381 15.868 17.8821 16.3096 17.8821H19.1994V14.709H30.8044V17.8821H33.6942C34.1358 17.8821 34.5126 18.0381 34.8247 18.3502C35.1368 18.6623 35.2929 19.0391 35.2929 19.4807V20.2807C35.2929 21.6816 34.8006 22.8944 33.816 23.9192C32.8314 24.9439 31.6142 25.5478 30.1645 25.7307C29.8094 26.5683 29.2341 27.2912 28.4386 27.8993C27.6432 28.5074 26.7651 28.8884 25.8044 29.0422V33.6923H30.28V35.2909H19.7302ZM19.1994 23.85V19.4807H16.3096V20.2807C16.3096 21.1841 16.575 21.9574 17.1058 22.6006C17.6365 23.2438 18.3344 23.6602 19.1994 23.85ZM30.8044 23.85C31.6694 23.6602 32.3673 23.2438 32.898 22.6006C33.4288 21.9574 33.6942 21.1841 33.6942 20.2807V19.4807H30.8044V23.85Z" fill="white"/>
</g>
</g>
<defs>
<clipPath id="clip0_7990_69639">
<rect width="32" height="32" fill="white" transform="translate(9 9)"/>
</clipPath>
</defs>
</svg>
