<svg width="50" height="50" viewBox="0 0 50 50" fill="none" xmlns="http://www.w3.org/2000/svg">
<rect width="50" height="50" rx="25" fill="#4D7BF1"/>
<mask id="mask0_7990_69676" style="mask-type:alpha" maskUnits="userSpaceOnUse" x="8" y="7" width="34" height="35">
<rect x="8.15234" y="7.66699" width="33.6953" height="33.6953" fill="#D9D9D9"/>
</mask>
<g mask="url(#mask0_7990_69676)">
<path d="M24.1365 33.3412H25.832V31.7749C26.8662 31.6618 27.7763 31.2294 28.5624 30.4778C29.3484 29.7262 29.7415 28.8433 29.7415 27.8293C29.7415 26.7822 29.4186 25.9281 28.7729 25.2667C28.1272 24.6054 27.1406 24.039 25.8131 23.5674C24.3137 23.0166 23.3723 22.5509 22.9889 22.1702C22.6055 21.7895 22.4138 21.2796 22.4138 20.6406C22.4138 20.1186 22.6501 19.6693 23.1226 19.2927C23.5951 18.916 24.1867 18.7277 24.8974 18.7277C25.5126 18.7277 26.0827 18.8719 26.6077 19.1604C27.1328 19.4488 27.5078 19.8531 27.7328 20.3733L29.1772 19.7412C28.8487 19.0593 28.3974 18.5075 27.8232 18.0858C27.249 17.6642 26.5853 17.3882 25.832 17.2579V15.689H24.1688V17.2914C23.1078 17.4795 22.2728 17.8854 21.664 18.5091C21.0552 19.1328 20.7507 19.855 20.7507 20.6757C20.7507 21.6693 21.0959 22.5061 21.7862 23.186C22.4765 23.8659 23.6224 24.4885 25.2241 25.0537C26.2891 25.4371 27.0414 25.8409 27.481 26.2652C27.9207 26.6894 28.1405 27.2103 28.1405 27.8279C28.1405 28.5443 27.8491 29.13 27.2664 29.5849C26.6836 30.0398 26.0219 30.2673 25.2812 30.2673C24.5027 30.2673 23.7993 30.0169 23.1708 29.5161C22.5424 29.0152 22.0948 28.3873 21.828 27.6322L20.3052 28.2991C20.6337 29.1738 21.1386 29.9059 21.8199 30.4954C22.5012 31.0849 23.2734 31.4977 24.1365 31.7338V33.3412ZM25.0013 37.0077C23.2911 37.0077 21.6768 36.6816 20.1584 36.0296C18.64 35.3775 17.3106 34.4807 16.1703 33.3391C15.03 32.1975 14.1345 30.8686 13.4839 29.3525C12.8332 27.8364 12.5078 26.2242 12.5078 24.5159C12.5078 22.7824 12.8338 21.1622 13.4859 19.6555C14.138 18.1488 15.0348 16.8253 16.1764 15.685C17.318 14.5447 18.6469 13.6492 20.163 12.9985C21.6791 12.3478 23.2913 12.0225 24.9995 12.0225C26.7331 12.0225 28.3532 12.3485 29.86 13.0006C31.3667 13.6526 32.6902 14.5494 33.8305 15.691C34.9708 16.8326 35.8663 18.1557 36.517 19.6601C37.1677 21.1645 37.493 22.7826 37.493 24.5142C37.493 26.2243 37.167 27.8386 36.5149 29.3571C35.8629 30.8755 34.966 32.2049 33.8245 33.3452C32.6829 34.4855 31.3598 35.381 29.8554 36.0316C28.351 36.6823 26.7329 37.0077 25.0013 37.0077Z" fill="white"/>
</g>
</svg>
