<svg width="218" height="60" viewBox="0 0 218 60" fill="none" xmlns="http://www.w3.org/2000/svg">
<path d="M210.055 7H7.79427C3.72409 7 0.424561 10.2711 0.424561 14.3063V44.6938C0.424561 48.729 3.72409 52 7.79427 52H210.055C214.125 52 217.425 48.729 217.425 44.6938V14.3063C217.425 10.2711 214.125 7 210.055 7Z" fill="url(#paint0_linear_7716_79655)"/>
<path d="M89.4246 7V52H7.83713C3.74435 52 0.424561 48.7279 0.424561 44.6938V14.3063C0.424561 10.2722 3.74435 7 7.83713 7H89.4246Z" fill="url(#paint1_linear_7716_79655)"/>
<path d="M10.4246 17.001H19.4503C24.9394 16.9386 26.6417 19.898 26.6417 23.3566C26.6417 26.5032 25.8588 27.9071 24.6527 28.4731C26.3276 29.2397 27.4246 30.9869 27.4246 34.4366C27.4246 39.2545 25.0987 42 19.2864 42H10.4246V17.001ZM18.6401 26.628C21.2709 26.628 21.7624 26.1198 21.7579 23.9805C21.7579 22.22 21.1571 21.654 18.9223 21.6674L15.3493 21.654L15.3584 26.628H18.6401ZM15.1582 37.0751L18.9223 37.0974C21.8034 37.1286 22.427 36.4021 22.4679 34.2227C22.5089 31.7892 21.9035 31.0626 18.6173 31.0626L15.1582 31.0716V37.0751Z" fill="white"/>
<path d="M45.2697 31.2315L35.2574 31.2494V37.1016H46.4246V42H30.4246V17H46.1047L46.127 21.6577H35.1952L35.2175 26.5115L45.2697 26.6319V31.2315Z" fill="white"/>
<path d="M209.27 31.2315L199.257 31.2494V37.1016H210.425V42H194.425V17H210.105L210.127 21.6577H199.195L199.217 26.5115L209.27 26.6319V31.2315Z" fill="#4D4D4D"/>
<path d="M52.2548 33.0351C52.3391 36.8187 54.1496 38.237 56.718 38.237C59.4643 38.237 60.4233 37.156 60.4233 35.2943C60.4233 32.9058 59.5298 31.7139 55.89 31.4228C51.4455 31.0671 48.2501 29.1222 48.1332 23.5461C48.0162 17.947 51.7121 16.0807 56.3017 16.0021C62.4117 15.8959 64.8866 19.7857 64.6292 24.8628L59.8432 24.7889C59.8058 22.0032 58.8561 20.6219 56.2923 20.6219C54.1309 20.6219 53.0127 21.3749 53.0315 23.0195C53.0549 24.9829 54.0841 25.9808 57.649 26.3873C64.5591 27.1773 65.4246 31.2704 65.4246 35.0448C65.4246 39.3365 62.814 43 56.5028 43C51.2443 43 47.3191 40.6993 47.4267 33.012L52.2502 33.0351H52.2548Z" fill="white"/>
<path d="M72.3529 21.7736H66.4246V17H82.4246V21.8539H76.8418V42H72.3529V21.7736Z" fill="white"/>
<path d="M112.425 32.8836C111.868 39.4846 109.219 43 103.541 43C96.57 43 94.4246 36.847 94.4246 29.3498C94.4246 21.8527 97.2662 16 103.729 16C109.705 16 112.328 20.0973 112.328 25.1739L107.871 25.1971C107.613 22.8135 106.829 20.7256 103.79 20.7256C100.108 20.7256 99.1752 24.6335 99.1752 29.3545C99.1752 34.3526 100.029 38.0065 103.808 38.0065C106.763 38.0065 107.591 35.8353 107.928 32.8882H112.425V32.8836Z" fill="#4D4D4D"/>
<path d="M115.425 17H119.817V26.3343H127.027V17H131.425V42H126.849V31.0872H119.817V42H115.425V17Z" fill="#4D4D4D"/>
<path d="M139.293 36.6712L138.027 42H133.425C133.687 41.0283 139.68 18.1036 139.973 17H144.627L151.425 42H146.749L145.423 36.7151L139.288 36.6712H139.293ZM144.278 32.2348C143.038 27.1697 142.926 26.6333 142.474 24.2986H142.186C141.703 27.0773 141.424 27.9347 140.382 32.2348H144.278Z" fill="#4D4D4D"/>
<path d="M153.425 42V17H158.167C161.6 24.624 164.09 28.5019 165.641 32.1381L165.765 17H170.425L170.342 42H165.683C161.81 33.8484 158.144 26.8487 158.144 26.8487C158.222 30.608 158.231 42 158.231 42H153.429H153.425Z" fill="#4D4D4D"/>
<path d="M191.42 42.6165H187.689C187.55 41.7572 187.763 40.7592 187.711 39.7752C186.673 42.3994 184.323 43 181.8 43C175.945 43 173.287 37.1463 173.43 29.5C173.608 20.1581 176.14 16 182.964 16C189.183 16 191.073 20.6801 191.073 25.4019L186.573 25.425C186.512 22.4358 185.318 20.7033 182.586 20.7033C179.076 20.7033 177.969 23.8172 177.973 29.6709C177.973 34.656 179.068 37.8809 182.469 37.8809C185.505 37.8809 186.79 36.5087 186.79 33.136V33.0112L182.425 33.0529V28.3265H191.425V42.6211L191.42 42.6165Z" fill="#4D4D4D"/>
<defs>
<linearGradient id="paint0_linear_7716_79655" x1="108.927" y1="-1393.13" x2="108.927" y2="-1393.13" gradientUnits="userSpaceOnUse">
<stop stop-color="#F4F4F4"/>
<stop offset="1" stop-color="#D5D5D5"/>
</linearGradient>
<linearGradient id="paint1_linear_7716_79655" x1="44.9268" y1="-1393.13" x2="44.9268" y2="-1393.13" gradientUnits="userSpaceOnUse">
<stop stop-color="#858585"/>
<stop offset="1" stop-color="#4F4F4F"/>
</linearGradient>
</defs>
</svg>
