<svg width="227" height="60" viewBox="0 0 227 60" fill="none" xmlns="http://www.w3.org/2000/svg">
<path d="M10.7564 29.5027L5.65305 34.5555L0.5 29.5027L5.64752 24.4063L10.7509 29.5027H10.7564ZM23.2276 17.1492L32.0148 25.8523L37.1679 20.7559L23.2331 7L9.2983 20.805L14.4514 25.9014L23.2386 17.1546L23.2276 17.1492ZM40.8021 24.4009L35.6987 29.4973L40.8463 34.5937L45.9938 29.4973L40.8021 24.4009ZM23.2276 41.8508L14.4403 33.104L9.28726 38.2004L23.2221 52L37.1569 38.195L32.0038 33.0986L23.2165 41.8454L23.2276 41.8508ZM23.2276 34.5555L28.3751 29.4536L23.2276 24.4009L18.08 29.4973L23.2276 34.55V34.5555ZM77.3761 35.0848V34.9974C77.3761 31.7017 75.5977 30.032 72.7146 28.9298C74.4875 27.964 76.0009 26.3816 76.0009 23.6097V23.5224C76.0009 19.6537 72.8472 17.1492 67.788 17.1492H56.206V41.8072H68.0586C73.6922 41.8508 77.3761 39.5646 77.3761 35.0848ZM70.5385 24.5373C70.5385 26.3816 69.0307 27.1291 66.5895 27.1291H61.5303V21.8963H66.943C69.2516 21.8963 70.5385 22.8185 70.5385 24.4445V24.5318V24.5373ZM71.9138 34.3809C71.9138 36.2252 70.4501 37.06 68.0531 37.06H61.5303V31.6526H67.8764C70.6711 31.6526 71.9138 32.6675 71.9138 34.3318V34.3754V34.3809ZM88.8697 41.8508V17.1492H83.3687V41.8072H88.8697V41.8508ZM118.341 41.8508V17.1492H112.923V32.3565L101.252 17.1492H96.1933V41.8072H101.611V26.1579L113.685 41.8508H118.347H118.341ZM148.696 41.8508L138.003 17.0182H132.944L122.246 41.8508H127.885L130.149 36.3125H140.671L142.935 41.8508H148.702H148.696ZM138.71 31.5216H132.099L135.429 23.5224L138.716 31.5216H138.71ZM174.837 41.8508V17.1492H169.419V32.3565L157.748 17.1492H152.689V41.8072H158.107V26.1579L170.181 41.8508H174.842H174.837ZM203.11 37.8512L199.602 34.3809C197.647 36.1379 195.919 37.2783 193.035 37.2783C188.777 37.2783 185.8 33.7643 185.8 29.5409V29.41C185.8 25.1921 188.816 21.7217 193.035 21.7217C195.521 21.7217 197.476 22.7748 199.426 24.4882L202.933 20.4886C200.624 18.2459 197.83 16.6635 193.124 16.6635C185.491 16.6635 180.122 22.4202 180.122 29.41V29.4973C180.122 36.5744 185.579 42.2 192.903 42.2C197.697 42.2437 200.536 40.574 203.11 37.8512ZM226.5 41.8508V37.0164H212.963V31.8272H224.722V26.9927H212.963V21.9836H226.323V17.1492H207.55V41.8072H226.5V41.8508Z" fill="#B1B1B1"/>
</svg>
