<svg width="204" height="60" viewBox="0 0 204 60" fill="none" xmlns="http://www.w3.org/2000/svg">
<mask id="mask0_7716_79709" style="mask-type:luminance" maskUnits="userSpaceOnUse" x="0" y="0" width="204" height="60">
<path d="M203.5 0H0.5V60H203.5V0Z" fill="white"/>
</mask>
<g mask="url(#mask0_7716_79709)">
<path fill-rule="evenodd" clip-rule="evenodd" d="M23.2987 27.1366C24.3603 27.1366 25.5643 26.8684 26.4946 26.3431C27.2935 25.8177 27.8244 25.1501 27.8244 23.9626C27.8244 22.901 27.0254 21.8393 25.8269 21.5821C24.4917 21.1826 23.6927 21.1826 22.7569 21.1826C21.8212 21.1826 20.7595 21.3139 20.7595 21.3139V27.2734C20.7595 27.142 22.2261 27.1421 23.2932 27.1421L23.2987 27.1366Z" fill="#707070"/>
<path fill-rule="evenodd" clip-rule="evenodd" d="M27.6926 30.847C27.1618 30.5788 25.832 30.1794 24.3599 30.0535C22.8933 29.9222 20.9014 30.0535 20.9014 30.0535V36.6751H24.3599C25.6952 36.5438 27.1618 36.2756 27.8294 35.8761C28.497 35.4821 29.4274 34.9568 29.4274 33.3588C29.3015 31.7718 28.2289 31.241 27.6926 30.8525V30.847Z" fill="#707070"/>
<path fill-rule="evenodd" clip-rule="evenodd" d="M45.8223 7.27737C31.0195 2.90494 15.2919 2.90494 0.5 7.27737V32.434C0.5 42.3663 9.16826 51.3684 23.1612 55.998C37.154 51.3684 45.8223 42.2295 45.8223 32.434V7.27737ZM32.8911 38.3879C31.025 39.7177 29.0276 39.849 28.2286 39.9804C27.8236 39.9804 27.0247 40.1063 26.2257 40.1063V45.1354H23.1612V40.2376H20.7642V45.1354H17.6942V40.2376H11.702L12.3696 36.5328H14.2357C14.9033 36.5328 15.1605 36.5328 15.4341 36.2646C15.7023 35.9965 15.7023 35.6025 15.7023 35.3343V22.6274C15.7023 21.8285 15.7023 21.5658 15.2973 21.1663C14.9033 20.7723 14.0989 20.7723 13.5626 20.7723H11.702V17.5983H17.6942V12.7005H20.7642V17.5983H23.1612V12.6951H26.2257V17.7242C28.4913 17.8555 30.2205 18.2605 31.6926 19.448C33.5532 20.9091 33.5532 23.2896 33.4274 23.9518C33.4274 24.4771 33.1592 25.6755 32.6284 26.3322C32.0921 27.1257 30.8936 27.7879 30.8936 27.7879C30.8936 27.7879 32.3602 28.056 33.4274 28.8495C34.489 29.643 35.288 30.9674 35.1566 33.0852C35.1566 35.203 34.7626 37.1894 32.8911 38.377V38.3879Z" fill="#707070"/>
<path opacity="0.2" fill-rule="evenodd" clip-rule="evenodd" d="M21.958 4.1036C24.229 4.37174 45.5549 8.07656 45.5549 34.6888C45.6917 34.0266 45.6917 33.2331 45.6917 32.571V7.41438C38.0906 5.0339 29.9641 3.97226 21.9635 4.1036H21.958Z" fill="#1E1E1E"/>
<path fill-rule="evenodd" clip-rule="evenodd" d="M61.5452 25.1135C62.5643 25.1135 63.4344 25.2566 64.1555 25.6976C64.8826 26.1267 65.4667 26.5617 66.0448 27.1339C66.4858 27.706 66.9149 28.4331 67.2069 29.2972C67.493 30.1614 67.493 31.0255 67.493 32.0387C67.493 33.475 67.2069 34.9172 66.6228 36.2164C66.0448 37.5156 65.3177 38.6658 64.4476 39.673C63.4285 40.6802 62.4153 41.4014 61.1042 41.9854C59.799 42.5575 58.4938 42.8496 56.8966 42.8496H55.8775C55.4484 42.8496 54.8584 42.8496 54.2803 42.7065C53.7022 42.5635 52.9692 42.5635 52.2481 42.2715C51.521 42.1285 50.9429 41.8424 50.2158 41.5504L55.7345 18.3373L60.6751 17.6162L58.6428 25.8287C59.0838 25.6916 59.5129 25.5426 59.954 25.3996C60.681 25.2566 61.1101 25.1075 61.5512 25.1075L61.5452 25.1135ZM57.4747 38.8148C58.2078 38.8148 58.9289 38.6718 59.656 38.2427C60.3831 37.8077 60.9671 37.3786 61.3962 36.7945C61.8372 36.2224 62.2663 35.5013 62.5583 34.7802C62.8504 34.0531 62.9874 33.1889 62.9874 32.3248C62.9874 31.3176 62.8504 30.4474 62.4093 29.8753C62.1173 29.3032 61.3902 29.0112 60.5201 29.0112C60.2281 29.0112 59.793 29.0112 59.358 29.1542C58.9289 29.2972 58.4879 29.4402 58.0528 29.8753L55.8716 38.6718H56.8907C57.0397 38.6718 57.1827 38.8148 57.4688 38.8148H57.4747Z" fill="#707070"/>
<path fill-rule="evenodd" clip-rule="evenodd" d="M73.011 42.2715H68.2253L72.2839 25.4055H77.0755L73.005 42.2715H73.011ZM75.3352 23.3852C74.6082 23.3852 74.0241 23.2422 73.595 22.8131C73.011 22.378 72.7249 21.7999 72.7249 20.9358C72.7249 20.5007 72.8739 20.0716 73.011 19.6366C73.16 19.2075 73.452 18.9154 73.744 18.6234C74.0301 18.3373 74.3221 18.0513 74.7512 17.9023C75.1922 17.7593 75.6273 17.6162 76.0623 17.6162C76.7894 17.6162 77.3735 17.7533 77.8026 18.1884C78.3807 18.6175 78.6727 19.1956 78.6727 20.0657C78.6727 20.4948 78.5237 20.9298 78.3807 21.3589C78.2436 21.794 77.9516 22.086 77.6536 22.3661C77.3675 22.6581 77.0755 22.9502 76.6345 23.0872C76.2054 23.3793 75.9074 23.3793 75.3352 23.3793V23.3852Z" fill="#707070"/>
<path fill-rule="evenodd" clip-rule="evenodd" d="M81.7247 21.3647L86.6533 20.6436L85.4972 25.5484H90.8668L89.8477 29.446H84.6211L83.1669 35.3521C83.0179 35.7812 83.0179 36.3593 82.8749 36.7884C82.7378 37.2234 82.8749 37.6525 83.0239 37.9446C83.1729 38.2366 83.4649 38.5167 83.7569 38.6657C84.043 38.8087 84.627 38.9577 85.2051 38.9577C85.7832 38.9577 86.2242 38.9577 86.6533 38.8146C87.0944 38.6716 87.6725 38.5226 88.1075 38.3856L88.3936 41.9912C87.8155 42.2772 87.0884 42.4203 86.3673 42.5633C85.6461 42.7064 84.7641 42.8553 83.7569 42.8553C82.3028 42.8553 81.1406 42.5633 80.2646 42.1282C79.3944 41.6991 78.8163 41.127 78.5243 40.3999C78.2382 39.6788 78.0952 38.8146 78.0952 37.8075C78.0952 36.8003 78.2442 35.7872 78.5243 34.7859L81.7187 21.3707L81.7247 21.3647Z" fill="#707070"/>
<path fill-rule="evenodd" clip-rule="evenodd" d="M96.9635 38.9571C98.1256 38.9571 98.8527 38.8141 99.2818 38.522C99.7228 38.236 99.8659 37.9499 99.8659 37.5208C99.8659 37.2288 99.8659 37.0858 99.7169 36.9368C99.5679 36.7937 99.5679 36.6507 99.2759 36.5077C99.1388 36.3646 98.8468 36.2156 98.5488 36.0726C98.2627 35.9296 97.8277 35.7865 97.3926 35.5005C96.8085 35.2084 96.3735 35.0654 95.9384 34.7794C95.5093 34.4873 95.0683 34.1953 94.6392 33.7722C94.3472 33.3371 94.0552 32.908 93.7631 32.473C93.6261 32.0439 93.4771 31.4658 93.4771 30.7446C93.4771 29.0163 94.0552 27.7231 95.3663 26.7099C96.6655 25.7027 98.5547 25.2617 100.885 25.2617C102.041 25.2617 103.06 25.4048 103.93 25.6968C104.8 25.9829 105.528 26.2689 106.112 26.5609L104.514 30.1666C104.073 29.8745 103.495 29.7315 102.774 29.4454C102.041 29.3024 101.32 29.1534 100.742 29.1534H99.8718C99.5798 29.1534 99.2878 29.2964 99.0017 29.2964C98.7097 29.4395 98.5607 29.5825 98.4177 29.7255C98.2687 29.8686 98.1316 30.1606 98.1316 30.4467C98.1316 30.8817 98.2687 31.1737 98.5607 31.4598C98.8527 31.6028 99.4308 31.8949 100.009 32.1869C100.885 32.616 101.612 32.908 102.041 33.3371C102.625 33.6291 103.06 34.0582 103.352 34.4933C103.644 34.9224 103.93 35.3574 104.079 35.7925C104.228 36.2216 104.371 36.7937 104.371 37.5208C104.371 38.2479 104.222 38.8141 103.93 39.5352C103.644 40.2623 103.203 40.8344 102.625 41.2635C102.041 41.8476 101.171 42.1336 100.295 42.5627C99.2759 42.8547 98.1197 42.9978 96.8145 42.9978C95.9444 42.9978 95.2173 42.9978 94.4962 42.8547C93.7632 42.7117 93.1851 42.5627 92.756 42.4197C92.1719 42.2767 91.7368 42.1277 91.4448 41.9906C91.1528 41.8475 90.8667 41.6986 90.5747 41.5555L92.1719 37.9499C92.6129 38.093 93.042 38.385 93.9121 38.8141C94.9312 38.8141 95.9444 38.9571 96.9635 38.9571Z" fill="#707070"/>
<path fill-rule="evenodd" clip-rule="evenodd" d="M118.889 26.2699C119.318 26.1269 119.616 25.9779 120.051 25.8349C120.48 25.6978 120.921 25.5488 121.499 25.4057C122.077 25.2627 122.661 25.2627 123.239 25.1137C123.966 24.9707 124.693 24.9707 125.564 24.9707C126.571 24.9707 127.453 25.1137 128.174 25.4057C128.895 25.6978 129.479 25.9779 130.063 26.5619C130.79 26.1269 131.66 25.6978 132.381 25.4057C133.103 25.1137 134.122 24.9707 135.141 24.9707C136.16 24.9707 137.03 25.1137 137.751 25.4057C138.472 25.6978 139.062 26.1269 139.491 26.5619C139.932 26.991 140.361 27.7122 140.51 28.2903C140.659 29.0114 140.802 29.7265 140.802 30.5967C140.802 31.0317 140.802 31.3178 140.653 31.7528C140.653 32.1819 140.504 32.617 140.361 33.0461L138.186 42.1286H133.395L135.576 33.1891C135.576 32.903 135.713 32.617 135.713 32.176C135.862 31.7469 135.862 31.4548 135.862 31.0257C135.862 30.4417 135.713 29.8696 135.433 29.4405C135.141 29.0054 134.563 28.7134 133.836 28.7134C133.395 28.7134 132.96 28.8564 132.524 29.0054C132.083 29.1485 131.797 29.2974 131.362 29.4405V30.3046C131.362 30.7337 131.362 31.0258 131.213 31.4549C131.076 31.8899 131.076 32.319 130.927 32.7541L128.746 41.8366H123.954L126.136 32.8971C126.136 32.6051 126.285 32.313 126.285 31.8899C126.434 31.4548 126.434 31.1688 126.434 30.7337C126.434 30.1616 126.285 29.5776 125.993 29.1485C125.701 28.7134 125.123 28.4273 124.395 28.4273H123.525C123.233 28.4273 122.941 28.5703 122.655 28.5703L119.604 41.5446H114.812L118.883 26.2639L118.889 26.2699Z" fill="#B5B5B5"/>
<path fill-rule="evenodd" clip-rule="evenodd" d="M142.55 35.781C142.55 34.4878 142.842 33.0396 143.277 31.8953C143.718 30.5961 144.439 29.4399 145.309 28.4387C146.179 27.4315 147.198 26.7104 148.498 25.9833C149.809 25.4112 151.12 25.1191 152.711 25.1191C153.438 25.1191 154.159 25.2622 154.743 25.4112C155.322 25.5542 155.9 25.9833 156.484 26.2753C156.913 26.7104 157.354 27.1395 157.64 27.7116C157.932 28.2956 158.081 29.0108 158.081 29.7319C158.081 30.8881 157.789 31.8953 157.211 32.7654C156.627 33.6296 155.9 34.2017 155.03 34.7858C154.01 35.3579 152.997 35.6499 151.692 35.936C150.381 36.228 148.933 36.228 147.479 36.228C147.628 37.0922 147.92 37.8133 148.498 38.1053C148.939 38.5404 149.809 38.6774 150.971 38.6774C151.698 38.6774 152.419 38.6775 152.997 38.5404C153.73 38.3973 154.308 38.2483 155.03 37.9563L155.322 41.705C154.743 41.997 154.01 42.14 152.997 42.2771C152.127 42.4201 151.114 42.5691 149.952 42.5691C148.641 42.5691 147.485 42.4261 146.608 41.997C145.738 41.5619 145.011 41.1328 144.433 40.4117C143.849 39.8276 143.414 38.9635 143.122 38.0994C142.693 37.6643 142.544 36.6512 142.544 35.787L142.55 35.781ZM151.99 28.8618C150.828 28.8618 149.958 29.2969 149.088 30.018C148.218 30.7391 147.777 31.8953 147.491 33.0396C148.796 33.0396 149.958 32.9025 150.679 32.7535C151.549 32.6105 152.127 32.3184 152.568 32.0324C152.997 31.7403 153.295 31.4483 153.438 31.1623C153.587 30.8762 153.73 30.5901 153.73 30.2981C153.73 29.2969 153.146 28.8618 151.99 28.8618Z" fill="#B5B5B5"/>
<path fill-rule="evenodd" clip-rule="evenodd" d="M164.903 42.7061C163.884 42.7061 162.871 42.5631 162.144 42.1221C161.417 41.693 160.696 41.2579 160.255 40.6858C159.826 40.1136 159.385 39.3866 159.236 38.5224C158.95 37.6582 158.95 36.7941 158.95 35.781C158.95 34.3447 159.236 32.9024 159.677 31.7462C160.255 30.447 160.988 29.2968 161.858 28.4326C162.728 27.4255 163.884 26.6984 165.195 26.1203C166.501 25.5482 167.806 25.2561 169.403 25.2561H170.422C170.714 25.2561 171.149 25.3992 171.441 25.3992L173.181 18.1879L178.122 17.4668L173.909 35.0539C173.622 36.21 173.479 37.5033 173.622 38.6595C173.76 39.8157 174.052 40.9718 174.35 41.979L170.136 42.5512C169.999 42.2591 169.85 42.1161 169.85 41.83C169.701 41.538 169.701 41.395 169.558 40.9659C168.98 41.395 168.247 41.83 167.526 42.1161C166.656 42.5512 165.929 42.7001 164.915 42.7001L164.903 42.7061ZM170.565 29.2968H168.968C168.241 29.2968 167.514 29.4339 166.936 29.869C166.358 30.161 165.774 30.7331 165.338 31.3052C164.897 31.8893 164.468 32.6044 164.319 33.3256C164.027 34.0467 163.878 34.9108 163.878 35.6379C163.878 36.6392 164.027 37.5152 164.462 38.0874C164.748 38.6595 165.482 38.9515 166.352 38.9515C166.781 38.9515 167.222 38.8085 167.657 38.6595C168.098 38.5165 168.527 38.0874 168.968 37.6463C168.968 37.0742 169.117 36.4961 169.117 35.918C169.266 35.3459 169.266 34.7678 169.403 34.3328L170.565 29.2908V29.2968Z" fill="#B5B5B5"/>
<path fill-rule="evenodd" clip-rule="evenodd" d="M181.453 42.2704H176.661L180.731 25.4044H185.523L181.453 42.2704ZM183.777 23.3841C183.044 23.3841 182.466 23.2411 182.031 22.812C181.452 22.3769 181.16 21.8048 181.16 20.9347C181.16 20.4996 181.309 20.0705 181.453 19.6355C181.601 19.2064 181.894 18.9143 182.18 18.6283C182.472 18.3422 182.764 18.0562 183.199 17.9072C183.64 17.7642 184.069 17.6211 184.51 17.6211C185.237 17.6211 185.815 17.7582 186.25 18.1932C186.828 18.6223 187.12 19.2064 187.12 20.0706C187.12 20.4997 186.971 20.9347 186.828 21.3638C186.679 21.7989 186.399 22.0909 186.101 22.371C185.809 22.663 185.523 22.955 185.082 23.0921C184.653 23.3841 184.212 23.3841 183.777 23.3841Z" fill="#B5B5B5"/>
<path fill-rule="evenodd" clip-rule="evenodd" d="M201.341 35.0658C201.049 36.222 200.912 37.5212 201.049 38.6714C201.198 39.8276 201.49 40.9838 201.782 41.9909L197.568 42.5631C197.419 42.2711 197.282 42.128 197.282 41.842C197.133 41.5499 197.133 41.4069 196.99 40.9778C196.412 41.4069 195.679 41.8419 194.958 42.128C194.231 42.42 193.361 42.5631 192.49 42.5631C191.471 42.5631 190.458 42.42 189.731 41.9909C189.004 41.5559 188.277 41.1208 187.842 40.5427C187.401 39.9706 186.972 39.2495 186.823 38.3853C186.674 37.5152 186.531 36.651 186.531 35.6439C186.531 34.1957 186.823 32.7594 187.264 31.4602C187.842 30.1669 188.569 29.0108 189.439 28.0036C190.309 26.9964 191.471 26.2753 192.777 25.6972C194.088 25.1131 195.393 24.833 196.847 24.833H197.866C198.295 24.833 198.885 24.833 199.463 24.9701C200.041 25.1131 200.774 25.1131 201.496 25.4051C202.223 25.5481 202.801 25.8342 203.528 26.1263L201.347 35.0658H201.341ZM198.003 29.1597C197.711 29.1597 197.425 29.0167 197.276 29.0167H196.406C195.673 29.0167 194.952 29.1597 194.374 29.5888C193.79 30.0239 193.212 30.453 192.777 31.037C192.336 31.6092 191.906 32.3303 191.614 33.0574C191.322 33.7785 191.173 34.6426 191.173 35.5068C191.173 36.514 191.322 37.3841 191.757 37.9562C192.187 38.5284 192.777 38.8204 193.647 38.8204C194.076 38.8204 194.517 38.6774 194.952 38.5284C195.393 38.3913 195.822 37.9562 196.263 37.5271C196.263 36.9431 196.412 36.3709 196.412 35.7988C196.561 35.2148 196.561 34.6426 196.698 34.2076L198.009 29.1657L198.003 29.1597Z" fill="#B5B5B5"/>
<path fill-rule="evenodd" clip-rule="evenodd" d="M109.741 42.2709C109.014 42.2709 108.43 42.1278 108.001 41.6987C107.423 41.2637 107.131 40.6856 107.131 39.8214C107.131 39.3863 107.28 38.9572 107.423 38.5222C107.56 38.0931 107.852 37.8011 108.15 37.521C108.436 37.2289 108.728 36.9369 109.169 36.7939C109.598 36.6509 110.039 36.5078 110.474 36.5078C111.202 36.5078 111.786 36.6449 112.215 37.08C112.799 37.5091 113.085 38.0872 113.085 38.9573C113.085 39.3864 112.936 39.8214 112.799 40.2505C112.65 40.6856 112.358 40.9776 112.066 41.2577C111.78 41.5497 111.488 41.8417 111.059 41.9848C110.618 42.2708 110.188 42.2709 109.747 42.2709H109.741Z" fill="#B5B5B5"/>
</g>
</svg>
