<svg width="65" height="65" viewBox="0 0 65 65" fill="none" xmlns="http://www.w3.org/2000/svg">
<g id="Group">
<path id="Vector" d="M23.4091 0C24.7336 0.166237 26.0635 0.289573 27.3773 0.509436C31.0345 1.13149 34.5202 2.23616 37.5661 4.42406C38.4402 5.05147 39.266 5.7915 39.9685 6.60123C42.7141 9.75438 42.6229 13.5939 39.7808 16.6559C37.6733 18.9243 34.9974 20.2649 32.107 21.1926C26.3853 23.0266 20.5509 23.2518 14.6575 22.2436C11.0861 21.6323 7.68622 20.5384 4.67786 18.4524C2.73127 17.101 1.14934 15.4494 0.52729 13.0684C0.468303 12.8485 0.398587 12.634 0.3396 12.4195V10.666C0.983099 7.64156 2.92969 5.60917 5.43934 4.01651C8.42625 2.12355 11.7349 1.08859 15.1937 0.514799C16.4646 0.305662 17.7463 0.171597 19.0225 0.00535955C20.4865 0.00535955 21.9505 0.00535955 23.4091 0.00535955V0Z" fill="#4D7BF1"/>
<path id="Vector_2" d="M0.3396 19.8086C5.08005 24.0074 10.8126 25.6805 16.9419 26.3508C20.0897 26.694 23.2375 26.6351 26.5193 26.2329C26.085 26.7209 25.731 27.1177 25.3878 27.5145C23.7952 29.3378 22.5028 31.3541 21.5429 33.5688C21.366 33.9763 21.1622 34.1211 20.7117 34.1104C15.8158 33.987 11.0753 33.1827 6.66734 30.9304C4.76902 29.9598 3.07983 28.7211 1.79283 26.9836C1.05817 25.9916 0.655981 24.8654 0.350319 23.6964V19.8086H0.3396Z" fill="#4D7BF1"/>
<path id="Vector_3" d="M0.3396 42.3799C2.2272 44.053 4.32394 45.3882 6.65662 46.3696C10.5444 48.0051 14.6146 48.8149 18.8134 49.0401C20.0414 49.1045 20.0468 49.0884 20.3793 50.2467C20.9638 52.3059 21.8164 54.2471 22.9157 56.0811C22.9962 56.2205 23.0659 56.3653 23.1785 56.5798C22.6422 56.612 22.165 56.6602 21.6877 56.6656C16.6845 56.6978 11.8314 55.9631 7.26796 53.8074C5.13368 52.7939 3.21926 51.4854 1.78211 49.5603C1.04209 48.5736 0.645262 47.4474 0.3396 46.2731V42.3852V42.3799Z" fill="#4D7BF1"/>
<path id="Vector_4" d="M0.33862 31.0967C2.31738 32.8609 4.54283 34.2337 6.99885 35.2312C10.7258 36.7434 14.619 37.5049 18.6194 37.7515C18.9948 37.773 19.3701 37.7891 19.7455 37.8159C19.8259 37.8159 19.9064 37.8481 20.0619 37.8802C19.5471 40.2987 19.2361 42.7279 19.4935 45.318C18.3942 45.2161 17.3377 45.1464 16.2921 45.0124C12.4793 44.5083 8.81137 43.5216 5.48125 41.516C3.94758 40.5883 2.52652 39.4997 1.59881 37.95C1.05184 37.0383 0.746164 35.9819 0.333252 34.9899V31.102L0.33862 31.0967Z" fill="#4D7BF1"/>
<path id="Vector_5" d="M43.8716 22.8228C55.283 22.8389 64.5655 32.1481 64.5387 43.5488C64.5118 54.9602 55.1972 64.2373 43.7965 64.1998C32.4119 64.1623 23.1563 54.8798 23.1616 43.5006C23.1616 32.0945 32.4709 22.8013 43.8716 22.8174V22.8228ZM41.9572 34.4326C41.7212 34.5452 41.5067 34.6364 41.303 34.7382C38.0962 36.3684 37.1953 40.4815 39.4529 43.2753C40.5844 44.6749 42.0805 45.3399 43.8716 45.3989C44.8958 45.4311 45.6627 46.2033 45.7163 47.1739C45.7699 48.1123 45.0728 48.9703 44.1236 49.1312C43.2067 49.2867 42.3218 48.7022 42.0269 47.7423C41.9786 47.5921 41.9411 47.4366 41.9036 47.3026H38.2195C38.2195 47.5171 38.1981 47.7048 38.2195 47.8817C38.5091 49.9087 39.5441 51.421 41.3995 52.3058C41.866 52.5256 41.9733 52.7777 41.9625 53.2442C41.9304 54.365 41.9518 55.4911 41.9518 56.6333H45.7163C45.7163 55.475 45.7431 54.3489 45.7056 53.2281C45.6895 52.7401 45.8396 52.5149 46.2847 52.2951C48.2259 51.3459 49.3253 49.7586 49.454 47.6082C49.588 45.3828 48.6388 43.6453 46.7512 42.4441C45.845 41.8704 44.8422 41.6505 43.7751 41.613C42.7884 41.5754 42.0269 40.8139 41.9625 39.8701C41.8982 38.9317 42.5739 38.0683 43.523 37.886C44.4347 37.7144 45.3409 38.2936 45.6412 39.2427C45.6895 39.3982 45.727 39.5538 45.7699 39.7039H49.5022C49.336 37.1353 48.0597 35.4193 45.7002 34.4111V30.3893H41.9518V34.4272L41.9572 34.4326Z" fill="#4D7BF1"/>
</g>
</svg>
