<svg width="234" height="60" viewBox="0 0 234 60" fill="none" xmlns="http://www.w3.org/2000/svg">
<path d="M107.884 22.0801L107.87 22.0898V22.0801H107.884Z" fill="#CACACA"/>
<path d="M137.468 7.40152C136.989 7.15947 136.577 6.80607 136.268 6.37522L136.355 6.28809L137.468 7.40152Z" fill="#CACACA"/>
<path d="M146.429 8.08008L146.414 8.08977V8.08008H146.429Z" fill="#CACACA"/>
<path d="M111.549 23.5176L111.535 23.5321V23.5176H111.549Z" fill="#CACACA"/>
<path d="M123.26 16.8418H123.25L123.255 16.8369L123.26 16.8418Z" fill="#CACACA"/>
<path d="M143.785 25.3382L142.299 26.8244L141.66 26.1854C142.028 25.5706 142.585 25.0865 143.253 24.8105L143.785 25.3431V25.3382Z" fill="#CACACA"/>
<path d="M146.434 8.08004H146.429V8.0752L146.434 8.08004Z" fill="#CACACA"/>
<path d="M165.958 24.9365V24.9414H165.953L165.958 24.9365Z" fill="#CACACA"/>
<path d="M176.85 14.0438L176.821 14.0729C176.182 13.7485 175.659 13.2305 175.335 12.5867L175.364 12.5576L176.85 14.0438Z" fill="#CACACA"/>
<path d="M15.2023 49.6351V53.9824C15.2023 58.1699 12.4768 59.8836 7.95528 59.8836H7.86815C3.35145 59.8836 0.621094 58.2086 0.621094 53.9824V37.2372C0.621094 33.2094 3.34661 31.3359 7.86815 31.3359H7.95528C12.472 31.3359 15.2023 33.2094 15.2023 37.2372V40.9067C15.2023 41.7442 14.7328 42.2235 13.7936 42.2235H12.5979C11.7023 42.2235 11.1891 41.7442 11.1891 40.9067V37.9585C11.1891 35.5283 10.0805 34.6521 7.90687 34.6521C5.73324 34.6521 4.62464 35.5283 4.62464 37.9585V53.2659C4.62464 55.6961 5.73324 56.5723 7.90687 56.5723C10.0805 56.5723 11.1891 55.6961 11.1891 53.2659V49.6399C11.1891 48.8024 11.7023 48.3232 12.5979 48.3232H13.7936C14.7328 48.3232 15.2023 48.8024 15.2023 49.6399V49.6351Z" fill="#CACACA"/>
<path d="M33.6612 59.564H32.4654C31.657 59.564 31.1438 59.2445 30.8872 58.4893L27.1354 48.1246H23.6402V58.2521C23.6402 59.0896 23.127 59.5688 22.2314 59.5688H21.0357C20.0965 59.5688 19.627 59.0896 19.627 58.2521V32.9769C19.627 32.1394 20.0965 31.6602 21.0357 31.6602H27.087C31.6037 31.6602 34.3341 33.4562 34.3341 37.5614V42.2233C34.3341 45.0118 33.056 46.7255 30.8388 47.563L34.8472 58.0488C35.1474 58.925 34.6778 59.564 33.6515 59.564H33.6612ZM23.645 44.852H26.9273C29.1445 44.852 30.3354 44.0145 30.3354 41.5456V38.2779C30.3354 35.8041 29.1396 34.9714 26.9273 34.9714H23.645V44.8569V44.852Z" fill="#CACACA"/>
<path d="M46.6162 58.2472C46.6162 59.0847 46.1031 59.5639 45.2075 59.5639H44.0118C43.1162 59.5639 42.603 59.0847 42.603 58.2472V49.2767L36.8906 33.1318C36.5517 32.2556 37.0164 31.6553 38.0427 31.6553H39.3208C40.1728 31.6553 40.6859 32.0135 40.899 32.8123L44.6508 45.1279L48.4026 32.8123C48.6156 32.0135 49.1287 31.6553 49.9372 31.6553H51.1717C52.1931 31.6553 52.6627 32.2556 52.3238 33.1318L46.6114 49.2767V58.2472H46.6162Z" fill="#CACACA"/>
<path d="M63.2792 31.6074H57.2278C56.2887 31.6074 55.8191 32.0867 55.8191 32.9242V58.1993C55.8191 59.0368 56.2887 59.5161 57.2278 59.5161H58.4187C59.3143 59.5161 59.8275 59.0368 59.8275 58.1993V34.9187H63.1097C65.3269 34.9187 66.5178 35.7562 66.5178 38.2251V41.7736C66.5178 44.2038 65.3269 45.0413 63.1097 45.0413C62.3594 45.0413 61.7494 45.6513 61.7494 46.4017V47.031C61.7494 47.7814 62.3594 48.3914 63.1097 48.3914H63.2792C67.7959 48.3914 70.5262 46.5953 70.5262 42.4901V37.5087C70.5262 33.4035 67.8007 31.6074 63.2792 31.6074Z" fill="#CACACA"/>
<path d="M86.4239 32.972V33.6498C86.4239 34.526 85.9544 34.9666 85.0152 34.9666H81.2198V58.2472C81.2198 59.0847 80.7067 59.5639 79.8111 59.5639H78.6153C77.7197 59.5639 77.2066 59.0847 77.2066 58.2472V34.9666H73.4112C72.5156 34.9666 72.0024 34.526 72.0024 33.6498V32.972C72.0024 32.1345 72.5156 31.6553 73.4112 31.6553H85.0055C85.9447 31.6553 86.4143 32.1345 86.4143 32.972H86.4239Z" fill="#CACACA"/>
<path d="M96.1011 31.3408H96.4399C100.957 31.3408 103.687 33.1368 103.687 37.242V53.9873C103.687 58.0925 100.961 59.8885 96.4399 59.8885H96.1011C91.5844 59.8885 88.854 58.0925 88.854 53.9873V37.242C88.854 33.0981 91.5795 31.3408 96.1011 31.3408ZM96.2705 56.5724C98.4877 56.5724 99.6786 55.7349 99.6786 53.2659V37.9585C99.6786 35.4848 98.4829 34.6521 96.2705 34.6521C94.0581 34.6521 92.8624 35.4896 92.8624 37.9585V53.2659C92.8624 55.7397 94.0581 56.5724 96.2705 56.5724Z" fill="#CACACA"/>
<path d="M143.016 57.947L139.008 47.5C141.225 46.6674 142.503 44.9585 142.503 42.1797V37.5323C142.503 33.4416 139.777 31.6553 135.256 31.6553H129.204C128.265 31.6553 127.796 32.1297 127.796 32.9672V58.1455C127.796 58.9782 128.265 59.4574 129.204 59.4574H130.395C131.291 59.4574 131.804 58.983 131.804 58.1455V48.0568H135.299L139.051 58.3827C139.308 59.1379 139.816 59.4574 140.629 59.4574H141.82C142.842 59.4574 143.311 58.8233 143.011 57.947H143.016ZM138.499 41.5068C138.499 43.9709 137.308 44.8036 135.091 44.8036H131.809V34.952H135.091C137.308 34.952 138.499 35.7847 138.499 38.2488V41.5068Z" fill="#CACACA"/>
<path d="M153.782 31.3408H153.443C148.927 31.3408 146.196 33.0884 146.196 37.2178V53.9001C146.196 57.9908 148.922 59.7771 153.443 59.7771H153.782C158.299 59.7771 161.029 57.9908 161.029 53.9001V37.2178C161.029 33.1272 158.304 31.3408 153.782 31.3408ZM157.021 53.1836C157.021 55.6477 155.83 56.4804 153.613 56.4804C151.396 56.4804 150.205 55.6477 150.205 53.1836V37.9343C150.205 35.4702 151.396 34.6376 153.613 34.6376C155.83 34.6376 157.021 35.4702 157.021 37.9343V53.1836Z" fill="#CACACA"/>
<path d="M181.29 58.1267L175.742 45.8353C175.422 45.1236 175.422 44.3055 175.751 43.5939L180.437 33.3841C180.951 32.5127 180.52 31.835 179.416 31.835H178.007C177.242 31.835 176.686 32.1545 176.386 32.8274L172 43.7052C171.859 44.0586 171.782 44.4362 171.782 44.8187V45.477C171.782 45.8159 171.854 46.1548 171.99 46.4646L177.325 58.5576C177.581 59.3128 178.09 59.6323 178.903 59.6323H180.094C181.115 59.6323 181.585 58.9981 181.285 58.1219L181.29 58.1267ZM168.63 31.835H167.434C166.495 31.835 166.031 32.3094 166.031 33.1469V58.3252C166.031 59.1578 166.5 59.6371 167.434 59.6371H168.63C169.526 59.6371 170.039 59.1627 170.039 58.3252V33.1469C170.039 32.3142 169.526 31.835 168.63 31.835Z" fill="#CACACA"/>
<path d="M195.653 56.1616H188.362V47.0265H194.2C195.14 47.0265 195.609 46.5472 195.609 45.7146V44.9981C195.609 44.1655 195.14 43.6862 194.2 43.6862H188.362V34.9481H195.522C196.461 34.9481 196.931 34.5124 196.931 33.6362V32.9584C196.931 32.1258 196.461 31.6465 195.522 31.6465H185.763C184.823 31.6465 184.354 32.1209 184.354 32.9584V58.1367C184.354 58.9694 184.823 59.4486 185.763 59.4486H195.653C196.592 59.4486 197.062 58.9742 197.062 58.1367V57.4638C197.062 56.5924 196.592 56.1519 195.653 56.1519V56.1616Z" fill="#CACACA"/>
<path d="M215.811 57.947L211.802 47.5C214.02 46.6674 215.298 44.9585 215.298 42.1797V37.5323C215.298 33.4416 212.572 31.6553 208.051 31.6553H201.999C201.06 31.6553 200.591 32.1297 200.591 32.9672V58.1455C200.591 58.9782 201.06 59.4574 201.999 59.4574H203.19C204.086 59.4574 204.599 58.983 204.599 58.1455V48.0568H208.094L211.846 58.3827C212.103 59.1379 212.611 59.4574 213.424 59.4574H214.615C215.637 59.4574 216.106 58.8233 215.806 57.947H215.811ZM211.294 41.5068C211.294 43.9709 210.103 44.8036 207.886 44.8036H204.604V34.952H207.886C210.103 34.952 211.294 35.7847 211.294 38.2488V41.5068Z" fill="#CACACA"/>
<path d="M229.196 44.7651L225.319 42.7803C223.615 41.8653 222.976 41.2699 222.976 39.6045V37.6972C222.976 35.4751 224.128 34.5989 226.171 34.5989C228.214 34.5989 229.366 35.4751 229.366 37.6972V40.1613C229.366 40.9939 229.836 41.4732 230.775 41.4732H231.883C232.822 41.4732 233.292 40.9939 233.292 40.1613V37.063C233.292 33.0498 230.31 31.3457 226.219 31.3457H226.132C222.041 31.3457 219.059 33.0546 219.059 37.063V40.5582C219.059 43.2208 220.507 44.4117 223.237 45.8786L227.071 47.8634C228.819 48.7783 229.458 49.49 229.458 51.1601V53.3434C229.458 55.5268 228.306 56.5192 226.219 56.5192C224.133 56.5192 222.981 55.5268 222.981 53.3434V50.5647C222.981 49.732 222.511 49.2528 221.572 49.2528H220.463C219.524 49.2528 219.059 49.7272 219.059 50.5647V53.9825C219.059 58.1942 221.659 59.782 226.176 59.782H226.263C230.78 59.782 233.379 58.1555 233.379 53.9825V50.129C233.379 47.4664 231.757 46.1157 229.201 44.7699L229.196 44.7651Z" fill="#CACACA"/>
<path d="M138.974 5.50953C139.575 5.50953 140.063 5.02186 140.063 4.42029C140.063 3.81872 139.575 3.33105 138.974 3.33105C138.372 3.33105 137.884 3.81872 137.884 4.42029C137.884 5.02186 138.372 5.50953 138.974 5.50953Z" fill="#D9D9D9"/>
<path d="M162.346 17.1228C162.948 17.1228 163.435 16.6351 163.435 16.0336C163.435 15.432 162.948 14.9443 162.346 14.9443C161.745 14.9443 161.257 15.432 161.257 16.0336C161.257 16.6351 161.745 17.1228 162.346 17.1228Z" fill="#D9D9D9"/>
<path d="M178.322 12.1707C178.923 12.1707 179.411 11.683 179.411 11.0814C179.411 10.4799 178.923 9.99219 178.322 9.99219C177.72 9.99219 177.232 10.4799 177.232 11.0814C177.232 11.683 177.72 12.1707 178.322 12.1707Z" fill="#D9D9D9"/>
<path d="M144.526 28.989C145.128 28.989 145.615 28.5014 145.615 27.8998C145.615 27.2982 145.128 26.8105 144.526 26.8105C143.925 26.8105 143.437 27.2982 143.437 27.8998C143.437 28.5014 143.925 28.989 144.526 28.989Z" fill="#D9D9D9"/>
<path d="M178.322 6.66129C175.882 6.66129 173.897 8.64612 173.897 11.086C173.897 11.7734 174.062 12.4609 174.367 13.0708C174.42 13.1773 174.478 13.279 174.536 13.3807L165.077 22.8449H155.951L149.953 16.8469L149.943 16.8565V16.8469H123.245L115.262 24.8298L115.277 24.8443H115.262V30.1646H113.631V24.4086L122.601 15.4381H142.043L147.295 10.1856H155.244L158.657 13.5985C158.193 14.3005 157.921 15.138 157.921 16.0433C157.921 18.4831 159.906 20.468 162.346 20.468C164.786 20.468 166.771 18.4831 166.771 16.0433C166.771 13.6034 164.786 11.6185 162.346 11.6185C161.562 11.6185 160.826 11.8219 160.187 12.1849L160.202 12.1704L156.121 8.08941H146.429L146.419 8.09908L141.176 13.3419H121.701V13.3758L111.549 23.5275L111.535 23.542V30.1694H109.971V22.9756L121.057 11.8896H133.745V11.8557L133.755 11.8654L137.158 8.46216C137.725 8.7139 138.344 8.84944 138.969 8.84944C141.409 8.84944 143.393 6.86462 143.393 4.42473C143.393 1.98484 141.409 0 138.969 0C136.529 0 134.544 1.98484 134.544 4.42473C134.544 5.36389 134.834 6.25948 135.382 7.01953C135.415 7.0631 135.449 7.1115 135.488 7.15507L132.859 9.78378H120.185L107.865 22.0994V34.2698H107.952V58.5913C107.952 59.4869 108.422 60 109.361 60H115.412C119.929 60 122.572 57.7392 122.572 54.1181V49.219C122.572 47.0453 121.764 44.9153 119.077 44.4893C121.589 44.1891 122.403 41.8461 122.403 39.8031V36.0513C122.403 34.5603 122.001 33.3016 121.212 32.3382V27.1632L125.738 22.6368H138.093L140.871 25.4155C140.818 25.4881 140.77 25.5656 140.726 25.6431C140.315 26.3256 140.097 27.1147 140.097 27.9135C140.097 30.3534 142.082 32.3382 144.521 32.3382C146.961 32.3382 148.946 30.3534 148.946 27.9135C148.946 25.4736 146.961 23.4888 144.521 23.4888C143.936 23.4888 143.369 23.6001 142.837 23.8228C142.701 23.8809 142.57 23.9438 142.44 24.0116L138.964 20.5357H124.867L119.145 26.2579L119.159 26.2724H119.106V30.8085C118.583 30.5906 118.002 30.426 117.358 30.3147V25.706L124.112 18.9527H148.806L154.722 24.9605L155.089 24.9508H165.943L176.017 14.8717C176.119 14.9298 176.221 14.9879 176.322 15.0412C176.932 15.351 177.62 15.5107 178.312 15.5107C180.752 15.5107 182.737 13.5259 182.737 11.086C182.737 8.64612 180.752 6.66129 178.312 6.66129H178.322ZM162.346 13.7728C163.595 13.7728 164.607 14.7894 164.607 16.0336C164.607 17.2777 163.595 18.2943 162.346 18.2943C161.097 18.2943 160.085 17.2777 160.085 16.0336C160.085 14.7894 161.102 13.7728 162.346 13.7728ZM138.974 2.15912C140.223 2.15912 141.234 3.17089 141.234 4.41988C141.234 5.66887 140.223 6.68066 138.974 6.68066C138.615 6.68066 138.272 6.59836 137.952 6.43861C137.633 6.27885 137.352 6.03679 137.139 5.74633C136.858 5.35904 136.708 4.90399 136.708 4.41988C136.708 3.17089 137.72 2.15912 138.969 2.15912H138.974ZM142.58 26.7371C142.832 26.3208 143.214 25.9916 143.66 25.8028C143.931 25.6915 144.221 25.6334 144.521 25.6334C145.77 25.6334 146.782 26.6451 146.782 27.8941C146.782 29.1431 145.77 30.1549 144.521 30.1549C143.272 30.1549 142.261 29.1383 142.261 27.8941C142.261 27.4875 142.372 27.0857 142.58 26.7323V26.7371ZM118.569 53.4307C118.569 55.5172 117.586 56.4999 115.586 56.4999H111.965V46.2708H115.586C117.504 46.2708 118.569 47.1228 118.569 48.9576V53.4307ZM118.399 36.7242V40.1759C118.399 42.0107 117.334 42.8627 115.417 42.8627H111.965V33.655H115.417C116.24 33.655 116.889 33.8196 117.368 34.1585C118.06 34.6474 118.399 35.4946 118.399 36.7242ZM178.322 13.3468C177.963 13.3468 177.625 13.2645 177.305 13.1047C176.874 12.8869 176.516 12.5287 176.298 12.0978C176.138 11.7831 176.061 11.4394 176.061 11.0812C176.061 9.83218 177.073 8.8204 178.322 8.8204C179.571 8.8204 180.582 9.83218 180.582 11.0812C180.582 12.3302 179.571 13.3419 178.322 13.3419V13.3468Z" fill="#8E8E8E"/>
</svg>
