<svg width="148" height="60" viewBox="0 0 148 60" fill="none" xmlns="http://www.w3.org/2000/svg">
<path fill-rule="evenodd" clip-rule="evenodd" d="M36.3692 21.1096C37.8742 21.2048 39.3793 20.8918 40.7166 20.1933C42.0539 19.4994 43.1782 18.4471 43.967 17.1635C44.9915 15.7076 45.4811 13.9387 45.3496 12.1607C45.2408 11.1493 44.9099 10.8 44.3614 11.1084C42.9833 11.8749 41.451 12.3376 39.878 12.4646C38.2006 12.6823 36.5052 12.7594 34.8143 12.6959C33.35 12.6188 31.0879 12.4419 28.037 12.1698C24.9816 11.8931 22.8691 11.7253 21.6904 11.6663C20.8472 11.6028 20.0584 11.5665 19.3286 11.5529C18.5987 11.5393 17.3657 11.5847 15.6294 11.689C14.07 11.7706 12.5196 11.9793 10.9919 12.3104C9.48681 12.6687 8.03163 13.1994 6.64898 13.8933C5.23913 14.5464 3.98341 15.4899 2.96795 16.6646C1.5717 18.2158 0.7557 20.2024 0.660501 22.2888C0.547168 23.2504 0.678641 24.2255 1.05037 25.1191C1.41757 26.0126 2.00689 26.8018 2.76395 27.405C3.97434 28.3485 5.47032 28.8519 7.0071 28.8292C8.42602 28.8655 9.84041 28.5979 11.1505 28.0491C12.1479 27.6318 13.0636 27.0422 13.8524 26.3029C14.2558 25.9309 14.5913 25.4864 14.8406 24.9966C14.9041 24.8923 14.9403 24.7743 14.9403 24.6519C14.9403 24.5294 14.9086 24.4115 14.8406 24.3072C14.6321 24.0985 14.41 23.9081 14.1697 23.7357C13.875 23.518 13.6302 23.2368 13.458 22.9102C13.1588 22.4566 13.0545 21.9033 13.1588 21.3726C13.2494 20.6333 13.4806 19.9121 13.8433 19.2635C14.3057 18.4698 14.9993 17.8303 15.8289 17.4266C16.867 16.9005 18.032 16.6692 19.1926 16.7553H19.2379L13.6302 34.3355C12.5422 37.7327 12.6511 40.6174 13.9476 42.9895C15.2486 45.3617 17.7465 46.6407 21.4411 46.8221C23.2544 46.9174 25.0722 46.6861 26.804 46.1328C28.3679 45.6656 29.8413 44.9263 31.1514 43.9511C32.185 43.171 33.146 42.2956 34.0164 41.334C34.6465 40.6537 35.1815 39.8917 35.6031 39.0617C35.73 38.8984 35.8161 38.7079 35.8615 38.5038C35.9068 38.2997 35.9023 38.091 35.8569 37.8915C35.7345 37.6602 35.4127 37.6828 34.9004 37.9595C33.205 38.853 31.3554 39.4291 29.4514 39.6558C27.8103 39.9552 26.1149 39.6967 24.6371 38.9211C23.3859 38.1863 23.0187 36.9617 23.5355 35.2472C23.54 35.2155 23.8936 34.1133 24.5872 31.9407H32.1578C32.2303 31.9543 32.3028 31.9362 32.3663 31.8908C32.4252 31.85 32.466 31.7819 32.4796 31.7094L33.9665 27.1193L33.9847 27.0241L33.7807 26.888H26.2101C26.4096 26.3392 26.7994 25.1508 27.3797 23.332C27.9599 21.5132 28.3679 20.2342 28.6037 19.4994C31.1106 20.3748 33.7218 20.9191 36.3737 21.1096H36.3692ZM53.3554 32.494C53.3554 32.494 53.3554 32.4487 53.3554 32.426C53.3509 32.4033 53.3418 32.3852 53.3282 32.367C53.3146 32.3489 53.2965 32.3353 53.2783 32.3262C53.2602 32.3171 53.2375 32.3126 53.2149 32.3081H39.5833C39.5108 32.3081 39.4428 32.3262 39.3838 32.367C39.3249 32.4078 39.2841 32.4668 39.2614 32.5348L37.9921 36.4809L38.1825 36.6623H51.8549C51.9002 36.6714 51.9501 36.6623 51.9864 36.6351C52.0271 36.6079 52.0544 36.5716 52.0634 36.5217L53.3554 32.4804V32.494ZM91.2038 36.7621L93.4614 29.6003C94.2003 27.3687 94.1776 25.5499 93.3979 24.1393C93.0262 23.459 92.4686 22.8966 91.7886 22.5201C91.1086 22.1482 90.3379 21.9759 89.5628 22.0258C87.9625 22.0893 86.3985 22.5473 85.0159 23.3547C83.189 24.3933 81.5932 25.7994 80.3375 27.4867C80.4599 26.7927 80.4373 26.0806 80.2741 25.3912C80.1109 24.7063 79.8117 24.0577 79.3901 23.4908C78.973 23.0009 78.4517 22.6109 77.8578 22.3569C77.2685 22.1029 76.6248 21.9895 75.981 22.0212C74.408 22.0847 72.8757 22.5247 71.5112 23.3048C69.7115 24.3026 68.1339 25.6634 66.8827 27.2962C67.0142 26.6204 67.0051 25.9264 66.8419 25.2551C66.6833 24.5839 66.3795 23.9579 65.9579 23.4182C65.491 22.9283 64.9198 22.5519 64.2897 22.3115C63.6596 22.0711 62.9796 21.9713 62.3086 22.0212C60.9713 22.053 59.6567 22.4068 58.4871 23.0554C57.3991 23.5452 56.4562 24.3117 55.7626 25.2823C55.7218 25.3232 55.6901 25.3685 55.6674 25.423C55.6447 25.4774 55.6402 25.5318 55.6447 25.5908C55.6447 25.6497 55.6674 25.7042 55.6946 25.7541C55.7218 25.804 55.7626 25.8448 55.8079 25.8811C56.0074 26.0353 56.2567 26.2394 56.5604 26.5025C56.7463 26.7519 56.8823 27.0376 56.9548 27.3415C57.0319 27.6454 57.0455 27.9584 56.9956 28.2668C56.9004 29.6275 56.633 30.97 56.1978 32.2582C55.545 34.3672 54.0037 38.912 51.5829 45.8924L51.5648 45.9876L51.669 46.1192H60.8897C60.9577 46.0874 61.0167 46.0511 61.0711 46.0058C61.1209 45.9649 61.1527 45.906 61.1663 45.847L65.0649 33.5463C65.4729 32.2627 66.1121 31.0653 66.9417 30.0085C67.9662 28.8156 68.8638 28.294 69.6299 28.4482C70.4867 28.6024 70.6499 29.4869 70.124 31.1106C69.6707 32.6709 69.3352 33.7595 69.1267 34.3673C68.4649 36.3584 67.2635 40.1956 65.5182 45.8878C65.5091 45.8878 65.5001 45.8969 65.4955 45.906C65.491 45.9151 65.4865 45.9241 65.4819 45.9332C65.4819 45.9422 65.4819 45.9513 65.4819 45.9604C65.4819 45.9695 65.491 45.9785 65.4955 45.9831L65.6134 46.1192H74.8386C74.9066 46.0874 74.9656 46.0511 75.02 46.0058C75.0698 45.9649 75.1016 45.906 75.1152 45.847L78.3927 34.3718L78.6421 33.5463C79.0183 32.2491 79.6575 31.0472 80.5188 30.0085C81.5434 28.8156 82.441 28.294 83.2071 28.4482C84.0639 28.6024 84.2271 29.4869 83.7012 31.1106L80.8724 40.0141C80.2197 42.1232 80.342 43.815 81.2442 45.0805C81.7292 45.7245 82.3639 46.2371 83.0983 46.5682C83.8327 46.8993 84.6351 47.0444 85.442 46.9809C86.7793 46.9492 88.094 46.5954 89.2636 45.9468C90.3425 45.466 91.2763 44.7131 91.979 43.7651C92.0515 43.7016 92.1014 43.6109 92.1105 43.5157C92.1195 43.4204 92.0923 43.3206 92.0334 43.2435C91.8566 43.0712 91.6526 42.9306 91.4259 42.8308C91.1041 42.6448 90.8502 42.3545 90.7142 42.0053C90.4921 41.4202 90.4014 40.7943 90.4513 40.1684C90.5465 39.0027 90.7913 37.8506 91.1857 36.7485L91.2038 36.7621ZM119.877 35.4785C120.974 32.0223 120.702 29.0061 119.061 26.4344C117.42 23.8627 114.786 22.4385 111.164 22.1663C107.524 21.935 103.915 22.9919 100.973 25.1508C97.9312 27.1737 95.66 30.1673 94.5312 33.6416C93.4342 37.0977 93.7107 40.1139 95.3699 42.6856C97.0291 45.2574 99.6674 46.6816 103.28 46.9537C106.934 47.2077 110.561 46.1554 113.512 43.9874C116.522 41.9418 118.757 38.9438 119.868 35.474L119.877 35.4785ZM103.453 34.2856C104.006 32.4305 104.885 30.6888 106.055 29.1467C106.431 28.5707 106.948 28.099 107.555 27.7815C108.163 27.4595 108.843 27.3007 109.532 27.3143C110.112 27.3415 110.661 27.5865 111.06 28.0083C111.463 28.4255 111.685 28.9835 111.69 29.564C111.844 31.3556 111.595 33.1608 110.964 34.8435C110.42 36.7122 109.545 38.472 108.376 40.0323C108 40.5992 107.487 41.0574 106.889 41.3703C106.286 41.6833 105.615 41.8375 104.935 41.8194C104.355 41.7922 103.806 41.5381 103.403 41.1163C103.004 40.6945 102.782 40.1321 102.782 39.547C102.623 37.769 102.85 35.9729 103.448 34.2901L103.453 34.2856ZM144.651 36.7621C145.046 35.5057 145.49 34.1359 145.975 32.6482C146.46 31.1605 146.786 30.1446 146.959 29.5957C147.666 27.3642 147.63 25.5454 146.85 24.1349C146.478 23.4545 145.921 22.8921 145.241 22.5156C144.561 22.1391 143.79 21.9713 143.015 22.0212C141.387 22.0893 139.801 22.5383 138.382 23.3275C136.514 24.3299 134.877 25.7132 133.581 27.3914C133.726 26.7111 133.721 26.008 133.563 25.3277C133.404 24.6519 133.1 24.0169 132.67 23.4681C132.198 22.9692 131.627 22.5791 130.988 22.3296C130.349 22.0802 129.664 21.9759 128.98 22.0212C127.642 22.053 126.328 22.4068 125.158 23.0554C124.07 23.5452 123.127 24.3117 122.434 25.2823C122.37 25.3504 122.334 25.4366 122.329 25.5273C122.325 25.618 122.352 25.7087 122.406 25.7858C122.561 25.94 122.737 26.0716 122.928 26.1759C123.209 26.38 123.422 26.6703 123.526 27.0014C123.712 27.5955 123.775 28.2169 123.717 28.8383C123.608 30.004 123.354 31.1515 122.959 32.2582C122.275 34.3672 120.706 38.912 118.254 45.8924C118.245 45.9151 118.24 45.9422 118.245 45.9694C118.245 45.9967 118.254 46.0194 118.267 46.042C118.281 46.0647 118.299 46.0828 118.322 46.0965C118.345 46.1101 118.367 46.1192 118.394 46.1237H127.57C127.642 46.1146 127.71 46.0828 127.76 46.0329C127.81 45.9831 127.846 45.9196 127.855 45.847L131.754 33.5463C132.162 32.2627 132.828 31.0744 133.712 30.0584C134.805 28.8338 135.78 28.2985 136.641 28.4528C137.529 28.607 137.724 29.4914 137.226 31.1152L134.401 40.0187C133.717 42.1277 133.826 43.8196 134.723 45.085C135.208 45.7291 135.843 46.2416 136.577 46.5727C137.312 46.9038 138.114 47.0489 138.921 46.9854C140.258 46.9537 141.573 46.5999 142.743 45.9513C143.826 45.4615 144.774 44.7131 145.503 43.7697C145.567 43.6971 145.603 43.6064 145.603 43.5112C145.603 43.4159 145.571 43.3206 145.513 43.2481C145.336 43.0757 145.132 42.9351 144.905 42.8353C144.583 42.6494 144.334 42.3591 144.193 42.0098C143.971 41.4247 143.881 40.7988 143.93 40.1729C144.021 39.0073 144.266 37.8552 144.66 36.753L144.651 36.7621Z" fill="#707070"/>
</svg>
