<svg width="297" height="60" viewBox="0 0 297 60" fill="none" xmlns="http://www.w3.org/2000/svg">
<g clip-path="url(#clip0_7716_79876)">
<path d="M15.7749 42.4386C13.4863 43.6012 10.6528 44.0008 8.47316 44.0008C2.86065 44.0008 -0.0273438 40.7855 -0.0273438 35.6991C-0.0273438 29.7225 4.29556 23.5098 11.3975 23.5098C15.3571 23.5098 18.2088 25.7078 18.2088 29.3592C18.2088 34.3729 13.3591 36.1714 5.51252 35.9715C5.51252 36.5347 5.71232 37.4066 6.11191 37.9698C6.87478 38.9689 8.20071 39.4957 9.87175 39.4957C11.9969 39.4957 13.7951 39.0234 15.3571 38.2604L15.7567 42.4204L15.7749 42.4386ZM12.8142 29.3773C12.8142 28.4145 12.015 27.7424 10.6891 27.7424C8.00091 27.7424 6.47518 29.9405 6.07558 31.7934C10.562 31.8297 12.8142 31.1939 12.8142 29.4318V29.3955V29.3773Z" fill="#818181"/>
<path d="M46.5974 27.3605C46.5974 32.2834 44.8719 37.061 41.7841 40.1129C39.2594 42.5653 35.8446 44.0004 31.8123 44.0004C24.8012 44.0004 20.8779 39.023 20.8779 32.7376C20.8779 27.851 22.6761 23.0007 25.8547 19.9488C28.3794 17.5509 31.8305 16.0977 35.7175 16.0977C42.8557 16.0977 46.6156 20.9116 46.6156 27.3605H46.5974ZM30.3593 22.9462C28.1978 25.1079 26.999 29.2861 26.999 32.5196C26.999 36.3344 28.7246 39.1683 32.6479 39.1683C34.3371 39.1683 35.9355 38.4053 37.1706 37.2064C39.2957 35.081 40.4582 30.6303 40.4582 27.5058C40.4582 24.1451 39.2594 20.8934 35.0091 20.8934C33.2109 20.8934 31.5944 21.6927 30.3593 22.9462Z" fill="#818181"/>
<path d="M52.992 16.9874C54.9173 16.6241 57.4057 16.3516 60.0939 16.3516C62.7821 16.3516 64.9799 16.7149 66.7962 17.7867C68.5944 18.7131 69.9203 20.4389 69.9203 22.7096C69.9203 26.1248 67.3956 28.2865 64.4713 29.1222V29.2493C67.0687 30.0486 68.7216 32.174 68.7216 35.135C68.7216 38.0961 67.1595 40.1488 65.0344 41.5476C62.7458 43.0735 59.3492 43.7457 54.8628 43.7457C51.8114 43.7457 49.3774 43.5095 48.0515 43.2189L52.992 16.9874ZM54.4269 39.1134C55.1171 39.186 55.7892 39.2405 56.6247 39.2405C59.7488 39.2405 62.6005 38.0053 62.6005 34.9897C62.6005 32.3012 60.3482 31.5019 57.6782 31.5019H55.88L54.4451 39.1134H54.4269ZM56.7518 27.2874H58.6772C61.8376 27.2874 63.9991 25.925 63.9991 23.6361C63.9991 21.6742 62.4007 20.8385 60.1847 20.8385C59.1857 20.8385 58.3865 20.9112 57.9324 21.0384L56.7337 27.2874H56.7518Z" fill="#818181"/>
<path d="M93.8775 43.5458L95.5122 32.4102C95.9481 29.4855 96.5475 25.7615 97.3104 21.874H97.1832C95.6938 25.3618 94.0228 29.0858 92.5334 32.0468L87.0117 43.1098H82.5253L81.5626 32.174C81.3265 29.213 81.1267 25.4708 80.9632 21.874H80.8906C80.1277 25.4345 79.3285 29.5218 78.6383 32.4102L75.9501 43.5458H70.6646L77.4395 16.5332H85.1772L86.0127 26.7969C86.1762 29.322 86.4486 32.4102 86.5031 35.4075H86.6666C87.7019 32.4102 89.155 29.2311 90.3174 26.7969L95.3124 16.5332H103.123L99.4718 43.5458H93.8593H93.8775Z" fill="#818181"/>
<path d="M121.776 32.0832H112.149L110.914 38.6229H121.703L120.777 43.5458H104.23L109.352 16.5332H125.336L124.373 21.4561H114.202L113.076 27.2329H122.702L121.776 32.0832Z" fill="#818181"/>
<path d="M124.937 43.5464L130.077 16.5338H136.852L140.412 26.8338C141.502 30.2853 142.21 33.0829 142.864 36.0439H142.991C143.118 33.2827 143.464 30.3035 144.226 26.3433L146.061 16.5156H151.437L146.352 43.5282H140.376L136.616 32.7377C135.417 29.0864 134.691 26.6522 133.964 23.3097L133.837 23.346C133.51 25.9982 132.874 29.7949 132.075 34.0457L130.313 43.5101H124.937V43.5464Z" fill="#818181"/>
<path d="M163.027 30.9756L162.264 35.0629H151.892L152.655 30.9756H163.027Z" fill="#818181"/>
<path d="M192.162 27.3605C192.162 32.2834 190.436 37.061 187.348 40.1129C184.824 42.5653 181.409 44.0004 177.377 44.0004C170.365 44.0004 166.442 39.023 166.442 32.7376C166.442 27.851 168.24 23.0007 171.419 19.9488C173.944 17.5509 177.395 16.0977 181.282 16.0977C188.42 16.0977 192.18 20.9116 192.18 27.3605H192.162ZM175.923 22.9462C173.762 25.1079 172.563 29.2861 172.563 32.5196C172.563 36.3344 174.289 39.1683 178.212 39.1683C179.901 39.1683 181.5 38.4053 182.735 37.2064C184.86 35.081 186.022 30.6303 186.022 27.5058C186.022 24.1451 184.824 20.8934 180.573 20.8934C178.775 20.8934 177.159 21.6927 175.923 22.9462Z" fill="#818181"/>
<path d="M198.537 16.9874C200.462 16.6241 202.951 16.3516 205.639 16.3516C208.327 16.3516 210.525 16.7149 212.341 17.7867C214.139 18.7131 215.465 20.4389 215.465 22.7096C215.465 26.1248 212.941 28.2865 210.016 29.1222V29.2493C212.614 30.0486 214.266 32.174 214.266 35.135C214.266 38.0961 212.704 40.1488 210.579 41.5476C208.291 43.0735 204.894 43.7457 200.408 43.7457C197.356 43.7457 194.922 43.5095 193.596 43.2189L198.537 16.9874ZM199.972 39.1134C200.662 39.186 201.334 39.2405 202.17 39.2405C205.294 39.2405 208.145 38.0053 208.145 34.9897C208.145 32.3012 205.893 31.5019 203.223 31.5019H201.425L199.99 39.1134H199.972ZM202.297 27.2874H204.222C207.383 27.2874 209.544 25.925 209.544 23.6361C209.544 21.6742 207.946 20.8385 205.73 20.8385C204.731 20.8385 203.931 20.9112 203.477 21.0384L202.279 27.2874H202.297Z" fill="#818181"/>
<path d="M239.422 43.5458L241.057 32.4102C241.493 29.4855 242.092 25.7615 242.855 21.874H242.728C241.238 25.3618 239.567 29.0858 238.078 32.0468L232.556 43.1098H228.07L227.107 32.174C226.871 29.213 226.671 25.4708 226.508 21.874H226.435C225.672 25.4345 224.873 29.5218 224.183 32.4102L221.495 43.5458H216.209L223.002 16.5332H230.74L231.576 26.7969C231.739 29.322 232.011 32.4102 232.066 35.4075H232.229C233.265 32.4102 234.718 29.2311 235.88 26.7969L240.893 16.5332H248.704L245.053 43.5458H239.44H239.422Z" fill="#818181"/>
<path d="M267.34 32.0832H257.713L256.478 38.6229H267.267L266.341 43.5458H249.794L254.916 16.5332H270.9L269.937 21.4561H259.766L258.64 27.2329H268.266L267.34 32.0832Z" fill="#818181"/>
<path d="M270.499 43.5464L275.639 16.5338H282.414L285.974 26.8338C287.064 30.2853 287.772 33.0829 288.426 36.0439H288.553C288.68 33.2827 289.025 30.3035 289.788 26.3433L291.623 16.5156H296.999L291.913 43.5282H285.937L282.178 32.7377C280.979 29.0864 280.252 26.6522 279.526 23.3097L279.399 23.346C279.072 25.9982 278.436 29.7949 277.637 34.0457L275.875 43.5101H270.499V43.5464Z" fill="#818181"/>
</g>
<defs>
<clipPath id="clip0_7716_79876">
<rect width="297" height="60" fill="white"/>
</clipPath>
</defs>
</svg>
