<svg width="72" height="68" viewBox="0 0 72 68" fill="none" xmlns="http://www.w3.org/2000/svg">
<g id="Group">
<path id="Vector" d="M0.333252 50.6177C0.932471 48.9143 1.6205 47.2387 2.10876 45.5077C2.79675 43.0553 4.01739 42.6336 6.1424 43.477C7.75696 44.115 9.4436 44.5866 11.0859 45.1637C12.1734 45.5465 12.7671 46.5397 12.5673 47.5439C12.3177 48.7867 11.1081 49.5136 9.85975 49.1585C9.46582 49.0475 9.07189 48.9088 8.68351 48.7812L8.53925 48.9199C9.39924 50.1627 10.1982 51.4555 11.1248 52.6484C15.2527 57.9248 20.3961 61.7976 26.821 63.8782C28.1415 64.3054 28.7574 65.3873 28.3967 66.5525C28.025 67.7509 26.8654 68.2835 25.5282 67.8508C18.8092 65.698 13.272 61.7809 8.78341 56.3879C7.34639 54.6624 6.1091 52.7704 4.74421 50.9006C4.67208 51.117 4.58333 51.3833 4.48901 51.6497C4.12837 52.6595 3.44035 53.2476 2.52488 53.2642C1.53173 53.2809 0.854857 52.7982 0.466474 51.8882C0.444281 51.8328 0.383192 51.7884 0.338806 51.7384C0.338806 51.3667 0.338806 50.995 0.338806 50.6232L0.333252 50.6177Z" fill="#4D7BF1"/>
<path id="Vector_2" d="M4.71069 23.6531C4.74398 12.0516 14.2705 2.55286 25.7833 2.64718C37.407 2.7415 46.7725 12.1404 46.7448 23.6864C46.7171 35.2991 37.1962 44.7978 25.6778 44.6868C14.043 44.5759 4.6774 35.1881 4.70514 23.6531H4.71069ZM27.8584 13.1835C27.8417 12.9227 27.8361 12.7618 27.8195 12.6009C27.6919 11.4357 26.793 10.6423 25.6501 10.6756C24.5293 10.7089 23.6749 11.5855 23.6416 12.7618C23.6305 13.1779 23.6694 13.5164 23.1478 13.7549C20.4125 15.0033 18.9865 17.8052 19.558 20.6792C20.1406 23.6088 22.5542 25.6339 25.6335 25.7671C26.9429 25.8225 27.8417 26.6936 27.8306 27.8976C27.8195 29.1071 26.904 29.9671 25.6001 29.9782C24.2741 29.9893 22.9481 29.9616 21.622 29.9893C20.3348 30.0115 19.4249 30.927 19.4415 32.1254C19.4582 33.3072 20.3625 34.1506 21.6331 34.1672C22.2767 34.1783 22.9259 34.1672 23.5861 34.1672C23.6138 34.3226 23.6305 34.4113 23.6416 34.4946C23.7414 35.8539 24.5627 36.6917 25.7777 36.6751C26.9817 36.6584 27.8361 35.7485 27.8195 34.4169C27.8139 33.9286 28.0137 33.7511 28.4187 33.5625C31.0875 32.3085 32.4801 29.4678 31.8975 26.566C31.3316 23.7697 28.857 21.7001 25.9441 21.5892C24.5293 21.5337 23.6194 20.6737 23.6471 19.4198C23.6693 18.1936 24.5959 17.378 25.9775 17.3724C27.3035 17.3669 28.6295 17.4002 29.9556 17.3558C31.1984 17.3114 32.075 16.3571 32.0362 15.1864C31.9974 14.0379 31.1096 13.2056 29.8779 13.1835C29.2287 13.1724 28.5796 13.1835 27.8749 13.1835H27.8584Z" fill="#4D7BF1"/>
<path id="Vector_3" d="M25.9182 48.8648C29.114 48.8315 32.1489 48.2378 35.1173 47.0671C35.206 47.3002 35.2837 47.4833 35.3448 47.6719C36.7263 51.8775 39.567 54.6073 43.8559 55.5949C48.1336 56.577 51.8399 55.3175 54.9081 52.1771C55.402 51.6722 55.7182 51.1008 55.6572 50.3739C55.585 49.5028 55.1467 48.8759 54.3367 48.5707C53.4378 48.2323 52.6278 48.4598 51.9953 49.1644C50.7136 50.5903 49.1323 51.417 47.2348 51.6778C44.0001 52.1272 40.4714 49.9301 39.456 46.8008C39.4283 46.7176 39.4283 46.6233 39.4005 46.4346H40.1662C42.4688 46.4346 44.7714 46.4346 47.0739 46.4346C48.5942 46.4346 49.5873 45.5913 49.5651 44.3207C49.5485 43.0668 48.5775 42.2512 47.1016 42.2512C45.7534 42.2512 44.4051 42.2512 43.0569 42.2456C43.018 42.2456 42.9848 42.2068 42.8461 42.1347C43.118 41.885 43.4009 41.6797 43.6117 41.4189C44.6492 40.1706 45.7201 38.9388 46.6799 37.6294C47.0683 37.0968 47.4179 36.9969 48.006 37.1412C49.5429 37.5185 50.8468 38.2675 51.9065 39.4382C52.4391 40.0263 53.0771 40.3592 53.8817 40.2371C54.6751 40.1151 55.2577 39.6768 55.5296 38.9055C55.807 38.1232 55.6849 37.3908 55.13 36.7583C53.7041 35.1271 51.9564 33.9842 49.8924 33.3184C49.6761 33.2463 49.4486 33.1852 49.1268 33.0909C50.2697 30.1225 50.9133 27.0821 50.9244 23.8252C54.7861 24.6907 58.0762 26.444 60.8615 29.1183C64.7065 32.8079 66.8925 37.3187 67.3363 42.6396C68.2851 53.9637 59.9904 64.045 48.6219 65.2379C37.0924 66.4474 27.9211 58.3857 25.9126 48.8703L25.9182 48.8648Z" fill="#4D7BF1"/>
<path id="Vector_4" d="M67.3357 17.2447C67.4911 16.8175 67.6076 16.4735 67.7408 16.135C68.1791 15.042 69.2721 14.4983 70.3318 14.8478C71.4415 15.2085 72.0463 16.3237 71.6856 17.4611C71.0365 19.4973 70.3596 21.5225 69.6549 23.5365C69.2444 24.7072 68.1513 25.2232 66.9473 24.8293C64.961 24.1857 62.9803 23.5143 61.0051 22.8319C59.8511 22.4324 59.2906 21.3172 59.6402 20.2186C60.0008 19.0923 61.1327 18.5208 62.3201 18.8704C62.714 18.9869 63.1024 19.1145 63.6239 19.2754C61.915 16.2904 59.901 13.7493 57.5319 11.4911C53.9976 8.12326 49.9528 5.59877 45.2756 4.11737C43.9772 3.70679 43.3725 2.58048 43.7498 1.40979C44.1215 0.26683 45.2923 -0.276906 46.5906 0.139218C52.2221 1.93133 57.0491 5.02174 61.1937 9.20518C63.4131 11.4467 65.3328 13.9213 66.9418 16.6344C67.0472 16.8064 67.1637 16.9728 67.3357 17.2336V17.2447Z" fill="#4D7BF1"/>
</g>
</svg>
