<svg width="176" height="60" viewBox="0 0 176 60" fill="none" xmlns="http://www.w3.org/2000/svg">
<path d="M0.00241203 15.9923C-0.0151781 15.7501 0.0639774 15.508 0.222288 15.3221C0.305841 15.2356 0.406981 15.1665 0.521317 15.1232C0.635652 15.08 0.754385 15.0584 0.877515 15.067H20.7016C20.8291 15.0584 20.9566 15.08 21.0754 15.1232C21.1941 15.1665 21.2996 15.2356 21.392 15.3264C21.5547 15.5253 21.6382 15.7761 21.625 16.0312V21.012C21.6207 21.2498 21.5371 21.4832 21.392 21.6735C21.3084 21.7772 21.2073 21.8594 21.0886 21.9156C20.9698 21.9718 20.8379 22.0021 20.706 21.9977H7.74206V27.0002H17.742C17.9663 26.9916 18.1862 27.0521 18.3753 27.1775C18.4632 27.251 18.5292 27.3461 18.5732 27.4499C18.6171 27.5536 18.6303 27.6703 18.6171 27.7828V32.0718C18.6171 32.2318 18.5688 32.3874 18.4808 32.5172C18.3929 32.6512 18.2653 32.7549 18.1158 32.8155C18.0059 32.863 17.8828 32.8846 17.764 32.876H7.76404V38.0384H21.2073C21.3304 38.0211 21.4579 38.0341 21.5767 38.073C21.6954 38.1119 21.8009 38.1811 21.8889 38.2719C21.9768 38.3627 22.0428 38.4708 22.0824 38.5875C22.122 38.7086 22.1308 38.834 22.1132 38.955V44.0137C22.1132 44.0828 22.0956 44.152 22.0692 44.2169C22.0428 44.2817 21.9988 44.3379 21.9505 44.3855C21.9505 44.753 21.6294 44.9433 21.1413 44.9433H0.899511C0.666442 44.9562 0.433373 44.8827 0.253074 44.7314C0.169521 44.6449 0.103562 44.5455 0.0639838 44.433C0.0244061 44.3206 0.00681332 44.1996 0.0200059 44.0829V15.9923H0.00241203ZM24.1008 44.4633L24.4219 43.8494C24.5318 43.6461 24.6681 43.4343 24.8089 43.2225L33.8106 29.6765L29.2679 22.7803L24.7121 15.8928C24.6417 15.7977 24.5802 15.6939 24.523 15.5901C24.479 15.4907 24.4483 15.3869 24.4351 15.2745C24.4351 15.1621 24.5362 15.1189 24.6681 15.1189C24.8045 15.1275 24.9364 15.0929 25.0551 15.0281H32.012C32.2583 15.0281 32.5001 15.1016 32.7068 15.2399C32.9135 15.3783 33.0762 15.5729 33.1773 15.802L38.0762 23.2127L43.0322 15.8107C43.1289 15.5902 43.2829 15.3999 43.4764 15.2659C43.6698 15.1318 43.9029 15.0497 44.1404 15.041H51.2072C51.3215 15.0497 51.4315 15.0713 51.5414 15.1059C51.581 15.1189 51.6162 15.1492 51.6382 15.1794C51.6601 15.214 51.6733 15.2529 51.6733 15.2961C51.6645 15.4864 51.5854 15.6723 51.4535 15.8107L42.311 29.6722L51.6997 43.7802C51.8185 43.9401 51.9196 44.1131 51.9987 44.2947C52.0691 44.4158 52.1043 44.5498 52.0999 44.6882C52.0999 44.8914 51.9768 44.9908 51.7349 44.9908H44.5801C44.3559 44.9908 44.136 44.9216 43.9601 44.7876C43.7666 44.6449 43.6127 44.459 43.5159 44.2385L38.0806 36.123L32.7024 44.2385C32.6057 44.4547 32.4518 44.6449 32.2583 44.7876C32.078 44.9216 31.8581 44.9908 31.6382 44.9908H24.4614C24.3603 44.9908 24.2636 44.9606 24.1844 44.9C24.1448 44.8698 24.114 44.8308 24.0921 44.7876C24.0701 44.7444 24.0613 44.6925 24.0613 44.6449C24.0613 44.5844 24.0745 44.5195 24.1052 44.4677L24.1008 44.4633ZM56.1544 15.949C56.1456 15.7198 56.2248 15.495 56.3743 15.3221C56.4578 15.2356 56.559 15.1665 56.6733 15.1232C56.7877 15.08 56.9064 15.0584 57.0295 15.067H63.573C63.7753 15.067 63.9732 15.1189 64.1491 15.214C64.3646 15.3221 64.5493 15.4864 64.6724 15.6939C66.3611 18.4481 68.0409 21.159 69.7032 23.831L74.7691 31.9724V15.828C74.8175 15.6075 74.9494 15.4129 75.1341 15.2789C75.288 15.1448 75.4859 15.0757 75.6882 15.0757H81.3874C81.6425 15.0713 81.8887 15.1535 82.0866 15.3091C82.1834 15.3869 82.2537 15.4864 82.3021 15.6031C82.3505 15.7155 82.3725 15.8366 82.3637 15.962V44.2082C82.3725 44.3206 82.3593 44.433 82.3153 44.5325C82.2713 44.6362 82.2054 44.7271 82.1174 44.8006C81.9283 44.9346 81.6952 45.0038 81.4622 44.9908H75.0418C74.8659 44.9908 74.6988 44.9303 74.5756 44.8135C74.4217 44.6665 74.2854 44.5065 74.1667 44.3336L68.8984 35.5696C67.1438 32.6468 65.3848 29.7241 63.6214 26.8013V44.1088C63.639 44.3466 63.5686 44.5801 63.4191 44.7703C63.3224 44.8524 63.208 44.9173 63.0805 44.9562C62.9574 44.9951 62.8255 45.0081 62.6979 44.9951H57.0207C56.8976 45.0081 56.7701 44.9951 56.6557 44.9476C56.5414 44.9043 56.4358 44.8308 56.3567 44.7357C56.2116 44.5671 56.1368 44.3509 56.1456 44.1304V15.949H56.1544ZM148.67 30.0527C148.67 31.4232 148.489 32.7895 148.124 34.1169C147.772 35.3621 147.254 36.5554 146.581 37.6666C145.257 39.8717 143.371 41.7048 141.115 42.9846C138.762 44.286 136.106 44.9649 133.406 44.9562H123.551C123.327 44.9562 123.102 44.9044 122.904 44.8006C122.715 44.6882 122.627 44.4633 122.627 44.1044V15.9923C122.627 15.8582 122.649 15.7285 122.698 15.6031C122.746 15.4821 122.821 15.3697 122.918 15.2745C123.001 15.1794 123.111 15.1059 123.23 15.0584C123.349 15.0108 123.476 14.9935 123.608 15.0021H133.463C134.831 15.0021 136.194 15.1751 137.517 15.5296C138.788 15.8669 140.011 16.3684 141.15 17.017C142.271 17.6612 143.309 18.4394 144.237 19.3344C145.165 20.2337 145.969 21.2498 146.625 22.3566C147.293 23.4894 147.816 24.7 148.168 25.9625C148.524 27.2942 148.692 28.6691 148.67 30.0483V30.0527ZM130.371 22.2701V37.7747H132.948L133.828 37.7098C134.8 37.632 135.75 37.3812 136.629 36.9705C137.46 36.564 138.212 36.0193 138.85 35.3578C139.505 34.6789 140.024 33.8791 140.371 33.0057C140.745 32.0718 140.934 31.0687 140.926 30.0613C140.939 29.0236 140.732 27.9946 140.332 27.0391C139.927 26.0793 139.329 25.2145 138.573 24.4882C137.847 23.792 136.99 23.2473 136.049 22.8841C135.068 22.4907 134.017 22.2918 132.962 22.3004L130.371 22.2658V22.2701ZM153.889 15.9879C153.872 15.7458 153.951 15.5037 154.114 15.3178C154.197 15.2313 154.298 15.1621 154.413 15.1189C154.527 15.0757 154.65 15.054 154.769 15.0627H174.602C174.725 15.054 174.852 15.0713 174.971 15.1189C175.09 15.1621 175.195 15.2313 175.279 15.3221C175.45 15.5166 175.538 15.7717 175.525 16.0268V21.0077C175.525 21.2498 175.437 21.4833 175.279 21.6692C175.195 21.773 175.085 21.8551 174.967 21.907C174.844 21.9588 174.712 21.9805 174.58 21.9718H161.625V26.9742H171.625C171.849 26.9656 172.073 27.0261 172.258 27.1515C172.346 27.225 172.412 27.3201 172.456 27.4239C172.5 27.5277 172.513 27.6444 172.504 27.7568V32.0675C172.504 32.2664 172.425 32.4609 172.28 32.6036C172.205 32.6944 172.108 32.7679 171.994 32.8155C171.884 32.863 171.765 32.8803 171.642 32.876H161.642V38.0384H175.085C175.209 38.0211 175.336 38.0341 175.455 38.073C175.574 38.1119 175.679 38.1811 175.767 38.2675C175.855 38.3583 175.921 38.4664 175.961 38.5875C176 38.7086 176.009 38.834 175.991 38.955V44.0137C175.991 44.152 175.925 44.286 175.824 44.3855C175.824 44.753 175.503 44.9476 175.002 44.9476H154.769C154.655 44.9562 154.536 44.9389 154.426 44.9044C154.316 44.8698 154.215 44.8092 154.127 44.7357C154.043 44.6493 153.977 44.5498 153.938 44.4374C153.898 44.325 153.881 44.2039 153.894 44.0872V15.9965L153.889 15.9879Z" fill="#8A8A8A"/>
<path fill-rule="evenodd" clip-rule="evenodd" d="M112.349 17.9204L101.793 33.4698L97.6282 30.4601C96.9406 29.9636 96.111 30.3803 96.2615 31.1427L98.4836 42.2861C98.591 42.8269 99.1626 43.2391 99.6956 43.1593L110.613 41.5016C111.356 41.3863 111.451 40.4422 110.767 39.9457L106.598 36.9361L116.17 22.8361C118.856 28.1241 118.654 34.7375 115.104 39.9635C110.037 47.4279 100.061 49.2408 92.823 44.0148C85.5851 38.7889 83.8272 28.5009 88.8946 21.0365C93.962 13.5721 103.938 11.7592 111.176 16.9852C111.584 17.2822 111.975 17.5924 112.349 17.916V17.9204Z" fill="#8A8A8A"/>
<path fill-rule="evenodd" clip-rule="evenodd" d="M106.708 17.9276C106.598 17.3602 106.011 16.923 105.463 17.0114L94.2508 18.7508C93.4827 18.8717 93.39 19.8623 94.0919 20.3832L98.3694 23.5411L88 39.1399C89.0859 41.0049 90.4853 42.6559 92.1231 44L103.3 27.1781L107.578 30.3359C108.284 30.8568 109.136 30.4197 108.982 29.6198L106.699 17.9276H106.708Z" fill="#E0E0E0"/>
</svg>
