<svg width="203" height="60" viewBox="0 0 203 60" fill="none" xmlns="http://www.w3.org/2000/svg">
<path d="M82.8933 29.5931H92.1383V41.678C90.9139 42.0844 89.6483 42.4034 88.3261 42.6401C87.009 42.8768 85.5171 43.0002 83.845 43.0002C81.5299 43.0002 79.5595 42.5424 77.9441 41.6266C76.3286 40.7109 75.099 39.3629 74.2604 37.5777C73.4219 35.7925 73 33.5956 73 30.9924C73 28.5487 73.4682 26.4343 74.4096 24.6491C75.3511 22.8639 76.7248 21.4799 78.5408 20.5024C80.3518 19.5249 82.564 19.0361 85.1827 19.0361C86.4174 19.0361 87.6315 19.1699 88.8354 19.4374C90.0341 19.705 91.1248 20.0497 92.1023 20.4715L90.4611 24.4278C89.7511 24.0676 88.9383 23.7641 88.0225 23.5172C87.1068 23.2753 86.1499 23.1519 85.1518 23.1519C83.7164 23.1519 82.4714 23.4812 81.4116 24.1398C80.3518 24.7983 79.5338 25.7191 78.9576 26.9076C78.3762 28.0908 78.0881 29.4851 78.0881 31.0903C78.0881 32.608 78.2939 33.9558 78.7106 35.1339C79.1273 36.3069 79.7807 37.2279 80.6707 37.8916C81.5608 38.5552 82.7286 38.8896 84.164 38.8896C84.8637 38.8896 85.4605 38.8536 85.9441 38.7867C86.4277 38.7198 86.8804 38.6477 87.3074 38.5706V33.7088H82.8933V29.5931Z" fill="#8A8A8A"/>
<path d="M97.6892 42.6807V19.3701H102.633V38.5958H112.089V42.6755H97.6944L97.6892 42.6807Z" fill="#8A8A8A"/>
<path d="M130.404 42.6806L128.716 37.1347H120.217L118.53 42.6806H113.205L121.431 19.2773H127.471L135.729 42.6806H130.404ZM127.533 32.9881L125.846 27.5655C125.738 27.2054 125.599 26.7372 125.424 26.1713C125.249 25.6003 125.074 25.024 124.899 24.4323C124.724 23.8407 124.585 23.3314 124.477 22.8941C124.369 23.3314 124.225 23.8717 124.04 24.5147C123.855 25.1578 123.675 25.7648 123.505 26.341C123.335 26.9172 123.212 27.3237 123.14 27.5707L121.467 32.9932H127.543L127.533 32.9881Z" fill="#8A8A8A"/>
<path d="M153.854 42.6804H136.506V39.4753L147.68 23.4547H136.804V19.375H153.545V22.5647L142.386 38.6058H153.849V42.6856L153.854 42.6804Z" fill="#8A8A8A"/>
<path d="M178.728 30.9922C178.728 32.7877 178.507 34.4237 178.06 35.8951C177.612 37.3665 176.938 38.6373 176.027 39.6971C175.117 40.7621 173.97 41.575 172.575 42.146C171.181 42.7119 169.535 43 167.631 43C165.728 43 164.081 42.7171 162.687 42.146C161.293 41.575 160.146 40.7621 159.235 39.6971C158.325 38.6322 157.651 37.3614 157.203 35.8848C156.755 34.4083 156.534 32.7672 156.534 30.9563C156.534 28.5434 156.93 26.4392 157.723 24.6489C158.515 22.8585 159.734 21.4694 161.381 20.4816C163.027 19.4938 165.121 19 167.662 19C170.204 19 172.272 19.4938 173.903 20.4816C175.534 21.4694 176.748 22.8637 177.54 24.6592C178.332 26.4547 178.728 28.5639 178.728 30.9871V30.9922ZM161.715 30.9922C161.715 32.6179 161.921 34.0174 162.327 35.1955C162.739 36.3685 163.377 37.274 164.246 37.9068C165.116 38.5396 166.242 38.8533 167.626 38.8533C169.01 38.8533 170.168 38.5396 171.037 37.9068C171.907 37.274 172.545 36.3685 172.941 35.1955C173.337 34.0225 173.537 32.6231 173.537 30.9922C173.537 28.5485 173.08 26.6244 172.164 25.2199C171.248 23.8154 169.746 23.1158 167.652 23.1158C166.258 23.1158 165.126 23.4347 164.246 24.0623C163.372 24.6951 162.728 25.6006 162.317 26.7736C161.905 27.9466 161.705 29.3562 161.705 30.9922H161.715Z" fill="#8A8A8A"/>
<path d="M202.308 42.6809H196.695L190.588 32.8598L188.5 34.3568V42.6809H183.556V19.3704H188.5V30.0353C188.829 29.5775 189.153 29.1195 189.472 28.6616C189.791 28.2037 190.115 27.7459 190.444 27.288L196.757 19.3652H202.241L194.113 29.6804L202.308 42.6758V42.6809Z" fill="#8A8A8A"/>
<path d="M39.8283 26.3857L42.8923 23.2879L42.1453 21.9922L38.7141 26.0523C39.0897 26.1535 39.4611 26.2633 39.8283 26.3815V26.3857Z" fill="#D1D1D1"/>
<path d="M35.6457 25.4022L39.5834 17.5606L38.562 15.7881L34.7046 25.2713C35.0211 25.3093 35.3334 25.3515 35.6457 25.4022Z" fill="#D1D1D1"/>
<path d="M37.6419 25.7863L41.3517 20.6246L40.5034 19.1602L36.6206 25.571C36.9625 25.6385 37.3043 25.7103 37.6419 25.7863Z" fill="#D1D1D1"/>
<path d="M44.7698 28.5463L45.6603 28.0864L44.985 26.9131L43.4741 27.8542C43.9173 28.0737 44.3477 28.3015 44.774 28.5463H44.7698Z" fill="#D1D1D1"/>
<path d="M42.2085 27.2716L44.2976 25.7312L43.6012 24.5283L40.9888 26.7863C41.3981 26.9382 41.8075 27.0985 42.2042 27.2716H42.2085Z" fill="#D1D1D1"/>
<path d="M28.3954 25.1994L26.2599 11.5127L24.8081 14.028L27.3994 25.3134C27.7286 25.2712 28.062 25.2289 28.3954 25.1994Z" fill="#D1D1D1"/>
<path d="M26.4669 25.457L23.5801 16.1553L22.5334 17.9701L25.5806 25.6216C25.876 25.5625 26.1672 25.5077 26.4626 25.4613L26.4669 25.457Z" fill="#D1D1D1"/>
<path d="M30.5929 25.0689L30.0865 4.88281L27.9932 8.50384L29.4576 25.1154C29.8375 25.0942 30.2131 25.0773 30.5929 25.0689Z" fill="#D1D1D1"/>
<path d="M31.2258 25.0644C31.4241 25.0644 31.6183 25.0644 31.8124 25.0728C31.8799 25.0728 31.9475 25.0728 32.0108 25.0771L34.4797 8.73148L32.4623 5.24121L32.3442 8.87924L31.1414 25.0686C31.1667 25.0686 31.1962 25.0686 31.2215 25.0686L31.2258 25.0644Z" fill="#D1D1D1"/>
<path d="M33.7922 25.1782L37.4006 13.7916L36.0628 11.4746L32.8975 25.1149C33.1971 25.1318 33.4925 25.1529 33.7922 25.1824V25.1782Z" fill="#D1D1D1"/>
<path d="M52.1719 39.3713L51.7034 38.5566C51.5304 38.7803 51.3531 38.9998 51.1716 39.2193L52.1761 39.3713H52.1719Z" fill="#D1D1D1"/>
<path d="M21.5282 38.54C21.4016 38.2994 21.2876 38.0547 21.1821 37.8057L18.8735 38.1517C19.2323 38.4091 19.5994 38.6581 19.9793 38.8945L21.5282 38.54Z" fill="#D1D1D1"/>
<path d="M47.2648 42.9287C46.8344 43.2537 46.3954 43.566 45.9438 43.8656L58.394 50.1456L56.3809 46.6554L47.2648 42.9329V42.9287Z" fill="#D1D1D1"/>
<path d="M22.3002 39.8015C22.1609 39.6074 22.0301 39.4089 21.9077 39.2021L21.0129 39.4808C21.3168 39.6411 21.6249 39.7972 21.9372 39.9449L22.3044 39.7973L22.3002 39.8015Z" fill="#D1D1D1"/>
<path d="M20.3553 34.3743H20.3426C19.8615 34.636 19.3973 34.9103 18.9668 35.1888L20.4608 35.2986C20.4102 34.9947 20.3764 34.6824 20.3553 34.3701V34.3743Z" fill="#D1D1D1"/>
<path d="M20.6385 36.168H17.6082C17.5238 36.2397 17.4394 36.3072 17.3592 36.3748C17.279 36.4465 17.1735 36.5352 17.0596 36.6323C17.1735 36.7378 17.279 36.8348 17.3592 36.9108C17.4816 37.0247 17.6082 37.1345 17.7348 37.2442L20.8875 37.012C20.7946 36.7335 20.7144 36.4507 20.6427 36.168H20.6385Z" fill="#D1D1D1"/>
<path d="M44.8595 37.0547L41.4283 36.8057C41.3355 37.1011 41.23 37.3923 41.1118 37.6793L43.6103 38.0591C43.8255 37.8987 44.0323 37.7342 44.2391 37.5654C44.3953 37.4387 44.6232 37.2488 44.8595 37.0463V37.0547Z" fill="#D1D1D1"/>
<path d="M41.6636 35.9104L44.4279 35.8935C44.39 35.8598 44.352 35.8345 44.3224 35.8091C44.0059 35.5517 43.5881 35.2351 43.0901 34.8975L41.824 35.003C41.7817 35.3068 41.7311 35.6108 41.6636 35.9104Z" fill="#D1D1D1"/>
<path d="M49.8977 40.6201C49.4799 41.0464 49.0409 41.4599 48.5894 41.8524L54.7427 43.815L53.3668 41.4304L49.9019 40.6201H49.8977Z" fill="#D1D1D1"/>
<path d="M40.7437 38.4766C40.6129 38.7298 40.4779 38.9746 40.3259 39.2194L41.3008 39.5317C41.6849 39.3249 42.0647 39.1054 42.4319 38.8733L40.7437 38.4766Z" fill="#D1D1D1"/>
<path d="M39.8664 39.9072C39.7482 40.0676 39.63 40.2237 39.5034 40.3799C39.7524 40.2786 39.9972 40.1688 40.2378 40.0591L39.8664 39.9072Z" fill="#D1D1D1"/>
<path d="M46.5893 29.6941L46.3403 29.2637L46.104 29.365C46.2686 29.4747 46.429 29.5801 46.5893 29.6941Z" fill="#D1D1D1"/>
<path d="M32.3491 48.1792L33.7798 56.9956H35.4975L33.324 48.1201C32.9991 48.1454 32.6741 48.1665 32.3491 48.1792Z" fill="#D1D1D1"/>
<path d="M24.2458 47.3223L19.6118 56.9955H21.6207L25.2967 47.5755C24.9464 47.4996 24.5919 47.4151 24.2458 47.3265V47.3223Z" fill="#D1D1D1"/>
<path d="M28.7831 48.1029L27.2427 56.9953H28.9435L29.8045 48.1703C29.4626 48.1535 29.125 48.1282 28.7831 48.0986V48.1029Z" fill="#D1D1D1"/>
<path d="M26.3977 47.791L23.5405 56.9957H25.4059L27.5583 47.9682C27.1701 47.9176 26.7818 47.8585 26.3977 47.791Z" fill="#D1D1D1"/>
<path d="M34.3196 48.0228L37.2865 56.9953H39.1688L35.3367 47.8877C34.9991 47.9383 34.6572 47.9848 34.3196 48.0228Z" fill="#D1D1D1"/>
<path d="M31.1589 48.2047C30.9099 48.2047 30.6609 48.2047 30.4119 48.1963L30.4456 56.9958H32.1042L31.3783 48.2047C31.3024 48.2047 31.2306 48.2047 31.1547 48.2047H31.1589Z" fill="#D1D1D1"/>
<path d="M60.9586 54.5898L44.6341 44.6719C44.212 44.9124 43.7858 45.1445 43.3511 45.364L59.4856 56.9996H62.3471L60.9586 54.5939V54.5898Z" fill="#D1D1D1"/>
<path d="M40.8745 46.4444L51.5141 56.9954H55.131L42.0984 45.9463C41.6975 46.1235 41.2881 46.2882 40.8745 46.4444Z" fill="#D1D1D1"/>
<path d="M38.5874 47.1921L45.7832 56.9961H48.4927L39.7438 46.8418C39.364 46.9684 38.9757 47.0824 38.5874 47.1921Z" fill="#D1D1D1"/>
<path d="M36.3884 47.7064L41.187 56.9955H43.3732L37.4688 47.4785C37.1101 47.5629 36.7514 47.6389 36.3884 47.7107V47.7064Z" fill="#D1D1D1"/>
<path d="M23.0432 26.2504L20.0932 22.1904L19.4221 23.351L22.1696 26.5248C22.4566 26.4277 22.7478 26.3348 23.0432 26.2462V26.2504Z" fill="#D1D1D1"/>
<path d="M16.2392 29.3942C16.4671 29.2465 16.6992 29.0988 16.9314 28.9553L16.3489 28.6768L15.7412 29.7276C15.9058 29.6137 16.0704 29.4997 16.2392 29.39V29.3942Z" fill="#D1D1D1"/>
<path d="M19.2369 27.7101L17.574 26.5537L16.9663 27.6046L18.1185 28.2757C18.4857 28.0773 18.857 27.8916 19.2369 27.7101Z" fill="#D1D1D1"/>
<path d="M21.2578 26.8538L18.7931 24.4482L18.1812 25.5076L20.2829 27.2422C20.6036 27.1071 20.9286 26.9762 21.2578 26.8538Z" fill="#D1D1D1"/>
<path d="M23.9376 25.9969C24.1993 25.9294 24.4652 25.8618 24.7269 25.8027L21.6249 19.5439L20.823 20.9366L23.8912 26.0137C23.8912 26.0137 23.925 26.0053 23.9376 26.0011V25.9969Z" fill="#D1D1D1"/>
<path d="M11.1553 39.3079L10.1255 39.4599L9.00708 41.3929L12.3961 40.6205C11.9698 40.1985 11.5562 39.7595 11.1553 39.3037V39.3079Z" fill="#D1D1D1"/>
<path d="M20.2883 45.959L9.50098 56.9954H12.5101L21.2759 46.3641C20.9425 46.2375 20.6175 46.1025 20.2925 45.959H20.2883Z" fill="#D1D1D1"/>
<path d="M22.25 46.7236L15.126 56.9961H17.4683L23.2376 47.0402C22.9084 46.9389 22.5792 46.8334 22.2542 46.7236H22.25Z" fill="#D1D1D1"/>
<path d="M13.641 41.7773L7.72818 43.6175L6.21729 46.2383L14.8691 42.7775C14.4513 42.4568 14.0419 42.1234 13.641 41.7773Z" fill="#D1D1D1"/>
<path d="M18.2321 44.9554L1.62061 56.992H5.94651L19.2787 45.4914C18.9242 45.3184 18.5739 45.1411 18.2321 44.9512V44.9554Z" fill="#D1D1D1"/>
<path d="M16.0588 43.6341L4.36411 49.4456L1.98804 53.5563L17.2025 44.3642C16.8143 44.1279 16.4302 43.8873 16.0588 43.6299V43.6341Z" fill="#D1D1D1"/>
<path d="M50.3448 36.5821C41.8153 48.4203 22.0386 49.6443 11.897 36.6497C14.9736 32.3238 19.5232 29.5088 24.5159 28.1963C28.7996 27.0694 33.4041 27.0482 37.6751 28.1329C42.7227 29.4117 47.3061 32.2309 50.3448 36.5821Z" fill="#373737"/>
<path d="M37.6751 28.1329C33.4041 27.0482 28.7954 27.0694 24.5159 28.1963C19.5232 29.5088 14.9736 32.3238 11.897 36.6497C22.0386 49.6443 41.8153 48.4203 50.3448 36.5821C47.3061 32.2309 42.7227 29.4117 37.6751 28.1329ZM45.6812 39.3254C37.3882 46.1582 23.6845 45.8163 15.8177 38.5868C13.7075 36.6454 13.7075 36.5146 15.8726 34.6534C17.8097 32.9863 20.7218 31.4966 23.1274 30.6145C22.7856 31.5388 22.5957 32.5348 22.5957 33.5773C22.5957 38.283 26.4109 42.0982 31.1166 42.0982C35.8224 42.0982 39.6376 38.283 39.6376 33.5773C39.6376 32.4631 39.4224 31.3995 39.0341 30.4246C41.9124 31.2729 44.3138 32.8893 45.7403 34.0414C48.8127 36.5188 48.7537 36.7847 45.677 39.3212L45.6812 39.3254Z" fill="#D1D1D1"/>
<path d="M35.5899 34.3832C35.5899 36.8437 33.5936 38.8399 31.1332 38.8399C28.6727 38.8399 26.6764 36.8437 26.6764 34.3832C26.6764 34.0962 26.7017 33.8176 26.7566 33.5433C25.8661 33.2521 25.2246 32.4122 25.2246 31.4247C25.2246 30.1923 26.2206 29.1963 27.453 29.1963C28.2675 29.1963 28.9807 29.6352 29.369 30.2894C29.9092 30.0531 30.5085 29.9264 31.1332 29.9264C33.5936 29.9264 35.5899 31.9227 35.5899 34.3832Z" fill="#373737"/>
</svg>
