<svg width="267" height="60" viewBox="0 0 267 60" fill="none" xmlns="http://www.w3.org/2000/svg">
<path d="M266.575 14.3844V42.8612C266.575 47.2677 262.727 50.8394 257.976 50.8394H49.6266C48.6852 50.7569 48.0737 50.3783 47.5156 49.3981C45.7977 46.365 43.8468 43.4678 42.061 40.4687C41.2894 39.1729 40.1732 38.513 38.7707 38.3529C37.9457 38.2558 37.441 37.8869 37.0625 37.2124C36.4607 36.1448 35.5921 35.15 35.3009 34.0047C34.9418 32.5877 36.5675 32.1169 37.2663 31.1997C42.5851 24.231 42.9151 15.2822 38.0719 7.91555C37.8147 7.52732 37.2226 7.13416 37.5332 6.62946C37.606 6.51785 37.6982 6.44507 37.805 6.40625H257.971C262.717 6.40625 266.57 9.97795 266.57 14.3844H266.575Z" fill="#838383"/>
<path d="M266.575 14.4322V42.909C266.575 47.3154 262.921 50.8872 258.413 50.8872H183.431V6.4541H258.413C262.921 6.4541 266.575 10.0258 266.575 14.4322Z" fill="#E4E4E4"/>
<path d="M59.9248 15.0439V20.3336H53.2618V25.7737H59.1047V31.0245H53.2618V37.11H60.1868V42.3998H47.8459V15.0439H59.9248Z" fill="white"/>
<path d="M61.9628 15.0439H67.8057L69.6789 22.8037H69.7468L71.62 15.0439H77.2639L72.9303 27.8652L77.526 42.3998H71.8481L69.5187 33.5723H69.4848L67.3495 42.3998H61.7056L66.2673 27.6372L61.9676 15.0439H61.9628Z" fill="white"/>
<path d="M79.0305 22.4981C79.0305 21.1781 79.2052 20.0182 79.5546 19.0185C79.904 18.0188 80.3893 17.1939 81.0153 16.5436C81.6414 15.8982 82.379 15.408 83.2331 15.078C84.0872 14.748 85.0141 14.583 86.0235 14.583C87.0329 14.583 87.9598 14.748 88.8139 15.078C89.6681 15.408 90.4057 15.8982 91.0317 16.5436C91.6577 17.189 92.143 18.014 92.4924 19.0185C92.8418 20.023 93.0165 20.9839 93.0165 22.3039L87.6007 22.9251V21.9642C87.6007 21.7362 87.591 21.474 87.5668 21.1829C87.5425 20.8917 87.4843 20.62 87.3872 20.3628C87.2901 20.1104 87.1348 19.892 86.9262 19.7173C86.7175 19.5377 86.4166 19.4505 86.0235 19.4505C85.6305 19.4505 85.3247 19.5377 85.1063 19.7173C84.888 19.8968 84.7278 20.1104 84.6307 20.3628C84.5337 20.6151 84.4755 20.8917 84.4657 21.1829C84.456 21.474 84.4512 21.7362 84.4512 21.9642V35.4699C84.4512 35.6494 84.456 35.8823 84.4657 36.1735C84.4755 36.4647 84.5337 36.7461 84.6307 37.0082C84.7278 37.2751 84.888 37.5032 85.1063 37.6924C85.3247 37.8817 85.6305 37.9788 86.0235 37.9788C86.4166 37.9788 86.7175 37.8817 86.9262 37.6924C87.1348 37.5032 87.2853 37.2751 87.3872 37.0082C87.4891 36.7413 87.5473 36.4647 87.5668 36.1735C87.5862 35.8823 87.6007 35.6494 87.6007 35.4699V34.3683L93.0165 34.936C93.0165 37.3964 92.4002 39.3327 91.1627 40.74C89.9253 42.1474 88.2122 42.8511 86.0235 42.8511C83.8349 42.8511 82.1509 42.1474 80.9037 40.74C79.6565 39.3327 79.0305 37.3964 79.0305 34.936V22.4932V22.4981Z" fill="white"/>
<path d="M100.859 15.0439V25.2787H104.008V15.0439H109.424V42.3998H104.008V30.7576H100.859V42.3998H95.4431V15.0439H100.859Z" fill="white"/>
<path d="M122.425 15.0439L126.856 42.3998H121.144L120.654 36.8092H116.844L116.286 42.3998H110.836L115.204 15.0439H122.425ZM120.13 32.0582L118.97 21.707H118.664L117.407 32.0582H120.13Z" fill="white"/>
<path d="M133.285 15.0439L138.051 28.6563H138.114V15.0439H143.219V42.3998H138.827L133.911 28.2292H133.848V42.3998H128.743V15.0439H133.285Z" fill="white"/>
<path d="M146.321 22.4981C146.321 21.1781 146.496 20.0182 146.845 19.0185C147.194 18.0188 147.68 17.1939 148.306 16.5436C148.932 15.8982 149.669 15.408 150.523 15.078C151.378 14.748 152.304 14.583 153.314 14.583C154.231 14.583 155.119 14.6897 155.973 14.9081C156.827 15.1216 157.57 15.4905 158.206 16.0097C158.841 16.529 159.351 17.223 159.734 18.0819C160.118 18.9457 160.307 20.3822 160.307 21.6779L155.153 22.7989V21.6197C155.153 20.9354 155.022 20.4016 154.76 20.0231C154.498 19.6446 154.061 19.4505 153.445 19.4505C153.071 19.4505 152.775 19.5377 152.557 19.7173C152.338 19.8968 152.169 20.1153 152.047 20.3822C151.926 20.6491 151.843 20.9208 151.8 21.2023C151.756 21.4838 151.732 21.7362 151.732 21.9642V35.4699C151.732 35.6494 151.737 35.8823 151.746 36.1735C151.756 36.4647 151.814 36.7461 151.911 37.0082C152.008 37.2751 152.169 37.5032 152.387 37.6924C152.605 37.8817 152.911 37.9788 153.304 37.9788C154.464 37.9788 155.046 37.2945 155.046 35.926V31.7865H153.144V27.3267L160.021 27.3024L159.928 36.1832C159.923 36.7753 159.812 37.3673 159.598 37.9205C159.166 39.0269 158.269 40.7837 156.657 41.6961C155.138 42.555 152.916 42.5357 151.615 42.395C150.635 42.2882 147.233 41.3175 146.549 37.9253C146.36 36.979 146.321 35.9794 146.321 34.9409V22.4981Z" fill="white"/>
<path d="M174.817 15.0439V20.3336H168.154V25.7737H173.997V31.0245H168.154V37.11H175.079V42.3998H162.738V15.0439H174.817Z" fill="white"/>
<path d="M194.694 35.135C194.694 35.5087 194.714 35.8631 194.757 36.2028C194.801 36.5376 194.884 36.8384 195.01 37.1005C195.136 37.3626 195.315 37.5664 195.548 37.7168C195.781 37.8673 196.087 37.94 196.47 37.94C197.062 37.94 197.514 37.7411 197.82 37.3431C198.125 36.9452 198.247 36.4454 198.281 35.8437C198.407 33.6405 198.256 32.1117 197.126 31.5294C193.709 29.7726 193.044 29.1272 192.549 28.6517C192.049 28.1761 191.603 27.652 191.2 27.0793C190.797 26.5067 190.482 25.8515 190.249 25.1139C190.016 24.3762 189.9 23.4979 189.9 22.4739C189.9 19.8291 190.487 17.9073 191.661 16.7086C192.836 15.51 194.481 14.9131 196.601 14.9131C198.887 14.9131 200.557 15.5246 201.605 16.7475C202.653 17.9704 203.177 19.6155 203.177 21.6877V21.9838L198.251 23.0368V22.6583C198.251 22.3331 198.237 21.9886 198.203 21.6295C198.169 21.2704 198.096 20.9501 197.98 20.6735C197.863 20.3969 197.698 20.1687 197.49 19.9795C197.276 19.7902 196.98 19.6981 196.601 19.6981C196.048 19.6981 195.611 19.8776 195.281 20.2416C194.951 20.6055 194.791 21.0957 194.791 21.7217C194.791 22.1196 194.544 23.823 195.446 24.6577C196.839 25.9486 200.789 27.3171 202.221 29.2971C202.668 29.9183 203.701 31.0393 203.56 35.834C203.541 36.4842 203.444 37.2073 203.211 38.0032C202.978 38.8039 202.585 39.5512 202.037 40.25C201.483 40.9488 200.756 41.5361 199.843 42.0117C198.931 42.4873 197.79 42.725 196.412 42.725C195.034 42.725 194.01 42.5066 193.141 42.0699C192.273 41.6331 191.579 41.0848 191.059 40.4248C190.54 39.7648 190.171 39.0466 189.948 38.2701C189.725 37.4985 189.613 36.0814 189.613 35.3826L194.694 34.2713V35.1253V35.135Z" fill="#838383"/>
<path d="M210.927 15.0439V35.0184C210.927 35.3727 210.932 35.7222 210.942 36.0667C210.951 36.4113 211.005 36.7072 211.102 36.9596C211.199 37.2119 211.349 37.4157 211.563 37.5662C211.776 37.7166 212.072 37.7942 212.451 37.7942C212.83 37.7942 213.121 37.7166 213.325 37.5662C213.523 37.4157 213.674 37.2119 213.771 36.9596C213.868 36.7072 213.926 36.4064 213.946 36.0667C213.965 35.7222 213.98 35.3775 213.98 35.0184V15.0439H219.221V34.9408C219.221 37.4012 218.624 39.3375 217.425 40.7448C216.227 42.1522 214.572 42.8559 212.456 42.8559C210.34 42.8559 208.709 42.1522 207.501 40.7448C206.293 39.3375 205.691 37.4012 205.691 34.9408V15.0439H210.932H210.927Z" fill="#838383"/>
<path d="M226.932 15.0439L231.329 27.9866H231.387L235.663 15.0439H240.525V42.3998H235.536L235.415 29.1756H235.357L232.959 37.1149H229.757L227.476 29.0543H227.447V42.3998H222.191V15.0439H226.932Z" fill="#838383"/>
<path d="M243.806 22.4981C243.806 21.1781 243.976 20.0182 244.315 19.0185C244.655 18.0188 245.126 17.1939 245.727 16.5436C246.329 15.8982 247.047 15.408 247.872 15.078C248.697 14.748 249.6 14.583 250.571 14.583C251.541 14.583 252.444 14.748 253.269 15.078C254.094 15.408 254.807 15.8982 255.414 16.5436C256.016 17.189 256.486 18.014 256.826 19.0185C257.166 20.023 257.336 21.183 257.336 22.4981V34.9409C257.336 37.4013 256.739 39.3376 255.54 40.7449C254.341 42.1522 252.686 42.856 250.571 42.856C248.455 42.856 246.824 42.1522 245.616 40.7449C244.407 39.3376 243.806 37.4013 243.806 34.9409V22.4981ZM249.047 35.4747C249.047 35.6543 249.052 35.8872 249.061 36.1784C249.071 36.4695 249.124 36.751 249.222 37.0131C249.319 37.28 249.469 37.508 249.683 37.6973C249.896 37.8865 250.192 37.9836 250.571 37.9836C250.949 37.9836 251.24 37.8865 251.444 37.6973C251.643 37.508 251.794 37.28 251.891 37.0131C251.988 36.7462 252.046 36.4695 252.065 36.1784C252.085 35.8872 252.099 35.6543 252.099 35.4747V21.9691C252.099 21.741 252.09 21.4789 252.065 21.1877C252.046 20.8966 251.988 20.6248 251.891 20.3676C251.794 20.1153 251.648 19.8968 251.444 19.7221C251.24 19.5426 250.954 19.4553 250.571 19.4553C250.187 19.4553 249.891 19.5426 249.683 19.7221C249.469 19.9017 249.319 20.1153 249.222 20.3676C249.124 20.62 249.071 20.8966 249.061 21.1877C249.052 21.4789 249.047 21.741 249.047 21.9691V35.4747Z" fill="#838383"/>
<path d="M38.0672 19.6592C37.9167 24.8469 36.1309 29.6805 32.0884 33.5434C31.4139 34.1888 31.3653 34.6547 31.8749 35.3583C32.2971 35.9407 32.6222 36.5957 33.0056 37.2072C33.7287 38.3573 34.2237 39.6725 36.0969 39.4299C36.9462 39.3183 37.7372 40.085 38.2467 40.9003C40.6683 44.7681 43.1336 48.6067 45.5067 52.5035C46.7539 54.5515 46.2734 56.415 44.3129 57.7933C43.4976 58.3659 42.6871 58.9482 41.8233 59.4383C40.1005 60.4138 38.3438 60.1323 37.281 58.4872C34.6896 54.4641 32.2097 50.3635 29.7105 46.2822C29.0651 45.2291 29.1233 44.0886 29.7105 43.0501C30.0551 42.4338 29.9774 41.997 29.6183 41.4583C28.9195 40.4053 28.2158 39.3474 27.6383 38.2264C27.187 37.3577 26.7357 37.2558 25.8282 37.6052C21.3781 39.3231 16.8795 39.3814 12.4633 37.5324C5.56737 34.6401 1.74328 29.3067 0.631971 22.0273C-0.819043 12.5108 5.50428 2.84389 14.5598 0.572734C25.867 -2.26135 36.9607 5.74593 37.941 17.4511C37.9944 18.082 38.0187 18.7129 38.072 19.6738L38.0672 19.6592Z" fill="#C8C8C8"/>
<path d="M3.15558 19.4794C3.04396 10.5016 10.2359 2.88256 18.942 2.76124C27.8762 2.63992 35.238 10.0115 35.3157 19.1446C35.3885 28.3748 28.3469 35.9648 19.6166 36.057C10.498 36.154 3.27205 28.8795 3.15558 19.4794Z" fill="white"/>
<path d="M6.41153 22.2315C6.41153 14.8842 12.1137 8.6046 19.2668 7.91549C20.7421 7.77476 20.912 7.2652 20.4849 6.09566C20.4073 5.88698 20.3587 5.65884 20.3345 5.43561C20.2957 5.13473 20.1646 4.7756 20.5043 4.57178C20.7712 4.41164 21.0333 4.59609 21.2565 4.73682C23.6781 6.24122 26.0949 7.7505 28.5165 9.25489C29.094 9.61401 29.1716 10.0217 28.7882 10.5992C27.2207 12.9722 25.6775 15.3695 24.1197 17.7523C23.9499 18.0144 23.7558 18.3297 23.3966 18.2909C23.0036 18.2472 22.9793 17.8639 22.8968 17.5678C22.8143 17.2621 22.7609 16.9516 22.693 16.641C22.1786 14.297 22.1689 14.2436 19.7618 14.6853C15.9766 15.3792 12.5699 16.8109 10.1046 19.9507C8.92533 21.4502 8.28959 23.1584 8.06151 25.0365C8.00813 25.4781 8.00813 26.041 7.38696 26.0264C6.88712 26.0118 6.83373 25.5023 6.74638 25.1093C6.51829 24.0465 6.3727 22.974 6.41153 22.2315Z" fill="#838383"/>
<path d="M31.9186 17.0142C31.5498 24.6769 26.265 30.3743 19.0633 31.2332C17.7385 31.3885 17.2677 31.767 17.7822 33.0482C17.8792 33.2957 17.8889 33.5771 17.9229 33.8489C18.0248 34.6642 17.7191 34.8728 17.0154 34.4312C14.5987 32.9268 12.1868 31.4127 9.75548 29.9277C9.15857 29.5637 9.06636 29.1949 9.45945 28.6126C11.0706 26.2104 12.6526 23.7937 14.2492 21.3818C14.3948 21.1586 14.521 20.8723 14.8365 20.8868C15.249 20.9062 15.2878 21.2799 15.3606 21.5759C15.4819 22.0563 15.5838 22.5416 15.676 23.0318C16.0254 24.8516 16.0303 24.8953 17.8064 24.6235C22.3051 23.9393 26.2359 22.2505 28.8176 18.2469C29.6426 16.9657 30.0357 15.5438 30.2492 14.0539C30.3026 13.6802 30.2832 13.1465 30.851 13.1465C31.38 13.1465 31.4285 13.622 31.4867 14.0345C31.6517 15.1943 31.8216 16.3542 31.9186 17.0191V17.0142Z" fill="#838383"/>
</svg>
