<svg width="261" height="60" viewBox="0 0 261 60" fill="none" xmlns="http://www.w3.org/2000/svg">
<path d="M64.7249 16.7559H67.3611V26.3863L77.6999 16.7559H81.1732L68.7542 28.2715L82.1415 42.4225H78.6994L67.3673 30.4666V42.4225H64.7311V16.7559H64.7249Z" fill="#D7D7D7"/>
<path d="M85.819 24.0952L89.8745 34.5059C90.2926 35.6682 90.7573 37.0517 91.0626 38.113H91.1422C91.4874 37.0581 91.8657 35.7125 92.3303 34.4364L96.0008 24.0952H99.5585L94.5074 36.6537C92.098 42.6993 90.4519 45.7947 88.1554 47.6835C86.5093 49.0669 84.8632 49.6102 84.0269 49.7555L83.1839 47.0644C84.0269 46.8117 85.1353 46.3 86.1309 45.4978C87.0469 44.8029 88.1952 43.571 88.9585 41.9286C89.1112 41.6001 89.224 41.3474 89.224 41.1642C89.224 40.981 89.1444 40.7283 88.9917 40.324L82.1418 24.0889H85.8124L85.819 24.0952Z" fill="#D7D7D7"/>
<path d="M101.542 30.1307C101.542 27.9185 101.464 26.1338 101.392 24.4855H104.369L104.519 27.4476H104.598C105.952 25.3406 108.104 24.0889 111.081 24.0889C115.491 24.0889 118.808 27.6273 118.808 32.8759C118.808 39.0913 114.811 42.1587 110.512 42.1587C108.098 42.1587 105.985 41.161 104.892 39.4445H104.813V48.8389H101.536V30.1245L101.542 30.1307ZM104.82 34.735C104.82 35.1997 104.898 35.6273 104.97 36.0177C105.572 38.1989 107.574 39.6986 109.949 39.6986C113.456 39.6986 115.491 36.9844 115.491 33.0185C115.491 29.5545 113.568 26.5924 110.061 26.5924C107.797 26.5924 105.684 28.1292 105.049 30.484C104.938 30.8744 104.82 31.3391 104.82 31.7667V34.7288V34.735Z" fill="#D7D7D7"/>
<path d="M134.328 41.3701C133.552 41.8048 131.844 42.4222 129.657 42.4222C124.754 42.4222 121.559 38.7933 121.559 33.4193C121.559 28.0453 124.987 24.0889 130.293 24.0889C132.042 24.0889 133.587 24.5613 134.392 24.996L133.721 27.4657C133.016 27.031 131.908 26.6278 130.293 26.6278C126.561 26.6278 124.55 29.6077 124.55 33.2744C124.55 37.338 126.969 39.8455 130.194 39.8455C131.873 39.8455 132.981 39.373 133.821 38.9761L134.322 41.3701H134.328Z" fill="#D7D7D7"/>
<path d="M151.636 31.248H142.129V39.8388H152.725V42.4222H138.975V18.5889H152.183V21.1722H142.135V28.7076H151.642V31.2542L151.636 31.248Z" fill="#8A8A8A"/>
<path d="M155.475 23.1729H158.092V31.2828L167.518 23.1729H171.158L160.842 31.9806L171.975 42.4166H168.275L158.922 33.5208L158.098 34.2123V42.4229H155.481V23.1729H155.475Z" fill="#8A8A8A"/>
<path d="M187.489 41.3701C186.659 41.8048 184.828 42.4222 182.485 42.4222C177.232 42.4222 173.808 38.7933 173.808 33.4193C173.808 28.0453 177.481 24.0889 183.166 24.0889C185.04 24.0889 186.696 24.5613 187.558 24.996L186.84 27.4657C186.084 27.031 184.897 26.6278 183.166 26.6278C179.168 26.6278 177.013 29.6077 177.013 33.2744C177.013 37.338 179.605 39.8455 183.06 39.8455C184.859 39.8455 186.046 39.373 186.946 38.9761L187.483 41.3701H187.489Z" fill="#8A8A8A"/>
<path d="M204.975 24.0889V42.4222H201.748V26.738H193.496V42.4222H190.308V24.0889H204.975Z" fill="#8A8A8A"/>
<path d="M212.449 33.8339C212.521 38.1469 215.131 39.9199 218.152 39.9199C220.316 39.9199 221.621 39.5238 222.753 39.0145L223.266 41.2968C222.199 41.806 220.381 42.4222 217.735 42.4222C212.616 42.4222 209.559 38.8322 209.559 33.5448C209.559 28.2573 212.515 24.0889 217.354 24.0889C222.783 24.0889 224.225 29.1249 224.225 32.3502C224.225 33.004 224.154 33.507 224.124 33.8339H212.449ZM221.311 31.5517C221.347 29.521 220.518 26.3711 217.121 26.3711C214.064 26.3711 212.723 29.3449 212.485 31.5517H221.311Z" fill="#8A8A8A"/>
<path d="M228.035 30.1307C228.035 27.9185 227.96 26.1338 227.892 24.4855H230.712L230.855 27.4476H230.929C232.212 25.3406 234.252 24.0889 237.072 24.0889C241.25 24.0889 244.392 27.6273 244.392 32.8759C244.392 39.0913 240.605 42.1587 236.533 42.1587C234.245 42.1587 232.243 41.161 231.208 39.4445H231.134V48.8389H228.028V30.1245L228.035 30.1307ZM231.14 34.735C231.14 35.1997 231.214 35.6273 231.283 36.0177C231.853 38.1989 233.75 39.6986 236 39.6986C239.322 39.6986 241.25 36.9844 241.25 33.0185C241.25 29.5545 239.427 26.5924 236.105 26.5924C233.96 26.5924 231.958 28.1292 231.357 30.484C231.252 30.8744 231.14 31.3391 231.14 31.7667V34.7288V34.735Z" fill="#8A8A8A"/>
<path d="M259.969 24.0889V26.738H254.634V42.4222H251.561V26.738H246.225V24.0889H259.975H259.969Z" fill="#8A8A8A"/>
<path d="M45.6817 26.0985C44.9517 23.2411 43.4745 20.532 41.792 18.0681C41.5353 17.6917 38.7805 15.0567 37.5486 15.2677C36.0144 15.5358 35.5809 15.8837 35.6494 17.3324C40.9593 20.0814 41.4612 23.8571 41.7007 24.7981C39.0429 24.9065 36.0429 24.7183 33.0828 24.9977C31.0695 25.1916 29.4897 25.6422 27.8984 26.5149C27.7901 26.5776 27.5448 26.7886 27.425 26.7829C27.2596 26.7829 27.0315 26.5548 26.9117 26.4863C25.3319 25.6251 23.7691 25.1859 21.7672 24.992C18.8072 24.7068 15.8071 24.9008 13.1493 24.7924C13.3889 23.8513 13.8851 20.0757 19.2007 17.3266C19.2691 15.8837 18.8357 15.5301 17.3014 15.262C16.0695 15.051 13.3148 17.686 13.0581 18.0624C11.3813 20.5263 9.90411 23.2297 9.16837 26.0928C8.52958 28.5909 8.91741 31.916 9.14555 32.9997C9.28813 33.6898 9.82426 35.0016 10.503 35.3495C13.8395 37.0776 21.8528 36.5301 23.233 35.8913C25.3718 34.8932 26.2216 33.0168 26.8091 31.3742C26.9631 30.9407 27.1798 30.5244 27.4307 30.0111C27.6817 30.5244 27.8927 30.935 28.0524 31.3742C28.6399 33.0168 29.4897 34.8932 31.6285 35.8913C33.003 36.5301 41.0163 37.0776 44.3585 35.3495C45.0372 35.0016 45.5733 33.6898 45.7159 32.9997C45.944 31.9103 46.3319 28.5909 45.6931 26.0928L45.6817 26.0985ZM18.2596 33.6441C12.6018 33.6613 11.8604 33.2164 11.7634 28.1176C16.1379 28.1746 19.4117 28.089 23.752 28.186C23.1589 33.3647 22.5828 33.627 18.2596 33.6384V33.6441ZM36.5961 33.6441C32.2729 33.6327 31.6969 33.3704 31.1037 28.1917C35.444 28.0947 38.7178 28.1803 43.0923 28.1233C43.0011 33.2221 42.2596 33.667 36.5961 33.6498V33.6441Z" fill="#8A8A8A"/>
<path d="M27.4246 57C12.5386 57 0.424561 44.8916 0.424561 30C0.424561 15.1084 12.5329 3 27.4246 3C42.3162 3 54.4246 15.1084 54.4246 30C54.4246 44.8916 42.3162 57 27.4246 57ZM27.4246 9.40494C16.0691 9.40494 6.82951 18.6445 6.82951 30C6.82951 41.3555 16.0691 50.5951 27.4246 50.5951C38.7801 50.5951 48.0197 41.3555 48.0197 30C48.0197 18.6445 38.7801 9.40494 27.4246 9.40494Z" fill="#8A8A8A"/>
</svg>
