<svg width="198" height="60" viewBox="0 0 198 60" fill="none" xmlns="http://www.w3.org/2000/svg">
<path d="M24.7063 12H20.6502C17.7672 12 13.901 14.7359 13.388 19.1853L13.0461 21.2065H2.06972V24.7424H12.4429L11.6307 29.509H0.621094V33.0449H11.0275L10.4195 36.6281C10.3863 36.8789 10.3815 37.1251 10.372 37.3618C10.1441 41.9059 14.0482 43.8182 16.6938 43.8182H20.294C23.2292 43.8182 27.0717 42.0715 28.0976 36.6328L30.5151 19.1853C30.5484 18.9392 30.5294 18.693 30.5626 18.4611C31.0328 15.408 28.6295 12 24.7159 12H24.7063ZM23.8324 19.5971C23.8277 19.6492 21.8518 35.5299 21.8518 35.5299C21.7758 36.0175 21.3009 38.5167 20.0375 38.5167H18.8453C17.7007 38.37 17.7387 37.3428 17.9809 35.9133C17.9904 35.8612 20.0185 19.7818 20.0185 19.7818C20.1752 18.9155 20.2417 17.3062 21.7568 17.3062H22.702C24.3976 17.3062 23.9227 18.7546 23.8324 19.5971Z" fill="#8A8A8A"/>
<path d="M47.636 27.597L52.2843 43.8182H44.5181L40.8601 29.2869L38.671 43.8182H31.5303L36.3255 12H43.4662L41.3482 26.0465L49.3134 12H56.9848L47.636 27.597Z" fill="#8A8A8A"/>
<path d="M74.1828 21.2351C74.0669 20.8423 73.8723 20.4888 73.6591 20.1499C72.8897 18.8781 71.6708 17.9501 70.2341 17.6014C69.8355 17.5081 69.4231 17.4541 68.9967 17.4541H64.9739C60.9187 17.4541 57.5401 20.5526 56.8402 24.6332L56.7429 25.3992L55.3062 36.2906C55.3062 36.2906 54.764 39.6395 55.816 41.427C56.5854 42.738 57.693 43.8184 59.0834 44.3438C59.7322 44.5942 60.4228 44.7268 61.1504 44.7268H64.7885C66.976 44.5255 68.7974 44.0885 69.8124 43.2586C71.11 42.2225 71.8979 41.2011 72.4031 38.849L72.5004 38.1173L72.7924 35.9273L73.1493 33.2019H66.494L66.2994 34.7046L66.2808 34.8715L65.5718 39.5463C65.4791 40.2436 64.9461 40.4449 64.3807 40.4449H63.8338C63.3286 40.4449 62.6752 40.1846 62.6752 39.6052C62.6752 39.5414 62.6798 39.4677 62.6891 39.3989L63.1247 34.464L63.463 31.8909L63.9867 27.9625L64.4734 23.7984L64.529 23.3614C64.6217 22.6641 64.7839 21.2597 65.7015 21.2204H66.4894C67.0455 21.2106 67.3561 21.8244 67.3005 23.1306C67.3005 23.2042 66.8602 26.9804 66.8602 26.9804H73.8352C73.8352 26.9804 74.4701 22.1976 74.1828 21.2302V21.2351Z" fill="#8A8A8A"/>
<path d="M96.0709 21.8716C96.0709 22.1816 96.0473 22.5059 96.0049 22.835L93.096 43.8182H86.3259C86.3259 43.8182 88.8199 25.5723 88.9802 24.5613C89.2112 23.1306 88.0797 22.6394 87.5705 22.6394H86.6417C86.0854 22.6394 84.9398 22.5059 84.6051 24.5756L81.9366 43.8182H75.1665L79.9848 12H86.7549L85.2981 19.5825C86.2552 18.3283 89.3243 17.5272 90.6161 17.5272H91.7146C94.4868 17.5272 96.0756 19.263 96.0756 21.8669L96.0709 21.8716Z" fill="#8A8A8A"/>
<path d="M117.878 23.6558C117.858 23.9009 117.858 24.1509 117.824 24.4058L114.823 44.4817L106.743 44.5553L107.083 42.2363C106.247 44.2022 103.965 44.7268 102.258 44.7268H101.582C98.6726 44.7268 96.9846 42.9325 96.9846 40.241C96.9846 39.9272 97.0089 39.6037 97.0527 39.2703L97.544 35.765C98.1132 32.0881 101.392 30.8674 104.452 29.5731C107.536 28.269 109.35 27.5141 109.35 27.5141C109.35 27.5141 109.832 24.9844 109.905 23.6215C109.958 22.5772 109.968 21.2291 108.572 21.2094C106.543 21.18 106.5 23.1557 106.397 23.8519L106.144 26.7787H99.2661L99.806 22.9106C100.249 19.8858 104.491 17.4541 107.594 17.4541H110.868C115.139 17.4541 118.14 20.4103 117.878 23.6558ZM108.606 31.9165C108.606 31.9165 106.135 32.799 105.352 35.1326C104.719 37.0151 104.578 39.084 104.695 39.7998C104.792 40.4126 105.108 40.7068 105.994 40.6136C106.874 40.5499 107.541 39.2948 107.541 39.2948C107.541 39.2948 108.509 34.0001 108.606 31.9165Z" fill="#8A8A8A"/>
<path d="M137.889 21.8098C137.889 22.1206 137.871 22.4457 137.829 22.7756L135.175 43.813H128.52C128.52 43.813 130.763 26.3041 130.86 25.52C130.929 24.975 131.345 22.6274 129.898 22.5843H129.125C128.298 22.6465 127.747 23.2346 127.382 25.4961L124.986 43.8177H118.803L122.114 17.6979H127.511L127.548 20.4089C128.339 18.6494 129.99 17.4541 131.428 17.4541H133.912C136.442 17.4541 137.894 19.1945 137.894 21.805L137.889 21.8098Z" fill="#8A8A8A"/>
<path d="M162.439 17.7011L158.364 46.1677C157.917 49.4518 154.933 51.9996 151.551 51.9996H140.958L141.656 46.8071H150.008C150.755 46.8071 151.301 46.3179 151.399 45.6785L151.92 42.0021C151.03 43.4552 149.551 44.4046 148.165 44.4046H146.233C143.298 44.4046 140.403 42.5882 140.634 39.0087C140.654 38.6939 140.659 38.3693 140.703 38.0303L142.989 23.8333C143.436 20.6461 146.823 17.4541 150.106 17.4541H152.289C153.931 17.4541 155.13 18.791 155.307 20.7139L156.369 17.6963H162.434L162.439 17.7011ZM150.75 39.2122C151.787 39.2122 152.289 38.6406 152.446 37.5895C152.446 37.5895 154.289 25.0491 154.294 24.9813C154.56 22.9421 154.348 22.6514 153.237 22.6514H151.876C150.721 22.6514 150.583 23.5475 150.332 24.9716C150.332 24.9716 148.538 37.2601 148.523 37.3279C148.297 38.5437 148.779 39.2169 149.733 39.2169H150.755L150.75 39.2122Z" fill="#8A8A8A"/>
<path d="M181.489 24.4132L180.31 32.2348H170.282L169.497 37.8314C169.406 38.5273 169.93 39.5026 170.772 39.4732H171.499C172.389 39.4095 172.957 38.5273 173.044 37.8314L173.496 34.9106H179.944L179.401 37.7726C178.992 40.7474 174.94 44.7268 172.081 44.7268H168.333C165.474 44.7268 162.101 40.7474 162.467 37.7726L164.555 24.4082C165.171 19.8554 169.016 17.4541 171.874 17.4541H175.623C178.482 17.4541 181.946 19.826 181.489 24.4082V24.4132ZM170.859 27.7261H174.406L174.906 24.8591C175.147 23.2027 174.651 22.7224 173.674 22.7224H172.948C171.855 22.7812 171.504 23.9182 171.355 24.8591L170.859 27.7261Z" fill="#8A8A8A"/>
<path d="M197.894 17.4638L196.535 24.2392L194.204 24.4564C192.905 24.5674 192.372 25.2768 192.074 27.2409L189.94 43.8177H183.348L186.878 17.4541H192.496L192.537 20.8708C193.322 18.8874 194.874 17.4541 197.182 17.4541H197.894V17.4638Z" fill="#8A8A8A"/>
</svg>
