<svg width="62" height="71" viewBox="0 0 62 71" fill="none" xmlns="http://www.w3.org/2000/svg">
<path d="M15.0124 70.4705C14.1795 70.1075 13.8699 69.4935 13.8432 68.5752C13.7578 65.3504 12.7167 62.478 10.5063 60.0647C7.06794 56.3167 4.75079 51.9707 3.81112 46.9627C3.04763 42.9157 3.5762 38.9808 5.20995 35.1954C5.27401 35.0513 5.3541 34.9178 5.43953 34.7363C7.48438 36.2579 9.68407 37.4111 12.092 38.1586C23.4855 41.6984 35.7867 35.0993 38.894 23.5776C39.9618 19.6107 42.6527 17.8222 46.2405 16.8131C46.7478 16.6689 47.271 16.6048 47.7889 16.5141C48.547 16.3806 49.2144 16.5301 49.6629 17.2135C50.106 17.8862 49.9298 18.5216 49.6095 19.221C49.0969 20.3368 48.5363 21.4794 48.3335 22.6647C48.1466 23.7325 48.3922 24.8804 48.499 25.9856C48.5203 26.1884 48.7659 26.3913 48.9528 26.5515C52.1402 29.2691 54.5428 32.5312 55.9416 36.5035C56.0697 36.8612 56.2513 37.0054 56.641 36.984C57.2123 36.952 57.7889 36.9573 58.3602 36.9893C59.8124 37.0694 60.9763 38.196 61.003 39.6482C61.0457 42.0561 61.0404 44.464 61.003 46.8719C60.9817 48.3241 59.8177 49.456 58.3655 49.5361C57.6608 49.5735 56.7958 49.3599 56.2993 49.7016C55.8348 50.022 55.7814 50.9243 55.5145 51.5543C54.1477 54.8271 52.0868 57.6087 49.428 59.9366C47.0574 62.0081 45.7707 64.5335 45.9255 67.7263C45.9362 67.9345 45.9095 68.1427 45.9255 68.3456C46.011 69.2692 45.712 69.9953 44.8791 70.4652H34.6922C33.8326 70.0808 33.4802 69.4187 33.555 68.4844C33.603 67.9238 33.5656 67.3579 33.5656 66.7973H26.1711C26.1711 67.3365 26.1337 67.9078 26.1817 68.4737C26.2565 69.4081 25.9094 70.0701 25.0552 70.4652H15.0071L15.0124 70.4705ZM46.5395 32.8729C45.2475 32.8836 44.2437 33.914 44.2704 35.2061C44.2971 36.4715 45.2955 37.4485 46.5609 37.4485C47.8529 37.4485 48.878 36.4287 48.8674 35.1474C48.862 33.8607 47.8369 32.8623 46.5342 32.8729H46.5395Z" fill="#4D7BF1"/>
<path d="M36.1182 17.7311C36.1395 27.5069 28.211 35.4674 18.4246 35.4941C8.65943 35.5208 0.704253 27.587 0.66688 17.7898C0.629507 7.99799 8.53664 0.0374701 18.3231 9.67324e-05C28.1363 -0.0319376 36.0915 7.89655 36.1128 17.7311H36.1182ZM18.2057 29.8667C19.7807 29.8721 19.8127 29.8454 19.8074 28.2597C19.8074 28.2383 19.8074 28.2116 19.8074 28.1903C19.8038 27.3289 20.2096 26.747 21.0247 26.4444C24.9382 25.0029 25.9419 20.1764 22.84 17.4374C22.0711 16.754 21.0621 16.3323 20.1331 15.8464C19.2842 15.4033 18.3765 15.0669 17.5329 14.6184C16.8762 14.266 16.4011 13.7268 16.5612 12.8939C16.6894 12.2319 17.3194 11.7674 18.211 11.6659C19.5671 11.5057 20.8538 11.7567 22.0978 12.3013C22.9254 12.6643 23.0268 12.6163 23.3044 11.7353C23.4646 11.2335 23.5981 10.7262 23.769 10.2244C23.9932 9.57301 23.7796 9.14589 23.1283 8.95902C22.2954 8.71876 21.4625 8.47317 20.6136 8.2863C20.1437 8.18486 19.9355 7.96596 19.9622 7.49612C19.9729 7.26654 19.9622 7.03696 19.9515 6.80738C19.9302 5.70754 19.8287 5.60076 18.7129 5.58474C16.62 5.55805 16.9083 5.61144 16.9243 7.29324C16.9243 8.03003 16.7321 8.51588 15.9579 8.70809C15.5682 8.80419 15.1944 9.01775 14.8367 9.22064C11.644 11.0306 11.3023 15.3072 14.2548 17.4748C15.3066 18.2436 16.5986 18.6921 17.7785 19.2901C18.3872 19.5998 19.0439 19.856 19.5885 20.2565C20.8165 21.1641 20.6029 22.7444 19.172 23.2944C18.6114 23.5079 17.9387 23.6628 17.3674 23.5613C16.1181 23.3264 14.8901 22.9527 13.6835 22.5522C13.1336 22.3707 12.8613 22.4508 12.7064 22.99C12.5249 23.6307 12.338 24.2661 12.1619 24.9068C12.0177 25.4247 12.1725 25.8197 12.6904 26.0119C13.3525 26.2575 14.0198 26.5031 14.6979 26.7114C15.2852 26.8875 16.1127 26.8288 16.4224 27.2079C16.7534 27.619 16.636 28.4145 16.668 29.0445C16.6947 29.6211 16.9723 29.8774 17.5329 29.8774C17.7625 29.8774 17.9921 29.8774 18.2217 29.8774L18.2057 29.8667Z" fill="#4D7BF1"/>
</svg>
