<svg width="301" height="60" viewBox="0 0 301 60" fill="none" xmlns="http://www.w3.org/2000/svg">
<g clip-path="url(#clip0_7716_79892)">
<path d="M56.5725 21.6429C58.9904 21.6429 60.5291 22.9714 60.5291 25.4071C60.5291 27.8429 59.2103 29.1714 56.5725 29.1714H54.1546V21.6429H56.5725ZM93.5004 37.8071C93.5004 39.5786 92.6212 40.9071 90.6429 40.9071C88.8845 40.9071 87.7854 39.5786 87.7854 37.8071V30.9429C87.7854 29.1714 88.8845 27.8429 90.6429 27.8429C92.6212 27.8429 93.5004 29.1714 93.5004 30.9429V37.8071ZM115.042 22.75H110.646V21.4214C110.646 20.3143 111.305 20.0929 112.184 20.0929H114.822V15H111.085C107.788 15 104.931 17.2143 104.931 20.7571V22.75H102.293V27.8429H104.931V45.3357H110.426V27.8429H114.822V22.75H115.042ZM90.6429 22.3071C85.1477 22.3071 82.2902 26.0714 82.2902 30.5V37.5857C82.2902 42.4571 85.1477 46 90.6429 46C96.1381 46 99.2155 42.2357 99.2155 37.5857V30.5C99.2155 26.0714 96.1381 22.3071 90.6429 22.3071ZM80.7515 28.0643V22.3071H80.0921C77.4544 22.3071 75.6959 23.4143 74.5969 25.4071V22.75H69.5413V45.3357H75.0365V32.05C75.0365 29.3929 76.795 27.8429 79.4327 27.8429H80.7515V28.0643ZM48 16.1071V45.5571H54.1546V34.7071H56.5725C62.5074 34.7071 66.4639 31.3857 66.4639 25.4071C66.4639 19.65 62.2876 16.1071 56.5725 16.1071H48ZM230.222 45.5571H235.937V30.7214C235.937 28.95 236.816 27.8429 238.355 27.8429C240.113 27.8429 240.772 28.95 240.772 30.7214V45.5571H246.268V29.6143C246.268 25.6286 244.07 22.5286 239.673 22.5286C237.255 22.5286 235.497 23.4143 234.398 24.9643C233.299 23.4143 231.76 22.5286 229.342 22.5286C227.144 22.5286 225.386 23.4143 224.507 24.9643V22.75H219.891V45.3357H225.386V29.8357C225.606 28.5071 226.485 27.6214 228.023 27.6214C229.562 27.6214 230.222 28.7286 230.222 30.5V45.5571ZM255.5 30.9429C255.5 29.1714 256.379 27.8429 258.357 27.8429C260.335 27.8429 261.215 29.1714 261.215 30.9429V31.3857H255.28V30.9429H255.5ZM258.357 22.3071C253.082 22.3071 250.004 26.0714 250.004 30.5V37.5857C250.004 42.4571 253.082 46 258.357 46C262.753 46 265.831 43.7857 267.369 40.6857L262.753 38.0286C261.434 40.9071 255.28 42.4571 255.28 37.5857V36.0357H266.71V30.7214C266.93 26.0714 263.633 22.3071 258.357 22.3071ZM280.997 45.5571H286.493V29.3929C286.493 25.6286 284.295 22.5286 279.679 22.5286C277.7 22.5286 275.942 23.4143 274.843 24.9643V22.75H269.787V45.3357H275.502V30.5C275.502 28.7286 276.381 27.6214 278.14 27.6214C279.898 27.6214 280.778 28.95 280.778 30.7214V45.5571H280.997ZM301 27.8429V22.75H296.824V16.7714H291.328V22.9714H288.471V28.0643H291.328V40.0214C291.328 43.3429 293.746 45.7786 297.483 45.7786H300.56V40.4643H298.362C297.483 40.4643 296.824 40.2429 296.824 38.9143V27.8429H301Z" fill="white"/>
<path fill-rule="evenodd" clip-rule="evenodd" d="M18.4065 29.1206V18.1809V7.02246L27.6162 12.7111L36.826 18.1809L27.6162 23.6507L18.4065 29.1206Z" fill="url(#paint0_linear_7716_79892)"/>
<path fill-rule="evenodd" clip-rule="evenodd" d="M18.4077 29.1206L9.41729 23.6507L-0.0117188 18.1809L9.41729 12.7111L18.4077 7.02246V18.1809V29.1206Z" fill="url(#paint1_linear_7716_79892)"/>
<path fill-rule="evenodd" clip-rule="evenodd" d="M18.4077 29.1203L9.41729 34.5901L-0.0117188 40.2788V29.1203V18.1807L9.41729 23.6505L18.4077 29.1203Z" fill="url(#paint2_linear_7716_79892)"/>
<path fill-rule="evenodd" clip-rule="evenodd" d="M18.4077 29.1211V40.2795V51.0004L9.41729 45.7494L-0.0117188 40.2795L9.41729 34.5909L18.4077 29.1211Z" fill="url(#paint3_linear_7716_79892)"/>
<path fill-rule="evenodd" clip-rule="evenodd" d="M18.4065 29.1211V40.2795V51.0004L27.6162 45.7494L36.826 40.2795L27.6162 34.5909L18.4065 29.1211Z" fill="url(#paint4_linear_7716_79892)"/>
<path fill-rule="evenodd" clip-rule="evenodd" d="M18.4065 29.1203L27.6162 34.5901L36.826 40.2788V29.1203V18.1807L27.6162 23.6505L18.4065 29.1203Z" fill="url(#paint5_linear_7716_79892)"/>
<path d="M172.468 30.7477C172.468 28.9533 173.38 27.6075 175.203 27.6075C177.253 27.6075 178.392 28.9533 178.392 30.7477V31.1963H172.241V30.7477H172.468ZM175.43 22C169.962 22 167 25.8131 167 30.2991V37.4766C167 42.4112 170.19 46 175.658 46C180.215 46 183.405 43.757 185 40.6168L180.215 37.9252C178.848 40.8411 172.468 42.4112 172.468 37.4766V35.9065H184.316V30.5234C184.316 25.8131 181.127 22 175.43 22Z" fill="url(#paint6_linear_7716_79892)"/>
<path d="M126 23H120V45H126V23Z" fill="url(#paint7_linear_7716_79892)"/>
<path d="M123 15C124.615 15 126 16.3846 126 18C126 19.6154 124.615 21 123 21C121.154 21 120 19.6154 120 18C120 16.3846 121.154 15 123 15Z" fill="url(#paint8_linear_7716_79892)"/>
<path d="M216 27.687V22.771H212V17H206.737V22.9847H204V27.9008H206.737V39.4427C206.737 42.6489 209.053 45 212.632 45H215.579V39.8702H213.474C212.632 39.8702 212 39.6565 212 38.374V27.687H216Z" fill="url(#paint9_linear_7716_79892)"/>
<path d="M196.24 30.0748H201.573V29.6262C201.573 24.243 197.093 22 193.893 22C189.2 22 186.213 24.6916 186.213 28.9533C186.213 32.7664 187.92 34.5607 191.333 35.6822L193.467 36.5794C194.96 37.028 196.667 37.4766 196.667 38.8224C196.667 39.9439 195.6 40.6168 194.107 40.6168C192.613 40.6168 191.333 39.7196 191.333 37.9252V37.7009H186V38.5981C186 42.6355 189.2 46 194.107 46C199.013 46 202 43.0841 202 38.5981C202 35.2336 200.08 32.9907 196.88 31.8692L194.96 31.1963C193.04 30.2991 191.333 30.0748 191.333 28.9533C191.333 28.0561 191.973 27.3832 193.68 27.3832C195.173 27.3832 196.027 28.2804 196.027 29.6262V30.0748H196.24Z" fill="url(#paint10_linear_7716_79892)"/>
<path d="M147 23L153.849 45H159.372L166 23H160.477L156.5 36.8835L152.965 23H147Z" fill="url(#paint11_linear_7716_79892)"/>
<path d="M140.408 45H146V28.8558C146 25.0962 143.763 22 139.066 22C137.053 22 135.263 22.8846 134.145 24.4327V22.2212H129V44.7788H134.592V29.9615C134.816 28.1923 135.711 27.0865 137.5 27.0865C139.289 27.0865 140.184 28.4135 140.184 30.1827V45H140.408Z" fill="url(#paint12_linear_7716_79892)"/>
</g>
<defs>
<linearGradient id="paint0_linear_7716_79892" x1="17.7152" y1="17.3818" x2="34.8368" y2="17.3818" gradientUnits="userSpaceOnUse">
<stop stop-color="#FAE646"/>
<stop offset="0.0001" stop-color="#9C9C9C"/>
<stop offset="0.6118" stop-color="#7A7A7A"/>
<stop offset="1" stop-color="#4A4A4A"/>
</linearGradient>
<linearGradient id="paint1_linear_7716_79892" x1="8.39752" y1="23.1161" x2="17.1684" y2="7.35616" gradientUnits="userSpaceOnUse">
<stop stop-color="#9C9C9C"/>
<stop offset="0.6118" stop-color="#7A7A7A"/>
<stop offset="1" stop-color="#4A4A4A"/>
</linearGradient>
<linearGradient id="paint2_linear_7716_79892" x1="1.63806" y1="28.4376" x2="18.1321" y2="28.4376" gradientUnits="userSpaceOnUse">
<stop stop-color="#9C9C9C"/>
<stop offset="0.6118" stop-color="#7A7A7A"/>
<stop offset="1" stop-color="#4A4A4A"/>
</linearGradient>
<linearGradient id="paint3_linear_7716_79892" x1="12.849" y1="45.9999" x2="6.45992" y2="28.1904" gradientUnits="userSpaceOnUse">
<stop stop-color="#9C9C9C"/>
<stop offset="0.6118" stop-color="#7A7A7A"/>
<stop offset="1" stop-color="#4A4A4A"/>
</linearGradient>
<linearGradient id="paint4_linear_7716_79892" x1="17.7152" y1="39.3816" x2="34.8368" y2="39.3816" gradientUnits="userSpaceOnUse">
<stop stop-color="#9C9C9C"/>
<stop offset="0.6118" stop-color="#7A7A7A"/>
<stop offset="1" stop-color="#4A4A4A"/>
</linearGradient>
<linearGradient id="paint5_linear_7716_79892" x1="26.8432" y1="34.1414" x2="35.59" y2="18.4224" gradientUnits="userSpaceOnUse">
<stop stop-color="#9C9C9C"/>
<stop offset="0.6118" stop-color="#7A7A7A"/>
<stop offset="1" stop-color="#4A4A4A"/>
</linearGradient>
<linearGradient id="paint6_linear_7716_79892" x1="187.08" y1="25.1881" x2="183.458" y2="45.6238" gradientUnits="userSpaceOnUse">
<stop stop-color="#626262"/>
<stop offset="0.502" stop-color="#929292"/>
<stop offset="1" stop-color="#646464"/>
</linearGradient>
<linearGradient id="paint7_linear_7716_79892" x1="126.693" y1="25.9224" x2="119.084" y2="41.5351" gradientUnits="userSpaceOnUse">
<stop stop-color="#626262"/>
<stop offset="0.502" stop-color="#929292"/>
<stop offset="1" stop-color="#646464"/>
</linearGradient>
<linearGradient id="paint8_linear_7716_79892" x1="126.693" y1="15.797" x2="126.005" y2="20.9749" gradientUnits="userSpaceOnUse">
<stop stop-color="#626262"/>
<stop offset="0.502" stop-color="#929292"/>
<stop offset="1" stop-color="#646464"/>
</linearGradient>
<linearGradient id="paint9_linear_7716_79892" x1="217.386" y1="20.7195" x2="210.429" y2="43.1522" gradientUnits="userSpaceOnUse">
<stop stop-color="#626262"/>
<stop offset="0.502" stop-color="#929292"/>
<stop offset="1" stop-color="#646464"/>
</linearGradient>
<linearGradient id="paint10_linear_7716_79892" x1="203.848" y1="25.1881" x2="199.807" y2="45.4598" gradientUnits="userSpaceOnUse">
<stop stop-color="#626262"/>
<stop offset="0.502" stop-color="#929292"/>
<stop offset="1" stop-color="#646464"/>
</linearGradient>
<linearGradient id="paint11_linear_7716_79892" x1="168.195" y1="25.9224" x2="165.29" y2="44.7964" gradientUnits="userSpaceOnUse">
<stop stop-color="#626262"/>
<stop offset="0.502" stop-color="#929292"/>
<stop offset="1" stop-color="#646464"/>
</linearGradient>
<linearGradient id="paint12_linear_7716_79892" x1="147.964" y1="25.0553" x2="144.445" y2="44.6218" gradientUnits="userSpaceOnUse">
<stop stop-color="#626262"/>
<stop offset="0.502" stop-color="#929292"/>
<stop offset="1" stop-color="#646464"/>
</linearGradient>
<clipPath id="clip0_7716_79892">
<rect width="301" height="60" fill="white"/>
</clipPath>
</defs>
</svg>
