<svg width="310" height="60" viewBox="0 0 310 60" fill="none" xmlns="http://www.w3.org/2000/svg">
<path d="M56.1013 6.48659L49.1743 0V4.24107H9.02026V19.8242H32.3243C34.3469 19.8242 35.989 21.4716 35.989 23.4888C35.989 25.5061 34.3415 27.1535 32.3243 27.1535H9.02026V47.4726H13.5169V31.6502H32.3243C33.2377 31.6502 34.1186 31.4979 34.9396 31.2206C38.1584 30.1277 40.4856 27.0774 40.4856 23.4888C40.4856 19.9003 38.1639 16.85 34.9396 15.7571C34.1186 15.4744 33.2377 15.3275 32.3243 15.3275H13.5169V8.73768H49.1743V12.9788L56.1013 6.49203V6.48659Z" fill="url(#paint0_linear_7716_79734)"/>
<path d="M54.8198 23.7385C54.8198 19.3343 53.2148 15.2783 50.5165 12.0322H43.6971C47.5066 14.7237 49.9639 18.97 49.9639 23.7385C49.9639 29.3823 46.5189 34.2923 41.4691 36.7662C40.0934 37.4404 38.5532 37.7775 36.9953 37.7775H21.4343V51.2673H7.98955V47.0262L0.5 53.5128L7.98955 59.9995V55.7585H26.296V42.4155H36.6779C37.3716 42.4155 38.0712 42.3611 38.759 42.2578C39.6349 42.1218 40.7813 41.9262 41.2104 41.7793C49.1467 39.0716 54.8256 32.0031 54.8256 23.733L54.8198 23.7385Z" fill="url(#paint1_linear_7716_79734)"/>
<path d="M77.6312 20.957C76.3497 20.957 75.0923 21.2097 73.895 21.7091C72.9985 22.0821 72.2344 22.5454 71.6147 23.0929V21.3723H67.6318V48.9999H71.6147V40.0895C72.8842 40.7753 74.5388 41.1183 76.5543 41.1183C79.5385 41.1183 81.9811 40.1196 83.8102 38.1522C85.6572 36.1607 86.5958 33.6699 86.5958 30.7519C86.5958 27.8339 85.7715 25.5236 84.1531 23.7307C82.5707 21.8896 80.3808 20.9631 77.6372 20.9631L77.6312 20.957ZM82.4023 30.8723C82.4023 32.7976 81.8367 34.3738 80.7297 35.559C79.6227 36.7443 78.1246 37.34 76.2655 37.34C74.5508 37.34 72.9865 36.9007 71.6208 36.0404V27.0879C72.9384 25.4996 74.5929 24.7294 76.6806 24.7294C78.4555 24.7294 79.8694 25.2889 80.8741 26.3839C81.8909 27.4909 82.4023 29.0012 82.4023 30.8663V30.8723Z" fill="#8A8A8A"/>
<path d="M99.0388 21.041C97.2579 21.041 95.7959 21.6727 94.6829 22.9241V21.372H90.7V40.7028H94.6829V27.2199C95.5372 25.6015 96.7044 24.8134 98.2506 24.8134C99.0689 24.8134 99.8631 25.0359 100.615 25.4751L100.958 25.6737L102.348 21.9616L102.149 21.8111C101.457 21.2997 100.417 21.041 99.0508 21.041H99.0388Z" fill="#8A8A8A"/>
<path d="M113.851 20.957C110.813 20.957 108.31 21.9257 106.397 23.8329C104.484 25.7401 103.563 28.1347 103.563 31.0346C103.563 33.9346 104.514 36.3412 106.397 38.2785H106.403C108.34 40.1616 110.843 41.1183 113.851 41.1183C116.859 41.1183 119.38 40.1617 121.263 38.2845C123.171 36.3773 124.139 33.9406 124.139 31.0407C124.139 28.1407 123.171 25.7161 121.263 23.8389C119.38 21.9317 116.889 20.9631 113.851 20.9631V20.957ZM118.237 35.5952C117.106 36.7563 115.626 37.34 113.851 37.34C112.076 37.34 110.59 36.7443 109.441 35.5711C108.322 34.4219 107.75 32.8997 107.75 31.0346C107.75 29.1695 108.334 27.6475 109.483 26.4923C110.602 25.3191 112.07 24.7294 113.845 24.7294C115.62 24.7294 117.094 25.3251 118.207 26.4923C119.356 27.6956 119.94 29.2237 119.94 31.0346C119.94 32.8456 119.362 34.434 118.231 35.5952H118.237Z" fill="#8A8A8A"/>
<path d="M139.438 27.1787H128.861V30.9511H139.438V27.1787Z" fill="#8A8A8A"/>
<path d="M154.414 20.957C151.375 20.957 148.873 21.9257 146.959 23.8329C145.076 25.7161 144.125 28.1347 144.125 31.0346C144.125 33.9346 145.076 36.3412 146.959 38.2785H146.965C148.903 40.1616 151.405 41.1183 154.414 41.1183C157.422 41.1183 159.943 40.1617 161.826 38.2845C163.733 36.3773 164.702 33.9406 164.702 31.0407C164.702 28.1407 163.733 25.7161 161.826 23.8389C159.943 21.9317 157.452 20.9631 154.414 20.9631V20.957ZM158.8 35.5952C157.669 36.7563 156.189 37.34 154.414 37.34C152.639 37.34 151.153 36.7443 150.004 35.5711C148.885 34.4219 148.313 32.8997 148.313 31.0346C148.313 29.1695 148.897 27.6475 150.046 26.4923C151.165 25.3191 152.633 24.7294 154.408 24.7294C156.183 24.7294 157.657 25.3251 158.77 26.4923C159.919 27.6956 160.502 29.2237 160.502 31.0346C160.502 32.8456 159.925 34.434 158.794 35.5952H158.8Z" fill="#8A8A8A"/>
<path d="M178.269 20.9572C177.186 20.9572 176.079 21.1678 174.978 21.5829C174.142 21.8957 173.414 22.2928 172.794 22.7681V11H168.812V38.7961L168.95 38.8983C170.959 40.3724 173.595 41.1184 176.777 41.1184C179.96 41.1184 182.619 40.1799 184.557 38.3268C186.494 36.4436 187.481 33.8926 187.481 30.746C187.481 27.828 186.638 25.4455 184.99 23.6766C183.353 21.8717 181.097 20.9513 178.275 20.9513L178.269 20.9572ZM181.524 35.6134C180.351 36.7625 178.811 37.3462 176.946 37.3462C175.369 37.3462 173.98 36.9671 172.794 36.215V26.9316C173.282 26.348 173.962 25.8366 174.81 25.4094C175.7 24.9642 176.615 24.7415 177.523 24.7415C179.274 24.7415 180.682 25.3011 181.723 26.4021C182.764 27.5091 183.293 29.0615 183.293 31.0048C183.293 32.9481 182.698 34.4762 181.524 35.6194V35.6134Z" fill="#8A8A8A"/>
<path d="M213.609 21.041C212.207 21.041 210.89 21.3479 209.686 21.9495C208.664 22.4609 207.809 23.1348 207.135 23.9591C206.72 23.1408 206.064 22.473 205.192 21.9616C204.151 21.3539 202.882 21.047 201.414 21.047C200.18 21.047 198.971 21.3058 197.816 21.8232C196.943 22.2082 196.191 22.6895 195.566 23.2611V21.378H191.583V40.7088H195.566V27.1236C196.691 25.5713 198.189 24.8194 200.126 24.8194C201.275 24.8194 202.178 25.1383 202.822 25.764C203.465 26.3957 203.778 27.2439 203.778 28.345V40.7088H207.761V28.5134C207.761 27.7614 207.749 27.4185 207.731 27.2501C208.14 26.5221 208.742 25.9384 209.518 25.5052C210.336 25.054 211.263 24.8194 212.279 24.8194C214.764 24.8194 215.974 26.2032 215.974 29.049V40.7028H219.956V28.1345C219.956 23.4296 217.821 21.041 213.609 21.041Z" fill="#8A8A8A"/>
<path d="M240.016 23.46C238.325 21.7994 236.172 20.957 233.603 20.957C230.504 20.957 228.049 21.9257 226.305 23.845C224.542 25.7522 223.645 28.1708 223.645 31.0407C223.645 34.079 224.602 36.5458 226.479 38.3688C228.332 40.1918 230.853 41.1183 233.97 41.1183C236.918 41.1183 239.348 40.2639 241.201 38.5853L241.37 38.4289L240.07 35.15L239.715 35.4869C238.404 36.7203 236.551 37.3461 234.216 37.3461C232.453 37.3461 230.997 36.8707 229.89 35.9321C228.874 35.0718 228.26 33.8865 228.073 32.4124H242.332L242.387 32.1477C242.531 31.4378 242.603 30.6616 242.603 29.8434C242.603 27.2443 241.731 25.0965 240.016 23.466V23.46ZM229.608 26.023C230.606 25.1687 231.894 24.7354 233.434 24.7354C234.974 24.7354 236.16 25.1506 237.044 25.9748C237.856 26.7269 238.331 27.7618 238.47 29.0493H227.893C228.128 27.8159 228.699 26.7991 229.608 26.023Z" fill="#8A8A8A"/>
<path d="M256.212 21.0412C255.039 21.0412 253.859 21.2939 252.698 21.7932C251.826 22.1723 251.074 22.6356 250.442 23.1891V21.3721H246.459V40.703H250.442V27.0155C251.766 25.5535 253.426 24.8135 255.382 24.8135C258.703 24.8135 260.321 26.5763 260.321 30.2043V40.697H264.304V29.5785C264.304 23.911 261.585 21.0352 256.218 21.0352L256.212 21.0412Z" fill="#8A8A8A"/>
<path d="M271.019 35.6016C270.267 35.6016 269.629 35.8543 269.105 36.3596C268.582 36.865 268.323 37.4606 268.323 38.1345C268.323 38.8865 268.588 39.5304 269.105 40.0478C269.623 40.5652 270.267 40.8298 271.019 40.8298C271.771 40.8298 272.36 40.5652 272.842 40.0358C273.311 39.5184 273.552 38.8805 273.552 38.1345C273.552 37.4666 273.293 36.8711 272.787 36.3657C272.282 35.8603 271.686 35.6076 271.019 35.6076V35.6016Z" fill="#8A8A8A"/>
<path d="M286.288 21.041C284.507 21.041 283.045 21.6727 281.932 22.9241V21.372H277.949V40.7028H281.932V27.2199C282.787 25.6015 283.954 24.8134 285.5 24.8134C286.318 24.8134 287.112 25.0359 287.864 25.4751L288.207 25.6737L289.597 21.9616L289.399 21.8111C288.707 21.2997 287.666 21.041 286.3 21.041H286.288Z" fill="#8A8A8A"/>
<path d="M305.12 21.3722V34.783C304.555 35.529 303.809 36.1426 302.912 36.6119C301.986 37.0992 301.035 37.34 300.102 37.34C297.088 37.34 295.62 35.6193 295.62 32.0695V21.3662H291.637V32.8156C291.637 35.517 292.275 37.5927 293.526 38.9885C294.79 40.3964 296.583 41.1122 298.857 41.1122C301.312 41.1122 303.417 40.2518 305.12 38.5552V40.6971H309.103V21.3662H305.12V21.3722Z" fill="#8A8A8A"/>
<defs>
<linearGradient id="paint0_linear_7716_79734" x1="32.5635" y1="-1453.64" x2="32.5635" y2="-1453.64" gradientUnits="userSpaceOnUse">
<stop stop-color="#CDCDCD"/>
<stop offset="1" stop-color="#545454"/>
</linearGradient>
<linearGradient id="paint1_linear_7716_79734" x1="-2117.36" y1="-1909.55" x2="-2117.36" y2="-1909.55" gradientUnits="userSpaceOnUse">
<stop stop-color="#CCCCCC"/>
<stop offset="1" stop-color="#757575"/>
</linearGradient>
</defs>
</svg>
