<svg width="140" height="140" viewBox="0 0 140 140" fill="none" xmlns="http://www.w3.org/2000/svg">
<path d="M96.9947 63.1283C96.8632 66.0458 96.9053 68.9844 96.5684 71.8756C95.6054 80.1594 91.7688 86.9476 85.4587 92.356C81.9168 95.3946 77.9013 97.6275 73.57 99.3074C71.0965 100.266 68.6125 100.219 66.1389 99.2337C60.313 96.9218 55.1239 93.6726 50.9505 88.9382C46.6666 84.088 44.051 78.4426 43.3405 72.0072C43.0195 69.1108 43.0879 66.1722 43.0247 63.2547C42.9826 61.2904 43.0037 59.3261 43.0195 57.3618C43.0563 52.4537 45.8508 48.4566 50.4347 46.7082C55.5502 44.7544 60.6656 42.7901 65.7758 40.8153C68.5177 39.7568 71.2491 39.7146 73.9963 40.7731C79.1907 42.769 84.4008 44.7439 89.5847 46.7661C94.1633 48.5514 96.8526 52.5221 96.8789 57.4303C96.8895 59.3261 96.8789 61.222 96.8789 63.1231H97L96.9947 63.1283ZM66.9599 73.9241C66.7336 73.624 66.6073 73.4081 66.4389 73.2395C64.5654 71.3595 62.6971 69.4742 60.8077 67.6099C59.8815 66.6936 58.5552 66.6936 57.7027 67.5678C56.8659 68.4262 56.8712 69.7269 57.7658 70.6275C60.3288 73.2027 62.9023 75.7726 65.4811 78.332C66.3705 79.2167 67.5915 79.2431 68.4704 78.3689C73.0385 73.8241 77.6013 69.274 82.1379 64.6924C82.4694 64.3554 82.6852 63.8182 82.7589 63.339C82.901 62.449 82.3484 61.6064 81.5274 61.243C80.6643 60.8586 79.7696 61.0376 79.0275 61.7855C75.5383 65.2664 72.0543 68.7527 68.5756 72.2389C68.0704 72.7445 67.5862 73.2659 66.9547 73.9241H66.9599Z" fill="#4D7BF1"/>
</svg>
