<svg width="283" height="60" viewBox="0 0 283 60" fill="none" xmlns="http://www.w3.org/2000/svg">
<path d="M115.662 27.1406H121.971L115.662 47.0245H110.143L106.985 36.4036L103.828 47.0245H98.3087L92 27.1406H98.3087L101.147 37.8023L104.223 27.1406H109.742L112.818 37.8023L115.656 27.1406H115.662Z" fill="#8A8A8A"/>
<path d="M128.836 39.4743C129.521 41.3315 131.099 42.2602 133.566 42.2602C135.168 42.2602 136.433 41.7553 137.35 40.7513L142.08 43.4965C140.136 46.2301 137.269 47.5938 133.485 47.5938C130.171 47.5938 127.524 46.6015 125.539 44.6107C123.554 42.62 122.562 40.1186 122.562 37.0948C122.562 34.0711 123.543 31.5987 125.498 29.5964C127.454 27.5941 129.973 26.5957 133.049 26.5957C135.916 26.5957 138.302 27.5941 140.205 29.5964C142.115 31.5987 143.067 34.1001 143.067 37.0948C143.067 37.9422 142.985 38.7372 142.829 39.4801H128.83L128.836 39.4743ZM128.72 35.0228H137.199C136.619 32.9277 135.226 31.883 133.02 31.883C130.815 31.883 129.3 32.9335 128.72 35.0228Z" fill="#8A8A8A"/>
<path d="M146.421 47.0307V18H152.335V47.0307H146.421Z" fill="#8A8A8A"/>
<path d="M156.67 47.0307V18H162.584V47.0307H156.67Z" fill="#8A8A8A"/>
<path d="M176.386 47.5881C173.391 47.5881 170.896 46.5781 168.917 44.5642C166.932 42.5503 165.939 40.0547 165.939 37.089C165.939 34.1232 166.932 31.6275 168.917 29.6136C170.901 27.5997 173.391 26.5898 176.386 26.5898C178.278 26.5898 180.019 27.0542 181.609 27.9828C183.2 28.9115 184.43 30.1418 185.301 31.6798L180.135 34.7036C179.427 33.2178 178.15 32.475 176.311 32.475C175.022 32.475 173.954 32.9045 173.119 33.7692C172.277 34.634 171.859 35.7367 171.859 37.089C171.859 38.4413 172.277 39.5498 173.119 40.4087C173.96 41.2735 175.028 41.703 176.311 41.703C178.179 41.703 179.45 40.96 180.135 39.4743L185.301 42.4575C184.436 44.0245 183.211 45.2665 181.633 46.1951C180.054 47.1237 178.307 47.5881 176.386 47.5881Z" fill="#8A8A8A"/>
<path d="M193.781 30.681C194.147 29.41 194.89 28.4349 196.01 27.7559C197.124 27.0827 198.354 26.7402 199.701 26.7402V33.5018C198.256 33.2638 196.909 33.5076 195.662 34.2389C194.414 34.9701 193.787 36.2352 193.787 38.0344V47.0245H187.873V27.1407H193.787V30.681H193.781Z" fill="#8A8A8A"/>
<path d="M215.272 27.1406H221.581L214.837 46.4325C213.734 49.5607 212.283 51.801 210.478 53.1533C208.679 54.5056 206.38 55.1151 203.6 54.9816V49.4157C204.964 49.4157 206.021 49.1719 206.752 48.6786C207.489 48.1853 208.081 47.3322 208.528 46.1134L200.681 27.1406H207.187L211.563 39.3113L215.266 27.1406H215.272Z" fill="#8A8A8A"/>
<path d="M235.539 26.5898C238.139 26.5898 240.362 27.6055 242.202 29.631C244.042 31.6566 244.964 34.1465 244.964 37.089C244.964 40.0315 244.042 42.5155 242.202 44.5468C240.362 46.5723 238.139 47.5881 235.539 47.5881C232.939 47.5881 231.058 46.7813 229.66 45.162V54.988H223.746V27.147H229.66V29.0159C231.053 27.3967 233.014 26.5898 235.539 26.5898ZM230.983 40.6292C231.865 41.5056 232.985 41.9409 234.355 41.9409C235.725 41.9409 236.845 41.5056 237.727 40.6292C238.609 39.7528 239.05 38.5748 239.05 37.089C239.05 35.6032 238.609 34.425 237.727 33.5486C236.845 32.6722 235.725 32.2369 234.355 32.2369C232.985 32.2369 231.865 32.6722 230.983 33.5486C230.101 34.425 229.66 35.6032 229.66 37.089C229.66 38.5748 230.101 39.7528 230.983 40.6292Z" fill="#8A8A8A"/>
<path d="M259.473 32.8694H255.411V39.9093C255.411 40.7045 255.724 41.2094 256.357 41.4184C256.989 41.6331 258.028 41.697 259.473 41.6158V47.0248C255.713 47.4195 253.112 47.0597 251.667 45.9338C250.222 44.8078 249.497 42.7996 249.497 39.9093V32.8694H246.345V27.141H249.497V23.3627L255.411 21.5752V27.141H259.473V32.8694Z" fill="#8A8A8A"/>
<path d="M279.306 44.5468C277.28 46.5723 274.808 47.5881 271.894 47.5881C268.981 47.5881 266.502 46.5723 264.483 44.5468C262.457 42.5155 261.447 40.0315 261.447 37.089C261.447 34.1465 262.457 31.6624 264.483 29.631C266.508 27.5997 268.981 26.5898 271.894 26.5898C274.808 26.5898 277.286 27.6055 279.306 29.631C281.331 31.6566 282.341 34.1465 282.341 37.089C282.341 40.0315 281.331 42.5155 279.306 44.5468ZM268.661 40.4726C269.526 41.349 270.606 41.7843 271.894 41.7843C273.183 41.7843 274.262 41.349 275.127 40.4726C275.992 39.5963 276.427 38.4703 276.427 37.0948C276.427 35.7193 275.992 34.5875 275.127 33.7169C274.262 32.8406 273.183 32.4053 271.894 32.4053C270.606 32.4053 269.526 32.8406 268.661 33.7169C267.797 34.5933 267.361 35.7193 267.361 37.0948C267.361 38.4703 267.797 39.6021 268.661 40.4726Z" fill="#8A8A8A"/>
<path d="M73.5907 3.99781C73.3366 2.48557 71.7588 1.60038 70.349 2.17823L57.2716 7.55913L54.3045 8.78039C53.1324 9.26398 53.3168 10.9894 54.5627 11.2066C56.0872 11.4689 57.8781 11.8623 59.7879 12.4402C59.8371 12.4566 59.8863 12.4729 59.9395 12.4893L59.8658 12.6205C61.628 16.8621 62.6034 21.5176 62.6034 26.4068C62.6034 29.0952 62.3083 31.714 61.7468 34.2344L70.644 18.5177C71.935 19.5997 73.144 20.7759 74.2628 22.0381C75.107 22.993 76.6643 22.2553 76.4512 20.9931L73.5866 3.99781H73.5907Z" fill="url(#paint0_linear_7716_79808)"/>
<path d="M62.6077 26.4065C62.6077 21.5173 61.6324 16.8618 59.8701 12.6201L58.28 15.4274C60.7717 19.3945 62.2184 24.091 62.2184 29.1318C62.2184 30.9145 62.0381 32.6522 61.6938 34.3324L61.7512 34.2341C62.3086 31.7137 62.6077 29.0949 62.6077 26.4065Z" fill="#797979"/>
<path d="M58.2793 15.4273L46.3699 36.4797L37.6612 17.4436C36.8498 15.6691 35.2679 14.4109 33.4237 14.001C32.9975 13.9068 32.5548 13.8536 32.104 13.8536C29.7107 13.8454 27.5468 15.2469 26.5387 17.4313L24.9609 20.8574L24.0634 22.8122L17.3628 37.3649L17.0226 36.7666L11.4614 26.935L10.9696 26.0662C10.2811 24.8491 8.74425 24.4269 7.53938 25.1195L1.26911 28.7301C0.0642355 29.4227 -0.357884 30.9759 0.330616 32.193L12.6048 53.8848C13.699 55.8151 15.7317 56.9995 17.9242 56.9995C18.0103 56.9995 18.0964 56.9995 18.1824 56.9954C18.4939 56.9831 18.7972 56.9421 19.0963 56.8848C21.0061 56.5118 22.6495 55.2373 23.4855 53.4259L24.3666 51.512L32.0836 34.7503L32.395 35.4306L40.2308 52.5652C40.5382 53.2414 40.9603 53.8398 41.4644 54.348C42.5299 55.4217 43.9725 56.0815 45.5257 56.1512C46.0093 56.1716 46.4888 56.1307 46.9519 56.0405C48.6813 55.7003 50.214 54.6266 51.1115 53.0406L51.4763 52.3931L53.8983 48.1146L61.6931 34.3405C62.0374 32.6602 62.2177 30.9226 62.2177 29.1399C62.2177 24.0991 60.771 19.4025 58.2793 15.4354V15.4273Z" fill="url(#paint1_linear_7716_79808)"/>
<defs>
<linearGradient id="paint0_linear_7716_79808" x1="64.9967" y1="143.587" x2="64.9967" y2="143.587" gradientUnits="userSpaceOnUse">
<stop stop-color="#D6D6D6"/>
<stop offset="1" stop-color="#B9B9B9"/>
</linearGradient>
<linearGradient id="paint1_linear_7716_79808" x1="8.35081" y1="15.9682" x2="83.8562" y2="69.0646" gradientUnits="userSpaceOnUse">
<stop stop-color="#C1C1C1"/>
<stop offset="1" stop-color="#939393"/>
</linearGradient>
</defs>
</svg>
