<svg width="126" height="40" viewBox="0 0 126 40" fill="none" xmlns="http://www.w3.org/2000/svg">
<path d="M106.103 31.3333H99.332L108.348 20.1353V19.7632L99.332 8.66666H106.103L112.596 16.7522H112.976L119.228 8.66666H125.999L117.018 19.8647V20.2368L125.999 31.3333H119.228L112.769 23.1463H112.389L106.103 31.3333Z" fill="#0066FF"/>
<path d="M98.0013 31.3333H78.668V8.66666H98.0013V13.2338H83.7826V17.6657H97.4901V22.199H83.7826V26.7662H98.0013V31.3333Z" fill="#0066FF"/>
<path d="M64.6154 32C56.8279 32 52 27.2696 52 20C52 12.7304 56.8279 8 64.6154 8C71.945 8 76.6667 11.6174 76.6667 17.5304V18.0522H70.7821V17.5304C70.7821 14.4695 69.0201 13.0087 64.721 13.0087C59.5409 13.0087 57.6028 14.8174 57.6028 20C57.6028 25.1826 59.5409 26.9913 64.721 26.9913C69.0201 26.9913 70.7821 25.5304 70.7821 22.4695V21.9478H76.6667V22.4695C76.6667 28.3826 71.9802 32 64.6154 32Z" fill="white"/>
<path d="M43.1172 31.3333H28.668V8.66666H42.4651C47.1669 8.66666 49.7069 10.6289 49.7069 14.1811C49.7069 16.9891 48.1966 19.0189 44.3528 19.2895V19.594C48.6087 19.8985 50.668 21.996 50.668 25.0408C50.668 28.8975 48.2656 31.3333 43.1172 31.3333ZM33.8161 13.2338V17.6657H41.8817C43.7693 17.6657 44.5587 17.0229 44.5587 15.4667C44.5587 13.9105 43.735 13.2338 41.813 13.2338H33.8161ZM33.8161 21.8607V26.7662H42.4994C44.593 26.7662 45.4511 26.1234 45.4511 24.2965C45.4511 22.5034 44.593 21.8607 42.4994 21.8607H33.8161Z" fill="white"/>
<path d="M5.72569 31.3333H0L9.98586 8.66666H17.2793L27.3333 31.3333H21.4713L19.3242 26.3264H7.9069L5.72569 31.3333ZM12.0308 16.8199L9.88362 21.7592H17.3475L15.2003 16.8199L13.803 13.3015H13.4281L12.0308 16.8199Z" fill="white"/>
</svg>
