<svg width="138" height="40" viewBox="0 0 138 40" fill="none" xmlns="http://www.w3.org/2000/svg">
<g clip-path="url(#clip0_6795_168754)">
<path d="M14.3174 24.8731H7.45472L6.3818 28.0481H0.667969L8.26954 8.49725H13.4823L21.2509 28.0532H15.3802L14.3123 24.8783L14.3174 24.8731ZM10.8759 14.5967L8.75539 20.6552H13.0167L10.8759 14.5967Z" fill="white"/>
<path d="M37.625 18.8503V28.048H32.483V19.5712C32.483 17.8175 31.8302 16.9433 30.5345 16.9433C28.9302 16.9433 28.0091 18.0732 28.0091 19.9955V28.0531H22.8672V12.9656H26.4757L27.1842 14.5199C28.2976 13.2672 29.9525 12.5157 31.8858 12.5157C35.3526 12.5157 37.63 15.0056 37.63 18.8503H37.625Z" fill="white"/>
<path d="M50.6576 23.4977V28.0479H47.12C43.8152 28.0479 41.811 26.008 41.811 22.6541V16.9637H39.0781V15.7469L45.7687 8.54822H46.8265V12.9656H50.5766V16.9688H46.953V21.7696C46.953 22.8484 47.5957 23.5028 48.6838 23.5028H50.6576V23.4977Z" fill="white"/>
<path d="M53.0547 12.9655H58.1966V28.053H53.0547V12.9655ZM53.0952 6.66669H58.1612V11.0738H53.0952V6.66669Z" fill="white"/>
<path d="M60.7523 21.7336H66.2536C66.2536 23.1293 67.3214 23.8093 68.5361 23.8093C69.6546 23.8093 70.7174 23.2111 70.7174 22.1426C70.7174 20.9155 69.2092 20.5628 67.367 20.1077C64.5683 19.4022 60.9952 18.5381 60.9952 14.085C60.9952 10.2352 63.794 8.02649 68.3589 8.02649C72.9239 8.02649 75.6619 10.4346 75.6619 14.4122H70.3125C70.3125 13.1749 69.4015 12.5972 68.2931 12.5972C67.3417 12.5972 66.4307 13.0113 66.4307 13.9265C66.4307 15.036 67.8883 15.4041 69.7102 15.8693C72.5595 16.6107 76.2844 17.5718 76.2844 22.0403C76.2844 26.5088 73.0353 28.5283 68.5411 28.5283C63.8041 28.5283 60.7422 25.9975 60.7422 21.7336H60.7523Z" fill="white"/>
<path d="M100.993 12.9656L96.2356 28.0531H92.0906L89.135 21.2941L86.2452 28.0531H82.1003L77.2266 12.9656H82.6114L84.8737 20.8851L88.4012 13.0116H89.7879L93.5128 20.9567L95.7396 12.9604H100.993V12.9656Z" fill="white"/>
<path d="M118.205 12.9501V28.0376H114.227L113.787 26.969C112.562 27.9711 111.013 28.5437 109.282 28.5437C104.717 28.5437 101.453 25.1796 101.453 20.4913C101.453 15.803 104.717 12.4951 109.282 12.4951C111.044 12.4951 112.613 13.0881 113.847 14.1158L114.374 12.9501H118.205ZM113.311 20.5066C113.311 18.5485 111.894 17.076 109.971 17.076C108.048 17.076 106.625 18.5485 106.625 20.5066C106.625 22.4648 108.043 23.9474 109.971 23.9474C111.899 23.9474 113.311 22.475 113.311 20.5066Z" fill="white"/>
<path d="M138 20.5065C138 25.205 134.735 28.5589 130.17 28.5589C128.819 28.5589 127.584 28.2011 126.532 27.5569V33.4978H121.445V12.9653H124.942L125.585 14.1617C126.815 13.088 128.394 12.4694 130.17 12.4694C134.735 12.4694 138 15.8079 138 20.5065ZM132.822 20.5065C132.822 18.5228 131.405 17.0554 129.482 17.0554C127.559 17.0554 126.142 18.5279 126.142 20.5065C126.142 22.4851 127.559 23.9575 129.482 23.9575C131.405 23.9575 132.822 22.4851 132.822 20.5065Z" fill="white"/>
</g>
<defs>
<clipPath id="clip0_6795_168754">
<rect width="137.333" height="40" fill="white" transform="translate(0.667969)"/>
</clipPath>
</defs>
</svg>
