<svg width="145" height="40" viewBox="0 0 145 40" fill="none" xmlns="http://www.w3.org/2000/svg">
<path d="M140.033 4.66669H59.6133V9.74164V30C59.6133 32.6901 59.6135 32 59.6133 34.6667H140.033C142.747 34.6667 144.947 32.486 144.947 29.7959V9.53753C144.947 6.84745 142.747 4.66669 140.033 4.66669Z" fill="url(#paint0_linear_5744_119195)"/>
<path d="M59.6146 4.66669V34.6667H5.22296C2.49445 34.6667 0.28125 32.4853 0.28125 29.7959V9.53753C0.28125 6.84816 2.49445 4.66669 5.22296 4.66669H59.6146Z" fill="url(#paint1_linear_5744_119195)"/>
<path d="M6.94922 11.334H12.9663C16.6258 11.2924 17.7606 13.2653 17.7606 15.571C17.7606 17.6688 17.2387 18.6047 16.4346 18.9821C17.5513 19.4931 18.2826 20.6579 18.2826 22.9577C18.2826 26.1697 16.732 28 12.8571 28H6.94922V11.334ZM12.4262 17.752C14.1801 17.752 14.5078 17.4132 14.5048 15.987C14.5048 14.8133 14.1042 14.436 12.6144 14.4449L10.2324 14.436L10.2385 17.752H12.4262ZM10.105 24.7167L12.6144 24.7316C14.5351 24.7524 14.9508 24.268 14.9781 22.8151C15.0054 21.1928 14.6019 20.7084 12.4111 20.7084L10.105 20.7144V24.7167Z" fill="white"/>
<path d="M30.178 20.821L23.5032 20.8329V24.7344H30.9479V28H20.2812V11.3333H30.7347L30.7495 14.4384H23.4617L23.4765 17.6743L30.178 17.7546V20.821Z" fill="white"/>
<path d="M139.51 20.821L132.835 20.8329V24.7344H140.28V28H129.613V11.3333H140.067L140.082 14.4384H132.794L132.809 17.6743L139.51 17.7546V20.821Z" fill="#1F1F1F"/>
<path d="M34.8335 22.0234C34.8896 24.5458 36.0966 25.4914 37.8089 25.4914C39.6398 25.4914 40.2791 24.7707 40.2791 23.5295C40.2791 21.9373 39.6834 21.1426 37.2569 20.9486C34.2939 20.7114 32.1637 19.4148 32.0857 15.6974C32.0077 11.9647 34.4717 10.7205 37.5314 10.6681C41.6047 10.5973 43.2546 13.1905 43.0831 16.5752L39.8924 16.526C39.8674 14.6688 39.2343 13.7479 37.5251 13.7479C36.0842 13.7479 35.3387 14.2499 35.3512 15.3464C35.3668 16.6553 36.053 17.3206 38.4296 17.5916C43.0363 18.1182 43.6133 20.847 43.6133 23.3632C43.6133 26.2244 41.8729 28.6667 37.6655 28.6667C34.1598 28.6667 31.543 27.1329 31.6147 22.008L34.8303 22.0234H34.8335Z" fill="white"/>
<path d="M48.2335 14.5157H44.2812V11.3333H54.9479V14.5692H51.2261V28H48.2335V14.5157Z" fill="white"/>
<path d="M74.9492 21.9224C74.5785 26.3231 72.8125 28.6667 69.0266 28.6667C64.3795 28.6667 62.9492 24.5647 62.9492 19.5666C62.9492 14.5685 64.8436 10.6667 69.1521 10.6667C73.1365 10.6667 74.885 13.3982 74.885 16.7826L71.9135 16.7981C71.7412 15.209 71.2187 13.8171 69.193 13.8171C66.7381 13.8171 66.1163 16.4224 66.1163 19.5697C66.1163 22.9017 66.6855 25.3377 69.2046 25.3377C71.175 25.3377 71.7266 23.8903 71.9514 21.9255H74.9492V21.9224Z" fill="#1F1F1F"/>
<path d="M76.9492 11.3333H79.8778V17.5562H84.6844V11.3333H87.6159V28H84.5658V20.7248H79.8778V28H76.9492V11.3333Z" fill="#1F1F1F"/>
<path d="M92.8612 24.4474L92.0174 28H88.9492C89.1243 27.3522 93.1195 12.069 93.3147 11.3333H96.4173L100.949 28H97.8323L96.9483 24.4767L92.8583 24.4474H92.8612ZM96.1848 21.4898C95.3582 18.1131 95.2836 17.7555 94.9822 16.199H94.7899C94.4685 18.0515 94.2819 18.6231 93.5874 21.4898H96.1848Z" fill="#1F1F1F"/>
<path d="M102.281 28V11.3333H105.443C107.731 16.416 109.391 19.0013 110.426 21.4254L110.508 11.3333H113.615L113.56 28H110.453C107.872 22.5656 105.427 17.8991 105.427 17.8991C105.479 20.4053 105.485 28 105.485 28H102.284H102.281Z" fill="#1F1F1F"/>
<path d="M127.61 28.411H125.123C125.03 27.8381 125.172 27.1729 125.138 26.5168C124.446 28.2663 122.879 28.6667 121.197 28.6667C117.293 28.6667 115.521 24.7642 115.617 19.6667C115.736 13.4388 117.424 10.6667 121.973 10.6667C126.119 10.6667 127.379 13.7868 127.379 16.9346L124.379 16.95C124.338 14.9572 123.542 13.8022 121.721 13.8022C119.381 13.8022 118.643 15.8781 118.646 19.7806C118.646 23.104 119.375 25.2539 121.643 25.2539C123.667 25.2539 124.524 24.3391 124.524 22.0907V22.0075L121.614 22.0353V18.8843H127.613V28.4141L127.61 28.411Z" fill="#1F1F1F"/>
<defs>
<linearGradient id="paint0_linear_5744_119195" x1="0.27994" y1="19.6667" x2="144.947" y2="19.6667" gradientUnits="userSpaceOnUse">
<stop stop-color="#F4F4F4"/>
<stop offset="1" stop-color="#BFBFBF"/>
</linearGradient>
<linearGradient id="paint1_linear_5744_119195" x1="0.28125" y1="19.6667" x2="59.6146" y2="19.6667" gradientUnits="userSpaceOnUse">
<stop stop-color="#4A4A4A"/>
<stop offset="1" stop-color="#171717"/>
</linearGradient>
</defs>
</svg>
