<svg width="151" height="40" viewBox="0 0 151 40" fill="none" xmlns="http://www.w3.org/2000/svg">
<path d="M6.88838 19.6685L3.48615 23.037L0.0507812 19.6685L3.48246 16.2709L6.8847 19.6685H6.88838ZM15.2025 11.4328L21.0607 17.2349L24.496 13.8373L15.2062 4.66669L5.91632 13.87L9.35169 17.2676L15.2099 11.4364L15.2025 11.4328ZM26.9189 16.2673L23.5166 19.6649L26.9483 23.0625L30.38 19.6649L26.9189 16.2673ZM15.2025 27.9006L9.34433 22.0694L5.90896 25.467L15.1988 34.6667L24.4887 25.4633L21.0533 22.0657L15.1951 27.8969L15.2025 27.9006ZM15.2025 23.037L18.6342 19.6358L15.2025 16.2673L11.7708 19.6649L15.2025 23.0334V23.037ZM51.3015 23.3899V23.3316C51.3015 21.1345 50.1159 20.0214 48.1939 19.2865C49.3758 18.6427 50.3847 17.5877 50.3847 15.7398V15.6816C50.3847 13.1025 48.2822 11.4328 44.9095 11.4328H37.1881V27.8715H45.0899C48.8456 27.9006 51.3015 26.3764 51.3015 23.3899ZM46.7431 16.3582C46.7431 17.5878 45.7379 18.0861 44.1104 18.0861H40.7377V14.5976H44.3461C45.8852 14.5976 46.7431 15.2123 46.7431 16.2964V16.3546V16.3582ZM47.66 22.9206C47.66 24.1501 46.6842 24.7067 45.0862 24.7067H40.7377V21.1017H44.9684C46.8315 21.1017 47.66 21.7784 47.66 22.8879V22.9169V22.9206ZM58.9639 27.9006V11.4328H55.2966V27.8715H58.9639V27.9006ZM78.6115 27.9006V11.4328H74.9993V21.571L67.2191 11.4328H63.8463V27.8715H67.4585V17.4386L75.5075 27.9006H78.6151H78.6115ZM98.8481 27.9006L91.7196 11.3455H88.3468L81.2147 27.9006H84.9741L86.4837 24.2083H93.4981L95.0077 27.9006H98.8518H98.8481ZM92.1909 21.0144H87.7835L90.0038 15.6816L92.1946 21.0144H92.1909ZM116.275 27.9006V11.4328H112.663V21.571L104.883 11.4328H101.51V27.8715H105.122V17.4386L113.171 27.9006H116.279H116.275ZM135.124 25.2342L132.786 22.9206C131.482 24.0919 130.33 24.8522 128.408 24.8522C125.569 24.8522 123.584 22.5095 123.584 19.694V19.6067C123.584 16.7947 125.595 14.4812 128.408 14.4812C130.065 14.4812 131.368 15.1832 132.668 16.3255L135.006 13.6591C133.467 12.164 131.604 11.109 128.467 11.109C123.378 11.109 119.799 14.9468 119.799 19.6067V19.6649C119.799 24.3829 123.437 28.1334 128.319 28.1334C131.515 28.1625 133.408 27.0494 135.124 25.2342ZM150.717 27.9006V24.6776H141.693V21.2182H149.532V17.9952H141.693V14.6558H150.6V11.4328H138.084V27.8715H150.717V27.9006Z" fill="#EDB60B"/>
</svg>
