<svg width="134" height="40" viewBox="0 0 134 40" fill="none" xmlns="http://www.w3.org/2000/svg">
<path d="M48.4208 9.22626C52.1362 9.22626 55.929 10.7184 55.929 14.546C55.929 16.6653 54.6131 18.4818 52.9231 19.455C55.4387 20.3092 56.6901 21.9851 56.6901 23.8773C56.6901 28.9484 53.2843 30.4622 48.911 30.4622H37.1328V9.22626H48.4337H48.4208ZM42.4995 17.4654H47.6597C48.9497 17.4654 49.7367 16.3626 49.7367 15.3246C49.7367 14.2 48.9497 13.1837 47.3372 13.1837H42.4866V17.4546L42.4995 17.4654ZM42.4995 26.9265H48.0467C49.7754 26.9265 50.6655 25.5857 50.6655 24.2449C50.6655 22.9042 49.7496 21.5634 48.0467 21.5634H42.4995V26.9156V26.9265Z" fill="#00A6B1"/>
<path d="M64.6099 13.2269H58.3789V9.04239H64.6099V13.2269ZM64.6099 30.6459H58.3789V14.9893H64.6099V30.6459Z" fill="#00A6B1"/>
<path d="M78.5005 18.5358H75.1334V24.1151C75.1334 25.6613 75.2882 26.2668 77.2104 26.2668C77.6232 26.2668 78.0876 26.2668 78.5005 26.202V30.5378C77.0814 30.6243 76.5138 30.6567 75.2237 30.6567C70.6827 30.6567 68.9282 29.3268 68.9282 25.5316V18.525H66.2578V14.7947H68.9282V9.04239H75.1334V14.8055H78.5005V18.5358Z" fill="#00A6B1"/>
<path d="M99.1588 28.8943C99.1588 34.8412 95.0048 36.7442 89.3415 36.7442C85.1875 36.7442 81.2141 35.3494 80.6207 30.9054H85.7809C86.1163 31.9867 87.071 33.1112 89.793 33.1112C92.515 33.1112 93.6632 31.5001 93.6632 29.8458V27.9752C92.4118 29.4349 90.1026 30.0296 88.0514 30.0296C83.562 30.0296 80.1562 27.0777 80.1562 22.2121C80.1562 17.3464 83.7039 14.3297 88.1288 14.3297C90.3993 14.3297 92.6956 15.0866 93.8567 16.7625L93.8954 14.8055H99.1846V28.8834L99.1588 28.8943ZM85.2262 22.2337C85.2262 25.8235 87.6773 26.2019 89.5221 26.2019C92.1796 26.2019 93.431 24.5044 93.431 22.3743C93.431 19.4549 91.4701 18.2655 89.5995 18.2655C87.1742 18.2655 85.2262 19.1629 85.2262 22.2445V22.2337Z" fill="#00A6B1"/>
<path d="M110.769 30.9056C105.364 30.9056 100.965 28.0186 100.965 22.8069C100.965 17.9196 104.964 14.4055 110.537 14.4055C116.11 14.4055 120.109 17.9521 120.109 23.4773V23.9314H106.525C106.628 25.9318 107.673 27.4671 110.318 27.4671C112.292 27.4671 113.44 26.6886 114.111 25.7479H119.722C118.652 29.262 114.523 30.9056 110.756 30.9056H110.769ZM110.318 17.8331C108.537 17.8331 106.86 19.1415 106.525 20.9255H114.123C113.956 19.3145 112.279 17.8331 110.331 17.8331H110.318Z" fill="#00A6B1"/>
<path d="M133.153 18.5358H129.386V24.1151C129.386 25.6613 129.941 26.9372 131.863 26.9372C132.276 26.9372 132.74 26.9372 133.153 26.8723V30.5486C131.734 30.6351 131.166 30.6676 129.876 30.6676C125.335 30.6676 123.581 29.3376 123.581 25.5424V18.5358H120.91V14.8055H123.581V9.04239H129.425V14.8055H133.166V18.5358H133.153Z" fill="#00A6B1"/>
<path d="M14.2631 13.2269L23.1387 20.9903L11.4766 30.6676H20.0167L30.3243 21.9094C30.8919 21.4228 30.9048 20.6443 30.3243 20.1577L22.3131 13.2052L14.2502 13.2377L14.2631 13.2269Z" fill="#00A6B1"/>
<path d="M16.6598 20.774L7.78416 13.0106L19.4592 3.33334H10.919L0.598539 12.0915C0.0309136 12.5781 0.0180131 13.3566 0.598539 13.8432L8.6098 20.7957L16.6727 20.7632L16.6598 20.774Z" fill="#00A6B1"/>
</svg>
