<svg width="195" height="40" viewBox="0 0 195 40" fill="none" xmlns="http://www.w3.org/2000/svg">
<path d="M9.16021 28.1804C7.37446 28.1804 5.83375 27.8767 4.53807 27.2696C3.24911 26.6557 2.25219 25.7944 1.54728 24.6855C0.849097 23.5701 0.5 22.2533 0.5 20.7353V20.7155C0.5 19.1975 0.849097 17.884 1.54728 16.7752C2.25219 15.6597 3.24911 14.7985 4.53807 14.1912C5.83375 13.584 7.37446 13.2804 9.16021 13.2804C10.6506 13.2804 11.9798 13.5081 13.148 13.9635C14.3228 14.4123 15.2761 15.0492 16.0079 15.8743C16.7463 16.6927 17.2062 17.6596 17.3875 18.7751L17.3975 18.874H14.6283L14.6081 18.8047C14.3999 18.1118 14.0509 17.5211 13.5608 17.0326C13.0707 16.5442 12.4565 16.1746 11.718 15.9238C10.9795 15.6664 10.1303 15.5376 9.17028 15.5376C7.9686 15.5376 6.93138 15.7522 6.05865 16.1812C5.18591 16.6036 4.51123 17.2042 4.03457 17.983C3.56465 18.7553 3.32968 19.6661 3.32968 20.7155V20.7353C3.32968 21.7847 3.56465 22.6988 4.03457 23.4778C4.51123 24.2499 5.18591 24.8506 6.05865 25.2796C6.9381 25.7086 7.97866 25.9231 9.18035 25.9231C10.1269 25.9231 10.9695 25.7977 11.7079 25.5469C12.4464 25.2895 13.0607 24.9198 13.5507 24.4381C14.0408 23.9563 14.3933 23.3721 14.6081 22.6857L14.6283 22.6263H17.3975L17.3875 22.7253C17.1994 23.8342 16.7362 24.7977 15.9978 25.6162C15.266 26.428 14.3161 27.0584 13.148 27.5071C11.9865 27.9559 10.6573 28.1804 9.16021 28.1804ZM19.9434 27.8735V10.098H23.2172V17.4913H23.3034C23.7793 16.5878 24.4972 15.882 25.4573 15.3737C26.4173 14.8655 27.5578 14.6115 28.8788 14.6115C30.1588 14.6115 31.2543 14.8494 32.165 15.3254C33.0758 15.8013 33.7732 16.487 34.2574 17.3824C34.7415 18.2778 34.9834 19.3629 34.9834 20.6375V27.8735H31.6973V21.2425C31.6973 19.8952 31.3609 18.8748 30.688 18.181C30.0153 17.4873 29.0306 17.1404 27.7342 17.1404C26.8235 17.1404 26.0275 17.3178 25.3465 17.6728C24.6737 18.0277 24.1485 18.528 23.7711 19.1733C23.4018 19.8105 23.2172 20.5607 23.2172 21.4239V27.8735H19.9434ZM42.8979 28.1154C41.7245 28.1154 40.6989 27.9622 39.821 27.6556C38.9511 27.341 38.2742 26.8852 37.7902 26.2883C37.3142 25.6833 37.0763 24.9452 37.0763 24.074V24.0498C37.0763 23.3076 37.2691 22.6582 37.6547 22.1016C38.0404 21.5449 38.6435 21.1093 39.464 20.7947C40.2927 20.4721 41.3635 20.2946 42.6763 20.2624L50.221 20.105V22.0411L43.144 22.2105C42.143 22.2346 41.4209 22.396 40.9779 22.6944C40.543 22.985 40.3256 23.3882 40.3256 23.9046V23.9287C40.3256 24.5741 40.6332 25.0582 41.2486 25.3808C41.8722 25.6954 42.6887 25.8527 43.6979 25.8527C44.6825 25.8527 45.54 25.7196 46.2703 25.4534C47.0005 25.1791 47.5667 24.8 47.9687 24.3159C48.379 23.8238 48.5841 23.2511 48.5841 22.5977V19.7057C48.5841 18.8345 48.2477 18.1649 47.5748 17.697C46.902 17.2211 45.942 16.9831 44.6949 16.9831C43.6036 16.9831 42.7297 17.1565 42.0733 17.5034C41.4169 17.8422 41.0025 18.3061 40.8302 18.895L40.7933 18.9917H37.6671L37.6917 18.8587C37.8312 18.0277 38.2005 17.2936 38.7995 16.6564C39.3983 16.0191 40.1984 15.5189 41.1994 15.156C42.2005 14.7929 43.382 14.6115 44.744 14.6115C46.2374 14.6115 47.5133 14.8131 48.5717 15.2165C49.6384 15.6117 50.4508 16.1844 51.0087 16.9347C51.5748 17.6768 51.858 18.5722 51.858 19.621V27.8735H48.5841V25.6469H48.4979C48.1862 26.1552 47.7513 26.5948 47.1933 26.9659C46.6436 27.3289 46.0035 27.6113 45.2733 27.813C44.5431 28.0146 43.7512 28.1154 42.8979 28.1154ZM54.6277 27.8735V14.9019H57.9016V17.455H57.9877C58.4719 16.5758 59.1898 15.882 60.1416 15.3737C61.0935 14.8655 62.2298 14.6115 63.5508 14.6115C65.4791 14.6115 66.9724 15.1318 68.0309 16.1724C69.0976 17.205 69.631 18.6691 69.631 20.5648V27.8735H66.357V21.1698C66.357 19.8468 66.0247 18.8465 65.3601 18.169C64.6954 17.4832 63.7149 17.1404 62.4185 17.1404C61.5078 17.1404 60.7119 17.3178 60.0309 17.6728C59.358 18.0197 58.8329 18.5158 58.4555 19.1611C58.0862 19.7985 57.9016 20.5487 57.9016 21.4119V27.8735H54.6277ZM79.9577 32.4958C78.5463 32.4958 77.3115 32.3425 76.253 32.036C75.1946 31.7375 74.333 31.31 73.6683 30.7533C73.0037 30.1967 72.5525 29.5433 72.3145 28.7931L72.2776 28.6963H75.7238L75.773 28.7689C76.0602 29.2045 76.5525 29.5514 77.2499 29.8096C77.9556 30.0758 78.8581 30.2088 79.9577 30.2088C81.5658 30.2088 82.7761 29.9023 83.5884 29.2892C84.4007 28.6842 84.8069 27.8331 84.8069 26.736V25.163H84.7208C84.3761 25.6873 83.9208 26.1431 83.3546 26.5303C82.7885 26.9176 82.1279 27.22 81.373 27.4379C80.6263 27.6556 79.7936 27.7645 78.8746 27.7645C77.4305 27.7645 76.1751 27.4862 75.1084 26.9296C74.0417 26.373 73.213 25.6026 72.6222 24.6185C72.0397 23.6343 71.7483 22.5089 71.7483 21.2425V21.2182C71.7483 19.9276 72.0397 18.7901 72.6222 17.8059C73.213 16.8137 74.0417 16.0353 75.1084 15.4706C76.1832 14.9059 77.4469 14.6235 78.8992 14.6235C79.81 14.6235 80.6387 14.7365 81.3854 14.9624C82.1402 15.1882 82.7966 15.5069 83.3546 15.9182C83.9208 16.3297 84.3802 16.8016 84.7331 17.3341H84.8069V14.9019H88.0808V26.736C88.0808 27.938 87.7608 28.9666 87.1207 29.8216C86.489 30.6848 85.5659 31.3463 84.3515 31.8061C83.1454 32.2659 81.6808 32.4958 79.9577 32.4958ZM79.9208 25.417C80.9136 25.417 81.775 25.2437 82.5053 24.8967C83.2356 24.5499 83.8018 24.0659 84.2038 23.4448C84.606 22.8155 84.8069 22.0814 84.8069 21.2425V21.2182C84.8069 20.3874 84.606 19.6613 84.2038 19.0402C83.8018 18.4109 83.2315 17.9269 82.4931 17.5881C81.7628 17.2412 80.9053 17.0678 79.9208 17.0678C78.9361 17.0678 78.0786 17.2372 77.3484 17.576C76.6263 17.9067 76.0684 18.3827 75.6745 19.0039C75.2807 19.625 75.0838 20.3632 75.0838 21.2182V21.2425C75.0838 22.1057 75.2807 22.8478 75.6745 23.4689C76.0684 24.0901 76.6263 24.5701 77.3484 24.9089C78.0786 25.2476 78.9361 25.417 79.9208 25.417ZM98.4445 28.176C96.7542 28.176 95.2978 27.9097 94.0752 27.3774C92.8526 26.8449 91.9132 26.0786 91.2567 25.0783C90.6003 24.0699 90.2721 22.8559 90.2721 21.4361V21.4239C90.2721 20.0364 90.6044 18.8345 91.269 17.818C91.9418 16.7935 92.8772 16.003 94.0752 15.4464C95.2732 14.8817 96.668 14.6074 98.2598 14.6235C99.8844 14.6235 101.279 14.9099 102.444 15.4827C103.618 16.0473 104.516 16.8419 105.14 17.8664C105.772 18.8909 106.088 20.0889 106.088 21.4602V22.1499H91.9582V20.1776H104.02L102.937 21.7143V20.9521C102.937 20.1292 102.748 19.4234 102.371 18.8345C102.001 18.2375 101.472 17.7777 100.783 17.455C100.094 17.1243 99.2691 16.9589 98.309 16.9589C97.2999 16.9589 96.4342 17.1203 95.7121 17.4429C94.9983 17.7575 94.4485 18.2254 94.0629 18.8465C93.6854 19.4678 93.4967 20.2341 93.4967 21.1456V21.6538C93.4967 22.6622 93.7224 23.4729 94.1736 24.086C94.6249 24.6992 95.2321 25.1468 95.9952 25.4292C96.7583 25.7035 97.6075 25.8406 98.5429 25.8406C99.1912 25.8406 99.7901 25.772 100.34 25.6349C100.898 25.4897 101.378 25.292 101.78 25.0419C102.19 24.7839 102.49 24.4773 102.678 24.1223L102.728 24.0376H105.878L105.841 24.1586C105.636 24.7959 105.312 25.3647 104.869 25.8648C104.426 26.3568 103.88 26.7763 103.232 27.1233C102.584 27.4621 101.858 27.7202 101.054 27.8977C100.25 28.0832 99.3799 28.176 98.4445 28.176ZM106.872 27.8735L110.994 8.82523H118.728C120 8.82523 121.087 9.05845 121.991 9.52486C122.895 9.98248 123.585 10.6161 124.059 11.4257C124.541 12.2354 124.783 13.1682 124.783 14.2242C124.783 15.157 124.591 16.0459 124.206 16.8907C123.822 17.7355 123.266 18.4747 122.541 19.1084C121.817 19.7419 120.939 20.2128 119.909 20.5209L122.381 27.8735H118.11L115.908 20.9696H115.976H112.458L110.954 27.8735H106.872ZM114.405 12.0461L113.102 17.9071H116.687C117.474 17.9071 118.164 17.7663 118.755 17.4847C119.355 17.2031 119.82 16.8115 120.151 16.3099C120.482 15.8083 120.648 15.2318 120.648 14.5806C120.648 13.771 120.397 13.1462 119.897 12.7062C119.395 12.2661 118.692 12.0461 117.788 12.0461H114.405ZM128.772 19.214H135.056C135.073 19.1699 135.082 19.1084 135.082 19.0291C135.082 18.9412 135.082 18.862 135.082 18.7916C135.082 18.3251 134.979 17.8983 134.774 17.5111C134.568 17.1151 134.263 16.7983 133.861 16.5607C133.467 16.3231 132.965 16.2043 132.357 16.2043C131.766 16.2043 131.229 16.3363 130.746 16.6003C130.262 16.8556 129.851 17.2075 129.511 17.6563C129.179 18.1051 128.933 18.6244 128.772 19.214ZM131.189 28.1902C129.855 28.1902 128.71 27.9307 127.752 27.4114C126.794 26.8922 126.055 26.1574 125.536 25.207C125.026 24.2477 124.771 23.1212 124.771 21.8276C124.771 20.6045 124.954 19.478 125.322 18.4483C125.697 17.4099 126.226 16.5079 126.905 15.7423C127.595 14.9679 128.414 14.3694 129.363 13.947C130.311 13.5158 131.359 13.3002 132.504 13.3002C133.73 13.3002 134.81 13.551 135.74 14.0526C136.671 14.5455 137.397 15.2451 137.916 16.1515C138.435 17.0579 138.694 18.1316 138.694 19.3724C138.694 19.7068 138.676 20.0808 138.641 20.4944C138.613 20.8992 138.564 21.2732 138.493 21.6164H128.382C128.374 21.6868 128.365 21.7616 128.356 21.8408C128.356 21.9112 128.356 21.9816 128.356 22.052C128.356 22.7033 128.477 23.271 128.718 23.755C128.969 24.2301 129.318 24.5998 129.766 24.8637C130.222 25.119 130.75 25.2466 131.349 25.2466C132.11 25.2466 132.755 25.0793 133.283 24.745C133.812 24.4106 134.183 23.9661 134.397 23.4118H138.05C137.808 24.3533 137.365 25.1806 136.721 25.8934C136.085 26.6062 135.293 27.1694 134.344 27.5831C133.404 27.9879 132.352 28.1902 131.189 28.1902ZM139.031 27.8735L143.193 8.62723H147.06L142.897 27.8735H139.031ZM145.435 27.8735L149.598 8.62723H153.465L149.302 27.8735H145.435ZM157.977 25.2598C158.514 25.2598 159.01 25.1585 159.467 24.9562C159.932 24.7538 160.326 24.4766 160.648 24.1246C160.97 23.7638 161.181 23.3545 161.28 22.8969L161.562 21.6825L158.5 21.8013C157.667 21.8276 157.01 22.0081 156.526 22.3424C156.044 22.6769 155.802 23.1125 155.802 23.6493C155.802 24.1334 156.002 24.5249 156.406 24.8242C156.808 25.1146 157.333 25.2598 157.977 25.2598ZM156.406 28.0978C155.591 28.0978 154.852 27.9307 154.19 27.5962C153.537 27.253 153.018 26.7911 152.633 26.2102C152.248 25.6206 152.055 24.9473 152.055 24.1906C152.055 22.7473 152.614 21.6077 153.734 20.7716C154.852 19.9356 156.397 19.4868 158.366 19.4252L162.059 19.2932L162.247 18.4352C162.273 18.3207 162.287 18.224 162.287 18.1448C162.296 18.0656 162.299 17.9864 162.299 17.9071C162.299 17.4143 162.094 17.0227 161.682 16.7323C161.28 16.4331 160.716 16.2834 159.991 16.2834C159.516 16.2834 159.099 16.3494 158.742 16.4815C158.383 16.6047 158.089 16.785 157.856 17.0227C157.622 17.2515 157.458 17.5287 157.359 17.8544H153.72C153.899 16.9304 154.284 16.1295 154.875 15.4519C155.466 14.7742 156.222 14.2462 157.144 13.8678C158.066 13.4894 159.109 13.3002 160.273 13.3002C161.437 13.3002 162.452 13.4806 163.32 13.8414C164.189 14.1934 164.865 14.6863 165.348 15.3199C165.84 15.9535 166.086 16.6883 166.086 17.5243C166.086 17.7267 166.077 17.9336 166.06 18.1448C166.041 18.356 166.015 18.5407 165.978 18.6992L163.992 27.8735H160.273L160.648 26.1574H160.541C160.263 26.5446 159.914 26.8878 159.493 27.187C159.073 27.4774 158.599 27.7019 158.07 27.8603C157.551 28.0187 156.997 28.0978 156.406 28.0978Z" fill="white"/>
<path d="M172.999 15.0235C172.583 15.0235 172.203 14.969 171.861 14.8602C171.522 14.7512 171.228 14.5978 170.98 14.3998C170.735 14.1985 170.542 13.9658 170.401 13.7017H170.371V14.9195H169.625V7.50418H170.371V10.7911H170.401C170.538 10.5271 170.732 10.2977 170.98 10.103C171.228 9.90501 171.523 9.75156 171.866 9.64265C172.209 9.53045 172.586 9.47435 172.999 9.47435C173.61 9.47435 174.138 9.59315 174.585 9.83076C175.035 10.0651 175.382 10.3901 175.628 10.8059C175.873 11.2218 175.995 11.7003 175.995 12.2415V12.2563C175.995 12.7943 175.873 13.2728 175.628 13.6919C175.382 14.1077 175.035 14.4344 174.585 14.672C174.138 14.9063 173.61 15.0235 172.999 15.0235ZM172.812 14.4047C173.31 14.4047 173.739 14.3172 174.101 14.1424C174.465 13.9675 174.743 13.72 174.938 13.3998C175.136 13.0764 175.235 12.6953 175.235 12.2563V12.2415C175.235 11.8026 175.136 11.4231 174.938 11.103C174.743 10.7795 174.465 10.5304 174.101 10.3555C173.739 10.1806 173.31 10.0931 172.812 10.0931C172.316 10.0931 171.884 10.1839 171.519 10.3654C171.152 10.5469 170.869 10.7993 170.668 11.1227C170.466 11.4429 170.365 11.8158 170.365 12.2415V12.2563C170.365 12.6821 170.466 13.0566 170.668 13.38C170.869 13.7034 171.152 13.9559 171.519 14.1374C171.884 14.3156 172.316 14.4047 172.812 14.4047ZM180.255 15.0285C179.59 15.0285 179.019 14.9178 178.542 14.6967C178.069 14.4757 177.705 14.1588 177.45 13.7463C177.195 13.3338 177.068 12.8372 177.068 12.2563V12.2514C177.068 11.6871 177.197 11.197 177.455 10.7812C177.714 10.3654 178.076 10.0436 178.542 9.81591C179.013 9.5849 179.559 9.47105 180.18 9.47435C180.813 9.47765 181.359 9.5948 181.816 9.82581C182.272 10.0535 182.622 10.372 182.868 10.7812C183.113 11.1904 183.235 11.6689 183.235 12.2167V12.4296L177.445 12.4246V11.8752H182.792L182.5 12.3306V12.1128C182.5 11.7003 182.406 11.3422 182.218 11.0386C182.03 10.735 181.762 10.5007 181.412 10.3357C181.068 10.1707 180.657 10.0882 180.184 10.0882C179.694 10.0882 179.271 10.1707 178.916 10.3357C178.563 10.4974 178.291 10.735 178.1 11.0485C177.909 11.3587 177.812 11.7349 177.812 12.1771V12.3058C177.812 12.7844 177.918 13.1804 178.13 13.4939C178.345 13.8041 178.636 14.035 179.006 14.1869C179.379 14.3387 179.8 14.4147 180.27 14.4147C180.606 14.4147 180.913 14.3783 181.191 14.3057C181.473 14.2331 181.715 14.1291 181.917 13.9938C182.12 13.8553 182.274 13.687 182.375 13.489L182.394 13.4543H183.145L183.124 13.4939C183.034 13.7414 182.9 13.9608 182.722 14.1522C182.544 14.3403 182.331 14.5004 182.083 14.6324C181.834 14.7611 181.556 14.8585 181.246 14.9245C180.938 14.9938 180.607 15.0285 180.255 15.0285ZM187.173 14.9888C186.538 14.9888 186.066 14.8585 185.758 14.5978C185.452 14.3338 185.3 13.9278 185.3 13.38V10.1674H184.036V9.5783H185.3V8.16751H186.05V9.5783H188.004V10.1674H186.05V13.2661C186.05 13.6589 186.149 13.9444 186.347 14.1226C186.545 14.3008 186.86 14.3899 187.294 14.3899C187.412 14.3899 187.532 14.3849 187.657 14.375C187.784 14.3618 187.9 14.3453 188.004 14.3256V14.9096C187.879 14.936 187.747 14.9558 187.606 14.969C187.465 14.9823 187.321 14.9888 187.173 14.9888ZM191.227 15.0185C190.74 15.0185 190.314 14.9558 189.947 14.8304C189.585 14.7051 189.301 14.5202 189.097 14.276C188.895 14.0318 188.794 13.7347 188.794 13.385V13.3751C188.794 13.0682 188.875 12.8042 189.036 12.583C189.198 12.3619 189.444 12.1903 189.776 12.0682C190.109 11.9428 190.534 11.8719 191.05 11.8554L194.127 11.7811V12.3207L191.135 12.4048C190.585 12.418 190.182 12.5055 189.928 12.6672C189.676 12.8289 189.549 13.0583 189.549 13.3552V13.3652C189.549 13.7084 189.714 13.9707 190.043 14.1522C190.376 14.3338 190.809 14.4245 191.343 14.4245C191.823 14.4245 192.243 14.3536 192.606 14.2117C192.968 14.0665 193.25 13.8668 193.452 13.6126C193.654 13.3586 193.754 13.0632 193.754 12.7266V11.5237C193.754 11.0551 193.582 10.6987 193.24 10.4545C192.898 10.2103 192.413 10.0882 191.785 10.0882C191.238 10.0882 190.791 10.1789 190.445 10.3604C190.101 10.5386 189.878 10.7878 189.781 11.1079L189.772 11.1425H189.036L189.041 11.103C189.108 10.7762 189.263 10.4908 189.505 10.2466C189.747 10.0024 190.062 9.81261 190.451 9.6773C190.841 9.542 191.286 9.47435 191.791 9.47435C192.361 9.47435 192.849 9.55355 193.256 9.71195C193.662 9.87036 193.971 10.0997 194.182 10.4C194.394 10.7003 194.499 11.065 194.499 11.494V14.9195H193.754V13.8404H193.719C193.592 14.0813 193.405 14.2909 193.16 14.4691C192.918 14.6473 192.632 14.7842 192.299 14.8799C191.969 14.9724 191.612 15.0185 191.227 15.0185Z" fill="white"/>
</svg>
