<svg width="234" height="40" viewBox="0 0 234 40" fill="none" xmlns="http://www.w3.org/2000/svg">
<path d="M14.0647 15.2071C14.0101 14.8166 13.8373 14.4882 13.5461 14.2219C13.255 13.9379 12.8911 13.716 12.4544 13.5562C12.0359 13.3965 11.5628 13.2811 11.0352 13.2101C10.5257 13.1391 10.0162 13.1036 9.50674 13.1036C7.88736 13.1036 6.63188 13.503 5.74029 14.3018C5.04887 14.9053 4.54849 15.713 4.23916 16.7249C3.92984 17.7189 3.77518 18.8018 3.77518 19.9734C3.77518 21.0917 3.92984 22.0769 4.23916 22.929C4.56668 23.7811 5.00337 24.5 5.54923 25.0858C6.11331 25.6538 6.77742 26.0888 7.54163 26.3905C8.30584 26.6746 9.14285 26.8166 10.0526 26.8166C10.835 26.8166 11.7357 26.7367 12.7546 26.5769C13.7918 26.3994 14.7652 26.071 15.675 25.5917L16.0025 26.1775L15.3475 27.3491C14.4013 27.9171 13.446 28.3343 12.4817 28.6006C11.5355 28.8669 10.5621 29 9.56133 29C8.19667 29 6.95939 28.787 5.84946 28.3609C4.73952 27.9349 3.78428 27.3313 2.98368 26.5503C2.20127 25.7515 1.59172 24.8107 1.15503 23.7278C0.718345 22.6272 0.5 21.4112 0.5 20.0799C0.5 18.8373 0.691052 17.6657 1.07315 16.5651C1.47346 15.4467 2.05571 14.4793 2.81992 13.6627C3.60232 12.8462 4.55758 12.1982 5.6857 11.7189C6.83201 11.2396 8.16029 11 9.6705 11C10.0344 11 10.462 11.0178 10.9533 11.0533C11.4446 11.071 11.9631 11.1243 12.509 11.213C13.0549 11.284 13.6007 11.3994 14.1466 11.5592C14.7107 11.7012 15.2474 11.8876 15.7569 12.1183L15.8388 12.358L15.4839 15.3136H14.1466L14.0647 15.2071ZM26.1389 28.8669C25.9934 28.8491 25.7841 28.8314 25.5112 28.8136C25.2565 28.7958 24.9744 28.7781 24.6651 28.7604C24.374 28.7426 24.0829 28.7249 23.7917 28.7071C23.5188 28.7071 23.2822 28.7071 23.0821 28.7071H21.4718C21.2535 28.7071 20.9987 28.7071 20.7076 28.7071C20.4165 28.7249 20.1254 28.7426 19.8342 28.7604C19.5431 28.7781 19.2611 28.7958 18.9881 28.8136C18.7334 28.8314 18.5424 28.8491 18.415 28.8669L18.3604 28.7604L18.4423 27.7485L18.5787 27.642C19.2701 27.642 19.7433 27.5621 19.998 27.4024C20.3801 27.1539 20.6166 26.639 20.7076 25.858C20.7258 25.5562 20.7349 25.0947 20.7349 24.4734C20.7531 23.8343 20.7622 23.1953 20.7622 22.5562V16.6982C20.7622 16.0769 20.7531 15.5887 20.7349 15.2337C20.7167 14.8609 20.6894 14.497 20.653 14.142C20.5802 13.6627 20.4983 13.3166 20.4074 13.1036C20.3346 12.8905 20.2163 12.7219 20.0526 12.5976C19.907 12.5089 19.725 12.4467 19.5067 12.4112C19.3066 12.3757 18.9972 12.358 18.5787 12.358L18.4423 12.2515L18.3604 11.2396L18.415 11.1331C18.888 11.1864 19.352 11.2308 19.8069 11.2663C20.28 11.284 20.653 11.2929 20.9259 11.2929H23.0002C23.4187 11.2929 23.8918 11.284 24.4195 11.2663C24.9653 11.2485 25.4384 11.2396 25.8387 11.2396C28.004 11.2396 29.6415 11.6391 30.7515 12.4379C31.8614 13.2189 32.4164 14.3905 32.4164 15.9527C32.4164 17.071 32.0798 18.0917 31.4065 19.0148C30.7515 19.9201 29.7689 20.7101 28.4589 21.3846C29.0775 22.2899 29.5961 23.0266 30.0146 23.5947C30.4513 24.1627 30.8243 24.6154 31.1336 24.9527C31.5521 25.432 31.9433 25.8314 32.3072 26.1509C32.6711 26.4704 33.0259 26.7367 33.3716 26.9497C33.7355 27.1627 34.1085 27.3225 34.4906 27.429C34.8727 27.5355 35.3004 27.6065 35.7734 27.642L35.9372 27.7485L35.9918 28.7604L35.9372 28.8669C35.2458 28.9024 34.6453 28.929 34.1358 28.9467C33.6263 28.9822 33.2534 29 33.0168 29C32.0525 29 31.1882 28.7426 30.424 28.2278C29.678 27.6953 28.8773 26.7988 28.0222 25.5385C27.822 25.2544 27.6037 24.9349 27.3671 24.5799C27.1488 24.2249 26.9214 23.8787 26.6848 23.5414C26.4665 23.1864 26.2572 22.8491 26.0571 22.5296C25.8569 22.2101 25.6932 21.9349 25.5658 21.7041H23.7917C23.7917 22.3077 23.7917 22.8313 23.7917 23.2751C23.7917 23.7012 23.7917 24.074 23.7917 24.3935C23.8099 24.713 23.8281 24.9882 23.8463 25.2189C23.8645 25.4497 23.8827 25.6627 23.9009 25.858C23.9737 26.6746 24.1738 27.1893 24.5013 27.4024C24.6287 27.4911 24.7925 27.5533 24.9926 27.5888C25.1928 27.6242 25.5294 27.642 26.0025 27.642L26.1116 27.7485L26.1935 28.7604L26.1389 28.8669ZM25.1837 19.7337C26.512 19.7337 27.5491 19.4231 28.2951 18.8018C29.0593 18.1805 29.4414 17.3195 29.4414 16.2189C29.4414 15.2249 29.1048 14.5059 28.4316 14.0621C27.7583 13.6006 26.6848 13.3698 25.211 13.3698H23.9282C23.8736 14.0799 23.8372 14.6302 23.819 15.0207C23.8008 15.4113 23.7917 15.784 23.7917 16.1391V18.7485C23.7917 19.1213 23.8372 19.3787 23.9282 19.5207C24.0192 19.6627 24.192 19.7337 24.4468 19.7337H25.1837ZM47.6937 28.8669C47.5662 28.8669 47.3568 28.858 47.066 28.8402C46.7747 28.8225 46.4745 28.8047 46.1653 28.787C45.8557 28.7692 45.5555 28.7515 45.2646 28.7337C44.9733 28.716 44.764 28.7071 44.6369 28.7071H43.0266C42.899 28.7071 42.6898 28.716 42.3986 28.7337C42.1075 28.7515 41.7982 28.7692 41.4707 28.787C41.1613 28.8047 40.8611 28.8225 40.57 28.8402C40.2788 28.858 40.0696 28.8669 39.9422 28.8669L39.9149 28.7604L39.9695 27.7485L40.106 27.642C40.3789 27.642 40.6428 27.6331 40.8975 27.6154C41.1704 27.5799 41.3888 27.5 41.5525 27.3757C41.7163 27.2515 41.8618 27.0917 41.9892 26.8964C42.1166 26.7012 42.1985 26.355 42.2349 25.858C42.2531 25.7337 42.2622 25.5917 42.2622 25.432C42.2804 25.2544 42.2894 25.0414 42.2894 24.7929C42.3077 24.5444 42.3167 24.2426 42.3167 23.8876C42.3167 23.5326 42.3167 23.0888 42.3167 22.5562V22.0503C42.3167 21.5532 42.2439 21.1538 42.0984 20.8521C41.9528 20.5325 41.8073 20.2485 41.6617 20C41.0613 19.0414 40.3971 18.0474 39.6693 17.0178C38.9597 15.9882 38.2228 14.9408 37.4586 13.8757C37.3312 13.6805 37.1856 13.4941 37.0219 13.3166C36.8581 13.1213 36.7126 12.9704 36.5852 12.8639C36.385 12.7041 36.1394 12.5888 35.8483 12.5178C35.5753 12.4467 35.2569 12.3935 34.893 12.358L34.6747 12.2515V11.2396L34.8111 11.1331C35.266 11.1864 35.6754 11.2396 36.0393 11.2929C36.4032 11.3284 36.8035 11.3462 37.2402 11.3462H39.4783C39.8967 11.3462 40.3789 11.3284 40.9248 11.2929C41.4889 11.2396 42.0256 11.1864 42.5351 11.1331L42.6443 11.2396V12.2515L42.5351 12.358C42.1712 12.3757 41.8528 12.4112 41.5798 12.4645C41.3069 12.5 41.0886 12.571 40.9248 12.6775C40.7428 12.8018 40.6519 12.9615 40.6519 13.1568C40.6519 13.2633 40.6701 13.3698 40.7064 13.4763C40.761 13.5828 40.8156 13.6805 40.8702 13.7692L44.1183 18.8018L47.1751 14.1953C47.3568 13.8935 47.4481 13.5828 47.4481 13.2633C47.4481 13.0503 47.3841 12.8905 47.257 12.784C47.1295 12.6775 46.9658 12.5976 46.7657 12.5444C46.5836 12.4911 46.3743 12.4556 46.138 12.4379C45.9197 12.4201 45.7103 12.3846 45.5103 12.3314L45.4011 12.2249V11.213L45.5103 11.1065C46.0378 11.1953 46.4745 11.2485 46.8203 11.2663C47.1658 11.2663 47.5662 11.2663 48.0212 11.2663H50.423C50.8597 11.2663 51.2597 11.2574 51.6239 11.2396C51.9877 11.2219 52.4244 11.1775 52.934 11.1065L53.0432 11.213V12.2249L52.934 12.3314C52.5152 12.3846 52.1604 12.4556 51.8696 12.5444C51.5783 12.6331 51.3143 12.7574 51.0781 12.9172C50.8414 13.0769 50.6047 13.2811 50.3684 13.5296C50.1501 13.7781 49.9045 14.0888 49.6315 14.4615C49.0857 15.2426 48.6123 15.9172 48.2123 16.4852C47.8302 17.0355 47.4933 17.5325 47.2024 17.9763C46.9295 18.4024 46.6745 18.8018 46.4382 19.1746C46.2015 19.5473 45.9559 19.9379 45.7013 20.3462C45.6284 20.4527 45.5465 20.6391 45.4557 20.9053C45.3644 21.1538 45.3192 21.4112 45.3192 21.6775V22.0769C45.3192 22.716 45.3192 23.2308 45.3192 23.6213C45.3192 24.0118 45.3192 24.3402 45.3192 24.6065C45.3371 24.8728 45.3465 25.0947 45.3465 25.2722C45.3644 25.4497 45.3827 25.645 45.4011 25.858C45.4373 26.355 45.5192 26.7012 45.6467 26.8964C45.7921 27.0917 45.9376 27.2515 46.0834 27.3757C46.2288 27.5 46.4288 27.5799 46.6839 27.6154C46.9568 27.6331 47.2387 27.642 47.53 27.642L47.6664 27.7485L47.7483 28.7604L47.6937 28.8669ZM61.8674 28.8669C61.7399 28.8669 61.5309 28.858 61.2396 28.8402C60.9484 28.8225 60.6482 28.8047 60.339 28.787C60.0298 28.7692 59.7296 28.7515 59.4383 28.7337C59.147 28.716 58.9381 28.7071 58.8106 28.7071H57.2003C57.0727 28.7071 56.8638 28.716 56.5725 28.7337C56.2812 28.7515 55.981 28.7692 55.6718 28.787C55.3627 28.8047 55.0624 28.8225 54.7712 28.8402C54.4799 28.858 54.2709 28.8669 54.1434 28.8669L54.0888 28.7604L54.1707 27.7485L54.3072 27.642C54.5255 27.642 54.7801 27.6331 55.0714 27.6154C55.3627 27.5799 55.59 27.5089 55.7537 27.4024C55.8991 27.2959 56.0356 27.1272 56.1631 26.8964C56.2906 26.6657 56.3815 26.3195 56.436 25.858C56.436 25.7337 56.436 25.5917 56.436 25.432C56.4544 25.2544 56.4633 25.0414 56.4633 24.7929C56.4817 24.5444 56.4906 24.2426 56.4906 23.8876C56.4906 23.5326 56.4906 23.0888 56.4906 22.5562V16.6982C56.4906 16.3432 56.4906 15.9438 56.4906 15.5C56.4906 15.0385 56.4723 14.5858 56.436 14.142C56.3998 13.6805 56.3085 13.3432 56.1631 13.1302C56.0356 12.8994 55.8991 12.7308 55.7537 12.6243C55.59 12.4822 55.4172 12.4024 55.2352 12.3846C55.0714 12.3669 54.7622 12.358 54.3072 12.358L54.1707 12.2515L54.0888 11.2396L54.1434 11.1331C54.2709 11.1331 54.4347 11.142 54.6347 11.1598C54.853 11.1775 55.0714 11.1953 55.2897 11.213C55.5264 11.2308 55.7627 11.2485 55.9994 11.2663C56.236 11.284 56.4544 11.2929 56.6544 11.2929H58.7287C58.9287 11.2929 59.1564 11.2929 59.411 11.2929C59.6656 11.2751 59.9206 11.2663 60.1752 11.2663C60.4481 11.2663 60.6938 11.2663 60.9121 11.2663C61.1305 11.2485 61.3126 11.2396 61.458 11.2396C62.6772 11.2396 63.705 11.3639 64.5421 11.6124C65.3972 11.8432 66.0889 12.1716 66.6164 12.5976C67.1439 13.0237 67.526 13.5385 67.7627 14.142C68.0173 14.7278 68.1448 15.3757 68.1448 16.0858C68.1448 17.2752 67.9265 18.2515 67.4898 19.0148C67.0531 19.7781 66.4889 20.3816 65.7976 20.8254C65.1242 21.2692 64.36 21.5799 63.505 21.7574C62.6678 21.9172 61.8491 21.997 61.0486 21.997H59.5202C59.5202 22.3521 59.5202 22.7248 59.5202 23.1154C59.5202 23.5059 59.5202 23.8876 59.5202 24.2604C59.5385 24.6154 59.5475 24.9349 59.5475 25.2189C59.5658 25.503 59.5837 25.716 59.6021 25.858C59.6383 26.3728 59.7296 26.7367 59.875 26.9497C60.0204 27.145 60.1479 27.287 60.2571 27.3757C60.4209 27.5177 60.5846 27.5976 60.7484 27.6154C60.9305 27.6331 61.258 27.642 61.7309 27.642L61.8401 27.7485L61.922 28.7604L61.8674 28.8669ZM60.9121 20.0266C62.4405 20.0266 63.5323 19.6893 64.1873 19.0148C64.8423 18.3403 65.1699 17.4083 65.1699 16.2189C65.1699 15.2604 64.7878 14.5503 64.0235 14.0888C63.2777 13.6095 62.2495 13.3698 60.9394 13.3698H59.6566C59.6021 14.1509 59.5658 14.7367 59.5475 15.1272C59.5291 15.5 59.5202 15.8373 59.5202 16.1391V19.0414C59.5202 19.2722 59.5291 19.4586 59.5475 19.6006C59.5658 19.7249 59.611 19.8225 59.6839 19.8935C59.7569 19.9467 59.8567 19.9822 59.9842 20C60.1296 20.0178 60.3206 20.0266 60.5573 20.0266H60.9121ZM81.411 28.8669C81.2835 28.8669 81.0835 28.858 80.8105 28.8402C80.5376 28.8225 80.2463 28.8047 79.9372 28.787C79.6276 28.7692 79.3367 28.7515 79.0638 28.7337C78.7909 28.716 78.5904 28.7071 78.4633 28.7071H75.8159C75.6884 28.7071 75.4884 28.716 75.2154 28.7337C74.9425 28.7515 74.6512 28.7692 74.3421 28.787C74.0508 28.8047 73.7689 28.8225 73.496 28.8402C73.223 28.858 73.0226 28.8669 72.8955 28.8669L72.8409 28.7604L72.9228 27.7485L73.0593 27.642C73.3322 27.642 73.6504 27.6331 74.0145 27.6154C74.3967 27.5976 74.6696 27.5177 74.8333 27.3757C74.9788 27.2515 75.1242 27.0917 75.27 26.8964C75.4155 26.7012 75.5157 26.355 75.5703 25.858C75.5882 25.7337 75.5976 25.5917 75.5976 25.432C75.6155 25.2544 75.6248 25.0414 75.6248 24.7929C75.6428 24.5444 75.6521 24.2426 75.6521 23.8876C75.6521 23.5326 75.6521 23.0888 75.6521 22.5562V17.6834C75.6521 16.7071 75.6428 15.8373 75.6248 15.074C75.6065 14.3107 75.5882 13.7426 75.5703 13.3698H75.27C74.5783 13.3698 74.0052 13.3787 73.5506 13.3964C73.0955 13.3964 72.7318 13.4142 72.4588 13.4497C72.1859 13.4675 71.9765 13.4941 71.8311 13.5296C71.7036 13.5651 71.6128 13.6095 71.5582 13.6627C71.3577 13.7515 71.194 13.8935 71.0669 14.0888C70.9394 14.284 70.8575 14.5148 70.8213 14.7811L70.7121 14.8876H69.5385L69.7295 11.3195L69.8387 11.0799L70.0025 11C70.1479 11.0533 70.4664 11.1065 70.9577 11.1598C71.449 11.1953 71.9855 11.2219 72.568 11.2396C73.1501 11.2574 73.7049 11.2751 74.2329 11.2929C74.7788 11.2929 75.1698 11.2929 75.4065 11.2929H78.8454C79.0817 11.2929 79.4638 11.2929 79.9918 11.2929C80.5376 11.2751 81.1014 11.2574 81.6839 11.2396C82.266 11.2219 82.8029 11.1953 83.2942 11.1598C83.7855 11.1065 84.1036 11.0533 84.2495 11L84.4132 11.0799L84.5224 11.3195L84.7408 14.8876H83.5399L83.4307 14.7811C83.394 14.5148 83.3121 14.284 83.185 14.0888C83.0575 13.8935 82.8938 13.7515 82.6938 13.6627C82.6392 13.5917 82.539 13.5385 82.3935 13.503C82.266 13.4497 82.066 13.4142 81.7931 13.3964C81.5202 13.3787 81.156 13.3698 80.7014 13.3698C80.2647 13.3698 79.7005 13.3698 79.0092 13.3698H78.709C78.6906 13.7959 78.6723 14.3639 78.6544 15.074C78.6544 15.784 78.6544 16.645 78.6544 17.6568V22.0237C78.6544 22.6627 78.6544 23.1864 78.6544 23.5947C78.6544 23.9852 78.6544 24.3136 78.6544 24.5799C78.6723 24.8462 78.6817 25.0769 78.6817 25.2722C78.6996 25.4497 78.7179 25.645 78.7363 25.858C78.7725 26.3728 78.8727 26.7278 79.0365 26.9231C79.2002 27.1183 79.3546 27.2692 79.5005 27.3757C79.573 27.4468 79.6732 27.5 79.8007 27.5355C79.9461 27.571 80.1009 27.5976 80.2647 27.6154C80.4284 27.6331 80.5922 27.642 80.756 27.642C80.9376 27.642 81.1014 27.642 81.2472 27.642L81.3837 27.7485L81.4656 28.7604L81.411 28.8669ZM95.3318 11C96.7327 11 97.9792 11.2396 99.071 11.7189C100.163 12.1982 101.082 12.855 101.828 13.6893C102.573 14.5059 103.138 15.4556 103.52 16.5385C103.92 17.6213 104.12 18.7574 104.12 19.9467C104.12 21.1183 103.929 22.2545 103.547 23.355C103.165 24.4379 102.592 25.3965 101.828 26.2308C101.082 27.0651 100.144 27.7397 99.0164 28.2544C97.9063 28.7515 96.6146 29 95.1407 29C93.7215 29 92.475 28.7604 91.4016 28.2811C90.3282 27.8018 89.4275 27.1627 88.6995 26.3639C87.9899 25.5473 87.453 24.6065 87.0893 23.5414C86.7255 22.4586 86.5434 21.3225 86.5434 20.1331C86.5434 18.8728 86.7434 17.6923 87.1438 16.5917C87.5443 15.4734 88.1174 14.5059 88.8633 13.6893C89.6092 12.855 90.5282 12.1982 91.6199 11.7189C92.7116 11.2396 93.9488 11 95.3318 11ZM95.3045 26.7899C96.1962 26.7899 96.9877 26.6124 97.679 26.2574C98.3886 25.8846 98.9801 25.3965 99.4531 24.7929C99.926 24.1716 100.29 23.4527 100.545 22.6361C100.799 21.8018 100.927 20.9142 100.927 19.9734C100.927 19.0148 100.79 18.1272 100.517 17.3107C100.263 16.4763 99.8808 15.7574 99.3712 15.1538C98.8799 14.5503 98.2794 14.0799 97.5698 13.7426C96.8602 13.3876 96.0597 13.2101 95.168 13.2101C94.2946 13.2101 93.5215 13.3787 92.8481 13.716C92.1747 14.0533 91.611 14.5237 91.1559 15.1272C90.7009 15.7308 90.3555 16.4497 90.1188 17.284C89.8821 18.1006 89.764 18.9882 89.764 19.9467C89.764 21.0118 89.9005 21.9704 90.1734 22.8225C90.4463 23.6568 90.8284 24.3669 91.3197 24.9527C91.811 25.5385 92.3931 25.9911 93.0665 26.3107C93.7398 26.6302 94.4857 26.7899 95.3045 26.7899ZM120.695 14.4615C120.641 14.071 120.468 13.7426 120.177 13.4763C119.886 13.2101 119.522 12.997 119.085 12.8373C118.667 12.6775 118.194 12.571 117.666 12.5178C117.157 12.4467 116.647 12.4112 116.138 12.4112C114.336 12.4112 112.917 12.8107 111.88 13.6095C111.025 14.284 110.379 15.1805 109.942 16.2988C109.523 17.4172 109.314 18.642 109.314 19.9734C109.314 21.2337 109.496 22.3432 109.86 23.3018C110.242 24.2426 110.761 25.0325 111.416 25.6716C112.071 26.3107 112.844 26.7988 113.736 27.1361C114.646 27.4556 115.628 27.6154 116.684 27.6154C117.429 27.6154 118.284 27.5177 119.249 27.3225C120.232 27.1095 121.16 26.7101 122.033 26.1243L122.306 26.4172L121.705 27.6154C120.795 28.0947 119.886 28.4497 118.976 28.6805C118.084 28.8935 117.157 29 116.192 29C114.828 29 113.59 28.787 112.48 28.3609C111.37 27.9349 110.415 27.3313 109.615 26.5503C108.832 25.7515 108.223 24.8107 107.786 23.7278C107.349 22.6272 107.131 21.4112 107.131 20.0799C107.131 18.8373 107.322 17.6657 107.704 16.5651C108.104 15.4467 108.687 14.4793 109.451 13.6627C110.233 12.8462 111.188 12.1982 112.317 11.7189C113.463 11.2396 114.791 11 116.301 11C116.629 11 117.011 11.0178 117.448 11.0533C117.902 11.071 118.376 11.1154 118.867 11.1864C119.358 11.2574 119.859 11.355 120.368 11.4793C120.877 11.5858 121.369 11.7278 121.842 11.9053L121.924 12.145L121.569 14.568H120.778L120.695 14.4615ZM133.92 11C135.34 11 136.604 11.2396 137.714 11.7189C138.824 12.1982 139.752 12.855 140.498 13.6893C141.262 14.5059 141.844 15.4556 142.245 16.5385C142.645 17.6213 142.845 18.7574 142.845 19.9467C142.845 21.1183 142.645 22.2545 142.245 23.355C141.863 24.4379 141.29 25.3965 140.525 26.2308C139.761 27.0651 138.806 27.7397 137.66 28.2544C136.532 28.7515 135.222 29 133.729 29C132.274 29 131 28.7604 129.908 28.2811C128.835 27.8018 127.925 27.1627 127.179 26.3639C126.451 25.5473 125.905 24.6065 125.541 23.5414C125.178 22.4586 124.996 21.3225 124.996 20.1331C124.996 18.8728 125.196 17.6923 125.596 16.5917C125.997 15.4734 126.579 14.5059 127.343 13.6893C128.107 12.855 129.044 12.1982 130.154 11.7189C131.264 11.2396 132.52 11 133.92 11ZM133.893 27.5888C134.985 27.5888 135.949 27.3935 136.786 27.003C137.641 26.5947 138.36 26.0444 138.942 25.3521C139.525 24.6598 139.971 23.8521 140.28 22.929C140.589 22.0059 140.744 21.0207 140.744 19.9734C140.744 18.9083 140.58 17.9142 140.252 16.9911C139.943 16.068 139.488 15.2692 138.888 14.5947C138.287 13.9024 137.55 13.3698 136.677 12.997C135.822 12.6065 134.848 12.4112 133.757 12.4112C132.683 12.4112 131.728 12.6065 130.891 12.997C130.072 13.3698 129.381 13.8935 128.817 14.568C128.252 15.2426 127.825 16.0414 127.534 16.9645C127.261 17.8698 127.124 18.8639 127.124 19.9467C127.124 21.1361 127.288 22.2012 127.616 23.142C127.943 24.0828 128.407 24.8816 129.008 25.5385C129.608 26.1953 130.318 26.7012 131.137 27.0562C131.974 27.4112 132.892 27.5888 133.893 27.5888ZM163.721 11.2396L163.666 11.7189L163.53 11.8254C163.238 11.8254 162.957 11.8432 162.684 11.8787C162.429 11.8964 162.229 11.9675 162.083 12.0917C161.938 12.216 161.801 12.3757 161.674 12.571C161.565 12.7663 161.492 13.1124 161.455 13.6095C161.437 13.858 161.419 14.0888 161.401 14.3018C161.401 14.5148 161.392 14.7633 161.374 15.0473C161.374 15.3314 161.374 15.6775 161.374 16.0858C161.374 16.4941 161.374 17.0178 161.374 17.6568V22.3432C161.374 23.3373 161.374 24.1538 161.374 24.7929C161.392 25.432 161.401 25.9823 161.401 26.4438C161.419 26.8876 161.437 27.287 161.455 27.642C161.492 27.997 161.528 28.3876 161.565 28.8136L161.346 28.9467L159.654 28.8402L159.381 28.5207L149.665 14.3284C149.665 14.5059 149.656 14.6834 149.637 14.8609C149.637 15.0385 149.637 15.2604 149.637 15.5266C149.637 15.7751 149.637 16.068 149.637 16.4053C149.637 16.7426 149.637 17.1598 149.637 17.6568V22.5562C149.637 22.7692 149.637 23.0533 149.637 23.4083C149.637 23.7456 149.637 24.1006 149.637 24.4734C149.656 24.8462 149.665 25.2101 149.665 25.5651C149.683 25.9024 149.701 26.1775 149.719 26.3905C149.756 26.8343 149.829 27.1716 149.938 27.4024C150.065 27.6154 150.22 27.784 150.402 27.9083C150.547 28.0148 150.738 28.0858 150.975 28.1213C151.212 28.1568 151.512 28.1746 151.876 28.1746L152.012 28.2811L152.094 28.7604L152.039 28.8669C151.912 28.8669 151.712 28.858 151.439 28.8402C151.184 28.8225 150.911 28.8047 150.62 28.787C150.329 28.7692 150.047 28.7515 149.774 28.7337C149.519 28.716 149.328 28.7071 149.201 28.7071H148.682C148.555 28.7071 148.346 28.716 148.054 28.7337C147.763 28.7515 147.463 28.7692 147.154 28.787C146.845 28.8047 146.544 28.8225 146.253 28.8402C145.962 28.858 145.753 28.8669 145.625 28.8669L145.571 28.7604L145.653 28.2811L145.789 28.1746C146.117 28.1746 146.39 28.1657 146.608 28.1479C146.845 28.1124 147.054 28.0326 147.236 27.9083C147.363 27.8195 147.49 27.6775 147.618 27.4822C147.763 27.2692 147.863 26.9053 147.918 26.3905C147.936 26.2663 147.945 26.1243 147.945 25.9645C147.964 25.787 147.973 25.574 147.973 25.3254C147.973 25.0769 147.973 24.7751 147.973 24.4201C147.973 24.0651 147.973 23.6213 147.973 23.0888V17.6834C147.973 17.0621 147.973 16.5385 147.973 16.1124C147.973 15.6864 147.973 15.3225 147.973 15.0207C147.973 14.7189 147.964 14.4615 147.945 14.2485C147.945 14.0355 147.936 13.8225 147.918 13.6095C147.882 13.2367 147.8 12.926 147.672 12.6775C147.545 12.4112 147.399 12.216 147.236 12.0917C147.072 11.9675 146.863 11.8964 146.608 11.8787C146.371 11.8432 146.098 11.8254 145.789 11.8254L145.653 11.7189L145.571 11.2396L145.625 11.1331C145.753 11.1331 145.935 11.142 146.171 11.1598C146.426 11.1775 146.681 11.1953 146.935 11.213C147.19 11.2308 147.436 11.2485 147.672 11.2663C147.927 11.284 148.118 11.2929 148.246 11.2929H149.201C149.346 11.2929 149.547 11.284 149.801 11.2663C150.074 11.2485 150.293 11.2219 150.456 11.1864L150.593 11.2663C150.666 11.5148 150.811 11.8609 151.029 12.3047C151.266 12.7308 151.539 13.2101 151.848 13.7426C152.176 14.2751 152.522 14.8432 152.885 15.4467C153.267 16.0503 153.65 16.645 154.032 17.2308C155.415 19.3964 156.616 21.1627 157.634 22.5296C158.672 23.8964 159.336 24.784 159.627 25.1923C159.627 25.068 159.627 24.9527 159.627 24.8462C159.645 24.7396 159.654 24.6154 159.654 24.4734C159.654 24.3314 159.654 24.1538 159.654 23.9408C159.654 23.7278 159.654 23.4438 159.654 23.0888V17.6834C159.654 17.0621 159.654 16.5385 159.654 16.1124C159.654 15.6864 159.645 15.3225 159.627 15.0207C159.627 14.7189 159.618 14.4615 159.6 14.2485C159.6 14.0355 159.591 13.8225 159.572 13.6095C159.536 13.1124 159.454 12.7663 159.327 12.571C159.199 12.3757 159.063 12.216 158.917 12.0917C158.753 11.9675 158.535 11.8964 158.262 11.8787C158.008 11.8432 157.735 11.8254 157.443 11.8254L157.334 11.7189L157.252 11.2396L157.307 11.1331C157.434 11.1331 157.616 11.142 157.853 11.1598C158.089 11.1775 158.326 11.1953 158.562 11.213C158.817 11.2308 159.063 11.2485 159.299 11.2663C159.536 11.284 159.718 11.2929 159.845 11.2929H161.128C161.255 11.2929 161.437 11.2929 161.674 11.2929C161.91 11.2751 162.156 11.2574 162.411 11.2396C162.665 11.2219 162.911 11.2041 163.148 11.1864C163.384 11.1686 163.566 11.1509 163.693 11.1331L163.721 11.2396ZM176.797 28.8669C176.669 28.8669 176.469 28.858 176.196 28.8402C175.923 28.8225 175.632 28.8047 175.323 28.787C175.014 28.7692 174.722 28.7515 174.45 28.7337C174.177 28.716 173.977 28.7071 173.849 28.7071H172.293C172.166 28.7071 171.966 28.716 171.693 28.7337C171.42 28.7515 171.129 28.7692 170.82 28.787C170.528 28.8047 170.246 28.8225 169.973 28.8402C169.701 28.858 169.501 28.8669 169.373 28.8669L169.318 28.7604L169.4 28.2811L169.537 28.1746C169.828 28.1746 170.156 28.1657 170.519 28.1479C170.883 28.1124 171.138 28.0326 171.284 27.9083C171.429 27.784 171.584 27.6242 171.748 27.429C171.911 27.2337 172.011 26.8876 172.048 26.3905C172.066 26.2663 172.075 26.1243 172.075 25.9645C172.093 25.787 172.102 25.574 172.102 25.3254C172.121 25.0769 172.13 24.7751 172.13 24.4201C172.13 24.0651 172.13 23.6213 172.13 23.0888V17.6834C172.13 16.5296 172.121 15.5089 172.102 14.6213C172.084 13.716 172.066 13.0325 172.048 12.571H171.748C170.838 12.571 170.092 12.5799 169.509 12.5976C168.927 12.5976 168.454 12.6154 168.09 12.6509C167.744 12.6686 167.481 12.6953 167.299 12.7308C167.135 12.7663 167.017 12.8107 166.944 12.8639C166.543 13.0769 166.298 13.5385 166.207 14.2485L166.098 14.355H165.47L165.661 11.3195L165.77 11.0799L165.934 11C166.079 11.0533 166.398 11.1065 166.889 11.1598C167.381 11.1953 167.918 11.2219 168.5 11.2396C169.082 11.2574 169.637 11.2751 170.165 11.2929C170.71 11.2929 171.101 11.2929 171.338 11.2929H174.777C175.014 11.2929 175.396 11.2929 175.923 11.2929C176.469 11.2751 177.033 11.2574 177.616 11.2396C178.198 11.2219 178.735 11.1953 179.226 11.1598C179.717 11.1065 180.036 11.0533 180.181 11L180.345 11.0799L180.454 11.3195L180.672 14.355H180.017L179.908 14.2485C179.817 13.5385 179.572 13.0769 179.171 12.8639C179.098 12.8107 178.971 12.7663 178.789 12.7308C178.625 12.6953 178.361 12.6686 177.998 12.6509C177.652 12.6154 177.188 12.5976 176.606 12.5976C176.024 12.5799 175.287 12.571 174.395 12.571H174.095C174.076 13.0858 174.058 13.7604 174.04 14.5947C174.04 15.429 174.04 16.4497 174.04 17.6568V22.5562C174.04 23.1953 174.04 23.7189 174.04 24.1272C174.04 24.5178 174.04 24.8462 174.04 25.1124C174.058 25.3787 174.067 25.6095 174.067 25.8047C174.086 25.9823 174.104 26.1775 174.122 26.3905C174.158 26.8876 174.258 27.2337 174.422 27.429C174.586 27.6242 174.741 27.784 174.886 27.9083C175.032 28.0326 175.287 28.1124 175.65 28.1479C176.014 28.1657 176.342 28.1746 176.633 28.1746L176.769 28.2811L176.851 28.7604L176.797 28.8669ZM189.239 28.8669C189.112 28.8669 188.902 28.858 188.611 28.8402C188.32 28.8225 188.02 28.8047 187.71 28.787C187.401 28.7692 187.101 28.7515 186.81 28.7337C186.519 28.716 186.309 28.7071 186.182 28.7071H185.663C185.536 28.7071 185.327 28.716 185.035 28.7337C184.745 28.7515 184.444 28.7692 184.135 28.787C183.826 28.8047 183.525 28.8225 183.234 28.8402C182.943 28.858 182.734 28.8669 182.606 28.8669L182.552 28.7604L182.634 28.2811L182.77 28.1746C182.988 28.1746 183.243 28.1657 183.534 28.1479C183.826 28.1124 184.053 28.0414 184.217 27.9349C184.363 27.8284 184.499 27.6598 184.626 27.429C184.754 27.1982 184.844 26.8521 184.899 26.3905C184.899 26.2663 184.899 26.1243 184.899 25.9645C184.917 25.787 184.926 25.574 184.926 25.3254C184.945 25.0769 184.954 24.7751 184.954 24.4201C184.954 24.0651 184.954 23.6213 184.954 23.0888V16.1657C184.954 15.8107 184.945 15.4113 184.926 14.9675C184.926 14.5059 184.908 14.0533 184.872 13.6095C184.835 13.2012 184.754 12.8817 184.626 12.6509C184.499 12.4024 184.363 12.216 184.217 12.0917C184.053 12.003 183.88 11.9408 183.698 11.9053C183.534 11.8521 183.225 11.8254 182.77 11.8254L182.634 11.7189L182.552 11.2396L182.606 11.1331C182.734 11.1331 182.898 11.142 183.098 11.1598C183.316 11.1775 183.534 11.1953 183.753 11.213C183.989 11.2308 184.226 11.2485 184.462 11.2663C184.699 11.284 184.917 11.2929 185.117 11.2929H186.1C186.3 11.2929 186.528 11.2929 186.782 11.2929C187.037 11.2929 187.292 11.2929 187.546 11.2929C187.819 11.2751 188.065 11.2663 188.283 11.2663C188.502 11.2663 188.684 11.2663 188.829 11.2663C190.048 11.2663 191.077 11.3817 191.913 11.6124C192.769 11.8432 193.46 12.1627 193.988 12.571C194.516 12.9615 194.898 13.4408 195.134 14.0089C195.389 14.5592 195.516 15.1538 195.516 15.7929C195.516 16.5562 195.371 17.2219 195.079 17.7899C194.806 18.3403 194.452 18.8195 194.015 19.2278C193.578 19.6184 193.087 19.9379 192.541 20.1864C191.995 20.4172 191.459 20.5947 190.931 20.7189C191.513 21.5178 192.114 22.3077 192.732 23.0888C193.351 23.8698 193.988 24.6331 194.643 25.3787C195.007 25.787 195.343 26.1509 195.652 26.4704C195.962 26.7899 196.29 27.0651 196.635 27.2959C196.999 27.5266 197.4 27.713 197.836 27.855C198.273 27.997 198.801 28.1035 199.419 28.1746L199.583 28.2811L199.637 28.7604L199.583 28.8669C199.183 28.8846 198.728 28.9024 198.218 28.9201C197.709 28.9556 197.308 28.9734 197.017 28.9734C196.544 28.9734 196.135 28.9201 195.789 28.8136C195.444 28.7071 195.107 28.5385 194.779 28.3077C194.452 28.0769 194.115 27.7751 193.769 27.4024C193.442 27.0296 193.06 26.5858 192.623 26.071C192.568 26.0178 192.405 25.8136 192.132 25.4586C191.877 25.0858 191.559 24.6509 191.176 24.1538C190.813 23.6391 190.422 23.0976 190.003 22.5296C189.603 21.9438 189.23 21.4024 188.884 20.9053H186.891C186.891 21.3846 186.891 21.9083 186.891 22.4763C186.891 23.0444 186.891 23.5858 186.891 24.1006C186.91 24.6154 186.919 25.0858 186.919 25.5118C186.937 25.9201 186.955 26.213 186.973 26.3905C187.01 26.9053 187.101 27.2692 187.246 27.4822C187.392 27.6775 187.519 27.8195 187.628 27.9083C187.792 27.997 187.956 28.068 188.12 28.1213C188.302 28.1568 188.629 28.1746 189.102 28.1746L189.211 28.2811L189.293 28.7604L189.239 28.8669ZM189.375 19.7337C190.886 19.7337 191.968 19.3964 192.623 18.7219C193.296 18.0296 193.633 17.1065 193.633 15.9527C193.633 14.8698 193.251 14.0355 192.486 13.4497C191.741 12.8639 190.712 12.571 189.402 12.571H187.028C186.992 13.0858 186.964 13.5207 186.946 13.8757C186.946 14.2308 186.937 14.5414 186.919 14.8077C186.901 15.074 186.891 15.3136 186.891 15.5266C186.891 15.7396 186.891 15.9438 186.891 16.1391V18.7485C186.891 18.9793 186.901 19.1657 186.919 19.3077C186.937 19.432 186.983 19.5296 187.055 19.6006C187.128 19.6538 187.228 19.6893 187.355 19.7071C187.501 19.7249 187.692 19.7337 187.929 19.7337H189.375ZM209.322 11C210.741 11 212.006 11.2396 213.116 11.7189C214.226 12.1982 215.154 12.855 215.9 13.6893C216.664 14.5059 217.246 15.4556 217.647 16.5385C218.047 17.6213 218.247 18.7574 218.247 19.9467C218.247 21.1183 218.047 22.2545 217.647 23.355C217.264 24.4379 216.691 25.3965 215.927 26.2308C215.163 27.0651 214.208 27.7397 213.061 28.2544C211.933 28.7515 210.623 29 209.131 29C207.676 29 206.402 28.7604 205.31 28.2811C204.237 27.8018 203.327 27.1627 202.581 26.3639C201.853 25.5473 201.307 24.6065 200.943 23.5414C200.579 22.4586 200.397 21.3225 200.397 20.1331C200.397 18.8728 200.597 17.6923 200.998 16.5917C201.398 15.4734 201.98 14.5059 202.744 13.6893C203.509 12.855 204.446 12.1982 205.556 11.7189C206.666 11.2396 207.921 11 209.322 11ZM209.295 27.5888C210.387 27.5888 211.351 27.3935 212.188 27.003C213.043 26.5947 213.762 26.0444 214.344 25.3521C214.926 24.6598 215.372 23.8521 215.681 22.929C215.991 22.0059 216.145 21.0207 216.145 19.9734C216.145 18.9083 215.982 17.9142 215.654 16.9911C215.345 16.068 214.89 15.2692 214.289 14.5947C213.689 13.9024 212.952 13.3698 212.079 12.997C211.224 12.6065 210.25 12.4112 209.158 12.4112C208.085 12.4112 207.13 12.6065 206.293 12.997C205.474 13.3698 204.782 13.8935 204.218 14.568C203.654 15.2426 203.227 16.0414 202.935 16.9645C202.663 17.8698 202.526 18.8639 202.526 19.9467C202.526 21.1361 202.69 22.2012 203.017 23.142C203.345 24.0828 203.809 24.8816 204.409 25.5385C205.01 26.1953 205.719 26.7012 206.538 27.0562C207.375 27.4112 208.294 27.5888 209.295 27.5888ZM223.292 13.6095C223.256 13.1124 223.174 12.7663 223.047 12.571C222.919 12.3757 222.783 12.216 222.637 12.0917C222.474 11.9675 222.264 11.8964 222.01 11.8787C221.755 11.8432 221.482 11.8254 221.191 11.8254L221.054 11.7189L220.972 11.2396L221.027 11.1331C221.155 11.1331 221.364 11.142 221.655 11.1598C221.946 11.1775 222.246 11.1953 222.555 11.213C222.865 11.2308 223.165 11.2485 223.456 11.2663C223.747 11.284 223.956 11.2929 224.084 11.2929H224.602C224.73 11.2929 224.939 11.284 225.23 11.2663C225.521 11.2485 225.822 11.2308 226.131 11.213C226.44 11.1953 226.74 11.1775 227.032 11.1598C227.323 11.142 227.532 11.1331 227.659 11.1331L227.714 11.2396L227.632 11.7189L227.523 11.8254C227.232 11.8254 226.95 11.8432 226.677 11.8787C226.422 11.8964 226.213 11.9675 226.049 12.0917C225.904 12.216 225.758 12.3846 225.612 12.5976C225.485 12.7929 225.403 13.1302 225.367 13.6095C225.348 13.858 225.33 14.0888 225.312 14.3018C225.312 14.5148 225.312 14.7633 225.312 15.0473C225.312 15.3314 225.312 15.6775 225.312 16.0858C225.312 16.4941 225.312 17.0178 225.312 17.6568V22.5562C225.312 23.1775 225.312 23.6923 225.312 24.1006C225.312 24.5089 225.312 24.8639 225.312 25.1657C225.33 25.4674 225.348 25.7515 225.367 26.0178C225.385 26.284 225.403 26.5858 225.421 26.9231C225.44 27.2604 225.631 27.429 225.994 27.429H228.314C229.406 27.429 230.225 27.4112 230.771 27.3757C231.335 27.3225 231.735 27.2248 231.972 27.0828C232.226 26.9408 232.381 26.7278 232.436 26.4438C232.49 26.142 232.581 25.7515 232.708 25.2722L232.79 25.1657H233.5L233.009 28.5473L232.79 28.8136C232.7 28.8136 232.526 28.8047 232.272 28.787C232.035 28.787 231.753 28.7781 231.426 28.7604C231.117 28.7426 230.789 28.7249 230.443 28.7071C230.116 28.7071 229.834 28.7071 229.597 28.7071H224.084C223.956 28.7071 223.747 28.716 223.456 28.7337C223.165 28.7515 222.865 28.7692 222.555 28.787C222.246 28.8047 221.946 28.8225 221.655 28.8402C221.364 28.858 221.155 28.8669 221.027 28.8669L220.972 28.7604L221.054 28.2811L221.191 28.1746C221.482 28.1746 221.755 28.1657 222.01 28.1479C222.264 28.1124 222.474 28.0326 222.637 27.9083C222.783 27.784 222.919 27.6065 223.047 27.3757C223.174 27.145 223.265 26.8166 223.32 26.3905C223.338 26.2663 223.347 26.1243 223.347 25.9645C223.365 25.787 223.374 25.574 223.374 25.3254C223.374 25.0769 223.374 24.7751 223.374 24.4201C223.374 24.0651 223.374 23.6213 223.374 23.0888V17.6834C223.374 17.0621 223.374 16.5385 223.374 16.1124C223.374 15.6864 223.365 15.3225 223.347 15.0207C223.347 14.7189 223.338 14.4615 223.32 14.2485C223.32 14.0355 223.311 13.8225 223.292 13.6095Z" fill="white"/>
</svg>
