<svg width="195" height="40" viewBox="0 0 195 40" fill="none" xmlns="http://www.w3.org/2000/svg">
<path d="M34.0742 9.17581L18.7256 0.301013C18.3834 0.103796 17.9954 0 17.6005 0C17.2056 0 16.8177 0.103796 16.4754 0.301013L1.12679 9.17581C0.784518 9.37396 0.500259 9.65869 0.302498 10.0015C0.104737 10.3443 0.000419742 10.7331 0 11.129V28.8752C0 29.6765 0.430964 30.4239 1.12679 30.8284L16.4754 39.7021C16.8189 39.8974 17.2072 40 17.6022 40C17.9972 40 18.3855 39.8974 18.729 39.7021L34.0787 30.8284C34.421 30.6303 34.7053 30.3456 34.903 30.0028C35.1008 29.66 35.2051 29.2711 35.2055 28.8752V11.129C35.2055 10.3277 34.7734 9.58039 34.0787 9.17581H34.0742ZM17.9479 18.9002C17.8421 18.9614 17.7221 18.9936 17.6 18.9936C17.4778 18.9936 17.3578 18.9614 17.252 18.9002L2.33215 10.2772L17.2543 1.65184C17.3608 1.59281 17.4805 1.56184 17.6022 1.56184C17.7239 1.56184 17.8436 1.59281 17.9501 1.65184L32.8711 10.2772L17.9479 18.9002ZM16.4754 20.2454C16.5846 20.3084 16.7014 20.3616 16.8256 20.405V38.0973L1.90343 29.4776C1.79743 29.4166 1.70936 29.3287 1.64808 29.2227C1.58681 29.1168 1.55449 28.9966 1.55439 28.8741V11.6224L16.4754 20.2454Z" fill="white"/>
<path d="M54.8609 27.3085C58.9359 27.3085 61.497 24.7271 62.1962 22.3805L58.8776 21.032C58.3838 22.7919 56.927 23.9943 54.9484 23.9943C52.4737 23.9943 50.5523 22.1176 50.5523 19.2428C50.5523 16.3681 52.4737 14.4913 54.9181 14.4913C56.8978 14.4913 58.2962 15.6938 58.79 17.4829L62.1087 16.1636C61.4106 13.7586 58.8484 11.1772 54.8609 11.1772C50.2325 11.1772 46.8555 14.697 46.8555 19.2721C46.8555 23.8471 50.2897 27.3085 54.8609 27.3085ZM67.8785 13.2304V11.4997H64.3847V26.9579H68.0816V18.1584C68.0816 16.0759 69.7707 14.6397 72.4473 14.6397V11.148C70.5282 11.148 68.9267 11.9987 67.8785 13.2304ZM85.1574 11.4997L80.8197 23.9651L76.8614 11.4997H73.0478L78.4618 26.9567H79.6267L77.5303 32.2061H81.1688L83.1485 26.9567L88.9991 11.4997H85.1574ZM99.4096 11.148C97.2267 11.148 95.4512 12.0279 94.2582 13.5237V11.5008H90.8228V32.2061H94.5197V25.3137C95.6835 26.5746 97.3142 27.3085 99.3231 27.3085C103.718 27.3085 106.92 23.8471 106.92 19.2428C106.92 14.6093 103.806 11.148 99.4096 11.148ZM98.8271 24.0236C96.1785 24.0236 94.3738 22.058 94.3738 19.2428C94.3738 16.4277 96.1785 14.4621 98.8271 14.4621C101.36 14.4621 103.223 16.485 103.223 19.2428C103.223 21.9703 101.36 24.0236 98.8271 24.0236ZM116.056 26.9567H118.472V23.701H116.783C115.124 23.701 114.222 22.7334 114.222 20.9443V14.6959H118.355V11.5008H114.337V7.48207H110.728V9.91626C110.728 10.9727 110.234 11.5008 109.215 11.5008H107.818V14.697H110.496V21.3545C110.496 24.7563 112.388 26.9567 116.056 26.9567ZM127.667 27.3085C132.441 27.3085 135.846 23.8471 135.846 19.2428C135.846 14.6093 132.441 11.148 127.667 11.148C122.863 11.148 119.488 14.6093 119.488 19.2428C119.488 23.8471 122.863 27.3085 127.667 27.3085ZM127.696 23.9932C125.018 23.9932 123.184 21.9996 123.184 19.2428C123.184 16.4558 125.018 14.4913 127.696 14.4913C130.345 14.4913 132.12 16.4569 132.12 19.2136C132.12 22.0007 130.316 23.9932 127.696 23.9932ZM156.659 11.148C154.068 11.148 152.322 12.2336 151.478 13.6709C150.605 12.0571 149.061 11.148 146.616 11.148C144.55 11.148 142.948 12.0279 141.988 13.2012V11.4997H138.495V26.9264H142.192V17.5717C142.221 16.1063 143.385 14.4925 145.48 14.4632C147.547 14.4632 148.683 16.0175 148.683 18.0415V26.9275H152.38V17.5717C152.409 16.1355 153.544 14.4925 155.668 14.4632C157.737 14.4632 158.842 16.0478 158.842 18.0415V26.9275H162.539V17.3661C162.539 13.8755 160.474 11.148 156.659 11.148ZM176.118 11.4997V20.8555C176.118 22.557 174.779 23.9651 172.713 23.9943C170.646 23.9943 169.336 22.6154 169.336 20.6218V11.4997H165.639V21.0904C165.639 24.6686 167.734 27.3085 171.635 27.3085C173.615 27.3085 175.274 26.4578 176.351 25.2553V26.9567H179.815V11.4997H176.118ZM188.654 27.3085C192.496 27.3085 194.999 25.4902 194.999 22.4109C194.999 16.7502 186.587 18.3629 186.587 15.5477C186.587 14.6093 187.315 14.0227 188.683 14.0227C189.964 14.0227 190.866 14.5801 191.273 15.7534L194.505 14.4913C193.864 12.3797 191.71 11.148 188.74 11.148C185.131 11.148 182.802 12.9079 182.802 15.723C182.802 21.032 191.215 19.6238 191.215 22.6739C191.215 23.7595 190.284 24.3753 188.799 24.3753C186.936 24.3753 185.743 23.5246 185.306 22.0872L182.075 23.3493C182.919 25.9588 185.335 27.3085 188.654 27.3085Z" fill="white"/>
</svg>
