<svg width="106" height="40" viewBox="0 0 106 40" fill="none" xmlns="http://www.w3.org/2000/svg">
<path d="M34.08 9.41961H28.3075C27.9106 9.41961 27.5859 9.74566 27.5859 10.1442V27.5738C27.5859 27.9723 27.9106 28.2983 28.3075 28.2983H33.8383C35.4474 28.2983 38.1677 27.4832 38.1677 24.4327V13.3613C38.1677 11.9955 37.3126 9.41599 34.08 9.41599V9.41961ZM36.7245 24.4327C36.7245 26.7333 34.3217 26.8492 33.8383 26.8492H29.0291V10.8688H34.08C36.6235 10.8688 36.7245 13.1113 36.7245 13.3649V24.4364V24.4327Z" fill="white"/>
<path d="M45.8288 16.0022C43.1518 16.0022 40.9727 18.7592 40.9727 22.1502C40.9727 25.5412 43.1518 28.2982 45.8288 28.2982C48.5058 28.2982 50.6849 25.5412 50.6849 22.1502C50.6849 18.7592 48.5058 16.0022 45.8288 16.0022ZM45.8288 26.8491C43.9455 26.8491 42.4158 24.7406 42.4158 22.1502C42.4158 19.5599 43.9455 17.4514 45.8288 17.4514C47.7121 17.4514 49.2418 19.5599 49.2418 22.1502C49.2418 24.7406 47.7121 26.8491 45.8288 26.8491Z" fill="white"/>
<path d="M57.9463 20.6758L61.8535 17.0457C62.1458 16.7739 62.1638 16.3138 61.8932 16.0204C61.6226 15.7269 61.1644 15.7088 60.8722 15.9805L54.5369 21.8677V8.51382C54.5369 8.1153 54.2122 7.78925 53.8153 7.78925C53.4185 7.78925 53.0938 8.1153 53.0938 8.51382V28.1678C53.0938 28.5664 53.4185 28.8924 53.8153 28.8924C54.2122 28.8924 54.5369 28.5664 54.5369 28.1678V23.8422L56.8747 21.6684L61.4603 28.2222C61.601 28.4214 61.8247 28.5301 62.052 28.5301C62.1963 28.5301 62.3406 28.4867 62.4669 28.3997C62.7916 28.1679 62.8709 27.7186 62.6436 27.3889L57.9463 20.6758Z" fill="white"/>
<path d="M74.8602 18.9186C74.6726 18.8534 74.4669 18.9512 74.3984 19.1396L71.725 26.6606L69.6397 19.9149C69.5928 19.7627 69.4557 19.6613 69.2969 19.6613C69.1418 19.6613 69.0011 19.7627 68.9542 19.9113L66.7679 26.7295L63.8888 19.3715C63.8167 19.1867 63.6074 19.0925 63.4198 19.1686C63.2358 19.241 63.142 19.4512 63.2178 19.6395L66.4648 27.9431C66.5189 28.0808 66.6524 28.1714 66.8003 28.1714H66.8111C66.9627 28.1678 67.0962 28.0663 67.1431 27.9214L69.2897 21.2264L71.357 27.9178C71.4039 28.0663 71.5374 28.1678 71.6925 28.1714C71.8513 28.1714 71.9884 28.0772 72.0389 27.9323L75.0766 19.3896C75.1452 19.2012 75.0442 18.9947 74.8566 18.9258L74.8602 18.9186Z" fill="white"/>
<path d="M79.2787 19.1397C77.7129 19.1397 76.8471 19.9259 76.811 19.9621C76.6667 20.0961 76.6559 20.3244 76.7893 20.4729C76.9228 20.6215 77.1501 20.6323 77.298 20.4983C77.3269 20.4729 78.0088 19.8679 79.2787 19.8679C80.3863 19.8679 81.6851 20.3824 81.714 21.8387C81.7212 22.1757 81.7248 22.6575 81.7248 23.2082C80.675 23.056 77.7959 22.7879 76.7605 24.2117C75.9199 25.3674 76.3203 26.7042 76.7677 27.2767C76.977 27.5411 77.6119 28.349 78.8566 28.349C79.9678 28.349 81.0357 27.6933 81.7176 26.947C81.7176 27.6426 81.7104 28.1208 81.7104 28.1353C81.7104 28.3345 81.8691 28.4976 82.0676 28.5012C82.266 28.5012 82.4284 28.3418 82.4284 28.1425C82.4284 28.0954 82.4572 23.3785 82.4284 21.8242C82.3923 19.973 80.8157 19.1433 79.2715 19.1433L79.2787 19.1397ZM78.8566 27.6245C78.0557 27.6245 77.6047 27.168 77.3341 26.8274C77.0671 26.4869 76.7172 25.5051 77.3413 24.6392C78.0846 23.6176 80.5739 23.7625 81.7248 23.94C81.7248 24.487 81.7248 25.0595 81.7248 25.6029C81.5481 26.2985 80.2276 27.6281 78.8566 27.6281V27.6245Z" fill="white"/>
<path d="M85.7436 13.3757C85.5452 13.3757 85.3828 13.5387 85.3828 13.738V28.1388C85.3828 28.3381 85.5452 28.5011 85.7436 28.5011C85.942 28.5011 86.1044 28.3381 86.1044 28.1388V13.738C86.1044 13.5387 85.942 13.3757 85.7436 13.3757Z" fill="white"/>
<path d="M89.2592 13.3757C89.0608 13.3757 88.8984 13.5387 88.8984 13.738V28.1388C88.8984 28.3381 89.0608 28.5011 89.2592 28.5011C89.4577 28.5011 89.62 28.3381 89.62 28.1388V13.738C89.62 13.5387 89.4577 13.3757 89.2592 13.3757Z" fill="white"/>
<path d="M95.4834 19.1397C94.6175 19.1397 91.9802 19.1397 91.9766 23.5161C91.9766 25.2189 92.3554 26.4941 93.1094 27.3056C93.7119 27.9541 94.5525 28.2983 95.5447 28.2983C97.6517 28.2983 98.6835 27.1028 98.7268 27.052C98.8567 26.8999 98.835 26.6716 98.6835 26.5412C98.532 26.4108 98.3047 26.4289 98.1748 26.5847C98.1676 26.5956 97.3197 27.5737 95.5447 27.5737C94.7474 27.5737 94.1052 27.3165 93.6361 26.8129C93.0661 26.197 92.7522 25.2189 92.7053 23.8965L98.5716 23.911C98.7593 23.911 98.9144 23.7661 98.9324 23.5813C98.9396 23.4944 99.1056 21.4149 97.9258 20.1251C97.3306 19.473 96.508 19.1433 95.487 19.1433L95.4834 19.1397ZM92.7017 23.172C92.8208 19.8643 94.6067 19.8643 95.4834 19.8643C96.2951 19.8643 96.9373 20.1143 97.3883 20.6106C98.1026 21.3931 98.2109 22.6032 98.2181 23.1864L92.7017 23.172Z" fill="white"/>
<path d="M104.75 27.5303C104.245 27.6064 102.806 27.7114 102.236 27.2767C101.691 26.86 101.727 26.0956 101.731 26.0666V19.8679H104.768C104.967 19.8679 105.129 19.7049 105.129 19.5056C105.129 19.3064 104.967 19.1433 104.768 19.1433H101.731V14.8974C101.731 14.6981 101.568 14.5351 101.37 14.5351C101.171 14.5351 101.009 14.6981 101.009 14.8974V26.0449C101.009 26.092 100.944 27.2006 101.799 27.8563C102.297 28.2367 103.098 28.3309 103.758 28.3309C104.31 28.3309 104.761 28.2657 104.858 28.2512C105.057 28.2222 105.19 28.0375 105.162 27.8382C105.133 27.639 104.949 27.5049 104.75 27.5339V27.5303Z" fill="white"/>
<path d="M0.410156 5.19156C0.410156 5.19156 12.0742 12.1366 13.3153 12.8648C15.5161 14.1581 15.6171 16.2413 14.174 17.8897C12.7308 19.5381 0.410156 26.3636 0.410156 26.3636V31.8776C0.410156 31.8776 14.7043 23.7334 16.9664 21.8133C18.1281 20.8278 19.6939 19.1178 19.5713 15.8971C19.4486 12.6764 18.4492 10.3034 14.0008 7.80727C9.55236 5.31112 0.410156 0 0.410156 0V5.19156Z" fill="white"/>
<path d="M0.167969 6.62268L3.25626 8.35079L3.33563 23.3676L0.409692 25.1572L0.167969 6.62268Z" fill="white"/>
<path d="M3.30217 17.0129C3.30217 17.0129 11.9862 22.1465 12.7835 22.6139C14.8905 23.8456 14.9915 25.8273 13.6061 27.3997C12.2207 28.972 1.38281 34.7468 1.38281 34.7468V40C1.38281 40 14.1184 32.9644 16.2867 31.1385C17.4015 30.2001 18.8988 28.5699 18.7869 25.5013C18.6751 22.4327 17.7118 20.1721 13.4437 17.7918C10.7379 16.2847 3.28052 12.0025 3.28052 12.0025L3.30578 17.0093L3.30217 17.0129Z" fill="#FF4C00"/>
</svg>
