<svg width="102" height="40" viewBox="0 0 102 40" fill="none" xmlns="http://www.w3.org/2000/svg">
<path fill-rule="evenodd" clip-rule="evenodd" d="M24.9625 14.073C26.0004 14.1365 27.0384 13.9279 27.9607 13.4622C28.883 12.9996 29.6583 12.298 30.2023 11.4423C30.9089 10.4717 31.2465 9.29244 31.1559 8.10713C31.0808 7.43283 30.8526 7.19998 30.4743 7.40559C29.5239 7.91661 28.4671 8.22503 27.3823 8.3097C26.2255 8.45484 25.0562 8.50624 23.8901 8.46391C22.8803 8.41251 21.3202 8.29461 19.2161 8.11318C17.1089 7.92873 15.652 7.81682 14.8392 7.77751C14.2576 7.73518 13.7137 7.71099 13.2103 7.70191C12.707 7.69284 11.8566 7.7231 10.6592 7.79264C9.58368 7.84707 8.51444 7.98616 7.46085 8.2069C6.42288 8.44578 5.41931 8.79955 4.46576 9.26219C3.49344 9.69761 2.62743 10.3266 1.92712 11.1097C0.964186 12.1438 0.401425 13.4683 0.335771 14.8592C0.257611 15.5002 0.348281 16.1503 0.604647 16.746C0.857885 17.3417 1.26432 17.8678 1.78643 18.27C2.62118 18.899 3.65288 19.2346 4.71274 19.2195C5.6913 19.2437 6.66674 19.0652 7.57027 18.6994C8.25808 18.4212 8.88961 18.0281 9.43361 17.5352C9.71186 17.2873 9.94322 16.9909 10.1152 16.6644C10.1589 16.5948 10.1839 16.5162 10.1839 16.4346C10.1839 16.3529 10.1621 16.2743 10.1152 16.2048C9.97135 16.0657 9.81816 15.9387 9.65246 15.8238C9.44924 15.6786 9.28041 15.4912 9.16161 15.2734C8.95527 14.9711 8.88336 14.6022 8.95527 14.2484C9.01779 13.7555 9.17724 13.2747 9.42736 12.8423C9.74625 12.3132 10.2246 11.8868 10.7967 11.6177C11.5127 11.267 12.3161 11.1128 13.1165 11.1702H13.1478L9.28041 22.8903C8.53008 25.1551 8.60512 27.0782 9.49927 28.6597C10.3965 30.2411 12.1192 31.0938 14.6672 31.2147C15.9178 31.2782 17.1715 31.1241 18.3657 30.7552C19.4444 30.4437 20.4604 29.9508 21.364 29.3007C22.0768 28.7806 22.7396 28.197 23.3399 27.556C23.7744 27.1024 24.1433 26.5944 24.4341 26.0411C24.5216 25.9322 24.581 25.8052 24.6123 25.6692C24.6436 25.5331 24.6404 25.394 24.6092 25.261C24.5248 25.1067 24.3028 25.1219 23.9495 25.3063C22.7802 25.902 21.5047 26.286 20.1916 26.4372C19.0598 26.6368 17.8905 26.4644 16.8713 25.9474C16.0084 25.4575 15.7552 24.6411 16.1116 23.4981C16.1147 23.477 16.3586 22.7422 16.8369 21.2938H22.058C22.108 21.3028 22.1581 21.2908 22.2018 21.2605C22.2425 21.2333 22.2706 21.1879 22.28 21.1396L23.3055 18.0795L23.318 18.016L23.1773 17.9253H17.9562C18.0937 17.5594 18.3626 16.7672 18.7628 15.5547C19.163 14.3421 19.4444 13.4894 19.6069 12.9996C21.3358 13.5832 23.1366 13.946 24.9656 14.073H24.9625ZM36.6771 21.6627C36.6771 21.6627 36.6771 21.6324 36.6771 21.6173C36.674 21.6022 36.6677 21.5901 36.6583 21.578C36.6489 21.5659 36.6364 21.5568 36.6239 21.5508C36.6114 21.5447 36.5958 21.5417 36.5802 21.5387H27.1791C27.1291 21.5387 27.0822 21.5508 27.0415 21.578C27.0009 21.6052 26.9727 21.6445 26.9571 21.6899L26.0817 24.3206L26.213 24.4415H35.6423C35.6735 24.4476 35.7079 24.4415 35.7329 24.4234C35.761 24.4052 35.7798 24.381 35.7861 24.3478L36.6771 21.6536V21.6627ZM62.7794 24.508L64.3364 19.7335C64.846 18.2458 64.8303 17.0333 64.2926 16.0929C64.0362 15.6393 63.6517 15.2644 63.1827 15.0134C62.7138 14.7655 62.1823 14.6506 61.6477 14.6838C60.544 14.7262 59.4654 15.0315 58.5119 15.5698C57.2519 16.2622 56.1514 17.1996 55.2854 18.3244C55.3698 17.8618 55.3542 17.387 55.2417 16.9274C55.1291 16.4708 54.9228 16.0385 54.632 15.6605C54.3444 15.3339 53.9849 15.0739 53.5753 14.9046C53.1689 14.7352 52.7249 14.6596 52.281 14.6808C51.1961 14.7231 50.1394 15.0164 49.1983 15.5365C47.9571 16.2017 46.8692 17.1089 46.0063 18.1974C46.0969 17.7469 46.0907 17.2843 45.9781 16.8367C45.8687 16.3892 45.6592 15.9719 45.3685 15.6121C45.0465 15.2855 44.6525 15.0346 44.218 14.8743C43.7834 14.7141 43.3144 14.6475 42.8517 14.6808C41.9294 14.702 41.0228 14.9378 40.2162 15.3702C39.4658 15.6968 38.8155 16.2078 38.3372 16.8549C38.3091 16.8821 38.2872 16.9123 38.2716 16.9486C38.2559 16.9849 38.2528 17.0212 38.2559 17.0605C38.2559 17.0998 38.2716 17.1361 38.2903 17.1694C38.3091 17.2026 38.3372 17.2298 38.3685 17.254C38.506 17.3568 38.678 17.4929 38.8875 17.6683C39.0156 17.8346 39.1094 18.0251 39.1595 18.2277C39.2126 18.4303 39.222 18.6389 39.1876 18.8445C39.1219 19.7517 38.9375 20.6467 38.6373 21.5054C38.1871 22.9115 37.1242 25.9413 35.4547 30.5949L35.4422 30.6584L35.5141 30.7461H41.8732C41.9201 30.7249 41.9607 30.7007 41.9982 30.6705C42.0326 30.6433 42.0545 30.604 42.0639 30.5647L44.7526 22.3642C45.034 21.5085 45.4748 20.7102 46.0469 20.0056C46.7535 19.2104 47.3725 18.8626 47.9009 18.9655C48.4918 19.0683 48.6043 19.6579 48.2416 20.7404C47.929 21.7806 47.6977 22.5063 47.5538 22.9115C47.0974 24.2389 46.2689 26.797 45.0652 30.5919C45.059 30.5919 45.0527 30.5979 45.0496 30.604C45.0465 30.61 45.0433 30.6161 45.0402 30.6221C45.0402 30.6281 45.0402 30.6342 45.0402 30.6403C45.0402 30.6463 45.0465 30.6523 45.0496 30.6554L45.1309 30.7461H51.4931C51.54 30.7249 51.5807 30.7007 51.6182 30.6705C51.6526 30.6433 51.6744 30.604 51.6838 30.5647L53.9442 22.9145L54.1162 22.3642C54.3757 21.4994 54.8165 20.6981 55.4105 20.0056C56.1171 19.2104 56.7361 18.8626 57.2645 18.9655C57.8553 19.0683 57.9679 19.6579 57.6052 20.7404L55.6544 26.6761C55.2041 28.0821 55.2886 29.21 55.9107 30.0536C56.2452 30.483 56.6829 30.8247 57.1894 31.0454C57.6959 31.2662 58.2493 31.3629 58.8058 31.3206C59.7281 31.2994 60.6347 31.0636 61.4413 30.6312C62.1854 30.3107 62.8294 29.8087 63.314 29.1767C63.3641 29.1344 63.3985 29.0739 63.4047 29.0104C63.411 28.9469 63.3922 28.8804 63.3516 28.829C63.2296 28.7141 63.0889 28.6204 62.9326 28.5539C62.7106 28.4299 62.5356 28.2363 62.4418 28.0035C62.2886 27.6134 62.226 27.1962 62.2604 26.7789C62.3261 26.0018 62.4949 25.2337 62.7669 24.499L62.7794 24.508ZM82.5539 23.6523C83.3105 21.3482 83.1229 19.3374 81.9912 17.6229C80.8594 15.9084 79.043 14.959 76.545 14.7775C74.0345 14.6233 71.5459 15.3279 69.5168 16.7672C67.419 18.1158 65.8527 20.1115 65.0742 22.4277C64.3176 24.7318 64.5083 26.7426 65.6526 28.4571C66.7969 30.1715 68.6164 31.121 71.1082 31.3024C73.628 31.4718 76.1292 30.7703 78.1645 29.3249C80.2404 27.9612 81.7817 25.9625 82.5477 23.6493L82.5539 23.6523ZM71.227 22.857C71.6084 21.6203 72.2149 20.4592 73.0215 19.4311C73.281 19.0471 73.6374 18.7326 74.0564 18.521C74.4753 18.3063 74.9443 18.2004 75.4195 18.2095C75.8197 18.2277 76.198 18.3909 76.4731 18.6722C76.7513 18.9503 76.9045 19.3223 76.9076 19.7093C77.0139 20.9037 76.842 22.1072 76.4074 23.229C76.0322 24.4748 75.4288 25.648 74.6222 26.6882C74.3627 27.0661 74.0095 27.3716 73.5968 27.5802C73.181 27.7888 72.7183 27.8917 72.2493 27.8796C71.8491 27.8614 71.4708 27.6921 71.1926 27.4109C70.9174 27.1296 70.7643 26.7547 70.7643 26.3646C70.6548 25.1793 70.8112 23.9819 71.2238 22.8601L71.227 22.857ZM99.6397 24.508C99.9117 23.6705 100.218 22.7573 100.553 21.7655C100.887 20.7737 101.112 20.0964 101.231 19.7305C101.719 18.2428 101.694 17.0303 101.156 16.0899C100.9 15.6363 100.515 15.2614 100.046 15.0104C99.5772 14.7594 99.0457 14.6475 98.5111 14.6808C97.3887 14.7262 96.2945 15.0255 95.3159 15.5516C94.0278 16.2199 92.8992 17.1421 92.005 18.2609C92.1051 17.8074 92.102 17.3387 91.9925 16.8851C91.8831 16.4346 91.6736 16.0112 91.3766 15.6454C91.0515 15.3127 90.6575 15.0527 90.2167 14.8864C89.7759 14.7201 89.3038 14.6506 88.8317 14.6808C87.9094 14.702 87.0028 14.9378 86.1962 15.3702C85.4458 15.6968 84.7955 16.2078 84.3172 16.8549C84.2734 16.9002 84.2484 16.9577 84.2453 17.0182C84.2422 17.0786 84.2609 17.1391 84.2984 17.1905C84.4047 17.2933 84.5267 17.381 84.658 17.4506C84.8518 17.5866 84.9988 17.7802 85.0707 18.0009C85.1989 18.397 85.2426 18.8113 85.202 19.2255C85.1269 20.0026 84.9519 20.7676 84.6799 21.5054C84.2078 22.9115 83.1261 25.9413 81.4347 30.5949C81.4284 30.61 81.4253 30.6281 81.4284 30.6463C81.4284 30.6644 81.4347 30.6795 81.444 30.6947C81.4534 30.7098 81.4659 30.7219 81.4816 30.7309C81.4972 30.74 81.5128 30.7461 81.5316 30.7491H87.8594C87.9094 30.7431 87.9563 30.7219 87.9907 30.6886C88.0251 30.6554 88.0501 30.613 88.0564 30.5647L90.7451 22.3642C91.0265 21.5085 91.486 20.7162 92.0957 20.0389C92.8492 19.2225 93.5213 18.8657 94.1154 18.9685C94.7281 19.0713 94.8626 19.6609 94.5187 20.7434L92.5709 26.6791C92.0988 28.0851 92.1739 29.213 92.7929 30.0567C93.1274 30.486 93.5651 30.8277 94.0716 31.0485C94.5781 31.2692 95.1314 31.3659 95.6879 31.3236C96.6102 31.3024 97.5169 31.0666 98.3235 30.6342C99.0707 30.3076 99.7241 29.8087 100.227 29.1798C100.271 29.1314 100.296 29.0709 100.296 29.0074C100.296 28.9439 100.274 28.8804 100.234 28.832C100.112 28.7171 99.9711 28.6234 99.8148 28.5569C99.5928 28.4329 99.4209 28.2394 99.3239 28.0065C99.1707 27.6165 99.1082 27.1992 99.1426 26.7819C99.2051 26.0048 99.374 25.2368 99.646 24.502L99.6397 24.508Z" fill="white"/>
</svg>
