<svg width="180" height="40" viewBox="0 0 180 40" fill="none" xmlns="http://www.w3.org/2000/svg">
<g clip-path="url(#clip0_5744_119219)">
<path d="M10.1082 28.3899C8.72625 29.0919 7.01532 29.3332 5.69921 29.3332C2.31025 29.3332 0.566406 27.3917 0.566406 24.3204C0.566406 20.7116 3.17668 16.9602 7.46499 16.9602C9.85591 16.9602 11.5778 18.2875 11.5778 20.4922C11.5778 23.5196 8.64948 24.6056 3.91151 24.4849C3.91151 24.825 4.03215 25.3515 4.27343 25.6915C4.73407 26.2948 5.5347 26.6129 6.54372 26.6129C7.82692 26.6129 8.9127 26.3277 9.85591 25.867L10.0972 28.3789L10.1082 28.3899ZM8.32046 20.5032C8.32046 19.9218 7.83788 19.516 7.03725 19.516C5.41406 19.516 4.49278 20.8432 4.2515 21.9621C6.96048 21.984 8.32046 21.6001 8.32046 20.5361V20.5142V20.5032Z" fill="#2185B9"/>
<path d="M28.7214 19.2856C28.7214 22.2582 27.6795 25.1431 25.815 26.9858C24.2906 28.4667 22.2287 29.3332 19.7939 29.3332C15.5604 29.3332 13.1914 26.3277 13.1914 22.5324C13.1914 19.5818 14.2772 16.6531 16.1965 14.8103C17.721 13.3624 19.8048 12.4849 22.1519 12.4849C26.4621 12.4849 28.7324 15.3916 28.7324 19.2856H28.7214ZM18.9165 16.6202C17.6113 17.9255 16.8875 20.4483 16.8875 22.4008C16.8875 24.7043 17.9294 26.4155 20.2984 26.4155C21.3184 26.4155 22.2835 25.9548 23.0293 25.2308C24.3125 23.9474 25.0144 21.26 25.0144 19.3734C25.0144 17.3441 24.2906 15.3807 21.7242 15.3807C20.6384 15.3807 19.6623 15.8633 18.9165 16.6202Z" fill="#2185B9"/>
<path d="M32.5808 13.0224C33.7434 12.803 35.2459 12.6385 36.8691 12.6385C38.4923 12.6385 39.8194 12.8579 40.9162 13.505C42.0019 14.0645 42.8026 15.1065 42.8026 16.4776C42.8026 18.5398 41.2781 19.8451 39.5123 20.3497V20.4265C41.0807 20.9091 42.0787 22.1925 42.0787 23.9804C42.0787 25.7683 41.1355 27.0078 39.8523 27.8525C38.4704 28.7738 36.4195 29.1797 33.7105 29.1797C31.8679 29.1797 30.3983 29.0371 29.5977 28.8616L32.5808 13.0224ZM33.4473 26.3826C33.864 26.4265 34.2698 26.4594 34.7743 26.4594C36.6608 26.4594 38.3827 25.7135 38.3827 23.8927C38.3827 22.2692 37.0227 21.7866 35.4105 21.7866H34.3247L33.4582 26.3826H33.4473ZM34.8511 19.2418H36.0137C37.922 19.2418 39.2272 18.4191 39.2272 17.037C39.2272 15.8524 38.262 15.3478 36.924 15.3478C36.3208 15.3478 35.8382 15.3917 35.564 15.4685L34.8401 19.2418H34.8511Z" fill="#2185B9"/>
<path d="M57.2665 29.059L58.2536 22.335C58.5168 20.569 58.8787 18.3204 59.3394 15.973H59.2626C58.3633 18.0791 57.3543 20.3277 56.4549 22.1157L53.1208 28.7958H50.4118L49.8305 22.1925C49.6879 20.4045 49.5673 18.1449 49.4686 15.973H49.4247C48.9641 18.123 48.4815 20.591 48.0647 22.335L46.4416 29.059H43.25L47.3409 12.7482H52.0131L52.5176 18.9456C52.6163 20.4703 52.7808 22.3351 52.8137 24.1449H52.9124C53.5376 22.3351 54.415 20.4155 55.1169 18.9456L58.1329 12.7482H62.849L60.6445 29.059H57.2555H57.2665Z" fill="#2185B9"/>
<path d="M74.1142 22.1376H68.3014L67.5556 26.0864H74.0703L73.511 29.059H63.5195L66.6124 12.7482H76.2638L75.6825 15.7208H69.5407L68.8607 19.2089H74.6735L74.1142 22.1376Z" fill="#2185B9"/>
<path d="M76.0234 29.0591L79.1273 12.7482H83.2181L85.3678 18.9676C86.0258 21.0517 86.4536 22.7409 86.8484 24.5289H86.9252C87.0019 22.8616 87.2103 21.0627 87.671 18.6715L88.7787 12.7372H92.0251L88.9542 29.0481H85.3458L83.0756 22.5325C82.3517 20.3278 81.913 18.8579 81.4743 16.8396L81.3975 16.8616C81.2001 18.463 80.8163 20.7556 80.3337 23.3223L79.2698 29.0371H76.0234V29.0591Z" fill="#2185B9"/>
<path d="M99.02 21.4685L98.5593 23.9365H92.2969L92.7575 21.4685H99.02Z" fill="#2185B9"/>
<path d="M116.616 19.2856C116.616 22.2582 115.574 25.1431 113.71 26.9858C112.185 28.4667 110.123 29.3332 107.688 29.3332C103.455 29.3332 101.086 26.3277 101.086 22.5324C101.086 19.5818 102.172 16.6531 104.091 14.8103C105.616 13.3624 107.699 12.4849 110.046 12.4849C114.357 12.4849 116.627 15.3916 116.627 19.2856H116.616ZM106.811 16.6202C105.506 17.9255 104.782 20.4483 104.782 22.4008C104.782 24.7043 105.824 26.4155 108.193 26.4155C109.213 26.4155 110.178 25.9548 110.924 25.2308C112.207 23.9474 112.909 21.26 112.909 19.3734C112.909 17.3441 112.185 15.3807 109.619 15.3807C108.533 15.3807 107.557 15.8633 106.811 16.6202Z" fill="#2185B9"/>
<path d="M120.464 13.0224C121.626 12.803 123.129 12.6385 124.752 12.6385C126.375 12.6385 127.702 12.8579 128.799 13.505C129.885 14.0645 130.685 15.1065 130.685 16.4776C130.685 18.5398 129.161 19.8451 127.395 20.3497V20.4265C128.963 20.9091 129.962 22.1925 129.962 23.9804C129.962 25.7683 129.018 27.0078 127.735 27.8525C126.353 28.7738 124.302 29.1797 121.593 29.1797C119.751 29.1797 118.281 29.0371 117.48 28.8616L120.464 13.0224ZM121.33 26.3826C121.747 26.4265 122.153 26.4594 122.657 26.4594C124.544 26.4594 126.265 25.7135 126.265 23.8927C126.265 22.2692 124.905 21.7866 123.293 21.7866H122.207L121.341 26.3826H121.33ZM122.734 19.2418H123.896C125.805 19.2418 127.11 18.4191 127.11 17.037C127.11 15.8524 126.145 15.3478 124.807 15.3478C124.204 15.3478 123.721 15.3917 123.447 15.4685L122.723 19.2418H122.734Z" fill="#2185B9"/>
<path d="M145.153 29.059L146.14 22.335C146.404 20.569 146.765 18.3204 147.226 15.973H147.149C146.25 18.0791 145.241 20.3277 144.342 22.1157L141.007 28.7958H138.299L137.717 22.1925C137.575 20.4045 137.454 18.1449 137.355 15.973H137.311C136.851 18.123 136.368 20.591 135.951 22.335L134.328 29.059H131.137L135.239 12.7482H139.911L140.415 18.9456C140.514 20.4703 140.678 22.3351 140.711 24.1449H140.81C141.435 22.3351 142.313 20.4155 143.015 18.9456L146.042 12.7482H150.758L148.553 29.059H145.164H145.153Z" fill="#2185B9"/>
<path d="M162.009 22.1376H156.196L155.45 26.0864H161.965L161.405 29.059H151.414L154.507 12.7482H164.158L163.577 15.7208H157.435L156.755 19.2089H162.568L162.009 22.1376Z" fill="#2185B9"/>
<path d="M163.918 29.0591L167.022 12.7482H171.113L173.262 18.9676C173.92 21.0517 174.348 22.7409 174.743 24.5289H174.82C174.896 22.8616 175.105 21.0627 175.566 18.6715L176.673 12.7372H179.92L176.849 29.0481H173.24L170.97 22.5325C170.246 20.3278 169.808 18.8579 169.369 16.8396L169.292 16.8616C169.095 18.463 168.711 20.7556 168.228 23.3223L167.164 29.0371H163.918V29.0591Z" fill="#2185B9"/>
</g>
<defs>
<clipPath id="clip0_5744_119219">
<rect width="179.333" height="40" fill="white" transform="translate(0.585938)"/>
</clipPath>
</defs>
</svg>
