<svg width="178" height="40" viewBox="0 0 178 40" fill="none" xmlns="http://www.w3.org/2000/svg">
<path d="M122.178 9.58944V28.574C122.178 31.5116 122.178 32.3334 122.182 33.8928H32.9791C32.3515 33.8378 31.9438 33.5854 31.5718 32.9319C30.4265 30.9099 29.1259 28.9784 27.9353 26.979C27.4209 26.1152 26.6768 25.6752 25.7418 25.5684C25.1918 25.5037 24.8554 25.2578 24.603 24.8081C24.2018 24.0964 23.6227 23.4332 23.4286 22.6697C23.1892 21.725 24.273 21.4111 24.7389 20.7997C28.2848 16.1538 28.5047 10.188 25.276 5.27689C25.1045 5.01807 24.7098 4.75597 24.9168 4.4195C24.9654 4.34509 25.0268 4.29657 25.098 4.27069H122.178C122.178 5.66669 122.178 5.39574 122.178 8.33335V9.58944Z" fill="#2A609F"/>
<path d="M177.613 9.62179V28.6063C177.613 31.5439 175.177 33.9251 172.172 33.9251H122.184V4.30304H172.172C175.177 4.30304 177.613 6.68417 177.613 9.62179Z" fill="#D4D4D4"/>
<path d="M39.8455 10.0295V13.5559H35.4035V17.1827H39.2988V20.6832H35.4035V24.7402H40.0202V28.2667H31.793V10.0295H39.8455Z" fill="white"/>
<path d="M41.2066 10.0295H45.1019L46.3507 15.2027H46.396L47.6448 10.0295H51.4074L48.5183 18.577L51.5821 28.2667H47.7969L46.2439 22.3817H46.2213L44.7978 28.2667H41.0352L44.0763 18.425L41.2099 10.0295H41.2066Z" fill="white"/>
<path d="M52.582 14.9987C52.582 14.1187 52.6985 13.3454 52.9314 12.679C53.1644 12.0125 53.4879 11.4626 53.9053 11.029C54.3226 10.5988 54.8144 10.272 55.3838 10.052C55.9532 9.83199 56.5711 9.72198 57.244 9.72198C57.917 9.72198 58.5349 9.83199 59.1043 10.052C59.6737 10.272 60.1655 10.5988 60.5828 11.029C61.0002 11.4593 61.3237 12.0093 61.5566 12.679C61.7896 13.3487 61.906 13.9893 61.906 14.8693L58.2955 15.2834V14.6428C58.2955 14.4907 58.289 14.316 58.2729 14.1219C58.2567 13.9278 58.2179 13.7466 58.1532 13.5752C58.0884 13.4069 57.9849 13.2613 57.8458 13.1448C57.7067 13.0251 57.5061 12.967 57.244 12.967C56.982 12.967 56.7782 13.0251 56.6326 13.1448C56.487 13.2645 56.3802 13.4069 56.3155 13.5752C56.2508 13.7434 56.212 13.9278 56.2055 14.1219C56.199 14.316 56.1958 14.4907 56.1958 14.6428V23.6466C56.1958 23.7663 56.199 23.9215 56.2055 24.1157C56.212 24.3098 56.2508 24.4974 56.3155 24.6721C56.3802 24.8501 56.487 25.0021 56.6326 25.1283C56.7782 25.2544 56.982 25.3192 57.244 25.3192C57.5061 25.3192 57.7067 25.2544 57.8458 25.1283C57.9849 25.0021 58.0852 24.8501 58.1532 24.6721C58.2211 24.4942 58.2599 24.3098 58.2729 24.1157C58.2858 23.9215 58.2955 23.7663 58.2955 23.6466V22.9122L61.906 23.2907C61.906 24.9309 61.4952 26.2218 60.6702 27.16C59.8452 28.0982 58.7031 28.5674 57.244 28.5674C55.7849 28.5674 54.6623 28.0982 53.8308 27.16C52.9994 26.2218 52.582 24.9309 52.582 23.2907V14.9955V14.9987Z" fill="white"/>
<path d="M67.1379 10.0295V16.8527H69.2376V10.0295H72.8481V28.2667H69.2376V20.5052H67.1379V28.2667H63.5273V10.0295H67.1379Z" fill="white"/>
<path d="M81.511 10.0295L84.4648 28.2667H80.6568L80.3301 24.5397H77.7904L77.4184 28.2667H73.7852L76.6969 10.0295H81.511ZM79.9807 21.3723L79.2075 14.4715H79.0036L78.1657 21.3723H79.9807Z" fill="white"/>
<path d="M88.7548 10.0295L91.9318 19.1044H91.9739V10.0295H95.3774V28.2667H92.4494L89.1721 18.8197H89.13V28.2667H85.7266V10.0295H88.7548Z" fill="white"/>
<path d="M97.4414 14.9987C97.4414 14.1187 97.5579 13.3454 97.7908 12.679C98.0238 12.0125 98.3473 11.4626 98.7646 11.029C99.182 10.5988 99.6737 10.272 100.243 10.052C100.813 9.83199 101.43 9.72198 102.103 9.72198C102.715 9.72198 103.307 9.79314 103.876 9.93872C104.446 10.0811 104.941 10.327 105.365 10.6731C105.788 11.0193 106.128 11.482 106.384 12.0546C106.639 12.6305 106.765 13.5881 106.765 14.4519L103.33 15.1993V14.4131C103.33 13.9569 103.242 13.6011 103.068 13.3487C102.893 13.0963 102.602 12.967 102.191 12.967C101.942 12.967 101.744 13.0251 101.599 13.1448C101.453 13.2645 101.34 13.4102 101.259 13.5881C101.178 13.766 101.123 13.9472 101.094 14.1348C101.065 14.3225 101.049 14.4907 101.049 14.6428V23.6466C101.049 23.7663 101.052 23.9215 101.058 24.1157C101.065 24.3098 101.104 24.4974 101.168 24.6721C101.233 24.8501 101.34 25.0021 101.485 25.1283C101.631 25.2544 101.835 25.3192 102.097 25.3192C102.87 25.3192 103.258 24.863 103.258 23.9507V21.191H101.99V18.2178L106.575 18.2016L106.513 24.1221C106.51 24.5168 106.435 24.9115 106.293 25.2803C106.005 26.0179 105.407 27.1891 104.333 27.7973C103.32 28.37 101.838 28.3571 100.971 28.2633C100.318 28.1921 98.0496 27.545 97.5935 25.2835C97.4673 24.6527 97.4414 23.9862 97.4414 23.2939V14.9987Z" fill="white"/>
<path d="M116.439 10.0295V13.5559H111.997V17.1827H115.893V20.6832H111.997V24.7402H116.614V28.2667H108.387V10.0295H116.439Z" fill="white"/>
<path d="M129.692 23.4234C129.692 23.6725 129.705 23.9087 129.734 24.1352C129.763 24.3584 129.818 24.559 129.902 24.7337C129.986 24.9084 130.106 25.0443 130.261 25.1446C130.417 25.2449 130.621 25.2934 130.876 25.2934C131.271 25.2934 131.572 25.1607 131.776 24.8954C131.979 24.6302 132.06 24.297 132.083 23.8958C132.167 22.427 132.067 21.4078 131.313 21.0196C129.035 19.8484 128.592 19.4182 128.262 19.1011C127.929 18.7841 127.631 18.4347 127.363 18.0529C127.094 17.6711 126.884 17.2344 126.729 16.7426C126.573 16.2508 126.496 15.6653 126.496 14.9826C126.496 13.2194 126.887 11.9382 127.67 11.1391C128.453 10.34 129.55 9.94208 130.963 9.94208C132.487 9.94208 133.6 10.3497 134.299 11.165C134.998 11.9803 135.347 13.077 135.347 14.4585V14.6559L132.063 15.3579V15.1055C132.063 14.8888 132.054 14.6591 132.031 14.4197C132.008 14.1803 131.96 13.9668 131.882 13.7824C131.805 13.598 131.695 13.4458 131.556 13.3197C131.413 13.1935 131.216 13.1321 130.963 13.1321C130.595 13.1321 130.303 13.2517 130.083 13.4944C129.863 13.737 129.757 14.0638 129.757 14.4812C129.757 14.7465 129.592 15.882 130.193 16.4385C131.122 17.2991 133.755 18.2115 134.71 19.5314C135.008 19.9455 135.697 20.6929 135.603 23.8893C135.59 24.3228 135.525 24.8049 135.37 25.3355C135.215 25.8693 134.953 26.3675 134.587 26.8334C134.218 27.2992 133.733 27.6908 133.125 28.0078C132.516 28.3249 131.756 28.4834 130.837 28.4834C129.918 28.4834 129.236 28.3378 128.657 28.0466C128.078 27.7554 127.615 27.3899 127.269 26.9499C126.923 26.5099 126.677 26.0311 126.528 25.5134C126.379 24.999 126.305 24.0543 126.305 23.5884L129.692 22.8476V23.4169V23.4234Z" fill="#2A609F"/>
<path d="M140.514 10.0295V23.3458C140.514 23.582 140.518 23.815 140.524 24.0447C140.53 24.2744 140.566 24.4717 140.631 24.6399C140.695 24.8081 140.796 24.944 140.938 25.0443C141.08 25.1446 141.278 25.1963 141.53 25.1963C141.783 25.1963 141.977 25.1446 142.112 25.0443C142.245 24.944 142.345 24.8081 142.41 24.6399C142.475 24.4717 142.514 24.2711 142.527 24.0447C142.54 23.815 142.549 23.5852 142.549 23.3458V10.0295H146.043V23.2941C146.043 24.9343 145.645 26.2252 144.846 27.1634C144.047 28.1016 142.944 28.5708 141.533 28.5708C140.123 28.5708 139.036 28.1016 138.23 27.1634C137.425 26.2252 137.023 24.9343 137.023 23.2941V10.0295H140.518H140.514Z" fill="#2A609F"/>
<path d="M151.184 10.0295L154.115 18.6579H154.154L157.005 10.0295H160.246V28.2667H156.92L156.84 19.4506H156.801L155.202 24.7434H153.067L151.547 19.3697H151.527V28.2667H148.023V10.0295H151.184Z" fill="#2A609F"/>
<path d="M162.434 14.9987C162.434 14.1187 162.547 13.3454 162.773 12.679C163 12.0125 163.314 11.4626 163.715 11.029C164.116 10.5988 164.595 10.272 165.145 10.052C165.695 9.83199 166.296 9.72198 166.944 9.72198C167.591 9.72198 168.192 9.83199 168.742 10.052C169.292 10.272 169.768 10.5988 170.172 11.029C170.573 11.4593 170.887 12.0093 171.114 12.679C171.34 13.3487 171.453 14.122 171.453 14.9987V23.2939C171.453 24.9342 171.056 26.225 170.256 27.1632C169.457 28.1015 168.354 28.5706 166.944 28.5706C165.533 28.5706 164.446 28.1015 163.64 27.1632C162.835 26.225 162.434 24.9342 162.434 23.2939V14.9987ZM165.928 23.6498C165.928 23.7695 165.931 23.9248 165.937 24.1189C165.944 24.313 165.979 24.5006 166.044 24.6754C166.109 24.8533 166.209 25.0053 166.351 25.1315C166.494 25.2577 166.691 25.3224 166.944 25.3224C167.196 25.3224 167.39 25.2577 167.526 25.1315C167.659 25.0053 167.759 24.8533 167.824 24.6754C167.888 24.4974 167.927 24.313 167.94 24.1189C167.953 23.9248 167.963 23.7695 167.963 23.6498V14.646C167.963 14.494 167.956 14.3192 167.94 14.1251C167.927 13.931 167.888 13.7499 167.824 13.5784C167.759 13.4102 167.662 13.2645 167.526 13.1481C167.39 13.0284 167.199 12.9702 166.944 12.9702C166.688 12.9702 166.491 13.0284 166.351 13.1481C166.209 13.2678 166.109 13.4102 166.044 13.5784C165.979 13.7466 165.944 13.931 165.937 14.1251C165.931 14.3192 165.928 14.494 165.928 14.646V23.6498Z" fill="#2A609F"/>
<path d="M25.2748 13.1061C25.1745 16.5646 23.9839 19.787 21.2889 22.3622C20.8392 22.7925 20.8069 23.1031 21.1466 23.5722C21.428 23.9605 21.6448 24.3972 21.9004 24.8048C22.3825 25.5716 22.7124 26.4483 23.9613 26.2866C24.5274 26.2122 25.0548 26.7234 25.3945 27.2669C27.0089 29.8454 28.6524 32.4044 30.2344 35.0024C31.0659 36.3676 30.7456 37.61 29.4386 38.5288C28.895 38.9106 28.3547 39.2988 27.7789 39.6256C26.6303 40.2758 25.4592 40.0882 24.7507 38.9915C23.023 36.3094 21.3698 33.5757 19.7037 30.8548C19.2734 30.1528 19.3122 29.3924 19.7037 28.7001C19.9334 28.2892 19.8816 27.998 19.6422 27.6389C19.1763 26.9368 18.7072 26.2316 18.3222 25.4842C18.0213 24.9051 17.7204 24.8372 17.1154 25.0701C14.1487 26.2154 11.1496 26.2543 8.20553 25.0216C3.60822 23.0934 1.05884 19.5378 0.317961 14.6849C-0.649382 8.34055 3.56617 1.89592 9.60317 0.381823C17.1413 -1.50757 24.5371 3.83062 25.1907 11.6341C25.2262 12.0547 25.2424 12.4753 25.278 13.1158L25.2748 13.1061Z" fill="#C8C8C8"/>
<path d="M2.00085 12.9865C1.92644 7.00124 6.7211 1.92189 12.5252 1.84101C18.4813 1.76013 23.3892 6.6745 23.4409 12.7633C23.4895 18.9167 18.7951 23.9767 12.9749 24.0382C6.8958 24.1029 2.0785 19.2532 2.00085 12.9865Z" fill="#2A609F"/>
<path d="M4.17214 14.8209C4.17214 9.92267 7.97357 5.73624 12.7423 5.27683C13.7259 5.18301 13.8391 4.84331 13.5544 4.06361C13.5026 3.92449 13.4703 3.7724 13.4541 3.62358C13.4282 3.42299 13.3409 3.18357 13.5673 3.04769C13.7453 2.94093 13.92 3.0639 14.0688 3.15772C15.6832 4.16065 17.2944 5.16683 18.9088 6.16977C19.2938 6.40917 19.3455 6.68094 19.0899 7.06594C18.0449 8.64798 17.0161 10.2462 15.9776 11.8347C15.8644 12.0094 15.735 12.2197 15.4956 12.1938C15.2335 12.1647 15.2173 11.9091 15.1623 11.7117C15.1073 11.5079 15.0717 11.3009 15.0264 11.0938C14.6835 9.53119 14.677 9.4956 13.0723 9.79C10.5488 10.2526 8.27769 11.2071 6.63418 13.3003C5.84801 14.3 5.42418 15.4388 5.27213 16.6908C5.23654 16.9853 5.23654 17.3605 4.82243 17.3508C4.4892 17.3411 4.45361 17.0014 4.39537 16.7393C4.24331 16.0308 4.14626 15.3158 4.17214 14.8209Z" fill="white"/>
<path d="M21.1741 11.343C20.9282 16.4514 17.405 20.2497 12.6039 20.8223C11.7207 20.9258 11.4069 21.1782 11.7498 22.0323C11.8145 22.1973 11.821 22.3849 11.8436 22.5661C11.9116 23.1096 11.7077 23.2487 11.2386 22.9543C9.62746 21.9513 8.01954 20.9419 6.39867 19.9519C6.00074 19.7093 5.93926 19.4634 6.20132 19.0752C7.27542 17.4737 8.33012 15.8626 9.39452 14.2547C9.49158 14.1059 9.5757 13.915 9.78599 13.9247C10.061 13.9376 10.0869 14.1867 10.1354 14.3841C10.2163 14.7044 10.2842 15.0279 10.3457 15.3547C10.5786 16.5679 10.5819 16.597 11.766 16.4158C14.7651 15.9597 17.3856 14.8338 19.1068 12.1647C19.6568 11.3106 19.9188 10.3626 20.0612 9.36942C20.0968 9.1203 20.0838 8.76447 20.4624 8.76447C20.815 8.76447 20.8473 9.08147 20.8862 9.35646C20.9962 10.1297 21.1094 10.903 21.1741 11.3462V11.343Z" fill="white"/>
</svg>
