<svg width="97" height="40" viewBox="0 0 97 40" fill="none" xmlns="http://www.w3.org/2000/svg">
<g clip-path="url(#clip0_6795_168742)">
<path d="M42.668 6.48993H45.378V12.9971H46.9359L51.6815 6.48993H54.8451L49.2222 14.0837L55.2331 22.3102H52.0277L46.9001 15.2597H45.384V22.3102H42.6739V6.48993H42.668Z" fill="white"/>
<path d="M55.3672 6.48993H58.3936L62.4825 14.6687L65.491 6.48993H68.3801L63.8614 18.2387C62.96 20.6088 62.1243 22.3042 59.1159 22.3042H58.0772V20.0476H58.5547C60.2739 20.0476 60.7693 19.1223 61.223 18.0119L55.3672 6.48993Z" fill="white"/>
<path d="M75.9236 6.48993C79.7618 6.48993 81.7556 8.23314 81.7556 11.3017C81.7556 14.3702 79.7678 16.1373 75.9236 16.1373H73.1241V22.3042H70.4141V6.48993H75.9296H75.9236ZM75.8341 13.8807C78.0964 13.8807 78.95 12.8837 78.95 11.3077C78.95 9.73159 78.0905 8.75253 75.8341 8.75253H73.1241V13.8807H75.8341Z" fill="white"/>
<path d="M93.8839 17.4747L96.2537 18.4C95.6448 20.8417 93.5854 22.5789 90.2009 22.5789C86.8163 22.5789 84.5958 20.6148 84.0108 17.8329C83.7601 16.6568 83.7422 15.9822 83.7422 14.4002C83.7422 12.8181 83.7661 12.1614 84.0108 10.9675C84.5779 8.20936 86.8104 6.22137 90.2009 6.22137C93.3646 6.22137 95.3523 7.71385 96.1223 10.0839L93.7287 10.9436C93.1616 9.38543 92.2364 8.478 90.2068 8.478C88.1773 8.478 87.2461 9.69587 86.8641 11.1227C86.5955 12.1376 86.5477 12.7943 86.5477 14.4002C86.5477 16.0061 86.5955 16.6628 86.8641 17.6776C87.2461 19.0806 88.1773 20.3223 90.2068 20.3223C92.2364 20.3223 93.3944 19.1224 93.8898 17.4747H93.8839Z" fill="white"/>
<path d="M45.191 25.0566C46.743 25.0566 47.4892 25.6895 47.4892 26.7581C47.4892 27.6297 47.0415 28.0416 46.4505 28.2804V28.3162C47.2086 28.5371 47.6264 29.0744 47.6264 29.946C47.6264 31.1101 46.8087 31.8504 45.2567 31.8504H42.5586V25.0566H45.191ZM43.7226 26.0297V27.8625H45.0418C45.9133 27.8625 46.3252 27.4924 46.3252 26.9133C46.3252 26.2626 45.8297 26.0297 44.9582 26.0297H43.7286H43.7226ZM43.7226 28.8356V30.8833H45.0597C45.9312 30.8833 46.4207 30.5549 46.4207 29.8744C46.4207 29.0983 45.9252 28.8356 44.9522 28.8356H43.7226Z" fill="white"/>
<path d="M52.2778 30.4236L53.1971 30.8773C52.8569 31.6176 52.1764 31.9459 51.2094 31.9459C50.2423 31.9459 49.4842 31.4982 49.2216 30.7042C49.0843 30.3042 49.0664 29.946 49.0664 29.4207C49.0664 28.8953 49.0843 28.5371 49.2216 28.1371C49.4842 27.3431 50.2423 26.8954 51.2094 26.8954C52.1764 26.8954 52.8986 27.3431 53.1613 28.1371C53.2866 28.5371 53.3165 28.8774 53.3165 29.3968V29.7848H50.1886C50.1886 30.1132 50.2006 30.3281 50.308 30.543C50.4513 30.8654 50.7258 31.0504 51.2094 31.0504C51.6929 31.0504 52.0749 30.8534 52.2778 30.4176V30.4236ZM50.1886 28.955H52.1883C52.1764 28.6804 52.1704 28.5192 52.0749 28.3043C51.9495 28.0118 51.6988 27.7909 51.2094 27.7909C50.7199 27.7909 50.4334 28.0118 50.2961 28.3043C50.2006 28.5192 50.1886 28.6923 50.1886 28.955Z" fill="white"/>
<path d="M54.9453 26.9969H56.0317V27.4804H56.0675C56.3899 27.0805 56.9032 26.8954 57.3867 26.8954C58.0851 26.8954 58.7179 27.2476 58.9984 28.0416C59.1357 28.4297 59.1536 28.8953 59.1536 29.4207C59.1536 29.946 59.1357 30.3997 58.9984 30.7878C58.7179 31.5818 58.0851 31.94 57.3867 31.94C56.9032 31.94 56.3899 31.7549 56.0675 31.3549H56.0317V33.7787H54.9453V26.9849V26.9969ZM56.0317 29.9102C56.0317 30.5908 56.4555 31.0564 57.0405 31.0564C57.4285 31.0564 57.7687 30.8594 57.912 30.4475C58.0075 30.1669 58.0314 29.9162 58.0314 29.4266C58.0314 28.9371 58.0135 28.6983 57.912 28.4058C57.7747 27.9998 57.4285 27.7968 57.0405 27.7968C56.4555 27.7968 56.0317 28.2625 56.0317 28.9431V29.9162V29.9102Z" fill="white"/>
<path d="M63.5744 30.4057L64.5056 30.8594C64.1832 31.5758 63.5147 31.9459 62.6432 31.9459C61.6702 31.9459 60.9061 31.4922 60.6435 30.6923C60.5062 30.2923 60.4883 29.946 60.4883 29.4207C60.4883 28.8953 60.5062 28.5491 60.6435 28.1491C60.9061 27.3551 61.6702 26.8954 62.6432 26.8954C63.5147 26.8954 64.1593 27.2058 64.4697 27.9222L63.5266 28.358C63.3595 27.9342 63.0312 27.7849 62.6432 27.7849C62.1597 27.7849 61.8672 28.0476 61.7299 28.4356C61.6403 28.6864 61.6105 29.0087 61.6105 29.4147C61.6105 29.8206 61.6284 30.143 61.7299 30.3938C61.8731 30.7997 62.1597 31.0445 62.6432 31.0445C63.0312 31.0445 63.4072 30.8116 63.5744 30.3938V30.4057Z" fill="white"/>
<path d="M67.0473 26.9968V30.2086L69.1067 26.9968H70.1931V31.8504H69.1067V28.6386L67.0473 31.8504H65.9609V26.9968H67.0473Z" fill="white"/>
<path d="M73.926 30.0057L72.947 31.8504H71.6875L72.8336 29.8922C72.3202 29.7072 71.8427 29.337 71.8427 28.5132C71.8427 27.3491 72.9172 26.9968 73.6991 26.9968H75.9197V31.8504H74.8333V30.0057H73.9319H73.926ZM74.8273 27.8326H73.8842C73.3231 27.8326 72.9649 28.0356 72.9649 28.5132C72.9649 29.0744 73.4186 29.1758 74.0633 29.1758H74.8273V27.8386V27.8326Z" fill="white"/>
<path d="M83.6979 25.0566C85.3454 25.0566 86.199 25.8029 86.199 27.1222C86.199 28.4416 85.3454 29.1998 83.6979 29.1998H82.4921V31.8504H81.3281V25.0566H83.6979ZM83.6561 28.2326C84.6291 28.2326 84.9932 27.8088 84.9932 27.1282C84.9932 26.4476 84.6231 26.0297 83.6561 26.0297H82.4921V28.2326H83.6561Z" fill="white"/>
<path d="M87.7364 26.9969H88.8228V27.4804H88.8587C89.1213 27.1581 89.4914 26.8954 90.0047 26.8954C90.6136 26.8954 90.9777 27.176 91.2643 27.5939L90.4286 28.2028C90.2614 27.9401 90.0406 27.7849 89.7182 27.7849C89.2108 27.7849 88.8169 28.2207 88.8169 28.9132V31.8444H87.7305V26.9909L87.7364 26.9969Z" fill="white"/>
<path d="M94.1135 31.9459C93.1406 31.9459 92.4063 31.4982 92.1318 30.7042C91.9945 30.3042 91.9766 29.946 91.9766 29.4207C91.9766 28.8953 91.9945 28.5371 92.1318 28.1371C92.4063 27.3431 93.1406 26.8954 94.1135 26.8954C95.0865 26.8954 95.8207 27.3431 96.0953 28.1371C96.2326 28.5371 96.2505 28.8953 96.2505 29.4207C96.2505 29.946 96.2326 30.3042 96.0953 30.7042C95.8207 31.4982 95.0865 31.9459 94.1135 31.9459ZM95.0089 30.4594C95.1283 30.137 95.1283 29.8266 95.1283 29.4207C95.1283 29.0147 95.1283 28.7043 95.0089 28.3819C94.8836 28.0416 94.603 27.7909 94.1135 27.7909C93.6241 27.7909 93.3495 28.0416 93.2182 28.3819C93.0988 28.7043 93.0988 29.0147 93.0988 29.4207C93.0988 29.8266 93.0988 30.137 93.2182 30.4594C93.3435 30.8116 93.6241 31.0504 94.1135 31.0504C94.603 31.0504 94.8776 30.8057 95.0089 30.4594Z" fill="white"/>
<path d="M5.69724 6.3288H3.30956C1.99088 6.3288 0.921875 7.39793 0.921875 8.71676V30.8055C0.921875 32.1243 1.99088 33.1934 3.30956 33.1934H5.69724C7.01592 33.1934 8.08493 32.1243 8.08493 30.8055V8.71676C8.08493 7.39793 7.01592 6.3288 5.69724 6.3288Z" fill="#FF4237"/>
<path d="M14.0566 6.3288H11.6689C10.3503 6.3288 9.28125 7.39793 9.28125 8.71676V30.8055C9.28125 32.1243 10.3503 33.1934 11.6689 33.1934H14.0566C15.3753 33.1934 16.4443 32.1243 16.4443 30.8055V8.71676C16.4443 7.39793 15.3753 6.3288 14.0566 6.3288Z" fill="#FF4237"/>
<path d="M22.4082 6.3288H20.0205C18.7018 6.3288 17.6328 7.39793 17.6328 8.71676V30.8055C17.6328 32.1243 18.7018 33.1934 20.0205 33.1934H22.4082C23.7269 33.1934 24.7959 32.1243 24.7959 30.8055V8.71676C24.7959 7.39793 23.7269 6.3288 22.4082 6.3288Z" fill="#FF4237"/>
<path d="M30.7676 6.3288H28.3799C27.0612 6.3288 25.9922 7.39793 25.9922 8.71676V30.8055C25.9922 32.1243 27.0612 33.1934 28.3799 33.1934H30.7676C32.0862 33.1934 33.1552 32.1243 33.1552 30.8055V8.71676C33.1552 7.39793 32.0862 6.3288 30.7676 6.3288Z" fill="#FF4237"/>
<path d="M5.69724 16.9672H3.30956C1.99088 16.9672 0.921875 18.0364 0.921875 19.3552V30.8055C0.921875 32.1243 1.99088 33.1935 3.30956 33.1935H5.69724C7.01592 33.1935 8.08493 32.1243 8.08493 30.8055V19.3552C8.08493 18.0364 7.01592 16.9672 5.69724 16.9672Z" fill="#00C0A2"/>
<path d="M14.0566 14.3882H11.6689C10.3503 14.3882 9.28125 15.4573 9.28125 16.7761V30.8054C9.28125 32.1243 10.3503 33.1934 11.6689 33.1934H14.0566C15.3753 33.1934 16.4443 32.1243 16.4443 30.8054V16.7761C16.4443 15.4573 15.3753 14.3882 14.0566 14.3882Z" fill="#00C0A2"/>
<path d="M22.4082 10.5079H20.0205C18.7018 10.5079 17.6328 11.577 17.6328 12.8958V30.8056C17.6328 32.1244 18.7018 33.1936 20.0205 33.1936H22.4082C23.7269 33.1936 24.7959 32.1244 24.7959 30.8056V12.8958C24.7959 11.577 23.7269 10.5079 22.4082 10.5079Z" fill="#00C0A2"/>
<path d="M30.7676 8.11975H28.3799C27.0612 8.11975 25.9922 9.18888 25.9922 10.5077V30.8054C25.9922 32.1243 27.0612 33.1934 28.3799 33.1934H30.7676C32.0862 33.1934 33.1552 32.1243 33.1552 30.8054V10.5077C33.1552 9.18888 32.0862 8.11975 30.7676 8.11975Z" fill="#00C0A2"/>
<path d="M5.69724 21.8505H3.30956C1.99088 21.8505 0.921875 22.9197 0.921875 24.2385V30.8054C0.921875 32.1242 1.99088 33.1934 3.30956 33.1934H5.69724C7.01592 33.1934 8.08493 32.1242 8.08493 30.8054V24.2385C8.08493 22.9197 7.01592 21.8505 5.69724 21.8505Z" fill="#00928C"/>
<path d="M14.0566 25.0804H11.6689C10.3503 25.0804 9.28125 26.1495 9.28125 27.4683V30.8055C9.28125 32.1244 10.3503 33.1935 11.6689 33.1935H14.0566C15.3753 33.1935 16.4443 32.1244 16.4443 30.8055V27.4683C16.4443 26.1495 15.3753 25.0804 14.0566 25.0804Z" fill="#00928C"/>
<path d="M22.4082 16.0777H20.0205C18.7018 16.0777 17.6328 17.1468 17.6328 18.4657V30.8055C17.6328 32.1243 18.7018 33.1934 20.0205 33.1934H22.4082C23.7269 33.1934 24.7959 32.1243 24.7959 30.8055V18.4657C24.7959 17.1468 23.7269 16.0777 22.4082 16.0777Z" fill="#00928C"/>
<path d="M30.7676 11.9464H28.3799C27.0612 11.9464 25.9922 13.0155 25.9922 14.3344V30.8054C25.9922 32.1242 27.0612 33.1933 28.3799 33.1933H30.7676C32.0862 33.1933 33.1552 32.1242 33.1552 30.8054V14.3344C33.1552 13.0155 32.0862 11.9464 30.7676 11.9464Z" fill="#00928C"/>
</g>
<defs>
<clipPath id="clip0_6795_168742">
<rect width="95.3317" height="40" fill="white" transform="translate(0.921875)"/>
</clipPath>
</defs>
</svg>
