<svg width="229" height="40" viewBox="0 0 229 40" fill="none" xmlns="http://www.w3.org/2000/svg">
<path d="M21.7491 13.2051H13.5935C12.0921 13.2051 10.875 14.4219 10.875 15.923V24.0769C10.875 25.578 12.0921 26.7948 13.5935 26.7948H21.7491C23.2505 26.7948 24.4677 25.578 24.4677 24.0769V15.923C24.4677 14.4219 23.2505 13.2051 21.7491 13.2051Z" fill="#C3F533"/>
<path fill-rule="evenodd" clip-rule="evenodd" d="M0 13.4905C0 7.33028 4.86889 2.33333 10.8741 2.33333H12.2334V9.77235H10.8741C8.87193 9.77235 7.24896 11.4371 7.24896 13.4919V26.5095C7.24896 28.5629 8.87193 30.2276 10.8741 30.2276H16.3112V37.6667H10.8741C4.86889 37.6667 0 32.6711 0 26.5095V13.4905Z" fill="url(#paint0_linear_8924_74988)"/>
<path fill-rule="evenodd" clip-rule="evenodd" d="M35.3385 26.5095C35.3385 32.6711 30.4696 37.6667 24.4644 37.6667H23.1051V30.2276H24.4644C26.4666 30.2276 28.0896 28.5629 28.0896 26.5095V13.4905C28.0896 11.4371 26.4666 9.77235 24.4644 9.77235H19.0273V2.33333H24.4644C30.4696 2.33333 35.3385 7.32892 35.3385 13.4905V26.5095Z" fill="url(#paint1_linear_8924_74988)"/>
<path d="M45.0625 11.4005H50.1951L53.7401 21.446H53.7835L57.3503 11.4005H62.4611V26.7949H59.0684V14.9882H59.0249L54.9797 26.7949H52.3917L48.4987 14.9882H48.4552V26.7949H45.0625V11.4005ZM71.3847 25.4686H71.3412C70.9969 26.0187 70.4866 26.4451 69.884 26.6862C69.2845 26.9335 68.6418 27.0591 67.9933 27.0558C67.4999 27.0558 67.0214 26.9838 66.5579 26.8384C66.1233 26.7155 65.7169 26.5087 65.3618 26.2296C65.014 25.9544 64.7317 25.6053 64.5353 25.2076C64.3246 24.7669 64.2203 24.2828 64.2309 23.7943C64.2309 23.1855 64.3396 22.6704 64.5571 22.2505C64.7882 21.8292 65.0926 21.4813 65.4705 21.2068C65.862 20.9309 66.3037 20.7217 66.7972 20.5763C67.2935 20.416 67.8029 20.2996 68.3195 20.2284C68.8551 20.1563 69.3838 20.1128 69.9058 20.0979C70.4427 20.0843 70.9361 20.0762 71.3847 20.0762C71.3847 19.4959 71.1754 19.0393 70.754 18.7063C70.3492 18.3588 69.8303 18.173 69.2968 18.1845C68.7613 18.1845 68.2679 18.3 67.8193 18.5324C67.3844 18.7498 66.9929 19.0542 66.6449 19.4456L64.9051 17.6626C65.5175 17.0952 66.2442 16.6652 67.0364 16.4015C67.8455 16.1122 68.6985 15.965 69.5578 15.9666C70.5147 15.9666 71.2977 16.0889 71.9066 16.3363C72.5319 16.5673 73.024 16.9152 73.3855 17.3799C73.7634 17.8434 74.0244 18.4168 74.1698 19.0977C74.3139 19.7636 74.3873 20.5396 74.3873 21.4243V26.7949H71.3847V25.4686ZM70.58 22.1635C70.3353 22.1635 70.0227 22.1771 69.6448 22.207C69.2833 22.2206 68.9271 22.279 68.5792 22.381C68.2618 22.474 67.966 22.6292 67.7092 22.8376C67.4781 23.0414 67.3613 23.3227 67.3613 23.6856C67.3613 24.077 67.5284 24.3664 67.8615 24.5553C68.1958 24.7442 68.5438 24.838 68.9067 24.838C69.2248 24.838 69.5293 24.7945 69.8188 24.7075C70.1233 24.6206 70.3924 24.4969 70.6249 24.3379C70.8559 24.1789 71.0367 23.975 71.1686 23.7291C71.3183 23.4641 71.3934 23.1636 71.386 22.8593V22.1635H70.58ZM75.998 16.2275H79.2603V17.9235H79.3038C79.6517 17.2712 80.065 16.7847 80.5434 16.4667C81.0219 16.1338 81.624 15.9666 82.3485 15.9666C82.5375 15.9666 82.7264 15.9734 82.914 15.9884C83.1029 16.0019 83.2769 16.0318 83.4359 16.0753V19.0542C83.209 18.9828 82.976 18.9319 82.74 18.902C82.5107 18.8574 82.2776 18.8355 82.044 18.8368C81.4215 18.8368 80.9281 18.9237 80.5652 19.0977C80.2179 19.2584 79.9236 19.5149 79.717 19.837C79.5167 20.1763 79.3907 20.5543 79.3473 20.9459C79.2902 21.3808 79.2603 21.8591 79.2603 22.381V26.7949H75.998V16.2275ZM84.42 10.3568H87.6823V20.4023L91.2925 16.2275H95.2942L91.0967 20.9894L95.4029 26.7949H91.2925L87.7258 21.446H87.6823V26.7949H84.42V10.3568ZM106.073 24.9685C105.551 25.6344 104.892 26.1508 104.094 26.5123C103.298 26.8737 102.471 27.0558 101.615 27.0558C100.829 27.0604 100.049 26.928 99.3094 26.6645C98.6212 26.4168 97.9865 26.0405 97.4391 25.5555C96.9129 25.0567 96.4915 24.4579 96.1994 23.7943C95.8875 23.0741 95.7323 22.2959 95.7441 21.5112C95.7441 20.67 95.895 19.909 96.1994 19.2282C96.5053 18.5459 96.9185 17.967 97.4404 17.4887C97.976 16.9954 98.5999 16.6189 99.3094 16.358C100.049 16.0945 100.829 15.9621 101.615 15.9666C102.369 15.9666 103.05 16.0971 103.659 16.358C104.284 16.6189 104.805 16.9967 105.226 17.4887C105.676 17.9932 106.017 18.5854 106.227 19.2282C106.458 19.909 106.573 20.67 106.573 21.5112V22.5332H99.0063C99.1368 23.1556 99.4182 23.6557 99.8545 24.0335C100.289 24.3963 100.825 24.5771 101.463 24.5771C101.999 24.5771 102.449 24.4616 102.812 24.2292C103.189 23.9832 103.515 23.672 103.791 23.2942L106.073 24.9685ZM103.311 20.3153C103.323 20.055 103.281 19.795 103.187 19.5518C103.094 19.3086 102.951 19.0873 102.767 18.902C102.391 18.5106 101.906 18.3149 101.31 18.3149C100.949 18.3149 100.631 18.3734 100.353 18.4889C100.09 18.5977 99.8471 18.7523 99.637 18.9455C99.4467 19.1194 99.2958 19.3301 99.1789 19.576C99.0774 19.8101 99.0189 20.0605 99.0063 20.3153H103.311ZM115.322 18.8368H112.451V22.3592C112.451 22.6487 112.464 22.9164 112.494 23.1637C112.523 23.3948 112.589 23.5986 112.69 23.7726C112.792 23.9465 112.944 24.0851 113.147 24.1857C113.364 24.2727 113.647 24.3162 113.995 24.3162C114.169 24.3162 114.393 24.3026 114.669 24.2727C114.959 24.2292 115.176 24.1422 115.322 24.0117V26.7297C114.959 26.8602 114.582 26.9471 114.191 26.9906C113.799 27.0341 113.416 27.0558 113.038 27.0558C112.488 27.0558 111.979 26.9974 111.516 26.8819C111.079 26.7783 110.666 26.594 110.298 26.3383C109.947 26.0746 109.664 25.7319 109.471 25.3381C109.282 24.9318 109.189 24.4385 109.189 23.8595V18.8368H107.101V16.2275H109.189V13.0965H112.451V16.2275H115.322V18.8368ZM117.087 11.4005H127.55V14.5315H120.481V17.4017H127.158V20.5328H120.481V23.6638H127.941V26.7949H117.087V11.4005ZM132.658 21.1416L129.134 16.2275H132.984L134.854 19.0977L136.659 16.2275H140.291L136.855 21.1416L140.922 26.7949H137.073L134.767 23.2725L132.288 26.7949H128.482L132.658 21.1416ZM148.613 19.6413C148.44 19.3979 148.208 19.2032 147.939 19.0759C147.652 18.9174 147.33 18.835 147.003 18.8368C146.177 18.8368 145.533 19.0827 145.068 19.576C144.619 20.068 144.394 20.7135 144.394 21.5112C144.394 22.3076 144.619 22.9531 145.068 23.4464C145.533 23.9397 146.177 24.1857 147.003 24.1857C147.366 24.1857 147.678 24.1055 147.939 23.9465C148.199 23.7875 148.425 23.5986 148.613 23.3812L150.766 25.6425C150.268 26.1588 149.647 26.5404 148.961 26.7514C148.326 26.9472 147.667 27.0497 147.003 27.0558C146.218 27.0603 145.438 26.9278 144.698 26.6645C144.01 26.4165 143.375 26.0402 142.828 25.5555C142.302 25.0567 141.88 24.4579 141.588 23.7943C141.276 23.0742 141.12 22.296 141.131 21.5112C141.131 20.67 141.284 19.909 141.588 19.2282C141.893 18.5459 142.306 17.967 142.828 17.4887C143.365 16.9954 143.989 16.6189 144.698 16.358C145.438 16.0946 146.218 15.9622 147.003 15.9666C147.627 15.9666 148.28 16.0753 148.961 16.2928C149.657 16.4966 150.259 16.8581 150.766 17.3799L148.613 19.6413ZM154.777 10.3568V17.6626H154.82C154.893 17.4588 155.016 17.2563 155.19 17.0538C155.364 16.8499 155.575 16.6692 155.821 16.5102C156.067 16.3512 156.358 16.2207 156.691 16.1188C157.024 16.0169 157.387 15.9666 157.778 15.9666C158.605 15.9666 159.272 16.0971 159.779 16.358C160.286 16.604 160.678 16.9519 160.953 17.4017C161.243 17.8502 161.439 18.3801 161.541 18.989C161.643 19.5978 161.693 20.2569 161.693 20.9676V26.7949H158.431V21.6199C158.431 21.3155 158.416 21.003 158.387 20.685C158.377 20.3714 158.31 20.0622 158.191 19.7717C158.095 19.5027 157.921 19.2682 157.691 19.0977C157.474 18.9237 157.154 18.8368 156.734 18.8368C156.314 18.8368 155.973 18.9169 155.712 19.0759C155.455 19.2169 155.244 19.4281 155.103 19.6848C154.967 19.9498 154.879 20.2369 154.842 20.5328C154.799 20.8521 154.777 21.1851 154.777 21.533V26.7949H151.515V10.3568H154.777ZM170.202 25.4686H170.158C169.814 26.0186 169.304 26.445 168.701 26.6862C168.101 26.9335 167.458 27.0592 166.809 27.0558C166.316 27.0558 165.837 26.9838 165.374 26.8384C164.939 26.7156 164.533 26.5088 164.178 26.2296C163.83 25.9545 163.547 25.6054 163.351 25.2076C163.14 24.767 163.036 24.2828 163.047 23.7943C163.047 23.1855 163.156 22.6704 163.373 22.2505C163.604 21.8292 163.909 21.4813 164.286 21.2068C164.678 20.9309 165.12 20.7217 165.613 20.5763C166.109 20.4159 166.619 20.2995 167.135 20.2284C167.671 20.1563 168.201 20.1128 168.723 20.0979C169.259 20.0843 169.752 20.0762 170.202 20.0762C170.202 19.4959 169.991 19.0393 169.571 18.7063C169.166 18.3588 168.648 18.173 168.114 18.1845C167.577 18.1845 167.084 18.3 166.635 18.5324C166.2 18.7498 165.809 19.0542 165.461 19.4456L163.721 17.6626C164.33 17.0973 165.039 16.6774 165.852 16.4015C166.662 16.112 167.515 15.9648 168.375 15.9666C169.332 15.9666 170.115 16.0889 170.724 16.3363C171.346 16.5673 171.84 16.9152 172.203 17.3799C172.579 17.8434 172.84 18.4168 172.986 19.0977C173.13 19.7636 173.203 20.5396 173.203 21.4243V26.7949H170.202V25.4686ZM169.397 22.1635C169.15 22.1635 168.839 22.1771 168.462 22.207C168.099 22.2206 167.744 22.279 167.396 22.381C167.079 22.4737 166.783 22.6289 166.526 22.8376C166.294 23.0414 166.179 23.3227 166.179 23.6856C166.179 24.077 166.344 24.3664 166.679 24.5553C167.012 24.7442 167.36 24.838 167.723 24.838C168.041 24.838 168.345 24.7945 168.636 24.7075C168.941 24.6206 169.208 24.4969 169.441 24.3379C169.672 24.1789 169.854 23.975 169.984 23.7291C170.129 23.4831 170.202 23.1923 170.202 22.8593V22.1635H169.397ZM174.814 16.2275H177.946V17.6626H177.989C178.091 17.4588 178.237 17.2563 178.424 17.0538C178.613 16.8499 178.837 16.6692 179.098 16.5102C179.359 16.3512 179.657 16.2207 179.99 16.1188C180.324 16.0169 180.686 15.9666 181.077 15.9666C181.904 15.9666 182.571 16.0971 183.078 16.358C183.587 16.604 183.978 16.9519 184.253 17.4017C184.544 17.8502 184.739 18.3801 184.84 18.989C184.942 19.5978 184.992 20.2569 184.992 20.9676V26.7949H181.73V21.6199C181.73 21.3155 181.716 21.003 181.686 20.685C181.677 20.3712 181.611 20.0618 181.491 19.7717C181.394 19.5025 181.22 19.2679 180.99 19.0977C180.773 18.9237 180.455 18.8368 180.034 18.8368C179.613 18.8368 179.272 18.9169 179.011 19.0759C178.755 19.2169 178.543 19.4281 178.402 19.6848C178.266 19.9498 178.178 20.2369 178.141 20.5328C178.098 20.8521 178.076 21.1851 178.076 21.533V26.7949H174.814V16.2275ZM197.959 25.9034C197.959 27.9038 197.452 29.4177 196.437 30.4478C195.437 31.4915 193.908 32.0134 191.848 32.0134C190.906 32.0134 189.978 31.9047 189.064 31.6872C188.141 31.4798 187.278 31.0632 186.542 30.4696L188.347 27.7734C188.854 28.1947 189.384 28.5276 189.934 28.7736C190.5 29.0196 191.116 29.1432 191.783 29.1432C192.783 29.1432 193.516 28.8973 193.98 28.4039C194.458 27.9256 194.697 27.3086 194.697 26.5557V25.5338H194.654C194.277 26.0407 193.806 26.4035 193.24 26.621C192.69 26.8248 192.168 26.9254 191.674 26.9254C190.945 26.9355 190.221 26.8025 189.543 26.534C188.922 26.2705 188.361 25.8861 187.89 25.4033C187.432 24.897 187.077 24.3061 186.846 23.6638C186.593 22.9596 186.468 22.2159 186.476 21.4677C186.476 20.7719 186.585 20.0897 186.803 19.4238C187.035 18.7579 187.353 18.1695 187.76 17.6626C188.178 17.1567 188.696 16.7423 189.282 16.445C189.906 16.1189 190.601 15.9544 191.305 15.9666C191.768 15.9666 192.189 16.0169 192.566 16.1188C192.957 16.2207 193.305 16.3498 193.61 16.5102C193.914 16.6692 194.175 16.8499 194.393 17.0538C194.61 17.2413 194.784 17.4302 194.915 17.6191H194.958V16.2275H197.959V25.9034ZM189.739 21.446C189.739 21.7939 189.804 22.1268 189.934 22.4462C190.065 22.7506 190.246 23.0251 190.478 23.2725C190.724 23.5035 191 23.6937 191.305 23.8378C191.624 23.9832 191.972 24.0552 192.348 24.0552C192.711 24.0552 193.051 23.9832 193.371 23.8378C193.678 23.7008 193.958 23.5092 194.197 23.2725C194.443 23.0265 194.632 22.7506 194.763 22.4462C195.021 21.8121 195.021 21.1017 194.763 20.4675C194.636 20.1546 194.443 19.8727 194.197 19.6413C193.963 19.3933 193.682 19.1938 193.371 19.0542C193.05 18.9088 192.701 18.8346 192.348 18.8368C191.972 18.8368 191.624 18.9088 191.305 19.0542C190.997 19.201 190.718 19.3996 190.478 19.6413C190.246 19.8723 190.065 20.1482 189.934 20.4675C189.803 20.7769 189.736 21.1099 189.739 21.446ZM210.136 24.9685C209.614 25.6344 208.955 26.1508 208.157 26.5123C207.359 26.8737 206.532 27.0558 205.677 27.0558C204.892 27.0604 204.112 26.9279 203.372 26.6645C202.684 26.4168 202.049 26.0404 201.502 25.5555C200.976 25.0567 200.554 24.4579 200.262 23.7943C199.95 23.0742 199.794 22.296 199.805 21.5112C199.805 20.67 199.958 19.909 200.262 19.2282C200.567 18.5459 200.98 17.967 201.502 17.4887C202.039 16.9954 202.661 16.6189 203.372 16.358C204.112 16.0945 204.892 15.9621 205.677 15.9666C206.378 15.9563 207.074 16.0895 207.722 16.358C208.346 16.6189 208.868 16.9967 209.288 17.4887C209.723 17.967 210.056 18.5473 210.288 19.2282C210.52 19.909 210.636 20.67 210.636 21.5112V22.5332H203.068C203.198 23.1556 203.481 23.6557 203.916 24.0335C204.351 24.3963 204.888 24.5771 205.525 24.5771C206.062 24.5771 206.511 24.4616 206.874 24.2292C207.25 23.9832 207.576 23.672 207.852 23.2942L210.136 24.9685ZM207.374 20.3153C207.386 20.055 207.343 19.795 207.25 19.5518C207.156 19.3086 207.013 19.0873 206.83 18.902C206.454 18.5106 205.967 18.3149 205.373 18.3149C205.01 18.3149 204.692 18.3734 204.416 18.4889C204.152 18.5974 203.909 18.752 203.698 18.9455C203.506 19.1237 203.351 19.338 203.242 19.576C203.14 19.8071 203.083 20.0544 203.068 20.3153H207.374ZM212.184 16.2275H215.446V17.9235H215.49C215.838 17.2712 216.251 16.7847 216.73 16.4667C217.208 16.1338 217.81 15.9666 218.535 15.9666C218.724 15.9666 218.913 15.9734 219.1 15.9884C219.289 16.0019 219.463 16.0318 219.622 16.0753V19.0542C219.395 18.9827 219.162 18.9317 218.926 18.902C218.697 18.8573 218.464 18.8355 218.23 18.8368C217.608 18.8368 217.114 18.9237 216.751 19.0977C216.39 19.2716 216.107 19.519 215.903 19.837C215.703 20.1766 215.577 20.5544 215.533 20.9459C215.473 21.4219 215.444 21.9012 215.446 22.381V26.7949H212.184V16.2275ZM226.587 19.3369C226.109 18.7416 225.478 18.4454 224.695 18.4454C224.419 18.4454 224.151 18.5106 223.89 18.6411C223.629 18.7715 223.499 18.9958 223.499 19.3151C223.499 19.576 223.629 19.7717 223.89 19.9022C224.166 20.0177 224.506 20.1264 224.912 20.2284C225.332 20.3153 225.776 20.4173 226.239 20.5328C226.717 20.6347 227.159 20.8005 227.566 21.0329C227.986 21.2639 228.327 21.5833 228.588 21.9896C228.864 22.381 229.001 22.9096 229.001 23.5769C229.001 24.2577 228.849 24.823 228.544 25.2729C228.255 25.7077 227.877 26.0624 227.413 26.3383C226.926 26.6075 226.397 26.7913 225.848 26.8819C225.282 26.9964 224.706 27.0546 224.129 27.0558C223.373 27.0534 222.619 26.9511 221.889 26.7514C221.163 26.5503 220.502 26.1602 219.976 25.6208L221.955 23.4247C222.259 23.8011 222.592 24.0906 222.955 24.2944C223.332 24.4833 223.766 24.5771 224.26 24.5771C224.636 24.5771 224.978 24.5268 225.282 24.4249C225.587 24.3094 225.739 24.1055 225.739 23.816C225.739 23.5402 225.602 23.3377 225.326 23.2072C225.004 23.0412 224.66 22.924 224.303 22.8593C223.897 22.7574 223.455 22.6555 222.977 22.5549C222.517 22.4404 222.071 22.2726 221.65 22.0548C221.242 21.8355 220.892 21.5225 220.628 21.1416C220.367 20.7353 220.236 20.1985 220.236 19.5326C220.236 18.9088 220.36 18.372 220.606 17.9235C220.867 17.4751 221.2 17.1041 221.607 16.8146C222.042 16.5179 222.529 16.3041 223.042 16.184C223.579 16.0386 224.123 15.9666 224.673 15.9666C225.369 15.9666 226.072 16.0685 226.783 16.271C227.494 16.4749 228.094 16.8364 228.588 17.3582L226.587 19.3369Z" fill="white"/>
<defs>
<linearGradient id="paint0_linear_8924_74988" x1="4.53043" y1="29.2981" x2="16.388" y2="33.7423" gradientUnits="userSpaceOnUse">
<stop stop-color="#C3F533"/>
<stop offset="1" stop-color="#C3F533" stop-opacity="0"/>
</linearGradient>
<linearGradient id="paint1_linear_8924_74988" x1="30.8081" y1="10.7019" x2="18.9505" y2="6.25774" gradientUnits="userSpaceOnUse">
<stop stop-color="#C3F533"/>
<stop offset="1" stop-color="#C3F533" stop-opacity="0"/>
</linearGradient>
</defs>
</svg>
