<svg width="105" height="40" viewBox="0 0 105 40" fill="none" xmlns="http://www.w3.org/2000/svg">
<g clip-path="url(#clip0_6795_168756)">
<path d="M19.4861 8L7.46484 19.9169L19.4643 31.6451L23.8363 27.218L16.3611 19.9169L23.8363 12.536L19.4861 8Z" fill="white"/>
<path d="M4.35026 31.8263L16.3715 19.9167L4.37926 8.18121L0 12.6083L7.47519 19.9167L0 27.2904L4.35026 31.8263Z" fill="#D06821"/>
<path d="M40.7924 21.3903C40.8504 21.3685 42.634 19.8662 43.2213 18.901C43.8086 17.9357 44.1421 16.5568 44.0769 15.2069C43.9899 13.407 43.2721 11.4402 40.8432 10.1919C39.5309 9.51694 37.9358 9.53872 36.4059 9.53872H29.8008V29.4026H34.7963V22.2902H36.5872L40.7924 29.4026H45.875L40.7924 21.3976V21.3903ZM34.7311 13.407H37.073C37.8923 13.407 39.3278 14.111 39.3278 16.1866C39.3278 18.0228 37.9068 18.7776 37.0947 18.7776H34.7311V13.407Z" fill="white"/>
<path d="M52.5893 29.5259C51.6177 29.5259 50.7404 29.388 50.0009 29.0179C47.9128 27.9655 47.5938 26.289 47.5938 25.2802C47.5938 22.8199 49.2323 20.6499 53.2128 19.8443C55.0762 19.4669 56.461 20.0693 56.548 19.1911C56.6133 18.5234 55.591 17.7251 54.3947 17.7396C53.1186 17.7541 52.0383 18.0082 51.1247 18.7121L48.9713 16.0922C49.4354 15.6132 50.6244 15.0398 51.5452 14.6769C52.466 14.3141 53.5319 14.1254 54.7427 14.1254C55.5837 14.1254 56.3958 14.227 57.1716 14.4229C57.9474 14.6189 58.6362 14.931 59.2379 15.3446C59.8397 15.7583 60.3183 16.2954 60.6663 16.9413C61.0143 17.5872 61.1883 18.371 61.1883 19.271V29.5259H57.1933V27.4212H57.0773C56.8308 27.893 55.1559 29.0251 54.5759 29.2283C54.0031 29.4316 53.3433 29.5332 52.5893 29.5332V29.5259ZM53.8074 26.0132C54.3004 26.0132 54.7427 25.9116 55.1197 25.7157C55.4967 25.5197 55.794 25.2512 56.0115 24.9174C56.229 24.5835 56.3378 24.1989 56.3378 23.7707V22.4861C56.2363 22.5514 53.1838 22.3917 52.2775 23.8142C52.1325 24.0392 52.031 24.2932 52.031 24.6053C52.031 25.0625 52.1978 25.4109 52.5313 25.6504C52.8648 25.8899 53.2926 26.0132 53.8074 26.0132Z" fill="white"/>
<path d="M72.1302 29.3298C71.9199 29.3879 71.0208 29.7218 70.4698 29.7363C69.462 29.7798 68.5702 29.6419 67.8016 29.3371C67.0403 29.025 66.4531 28.5388 66.0325 27.8856C65.612 27.2324 65.3945 26.4051 65.4017 25.4108V17.5H63.3281V15.1849C63.3281 15.1849 64.4592 14.5172 64.974 13.5592C65.5758 12.427 65.409 10.6924 65.409 10.6924H69.6215V14.3357H72.4782V17.5H69.6215V24.8592C69.6215 25.2511 69.6795 25.5487 69.7955 25.7664C69.9188 25.9841 70.0855 26.1365 70.303 26.2164C70.5206 26.3034 70.7598 26.347 71.0426 26.347C71.2383 26.347 71.4414 26.3252 71.6299 26.2962C71.8256 26.2599 71.9851 26.2236 72.0866 26.2091L72.1229 29.3298H72.1302Z" fill="white"/>
<path d="M89.222 23.9084V22.5077C89.222 21.2086 89.4757 14.7711 82.3268 14.8655C80.8332 14.8872 79.5354 15.1921 78.4333 15.8525C77.324 16.5129 76.4757 17.4346 75.8667 18.6104C75.2504 19.7933 74.9531 21.165 74.9531 22.7254C74.9531 24.2858 75.1634 25.7663 75.8667 26.8912C77.3168 29.2209 79.4846 29.9757 82.6603 30.1063C83.9074 30.1571 86.5828 29.8668 88.6274 28.9379L88.6927 25.1059C87.2571 26.3179 85.0022 26.4413 83.4216 26.4268C82.1383 26.4122 79.8907 26.151 79.8834 23.8939C82.073 23.8939 89.2147 23.9084 89.2147 23.9084H89.222ZM82.3631 18.4942C84.5019 18.4942 85.1255 20.3304 85.1255 20.94H79.7674C79.7892 20.3957 80.42 18.4942 82.3703 18.4942H82.3631Z" fill="white"/>
<path d="M103.733 15.8891L102.312 18.9083C99.2453 17.4785 96.9034 17.6817 96.9034 18.6397C96.9034 19.5977 97.7807 19.9969 99.9195 20.3816C101.406 20.6501 103.16 21.492 103.886 22.1669C104.611 22.8419 104.973 23.7273 104.973 24.8159C104.973 25.8102 104.683 26.6884 104.096 27.4359C103.516 28.1907 102.718 28.7713 101.703 29.1922C100.688 29.6132 99.528 29.8236 98.2084 29.8236C96.2001 29.8236 93.6262 29.5696 92.1181 28.7495L92.1036 24.8812C94.0757 25.803 95.7723 25.9481 97.7662 25.9481C98.948 25.9481 99.5715 25.607 99.5715 25.1498C99.5715 24.199 97.0556 23.7418 96.1203 23.5604C94.634 23.2773 93.5319 22.3846 92.8069 21.6516C92.0818 20.9186 91.7266 19.9824 91.7266 18.8502C91.7266 17.8777 91.9948 17.0358 92.5241 16.3246C93.0534 15.6206 93.8002 15.0763 94.7717 14.6916C95.7361 14.307 96.8671 14.1183 98.1649 14.1183C100.079 14.1183 102.015 14.4594 103.741 15.8819L103.733 15.8891Z" fill="white"/>
</g>
<defs>
<clipPath id="clip0_6795_168756">
<rect width="104.667" height="40" fill="white"/>
</clipPath>
</defs>
</svg>
