<svg width="193" height="40" viewBox="0 0 193 40" fill="none" xmlns="http://www.w3.org/2000/svg">
<path d="M44.1875 8.75632V14.6844H51.3008V17.9344H44.1875V24.0431C44.1875 26.1345 44.7566 27.2328 46.4039 27.2328C47.2125 27.2328 48.7849 27.2328 48.725 23.8324L52.8432 23.8625C52.5886 30.3473 48.6651 30.8138 46.2541 30.8138C43.6634 30.8138 42.106 30.242 41.2973 29.3543C40.3838 28.3613 39.9645 26.8115 39.9645 24.5396V17.9494H35.9961V14.6995H39.9645V10.0051L44.1875 8.77136V8.75632Z" fill="white"/>
<path d="M72.1434 21.8312C72.1434 28.1656 67.7107 30.9943 63.338 30.9943C58.471 30.9943 54.7422 27.639 54.7422 22.1171C54.7422 16.5952 58.4411 12.9842 63.6225 12.9842C68.8039 12.9842 72.1434 16.5952 72.1434 21.8312ZM59.2198 22.0118C59.2198 25.337 60.8371 27.8496 63.4877 27.8496C65.9586 27.8496 67.6808 25.4122 67.6808 21.9366C67.6808 19.2433 66.4827 16.1739 63.5326 16.1739C60.5825 16.1739 59.2347 19.1531 59.2347 22.0118H59.2198Z" fill="white"/>
<path d="M79.0935 20.748H79.1683C79.5876 20.071 80.0818 19.3337 80.5461 18.7319L84.6942 13.1799H89.9056L83.5711 20.2214L90.8191 30.4076H85.5029L80.576 22.7943L79.0935 24.5246V30.3925H74.7656V5.28073H79.0935V20.748Z" fill="white"/>
<path d="M94.9639 23.0199C95.0687 26.1344 97.4947 27.4735 100.25 27.4735C102.257 27.4735 103.694 27.1876 104.997 26.6911L105.626 29.7003C104.144 30.3021 102.107 30.7986 99.6362 30.7986C94.0654 30.7986 90.8008 27.3381 90.8008 22.0569C90.8008 17.2873 93.691 12.7886 99.1869 12.7886C104.683 12.7886 106.585 17.3927 106.585 21.1692C106.585 21.9817 106.51 22.6136 106.45 23.0048H94.9639V23.0199ZM102.496 19.9806C102.526 18.3857 101.823 15.7677 98.9473 15.7677C96.2667 15.7677 95.1436 18.2051 94.9639 19.9806H102.496Z" fill="white"/>
<path d="M109.49 18.5061C109.49 16.52 109.46 14.8649 109.355 13.3754H113.159L113.369 15.9633H113.474C114.207 14.6242 116.079 12.9842 118.925 12.9842C121.92 12.9842 125.02 14.9251 125.02 20.3718V30.6031H120.692V20.8683C120.692 18.3857 119.778 16.52 117.412 16.52C115.69 16.52 114.492 17.7538 114.028 19.0628C113.893 19.454 113.848 19.9806 113.848 20.4771V30.6031H109.475V18.5061H109.49Z" fill="white"/>
<path d="M192.166 24.7504L192.136 25.1566C191.672 30.5581 188.826 31.2503 186.43 31.2503C184.319 31.2503 182.806 30.7688 182.088 29.8359C181.324 28.888 180.935 27.2932 180.935 24.9911L180.905 16.6406H177.176L177.206 14.8501H180.935V9.67428L184.049 8.62106V14.8501H190.758L190.728 16.6406H184.019L184.049 24.4495C184.049 26.1346 184.304 28.3915 186.565 28.3915C187.014 28.3915 187.748 28.3915 188.362 27.6843C188.826 27.1276 189.096 26.27 189.156 25.0814L189.186 24.7203L192.166 24.7504Z" fill="white"/>
<path d="M128.732 28.3163C129.645 28.9181 131.263 29.5501 132.82 29.5501C135.066 29.5501 136.13 28.4216 136.13 27.0073C136.13 25.5177 135.246 24.7052 132.955 23.8627C129.885 22.7643 128.447 21.0641 128.447 19.0179C128.447 16.2644 130.664 13.9925 134.333 13.9925C136.055 13.9925 137.567 14.489 138.526 15.0608L137.747 17.3177C137.073 16.8964 135.845 16.3246 134.258 16.3246C132.431 16.3246 131.412 17.3929 131.412 18.6568C131.412 20.0711 132.431 20.703 134.647 21.5606C137.612 22.6891 139.125 24.1786 139.125 26.7214C139.125 29.7306 136.803 31.8822 132.745 31.8822C130.873 31.8822 129.151 31.3857 127.953 30.6785L128.732 28.3012V28.3163Z" fill="white"/>
<path d="M143.107 19.9657C143.107 17.769 143.033 16.0086 142.973 14.3686H145.758L145.893 17.3026H145.968C147.241 15.2112 149.247 13.9774 152.018 13.9774C156.136 13.9774 159.236 17.4831 159.236 22.674C159.236 28.8278 155.507 31.8671 151.494 31.8671C149.247 31.8671 147.271 30.8741 146.252 29.1739H146.177V38.4723H143.107V19.9356V19.9657ZM146.177 24.5247C146.177 24.9911 146.252 25.4124 146.312 25.8036C146.881 27.9552 148.738 29.4447 150.954 29.4447C154.234 29.4447 156.136 26.7515 156.136 22.8245C156.136 19.394 154.339 16.46 151.059 16.46C148.948 16.46 146.971 17.9797 146.372 20.3118C146.267 20.703 146.162 21.1544 146.162 21.5907V24.5247H146.177Z" fill="white"/>
<path d="M177.445 22.8095C177.445 29.1439 173.072 31.8973 168.954 31.8973C164.341 31.8973 160.777 28.4969 160.777 23.0954C160.777 17.3629 164.506 14.0076 169.223 14.0076C173.941 14.0076 177.43 17.5735 177.43 22.8095H177.445ZM163.922 22.9901C163.922 26.7365 166.064 29.5652 169.104 29.5652C172.144 29.5652 174.285 26.7666 174.285 22.9148C174.285 20.011 172.847 16.3397 169.178 16.3397C165.51 16.3397 163.937 19.7401 163.937 22.9901H163.922Z" fill="white"/>
<path d="M23.0993 19.9505C21.7216 23.0349 20.1792 24.5847 14.0693 24.5847C7.95941 24.5847 6.41697 23.0349 5.03925 19.9505C4.02093 17.6786 3.7963 9.46344 4.72477 5.73203C5.23392 3.73091 7.22563 3.41495 8.85792 5.03991C10.0559 6.2135 11.9278 8.666 14.0693 8.74123C16.2108 8.666 18.0827 6.2135 19.2807 5.03991C20.913 3.41495 22.9047 3.73091 23.4138 5.73203C24.3423 9.46344 24.1177 17.6786 23.0993 19.9505ZM14.0693 29.6702C12.8713 29.6702 12.1525 28.6922 10.9245 27.7744C8.96275 26.2999 5.96771 24.9909 3.21227 25.0511C1.96933 25.0812 0.741363 25.8034 0.307082 27.3682C-0.306902 29.5799 1.31042 31.7014 1.31042 31.7014H25.6302C25.6302 31.7014 27.2924 30.7836 28.8049 28.5418C30.4821 26.0592 30.6469 20.0709 30.6469 15.6774C30.6469 11.284 29.5836 11.3893 28.146 11.3893C27.2026 11.3893 26.1992 12.3974 26.1842 13.3754C26.1543 14.9101 25.6751 18.8371 25.2408 20.5223C24.8065 22.2074 23.8331 24.5997 19.9096 26.0291C16.2856 27.3531 16.5103 29.6702 14.0693 29.6702Z" fill="url(#paint0_linear_8924_74972)"/>
<defs>
<linearGradient id="paint0_linear_8924_74972" x1="0.18728" y1="17.8441" x2="30.6469" y2="17.8441" gradientUnits="userSpaceOnUse">
<stop stop-color="#3780F8"/>
<stop offset="1" stop-color="#32B3F9"/>
</linearGradient>
</defs>
</svg>
