<svg width="166" height="40" viewBox="0 0 166 40" fill="none" xmlns="http://www.w3.org/2000/svg">
<g clip-path="url(#clip0_6950_110138)">
<path d="M43.6911 14.0824H60.3652V17.1376H53.8099V34.3165H50.2028V17.1376H43.6758V14.0812H43.6899L43.6911 14.0824ZM59.6534 19.6647H62.7358V22.4929H62.7934C62.8958 22.0929 63.084 21.7071 63.3605 21.3353C63.9516 20.5385 64.7518 19.9208 65.6723 19.5506C66.1398 19.3653 66.6376 19.2684 67.1405 19.2647C67.517 19.2647 67.7946 19.2788 67.9405 19.2941C68.0852 19.3082 68.2299 19.3365 68.3899 19.3506V22.4635C68.1538 22.4222 67.9164 22.3889 67.6781 22.3635C67.4415 22.3355 67.2035 22.3214 66.9652 22.3212C66.4123 22.3212 65.8899 22.4353 65.3958 22.6506C64.9017 22.8635 64.4793 23.1918 64.117 23.6071C63.7303 24.0714 63.4342 24.6041 63.244 25.1776C63.0264 25.8059 62.924 26.5188 62.924 27.3341V34.3024H59.6393V19.6647H59.6534ZM83.4946 34.3176H80.2675V32.2753H80.2087C79.8017 33.0188 79.2064 33.6047 78.4064 34.0471C77.6064 34.4894 76.7923 34.7176 75.964 34.7176C74.0017 34.7176 72.5758 34.2471 71.7052 33.2894C70.8323 32.3329 70.3958 30.8906 70.3958 28.9624V19.6659H73.6817V28.6482C73.6817 29.9341 73.9287 30.8482 74.4381 31.3765C74.9323 31.9047 75.644 32.1765 76.5452 32.1765C77.2428 32.1765 77.8099 32.0765 78.2746 31.8612C78.7405 31.6471 79.1181 31.3765 79.3946 31.0188C79.6852 30.6765 79.8887 30.2482 80.0205 29.7624C80.1499 29.2765 80.2087 28.7482 80.2087 28.1776V19.68H83.4946V34.3176ZM89.0911 29.62C89.1934 30.5612 89.5558 31.22 90.1817 31.6047C90.8205 31.9765 91.577 32.1765 92.464 32.1765C92.7699 32.1765 93.1181 32.1471 93.5111 32.1047C93.9028 32.0612 94.2805 31.9612 94.6158 31.8341C94.964 31.7047 95.2393 31.5047 95.4723 31.2482C95.6911 30.9894 95.7923 30.6624 95.7781 30.2482C95.7762 30.056 95.7339 29.8664 95.6538 29.6917C95.5738 29.5169 95.4578 29.361 95.3134 29.2341C95.0217 28.9635 94.6593 28.7635 94.2075 28.5918C93.7043 28.4174 93.1893 28.279 92.6664 28.1776C92.0852 28.0635 91.504 27.9341 90.9087 27.8059C90.309 27.6761 89.7168 27.5139 89.1346 27.32C88.5886 27.145 88.0736 26.8849 87.6087 26.5494C87.1557 26.2333 86.7863 25.8118 86.5322 25.3212C86.257 24.8212 86.1252 24.2071 86.1252 23.4647C86.1252 22.6647 86.3287 22.0082 86.7217 21.4647C87.118 20.9257 87.6297 20.482 88.2193 20.1659C88.853 19.8309 89.5342 19.5948 90.2393 19.4659C90.9805 19.3376 91.6934 19.2659 92.3617 19.2659C93.1323 19.2659 93.8734 19.3518 94.5723 19.5094C95.2488 19.6543 95.8937 19.9201 96.4758 20.2941C97.0428 20.6518 97.5075 21.1224 97.8864 21.6941C98.264 22.2647 98.497 22.9647 98.5981 23.7788H95.1675C95.0075 23.0082 94.6581 22.48 94.0923 22.2224C93.5252 21.9518 92.8711 21.8224 92.144 21.8224C91.9111 21.8224 91.6346 21.8365 91.3158 21.88C91.0086 21.9209 90.7063 21.9926 90.4134 22.0941C90.1458 22.1927 89.9029 22.3485 89.7017 22.5506C89.604 22.6561 89.528 22.7798 89.4782 22.9146C89.4283 23.0495 89.4055 23.1928 89.4111 23.3365C89.4111 23.7365 89.5558 24.0506 89.8323 24.2929C90.1087 24.5353 90.4723 24.7353 90.9228 24.9071C91.3734 25.0647 91.8828 25.2071 92.464 25.3212C93.0452 25.4353 93.6405 25.5635 94.2523 25.6929C94.8475 25.8212 95.4287 25.9929 96.0111 26.1776C96.5923 26.3635 97.1005 26.6212 97.5523 26.9494C98.0028 27.2776 98.3664 27.6776 98.6417 28.1635C98.9181 28.6482 99.064 29.2624 99.064 29.9765C99.064 30.8471 98.8605 31.5765 98.4523 32.1906C98.0464 32.7906 97.5228 33.2894 96.8828 33.6612C96.2129 34.0471 95.4869 34.3265 94.7311 34.4894C93.9621 34.6586 93.1772 34.7446 92.3899 34.7459C91.5082 34.7558 90.6289 34.6502 89.7746 34.4318C88.9746 34.2176 88.277 33.9035 87.6958 33.4906C87.1214 33.0732 86.6491 32.531 86.3146 31.9047C85.9805 31.2765 85.8052 30.5188 85.777 29.6482H89.0911V29.62ZM99.9358 19.6671H102.422V15.2671H105.708V19.6671H108.672V22.0788H105.709V29.9059C105.709 30.2471 105.723 30.5341 105.752 30.7906C105.78 31.0341 105.853 31.2482 105.956 31.4188C106.067 31.5981 106.236 31.7341 106.435 31.8047C106.653 31.8906 106.929 31.9341 107.308 31.9341C107.539 31.9341 107.772 31.9341 108.005 31.9188C108.238 31.9047 108.47 31.8765 108.703 31.8188V34.3176C108.339 34.3612 107.976 34.3894 107.642 34.4318C107.289 34.4727 106.935 34.492 106.58 34.4894C105.709 34.4894 105.011 34.4035 104.486 34.2471C103.964 34.0894 103.542 33.8471 103.251 33.5329C102.945 33.2188 102.757 32.8329 102.64 32.3612C102.527 31.8306 102.464 31.2906 102.452 30.7482V22.1059H99.9664V19.6635H99.937L99.9358 19.6671ZM110.998 19.6671H114.11V21.6506H114.169C114.632 20.7941 115.272 20.1941 116.1 19.8235C116.947 19.4471 117.865 19.257 118.791 19.2659C119.968 19.2659 120.985 19.4659 121.858 19.88C122.73 20.28 123.457 20.8376 124.038 21.5506C124.619 22.2647 125.042 23.0929 125.332 24.0365C125.628 25.018 125.775 26.0384 125.769 27.0635C125.769 28.0482 125.638 29.0047 125.376 29.92C125.135 30.8029 124.736 31.6348 124.198 32.3753C123.67 33.0892 122.983 33.6711 122.192 34.0753C121.378 34.5035 120.433 34.7176 119.329 34.7176C118.846 34.7171 118.364 34.6738 117.889 34.5882C117.415 34.5028 116.952 34.3643 116.509 34.1753C116.069 33.9916 115.657 33.746 115.286 33.4459C114.921 33.1541 114.602 32.8077 114.342 32.4188H114.283V39.7306H110.998V19.6647V19.6671ZM122.483 27.0059C122.483 26.3547 122.396 25.7064 122.222 25.0788C122.061 24.4842 121.794 23.9232 121.436 23.4224C121.095 22.9458 120.654 22.5505 120.143 22.2647C119.594 21.9681 118.979 21.8159 118.355 21.8224C116.973 21.8224 115.926 22.2929 115.229 23.2365C114.531 24.1788 114.182 25.4365 114.182 27.0059C114.182 27.7482 114.27 28.4341 114.458 29.0624C114.646 29.6906 114.909 30.2341 115.286 30.6906C115.651 31.1482 116.086 31.5047 116.596 31.7612C117.104 32.0329 117.7 32.1612 118.369 32.1612C119.125 32.1612 119.75 32.0047 120.273 31.7047C120.78 31.413 121.217 31.0134 121.552 30.5341C121.886 30.0482 122.135 29.5047 122.279 28.8918C122.413 28.272 122.481 27.6399 122.483 27.0059ZM128.283 14.0824H131.569V17.1388H128.283V14.0824ZM128.283 19.6659H131.569V34.3176H128.283V19.6659ZM134.505 14.0824H137.791V34.3176H134.505V14.0824ZM147.865 34.7176C146.672 34.7176 145.611 34.5176 144.682 34.1329C143.791 33.7675 142.984 33.2229 142.312 32.5329C141.659 31.8291 141.159 30.9975 140.843 30.0906C140.497 29.0895 140.325 28.0367 140.335 26.9776C140.335 25.8635 140.509 24.8365 140.843 23.8929C141.159 22.9865 141.659 22.1553 142.312 21.4518C142.951 20.7659 143.751 20.2376 144.682 19.8518C145.611 19.4659 146.672 19.2659 147.865 19.2659C149.057 19.2659 150.118 19.4659 151.049 19.8518C151.979 20.2376 152.764 20.7812 153.418 21.4518C154.071 22.1551 154.571 22.9864 154.886 23.8929C155.22 24.8353 155.395 25.8635 155.395 26.9776C155.395 28.1071 155.22 29.1482 154.886 30.0906C154.571 30.9976 154.071 31.8293 153.418 32.5329C152.778 33.2188 151.979 33.7471 151.049 34.1329C150.118 34.5176 149.057 34.7176 147.865 34.7176ZM147.865 32.1612C148.592 32.1612 149.231 32.0047 149.769 31.7047C150.293 31.413 150.745 31.0078 151.092 30.5188C151.44 30.0341 151.688 29.4765 151.863 28.8624C152.023 28.2482 152.11 27.62 152.11 26.9776C152.11 26.3494 152.023 25.7353 151.863 25.1071C151.713 24.5111 151.452 23.9491 151.092 23.4506C150.744 22.9662 150.292 22.5662 149.769 22.28C149.231 21.98 148.592 21.8224 147.865 21.8224C147.138 21.8224 146.498 21.98 145.96 22.28C145.441 22.5706 144.99 22.9699 144.638 23.4506C144.284 23.952 144.023 24.5131 143.868 25.1071C143.707 25.7177 143.623 26.3462 143.619 26.9776C143.619 27.62 143.708 28.2482 143.868 28.8624C144.028 29.4765 144.289 30.0341 144.638 30.5188C144.986 31.0047 145.423 31.4047 145.96 31.7047C146.498 32.0188 147.138 32.1612 147.865 32.1612ZM156.355 19.6671H158.84V15.2671H162.126V19.6671H165.091V22.0788H162.126V29.9059C162.126 30.2471 162.14 30.5341 162.169 30.7906C162.198 31.0341 162.271 31.2482 162.373 31.4188C162.484 31.5982 162.653 31.7344 162.852 31.8047C163.071 31.8906 163.346 31.9341 163.725 31.9341C163.957 31.9341 164.19 31.9341 164.423 31.9188C164.656 31.9047 164.888 31.8765 165.12 31.8188V34.3176C164.757 34.3612 164.393 34.3894 164.059 34.4318C163.707 34.4727 163.353 34.4919 162.998 34.4894C162.126 34.4894 161.428 34.4035 160.904 34.2471C160.382 34.0894 159.959 33.8471 159.669 33.5329C159.364 33.2188 159.175 32.8329 159.058 32.3612C158.945 31.8306 158.882 31.2906 158.87 30.7482V22.1059H156.384V19.6635H156.355V19.6671Z" fill="white"/>
<path d="M39.8529 14.0812H24.7929L20.1411 0L15.4729 14.0824L0.414062 14.0671L12.6105 22.7776L7.94465 36.8435L20.1411 28.1471L32.3235 36.8435L27.6717 22.7776L39.8529 14.0812Z" fill="#04DA8D"/>
<path d="M28.7171 25.9635L27.67 22.7788L20.1406 28.1482L28.7171 25.9635Z" fill="#126849"/>
</g>
<defs>
<clipPath id="clip0_6950_110138">
<rect width="164.706" height="40" fill="white" transform="translate(0.414062)"/>
</clipPath>
</defs>
</svg>
