<svg width="175" height="40" viewBox="0 0 175 40" fill="none" xmlns="http://www.w3.org/2000/svg">
<path d="M145.401 14.8136L140.413 14.2966V7.83517H136.09V10.2475C136.09 15.2443 138.002 16.9674 140.33 17.7427H136.09V23.6873C136.09 29.4595 138.833 31.7856 144.154 31.7856C149.474 31.7856 152.218 29.4595 152.218 23.6873V22.9119C152.301 16.0197 148.726 15.1582 145.401 14.8136ZM147.978 27.7365H140.413V17.8289C141.244 18.0874 142.159 18.2597 142.99 18.3458L147.978 19.1212V27.7365ZM158.203 7.83517C156.873 7.83517 155.959 8.78286 155.959 10.1613C155.959 11.5397 156.873 12.4874 158.203 12.4874C159.534 12.4874 160.448 11.5397 160.448 10.1613C160.531 8.78286 159.617 7.83517 158.203 7.83517ZM168.595 14.7274V10.6782H164.355C164.355 16.4505 167.099 18.7766 172.42 18.7766H174.165V14.7274H168.595ZM168.595 18.2597H164.355V23.6873C164.355 29.4595 167.099 31.7856 172.42 31.7856H174.165V27.7365H168.595V18.2597ZM156.125 31.7856H160.448V14.7274H156.125V31.7856Z" fill="#EABC4C"/>
<path d="M84.214 14.8148L79.226 14.2979V7.83643H74.9029V10.2487C74.9029 15.2456 76.8151 16.9686 79.1428 17.744H74.9029V31.7868H79.226V17.8301C80.0573 18.0886 80.9718 18.2609 81.8031 18.3471L86.7912 19.1224V31.7868H91.1142V22.9131C91.1142 16.0209 87.5393 15.1594 84.214 14.8148ZM66.257 27.7377H61.1028V14.7286H56.7798V23.6885C56.7798 29.4607 59.5232 31.7868 64.8439 31.7868H70.4969V14.7286H66.257V27.7377ZM51.7918 14.7286H47.4688V23.6885C47.4688 29.4607 50.2123 31.7868 55.5328 31.7868H57.2787V27.7377H51.7086V14.7286H51.7918ZM124.617 14.7286H116.553V16.8825C116.553 22.6547 119.297 24.9808 124.617 24.9808H132.681V22.8269C132.681 16.9686 129.938 14.7286 124.617 14.7286ZM128.441 21.2762H120.793V18.5194H128.358V21.2762H128.441ZM97.4324 7.83643C96.1022 7.83643 95.1877 8.7841 95.1877 10.1625C95.1877 11.541 96.1022 12.4887 97.4324 12.4887C98.7624 12.4887 99.6769 11.541 99.6769 10.1625C99.6769 8.7841 98.7624 7.83643 97.4324 7.83643ZM95.2709 31.7868H99.5938V14.7286H95.2709V31.7868ZM107.824 18.2609H103.501V23.6885C103.501 29.4607 106.244 31.7868 111.565 31.7868H113.311V27.7377H107.824V18.2609ZM107.824 10.6795H103.501C103.501 16.4517 106.244 18.7778 111.565 18.7778H113.311V14.7286H107.824V10.6795ZM120.793 24.3777H116.47C116.47 29.5469 119.213 31.7868 124.534 31.7868H131.767V27.7377H120.71V24.3777H120.793Z" fill="white"/>
<path d="M1.84092 13.8306C1.25241 14.9469 0.832031 16.2351 0.832031 17.5232H9.65969L13.2748 13.8306H1.84092Z" fill="white"/>
<path d="M16.9711 10.1383H8.05939C5.36905 10.1383 3.015 11.6841 1.75391 13.8309H13.2719L16.9711 10.1383Z" fill="white"/>
<path d="M42.1941 2.66666H33.2824C29.2469 2.66666 25.968 6.01576 25.968 10.1377H17.0563L24.3707 2.66666H15.4589C11.4234 2.66666 8.14453 6.01576 8.14453 10.1377V23.1048V23.1906C8.14453 30.6617 14.1137 36.673 21.344 36.673H34.7958V10.0519L42.1941 2.66666ZM25.3795 22.0743C24.2025 20.872 24.2025 18.8111 25.3795 17.6088L29.7512 22.0743C28.5742 23.3625 26.6405 23.3625 25.3795 22.0743Z" fill="white"/>
</svg>
