<svg width="95" height="40" viewBox="0 0 95 40" fill="none" xmlns="http://www.w3.org/2000/svg">
<g clip-path="url(#clip0_6950_129198)">
<path d="M31.2701 31.5151H22.7767L20.2313 19.897C20.1101 19.4097 19.9185 18.4424 19.6579 16.9964C19.435 15.7915 19.2439 14.581 19.0846 13.3661C18.9876 14.1564 18.8301 15.1394 18.6119 16.3115C18.3937 17.4861 18.1779 18.5648 17.9658 19.5503C17.7537 20.5345 16.8713 24.5236 15.3198 31.5151H6.82643L0.242188 4.84848H7.17188L10.064 18.2182C10.7185 21.1733 11.167 23.5261 11.4095 25.2776C11.567 24.0364 11.8495 22.3527 12.2555 20.2242C12.6616 18.097 13.0398 16.3333 13.3913 14.9345L15.7379 4.84848H22.3949L24.6689 14.9345C25.0567 16.5527 25.4507 18.4194 25.8507 20.5345C26.2507 22.6509 26.5173 24.2315 26.6507 25.2776C26.8082 23.9273 27.2385 21.5867 27.9416 18.2545L30.8882 4.84848H37.8179L31.2701 31.5151Z" fill="#EF4035"/>
<path d="M82.1066 31.5151H74.7611V10.7394H68.1211V4.84848H88.7272V10.7394H82.1066V31.5151Z" fill="#FF961B"/>
<path d="M70.2507 30.4102C72.3586 27.3233 73.5786 23.6284 73.5786 19.6498C73.5786 8.79478 64.476 0 53.2453 0C48.4195 0 43.9868 1.62116 40.503 4.3366C34.7555 14.3067 33.5084 31.187 49.9987 31.849C54.9329 32.0449 57.9016 29.782 59.291 26.6815C57.7321 28.4446 55.5904 29.5253 53.2181 29.5253C51.6389 29.5253 50.1614 29.0457 48.8871 28.2014C37.3853 24.1012 41.784 6.50489 53.6723 5.20121C67.5735 3.67462 74.663 18.0962 70.5828 29.4375C70.4879 29.7685 70.3795 30.0927 70.2507 30.4102Z" fill="url(#paint0_linear_6950_129198)"/>
<path fill-rule="evenodd" clip-rule="evenodd" d="M70.6021 29.4645C70.5072 29.7955 70.3988 30.1197 70.2768 30.4372C66.6506 35.7938 60.388 39.3333 53.2645 39.3333C51.1702 39.3333 49.1504 39.0294 47.2526 38.4552C54.2812 39.7454 61.7774 36.8678 65.3764 28.4581C69.8972 17.9003 59.6831 6.09284 50.689 10.3078C50.6822 10.3011 50.6686 10.3078 50.6619 10.3146C47.1374 11.5642 44.5754 15.2997 44.5754 19.7173C44.5754 23.3582 46.3173 26.5329 48.8996 28.2351C37.4045 24.1282 41.8033 6.53866 53.6848 5.23498C67.5928 3.70839 74.6755 18.1299 70.6021 29.4645Z" fill="url(#paint1_linear_6950_129198)"/>
<path fill-rule="evenodd" clip-rule="evenodd" d="M65.3554 28.4311C61.7564 36.8408 54.2602 39.7184 47.2316 38.4282C47.2248 38.4282 47.218 38.4282 47.2113 38.4214C47.2045 38.4282 47.1977 38.4214 47.1977 38.4214C38.922 35.9357 32.9102 28.4783 32.9102 19.6565C32.9102 13.4691 35.8653 7.95718 40.4877 4.36362C34.7469 14.3405 33.5202 31.1938 49.9902 31.8557C54.9244 32.0516 57.8863 29.7888 59.2893 26.6951C60.8753 24.9118 61.8648 22.4328 61.8648 19.6903C61.8648 16.3197 60.3805 13.3543 58.1099 11.5778C56.7137 10.4835 55.026 9.84853 53.2096 9.84853C52.3217 9.84853 51.4677 9.99714 50.6679 10.2808C59.662 6.07259 69.8762 17.8733 65.3554 28.4311Z" fill="url(#paint2_linear_6950_129198)"/>
</g>
<defs>
<linearGradient id="paint0_linear_6950_129198" x1="86.9715" y1="-3061.6" x2="56.1526" y2="-63.0678" gradientUnits="userSpaceOnUse">
<stop stop-color="#5CE379"/>
<stop offset="1" stop-color="#347A44"/>
</linearGradient>
<linearGradient id="paint1_linear_6950_129198" x1="-2604.13" y1="-1470.61" x2="-61.4526" y2="-33.0693" gradientUnits="userSpaceOnUse">
<stop stop-color="#347A44"/>
<stop offset="1" stop-color="#5CE379"/>
</linearGradient>
<linearGradient id="paint2_linear_6950_129198" x1="1988.77" y1="1965.59" x2="-1855.64" y2="-1913.27" gradientUnits="userSpaceOnUse">
<stop stop-color="#347A44"/>
<stop offset="1" stop-color="#5CE379"/>
</linearGradient>
<clipPath id="clip0_6950_129198">
<rect width="94.5454" height="40" fill="white" transform="translate(0.121094)"/>
</clipPath>
</defs>
</svg>
