<?xml version="1.0" encoding="utf-8"?>
<!-- Generator: Adobe Illustrator 26.3.1, SVG Export Plug-In . SVG Version: 6.00 Build 0)  -->
<svg version="1.1" id="Слой_1" xmlns="http://www.w3.org/2000/svg" xmlns:xlink="http://www.w3.org/1999/xlink" x="0px" y="0px"
	 viewBox="0 0 217 60" style="enable-background:new 0 0 217 60;" xml:space="preserve">
<style type="text/css">
	.st0{fill:url(#SVGID_1_);}
	.st1{fill:url(#SVGID_00000002367044317782870710000000945801481563671480_);}
	.st2{fill:#FFFFFF;}
	.st3{fill:#1F1F1F;}
</style>
<linearGradient id="SVGID_1_" gradientUnits="userSpaceOnUse" x1="0" y1="32.5" x2="217" y2="32.5" gradientTransform="matrix(1 0 0 -1 0 62)">
	<stop  offset="0" style="stop-color:#F4F4F4"/>
	<stop  offset="1" style="stop-color:#BFBFBF"/>
</linearGradient>
<path class="st0" d="M209.6,7H7.4C3.3,7,0,10.3,0,14.3v30.4c0,4,3.3,7.3,7.4,7.3h202.3c4.1,0,7.4-3.3,7.4-7.3V14.3
	C217,10.3,213.7,7,209.6,7z"/>
<linearGradient id="SVGID_00000061434453019543784080000008488679401128269246_" gradientUnits="userSpaceOnUse" x1="0" y1="32.5" x2="89" y2="32.5" gradientTransform="matrix(1 0 0 -1 0 62)">
	<stop  offset="0" style="stop-color:#4A4A4A"/>
	<stop  offset="1" style="stop-color:#171717"/>
</linearGradient>
<path style="fill:url(#SVGID_00000061434453019543784080000008488679401128269246_);" d="M89,7v45H7.4C3.3,52,0,48.7,0,44.7V14.3
	C0,10.3,3.3,7,7.4,7H89z"/>
<path class="st2" d="M10,17h9c5.5-0.1,7.2,2.9,7.2,6.4c0,3.1-0.8,4.6-2,5.1c1.7,0.8,2.8,2.5,2.8,6c0,4.8-2.3,7.6-8.1,7.6H10V17z
	 M18.2,26.6c2.6,0,3.1-0.5,3.1-2.6c0-1.8-0.6-2.3-2.8-2.3l-3.6,0l0,5H18.2z M14.7,37.1l3.8,0c2.9,0,3.5-0.7,3.5-2.9
	c0-2.4-0.6-3.2-3.9-3.2l-3.5,0V37.1z"/>
<path class="st2" d="M44.8,31.2l-10,0v5.9H46V42H30V17h15.7l0,4.7H34.8l0,4.9l10.1,0.1V31.2z"/>
<path class="st3" d="M208.8,31.2l-10,0v5.9H210V42h-16V17h15.7l0,4.7h-10.9l0,4.9l10.1,0.1V31.2z"/>
<path class="st2" d="M51.8,33c0.1,3.8,1.9,5.2,4.5,5.2c2.7,0,3.7-1.1,3.7-2.9c0-2.4-0.9-3.6-4.5-3.9c-4.4-0.4-7.6-2.3-7.8-7.9
	c-0.1-5.6,3.6-7.5,8.2-7.5c6.1-0.1,8.6,3.8,8.3,8.9l-4.8-0.1c0-2.8-1-4.2-3.6-4.2c-2.2,0-3.3,0.8-3.3,2.4c0,2,1.1,3,4.6,3.4
	c6.9,0.8,7.8,4.9,7.8,8.7c0,4.3-2.6,8-8.9,8c-5.3,0-9.2-2.3-9.1-10L51.8,33L51.8,33z"/>
<path class="st2" d="M71.9,21.8H66V17h16v4.9h-5.6V42h-4.5V21.8z"/>
<path class="st3" d="M112,32.9c-0.6,6.6-3.2,10.1-8.9,10.1c-7,0-9.1-6.2-9.1-13.7c0-7.5,2.8-13.3,9.3-13.3c6,0,8.6,4.1,8.6,9.2
	l-4.5,0c-0.3-2.4-1-4.5-4.1-4.5c-3.7,0-4.6,3.9-4.6,8.6c0,5,0.9,8.7,4.6,8.7c3,0,3.8-2.2,4.1-5.1L112,32.9L112,32.9z"/>
<path class="st3" d="M115,17h4.4v9.3h7.2V17h4.4v25h-4.6V31.1h-7V42H115V17z"/>
<path class="st3" d="M138.9,36.7l-1.3,5.3H133c0.3-1,6.3-23.9,6.5-25h4.7l6.8,25h-4.7l-1.3-5.3L138.9,36.7L138.9,36.7z M143.9,32.2
	c-1.2-5.1-1.4-5.6-1.8-7.9h-0.3c-0.5,2.8-0.8,3.6-1.8,7.9H143.9z"/>
<path class="st3" d="M153,42V17h4.7c3.4,7.6,5.9,11.5,7.5,15.1l0.1-15.1h4.7l-0.1,25h-4.7c-3.9-8.2-7.5-15.2-7.5-15.2
	c0.1,3.8,0.1,15.2,0.1,15.2H153L153,42z"/>
<path class="st3" d="M191,42.6h-3.7c-0.1-0.9,0.1-1.9,0-2.8c-1,2.6-3.4,3.2-5.9,3.2c-5.9,0-8.5-5.9-8.4-13.5
	c0.2-9.3,2.7-13.5,9.5-13.5c6.2,0,8.1,4.7,8.1,9.4l-4.5,0c-0.1-3-1.3-4.7-4-4.7c-3.5,0-4.6,3.1-4.6,9c0,5,1.1,8.2,4.5,8.2
	c3,0,4.3-1.4,4.3-4.7V33l-4.4,0v-4.7h9L191,42.6L191,42.6z"/>
</svg>
