<?xml version="1.0" encoding="utf-8"?>
<!-- Generator: Adobe Illustrator 26.3.1, SVG Export Plug-In . SVG Version: 6.00 Build 0)  -->
<svg version="1.1" id="Слой_1" xmlns="http://www.w3.org/2000/svg" xmlns:xlink="http://www.w3.org/1999/xlink" x="0px" y="0px"
	 viewBox="0 0 226 60" style="enable-background:new 0 0 226 60;" xml:space="preserve">
<style type="text/css">
	.st0{fill:#EDB60B;}
</style>
<path class="st0" d="M10.3,29.5l-5.1,5.1L0,29.5l5.1-5.1L10.3,29.5L10.3,29.5z M22.7,17.1l8.8,8.7l5.2-5.1L22.7,7L8.8,20.8l5.2,5.1
	L22.7,17.1L22.7,17.1z M40.3,24.4l-5.1,5.1l5.1,5.1l5.1-5.1L40.3,24.4z M22.7,41.9l-8.8-8.7l-5.2,5.1L22.7,52l13.9-13.8l-5.2-5.1
	L22.7,41.9L22.7,41.9z M22.7,34.6l5.1-5.1l-5.1-5.1l-5.1,5.1L22.7,34.6L22.7,34.6z M76.9,35.1L76.9,35.1c0-3.4-1.8-5.1-4.7-6.2
	c1.8-1,3.3-2.5,3.3-5.3v-0.1c0-3.9-3.2-6.4-8.2-6.4H55.7v24.7h11.9C73.2,41.9,76.9,39.6,76.9,35.1z M70,24.5c0,1.8-1.5,2.6-3.9,2.6
	H61v-5.2h5.4C68.8,21.9,70,22.8,70,24.5L70,24.5L70,24.5z M71.4,34.4c0,1.8-1.5,2.7-3.9,2.7H61v-5.4h6.3
	C70.2,31.7,71.4,32.7,71.4,34.4L71.4,34.4L71.4,34.4z M88.4,41.9V17.1h-5.5v24.7L88.4,41.9L88.4,41.9z M117.8,41.9V17.1h-5.4v15.2
	l-11.7-15.2h-5.1v24.7h5.4V26.2l12.1,15.7H117.8L117.8,41.9z M148.2,41.9L137.5,17h-5.1l-10.7,24.8h5.6l2.3-5.5h10.5l2.3,5.5H148.2
	L148.2,41.9z M138.2,31.5h-6.6l3.3-8L138.2,31.5L138.2,31.5z M174.3,41.9V17.1h-5.4v15.2l-11.7-15.2h-5.1v24.7h5.4V26.2l12.1,15.7
	H174.3L174.3,41.9z M202.6,37.9l-3.5-3.5c-2,1.8-3.7,2.9-6.6,2.9c-4.3,0-7.2-3.5-7.2-7.7v-0.1c0-4.2,3-7.7,7.2-7.7
	c2.5,0,4.4,1.1,6.4,2.8l3.5-4c-2.3-2.2-5.1-3.8-9.8-3.8c-7.6,0-13,5.8-13,12.7v0.1c0,7.1,5.5,12.7,12.8,12.7
	C197.2,42.2,200,40.6,202.6,37.9z M226,41.9V37h-13.5v-5.2h11.8V27h-11.8v-5h13.4v-4.8h-18.8v24.7L226,41.9L226,41.9z"/>
</svg>
