<?xml version="1.0" encoding="utf-8"?>
<!-- Generator: Adobe Illustrator 26.3.1, SVG Export Plug-In . SVG Version: 6.00 Build 0)  -->
<svg version="1.1" id="Слой_1" xmlns="http://www.w3.org/2000/svg" xmlns:xlink="http://www.w3.org/1999/xlink" x="0px" y="0px"
	 viewBox="0 0 203 60" style="enable-background:new 0 0 203 60;" xml:space="preserve">
<style type="text/css">
	.st0{fill:#FFFFFF;filter:url(#Adobe_OpacityMaskFilter);}
	.st1{mask:url(#mask0_14_2045_00000045601498208976878660000001685282603960896683_);}
	.st2{fill-rule:evenodd;clip-rule:evenodd;fill:#F5991C;}
	.st3{opacity:0.2;fill-rule:evenodd;clip-rule:evenodd;fill:#141414;enable-background:new    ;}
	.st4{fill-rule:evenodd;clip-rule:evenodd;fill:#1D1D1E;}
</style>
<defs>
	<filter id="Adobe_OpacityMaskFilter" filterUnits="userSpaceOnUse" x="0" y="4" width="203" height="52">
		<feColorMatrix  type="matrix" values="1 0 0 0 0  0 1 0 0 0  0 0 1 0 0  0 0 0 1 0"/>
	</filter>
</defs>
<mask maskUnits="userSpaceOnUse" x="0" y="4" width="203" height="52" id="mask0_14_2045_00000045601498208976878660000001685282603960896683_">
	<path class="st0" d="M203,0H0v60h203V0z"/>
</mask>
<g class="st1">
	<path class="st2" d="M22.8,27.1c1.1,0,2.3-0.3,3.2-0.8c0.8-0.5,1.3-1.2,1.3-2.4c0-1.1-0.8-2.1-2-2.4c-1.3-0.4-2.1-0.4-3.1-0.4
		s-2,0.1-2,0.1v6C20.3,27.1,21.7,27.1,22.8,27.1L22.8,27.1z"/>
	<path class="st2" d="M27.2,30.8c-0.5-0.3-1.9-0.7-3.3-0.8c-1.5-0.1-3.5,0-3.5,0v6.6h3.5c1.3-0.1,2.8-0.4,3.5-0.8
		c0.7-0.4,1.6-0.9,1.6-2.5C28.8,31.8,27.7,31.2,27.2,30.8L27.2,30.8z"/>
	<path class="st2" d="M45.3,7.3C30.5,2.9,14.8,2.9,0,7.3v25.2C0,42.4,8.7,51.4,22.7,56c14-4.6,22.7-13.8,22.7-23.6V7.3z M32.4,38.4
		c-1.9,1.3-3.9,1.5-4.7,1.6c-0.4,0-1.2,0.1-2,0.1v5h-3.1v-4.9h-2.4v4.9h-3.1v-4.9h-6l0.7-3.7h1.9c0.7,0,0.9,0,1.2-0.3
		c0.3-0.3,0.3-0.7,0.3-0.9V22.6c0-0.8,0-1.1-0.4-1.5c-0.4-0.4-1.2-0.4-1.7-0.4h-1.9v-3.2h6v-4.9h3.1v4.9h2.4v-4.9h3.1v5
		c2.3,0.1,4,0.5,5.5,1.7c1.9,1.5,1.9,3.8,1.7,4.5c0,0.5-0.3,1.7-0.8,2.4c-0.5,0.8-1.7,1.5-1.7,1.5s1.5,0.3,2.5,1.1
		c1.1,0.8,1.9,2.1,1.7,4.2C34.7,35.2,34.3,37.2,32.4,38.4L32.4,38.4z"/>
	<path class="st3" d="M21.5,4.1c2.3,0.3,23.6,4,23.6,30.6c0.1-0.7,0.1-1.5,0.1-2.1V7.4C37.6,5,29.5,4,21.5,4.1L21.5,4.1z"/>
	<path class="st2" d="M61,25.1c1,0,1.9,0.1,2.6,0.6c0.7,0.4,1.3,0.9,1.9,1.4c0.4,0.6,0.9,1.3,1.2,2.2C67,30.2,67,31,67,32
		c0,1.4-0.3,2.9-0.9,4.2c-0.6,1.3-1.3,2.4-2.2,3.5c-1,1-2,1.7-3.3,2.3c-1.3,0.6-2.6,0.9-4.2,0.9h-1c-0.4,0-1,0-1.6-0.1
		c-0.6-0.1-1.3-0.1-2-0.4c-0.7-0.1-1.3-0.4-2-0.7l5.5-23.2l4.9-0.7l-2,8.2c0.4-0.1,0.9-0.3,1.3-0.4C60.2,25.3,60.6,25.1,61,25.1
		L61,25.1z M57,38.8c0.7,0,1.5-0.1,2.2-0.6c0.7-0.4,1.3-0.9,1.7-1.4c0.4-0.6,0.9-1.3,1.2-2c0.3-0.7,0.4-1.6,0.4-2.5
		c0-1-0.1-1.9-0.6-2.4c-0.3-0.6-1-0.9-1.9-0.9c-0.3,0-0.7,0-1.2,0.1c-0.4,0.1-0.9,0.3-1.3,0.7l-2.2,8.8h1
		C56.5,38.7,56.7,38.8,57,38.8L57,38.8z"/>
	<path class="st2" d="M72.5,42.3h-4.8l4.1-16.9h4.8L72.5,42.3L72.5,42.3z M74.8,23.4c-0.7,0-1.3-0.1-1.7-0.6c-0.6-0.4-0.9-1-0.9-1.9
		c0-0.4,0.1-0.9,0.3-1.3c0.1-0.4,0.4-0.7,0.7-1c0.3-0.3,0.6-0.6,1-0.7c0.4-0.1,0.9-0.3,1.3-0.3c0.7,0,1.3,0.1,1.7,0.6
		c0.6,0.4,0.9,1,0.9,1.9c0,0.4-0.1,0.9-0.3,1.3c-0.1,0.4-0.4,0.7-0.7,1c-0.3,0.3-0.6,0.6-1,0.7C75.7,23.4,75.4,23.4,74.8,23.4
		L74.8,23.4z"/>
	<path class="st2" d="M81.2,21.4l4.9-0.7L85,25.5h5.4l-1,3.9h-5.2l-1.5,5.9c-0.1,0.4-0.1,1-0.3,1.4c-0.1,0.4,0,0.9,0.1,1.2
		s0.4,0.6,0.7,0.7c0.3,0.1,0.9,0.3,1.4,0.3c0.6,0,1,0,1.4-0.1c0.4-0.1,1-0.3,1.5-0.4l0.3,3.6c-0.6,0.3-1.3,0.4-2,0.6
		c-0.7,0.1-1.6,0.3-2.6,0.3c-1.5,0-2.6-0.3-3.5-0.7c-0.9-0.4-1.4-1-1.7-1.7c-0.3-0.7-0.4-1.6-0.4-2.6c0-1,0.1-2,0.4-3L81.2,21.4
		L81.2,21.4z"/>
	<path class="st2" d="M96.5,39c1.2,0,1.9-0.1,2.3-0.4c0.4-0.3,0.6-0.6,0.6-1c0-0.3,0-0.4-0.1-0.6c-0.1-0.1-0.1-0.3-0.4-0.4
		c-0.1-0.1-0.4-0.3-0.7-0.4c-0.3-0.1-0.7-0.3-1.2-0.6c-0.6-0.3-1-0.4-1.5-0.7c-0.4-0.3-0.9-0.6-1.3-1c-0.3-0.4-0.6-0.9-0.9-1.3
		c-0.1-0.4-0.3-1-0.3-1.7c0-1.7,0.6-3,1.9-4c1.3-1,3.2-1.4,5.5-1.4c1.2,0,2.2,0.1,3,0.4c0.9,0.3,1.6,0.6,2.2,0.9l-1.6,3.6
		c-0.4-0.3-1-0.4-1.7-0.7c-0.7-0.1-1.5-0.3-2-0.3h-0.9c-0.3,0-0.6,0.1-0.9,0.1c-0.3,0.1-0.4,0.3-0.6,0.4c-0.1,0.1-0.3,0.4-0.3,0.7
		c0,0.4,0.1,0.7,0.4,1c0.3,0.1,0.9,0.4,1.4,0.7c0.9,0.4,1.6,0.7,2,1.2c0.6,0.3,1,0.7,1.3,1.2c0.3,0.4,0.6,0.9,0.7,1.3
		c0.1,0.4,0.3,1,0.3,1.7c0,0.7-0.1,1.3-0.4,2c-0.3,0.7-0.7,1.3-1.3,1.7c-0.6,0.6-1.5,0.9-2.3,1.3c-1,0.3-2.2,0.4-3.5,0.4
		c-0.9,0-1.6,0-2.3-0.1c-0.7-0.1-1.3-0.3-1.7-0.4c-0.6-0.1-1-0.3-1.3-0.4c-0.3-0.1-0.6-0.3-0.9-0.4l1.6-3.6c0.4,0.1,0.9,0.4,1.7,0.9
		C94.4,38.8,95.4,39,96.5,39z"/>
	<path class="st4" d="M118.4,26.3c0.4-0.1,0.7-0.3,1.2-0.4c0.4-0.1,0.9-0.3,1.4-0.4c0.6-0.1,1.2-0.1,1.7-0.3
		c0.7-0.1,1.5-0.1,2.3-0.1c1,0,1.9,0.1,2.6,0.4c0.7,0.3,1.3,0.6,1.9,1.2c0.7-0.4,1.6-0.9,2.3-1.2c0.7-0.3,1.7-0.4,2.8-0.4
		c1,0,1.9,0.1,2.6,0.4c0.7,0.3,1.3,0.7,1.7,1.2c0.4,0.4,0.9,1.2,1,1.7c0.1,0.7,0.3,1.4,0.3,2.3c0,0.4,0,0.7-0.1,1.2
		c0,0.4-0.1,0.9-0.3,1.3l-2.2,9.1h-4.8l2.2-8.9c0-0.3,0.1-0.6,0.1-1c0.1-0.4,0.1-0.7,0.1-1.2c0-0.6-0.1-1.2-0.4-1.6
		c-0.3-0.4-0.9-0.7-1.6-0.7c-0.4,0-0.9,0.1-1.3,0.3c-0.4,0.1-0.7,0.3-1.2,0.4v0.9c0,0.4,0,0.7-0.1,1.2c-0.1,0.4-0.1,0.9-0.3,1.3
		l-2.2,9.1h-4.8l2.2-8.9c0-0.3,0.1-0.6,0.1-1c0.1-0.4,0.1-0.7,0.1-1.2c0-0.6-0.1-1.2-0.4-1.6c-0.3-0.4-0.9-0.7-1.6-0.7H123
		c-0.3,0-0.6,0.1-0.9,0.1l-3.1,13h-4.8L118.4,26.3L118.4,26.3z"/>
	<path class="st4" d="M142.1,35.8c0-1.3,0.3-2.7,0.7-3.9c0.4-1.3,1.2-2.5,2-3.5c0.9-1,1.9-1.7,3.2-2.5c1.3-0.6,2.6-0.9,4.2-0.9
		c0.7,0,1.4,0.1,2,0.3c0.6,0.1,1.2,0.6,1.7,0.9c0.4,0.4,0.9,0.9,1.2,1.4c0.3,0.6,0.4,1.3,0.4,2c0,1.2-0.3,2.2-0.9,3
		c-0.6,0.9-1.3,1.4-2.2,2c-1,0.6-2,0.9-3.3,1.2c-1.3,0.3-2.8,0.3-4.2,0.3c0.1,0.9,0.4,1.6,1,1.9c0.4,0.4,1.3,0.6,2.5,0.6
		c0.7,0,1.4,0,2-0.1c0.7-0.1,1.3-0.3,2-0.6l0.3,3.7c-0.6,0.3-1.3,0.4-2.3,0.6c-0.9,0.1-1.9,0.3-3,0.3c-1.3,0-2.5-0.1-3.3-0.6
		c-0.9-0.4-1.6-0.9-2.2-1.6c-0.6-0.6-1-1.4-1.3-2.3C142.2,37.7,142,36.7,142.1,35.8L142.1,35.8z M151.5,28.9c-1.2,0-2,0.4-2.9,1.2
		c-0.9,0.7-1.3,1.9-1.6,3c1.3,0,2.5-0.1,3.2-0.3c0.9-0.1,1.4-0.4,1.9-0.7c0.4-0.3,0.7-0.6,0.9-0.9c0.1-0.3,0.3-0.6,0.3-0.9
		C153.2,29.3,152.6,28.9,151.5,28.9z"/>
	<path class="st4" d="M164.4,42.7c-1,0-2-0.1-2.8-0.6c-0.7-0.4-1.4-0.9-1.9-1.4c-0.4-0.6-0.9-1.3-1-2.2c-0.3-0.9-0.3-1.7-0.3-2.7
		c0-1.4,0.3-2.9,0.7-4c0.6-1.3,1.3-2.4,2.2-3.3c0.9-1,2-1.7,3.3-2.3c1.3-0.6,2.6-0.9,4.2-0.9h1c0.3,0,0.7,0.1,1,0.1l1.7-7.2l4.9-0.7
		l-4.2,17.6c-0.3,1.2-0.4,2.4-0.3,3.6c0.1,1.2,0.4,2.3,0.7,3.3l-4.2,0.6c-0.1-0.3-0.3-0.4-0.3-0.7c-0.1-0.3-0.1-0.4-0.3-0.9
		c-0.6,0.4-1.3,0.9-2,1.2C166.2,42.6,165.4,42.7,164.4,42.7L164.4,42.7z M170.1,29.3h-1.6c-0.7,0-1.5,0.1-2,0.6
		c-0.6,0.3-1.2,0.9-1.6,1.4c-0.4,0.6-0.9,1.3-1,2c-0.3,0.7-0.4,1.6-0.4,2.3c0,1,0.1,1.9,0.6,2.4c0.3,0.6,1,0.9,1.9,0.9
		c0.4,0,0.9-0.1,1.3-0.3c0.4-0.1,0.9-0.6,1.3-1c0-0.6,0.1-1.2,0.1-1.7c0.1-0.6,0.1-1.2,0.3-1.6L170.1,29.3L170.1,29.3z"/>
	<path class="st4" d="M181,42.3h-4.8l4.1-16.9h4.8L181,42.3z M183.3,23.4c-0.7,0-1.3-0.1-1.7-0.6c-0.6-0.4-0.9-1-0.9-1.9
		c0-0.4,0.1-0.9,0.3-1.3c0.1-0.4,0.4-0.7,0.7-1c0.3-0.3,0.6-0.6,1-0.7c0.4-0.1,0.9-0.3,1.3-0.3c0.7,0,1.3,0.1,1.7,0.6
		c0.6,0.4,0.9,1,0.9,1.9c0,0.4-0.1,0.9-0.3,1.3c-0.1,0.4-0.4,0.7-0.7,1c-0.3,0.3-0.6,0.6-1,0.7C184.2,23.4,183.7,23.4,183.3,23.4z"
		/>
	<path class="st4" d="M200.8,35.1c-0.3,1.2-0.4,2.5-0.3,3.6c0.1,1.2,0.4,2.3,0.7,3.3l-4.2,0.6c-0.1-0.3-0.3-0.4-0.3-0.7
		c-0.1-0.3-0.1-0.4-0.3-0.9c-0.6,0.4-1.3,0.9-2,1.2c-0.7,0.3-1.6,0.4-2.5,0.4c-1,0-2-0.1-2.8-0.6c-0.7-0.4-1.5-0.9-1.9-1.4
		c-0.4-0.6-0.9-1.3-1-2.2c-0.1-0.9-0.3-1.7-0.3-2.7c0-1.4,0.3-2.9,0.7-4.2c0.6-1.3,1.3-2.4,2.2-3.5c0.9-1,2-1.7,3.3-2.3
		c1.3-0.6,2.6-0.9,4.1-0.9h1c0.4,0,1,0,1.6,0.1c0.6,0.1,1.3,0.1,2,0.4c0.7,0.1,1.3,0.4,2,0.7L200.8,35.1L200.8,35.1z M197.5,29.2
		c-0.3,0-0.6-0.1-0.7-0.1h-0.9c-0.7,0-1.5,0.1-2,0.6c-0.6,0.4-1.2,0.9-1.6,1.4c-0.4,0.6-0.9,1.3-1.2,2c-0.3,0.7-0.4,1.6-0.4,2.4
		c0,1,0.1,1.9,0.6,2.4c0.4,0.6,1,0.9,1.9,0.9c0.4,0,0.9-0.1,1.3-0.3c0.4-0.1,0.9-0.6,1.3-1c0-0.6,0.1-1.2,0.1-1.7
		c0.1-0.6,0.1-1.2,0.3-1.6L197.5,29.2L197.5,29.2z"/>
	<path class="st4" d="M109.2,42.3c-0.7,0-1.3-0.1-1.7-0.6c-0.6-0.4-0.9-1-0.9-1.9c0-0.4,0.1-0.9,0.3-1.3c0.1-0.4,0.4-0.7,0.7-1
		c0.3-0.3,0.6-0.6,1-0.7c0.4-0.1,0.9-0.3,1.3-0.3c0.7,0,1.3,0.1,1.7,0.6c0.6,0.4,0.9,1,0.9,1.9c0,0.4-0.1,0.9-0.3,1.3
		c-0.1,0.4-0.4,0.7-0.7,1c-0.3,0.3-0.6,0.6-1,0.7C110.1,42.3,109.7,42.3,109.2,42.3L109.2,42.3z"/>
</g>
</svg>
