<?xml version="1.0" encoding="utf-8"?>
<!-- Generator: Adobe Illustrator 26.3.1, SVG Export Plug-In . SVG Version: 6.00 Build 0)  -->
<svg version="1.1" id="Слой_1" xmlns="http://www.w3.org/2000/svg" xmlns:xlink="http://www.w3.org/1999/xlink" x="0px" y="0px"
	 viewBox="0 0 233 60" style="enable-background:new 0 0 233 60;" xml:space="preserve">
<style type="text/css">
	.st0{fill:#83AAF2;}
	.st1{fill:#F06C65;}
</style>
<path d="M107.3,22.1L107.3,22.1L107.3,22.1L107.3,22.1z"/>
<path d="M136.8,7.4c-0.5-0.2-0.9-0.6-1.2-1l0.1-0.1L136.8,7.4z"/>
<path d="M145.8,8.1L145.8,8.1L145.8,8.1L145.8,8.1z"/>
<path d="M110.9,23.5L110.9,23.5L110.9,23.5L110.9,23.5z"/>
<path d="M122.6,16.8L122.6,16.8L122.6,16.8L122.6,16.8z"/>
<path d="M143.2,25.3l-1.5,1.5l-0.6-0.6c0.4-0.6,0.9-1.1,1.6-1.4L143.2,25.3L143.2,25.3z"/>
<path d="M145.8,8.1L145.8,8.1L145.8,8.1L145.8,8.1z"/>
<path d="M165.3,24.9L165.3,24.9L165.3,24.9L165.3,24.9z"/>
<path d="M176.2,14L176.2,14c-0.7-0.3-1.2-0.8-1.5-1.5l0,0L176.2,14z"/>
<path d="M14.6,49.6V54c0,4.2-2.7,5.9-7.2,5.9H7.2C2.7,59.9,0,58.2,0,54V37.2c0-4,2.7-5.9,7.2-5.9h0.1c4.5,0,7.2,1.9,7.2,5.9v3.7
	c0,0.8-0.5,1.3-1.4,1.3H12c-0.9,0-1.4-0.5-1.4-1.3V38c0-2.4-1.1-3.3-3.3-3.3C5.1,34.7,4,35.5,4,38v15.3c0,2.4,1.1,3.3,3.3,3.3
	c2.2,0,3.3-0.9,3.3-3.3v-3.6c0-0.8,0.5-1.3,1.4-1.3h1.2C14.1,48.3,14.6,48.8,14.6,49.6L14.6,49.6z"/>
<path d="M33,59.6h-1.2c-0.8,0-1.3-0.3-1.6-1.1l-3.8-10.4H23v10.1c0,0.8-0.5,1.3-1.4,1.3h-1.2c-0.9,0-1.4-0.5-1.4-1.3V33
	c0-0.8,0.5-1.3,1.4-1.3h6.1c4.5,0,7.2,1.8,7.2,5.9v4.7c0,2.8-1.3,4.5-3.5,5.3l4,10.5C34.5,58.9,34.1,59.6,33,59.6L33,59.6z M23,44.9
	h3.3c2.2,0,3.4-0.8,3.4-3.3v-3.3c0-2.5-1.2-3.3-3.4-3.3H23V44.9L23,44.9z"/>
<path d="M46,58.2c0,0.8-0.5,1.3-1.4,1.3h-1.2c-0.9,0-1.4-0.5-1.4-1.3v-9l-5.7-16.1c-0.3-0.9,0.1-1.5,1.2-1.5h1.3
	c0.9,0,1.4,0.4,1.6,1.2L44,45.1l3.8-12.3c0.2-0.8,0.7-1.2,1.5-1.2h1.2c1,0,1.5,0.6,1.2,1.5L46,49.3L46,58.2L46,58.2z"/>
<path d="M62.7,31.6h-6.1c-0.9,0-1.4,0.5-1.4,1.3v25.3c0,0.8,0.5,1.3,1.4,1.3h1.2c0.9,0,1.4-0.5,1.4-1.3V34.9h3.3
	c2.2,0,3.4,0.8,3.4,3.3v3.5c0,2.4-1.2,3.3-3.4,3.3c-0.8,0-1.4,0.6-1.4,1.4V47c0,0.8,0.6,1.4,1.4,1.4h0.2c4.5,0,7.2-1.8,7.2-5.9v-5
	C69.9,33.4,67.2,31.6,62.7,31.6z"/>
<path d="M85.8,33v0.7c0,0.9-0.5,1.3-1.4,1.3h-3.8v23.3c0,0.8-0.5,1.3-1.4,1.3H78c-0.9,0-1.4-0.5-1.4-1.3V35h-3.8
	c-0.9,0-1.4-0.4-1.4-1.3V33c0-0.8,0.5-1.3,1.4-1.3h11.6C85.3,31.7,85.8,32.1,85.8,33L85.8,33z"/>
<path d="M95.5,31.3h0.3c4.5,0,7.2,1.8,7.2,5.9V54c0,4.1-2.7,5.9-7.2,5.9h-0.3c-4.5,0-7.2-1.8-7.2-5.9V37.2
	C88.2,33.1,91,31.3,95.5,31.3z M95.6,56.6c2.2,0,3.4-0.8,3.4-3.3V38c0-2.5-1.2-3.3-3.4-3.3c-2.2,0-3.4,0.8-3.4,3.3v15.3
	C92.2,55.7,93.4,56.6,95.6,56.6z"/>
<path d="M142.4,57.9l-4-10.4c2.2-0.8,3.5-2.5,3.5-5.3v-4.6c0-4.1-2.7-5.9-7.2-5.9h-6.1c-0.9,0-1.4,0.5-1.4,1.3v25.2
	c0,0.8,0.5,1.3,1.4,1.3h1.2c0.9,0,1.4-0.5,1.4-1.3V48.1h3.5l3.8,10.3c0.3,0.8,0.8,1.1,1.6,1.1h1.2C142.2,59.5,142.7,58.8,142.4,57.9
	L142.4,57.9z M137.9,41.5c0,2.5-1.2,3.3-3.4,3.3h-3.3V35h3.3c2.2,0,3.4,0.8,3.4,3.3V41.5z"/>
<path d="M153.2,31.3h-0.3c-4.5,0-7.2,1.7-7.2,5.9v16.7c0,4.1,2.7,5.9,7.2,5.9h0.3c4.5,0,7.2-1.8,7.2-5.9V37.2
	C160.4,33.1,157.7,31.3,153.2,31.3z M156.4,53.2c0,2.5-1.2,3.3-3.4,3.3c-2.2,0-3.4-0.8-3.4-3.3V37.9c0-2.5,1.2-3.3,3.4-3.3
	c2.2,0,3.4,0.8,3.4,3.3V53.2z"/>
<path d="M180.7,58.1l-5.5-12.3c-0.3-0.7-0.3-1.5,0-2.2l4.7-10.2c0.5-0.9,0.1-1.5-1-1.5h-1.4c-0.8,0-1.3,0.3-1.6,1l-4.4,10.9
	c-0.1,0.4-0.2,0.7-0.2,1.1v0.7c0,0.3,0.1,0.7,0.2,1l5.3,12.1c0.3,0.8,0.8,1.1,1.6,1.1h1.2C180.5,59.6,181,59,180.7,58.1L180.7,58.1z
	 M168,31.8h-1.2c-0.9,0-1.4,0.5-1.4,1.3v25.2c0,0.8,0.5,1.3,1.4,1.3h1.2c0.9,0,1.4-0.5,1.4-1.3V33.1C169.4,32.3,168.9,31.8,168,31.8
	z"/>
<path d="M195,56.2h-7.3V47h5.8c0.9,0,1.4-0.5,1.4-1.3V45c0-0.8-0.5-1.3-1.4-1.3h-5.8v-8.7h7.2c0.9,0,1.4-0.4,1.4-1.3V33
	c0-0.8-0.5-1.3-1.4-1.3h-9.8c-0.9,0-1.4,0.5-1.4,1.3v25.2c0,0.8,0.5,1.3,1.4,1.3h9.9c0.9,0,1.4-0.5,1.4-1.3v-0.7
	C196.4,56.6,196,56.2,195,56.2L195,56.2z"/>
<path d="M215.2,57.9l-4-10.4c2.2-0.8,3.5-2.5,3.5-5.3v-4.6c0-4.1-2.7-5.9-7.2-5.9h-6.1c-0.9,0-1.4,0.5-1.4,1.3v25.2
	c0,0.8,0.5,1.3,1.4,1.3h1.2c0.9,0,1.4-0.5,1.4-1.3V48.1h3.5l3.8,10.3c0.3,0.8,0.8,1.1,1.6,1.1h1.2C215,59.5,215.5,58.8,215.2,57.9
	L215.2,57.9z M210.7,41.5c0,2.5-1.2,3.3-3.4,3.3H204V35h3.3c2.2,0,3.4,0.8,3.4,3.3V41.5z"/>
<path d="M228.6,44.8l-3.9-2c-1.7-0.9-2.3-1.5-2.3-3.2v-1.9c0-2.2,1.2-3.1,3.2-3.1s3.2,0.9,3.2,3.1v2.5c0,0.8,0.5,1.3,1.4,1.3h1.1
	c0.9,0,1.4-0.5,1.4-1.3v-3.1c0-4-3-5.7-7.1-5.7h-0.1c-4.1,0-7.1,1.7-7.1,5.7v3.5c0,2.7,1.4,3.9,4.2,5.3l3.8,2
	c1.7,0.9,2.4,1.6,2.4,3.3v2.2c0,2.2-1.2,3.2-3.2,3.2c-2.1,0-3.2-1-3.2-3.2v-2.8c0-0.8-0.5-1.3-1.4-1.3h-1.1c-0.9,0-1.4,0.5-1.4,1.3
	V54c0,4.2,2.6,5.8,7.1,5.8h0.1c4.5,0,7.1-1.6,7.1-5.8v-3.9C232.8,47.5,231.1,46.1,228.6,44.8L228.6,44.8z"/>
<path class="st0" d="M138.4,5.5c0.6,0,1.1-0.5,1.1-1.1s-0.5-1.1-1.1-1.1c-0.6,0-1.1,0.5-1.1,1.1S137.8,5.5,138.4,5.5z"/>
<path class="st0" d="M161.7,17.1c0.6,0,1.1-0.5,1.1-1.1c0-0.6-0.5-1.1-1.1-1.1s-1.1,0.5-1.1,1.1C160.6,16.6,161.1,17.1,161.7,17.1z"
	/>
<path class="st0" d="M177.7,12.2c0.6,0,1.1-0.5,1.1-1.1c0-0.6-0.5-1.1-1.1-1.1c-0.6,0-1.1,0.5-1.1,1.1
	C176.6,11.7,177.1,12.2,177.7,12.2z"/>
<path class="st0" d="M143.9,29c0.6,0,1.1-0.5,1.1-1.1s-0.5-1.1-1.1-1.1c-0.6,0-1.1,0.5-1.1,1.1S143.3,29,143.9,29z"/>
<path class="st1" d="M177.7,6.7c-2.4,0-4.4,2-4.4,4.4c0,0.7,0.2,1.4,0.5,2c0.1,0.1,0.1,0.2,0.2,0.3l-9.5,9.5h-9.1l-6-6l0,0v0h-26.7
	l-8,8l0,0h0v5.3H113v-5.8l9-9h19.4l5.3-5.3h7.9l3.4,3.4c-0.5,0.7-0.7,1.5-0.7,2.4c0,2.4,2,4.4,4.4,4.4c2.4,0,4.4-2,4.4-4.4
	c0-2.4-2-4.4-4.4-4.4c-0.8,0-1.5,0.2-2.2,0.6l0,0l-4.1-4.1h-9.7l0,0l-5.2,5.2h-19.5v0l-10.2,10.2l0,0v6.6h-1.6V23l11.1-11.1h12.7v0
	l0,0l3.4-3.4c0.6,0.3,1.2,0.4,1.8,0.4c2.4,0,4.4-2,4.4-4.4s-2-4.4-4.4-4.4c-2.4,0-4.4,2-4.4,4.4c0,0.9,0.3,1.8,0.8,2.6
	c0,0,0.1,0.1,0.1,0.1l-2.6,2.6h-12.7l-12.3,12.3v12.2h0.1v24.3c0,0.9,0.5,1.4,1.4,1.4h6.1c4.5,0,7.2-2.3,7.2-5.9v-4.9
	c0-2.2-0.8-4.3-3.5-4.7c2.5-0.3,3.3-2.6,3.3-4.7v-3.8c0-1.5-0.4-2.7-1.2-3.7v-5.2l4.5-4.5h12.4l2.8,2.8c-0.1,0.1-0.1,0.2-0.1,0.2
	c-0.4,0.7-0.6,1.5-0.6,2.3c0,2.4,2,4.4,4.4,4.4c2.4,0,4.4-2,4.4-4.4s-2-4.4-4.4-4.4c-0.6,0-1.2,0.1-1.7,0.3
	c-0.1,0.1-0.3,0.1-0.4,0.2l-3.5-3.5h-14.1l-5.7,5.7l0,0h-0.1v4.5c-0.5-0.2-1.1-0.4-1.7-0.5v-4.6l6.8-6.8h24.7l5.9,6l0.4,0h10.9
	l10.1-10.1c0.1,0.1,0.2,0.1,0.3,0.2c0.6,0.3,1.3,0.5,2,0.5c2.4,0,4.4-2,4.4-4.4C182.1,8.6,180.1,6.7,177.7,6.7L177.7,6.7z
	 M161.7,13.8c1.2,0,2.3,1,2.3,2.3c0,1.2-1,2.3-2.3,2.3c-1.2,0-2.3-1-2.3-2.3C159.5,14.8,160.5,13.8,161.7,13.8z M138.4,2.2
	c1.2,0,2.3,1,2.3,2.3s-1,2.3-2.3,2.3c-0.4,0-0.7-0.1-1-0.2c-0.3-0.2-0.6-0.4-0.8-0.7c-0.3-0.4-0.4-0.8-0.4-1.3
	C136.1,3.2,137.1,2.2,138.4,2.2L138.4,2.2z M142,26.7c0.3-0.4,0.6-0.7,1.1-0.9c0.3-0.1,0.6-0.2,0.9-0.2c1.2,0,2.3,1,2.3,2.3
	s-1,2.3-2.3,2.3c-1.2,0-2.3-1-2.3-2.3C141.6,27.5,141.8,27.1,142,26.7L142,26.7z M117.9,53.4c0,2.1-1,3.1-3,3.1h-3.6V46.3h3.6
	c1.9,0,3,0.9,3,2.7V53.4z M117.8,36.7v3.5c0,1.8-1.1,2.7-3,2.7h-3.5v-9.2h3.5c0.8,0,1.5,0.2,2,0.5C117.4,34.6,117.8,35.5,117.8,36.7
	z M177.7,13.3c-0.4,0-0.7-0.1-1-0.2c-0.4-0.2-0.8-0.6-1-1c-0.2-0.3-0.2-0.7-0.2-1c0-1.2,1-2.3,2.3-2.3c1.2,0,2.3,1,2.3,2.3
	C180,12.3,178.9,13.3,177.7,13.3L177.7,13.3z"/>
</svg>
