<?xml version="1.0" encoding="utf-8"?>
<!-- Generator: Adobe Illustrator 26.3.1, SVG Export Plug-In . SVG Version: 6.00 Build 0)  -->
<svg version="1.1" id="Слой_1" xmlns="http://www.w3.org/2000/svg" xmlns:xlink="http://www.w3.org/1999/xlink" x="0px" y="0px"
	 viewBox="0 0 147 60" style="enable-background:new 0 0 147 60;" xml:space="preserve">
<style type="text/css">
	.st0{fill-rule:evenodd;clip-rule:evenodd;}
</style>
<path class="st0" d="M35.7,21.1c1.5,0.1,3-0.2,4.3-0.9c1.3-0.7,2.5-1.7,3.3-3c1-1.5,1.5-3.2,1.4-5c-0.1-1-0.4-1.4-1-1.1
	c-1.4,0.8-2.9,1.2-4.5,1.4c-1.7,0.2-3.4,0.3-5.1,0.2c-1.5-0.1-3.7-0.3-6.8-0.5c-3.1-0.3-5.2-0.4-6.3-0.5c-0.8-0.1-1.6-0.1-2.4-0.1
	c-0.7,0-2,0-3.7,0.1c-1.6,0.1-3.1,0.3-4.6,0.6c-1.5,0.4-3,0.9-4.3,1.6c-1.4,0.7-2.7,1.6-3.7,2.8C1,18.2,0.1,20.2,0,22.3
	c-0.1,1,0,1.9,0.4,2.8c0.4,0.9,1,1.7,1.7,2.3c1.2,0.9,2.7,1.4,4.2,1.4c1.4,0,2.8-0.2,4.1-0.8c1-0.4,1.9-1,2.7-1.7
	c0.4-0.4,0.7-0.8,1-1.3c0.1-0.1,0.1-0.2,0.1-0.3c0-0.1,0-0.2-0.1-0.3c-0.2-0.2-0.4-0.4-0.7-0.6c-0.3-0.2-0.5-0.5-0.7-0.8
	c-0.3-0.5-0.4-1-0.3-1.5c0.1-0.7,0.3-1.5,0.7-2.1c0.5-0.8,1.2-1.4,2-1.8c1-0.5,2.2-0.8,3.4-0.7h0L13,34.3c-1.1,3.4-1,6.3,0.3,8.7
	c1.3,2.4,3.8,3.7,7.5,3.8c1.8,0.1,3.6-0.1,5.4-0.7c1.6-0.5,3-1.2,4.3-2.2c1-0.8,2-1.7,2.9-2.6c0.6-0.7,1.2-1.4,1.6-2.3
	c0.1-0.2,0.2-0.4,0.3-0.6c0-0.2,0-0.4,0-0.6c-0.1-0.2-0.4-0.2-1,0.1c-1.7,0.9-3.5,1.5-5.4,1.7c-1.6,0.3-3.3,0-4.8-0.7
	c-1.3-0.7-1.6-2-1.1-3.7c0,0,0.4-1.1,1.1-3.3h7.6c0.1,0,0.1,0,0.2,0c0.1,0,0.1-0.1,0.1-0.2l1.5-4.6l0-0.1l-0.2-0.1h-7.6
	c0.2-0.5,0.6-1.7,1.2-3.6c0.6-1.8,1-3.1,1.2-3.8C30.5,20.4,33.1,20.9,35.7,21.1L35.7,21.1z M52.7,32.5
	C52.7,32.5,52.7,32.4,52.7,32.5c0-0.1,0-0.1,0-0.1c0,0,0,0,0,0c0,0,0,0-0.1,0H39c-0.1,0-0.1,0-0.2,0.1c-0.1,0-0.1,0.1-0.1,0.2
	l-1.3,3.9l0.2,0.2h13.7c0,0,0.1,0,0.1,0c0,0,0.1-0.1,0.1-0.1L52.7,32.5L52.7,32.5z M90.6,36.8l2.3-7.2c0.7-2.2,0.7-4.1-0.1-5.5
	c-0.4-0.7-0.9-1.2-1.6-1.6c-0.7-0.4-1.5-0.5-2.2-0.5c-1.6,0.1-3.2,0.5-4.5,1.3c-1.8,1-3.4,2.4-4.7,4.1c0.1-0.7,0.1-1.4-0.1-2.1
	c-0.2-0.7-0.5-1.3-0.9-1.9c-0.4-0.5-0.9-0.9-1.5-1.1C76.6,22.1,76,22,75.4,22c-1.6,0.1-3.1,0.5-4.5,1.3c-1.8,1-3.4,2.4-4.6,4
	c0.1-0.7,0.1-1.4,0-2c-0.2-0.7-0.5-1.3-0.9-1.8c-0.5-0.5-1-0.9-1.7-1.1c-0.6-0.2-1.3-0.3-2-0.3c-1.3,0-2.7,0.4-3.8,1
	c-1.1,0.5-2,1.3-2.7,2.2c0,0-0.1,0.1-0.1,0.1c0,0.1,0,0.1,0,0.2c0,0.1,0,0.1,0,0.2c0,0,0.1,0.1,0.1,0.1c0.2,0.2,0.4,0.4,0.8,0.6
	c0.2,0.2,0.3,0.5,0.4,0.8c0.1,0.3,0.1,0.6,0,0.9c-0.1,1.4-0.4,2.7-0.8,4c-0.7,2.1-2.2,6.7-4.6,13.6l0,0.1l0.1,0.1h9.2
	c0.1,0,0.1-0.1,0.2-0.1c0,0,0.1-0.1,0.1-0.2l3.9-12.3c0.4-1.3,1-2.5,1.9-3.5c1-1.2,1.9-1.7,2.7-1.6c0.9,0.2,1,1,0.5,2.7
	c-0.5,1.6-0.8,2.6-1,3.3c-0.7,2-1.9,5.8-3.6,11.5c0,0,0,0,0,0c0,0,0,0,0,0c0,0,0,0,0,0c0,0,0,0,0,0l0.1,0.1h9.2
	c0.1,0,0.1-0.1,0.2-0.1c0,0,0.1-0.1,0.1-0.2l3.3-11.5l0.2-0.8c0.4-1.3,1-2.5,1.9-3.5c1-1.2,1.9-1.7,2.7-1.6c0.9,0.2,1,1,0.5,2.7
	L80.3,40c-0.7,2.1-0.5,3.8,0.4,5.1c0.5,0.6,1.1,1.2,1.9,1.5c0.7,0.3,1.5,0.5,2.3,0.4c1.3,0,2.7-0.4,3.8-1c1.1-0.5,2-1.2,2.7-2.2
	c0.1-0.1,0.1-0.2,0.1-0.2c0-0.1,0-0.2-0.1-0.3c-0.2-0.2-0.4-0.3-0.6-0.4c-0.3-0.2-0.6-0.5-0.7-0.8c-0.2-0.6-0.3-1.2-0.3-1.8
	C89.9,39,90.2,37.9,90.6,36.8L90.6,36.8z M119.3,35.5c1.1-3.5,0.8-6.5-0.8-9s-4.3-4-7.9-4.3c-3.6-0.2-7.2,0.8-10.2,3
	c-3,2-5.3,5-6.4,8.5c-1.1,3.5-0.8,6.5,0.8,9c1.7,2.6,4.3,4,7.9,4.3c3.7,0.3,7.3-0.8,10.2-3C115.9,41.9,118.1,38.9,119.3,35.5
	L119.3,35.5z M102.8,34.3c0.6-1.9,1.4-3.6,2.6-5.1c0.4-0.6,0.9-1,1.5-1.4c0.6-0.3,1.3-0.5,2-0.5c0.6,0,1.1,0.3,1.5,0.7
	c0.4,0.4,0.6,1,0.6,1.6c0.2,1.8-0.1,3.6-0.7,5.3c-0.5,1.9-1.4,3.6-2.6,5.2c-0.4,0.6-0.9,1-1.5,1.3c-0.6,0.3-1.3,0.5-2,0.4
	c-0.6,0-1.1-0.3-1.5-0.7c-0.4-0.4-0.6-1-0.6-1.6C102,37.8,102.2,36,102.8,34.3L102.8,34.3z M144,36.8c0.4-1.3,0.8-2.6,1.3-4.1
	c0.5-1.5,0.8-2.5,1-3.1c0.7-2.2,0.7-4.1-0.1-5.5c-0.4-0.7-0.9-1.2-1.6-1.6c-0.7-0.4-1.4-0.5-2.2-0.5c-1.6,0.1-3.2,0.5-4.6,1.3
	c-1.9,1-3.5,2.4-4.8,4.1c0.1-0.7,0.1-1.4,0-2.1c-0.2-0.7-0.5-1.3-0.9-1.9c-0.5-0.5-1-0.9-1.7-1.1c-0.6-0.2-1.3-0.4-2-0.3
	c-1.3,0-2.7,0.4-3.8,1c-1.1,0.5-2,1.3-2.7,2.2c-0.1,0.1-0.1,0.2-0.1,0.2c0,0.1,0,0.2,0.1,0.3c0.2,0.2,0.3,0.3,0.5,0.4
	c0.3,0.2,0.5,0.5,0.6,0.8c0.2,0.6,0.2,1.2,0.2,1.8c-0.1,1.2-0.4,2.3-0.8,3.4c-0.7,2.1-2.3,6.7-4.7,13.6c0,0,0,0,0,0.1
	c0,0,0,0.1,0,0.1c0,0,0,0,0.1,0.1c0,0,0,0,0.1,0h9.2c0.1,0,0.1,0,0.2-0.1c0.1,0,0.1-0.1,0.1-0.2l3.9-12.3c0.4-1.3,1.1-2.5,2-3.5
	c1.1-1.2,2.1-1.8,2.9-1.6c0.9,0.2,1.1,1,0.6,2.7l-2.8,8.9c-0.7,2.1-0.6,3.8,0.3,5.1c0.5,0.6,1.1,1.2,1.9,1.5
	c0.7,0.3,1.5,0.5,2.3,0.4c1.3,0,2.7-0.4,3.8-1c1.1-0.5,2-1.2,2.8-2.2c0.1-0.1,0.1-0.2,0.1-0.3c0-0.1,0-0.2-0.1-0.3
	c-0.2-0.2-0.4-0.3-0.6-0.4c-0.3-0.2-0.6-0.5-0.7-0.8c-0.2-0.6-0.3-1.2-0.3-1.8C143.4,39,143.6,37.9,144,36.8L144,36.8z"/>
</svg>
