<svg width="297" height="60" viewBox="0 0 297 60" fill="none" xmlns="http://www.w3.org/2000/svg">
<g clip-path="url(#clip0_5268_142491)">
<path d="M15.7749 42.4377C13.4863 43.6003 10.6528 44 8.47316 44C2.86065 44 -0.0273438 40.7846 -0.0273438 35.6982C-0.0273438 29.7216 4.29556 23.5089 11.3975 23.5089C15.3571 23.5089 18.2088 25.707 18.2088 29.3583C18.2088 34.3721 13.3591 36.1705 5.51252 35.9707C5.51252 36.5338 5.71232 37.4058 6.11191 37.9689C6.87478 38.968 8.20071 39.4949 9.87175 39.4949C11.9969 39.4949 13.7951 39.0225 15.3571 38.2596L15.7567 42.4196L15.7749 42.4377ZM12.8142 29.3765C12.8142 28.4137 12.015 27.7416 10.6891 27.7416C8.00091 27.7416 6.47518 29.9396 6.07558 31.7925C10.562 31.8289 12.8142 31.1931 12.8142 29.431V29.3946V29.3765Z" fill="#056699"/>
<path d="M46.5984 27.3601C46.5984 32.2831 44.8729 37.0607 41.7851 40.1125C39.2603 42.5649 35.8456 44 31.8133 44C24.8022 44 20.8789 39.0226 20.8789 32.7372C20.8789 27.8506 22.6771 23.0003 25.8557 19.9484C28.3804 17.5506 31.8315 16.0973 35.7185 16.0973C42.8567 16.0973 46.6166 20.9112 46.6166 27.3601H46.5984ZM30.3602 22.9458C28.1988 25.1076 27 29.2857 27 32.5192C27 36.334 28.7255 39.1679 32.6488 39.1679C34.338 39.1679 35.9364 38.405 37.1715 37.206C39.2967 35.0806 40.4591 30.63 40.4591 27.5054C40.4591 24.1448 39.2603 20.8931 35.0101 20.8931C33.2119 20.8931 31.5954 21.6924 30.3602 22.9458Z" fill="#056699"/>
<path d="M52.9912 16.9874C54.9166 16.6241 57.405 16.3516 60.0932 16.3516C62.7814 16.3516 64.9791 16.7149 66.7955 17.7867C68.5937 18.7131 69.9196 20.4389 69.9196 22.7096C69.9196 26.1248 67.3949 28.2865 64.4706 29.1222V29.2493C67.0679 30.0486 68.7208 32.174 68.7208 35.135C68.7208 38.0961 67.1588 40.1488 65.0336 41.5476C62.745 43.0735 59.3485 43.7457 54.8621 43.7457C51.8106 43.7457 49.3767 43.5095 48.0508 43.2189L52.9912 16.9874ZM54.4262 39.1134C55.1164 39.186 55.7884 39.2405 56.6239 39.2405C59.7481 39.2405 62.5997 38.0053 62.5997 34.9897C62.5997 32.3012 60.3475 31.5019 57.6774 31.5019H55.8792L54.4443 39.1134H54.4262ZM56.7511 27.2874H58.6764C61.8369 27.2874 63.9983 25.925 63.9983 23.6361C63.9983 21.6742 62.3999 20.8385 60.184 20.8385C59.185 20.8385 58.3858 20.9112 57.9317 21.0384L56.7329 27.2874H56.7511Z" fill="#056699"/>
<path d="M93.877 43.5459L95.5117 32.4103C95.9476 29.4856 96.547 25.7616 97.3099 21.8741H97.1827C95.6933 25.3619 94.0223 29.0859 92.5329 32.047L87.0112 43.11H82.5248L81.5621 32.1741C81.326 29.2131 81.1262 25.4709 80.9628 21.8741H80.8901C80.1272 25.4346 79.328 29.5219 78.6378 32.4103L75.9496 43.5459H70.6641L77.439 16.5333H85.1767L86.0122 26.797C86.1757 29.3221 86.4481 32.4103 86.5026 35.4076H86.6661C87.7014 32.4103 89.1545 29.2313 90.3169 26.797L95.3119 16.5333H103.122L99.4713 43.5459H93.8588H93.877Z" fill="#056699"/>
<path d="M121.776 32.0833H112.15L110.915 38.623H121.704L120.777 43.5459H104.23L109.353 16.5333H125.336L124.374 21.4563H114.202L113.076 27.233H122.703L121.776 32.0833Z" fill="#056699"/>
<path d="M124.938 43.5459L130.078 16.5333H136.853L140.413 26.8333C141.503 30.2848 142.211 33.0824 142.865 36.0434H142.992C143.119 33.2822 143.464 30.303 144.227 26.3429L146.062 16.5151H151.438L146.352 43.5278H140.376L136.617 32.7372C135.418 29.0859 134.691 26.6517 133.965 23.3092L133.838 23.3455C133.511 25.9977 132.875 29.7944 132.076 34.0452L130.314 43.5096H124.938V43.5459Z" fill="#056699"/>
<path d="M163.025 30.9751L162.262 35.0624H151.891L152.654 30.9751H163.025Z" fill="#056699"/>
<path d="M192.161 27.3601C192.161 32.2831 190.435 37.0607 187.348 40.1125C184.823 42.5649 181.408 44 177.376 44C170.365 44 166.441 39.0226 166.441 32.7372C166.441 27.8506 168.24 23.0003 171.418 19.9484C173.943 17.5506 177.394 16.0973 181.281 16.0973C188.419 16.0973 192.179 20.9112 192.179 27.3601H192.161ZM175.923 22.9458C173.761 25.1076 172.563 29.2857 172.563 32.5192C172.563 36.334 174.288 39.1679 178.211 39.1679C179.901 39.1679 181.499 38.405 182.734 37.206C184.859 35.0806 186.022 30.63 186.022 27.5054C186.022 24.1448 184.823 20.8931 180.573 20.8931C178.774 20.8931 177.158 21.6924 175.923 22.9458Z" fill="#056699"/>
<path d="M198.538 16.9874C200.463 16.6241 202.952 16.3516 205.64 16.3516C208.328 16.3516 210.526 16.7149 212.342 17.7867C214.141 18.7131 215.466 20.4389 215.466 22.7096C215.466 26.1248 212.942 28.2865 210.017 29.1222V29.2493C212.615 30.0486 214.268 32.174 214.268 35.135C214.268 38.0961 212.706 40.1488 210.581 41.5476C208.292 43.0735 204.895 43.7457 200.409 43.7457C197.357 43.7457 194.924 43.5095 193.598 43.2189L198.538 16.9874ZM199.973 39.1134C200.663 39.186 201.335 39.2405 202.171 39.2405C205.295 39.2405 208.147 38.0053 208.147 34.9897C208.147 32.3012 205.894 31.5019 203.224 31.5019H201.426L199.991 39.1134H199.973ZM202.298 27.2874H204.223C207.384 27.2874 209.545 25.925 209.545 23.6361C209.545 21.6742 207.947 20.8385 205.731 20.8385C204.732 20.8385 203.933 20.9112 203.479 21.0384L202.28 27.2874H202.298Z" fill="#056699"/>
<path d="M239.424 43.5459L241.059 32.4103C241.494 29.4856 242.094 25.7616 242.857 21.8741H242.73C241.24 25.3619 239.569 29.0859 238.08 32.047L232.558 43.11H228.072L227.109 32.1741C226.873 29.2131 226.673 25.4709 226.51 21.8741H226.437C225.674 25.4346 224.875 29.5219 224.185 32.4103L221.497 43.5459H216.211L223.004 16.5333H230.742L231.577 26.797C231.741 29.3221 232.013 32.4103 232.068 35.4076H232.231C233.266 32.4103 234.72 29.2313 235.882 26.797L240.895 16.5333H248.705L245.055 43.5459H239.442H239.424Z" fill="#056699"/>
<path d="M267.339 32.0833H257.712L256.477 38.623H267.266L266.34 43.5459H249.793L254.915 16.5333H270.899L269.936 21.4563H259.765L258.639 27.233H268.265L267.339 32.0833Z" fill="#056699"/>
<path d="M270.5 43.5459L275.64 16.5333H282.415L285.975 26.8333C287.065 30.2848 287.773 33.0824 288.427 36.0434H288.555C288.682 33.2822 289.027 30.303 289.79 26.3429L291.624 16.5151H297.001L291.915 43.5278H285.939L282.179 32.7372C280.98 29.0859 280.254 26.6517 279.527 23.3092L279.4 23.3455C279.073 25.9977 278.437 29.7944 277.638 34.0452L275.876 43.5096H270.5V43.5459Z" fill="#056699"/>
</g>
<defs>
<clipPath id="clip0_5268_142491">
<rect width="297" height="60" fill="white"/>
</clipPath>
</defs>
</svg>
