<?xml version="1.0" encoding="utf-8"?>
<!-- Generator: Adobe Illustrator 26.3.1, SVG Export Plug-In . SVG Version: 6.00 Build 0)  -->
<svg version="1.1" id="Слой_1" xmlns="http://www.w3.org/2000/svg" xmlns:xlink="http://www.w3.org/1999/xlink" x="0px" y="0px"
	 viewBox="0 0 267 60" style="enable-background:new 0 0 267 60;" xml:space="preserve">
<style type="text/css">
	.st0{fill:#2A609F;}
	.st1{fill:#D4D4D4;}
	.st2{fill:#FFFFFF;}
	.st3{fill:#C8C8C8;}
</style>
<path class="st0" d="M266.2,14.4v28.5c0,4.4-3.8,8-8.6,8H49.2c-0.9-0.1-1.6-0.5-2.1-1.4c-1.7-3-3.7-5.9-5.5-8.9
	c-0.8-1.3-1.9-2-3.3-2.1c-0.8-0.1-1.3-0.5-1.7-1.1c-0.6-1.1-1.5-2.1-1.8-3.2c-0.4-1.4,1.3-1.9,2-2.8c5.3-7,5.6-15.9,0.8-23.3
	c-0.3-0.4-0.8-0.8-0.5-1.3c0.1-0.1,0.2-0.2,0.3-0.2h220.2C262.3,6.4,266.1,10,266.2,14.4L266.2,14.4z"/>
<path class="st1" d="M266.1,14.4v28.5c0,4.4-3.7,8-8.2,8h-75V6.5h75C262.5,6.5,266.1,10,266.1,14.4z"/>
<path class="st2" d="M59.5,15v5.3h-6.7v5.4h5.8V31h-5.8v6.1h6.9v5.3H47.4V15H59.5z"/>
<path class="st2" d="M61.5,15h5.8l1.9,7.8h0.1l1.9-7.8h5.6l-4.3,12.8l4.6,14.5h-5.7l-2.3-8.8h0l-2.1,8.8h-5.6l4.6-14.8L61.5,15
	L61.5,15z"/>
<path class="st2" d="M78.6,22.5c0-1.3,0.2-2.5,0.5-3.5c0.3-1,0.8-1.8,1.5-2.5c0.6-0.6,1.4-1.1,2.2-1.5c0.9-0.3,1.8-0.5,2.8-0.5
	s1.9,0.2,2.8,0.5c0.9,0.3,1.6,0.8,2.2,1.5c0.6,0.6,1.1,1.5,1.5,2.5c0.3,1,0.5,2,0.5,3.3l-5.4,0.6v-1c0-0.2,0-0.5,0-0.8
	c0-0.3-0.1-0.6-0.2-0.8c-0.1-0.3-0.3-0.5-0.5-0.6c-0.2-0.2-0.5-0.3-0.9-0.3c-0.4,0-0.7,0.1-0.9,0.3c-0.2,0.2-0.4,0.4-0.5,0.6
	c-0.1,0.3-0.2,0.5-0.2,0.8c0,0.3,0,0.6,0,0.8v13.5c0,0.2,0,0.4,0,0.7c0,0.3,0.1,0.6,0.2,0.8c0.1,0.3,0.3,0.5,0.5,0.7
	c0.2,0.2,0.5,0.3,0.9,0.3c0.4,0,0.7-0.1,0.9-0.3c0.2-0.2,0.4-0.4,0.5-0.7c0.1-0.3,0.2-0.5,0.2-0.8c0-0.3,0-0.5,0-0.7v-1.1l5.4,0.6
	c0,2.5-0.6,4.4-1.9,5.8c-1.2,1.4-3,2.1-5.1,2.1c-2.2,0-3.9-0.7-5.1-2.1c-1.2-1.4-1.9-3.3-1.9-5.8V22.5L78.6,22.5z"/>
<path class="st2" d="M100.4,15v10.2h3.2V15h5.4v27.4h-5.4V30.8h-3.2v11.6H95V15H100.4z"/>
<path class="st2" d="M122,15l4.4,27.4h-5.7l-0.5-5.6h-3.8l-0.6,5.6h-5.4l4.4-27.4H122z M119.7,32.1l-1.2-10.4h-0.3L117,32.1H119.7z"
	/>
<path class="st2" d="M132.9,15l4.8,13.6h0.1V15h5.1v27.4h-4.4l-4.9-14.2h-0.1v14.2h-5.1V15H132.9z"/>
<path class="st2" d="M145.9,22.5c0-1.3,0.2-2.5,0.5-3.5c0.3-1,0.8-1.8,1.5-2.5c0.6-0.6,1.4-1.1,2.2-1.5s1.8-0.5,2.8-0.5
	c0.9,0,1.8,0.1,2.7,0.3c0.9,0.2,1.6,0.6,2.2,1.1c0.6,0.5,1.1,1.2,1.5,2.1c0.4,0.9,0.6,2.3,0.6,3.6l-5.2,1.1v-1.2
	c0-0.7-0.1-1.2-0.4-1.6c-0.3-0.4-0.7-0.6-1.3-0.6c-0.4,0-0.7,0.1-0.9,0.3c-0.2,0.2-0.4,0.4-0.5,0.7c-0.1,0.3-0.2,0.5-0.2,0.8
	c0,0.3-0.1,0.5-0.1,0.8v13.5c0,0.2,0,0.4,0,0.7c0,0.3,0.1,0.6,0.2,0.8c0.1,0.3,0.3,0.5,0.5,0.7c0.2,0.2,0.5,0.3,0.9,0.3
	c1.2,0,1.7-0.7,1.7-2.1v-4.1h-1.9v-4.5l6.9,0l-0.1,8.9c0,0.6-0.1,1.2-0.3,1.7c-0.4,1.1-1.3,2.9-2.9,3.8c-1.5,0.9-3.7,0.8-5,0.7
	c-1-0.1-4.4-1.1-5.1-4.5c-0.2-0.9-0.2-1.9-0.2-3V22.5z"/>
<path class="st2" d="M174.4,15v5.3h-6.7v5.4h5.8V31h-5.8v6.1h6.9v5.3h-12.3V15H174.4z"/>
<path class="st0" d="M194.3,35.1c0,0.4,0,0.7,0.1,1.1c0,0.3,0.1,0.6,0.3,0.9c0.1,0.3,0.3,0.5,0.5,0.6c0.2,0.2,0.5,0.2,0.9,0.2
	c0.6,0,1-0.2,1.3-0.6c0.3-0.4,0.4-0.9,0.5-1.5c0.1-2.2,0-3.7-1.2-4.3c-3.4-1.8-4.1-2.4-4.6-2.9c-0.5-0.5-0.9-1-1.3-1.6
	c-0.4-0.6-0.7-1.2-1-2c-0.2-0.7-0.3-1.6-0.3-2.6c0-2.6,0.6-4.6,1.8-5.8c1.2-1.2,2.8-1.8,4.9-1.8c2.3,0,4,0.6,5,1.8
	c1,1.2,1.6,2.9,1.6,4.9V22l-4.9,1.1v-0.4c0-0.3,0-0.7,0-1s-0.1-0.7-0.2-1c-0.1-0.3-0.3-0.5-0.5-0.7c-0.2-0.2-0.5-0.3-0.9-0.3
	c-0.6,0-1,0.2-1.3,0.5c-0.3,0.4-0.5,0.9-0.5,1.5c0,0.4-0.2,2.1,0.7,2.9c1.4,1.3,5.3,2.7,6.8,4.6c0.4,0.6,1.5,1.7,1.3,6.5
	c0,0.7-0.1,1.4-0.4,2.2c-0.2,0.8-0.6,1.5-1.2,2.2c-0.6,0.7-1.3,1.3-2.2,1.8c-0.9,0.5-2.1,0.7-3.4,0.7c-1.4,0-2.4-0.2-3.3-0.7
	c-0.9-0.4-1.6-1-2.1-1.6c-0.5-0.7-0.9-1.4-1.1-2.2c-0.2-0.8-0.3-2.2-0.3-2.9l5.1-1.1V35.1L194.3,35.1z"/>
<path class="st0" d="M210.5,15v20c0,0.4,0,0.7,0,1c0,0.3,0.1,0.6,0.2,0.9c0.1,0.3,0.2,0.5,0.5,0.6c0.2,0.2,0.5,0.2,0.9,0.2
	c0.4,0,0.7-0.1,0.9-0.2c0.2-0.2,0.4-0.4,0.4-0.6c0.1-0.3,0.2-0.6,0.2-0.9c0-0.3,0-0.7,0-1V15h5.2v19.9c0,2.5-0.6,4.4-1.8,5.8
	c-1.2,1.4-2.9,2.1-5,2.1c-2.1,0-3.7-0.7-5-2.1c-1.2-1.4-1.8-3.3-1.8-5.8V15H210.5L210.5,15z"/>
<path class="st0" d="M226.5,15l4.4,12.9h0.1l4.3-12.9h4.9v27.4h-5L235,29.2h-0.1l-2.4,7.9h-3.2l-2.3-8.1h0v13.3h-5.3V15H226.5z"/>
<path class="st0" d="M243.4,22.5c0-1.3,0.2-2.5,0.5-3.5c0.3-1,0.8-1.8,1.4-2.5c0.6-0.6,1.3-1.1,2.1-1.5s1.7-0.5,2.7-0.5
	c1,0,1.9,0.2,2.7,0.5c0.8,0.3,1.5,0.8,2.1,1.5c0.6,0.6,1.1,1.5,1.4,2.5c0.3,1,0.5,2.2,0.5,3.5v12.4c0,2.5-0.6,4.4-1.8,5.8
	c-1.2,1.4-2.9,2.1-5,2.1s-3.7-0.7-5-2.1c-1.2-1.4-1.8-3.3-1.8-5.8V22.5z M248.6,35.5c0,0.2,0,0.4,0,0.7c0,0.3,0.1,0.6,0.2,0.8
	c0.1,0.3,0.2,0.5,0.5,0.7c0.2,0.2,0.5,0.3,0.9,0.3c0.4,0,0.7-0.1,0.9-0.3c0.2-0.2,0.4-0.4,0.4-0.7c0.1-0.3,0.2-0.5,0.2-0.8
	c0-0.3,0-0.5,0-0.7V22c0-0.2,0-0.5,0-0.8c0-0.3-0.1-0.6-0.2-0.8c-0.1-0.3-0.2-0.5-0.4-0.6c-0.2-0.2-0.5-0.3-0.9-0.3
	c-0.4,0-0.7,0.1-0.9,0.3c-0.2,0.2-0.4,0.4-0.5,0.6c-0.1,0.3-0.2,0.5-0.2,0.8c0,0.3,0,0.6,0,0.8V35.5z"/>
<path class="st3" d="M37.6,19.7c-0.2,5.2-1.9,10-6,13.9c-0.7,0.6-0.7,1.1-0.2,1.8c0.4,0.6,0.7,1.2,1.1,1.8c0.7,1.2,1.2,2.5,3.1,2.2
	c0.8-0.1,1.6,0.7,2.1,1.5c2.4,3.9,4.9,7.7,7.3,11.6c1.2,2,0.8,3.9-1.2,5.3c-0.8,0.6-1.6,1.2-2.5,1.6c-1.7,1-3.5,0.7-4.5-1
	c-2.6-4-5.1-8.1-7.6-12.2c-0.6-1.1-0.6-2.2,0-3.2c0.3-0.6,0.3-1.1-0.1-1.6c-0.7-1.1-1.4-2.1-2-3.2c-0.5-0.9-0.9-1-1.8-0.6
	c-4.5,1.7-8.9,1.8-13.4-0.1C5.1,34.6,1.3,29.3,0.2,22C-1.2,12.5,5.1,2.8,14.1,0.6c11.3-2.8,22.4,5.2,23.4,16.9
	C37.6,18.1,37.6,18.7,37.6,19.7L37.6,19.7z"/>
<path class="st0" d="M2.7,19.5c-0.1-9,7.1-16.6,15.8-16.7c8.9-0.1,16.3,7.3,16.4,16.4c0.1,9.2-7,16.8-15.7,16.9
	C10.1,36.2,2.8,28.9,2.7,19.5z"/>
<path class="st2" d="M6,22.2c0-7.3,5.7-13.6,12.9-14.3c1.5-0.1,1.6-0.7,1.2-1.8c-0.1-0.2-0.1-0.4-0.2-0.7c0-0.3-0.2-0.7,0.2-0.9
	c0.3-0.2,0.5,0,0.8,0.2c2.4,1.5,4.8,3,7.3,4.5c0.6,0.4,0.7,0.8,0.3,1.3c-1.6,2.4-3.1,4.8-4.7,7.2c-0.2,0.3-0.4,0.6-0.7,0.5
	c-0.4,0-0.4-0.4-0.5-0.7c-0.1-0.3-0.1-0.6-0.2-0.9c-0.5-2.3-0.5-2.4-2.9-2c-3.8,0.7-7.2,2.1-9.7,5.3c-1.2,1.5-1.8,3.2-2,5.1
	c-0.1,0.4-0.1,1-0.7,1c-0.5,0-0.6-0.5-0.6-0.9C6.1,24,5.9,23,6,22.2z"/>
<path class="st2" d="M31.5,17c-0.4,7.7-5.7,13.4-12.9,14.2c-1.3,0.2-1.8,0.5-1.3,1.8c0.1,0.2,0.1,0.5,0.1,0.8c0.1,0.8-0.2,1-0.9,0.6
	c-2.4-1.5-4.8-3-7.3-4.5c-0.6-0.4-0.7-0.7-0.3-1.3c1.6-2.4,3.2-4.8,4.8-7.2c0.1-0.2,0.3-0.5,0.6-0.5c0.4,0,0.5,0.4,0.5,0.7
	c0.1,0.5,0.2,1,0.3,1.5c0.3,1.8,0.4,1.9,2.1,1.6c4.5-0.7,8.4-2.4,11-6.4c0.8-1.3,1.2-2.7,1.4-4.2c0.1-0.4,0-0.9,0.6-0.9
	c0.5,0,0.6,0.5,0.6,0.9C31.2,15.2,31.4,16.4,31.5,17L31.5,17z"/>
</svg>
