<?xml version="1.0" encoding="utf-8"?>
<!-- Generator: Adobe Illustrator 26.3.1, SVG Export Plug-In . SVG Version: 6.00 Build 0)  -->
<svg version="1.1" id="Слой_1" xmlns="http://www.w3.org/2000/svg" xmlns:xlink="http://www.w3.org/1999/xlink" x="0px" y="0px"
	 viewBox="0 0 176 60" style="enable-background:new 0 0 176 60;" xml:space="preserve">
<style type="text/css">
	.st0{fill:#16192E;}
	.st1{fill-rule:evenodd;clip-rule:evenodd;fill:#16192E;}
	.st2{fill-rule:evenodd;clip-rule:evenodd;fill:#5490E0;}
</style>
<path class="st0" d="M0,16c0-0.2,0.1-0.5,0.2-0.7c0.1-0.1,0.2-0.2,0.3-0.2c0.1,0,0.2-0.1,0.4-0.1h19.8c0.1,0,0.3,0,0.4,0.1
	c0.1,0,0.2,0.1,0.3,0.2c0.2,0.2,0.2,0.4,0.2,0.7v5c0,0.2-0.1,0.5-0.2,0.7c-0.1,0.1-0.2,0.2-0.3,0.2C21,22,20.8,22,20.7,22h-13v5h10
	c0.2,0,0.4,0.1,0.6,0.2c0.1,0.1,0.2,0.2,0.2,0.3c0,0.1,0.1,0.2,0,0.3v4.3c0,0.2,0,0.3-0.1,0.4c-0.1,0.1-0.2,0.2-0.4,0.3
	c-0.1,0-0.2,0.1-0.4,0.1h-10V38h13.4c0.1,0,0.3,0,0.4,0c0.1,0,0.2,0.1,0.3,0.2c0.1,0.1,0.2,0.2,0.2,0.3c0,0.1,0,0.2,0,0.4V44
	c0,0.1,0,0.1,0,0.2c0,0.1-0.1,0.1-0.1,0.2c0,0.4-0.3,0.6-0.8,0.6H0.9c-0.2,0-0.5-0.1-0.6-0.2c-0.1-0.1-0.1-0.2-0.2-0.3
	c0-0.1-0.1-0.2,0-0.4L0,16L0,16z M24.1,44.5l0.3-0.6c0.1-0.2,0.2-0.4,0.4-0.6l9-13.5l-4.5-6.9l-4.6-6.9c-0.1-0.1-0.1-0.2-0.2-0.3
	c0-0.1-0.1-0.2-0.1-0.3c0-0.1,0.1-0.2,0.2-0.2c0.1,0,0.3,0,0.4-0.1h7c0.2,0,0.5,0.1,0.7,0.2c0.2,0.1,0.4,0.3,0.5,0.6l4.9,7.4l5-7.4
	c0.1-0.2,0.3-0.4,0.4-0.5c0.2-0.1,0.4-0.2,0.7-0.2h7.1c0.1,0,0.2,0,0.3,0.1c0,0,0.1,0,0.1,0.1c0,0,0,0.1,0,0.1
	c0,0.2-0.1,0.4-0.2,0.5l-9.1,13.9l9.4,14.1c0.1,0.2,0.2,0.3,0.3,0.5c0.1,0.1,0.1,0.3,0.1,0.4c0,0.2-0.1,0.3-0.4,0.3h-7.2
	c-0.2,0-0.4-0.1-0.6-0.2c-0.2-0.1-0.3-0.3-0.4-0.5l-5.4-8.1l-5.4,8.1c-0.1,0.2-0.3,0.4-0.4,0.5c-0.2,0.1-0.4,0.2-0.6,0.2h-7.2
	c-0.1,0-0.2,0-0.3-0.1c0,0-0.1-0.1-0.1-0.1c0,0,0-0.1,0-0.1C24.1,44.6,24.1,44.5,24.1,44.5L24.1,44.5z M56.2,15.9
	c0-0.2,0.1-0.5,0.2-0.6c0.1-0.1,0.2-0.2,0.3-0.2c0.1,0,0.2-0.1,0.4-0.1h6.5c0.2,0,0.4,0.1,0.6,0.1c0.2,0.1,0.4,0.3,0.5,0.5
	c1.7,2.8,3.4,5.5,5,8.1l5.1,8.1V15.8c0-0.2,0.2-0.4,0.4-0.5c0.2-0.1,0.4-0.2,0.6-0.2h5.7c0.3,0,0.5,0.1,0.7,0.2
	c0.1,0.1,0.2,0.2,0.2,0.3c0,0.1,0.1,0.2,0.1,0.4v28.2c0,0.1,0,0.2,0,0.3c0,0.1-0.1,0.2-0.2,0.3c-0.2,0.1-0.4,0.2-0.7,0.2H75
	c-0.2,0-0.3-0.1-0.5-0.2c-0.2-0.1-0.3-0.3-0.4-0.5l-5.3-8.8c-1.8-2.9-3.5-5.8-5.3-8.8v17.3c0,0.2-0.1,0.5-0.2,0.7
	c-0.1,0.1-0.2,0.1-0.3,0.2c-0.1,0-0.3,0.1-0.4,0H57c-0.1,0-0.3,0-0.4,0c-0.1,0-0.2-0.1-0.3-0.2c-0.1-0.2-0.2-0.4-0.2-0.6L56.2,15.9
	L56.2,15.9z M148.7,30.1c0,1.4-0.2,2.7-0.5,4.1c-0.4,1.2-0.9,2.4-1.5,3.5c-1.3,2.2-3.2,4-5.5,5.3c-2.4,1.3-5,2-7.7,2h-9.9
	c-0.2,0-0.4-0.1-0.6-0.2c-0.2-0.1-0.3-0.3-0.3-0.7V16c0-0.1,0-0.3,0.1-0.4c0-0.1,0.1-0.2,0.2-0.3c0.1-0.1,0.2-0.2,0.3-0.2
	c0.1,0,0.2-0.1,0.4-0.1h9.9c1.4,0,2.7,0.2,4.1,0.5c1.3,0.3,2.5,0.8,3.6,1.5c1.1,0.6,2.2,1.4,3.1,2.3c0.9,0.9,1.7,1.9,2.4,3
	c0.7,1.1,1.2,2.3,1.5,3.6C148.5,27.3,148.7,28.7,148.7,30.1L148.7,30.1z M130.4,22.3v15.5h2.6l0.9-0.1c1-0.1,1.9-0.3,2.8-0.7
	c0.8-0.4,1.6-1,2.2-1.6c0.7-0.7,1.2-1.5,1.5-2.4c0.4-0.9,0.6-1.9,0.6-2.9c0-1-0.2-2.1-0.6-3c-0.4-1-1-1.8-1.8-2.6
	c-0.7-0.7-1.6-1.2-2.5-1.6c-1-0.4-2-0.6-3.1-0.6L130.4,22.3L130.4,22.3z M153.9,16c0-0.2,0.1-0.5,0.2-0.7c0.1-0.1,0.2-0.2,0.3-0.2
	c0.1,0,0.2-0.1,0.4-0.1h19.8c0.1,0,0.2,0,0.4,0.1c0.1,0,0.2,0.1,0.3,0.2c0.2,0.2,0.3,0.4,0.2,0.7v5c0,0.2-0.1,0.5-0.2,0.7
	c-0.1,0.1-0.2,0.2-0.3,0.2c-0.1,0.1-0.3,0.1-0.4,0.1h-13v5h10c0.2,0,0.4,0.1,0.6,0.2c0.1,0.1,0.2,0.2,0.2,0.3c0,0.1,0.1,0.2,0,0.3
	v4.3c0,0.2-0.1,0.4-0.2,0.5c-0.1,0.1-0.2,0.2-0.3,0.2c-0.1,0-0.2,0.1-0.4,0.1h-10V38h13.4c0.1,0,0.3,0,0.4,0c0.1,0,0.2,0.1,0.3,0.2
	c0.1,0.1,0.2,0.2,0.2,0.3c0,0.1,0,0.2,0,0.4V44c0,0.1-0.1,0.3-0.2,0.4c0,0.4-0.3,0.6-0.8,0.6h-20.2c-0.1,0-0.2,0-0.3,0
	c-0.1,0-0.2-0.1-0.3-0.2c-0.1-0.1-0.1-0.2-0.2-0.3c0-0.1-0.1-0.2,0-0.4L153.9,16L153.9,16z"/>
<path class="st1" d="M112.3,17.9l-10.6,15.5l-4.2-3c-0.7-0.5-1.5-0.1-1.4,0.7l2.2,11.1c0.1,0.5,0.7,1,1.2,0.9l10.9-1.7
	c0.7-0.1,0.8-1.1,0.2-1.6l-4.2-3l9.6-14.1c2.7,5.3,2.5,11.9-1.1,17.1c-5.1,7.5-15,9.3-22.3,4.1c-7.2-5.2-9-15.5-3.9-23
	s15-9.3,22.3-4.1C111.6,17.3,112,17.6,112.3,17.9L112.3,17.9z"/>
<path class="st2" d="M106.7,17.9c-0.1-0.6-0.7-1-1.2-0.9l-11.2,1.7c-0.8,0.1-0.9,1.1-0.2,1.6l4.3,3.2L88,39.1
	c1.1,1.9,2.5,3.5,4.1,4.9l11.2-16.8l4.3,3.2c0.7,0.5,1.6,0.1,1.4-0.7L106.7,17.9L106.7,17.9z"/>
</svg>
