<?xml version="1.0" encoding="utf-8"?>
<!-- Generator: Adobe Illustrator 26.3.1, SVG Export Plug-In . SVG Version: 6.00 Build 0)  -->
<svg version="1.1" id="Слой_1" xmlns="http://www.w3.org/2000/svg" xmlns:xlink="http://www.w3.org/1999/xlink" x="0px" y="0px"
	 viewBox="0 0 203 60" style="enable-background:new 0 0 203 60;" xml:space="preserve">
<style type="text/css">
	.st0{fill:#AACFA9;}
</style>
<path d="M82.9,29.6h9.2v12.1c-1.2,0.4-2.5,0.7-3.8,1C87,42.9,85.5,43,83.8,43c-2.3,0-4.3-0.5-5.9-1.4c-1.6-0.9-2.8-2.3-3.7-4
	c-0.8-1.8-1.3-4-1.3-6.6c0-2.4,0.5-4.6,1.4-6.3c0.9-1.8,2.3-3.2,4.1-4.1c1.8-1,4-1.5,6.6-1.5c1.2,0,2.4,0.1,3.7,0.4
	c1.2,0.3,2.3,0.6,3.3,1l-1.6,4c-0.7-0.4-1.5-0.7-2.4-0.9c-0.9-0.2-1.9-0.4-2.9-0.4c-1.4,0-2.7,0.3-3.7,1c-1.1,0.7-1.9,1.6-2.5,2.8
	c-0.6,1.2-0.9,2.6-0.9,4.2c0,1.5,0.2,2.9,0.6,4c0.4,1.2,1.1,2.1,2,2.8c0.9,0.7,2.1,1,3.5,1c0.7,0,1.3,0,1.8-0.1
	c0.5-0.1,0.9-0.1,1.4-0.2v-4.9h-4.4V29.6z"/>
<path d="M97.7,42.7V19.4h4.9v19.2h9.5v4.1L97.7,42.7L97.7,42.7z"/>
<path d="M130.4,42.7l-1.7-5.5h-8.5l-1.7,5.5h-5.3l8.2-23.4h6l8.3,23.4H130.4z M127.5,33l-1.7-5.4c-0.1-0.4-0.2-0.8-0.4-1.4
	c-0.2-0.6-0.4-1.1-0.5-1.7c-0.2-0.6-0.3-1.1-0.4-1.5c-0.1,0.4-0.3,1-0.4,1.6c-0.2,0.6-0.4,1.3-0.5,1.8c-0.2,0.6-0.3,1-0.4,1.2
	l-1.7,5.4L127.5,33L127.5,33z"/>
<path d="M153.9,42.7h-17.3v-3.2l11.2-16h-10.9v-4.1h16.7v3.2l-11.2,16h11.5L153.9,42.7L153.9,42.7z"/>
<path d="M178.7,31c0,1.8-0.2,3.4-0.7,4.9c-0.4,1.5-1.1,2.7-2,3.8c-0.9,1.1-2.1,1.9-3.5,2.4c-1.4,0.6-3,0.9-4.9,0.9
	c-1.9,0-3.6-0.3-4.9-0.9c-1.4-0.6-2.5-1.4-3.5-2.4c-0.9-1.1-1.6-2.3-2-3.8c-0.4-1.5-0.7-3.1-0.7-4.9c0-2.4,0.4-4.5,1.2-6.3
	c0.8-1.8,2-3.2,3.7-4.2c1.6-1,3.7-1.5,6.3-1.5c2.5,0,4.6,0.5,6.2,1.5s2.8,2.4,3.6,4.2C178.3,26.5,178.7,28.6,178.7,31L178.7,31z
	 M161.7,31c0,1.6,0.2,3,0.6,4.2c0.4,1.2,1.1,2.1,1.9,2.7c0.9,0.6,2,0.9,3.4,0.9c1.4,0,2.5-0.3,3.4-0.9c0.9-0.6,1.5-1.5,1.9-2.7
	c0.4-1.2,0.6-2.6,0.6-4.2c0-2.4-0.5-4.4-1.4-5.8c-0.9-1.4-2.4-2.1-4.5-2.1c-1.4,0-2.5,0.3-3.4,0.9c-0.9,0.6-1.5,1.5-1.9,2.7
	C161.9,27.9,161.7,29.4,161.7,31L161.7,31z"/>
<path d="M202.3,42.7h-5.6l-6.1-9.8l-2.1,1.5v8.3h-4.9V19.4h4.9V30c0.3-0.5,0.7-0.9,1-1.4c0.3-0.5,0.6-0.9,1-1.4l6.3-7.9h5.5
	l-8.1,10.3L202.3,42.7L202.3,42.7z"/>
<path d="M39.8,26.4l3.1-3.1L42.1,22l-3.4,4.1C39.1,26.2,39.5,26.3,39.8,26.4L39.8,26.4z"/>
<path d="M35.6,25.4l3.9-7.8l-1-1.8l-3.9,9.5C35,25.3,35.3,25.4,35.6,25.4z"/>
<path d="M37.6,25.8l3.7-5.2l-0.8-1.5l-3.9,6.4C37,25.6,37.3,25.7,37.6,25.8z"/>
<path d="M44.8,28.5l0.9-0.5L45,26.9l-1.5,0.9C43.9,28.1,44.3,28.3,44.8,28.5L44.8,28.5z"/>
<path d="M42.2,27.3l2.1-1.5l-0.7-1.2L41,26.8C41.4,26.9,41.8,27.1,42.2,27.3L42.2,27.3z"/>
<path d="M28.4,25.2l-2.1-13.7L24.8,14l2.6,11.3C27.7,25.3,28.1,25.2,28.4,25.2z"/>
<path d="M26.5,25.5l-2.9-9.3l-1,1.8l3,7.7C25.9,25.6,26.2,25.5,26.5,25.5L26.5,25.5z"/>
<path d="M30.6,25.1L30.1,4.9L28,8.5l1.5,16.6C29.8,25.1,30.2,25.1,30.6,25.1z"/>
<path d="M31.2,25.1c0.2,0,0.4,0,0.6,0c0.1,0,0.1,0,0.2,0l2.5-16.3l-2-3.5l-0.1,3.6L31.2,25.1C31.2,25.1,31.2,25.1,31.2,25.1
	L31.2,25.1z"/>
<path d="M33.8,25.2l3.6-11.4l-1.3-2.3l-3.2,13.6C33.2,25.1,33.5,25.2,33.8,25.2L33.8,25.2z"/>
<path d="M52.2,39.4l-0.5-0.8c-0.2,0.2-0.4,0.4-0.5,0.7L52.2,39.4L52.2,39.4z"/>
<path d="M21.5,38.5c-0.1-0.2-0.2-0.5-0.3-0.7l-2.3,0.3c0.4,0.3,0.7,0.5,1.1,0.7L21.5,38.5z"/>
<path d="M47.3,42.9c-0.4,0.3-0.9,0.6-1.3,0.9l12.5,6.3l-2-3.5L47.3,42.9L47.3,42.9z"/>
<path d="M22.3,39.8c-0.1-0.2-0.3-0.4-0.4-0.6L21,39.5c0.3,0.2,0.6,0.3,0.9,0.5L22.3,39.8L22.3,39.8z"/>
<path d="M20.4,34.4L20.4,34.4c-0.5,0.3-1,0.5-1.4,0.8l1.5,0.1C20.4,35,20.4,34.7,20.4,34.4L20.4,34.4z"/>
<path d="M20.6,36.2h-3c-0.1,0.1-0.2,0.1-0.2,0.2c-0.1,0.1-0.2,0.2-0.3,0.3c0.1,0.1,0.2,0.2,0.3,0.3c0.1,0.1,0.2,0.2,0.4,0.3l3.2-0.2
	C20.8,36.7,20.7,36.5,20.6,36.2L20.6,36.2z"/>
<path d="M44.9,37.1l-3.4-0.2c-0.1,0.3-0.2,0.6-0.3,0.9l2.5,0.4c0.2-0.2,0.4-0.3,0.6-0.5C44.4,37.4,44.6,37.2,44.9,37.1L44.9,37.1z"
	/>
<path d="M41.7,35.9l2.8,0c0,0-0.1-0.1-0.1-0.1c-0.3-0.3-0.7-0.6-1.2-0.9L41.8,35C41.8,35.3,41.7,35.6,41.7,35.9z"/>
<path d="M49.9,40.6c-0.4,0.4-0.9,0.8-1.3,1.2l6.2,2l-1.4-2.4L49.9,40.6L49.9,40.6z"/>
<path d="M40.7,38.5c-0.1,0.3-0.3,0.5-0.4,0.7l1,0.3c0.4-0.2,0.8-0.4,1.1-0.7L40.7,38.5z"/>
<path d="M39.9,39.9c-0.1,0.2-0.2,0.3-0.4,0.5c0.2-0.1,0.5-0.2,0.7-0.3L39.9,39.9z"/>
<path d="M46.6,29.7l-0.2-0.4l-0.2,0.1C46.3,29.5,46.4,29.6,46.6,29.7z"/>
<path d="M32.3,48.2l1.4,8.8h1.7l-2.2-8.9C33,48.1,32.7,48.2,32.3,48.2z"/>
<path d="M24.2,47.3L19.6,57h2l3.7-9.4C24.9,47.5,24.6,47.4,24.2,47.3L24.2,47.3z"/>
<path d="M28.8,48.1L27.2,57h1.7l0.9-8.8C29.5,48.2,29.1,48.1,28.8,48.1L28.8,48.1z"/>
<path d="M26.4,47.8L23.5,57h1.9l2.2-9C27.2,47.9,26.8,47.9,26.4,47.8z"/>
<path d="M34.3,48l3,9h1.9l-3.8-9.1C35,47.9,34.7,48,34.3,48z"/>
<path d="M31.2,48.2c-0.2,0-0.5,0-0.7,0l0,8.8h1.7l-0.7-8.8C31.3,48.2,31.2,48.2,31.2,48.2L31.2,48.2z"/>
<path d="M61,54.6l-16.3-9.9c-0.4,0.2-0.8,0.5-1.3,0.7L59.5,57h2.9L61,54.6L61,54.6z"/>
<path d="M40.9,46.4L51.5,57h3.6l-13-11C41.7,46.1,41.3,46.3,40.9,46.4z"/>
<path d="M38.6,47.2l7.2,9.8h2.7l-8.7-10.2C39.4,47,39,47.1,38.6,47.2z"/>
<path d="M36.4,47.7l4.8,9.3h2.2l-5.9-9.5C37.1,47.6,36.8,47.6,36.4,47.7L36.4,47.7z"/>
<path d="M23,26.3l-3-4.1l-0.7,1.2l2.7,3.2C22.5,26.4,22.7,26.3,23,26.3L23,26.3z"/>
<path d="M16.2,29.4c0.2-0.1,0.5-0.3,0.7-0.4l-0.6-0.3l-0.6,1.1C15.9,29.6,16.1,29.5,16.2,29.4L16.2,29.4z"/>
<path d="M19.2,27.7l-1.7-1.2L17,27.6l1.2,0.7C18.5,28.1,18.9,27.9,19.2,27.7z"/>
<path d="M21.3,26.9l-2.5-2.4l-0.6,1.1l2.1,1.7C20.6,27.1,20.9,27,21.3,26.9z"/>
<path d="M23.9,26c0.3-0.1,0.5-0.1,0.8-0.2l-3.1-6.3l-0.8,1.4L23.9,26C23.9,26,23.9,26,23.9,26L23.9,26z"/>
<path d="M11.2,39.3l-1,0.2L9,41.4l3.4-0.8C12,40.2,11.6,39.8,11.2,39.3L11.2,39.3z"/>
<path d="M20.3,46L9.5,57h3l8.8-10.6C20.9,46.2,20.6,46.1,20.3,46L20.3,46z"/>
<path d="M22.2,46.7L15.1,57h2.3l5.8-10C22.9,46.9,22.6,46.8,22.2,46.7L22.2,46.7z"/>
<path d="M13.6,41.8l-5.9,1.8l-1.5,2.6l8.7-3.5C14.5,42.5,14,42.1,13.6,41.8z"/>
<path d="M18.2,45L1.6,57h4.3l13.3-11.5C18.9,45.3,18.6,45.1,18.2,45L18.2,45z"/>
<path d="M16.1,43.6L4.4,49.4L2,53.6l15.2-9.2C16.8,44.1,16.4,43.9,16.1,43.6L16.1,43.6z"/>
<path class="st0" d="M50.3,36.6C41.8,48.4,22,49.6,11.9,36.6c3.1-4.3,7.6-7.1,12.6-8.5c4.3-1.1,8.9-1.1,13.2-0.1
	C42.7,29.4,47.3,32.2,50.3,36.6z"/>
<path d="M37.7,28.1c-4.3-1.1-8.9-1.1-13.2,0.1c-5,1.3-9.5,4.1-12.6,8.5c10.1,13,29.9,11.8,38.4-0.1C47.3,32.2,42.7,29.4,37.7,28.1z
	 M45.7,39.3c-8.3,6.8-22,6.5-29.9-0.7c-2.1-1.9-2.1-2.1,0.1-3.9c1.9-1.7,4.8-3.2,7.3-4c-0.3,0.9-0.5,1.9-0.5,3
	c0,4.7,3.8,8.5,8.5,8.5c4.7,0,8.5-3.8,8.5-8.5c0-1.1-0.2-2.2-0.6-3.2c2.9,0.8,5.3,2.5,6.7,3.6C48.8,36.5,48.8,36.8,45.7,39.3
	L45.7,39.3z"/>
<path class="st0" d="M35.6,34.4c0,2.5-2,4.5-4.5,4.5c-2.5,0-4.5-2-4.5-4.5c0-0.3,0-0.6,0.1-0.8c-0.9-0.3-1.5-1.1-1.5-2.1
	c0-1.2,1-2.2,2.2-2.2c0.8,0,1.5,0.4,1.9,1.1c0.5-0.2,1.1-0.4,1.8-0.4C33.6,29.9,35.6,31.9,35.6,34.4z"/>
</svg>
