<?xml version="1.0" encoding="utf-8"?>
<!-- Generator: Adobe Illustrator 26.3.1, SVG Export Plug-In . SVG Version: 6.00 Build 0)  -->
<svg version="1.1" id="Слой_1" xmlns="http://www.w3.org/2000/svg" xmlns:xlink="http://www.w3.org/1999/xlink" x="0px" y="0px"
	 viewBox="0 0 260 60" style="enable-background:new 0 0 260 60;" xml:space="preserve">
<style type="text/css">
	.st0{fill:#5B92C6;}
</style>
<path class="st0" d="M64.3,16.8h2.6v9.6l10.3-9.6h3.5L68.3,28.3l13.4,14.2h-3.4l-11.3-12v12h-2.6L64.3,16.8L64.3,16.8z"/>
<path class="st0" d="M85.4,24.1l4.1,10.4c0.4,1.2,0.9,2.5,1.2,3.6h0.1c0.3-1.1,0.7-2.4,1.2-3.7l3.7-10.3h3.6l-5.1,12.6
	c-2.4,6-4.1,9.1-6.4,11c-1.6,1.4-3.3,1.9-4.1,2.1l-0.8-2.7c0.8-0.3,2-0.8,2.9-1.6c0.9-0.7,2.1-1.9,2.8-3.6c0.2-0.3,0.3-0.6,0.3-0.8
	c0-0.2-0.1-0.4-0.2-0.8l-6.8-16.2L85.4,24.1L85.4,24.1z"/>
<path class="st0" d="M101.1,30.1c0-2.2-0.1-4-0.1-5.6h3l0.2,3h0.1c1.4-2.1,3.5-3.4,6.5-3.4c4.4,0,7.7,3.5,7.7,8.8
	c0,6.2-4,9.3-8.3,9.3c-2.4,0-4.5-1-5.6-2.7h-0.1v9.4h-3.3L101.1,30.1L101.1,30.1z M104.4,34.7c0,0.5,0.1,0.9,0.2,1.3
	c0.6,2.2,2.6,3.7,5,3.7c3.5,0,5.5-2.7,5.5-6.7c0-3.5-1.9-6.4-5.4-6.4c-2.3,0-4.4,1.5-5,3.9c-0.1,0.4-0.2,0.9-0.2,1.3V34.7
	L104.4,34.7z"/>
<path class="st0" d="M133.9,41.4c-0.8,0.4-2.5,1.1-4.7,1.1c-4.9,0-8.1-3.6-8.1-9s3.4-9.3,8.7-9.3c1.7,0,3.3,0.5,4.1,0.9l-0.7,2.5
	c-0.7-0.4-1.8-0.8-3.4-0.8c-3.7,0-5.7,3-5.7,6.6c0,4.1,2.4,6.6,5.6,6.6c1.7,0,2.8-0.5,3.6-0.9L133.9,41.4L133.9,41.4z"/>
<path d="M151.2,31.2h-9.5v8.6h10.6v2.6h-13.8V18.6h13.2v2.6h-10v7.5h9.5L151.2,31.2L151.2,31.2z"/>
<path d="M155.1,23.2h2.6v8.1l9.4-8.1h3.6L160.4,32l11.1,10.4h-3.7l-9.4-8.9l-0.8,0.7v8.2h-2.6L155.1,23.2L155.1,23.2z"/>
<path d="M187.1,41.4c-0.8,0.4-2.7,1.1-5,1.1c-5.3,0-8.7-3.6-8.7-9s3.7-9.3,9.4-9.3c1.9,0,3.5,0.5,4.4,0.9l-0.7,2.5
	c-0.8-0.4-1.9-0.8-3.7-0.8c-4,0-6.2,3-6.2,6.6c0,4.1,2.6,6.6,6,6.6c1.8,0,3-0.5,3.9-0.9L187.1,41.4L187.1,41.4z"/>
<path d="M204.6,24.1v18.3h-3.2V26.7h-8.3v15.7h-3.2V24.1H204.6z"/>
<path d="M212,33.8c0.1,4.3,2.7,6.1,5.7,6.1c2.2,0,3.5-0.4,4.6-0.9l0.5,2.3c-1.1,0.5-2.9,1.1-5.5,1.1c-5.1,0-8.2-3.6-8.2-8.9
	s3-9.5,7.8-9.5c5.4,0,6.9,5,6.9,8.3c0,0.7-0.1,1.2-0.1,1.5H212z M220.9,31.6c0-2-0.8-5.2-4.2-5.2c-3.1,0-4.4,3-4.6,5.2H220.9z"/>
<path d="M227.6,30.1c0-2.2-0.1-4-0.1-5.6h2.8l0.1,3h0.1c1.3-2.1,3.3-3.4,6.1-3.4c4.2,0,7.3,3.5,7.3,8.8c0,6.2-3.8,9.3-7.9,9.3
	c-2.3,0-4.3-1-5.3-2.7h-0.1v9.4h-3.1L227.6,30.1L227.6,30.1z M230.7,34.7c0,0.5,0.1,0.9,0.1,1.3c0.6,2.2,2.5,3.7,4.7,3.7
	c3.3,0,5.2-2.7,5.2-6.7c0-3.5-1.8-6.4-5.1-6.4c-2.1,0-4.1,1.5-4.7,3.9c-0.1,0.4-0.2,0.9-0.2,1.3V34.7L230.7,34.7z"/>
<path d="M259.5,24.1v2.6h-5.3v15.7h-3.1V26.7h-5.3v-2.6H259.5L259.5,24.1z"/>
<path d="M45.3,26.1c-0.7-2.9-2.2-5.6-3.9-8c-0.3-0.4-3-3-4.2-2.8c-1.5,0.3-2,0.6-1.9,2.1c5.3,2.7,5.8,6.5,6.1,7.5
	c-2.7,0.1-5.7-0.1-8.6,0.2c-2,0.2-3.6,0.6-5.2,1.5c-0.1,0.1-0.4,0.3-0.5,0.3c-0.2,0-0.4-0.2-0.5-0.3c-1.6-0.9-3.1-1.3-5.1-1.5
	c-3-0.3-6-0.1-8.6-0.2c0.2-0.9,0.7-4.7,6.1-7.5c0.1-1.4-0.4-1.8-1.9-2.1c-1.2-0.2-4,2.4-4.2,2.8c-1.7,2.5-3.2,5.2-3.9,8
	c-0.6,2.5-0.3,5.8,0,6.9c0.1,0.7,0.7,2,1.4,2.3c3.3,1.7,11.3,1.2,12.7,0.5c2.1-1,3-2.9,3.6-4.5c0.2-0.4,0.4-0.8,0.6-1.4
	c0.3,0.5,0.5,0.9,0.6,1.4c0.6,1.6,1.4,3.5,3.6,4.5c1.4,0.6,9.4,1.2,12.7-0.5c0.7-0.3,1.2-1.7,1.4-2.3C45.5,31.9,45.9,28.6,45.3,26.1
	L45.3,26.1z M17.8,33.6c-5.7,0-6.4-0.4-6.5-5.5c4.4,0.1,7.6,0,12,0.1C22.7,33.4,22.2,33.6,17.8,33.6L17.8,33.6z M36.2,33.6
	c-4.3,0-4.9-0.3-5.5-5.5c4.3-0.1,7.6,0,12-0.1C42.6,33.2,41.8,33.7,36.2,33.6L36.2,33.6z"/>
<path d="M27,57C12.1,57,0,44.9,0,30S12.1,3,27,3c14.9,0,27,12.1,27,27S41.9,57,27,57z M27,9.4C15.6,9.4,6.4,18.6,6.4,30
	S15.6,50.6,27,50.6S47.6,41.4,47.6,30S38.4,9.4,27,9.4z"/>
</svg>
