<?xml version="1.0" encoding="utf-8"?>
<!-- Generator: Adobe Illustrator 26.3.1, SVG Export Plug-In . SVG Version: 6.00 Build 0)  -->
<svg version="1.1" id="Слой_1" xmlns="http://www.w3.org/2000/svg" xmlns:xlink="http://www.w3.org/1999/xlink" x="0px" y="0px"
	 viewBox="0 0 198 60" style="enable-background:new 0 0 198 60;" xml:space="preserve">
<path d="M24.1,12H20c-2.9,0-6.7,2.7-7.3,7.2l-0.3,2h-11v3.5h10.4L11,29.5H0V33h10.4l-0.6,3.6c0,0.3,0,0.5,0,0.7
	c-0.2,4.5,3.7,6.5,6.3,6.5h3.6c2.9,0,6.8-1.7,7.8-7.2l2.4-17.4c0-0.2,0-0.5,0-0.7C30.4,15.4,28,12,24.1,12L24.1,12z M23.2,19.6
	c0,0.1-2,15.9-2,15.9c-0.1,0.5-0.6,3-1.8,3h-1.2c-1.1-0.1-1.1-1.2-0.9-2.6c0-0.1,2-16.1,2-16.1c0.2-0.9,0.2-2.5,1.7-2.5h0.9
	C23.8,17.3,23.3,18.8,23.2,19.6z"/>
<path d="M47,27.6l4.6,16.2h-7.8l-3.7-14.5L38,43.8h-7.1L35.7,12h7.1l-2.1,14l8-14h7.7L47,27.6z"/>
<path d="M73.6,21.2c-0.1-0.4-0.3-0.7-0.5-1.1c-0.8-1.3-2-2.2-3.4-2.5c-0.4-0.1-0.8-0.1-1.2-0.1h-4c-4.1,0-7.4,3.1-8.1,7.2l-0.1,0.8
	l-1.4,10.9c0,0-0.5,3.3,0.5,5.1c0.8,1.3,1.9,2.4,3.3,2.9c0.6,0.3,1.3,0.4,2.1,0.4h3.6c2.2-0.2,4-0.6,5-1.5c1.3-1,2.1-2.1,2.6-4.4
	l0.1-0.7l0.3-2.2l0.4-2.7h-6.7l-0.2,1.5l0,0.2L65,39.5c-0.1,0.7-0.6,0.9-1.2,0.9h-0.5c-0.5,0-1.2-0.3-1.2-0.8c0-0.1,0-0.1,0-0.2
	l0.4-4.9l0.3-2.6l0.5-3.9l0.5-4.2l0.1-0.4c0.1-0.7,0.3-2.1,1.2-2.1h0.8c0.6,0,0.9,0.6,0.8,1.9c0,0.1-0.4,3.8-0.4,3.8h7
	C73.2,27,73.8,22.2,73.6,21.2L73.6,21.2z"/>
<path d="M95.5,21.9c0,0.3,0,0.6-0.1,1l-2.9,21h-6.8c0,0,2.5-18.2,2.7-19.3c0.2-1.4-0.9-1.9-1.4-1.9H86c-0.6,0-1.7-0.1-2,1.9
	l-2.7,19.2h-6.8L79.4,12h6.8l-1.5,7.6c1-1.3,4-2.1,5.3-2.1h1.1C93.9,17.5,95.5,19.3,95.5,21.9L95.5,21.9z"/>
<path d="M117.3,23.7c0,0.2,0,0.5-0.1,0.8l-3,20.1l-8.1,0.1l0.3-2.3c-0.8,2-3.1,2.5-4.8,2.5H101c-2.9,0-4.6-1.8-4.6-4.5
	c0-0.3,0-0.6,0.1-1l0.5-3.5c0.6-3.7,3.8-4.9,6.9-6.2c3.1-1.3,4.9-2.1,4.9-2.1s0.5-2.5,0.6-3.9c0.1-1,0.1-2.4-1.3-2.4
	c-2,0-2.1,1.9-2.2,2.6l-0.3,2.9h-6.9l0.5-3.9c0.4-3,4.7-5.5,7.8-5.5h3.3C114.5,17.5,117.5,20.4,117.3,23.7z M108,31.9
	c0,0-2.5,0.9-3.3,3.2c-0.6,1.9-0.8,4-0.7,4.7c0.1,0.6,0.4,0.9,1.3,0.8c0.9-0.1,1.5-1.3,1.5-1.3S107.9,34,108,31.9z"/>
<path d="M137.3,21.8c0,0.3,0,0.6-0.1,1l-2.7,21h-6.7c0,0,2.2-17.5,2.3-18.3c0.1-0.5,0.5-2.9-1-2.9h-0.8c-0.8,0.1-1.4,0.7-1.7,2.9
	l-2.4,18.3h-6.2l3.3-26.1h5.4l0,2.7c0.8-1.8,2.4-3,3.9-3h2.5C135.8,17.5,137.3,19.2,137.3,21.8L137.3,21.8z"/>
<path d="M161.8,17.7l-4.1,28.5c-0.4,3.3-3.4,5.8-6.8,5.8h-10.6l0.7-5.2h8.4c0.7,0,1.3-0.5,1.4-1.1l0.5-3.7c-0.9,1.5-2.4,2.4-3.8,2.4
	h-1.9c-2.9,0-5.8-1.8-5.6-5.4c0-0.3,0-0.6,0.1-1l2.3-14.2c0.4-3.2,3.8-6.4,7.1-6.4h2.2c1.6,0,2.8,1.3,3,3.3l1.1-3L161.8,17.7
	L161.8,17.7z M150.1,39.2c1,0,1.5-0.6,1.7-1.6c0,0,1.8-12.5,1.8-12.6c0.3-2,0.1-2.3-1.1-2.3h-1.4c-1.2,0-1.3,0.9-1.5,2.3
	c0,0-1.8,12.3-1.8,12.4c-0.2,1.2,0.3,1.9,1.2,1.9L150.1,39.2L150.1,39.2z"/>
<path d="M180.9,24.4l-1.2,7.8h-10l-0.8,5.6c-0.1,0.7,0.4,1.7,1.3,1.6h0.7c0.9-0.1,1.5-0.9,1.5-1.6l0.5-2.9h6.4l-0.5,2.9
	c-0.4,3-4.5,7-7.3,7h-3.7c-2.9,0-6.2-4-5.9-7l2.1-13.4c0.6-4.6,4.5-7,7.3-7h3.7C177.9,17.5,181.3,19.8,180.9,24.4L180.9,24.4z
	 M170.2,27.7h3.5l0.5-2.9c0.2-1.7-0.3-2.1-1.2-2.1h-0.7c-1.1,0.1-1.4,1.2-1.6,2.1L170.2,27.7z"/>
<path d="M197.3,17.5l-1.4,6.8l-2.3,0.2c-1.3,0.1-1.8,0.8-2.1,2.8l-2.1,16.6h-6.6l3.5-26.4h5.6l0,3.4c0.8-2,2.3-3.4,4.6-3.4
	L197.3,17.5L197.3,17.5z"/>
</svg>
