<?xml version="1.0" encoding="utf-8"?>
<!-- Generator: Adobe Illustrator 26.3.1, SVG Export Plug-In . SVG Version: 6.00 Build 0)  -->
<svg version="1.1" id="Слой_1" xmlns="http://www.w3.org/2000/svg" xmlns:xlink="http://www.w3.org/1999/xlink" x="0px" y="0px"
	 viewBox="0 0 309 60" style="enable-background:new 0 0 309 60;" xml:space="preserve">
<style type="text/css">
	.st0{fill:url(#SVGID_1_);}
	.st1{fill:url(#SVGID_00000081642871548092026160000011199826088880729756_);}
	.st2{fill:#4A4A4A;}
</style>
<linearGradient id="SVGID_1_" gradientUnits="userSpaceOnUse" x1="8.5205" y1="38.2637" x2="55.6016" y2="38.2637" gradientTransform="matrix(1 0 0 -1 0 62)">
	<stop  offset="0.19" style="stop-color:#0C80EF"/>
	<stop  offset="0.54" style="stop-color:#0D64DA"/>
	<stop  offset="1" style="stop-color:#113ABA"/>
</linearGradient>
<path class="st0" d="M55.6,6.5L48.7,0v4.2H8.5v15.6h23.3c2,0,3.7,1.6,3.7,3.7c0,2-1.6,3.7-3.7,3.7H8.5v20.3H13V31.7h18.8
	c0.9,0,1.8-0.2,2.6-0.4c3.2-1.1,5.5-4.1,5.5-7.7c0-3.6-2.3-6.6-5.5-7.7c-0.8-0.3-1.7-0.4-2.6-0.4H13V8.7h35.7V13L55.6,6.5L55.6,6.5z
	"/>
<linearGradient id="SVGID_00000093171866246274895130000000971618375880471987_" gradientUnits="userSpaceOnUse" x1="0" y1="25.9837" x2="54.3256" y2="25.9837" gradientTransform="matrix(1 0 0 -1 0 62)">
	<stop  offset="0" style="stop-color:#93C937"/>
	<stop  offset="1" style="stop-color:#29AC24"/>
</linearGradient>
<path style="fill:url(#SVGID_00000093171866246274895130000000971618375880471987_);" d="M54.3,23.7c0-4.4-1.6-8.5-4.3-11.7h-6.8
	c3.8,2.7,6.3,6.9,6.3,11.7c0,5.6-3.4,10.6-8.5,13c-1.4,0.7-2.9,1-4.5,1H20.9v13.5H7.5V47L0,53.5L7.5,60v-4.2h18.3V42.4h10.4
	c0.7,0,1.4-0.1,2.1-0.2c0.9-0.1,2-0.3,2.5-0.5C48.6,39.1,54.3,32,54.3,23.7L54.3,23.7z"/>
<path class="st2" d="M77.1,21c-1.3,0-2.5,0.3-3.7,0.8c-0.9,0.4-1.7,0.8-2.3,1.4v-1.7h-4V49h4v-8.9c1.3,0.7,2.9,1,4.9,1
	c3,0,5.4-1,7.3-3c1.8-2,2.8-4.5,2.8-7.4c0-2.9-0.8-5.2-2.4-7C82.1,21.9,79.9,21,77.1,21L77.1,21z M81.9,30.9c0,1.9-0.6,3.5-1.7,4.7
	c-1.1,1.2-2.6,1.8-4.5,1.8c-1.7,0-3.3-0.4-4.6-1.3v-9c1.3-1.6,3-2.4,5.1-2.4c1.8,0,3.2,0.6,4.2,1.7C81.4,27.5,81.9,29,81.9,30.9
	L81.9,30.9z"/>
<path class="st2" d="M98.5,21c-1.8,0-3.2,0.6-4.4,1.9v-1.6h-4v19.3h4V27.2c0.9-1.6,2-2.4,3.6-2.4c0.8,0,1.6,0.2,2.4,0.7l0.3,0.2
	l1.4-3.7l-0.2-0.2C101,21.3,99.9,21,98.5,21L98.5,21z"/>
<path class="st2" d="M113.4,21c-3,0-5.5,1-7.5,2.9c-1.9,1.9-2.8,4.3-2.8,7.2c0,2.9,1,5.3,2.8,7.2h0c1.9,1.9,4.4,2.8,7.4,2.8
	c3,0,5.5-1,7.4-2.8c1.9-1.9,2.9-4.3,2.9-7.2c0-2.9-1-5.3-2.9-7.2C118.9,21.9,116.4,21,113.4,21L113.4,21z M117.7,35.6
	c-1.1,1.2-2.6,1.7-4.4,1.7c-1.8,0-3.3-0.6-4.4-1.8c-1.1-1.1-1.7-2.7-1.7-4.5c0-1.9,0.6-3.4,1.7-4.5c1.1-1.2,2.6-1.8,4.4-1.8
	c1.8,0,3.2,0.6,4.4,1.8c1.1,1.2,1.7,2.7,1.7,4.5C119.4,32.8,118.9,34.4,117.7,35.6L117.7,35.6z"/>
<path class="st2" d="M138.9,27.2h-10.6V31h10.6V27.2z"/>
<path class="st2" d="M153.9,21c-3,0-5.5,1-7.5,2.9c-1.9,1.9-2.8,4.3-2.8,7.2c0,2.9,1,5.3,2.8,7.2h0c1.9,1.9,4.4,2.8,7.4,2.8
	c3,0,5.5-1,7.4-2.8c1.9-1.9,2.9-4.3,2.9-7.2c0-2.9-1-5.3-2.9-7.2C159.4,21.9,157,21,153.9,21L153.9,21z M158.3,35.6
	c-1.1,1.2-2.6,1.7-4.4,1.7c-1.8,0-3.3-0.6-4.4-1.8c-1.1-1.1-1.7-2.7-1.7-4.5c0-1.9,0.6-3.4,1.7-4.5c1.1-1.2,2.6-1.8,4.4-1.8
	c1.8,0,3.2,0.6,4.4,1.8c1.1,1.2,1.7,2.7,1.7,4.5C160,32.8,159.4,34.4,158.3,35.6L158.3,35.6z"/>
<path class="st2" d="M177.8,21c-1.1,0-2.2,0.2-3.3,0.6c-0.8,0.3-1.6,0.7-2.2,1.2V11h-4v27.8l0.1,0.1c2,1.5,4.6,2.2,7.8,2.2
	c3.2,0,5.8-0.9,7.8-2.8c1.9-1.9,2.9-4.4,2.9-7.6c0-2.9-0.8-5.3-2.5-7.1C182.9,21.9,180.6,21,177.8,21L177.8,21z M181,35.6
	c-1.2,1.1-2.7,1.7-4.6,1.7c-1.6,0-3-0.4-4.2-1.1v-9.3c0.5-0.6,1.2-1.1,2-1.5c0.9-0.4,1.8-0.7,2.7-0.7c1.8,0,3.2,0.6,4.2,1.7
	c1,1.1,1.6,2.7,1.6,4.6S182.2,34.5,181,35.6L181,35.6z"/>
<path class="st2" d="M213.1,21c-1.4,0-2.7,0.3-3.9,0.9c-1,0.5-1.9,1.2-2.6,2c-0.4-0.8-1.1-1.5-1.9-2c-1-0.6-2.3-0.9-3.8-0.9
	c-1.2,0-2.4,0.3-3.6,0.8c-0.9,0.4-1.6,0.9-2.2,1.4v-1.9h-4v19.3h4V27.1c1.1-1.6,2.6-2.3,4.6-2.3c1.1,0,2.1,0.3,2.7,0.9
	c0.6,0.6,1,1.5,1,2.6v12.4h4V28.5c0-0.8,0-1.1,0-1.3c0.4-0.7,1-1.3,1.8-1.7c0.8-0.5,1.7-0.7,2.8-0.7c2.5,0,3.7,1.4,3.7,4.2v11.7h4
	V28.1C219.5,23.4,217.3,21,213.1,21z"/>
<path class="st2" d="M239.5,23.5c-1.7-1.7-3.8-2.5-6.4-2.5c-3.1,0-5.6,1-7.3,2.9c-1.8,1.9-2.7,4.3-2.7,7.2c0,3,1,5.5,2.8,7.3
	c1.9,1.8,4.4,2.7,7.5,2.7c2.9,0,5.4-0.9,7.2-2.5l0.2-0.2l-1.3-3.3l-0.4,0.3c-1.3,1.2-3.2,1.9-5.5,1.9c-1.8,0-3.2-0.5-4.3-1.4
	c-1-0.9-1.6-2-1.8-3.5h14.3l0.1-0.3c0.1-0.7,0.2-1.5,0.2-2.3C242.1,27.2,241.2,25.1,239.5,23.5L239.5,23.5z M229.1,26
	c1-0.9,2.3-1.3,3.8-1.3c1.5,0,2.7,0.4,3.6,1.2c0.8,0.8,1.3,1.8,1.4,3.1h-10.6C227.6,27.8,228.2,26.8,229.1,26z"/>
<path class="st2" d="M255.7,21c-1.2,0-2.4,0.3-3.5,0.8c-0.9,0.4-1.6,0.8-2.3,1.4v-1.8h-4v19.3h4V27c1.3-1.5,3-2.2,4.9-2.2
	c3.3,0,4.9,1.8,4.9,5.4v10.5h4V29.6C263.8,23.9,261.1,21,255.7,21L255.7,21z"/>
<path class="st2" d="M270.5,35.6c-0.8,0-1.4,0.3-1.9,0.8c-0.5,0.5-0.8,1.1-0.8,1.8c0,0.8,0.3,1.4,0.8,1.9c0.5,0.5,1.2,0.8,1.9,0.8
	c0.8,0,1.3-0.3,1.8-0.8c0.5-0.5,0.7-1.2,0.7-1.9c0-0.7-0.3-1.3-0.8-1.8C271.8,35.9,271.2,35.6,270.5,35.6L270.5,35.6z"/>
<path class="st2" d="M285.8,21c-1.8,0-3.2,0.6-4.4,1.9v-1.6h-4v19.3h4V27.2c0.9-1.6,2-2.4,3.6-2.4c0.8,0,1.6,0.2,2.4,0.7l0.3,0.2
	l1.4-3.7l-0.2-0.2C288.2,21.3,287.2,21,285.8,21L285.8,21z"/>
<path class="st2" d="M304.6,21.4v13.4c-0.6,0.7-1.3,1.4-2.2,1.8c-0.9,0.5-1.9,0.7-2.8,0.7c-3,0-4.5-1.7-4.5-5.3V21.4h-4v11.4
	c0,2.7,0.6,4.8,1.9,6.2c1.3,1.4,3.1,2.1,5.3,2.1c2.5,0,4.6-0.9,6.3-2.6v2.1h4V21.4L304.6,21.4L304.6,21.4z"/>
</svg>
