<?xml version="1.0" encoding="utf-8"?>
<!-- Generator: Adobe Illustrator 26.3.1, SVG Export Plug-In . SVG Version: 6.00 Build 0)  -->
<svg version="1.1" id="Слой_1" xmlns="http://www.w3.org/2000/svg" xmlns:xlink="http://www.w3.org/1999/xlink" x="0px" y="0px"
	 viewBox="0 0 283 60" style="enable-background:new 0 0 283 60;" xml:space="preserve">
<style type="text/css">
	.st0{fill:#4A4A4A;}
	.st1{fill:url(#SVGID_1_);}
	.st2{fill:#0A85CB;}
	.st3{fill:url(#SVGID_00000001646780617406479180000009082313109986431894_);}
</style>
<path class="st0" d="M115.7,27.1h6.3L115.7,47h-5.5L107,36.4L103.8,47h-5.5L92,27.1h6.3l2.8,10.7l3.1-10.7h5.5l3.1,10.7L115.7,27.1
	L115.7,27.1z"/>
<path class="st0" d="M128.8,39.5c0.7,1.9,2.3,2.8,4.7,2.8c1.6,0,2.9-0.5,3.8-1.5l4.7,2.7c-1.9,2.7-4.8,4.1-8.6,4.1c-3.3,0-6-1-7.9-3
	s-3-4.5-3-7.5c0-3,1-5.5,2.9-7.5c2-2,4.5-3,7.6-3c2.9,0,5.3,1,7.2,3c1.9,2,2.9,4.5,2.9,7.5c0,0.8-0.1,1.6-0.2,2.4L128.8,39.5
	L128.8,39.5z M128.7,35h8.5c-0.6-2.1-2-3.1-4.2-3.1S129.3,32.9,128.7,35z"/>
<path class="st0" d="M146.4,47V18h5.9v29H146.4z"/>
<path class="st0" d="M156.7,47V18h5.9v29H156.7z"/>
<path class="st0" d="M176.4,47.6c-3,0-5.5-1-7.5-3c-2-2-3-4.5-3-7.5c0-3,1-5.5,3-7.5c2-2,4.5-3,7.5-3c1.9,0,3.6,0.5,5.2,1.4
	c1.6,0.9,2.8,2.2,3.7,3.7l-5.2,3c-0.7-1.5-2-2.2-3.8-2.2c-1.3,0-2.4,0.4-3.2,1.3c-0.8,0.9-1.3,2-1.3,3.3c0,1.4,0.4,2.5,1.3,3.3
	c0.8,0.9,1.9,1.3,3.2,1.3c1.9,0,3.1-0.7,3.8-2.2l5.2,3c-0.9,1.6-2.1,2.8-3.7,3.7C180.1,47.1,178.3,47.6,176.4,47.6z"/>
<path class="st0" d="M193.8,30.7c0.4-1.3,1.1-2.2,2.2-2.9c1.1-0.7,2.3-1,3.7-1v6.8c-1.4-0.2-2.8,0-4,0.7c-1.2,0.7-1.9,2-1.9,3.8v9
	h-5.9V27.1h5.9L193.8,30.7L193.8,30.7z"/>
<path class="st0" d="M215.3,27.1h6.3l-6.7,19.3c-1.1,3.1-2.6,5.4-4.4,6.7c-1.8,1.4-4.1,2-6.9,1.8v-5.6c1.4,0,2.4-0.2,3.2-0.7
	c0.7-0.5,1.3-1.3,1.8-2.6l-7.8-19h6.5l4.4,12.2L215.3,27.1L215.3,27.1z"/>
<path class="st0" d="M235.5,26.6c2.6,0,4.8,1,6.7,3c1.8,2,2.8,4.5,2.8,7.5c0,2.9-0.9,5.4-2.8,7.5c-1.8,2-4.1,3-6.7,3
	c-2.6,0-4.5-0.8-5.9-2.4V55h-5.9V27.1h5.9V29C231.1,27.4,233,26.6,235.5,26.6z M231,40.6c0.9,0.9,2,1.3,3.4,1.3
	c1.4,0,2.5-0.4,3.4-1.3c0.9-0.9,1.3-2.1,1.3-3.5c0-1.5-0.4-2.7-1.3-3.5c-0.9-0.9-2-1.3-3.4-1.3c-1.4,0-2.5,0.4-3.4,1.3
	c-0.9,0.9-1.3,2.1-1.3,3.5C229.7,38.6,230.1,39.8,231,40.6z"/>
<path class="st0" d="M259.5,32.9h-4.1v7c0,0.8,0.3,1.3,0.9,1.5c0.6,0.2,1.7,0.3,3.1,0.2V47c-3.8,0.4-6.4,0-7.8-1.1
	c-1.4-1.1-2.2-3.1-2.2-6v-7h-3.2v-5.7h3.2v-3.8l5.9-1.8v5.6h4.1V32.9z"/>
<path class="st0" d="M279.3,44.5c-2,2-4.5,3-7.4,3c-2.9,0-5.4-1-7.4-3c-2-2-3-4.5-3-7.5c0-2.9,1-5.4,3-7.5c2-2,4.5-3,7.4-3
	c2.9,0,5.4,1,7.4,3c2,2,3,4.5,3,7.5C282.3,40,281.3,42.5,279.3,44.5z M268.7,40.5c0.9,0.9,1.9,1.3,3.2,1.3c1.3,0,2.4-0.4,3.2-1.3
	c0.9-0.9,1.3-2,1.3-3.4s-0.4-2.5-1.3-3.4c-0.9-0.9-1.9-1.3-3.2-1.3c-1.3,0-2.4,0.4-3.2,1.3c-0.9,0.9-1.3,2-1.3,3.4
	S267.8,39.6,268.7,40.5z"/>
<linearGradient id="SVGID_1_" gradientUnits="userSpaceOnUse" x1="53.5195" y1="43.8828" x2="76.4713" y2="43.8828" gradientTransform="matrix(1 0 0 -1 0 62)">
	<stop  offset="0" style="stop-color:#FFEB00"/>
	<stop  offset="1" style="stop-color:#CF4FFF"/>
</linearGradient>
<path class="st1" d="M73.6,4c-0.3-1.5-1.8-2.4-3.2-1.8L57.3,7.6l-3,1.2c-1.2,0.5-1,2.2,0.3,2.4c1.5,0.3,3.3,0.7,5.2,1.2
	c0,0,0.1,0,0.2,0l-0.1,0.1c1.8,4.2,2.7,8.9,2.7,13.8c0,2.7-0.3,5.3-0.9,7.8l8.9-15.7c1.3,1.1,2.5,2.3,3.6,3.5c0.8,1,2.4,0.2,2.2-1
	L73.6,4L73.6,4z"/>
<path class="st2" d="M62.6,26.4c0-4.9-1-9.5-2.7-13.8l-1.6,2.8c2.5,4,3.9,8.7,3.9,13.7c0,1.8-0.2,3.5-0.5,5.2l0.1-0.1
	C62.3,31.7,62.6,29.1,62.6,26.4z"/>
<linearGradient id="SVGID_00000076590548084219499880000017388281836396464792_" gradientUnits="userSpaceOnUse" x1="8.3507" y1="46.0311" x2="83.8561" y2="-7.0653" gradientTransform="matrix(1 0 0 -1 0 62)">
	<stop  offset="0" style="stop-color:#42E7DF"/>
	<stop  offset="1" style="stop-color:#245CE2"/>
</linearGradient>
<path style="fill:url(#SVGID_00000076590548084219499880000017388281836396464792_);" d="M58.3,15.4L46.4,36.5l-8.7-19
	c-0.8-1.8-2.4-3-4.2-3.4c-0.4-0.1-0.9-0.1-1.3-0.1c-2.4,0-4.6,1.4-5.6,3.6L25,20.9l-0.9,2l-6.7,14.6L17,36.8l-5.6-9.8L11,26.1
	c-0.7-1.2-2.2-1.6-3.4-0.9l-6.3,3.6c-1.2,0.7-1.6,2.2-0.9,3.5l12.3,21.7c1.1,1.9,3.1,3.1,5.3,3.1c0.1,0,0.2,0,0.3,0
	c0.3,0,0.6-0.1,0.9-0.1c1.9-0.4,3.6-1.6,4.4-3.5l0.9-1.9l7.7-16.8l0.3,0.7l7.8,17.1c0.3,0.7,0.7,1.3,1.2,1.8
	c1.1,1.1,2.5,1.7,4.1,1.8c0.5,0,1,0,1.4-0.1c1.7-0.3,3.3-1.4,4.2-3l0.4-0.6l2.4-4.3l7.8-13.8c0.3-1.7,0.5-3.4,0.5-5.2
	C62.2,24.1,60.8,19.4,58.3,15.4L58.3,15.4z"/>
</svg>
