<svg xmlns="http://www.w3.org/2000/svg" viewBox="0 0 41 40" width="41" height="40"><g xmlns="http://www.w3.org/2000/svg" transform="matrix(0 1 -1 0 41 -0)"><g clip-path="url(#clip0_5966_23556)"><mask id="mask0_5966_23556" style="mask-type:alpha" maskUnits="userSpaceOnUse" x="0" y="0" width="40" height="41"><rect y="0.5" width="40" height="40" fill="#D9D9D9" /></mask><g mask="url(#mask0_5966_23556)"><path fill-rule="evenodd" clip-rule="evenodd" d="M32.8038 15.423C33.3929 16.9775 33.6875 18.6712 33.6875 20.5042C33.6875 22.1066 33.4549 23.6037 32.9896 24.9955C32.5243 26.3874 31.7014 27.8541 30.5208 29.3958C28.8219 28.2857 27.1324 27.4144 25.4522 26.7819C23.7721 26.1495 21.9608 25.8333 20.0181 25.8333C18.0755 25.8333 16.2743 26.1388 14.6146 26.75C12.9549 27.3611 11.2624 28.243 9.53708 29.3958C8.31942 27.8384 7.47757 26.3671 7.01154 24.982C6.54551 23.5968 6.3125 22.1042 6.3125 20.5042C6.3125 16.6334 7.62847 13.3837 10.2604 10.7552C12.8924 8.12671 16.1413 6.81245 20.0072 6.81245C21.1722 6.81245 22.2809 6.93179 23.3333 7.17046C23.3333 7.16919 23.3333 7.16792 23.3333 7.16666C23.3333 5.84175 23.6425 4.58906 24.1927 3.47681C22.8417 3.13112 21.449 2.95828 20.0145 2.95828C17.6048 2.95828 15.3402 3.42703 13.2208 4.36453C11.1014 5.30203 9.24671 6.56437 7.65679 8.15153C6.06687 9.7387 4.80993 11.6005 3.88596 13.7368C2.96199 15.8732 2.5 18.1227 2.5 20.4854C2.5 22.8936 2.95908 25.1567 3.87725 27.2748C4.79544 29.3929 6.05239 31.2509 7.64808 32.8487C9.24381 34.4465 11.1048 35.7045 13.2311 36.6227C15.3574 37.5409 17.6086 37.9999 19.9848 37.9999C22.3587 37.9999 24.6144 37.5381 26.752 36.6145C28.8895 35.6909 30.7533 34.4355 32.3432 32.8484C33.9331 31.2612 35.197 29.4029 36.1349 27.2735C37.0727 25.1441 37.5417 22.8913 37.5417 20.5152C37.5417 18.2724 37.1233 16.1351 36.2865 14.1033C35.2627 14.7865 34.0792 15.249 32.8038 15.423ZM15.778 20.2966C16.9077 21.4322 18.3133 21.9999 19.9945 21.9999C21.6758 21.9999 23.0832 21.434 24.2166 20.302C25.35 19.1701 25.9167 17.7726 25.9167 16.1096C25.9167 14.4465 25.3518 13.0403 24.222 11.8908C23.0923 10.7414 21.6867 10.1666 20.0055 10.1666C18.3242 10.1666 16.9168 10.7395 15.7834 11.8854C14.65 13.0312 14.0833 14.4356 14.0833 16.0987C14.0833 17.7617 14.6482 19.161 15.778 20.2966ZM24.0938 33.6145C22.7951 33.9965 21.4301 34.1875 19.9988 34.1875C18.5674 34.1875 17.2097 33.9965 15.9258 33.6145C14.6419 33.2326 13.2778 32.5277 11.8333 31.4999C13.2917 30.5138 14.6603 29.7986 15.9392 29.3541C17.218 28.9097 18.5725 28.6874 20.0025 28.6874C21.4325 28.6874 22.7896 28.9131 24.0738 29.3645C25.3579 29.8159 26.7361 30.5277 28.2083 31.4999C26.7639 32.5277 25.3924 33.2326 24.0938 33.6145ZM22.1639 18.2708C21.5926 18.8263 20.8713 19.1041 20 19.1041C19.1287 19.1041 18.4074 18.8263 17.8361 18.2708C17.2648 17.7152 16.9792 16.993 16.9792 16.1041C16.9792 15.2152 17.2648 14.4861 17.8361 13.9166C18.4074 13.3472 19.1287 13.0624 20 13.0624C20.8713 13.0624 21.5926 13.3472 22.1639 13.9166C22.7352 14.4861 23.0208 15.2152 23.0208 16.1041C23.0208 16.993 22.7352 17.7152 22.1639 18.2708Z" fill="white" /></g><path d="M31.668 12.1667C34.4294 12.1667 36.668 9.92808 36.668 7.16666C36.668 4.40523 34.4294 2.16666 31.668 2.16666C28.9065 2.16666 26.668 4.40523 26.668 7.16666C26.668 9.92808 28.9065 12.1667 31.668 12.1667Z" fill="#45DC93" /></g><defs><clipPath id="clip0_5966_23556"><rect width="40" height="40" fill="white" transform="translate(0 0.5)" /></clipPath></defs></g></svg>