<svg width="32" height="33" viewBox="0 0 32 33" fill="none" xmlns="http://www.w3.org/2000/svg">
<g clip-path="url(#clip0_4771_83982)">
<mask id="mask0_4771_83982" style="mask-type:alpha" maskUnits="userSpaceOnUse" x="0" y="0" width="32" height="33">
<rect y="0.130859" width="32" height="32" fill="#D9D9D9"/>
</mask>
<g mask="url(#mask0_4771_83982)">
<path fill-rule="evenodd" clip-rule="evenodd" d="M26.2431 12.0695C26.7143 13.313 26.95 14.668 26.95 16.1344C26.95 17.4163 26.7639 18.614 26.3917 19.7275C26.0194 20.8409 25.3611 22.0143 24.4167 23.2477C23.0575 22.3596 21.7059 21.6625 20.3618 21.1566C19.0177 20.6506 17.5686 20.3977 16.0145 20.3977C14.4604 20.3977 13.0194 20.6421 11.6917 21.131C10.3639 21.6199 9.00989 22.3254 7.62967 23.2477C6.65553 22.0017 5.98206 20.8247 5.60923 19.7166C5.23641 18.6085 5.05 17.4144 5.05 16.1344C5.05 13.0377 6.10278 10.438 8.20833 8.33522C10.3139 6.2324 12.913 5.18099 16.0058 5.18099C16.9378 5.18099 17.8247 5.27646 18.6667 5.4674C18.6667 5.46638 18.6667 5.46537 18.6667 5.46435C18.6667 4.40443 18.914 3.40228 19.3541 2.51247C18.2734 2.23593 17.1592 2.09766 16.0116 2.09766C14.0838 2.09766 12.2722 2.47266 10.5766 3.22266C8.8811 3.97266 7.39737 4.98252 6.12543 6.25226C4.8535 7.52199 3.84794 9.0114 3.10877 10.7205C2.36959 12.4296 2 14.2292 2 16.1194C2 18.0459 2.36727 19.8564 3.1018 21.5509C3.83636 23.2454 4.84191 24.7317 6.11847 26.01C7.39504 27.2882 8.88386 28.2946 10.5849 29.0292C12.2859 29.7637 14.0869 30.131 15.9878 30.131C17.8869 30.131 19.6915 29.7615 21.4016 29.0227C23.1116 28.2838 24.6026 27.2795 25.8746 26.0097C27.1465 24.74 28.1576 23.2534 28.9079 21.5498C29.6582 19.8463 30.0333 18.0441 30.0333 16.1432C30.0333 14.3489 29.6986 12.6391 29.0292 11.0136C28.2102 11.5602 27.2633 11.9303 26.2431 12.0695ZM12.6224 15.9683C13.5262 16.8768 14.6506 17.331 15.9956 17.331C17.3407 17.331 18.4666 16.8782 19.3733 15.9727C20.28 15.0671 20.7333 13.9491 20.7333 12.6187C20.7333 11.2882 20.2814 10.1632 19.3776 9.24369C18.4738 8.32411 17.3494 7.86432 16.0044 7.86432C14.6593 7.86432 13.5334 8.32266 12.6267 9.23932C11.72 10.156 11.2667 11.2795 11.2667 12.61C11.2667 13.9404 11.7186 15.0598 12.6224 15.9683ZM19.275 26.6227C18.2361 26.9282 17.1441 27.081 15.999 27.081C14.8539 27.081 13.7678 26.9282 12.7407 26.6227C11.7136 26.3171 10.6222 25.7532 9.46667 24.931C10.6333 24.1421 11.7282 23.5699 12.7513 23.2143C13.7744 22.8588 14.858 22.681 16.002 22.681C17.146 22.681 18.2317 22.8615 19.259 23.2227C20.2863 23.5838 21.3889 24.1532 22.5667 24.931C21.4111 25.7532 20.3139 26.3171 19.275 26.6227ZM17.7311 14.3477C17.2741 14.7921 16.697 15.0143 16 15.0143C15.303 15.0143 14.7259 14.7921 14.2689 14.3477C13.8119 13.9032 13.5833 13.3254 13.5833 12.6143C13.5833 11.9032 13.8119 11.3199 14.2689 10.8643C14.7259 10.4088 15.303 10.181 16 10.181C16.697 10.181 17.2741 10.4088 17.7311 10.8643C18.1881 11.3199 18.4167 11.9032 18.4167 12.6143C18.4167 13.3254 18.1881 13.9032 17.7311 14.3477Z" fill="white"/>
</g>
<path d="M25.3335 9.46387C27.5426 9.46387 29.3335 7.67301 29.3335 5.46387C29.3335 3.25473 27.5426 1.46387 25.3335 1.46387C23.1244 1.46387 21.3335 3.25473 21.3335 5.46387C21.3335 7.67301 23.1244 9.46387 25.3335 9.46387Z" fill="#45DC93"/>
</g>
<defs>
<clipPath id="clip0_4771_83982">
<rect width="32" height="32" fill="white" transform="translate(0 0.130859)"/>
</clipPath>
</defs>
</svg>
