<svg width="32" height="32" viewBox="0 0 32 32" fill="none" xmlns="http://www.w3.org/2000/svg">
<g clip-path="url(#clip0_21_73260)">
<mask id="mask0_21_73260" style="mask-type:alpha" maskUnits="userSpaceOnUse" x="0" y="0" width="32" height="32">
<rect width="32" height="32" fill="#D9D9D9"/>
</mask>
<g mask="url(#mask0_21_73260)">
<path fill-rule="evenodd" clip-rule="evenodd" d="M26.2431 11.9386C26.7143 13.1821 26.95 14.5371 26.95 16.0035C26.95 17.2855 26.7639 18.4832 26.3917 19.5966C26.0194 20.7101 25.3611 21.8835 24.4167 23.1168C23.0575 22.2287 21.7059 21.5317 20.3618 21.0257C19.0177 20.5198 17.5686 20.2668 16.0145 20.2668C14.4604 20.2668 13.0194 20.5112 11.6917 21.0001C10.3639 21.489 9.00989 22.1946 7.62967 23.1168C6.65553 21.8709 5.98206 20.6939 5.60923 19.5858C5.23641 18.4776 5.05 17.2835 5.05 16.0035C5.05 12.9069 6.10278 10.3072 8.20833 8.20436C10.3139 6.10154 12.913 5.05013 16.0058 5.05013C16.9378 5.05013 17.8247 5.1456 18.6667 5.33654C18.6667 5.33553 18.6667 5.33451 18.6667 5.3335C18.6667 4.27357 18.914 3.27142 19.3541 2.38161C18.2734 2.10507 17.1592 1.9668 16.0116 1.9668C14.0838 1.9668 12.2722 2.3418 10.5766 3.0918C8.8811 3.8418 7.39737 4.85166 6.12543 6.1214C4.8535 7.39113 3.84794 8.88054 3.10877 10.5896C2.36959 12.2987 2 14.0983 2 15.9885C2 17.9151 2.36727 19.7256 3.1018 21.42C3.83636 23.1145 4.84191 24.6009 6.11847 25.8791C7.39504 27.1573 8.88386 28.1638 10.5849 28.8983C12.2859 29.6329 14.0869 30.0001 15.9878 30.0001C17.8869 30.0001 19.6915 29.6307 21.4016 28.8918C23.1116 28.1529 24.6026 27.1486 25.8746 25.8789C27.1465 24.6091 28.1576 23.1225 28.9079 21.419C29.6582 19.7155 30.0333 17.9132 30.0333 16.0123C30.0333 14.2181 29.6986 12.5082 29.0292 10.8828C28.2102 11.4293 27.2633 11.7994 26.2431 11.9386ZM12.6224 15.8374C13.5262 16.7459 14.6506 17.2001 15.9956 17.2001C17.3407 17.2001 18.4666 16.7474 19.3733 15.8418C20.28 14.9362 20.7333 13.8183 20.7333 12.4878C20.7333 11.1574 20.2814 10.0324 19.3776 9.11283C18.4738 8.19325 17.3494 7.73346 16.0044 7.73346C14.6593 7.73346 13.5334 8.1918 12.6267 9.10846C11.72 10.0251 11.2667 11.1487 11.2667 12.4791C11.2667 13.8095 11.7186 14.929 12.6224 15.8374ZM19.275 26.4918C18.2361 26.7974 17.1441 26.9501 15.999 26.9501C14.8539 26.9501 13.7678 26.7974 12.7407 26.4918C11.7136 26.1862 10.6222 25.6224 9.46667 24.8001C10.6333 24.0112 11.7282 23.439 12.7513 23.0835C13.7744 22.7279 14.858 22.5501 16.002 22.5501C17.146 22.5501 18.2317 22.7307 19.259 23.0918C20.2863 23.4529 21.3889 24.0224 22.5667 24.8001C21.4111 25.6224 20.3139 26.1862 19.275 26.4918ZM17.7311 14.2168C17.2741 14.6612 16.697 14.8835 16 14.8835C15.303 14.8835 14.7259 14.6612 14.2689 14.2168C13.8119 13.7724 13.5833 13.1946 13.5833 12.4835C13.5833 11.7724 13.8119 11.189 14.2689 10.7335C14.7259 10.2779 15.303 10.0501 16 10.0501C16.697 10.0501 17.2741 10.2779 17.7311 10.7335C18.1881 11.189 18.4167 11.7724 18.4167 12.4835C18.4167 13.1946 18.1881 13.7724 17.7311 14.2168Z" fill="#26BB7D"/>
</g>
<path d="M25.3335 9.33301C27.5426 9.33301 29.3335 7.54215 29.3335 5.33301C29.3335 3.12387 27.5426 1.33301 25.3335 1.33301C23.1244 1.33301 21.3335 3.12387 21.3335 5.33301C21.3335 7.54215 23.1244 9.33301 25.3335 9.33301Z" fill="#45DC93"/>
<path d="M25.3335 9.33301C27.5426 9.33301 29.3335 7.54215 29.3335 5.33301C29.3335 3.12387 27.5426 1.33301 25.3335 1.33301C23.1244 1.33301 21.3335 3.12387 21.3335 5.33301C21.3335 7.54215 23.1244 9.33301 25.3335 9.33301Z" fill="#26BB7D" fill-opacity="0.2"/>
</g>
<defs>
<clipPath id="clip0_21_73260">
<rect width="32" height="32" fill="white"/>
</clipPath>
</defs>
</svg>
