<svg width="141" height="140" viewBox="0 0 141 140" fill="none" xmlns="http://www.w3.org/2000/svg">
<path d="M56.0124 102.471C55.1795 102.107 54.8699 101.493 54.8432 100.575C54.7578 97.3504 53.7167 94.478 51.5063 92.0647C48.0679 88.3167 45.7508 83.9707 44.8111 78.9627C44.0476 74.9157 44.5762 70.9808 46.2099 67.1954C46.274 67.0513 46.3541 66.9178 46.4395 66.7363C48.4844 68.2579 50.6841 69.4111 53.092 70.1586C64.4855 73.6984 76.7867 67.0993 79.894 55.5776C80.9618 51.6107 83.6527 49.8222 87.2405 48.8131C87.7478 48.6689 88.271 48.6048 88.7889 48.5141C89.547 48.3806 90.2144 48.5301 90.6629 49.2135C91.106 49.8862 90.9298 50.5216 90.6095 51.221C90.0969 52.3368 89.5363 53.4794 89.3335 54.6647C89.1466 55.7325 89.3922 56.8804 89.499 57.9856C89.5203 58.1884 89.7659 58.3913 89.9528 58.5515C93.1402 61.2691 95.5428 64.5312 96.9416 68.5035C97.0697 68.8612 97.2513 69.0054 97.641 68.984C98.2123 68.952 98.7889 68.9573 99.3602 68.9893C100.812 69.0694 101.976 70.196 102.003 71.6482C102.046 74.0561 102.04 76.464 102.003 78.8719C101.982 80.3241 100.818 81.456 99.3655 81.5361C98.6608 81.5735 97.7958 81.3599 97.2993 81.7016C96.8348 82.022 96.7814 82.9243 96.5145 83.5543C95.1477 86.8271 93.0868 89.6087 90.428 91.9366C88.0574 94.0081 86.7707 96.5335 86.9255 99.7263C86.9362 99.9345 86.9095 100.143 86.9255 100.346C87.011 101.269 86.712 101.995 85.8791 102.465H75.6922C74.8326 102.081 74.4802 101.419 74.555 100.484C74.603 99.9238 74.5656 99.3579 74.5656 98.7973H67.1711C67.1711 99.3365 67.1337 99.9078 67.1817 100.474C67.2565 101.408 66.9094 102.07 66.0552 102.465H56.0071L56.0124 102.471ZM87.5395 64.8729C86.2475 64.8836 85.2437 65.914 85.2704 67.2061C85.2971 68.4715 86.2955 69.4485 87.5609 69.4485C88.8529 69.4485 89.878 68.4287 89.8674 67.1474C89.862 65.8607 88.8369 64.8623 87.5342 64.8729H87.5395Z" fill="#4D7BF1"/>
<path d="M77.1182 49.7311C77.1395 59.5069 69.211 67.4674 59.4246 67.4941C49.6594 67.5208 41.7043 59.587 41.6669 49.7898C41.6295 39.998 49.5366 32.0375 59.3231 32.0001C69.1363 31.9681 77.0915 39.8965 77.1128 49.7311H77.1182ZM59.2057 61.8667C60.7807 61.8721 60.8127 61.8454 60.8074 60.2597C60.8074 60.2383 60.8074 60.2116 60.8074 60.1903C60.8038 59.3289 61.2096 58.747 62.0247 58.4444C65.9382 57.0029 66.9419 52.1764 63.84 49.4374C63.0711 48.754 62.0621 48.3323 61.1331 47.8464C60.2842 47.4033 59.3765 47.0669 58.5329 46.6184C57.8762 46.266 57.4011 45.7268 57.5612 44.8939C57.6894 44.2319 58.3194 43.7674 59.211 43.6659C60.5671 43.5057 61.8538 43.7567 63.0978 44.3013C63.9254 44.6643 64.0268 44.6163 64.3044 43.7353C64.4646 43.2335 64.5981 42.7262 64.769 42.2244C64.9932 41.573 64.7796 41.1459 64.1283 40.959C63.2954 40.7188 62.4625 40.4732 61.6136 40.2863C61.1437 40.1849 60.9355 39.966 60.9622 39.4961C60.9729 39.2665 60.9622 39.037 60.9515 38.8074C60.9302 37.7075 60.8287 37.6008 59.7129 37.5847C57.62 37.558 57.9083 37.6114 57.9243 39.2932C57.9243 40.03 57.7321 40.5159 56.9579 40.7081C56.5682 40.8042 56.1944 41.0178 55.8367 41.2206C52.644 43.0306 52.3023 47.3072 55.2548 49.4748C56.3066 50.2436 57.5986 50.6921 58.7785 51.2901C59.3872 51.5998 60.0439 51.856 60.5885 52.2565C61.8165 53.1641 61.6029 54.7444 60.172 55.2944C59.6114 55.5079 58.9387 55.6628 58.3674 55.5613C57.1181 55.3264 55.8901 54.9527 54.6835 54.5522C54.1336 54.3707 53.8613 54.4508 53.7064 54.99C53.5249 55.6307 53.338 56.2661 53.1619 56.9068C53.0177 57.4247 53.1725 57.8197 53.6904 58.0119C54.3525 58.2575 55.0198 58.5031 55.6979 58.7114C56.2852 58.8875 57.1127 58.8288 57.4224 59.2079C57.7534 59.619 57.636 60.4145 57.668 61.0445C57.6947 61.6211 57.9723 61.8774 58.5329 61.8774C58.7625 61.8774 58.9921 61.8774 59.2217 61.8774L59.2057 61.8667Z" fill="#4D7BF1"/>
</svg>
