<svg width="141" height="140" viewBox="0 0 141 140" fill="none" xmlns="http://www.w3.org/2000/svg">
<path d="M82.9366 34.0098C84.582 34.9089 84.8668 35.7737 84.0957 37.5181C81.5074 43.3622 78.919 49.2062 76.3307 55.0502C76.2177 55.3043 76.1244 55.5633 75.9918 55.8906C76.2963 55.9053 76.5419 55.9249 76.7923 55.9249C81.9052 55.9249 87.0132 55.9346 92.126 55.92C93.0887 55.92 93.904 56.1203 94.4001 57.0145C94.8961 57.9087 94.6407 58.71 94.1201 59.5114C84.3953 74.5563 74.6804 89.6062 64.9655 104.656C64.9163 104.734 64.8672 104.812 64.8132 104.891C64.1403 105.882 63.1187 106.244 62.1315 105.834C61.1198 105.413 60.6384 104.402 60.9184 103.21C61.2867 101.661 61.6895 100.121 62.0726 98.5774C64.0077 90.8375 65.9428 83.0976 67.8731 75.3528C67.9222 75.1525 67.9516 74.9472 68.0057 74.6541H67.1167C61.1345 74.6541 55.1523 74.6003 49.1701 74.6883C47.4167 74.7127 46.1151 73.3445 46.901 71.346C51.562 59.4967 56.1591 47.6279 60.7563 35.7542C61.0854 34.9089 61.5913 34.3078 62.4459 34H82.9415L82.9366 34.0098Z" fill="#4D7BF1"/>
</svg>
