<svg width="141" height="140" viewBox="0 0 141 140" fill="none" xmlns="http://www.w3.org/2000/svg">
<path d="M65.4088 38C66.7334 38.1662 68.0633 38.2896 69.3771 38.5094C73.0343 39.1315 76.5199 40.2362 79.5658 42.4241C80.4399 43.0515 81.2657 43.7915 81.9682 44.6012C84.7138 47.7544 84.6227 51.5939 81.7805 54.6559C79.6731 56.9243 76.9972 58.2649 74.1068 59.1926C68.385 61.0266 62.5506 61.2518 56.6572 60.2436C53.0858 59.6323 49.686 58.5384 46.6776 56.4524C44.731 55.101 43.1491 53.4494 42.527 51.0684C42.4681 50.8485 42.3983 50.634 42.3394 50.4195V48.666C42.9829 45.6416 44.9294 43.6092 47.4391 42.0165C50.426 40.1235 53.7347 39.0886 57.1935 38.5148C58.4644 38.3057 59.746 38.1716 61.0223 38.0054C62.4863 38.0054 63.9502 38.0054 65.4088 38.0054V38Z" fill="#4D7BF1"/>
<path d="M42.3394 57.8086C47.0798 62.0074 52.8123 63.6805 58.9416 64.3508C62.0894 64.694 65.2372 64.6351 68.5191 64.2329C68.0847 64.7209 67.7308 65.1177 67.3876 65.5145C65.7949 67.3378 64.5026 69.3541 63.5427 71.5688C63.3657 71.9763 63.1619 72.1211 62.7115 72.1104C57.8155 71.987 53.0751 71.1827 48.6671 68.9304C46.7688 67.9598 45.0796 66.7211 43.7926 64.9836C43.0579 63.9916 42.6557 62.8654 42.3501 61.6964V57.8086H42.3394Z" fill="#4D7BF1"/>
<path d="M42.3394 80.3799C44.227 82.053 46.3237 83.3882 48.6564 84.3696C52.5442 86.0051 56.6143 86.8149 60.8132 87.0401C62.0412 87.1045 62.0465 87.0884 62.379 88.2467C62.9635 90.3059 63.8162 92.2471 64.9155 94.0811C64.9959 94.2205 65.0656 94.3653 65.1782 94.5798C64.642 94.612 64.1647 94.6602 63.6875 94.6656C58.6842 94.6978 53.8312 93.9631 49.2677 91.8074C47.1334 90.7939 45.219 89.4854 43.7819 87.5603C43.0418 86.5736 42.645 85.4474 42.3394 84.2731V80.3852V80.3799Z" fill="#4D7BF1"/>
<path d="M42.3384 69.0967C44.3171 70.8609 46.5426 72.2337 48.9986 73.2312C52.7255 74.7434 56.6187 75.5049 60.6191 75.7515C60.9945 75.773 61.3699 75.7891 61.7453 75.8159C61.8257 75.8159 61.9061 75.8481 62.0616 75.8802C61.5468 78.2987 61.2358 80.7279 61.4932 83.318C60.3939 83.2161 59.3375 83.1464 58.2918 83.0124C54.4791 82.5083 50.8111 81.5216 47.481 79.516C45.9473 78.5883 44.5263 77.4997 43.5986 75.95C43.0516 75.0383 42.7459 73.9819 42.333 72.9899V69.102L42.3384 69.0967Z" fill="#4D7BF1"/>
<path d="M85.8711 60.8228C97.2825 60.8389 106.565 70.1481 106.538 81.5488C106.511 92.9602 97.1967 102.237 85.796 102.2C74.4114 102.162 65.1558 92.8798 65.1611 81.5006C65.1611 70.0945 74.4704 60.8013 85.8711 60.8174V60.8228ZM83.9567 72.4326C83.7207 72.5452 83.5063 72.6364 83.3025 72.7382C80.0957 74.3684 79.1948 78.4815 81.4524 81.2753C82.5839 82.6749 84.08 83.3399 85.8711 83.3989C86.8953 83.4311 87.6622 84.2033 87.7158 85.1739C87.7694 86.1123 87.0723 86.9703 86.1232 87.1312C85.2062 87.2867 84.3213 86.7022 84.0264 85.7423C83.9781 85.5921 83.9406 85.4366 83.9031 85.3026H80.219C80.219 85.5171 80.1976 85.7048 80.219 85.8817C80.5086 87.9087 81.5436 89.421 83.399 90.3058C83.8655 90.5256 83.9728 90.7777 83.9621 91.2442C83.9299 92.365 83.9513 93.4911 83.9513 94.6333H87.7158C87.7158 93.475 87.7426 92.3489 87.7051 91.2281C87.689 90.7401 87.8391 90.5149 88.2842 90.2951C90.2255 89.3459 91.3248 87.7586 91.4535 85.6082C91.5875 83.3828 90.6384 81.6453 88.7508 80.4441C87.8445 79.8704 86.8417 79.6505 85.7746 79.613C84.7879 79.5754 84.0264 78.8139 83.9621 77.8701C83.8977 76.9317 84.5734 76.0683 85.5226 75.886C86.4342 75.7144 87.3404 76.2936 87.6407 77.2427C87.689 77.3982 87.7265 77.5538 87.7694 77.7039H91.5017C91.3355 75.1353 90.0592 73.4193 87.6997 72.4111V68.3893H83.9513V72.4272L83.9567 72.4326Z" fill="#4D7BF1"/>
</svg>
