<svg width="181" height="60" viewBox="0 0 181 60" fill="none" xmlns="http://www.w3.org/2000/svg">
<g clip-path="url(#clip0_4463_70044)">
<path d="M55.7637 16.8801H56.9638C57.1704 16.9057 57.3801 16.8884 57.5796 16.8293C57.7792 16.7701 57.9643 16.6704 58.1233 16.5363C58.2823 16.4023 58.4117 16.2368 58.5034 16.0505C58.5951 15.8641 58.647 15.6607 58.656 15.4533C58.656 14.6279 58.0332 14.0947 56.977 14.0947C56.7654 14.0652 56.5499 14.0783 56.3434 14.1332C56.1369 14.1881 55.9435 14.2837 55.7747 14.4144C55.6059 14.5451 55.465 14.7082 55.3604 14.894C55.2558 15.0799 55.1897 15.2848 55.1658 15.4965H53.8481C53.8708 15.1121 53.9726 14.7364 54.1472 14.3929C54.3217 14.0494 54.5654 13.7454 54.8629 13.4998C55.1604 13.2543 55.5054 13.0724 55.8764 12.9656C56.2475 12.8588 56.6366 12.8292 57.0196 12.8789C58.7867 12.8789 60.031 13.8654 60.031 15.2856C60.0352 15.7614 59.8755 16.2242 59.5788 16.5967C59.282 16.9693 58.8661 17.2291 58.4005 17.3327V17.4382C58.9525 17.4626 59.4724 17.704 59.8465 18.1095C60.2206 18.5151 60.4184 19.0519 60.3968 19.6025C60.3559 19.9983 60.2362 20.3821 60.0447 20.7312C59.8532 21.0803 59.5938 21.3878 59.2816 21.6356C58.9694 21.8834 58.6107 22.0666 58.2266 22.1744C57.8424 22.2822 57.4406 22.3125 57.0446 22.2634C56.6478 22.3173 56.2441 22.2911 55.8577 22.1861C55.4713 22.0812 55.11 21.8997 54.7954 21.6526C54.4808 21.4054 54.2193 21.0977 54.0265 20.7476C53.8337 20.3975 53.7136 20.0123 53.6733 19.615H55.0116C55.0924 20.4712 55.8812 21.0235 57.0446 21.0235C58.208 21.0235 58.9675 20.4031 58.9675 19.5286C58.9675 18.6416 58.2521 18.0952 57.002 18.0952H55.7637V16.8801Z" fill="#4D7BF1" stroke="#4D7BF1" stroke-width="0.411304" stroke-miterlimit="10"/>
<path d="M61.9155 20.1357C61.9155 18.9199 62.8248 18.219 64.4348 18.1194L66.2695 18.0139V17.4309C66.2695 16.7175 65.798 16.3147 64.8828 16.3147C64.1366 16.3147 63.621 16.5879 63.4712 17.0654H62.177C62.3136 15.9053 63.4095 15.1611 64.946 15.1611C66.6441 15.1611 67.6019 16.0041 67.6019 17.4309V22.0459H66.3136V21.0967H66.2078C65.9931 21.4372 65.6917 21.7147 65.3343 21.9011C64.9768 22.0874 64.5762 22.1758 64.1733 22.1572C63.889 22.1867 63.6016 22.1564 63.3297 22.0684C63.0578 21.9803 62.8074 21.8364 62.5947 21.646C62.382 21.4555 62.2116 21.2227 62.0946 20.9626C61.9777 20.7025 61.9166 20.4208 61.9155 20.1357ZM66.2695 19.5586V18.9939L64.6154 19.0994C63.6826 19.1616 63.2596 19.478 63.2596 20.0735C63.2596 20.6814 63.7884 21.0351 64.5156 21.0351C64.7286 21.0566 64.9439 21.0352 65.1485 20.9721C65.353 20.9089 65.5428 20.8054 65.7064 20.6676C65.8701 20.5299 66.0043 20.3607 66.101 20.1702C66.1977 19.9796 66.255 19.7716 66.2695 19.5586Z" fill="#4D7BF1" stroke="#4D7BF1" stroke-width="0.411304" stroke-miterlimit="10"/>
<path d="M71.1492 16.4141V22.0464H69.8125V15.292H74.2723V16.414L71.1492 16.4141Z" fill="#4D7BF1" stroke="#4D7BF1" stroke-width="0.411304" stroke-miterlimit="10"/>
<path d="M82.3751 18.6657C82.3751 20.8117 81.2866 22.1572 79.5768 22.1572C79.157 22.1858 78.7379 22.0942 78.3686 21.8932C77.9993 21.6922 77.6953 21.3901 77.4923 21.0226H77.3866V24.2914H76.0498V15.2914H77.3366V16.4077H77.4365C77.6431 16.0274 77.9511 15.7114 78.3264 15.4946C78.7018 15.2779 79.1299 15.1688 79.5636 15.1794C81.2866 15.1794 82.3751 16.519 82.3751 18.6657ZM81.0002 18.6657C81.0002 17.239 80.323 16.3769 79.1904 16.3769C78.0653 16.3769 77.3616 17.2573 77.3616 18.6716C77.3616 20.0793 78.0652 20.9604 79.1846 20.9604C80.323 20.9604 81.0002 20.0983 81.0002 18.6657Z" fill="#4D7BF1" stroke="#4D7BF1" stroke-width="0.411304" stroke-miterlimit="10"/>
<path d="M84.1577 24.4656V23.3179C84.3024 23.3362 84.4482 23.3445 84.594 23.3428C84.8788 23.3638 85.1613 23.2792 85.3874 23.1053C85.6135 22.9313 85.7672 22.6802 85.8191 22.4001L85.919 22.0713L83.4673 15.292H84.923L86.6212 20.657H86.727L88.4192 15.292H89.8367L87.3116 22.3254C86.7329 23.969 86.0924 24.4964 84.7116 24.4964C84.5999 24.4963 84.2826 24.4839 84.1577 24.4656Z" fill="#4D7BF1" stroke="#4D7BF1" stroke-width="0.411304" stroke-miterlimit="10"/>
<path d="M90.874 20.1298H92.2049C92.3356 20.7253 92.8953 21.0358 93.6783 21.0358C94.5685 21.0358 95.1149 20.6447 95.1149 20.0368C95.1149 19.3857 94.6243 19.0751 93.6783 19.0751H92.6647V18.0395H93.6606C94.4686 18.0395 94.8799 17.7297 94.8799 17.165C94.8799 16.6691 94.4818 16.2905 93.6606 16.2905C92.9129 16.2905 92.3665 16.6069 92.2798 17.1401H90.9915C91.0879 16.5274 91.4215 15.9769 91.9206 15.6069C92.4197 15.237 93.0445 15.0771 93.6606 15.1618C95.2706 15.1618 96.1916 15.8877 96.1916 17.0288C96.1992 17.3465 96.0971 17.6572 95.9024 17.9089C95.7078 18.1606 95.4323 18.3381 95.1222 18.4116V18.5171C95.4914 18.5645 95.8303 18.7455 96.0746 19.0257C96.3188 19.3058 96.4514 19.6656 96.4472 20.0368C96.4472 21.3208 95.3514 22.1704 93.6783 22.1704C92.199 22.1703 90.9974 21.4943 90.874 20.1298Z" fill="#4D7BF1" stroke="#4D7BF1" stroke-width="0.411304" stroke-miterlimit="10"/>
<path d="M98.3721 22.0464V15.292H99.6971V19.9378H99.8028L102.924 15.292H104.249V22.0464H102.924V17.3758H102.824L99.6971 22.0464L98.3721 22.0464Z" fill="#4D7BF1" stroke="#4D7BF1" stroke-width="0.411304" stroke-miterlimit="10"/>
<path d="M111.55 16.414H109.417V22.0463H108.079V16.414H105.946V15.292H111.55V16.414Z" fill="#4D7BF1" stroke="#4D7BF1" stroke-width="0.411304" stroke-miterlimit="10"/>
<path d="M118.751 20.2223C118.569 20.8396 118.175 21.3734 117.639 21.7306C117.102 22.0878 116.456 22.2455 115.815 22.1764C115.369 22.1881 114.925 22.1029 114.515 21.9266C114.105 21.7503 113.739 21.4872 113.441 21.1555C113.144 20.8238 112.922 20.4314 112.791 20.0057C112.661 19.58 112.625 19.131 112.686 18.6901C112.627 18.2477 112.663 17.7978 112.793 17.3708C112.923 16.9438 113.144 16.5497 113.44 16.2151C113.736 15.8804 114.101 15.6132 114.51 15.4314C114.918 15.2496 115.362 15.1574 115.809 15.1612C117.694 15.1612 118.832 16.4452 118.832 18.5662V19.0314H114.049V19.1061C114.028 19.354 114.059 19.6036 114.141 19.8388C114.222 20.0741 114.352 20.2897 114.522 20.472C114.691 20.6542 114.898 20.799 115.127 20.897C115.356 20.995 115.604 21.0441 115.853 21.0411C116.173 21.0792 116.496 21.0217 116.783 20.8759C117.07 20.7301 117.306 20.5026 117.463 20.2222L118.751 20.2223ZM114.049 18.0455H117.469C117.486 17.819 117.455 17.5914 117.379 17.3774C117.302 17.1634 117.181 16.9677 117.025 16.8029C116.868 16.6382 116.678 16.5079 116.468 16.4206C116.257 16.3332 116.031 16.2907 115.803 16.2958C115.572 16.2926 115.342 16.3358 115.128 16.4226C114.914 16.5094 114.719 16.6382 114.556 16.8013C114.392 16.9645 114.263 17.1586 114.176 17.3723C114.089 17.586 114.046 17.8149 114.049 18.0455H114.049Z" fill="#4D7BF1" stroke="#4D7BF1" stroke-width="0.411304" stroke-miterlimit="10"/>
<path d="M124.42 15.292H127.474C128.799 15.292 129.576 15.9614 129.576 17.0095C129.578 17.3421 129.465 17.6652 129.257 17.9249C129.049 18.1847 128.757 18.3652 128.432 18.4362V18.5417C128.827 18.5666 129.198 18.7421 129.468 19.0319C129.737 19.3217 129.885 19.7036 129.88 20.0988C129.88 21.2773 128.991 22.0464 127.505 22.0464H124.42V15.292ZM125.745 16.3152V18.0642H127.07C127.878 18.0642 128.264 17.7544 128.264 17.1831C128.264 16.6565 127.928 16.3152 127.218 16.3152L125.745 16.3152ZM125.745 19.0442V21.0232H127.33C128.12 21.0232 128.543 20.6753 128.543 20.0366C128.543 19.3606 128.064 19.0442 127.162 19.0442L125.745 19.0442Z" fill="#4D7BF1" stroke="#4D7BF1" stroke-width="0.411304" stroke-miterlimit="10"/>
<path d="M8.79888 59.7159C9.7956 59.8792 10.8032 59.9679 11.8132 59.9811C12.2781 59.9913 12.735 59.9972 13.1955 59.9972C13.7456 60.0002 14.2906 60.0002 14.8422 60.0002H166.166C166.707 60.0002 167.256 60.0002 167.796 59.9972L172.192 59.7159M8.79888 59.7159L8.88344 59.2231C8.88281 59.223 8.88217 59.2229 8.88154 59.2228M8.79888 59.7159L8.87971 59.2225C8.88032 59.2226 8.88093 59.2227 8.88154 59.2228M8.79888 59.7159C7.80362 59.5452 6.83975 59.2262 5.93956 58.7697C5.03828 58.3142 4.21622 57.7172 3.50477 57.0017C2.78673 56.2953 2.18821 55.4775 1.73248 54.5802C1.27483 53.6815 0.957785 52.7182 0.792343 51.7238C0.62487 50.7313 0.534749 49.7273 0.522789 48.7209C0.513252 48.4026 0.509543 48.0912 0.505804 47.7773C0.50407 47.6317 0.50233 47.4856 0.5 47.3381M8.88154 59.2228C9.8531 59.3819 10.8352 59.4683 11.8197 59.4812L11.8241 59.4812C12.2861 59.4914 12.7392 59.4972 13.1955 59.4972H13.1982C13.7467 59.5002 14.2904 59.5002 14.8422 59.5002H166.166C166.707 59.5002 167.255 59.5002 167.794 59.4972L167.796 59.4972C168.251 59.4972 168.717 59.4914 169.172 59.4813L169.177 59.4812C170.159 59.4689 171.139 59.3826 172.108 59.2229M8.88154 59.2228C7.93619 59.0604 7.0207 58.7574 6.16568 58.3238L6.16512 58.3235C5.31154 57.892 4.53304 57.3267 3.85933 56.6492L3.85935 56.6491L3.85542 56.6453C3.17589 55.9767 2.60951 55.2029 2.17827 54.3538L2.17804 54.3534C1.74358 53.5001 1.44261 52.5857 1.28556 51.6417L1.28537 51.6406C1.12221 50.6736 1.03441 49.6955 1.02275 48.715H1.02284L1.02256 48.706C1.01316 48.3922 1.00955 48.0883 1.00584 47.7769C1.00411 47.6315 1.00237 47.4846 1 47.3342M172.108 59.2229C172.108 59.223 172.107 59.2231 172.107 59.2232L172.192 59.7159M172.108 59.2229C173.058 59.0593 173.977 58.756 174.837 58.3231M172.108 59.2229C172.109 59.2228 172.11 59.2227 172.11 59.2226L172.192 59.7159M172.192 59.7159L174.837 58.3231M174.837 58.3231C175.69 57.8915 176.467 57.3263 177.14 56.6492L177.143 56.6464C177.821 55.9748 178.389 55.2011 178.826 54.3537C179.257 53.5001 179.555 52.586 179.71 51.6429L179.71 51.6405C179.874 50.6724 179.965 49.6935 179.982 48.7119C179.988 48.2506 179.988 47.8034 179.988 47.3381V47.3273H179.988C180 46.7887 180 46.2521 180 45.6974V14.3044C180 13.7541 180 13.2146 179.988 12.6775L179.988 12.6667C179.988 12.2071 179.988 11.7497 179.982 11.2944C179.965 10.3127 179.874 9.33379 179.71 8.36567L179.71 8.36355C179.555 7.42152 179.257 6.50842 178.827 5.65549C177.947 3.94512 176.551 2.55253 174.836 1.6736C173.976 1.24241 173.057 0.941327 172.109 0.780313C171.14 0.619249 170.16 0.53289 169.178 0.522004L169.175 0.521977C169.09 0.520617 169.005 0.519216 168.92 0.517814C168.544 0.511604 168.165 0.505362 167.793 0.502991L174.837 58.3231ZM1 47.3342V47.3381H0.5M1 47.3342V12.6707M1 47.3342C0.999979 47.3328 0.999958 47.3315 0.999938 47.3302L0.5 47.3381M0.5 47.3381V12.6667M1 12.6707C0.999979 12.672 0.999957 12.6734 0.999936 12.6747L0.5 12.6667M1 12.6707C1.0024 12.5201 1.00416 12.3715 1.00591 12.2241C1.00959 11.9137 1.01321 11.6085 1.02256 11.3006L1.02264 11.3006L1.02275 11.2914C1.0344 10.3108 1.1222 9.33263 1.28537 8.36561L1.28552 8.36474C1.44302 7.42125 1.744 6.50721 2.17809 5.65421L2.17853 5.65335C2.61016 4.80114 3.17671 4.02379 3.85644 3.35122L3.85645 3.35122L3.85787 3.3498C4.53488 2.6745 5.3137 2.10891 6.16609 1.67355M1 12.6707V12.6667H0.5M0.5 12.6667C0.502358 12.5193 0.504111 12.3717 0.505866 12.224C0.509584 11.9111 0.513304 11.5979 0.522789 11.2854C0.534745 10.279 0.624866 9.27497 0.792343 8.28242C0.958244 7.2886 1.27527 6.32586 1.73248 5.42743C2.18842 4.52722 2.78686 3.70615 3.50477 2.9958C4.21893 2.28345 5.04046 1.6869 5.93956 1.22781M6.16609 1.67355C6.16579 1.6737 6.1655 1.67385 6.1652 1.674L5.93956 1.22781M6.16609 1.67355C7.02093 1.24136 7.93631 0.94027 8.88132 0.780468M6.16609 1.67355C6.16637 1.6734 6.16666 1.67326 6.16694 1.67312L5.93956 1.22781M5.93956 1.22781L8.88132 0.780468M8.88132 0.780468C9.85256 0.620098 10.8346 0.533762 11.819 0.522215L11.8211 0.522183C11.9184 0.520648 12.0151 0.519057 12.1113 0.517474C12.4771 0.511457 12.8364 0.505546 13.1985 0.503186C13.1986 0.503186 13.1986 0.503185 13.1987 0.503184L8.88132 0.780468ZM166.666 0.500195V0.500087L14.8422 0.500195H166.166H166.666Z" stroke="#4D7BF1"/>
<path d="M37.7549 30.4505C37.771 29.1985 38.1045 27.9709 38.7243 26.882C39.3441 25.7931 40.23 24.8782 41.2996 24.2224C40.6201 23.2547 39.7237 22.4583 38.6815 21.8964C37.6394 21.3346 36.4802 21.0228 35.2961 20.9859C32.7701 20.7215 30.3214 22.4931 29.0342 22.4931C27.7221 22.4931 25.7403 21.0121 23.6063 21.0559C22.2259 21.1004 20.8806 21.5007 19.7015 22.2178C18.5224 22.9348 17.5496 23.9443 16.878 25.1477C13.9689 30.1704 16.1389 37.5519 18.9256 41.6118C20.3198 43.5999 21.9493 45.8205 24.0814 45.7418C26.1679 45.6555 26.9471 44.4151 29.4656 44.4151C31.9607 44.4151 32.6918 45.7418 34.8672 45.6917C37.1061 45.6555 38.5167 43.6949 39.862 41.688C40.8638 40.2715 41.6346 38.7059 42.146 37.0492C40.8453 36.5007 39.7353 35.5824 38.9545 34.4089C38.1736 33.2355 37.7564 31.8588 37.7549 30.4505Z" fill="#4D7BF1"/>
<path d="M33.6467 18.316C34.8674 16.8547 35.4688 14.9764 35.3232 13.0801C33.4582 13.2754 31.7355 14.1642 30.4983 15.5695C29.8934 16.256 29.4301 17.0546 29.1349 17.9198C28.8397 18.785 28.7184 19.6996 28.7779 20.6116C29.7107 20.6212 30.6336 20.4195 31.4769 20.0219C32.3203 19.6243 33.0622 19.041 33.6467 18.316Z" fill="#4D7BF1"/>
<path d="M64.1279 40.7095H57.0079L55.298 45.7442H52.2822L59.0262 27.1172H62.1595L68.9035 45.7442H65.8363L64.1279 40.7095ZM57.7453 38.3863H63.3891L60.6069 30.2154H60.529L57.7453 38.3863Z" fill="#4D7BF1"/>
<path d="M83.4656 38.9542C83.4656 43.1744 81.2005 45.8858 77.7823 45.8858C76.9163 45.931 76.0552 45.7321 75.2974 45.3119C74.5396 44.8917 73.9157 44.2671 73.4973 43.5098H73.4326V50.2364H70.6372V32.1632H73.3431V34.4219H73.3945C73.8321 33.6682 74.4665 33.047 75.2301 32.6242C75.9937 32.2014 76.8579 31.993 77.7308 32.0211C81.1872 32.0211 83.4656 34.7457 83.4656 38.9542ZM80.5924 38.9542C80.5924 36.2047 79.1675 34.397 76.9934 34.397C74.8576 34.397 73.4209 36.2427 73.4209 38.9542C73.4209 41.6905 74.8576 43.523 76.9934 43.523C79.1675 43.523 80.5924 41.7286 80.5924 38.9542Z" fill="#4D7BF1"/>
<path d="M98.4573 38.9542C98.4573 43.1744 96.1922 45.8858 92.774 45.8858C91.908 45.931 91.0469 45.7321 90.2891 45.3119C89.5313 44.8916 88.9074 44.2671 88.489 43.5098H88.4243V50.2364H85.6289V32.1631H88.3347V34.4219H88.3861C88.8238 33.6682 89.4582 33.0469 90.2217 32.6242C90.9853 32.2014 91.8496 31.993 92.7225 32.0211C96.179 32.0211 98.4573 34.7457 98.4573 38.9542ZM95.5841 38.9542C95.5841 36.2047 94.1592 34.397 91.9851 34.397C89.8493 34.397 88.4126 36.2427 88.4126 38.9542C88.4126 41.6905 89.8493 43.523 91.9851 43.523C94.1592 43.523 95.5841 41.7286 95.5841 38.9542H95.5841Z" fill="#4D7BF1"/>
<path d="M108.365 40.5543C108.573 42.4015 110.372 43.6143 112.831 43.6143C115.187 43.6143 116.882 42.4014 116.882 40.7359C116.882 39.29 115.86 38.4243 113.439 37.8311L111.018 37.2495C107.588 36.4233 105.996 34.8237 105.996 32.228C105.996 29.0142 108.805 26.8066 112.793 26.8066C116.74 26.8066 119.446 29.0142 119.537 32.228H116.715C116.546 30.3691 115.005 29.2471 112.753 29.2471C110.501 29.2471 108.96 30.3823 108.96 32.0347C108.96 33.3516 109.945 34.1265 112.352 34.7197L114.41 35.2236C118.243 36.1274 119.835 37.6626 119.835 40.3872C119.835 43.872 117.051 46.0546 112.624 46.0546C108.481 46.0546 105.685 43.9233 105.504 40.5541L108.365 40.5543Z" fill="#4D7BF1"/>
<path d="M125.866 28.9492V32.1631H128.456V34.3706H125.866V41.8574C125.866 43.0205 126.385 43.5625 127.523 43.5625C127.831 43.5572 128.138 43.5356 128.443 43.498V45.6923C127.931 45.7877 127.411 45.8309 126.89 45.8212C124.133 45.8212 123.058 44.7885 123.058 42.1547V34.3706H121.078V32.1631H123.058V28.9492H125.866Z" fill="#4D7BF1"/>
<path d="M129.956 38.9541C129.956 34.6812 132.48 31.9961 136.415 31.9961C140.364 31.9961 142.876 34.6811 142.876 38.9541C142.876 43.2388 140.377 45.9121 136.415 45.9121C132.455 45.9121 129.956 43.2388 129.956 38.9541ZM140.027 38.9541C140.027 36.0229 138.68 34.293 136.415 34.293C134.15 34.293 132.804 36.0361 132.804 38.9541C132.804 41.897 134.15 43.6138 136.415 43.6138C138.68 43.6138 140.027 41.897 140.027 38.9541H140.027Z" fill="#4D7BF1"/>
<path d="M145.179 32.163H147.845V34.4745H147.91C148.09 33.7526 148.515 33.1146 149.111 32.6678C149.708 32.2209 150.44 31.9925 151.186 32.0209C151.508 32.0198 151.829 32.0547 152.144 32.1249V34.7323C151.737 34.6084 151.313 34.5515 150.888 34.5639C150.481 34.5475 150.077 34.6189 149.701 34.7732C149.325 34.9275 148.987 35.1611 148.71 35.458C148.434 35.7548 148.225 36.1078 148.098 36.4928C147.971 36.8778 147.929 37.2857 147.975 37.6884V45.7436H145.179L145.179 32.163Z" fill="#4D7BF1"/>
<path d="M165.032 41.7549C164.656 44.2202 162.249 45.9121 159.168 45.9121C155.207 45.9121 152.748 43.2651 152.748 39.0186C152.748 34.7588 155.22 31.9961 159.051 31.9961C162.819 31.9961 165.188 34.5771 165.188 38.6948V39.6499H155.569V39.8184C155.525 40.3182 155.588 40.8217 155.754 41.2954C155.919 41.7692 156.184 42.2024 156.531 42.5662C156.877 42.93 157.297 43.2161 157.763 43.4056C158.229 43.5951 158.73 43.6835 159.233 43.665C159.894 43.7268 160.557 43.5742 161.123 43.23C161.69 42.8859 162.13 42.3685 162.378 41.7549L165.032 41.7549ZM155.583 37.7017H162.391C162.416 37.2523 162.348 36.8025 162.191 36.3807C162.033 35.9589 161.79 35.5741 161.476 35.2505C161.163 34.9268 160.785 34.6713 160.368 34.5C159.95 34.3287 159.502 34.2452 159.051 34.2549C158.596 34.2522 158.144 34.3394 157.723 34.5115C157.302 34.6836 156.919 34.9372 156.597 35.2577C156.274 35.5781 156.019 35.9591 155.844 36.3786C155.67 36.798 155.581 37.2477 155.583 37.7017V37.7017Z" fill="#4D7BF1"/>
</g>
<defs>
<clipPath id="clip0_4463_70044">
<rect width="180" height="60" fill="white" transform="translate(0.5)"/>
</clipPath>
</defs>
</svg>
