<svg width="24" height="24" viewBox="0 0 24 24" fill="none" xmlns="http://www.w3.org/2000/svg">
<g clip-path="url(#clip0_3562_94327)">
<mask id="mask0_3562_94327" style="mask-type:alpha" maskUnits="userSpaceOnUse" x="0" y="0" width="24" height="24">
<rect width="24" height="24" fill="#D9D9D9"/>
</mask>
<g mask="url(#mask0_3562_94327)">
<path d="M12 15.675L16.8125 10.9L15.25 9.38748L12 12.6375L8.75 9.38748L7.2 10.9L12 15.675ZM12.005 22.5C10.5532 22.5 9.18861 22.2262 7.91117 21.6788C6.63374 21.1314 5.51947 20.3813 4.56835 19.4285C3.61723 18.4757 2.86807 17.3629 2.32085 16.09C1.77362 14.8171 1.5 13.4555 1.5 12.005C1.5 10.5365 1.77373 9.16358 2.32118 7.88615C2.86863 6.60872 3.61742 5.49609 4.56755 4.54828C5.5177 3.60044 6.62983 2.85127 7.90393 2.30075C9.17804 1.75023 10.541 1.47498 11.9929 1.47498C13.4627 1.47498 14.8374 1.75068 16.1169 2.3021C17.3964 2.85352 18.5094 3.60188 19.4559 4.54718C20.4024 5.49246 21.1505 6.60303 21.7003 7.87888C22.2501 9.15471 22.525 10.5279 22.525 11.9984C22.525 13.4525 22.2496 14.8181 21.6989 16.0953C21.1482 17.3724 20.3981 18.4856 19.4486 19.4347C18.4991 20.3838 17.3879 21.1319 16.1151 21.6792C14.8422 22.2264 13.4722 22.5 12.005 22.5ZM11.9992 20.2125C14.2747 20.2125 16.2125 19.4138 17.8125 17.8165C19.4125 16.2192 20.2125 14.2806 20.2125 12.0008C20.2125 9.72525 19.4128 7.78748 17.8133 6.18748C16.2139 4.58748 14.2722 3.78748 11.9883 3.78748C9.72111 3.78748 7.7875 4.5872 6.1875 6.18665C4.5875 7.7861 3.7875 9.72777 3.7875 12.0117C3.7875 14.2789 4.58616 16.2125 6.18348 17.8125C7.78079 19.4125 9.71936 20.2125 11.9992 20.2125Z" fill="black"/>
</g>
</g>
<defs>
<clipPath id="clip0_3562_94327">
<rect width="24" height="24" fill="white"/>
</clipPath>
</defs>
</svg>
