<svg width="1927" height="545" viewBox="0 0 1927 545" fill="none" xmlns="http://www.w3.org/2000/svg">
<g clip-path="url(#clip0_5734_109558)">
<path opacity="0.6" d="M1926.8 -242.871C1926.8 -265.173 1901.34 -277.904 1883.5 -264.523L1456.34 55.8484C1441.91 66.6742 1441.91 88.3258 1456.34 99.1516L1883.5 419.523C1901.34 432.904 1926.8 420.173 1926.8 397.871L1926.8 -242.871Z" fill="url(#paint0_linear_5734_109558)"/>
<path opacity="0.5" d="M1607.47 -140.311C1607.47 -162.613 1582.01 -175.344 1564.17 -161.962L1273.75 55.8486C1259.32 66.6744 1259.32 88.326 1273.75 99.1518L1564.17 316.963C1582.01 330.344 1607.47 317.613 1607.47 295.311L1607.47 -140.311Z" fill="url(#paint1_linear_5734_109558)"/>
<path opacity="0.4" d="M1424.88 -193.145C1424.88 -215.447 1399.42 -228.178 1381.58 -214.797L1020.72 55.8484C1006.29 66.6741 1006.29 88.3257 1020.72 99.1515L1381.58 369.797C1399.42 383.178 1424.88 370.447 1424.88 348.145L1424.88 -193.145Z" fill="url(#paint2_linear_5734_109558)"/>
<path opacity="0.4" d="M385.578 156.279C385.578 135.191 409.654 123.153 426.525 135.806L604.552 269.326C618.201 279.562 618.201 300.036 604.552 310.273L426.525 443.793C409.654 456.446 385.578 444.408 385.578 423.319L385.578 156.279Z" fill="url(#paint3_linear_5734_109558)"/>
<path opacity="0.5" d="M170.305 91.8058C170.305 69.823 196.192 58.0701 212.742 72.5395L439.195 270.533C450.857 280.73 450.857 298.869 439.195 309.066L212.742 507.059C196.192 521.528 170.305 509.776 170.305 487.793L170.305 91.8058Z" fill="url(#paint4_linear_5734_109558)"/>
<path opacity="0.6" d="M0.0546917 126.549C0.0546901 104.412 26.2577 92.717 42.736 107.499L224.713 270.75C236.05 280.919 236.05 298.679 224.713 308.849L42.736 472.099C26.2577 486.882 0.0547172 475.187 0.0547156 453.049L0.0546917 126.549Z" fill="url(#paint5_linear_5734_109558)"/>
</g>
<defs>
<linearGradient id="paint0_linear_5734_109558" x1="1563.65" y1="-21.9524" x2="1924.01" y2="33.481" gradientUnits="userSpaceOnUse">
<stop stop-color="white" stop-opacity="0.1"/>
<stop offset="1" stop-color="white" stop-opacity="0"/>
</linearGradient>
<linearGradient id="paint1_linear_5734_109558" x1="1343.77" y1="5.28368" x2="1605.44" y2="45.5361" gradientUnits="userSpaceOnUse">
<stop stop-color="white" stop-opacity="0.1"/>
<stop offset="1" stop-color="white" stop-opacity="0"/>
</linearGradient>
<linearGradient id="paint2_linear_5734_109558" x1="1109.95" y1="-8.74714" x2="1422.46" y2="39.3258" gradientUnits="userSpaceOnUse">
<stop stop-color="white" stop-opacity="0.1"/>
<stop offset="1" stop-color="white" stop-opacity="0"/>
</linearGradient>
<linearGradient id="paint3_linear_5734_109558" x1="564.685" y1="240.749" x2="415.806" y2="263.651" gradientUnits="userSpaceOnUse">
<stop stop-color="white" stop-opacity="0.1"/>
<stop offset="1" stop-color="white" stop-opacity="0"/>
</linearGradient>
<linearGradient id="paint4_linear_5734_109558" x1="381.887" y1="222.25" x2="204.933" y2="245.601" gradientUnits="userSpaceOnUse">
<stop stop-color="white" stop-opacity="0.1"/>
<stop offset="1" stop-color="white" stop-opacity="0"/>
</linearGradient>
<linearGradient id="paint5_linear_5734_109558" x1="178.886" y1="231.22" x2="29.1943" y2="250.471" gradientUnits="userSpaceOnUse">
<stop stop-color="white" stop-opacity="0.1"/>
<stop offset="1" stop-color="white" stop-opacity="0"/>
</linearGradient>
<clipPath id="clip0_5734_109558">
<rect width="1926.75" height="841.163" fill="white" transform="matrix(-1 0 0 1 1926.8 -297)"/>
</clipPath>
</defs>
</svg>
