<svg width="18" height="18" viewBox="0 0 18 18" fill="none" xmlns="http://www.w3.org/2000/svg">
<g clip-path="url(#clip0_4875_87652)">
<mask id="mask0_4875_87652" style="mask-type:alpha" maskUnits="userSpaceOnUse" x="0" y="0" width="18" height="18">
<rect width="18" height="18" fill="#D9D9D9"/>
</mask>
<g mask="url(#mask0_4875_87652)">
<path d="M4.29169 13.0033C5.06806 12.4846 5.82969 12.0877 6.57656 11.8127C7.32344 11.5377 8.13397 11.4002 9.00816 11.4002C9.88234 11.4002 10.6975 11.5425 11.4535 11.8271C12.2096 12.1117 12.9698 12.5038 13.7344 13.0033C14.2656 12.3096 14.6359 11.6495 14.8453 11.0232C15.0547 10.3969 15.1594 9.72319 15.1594 9.00209C15.1594 7.26024 14.5683 5.7979 13.3861 4.61508C12.2039 3.43224 10.743 2.84082 9.00326 2.84082C7.26359 2.84082 5.80156 3.43224 4.61719 4.61508C3.43281 5.7979 2.84063 7.26024 2.84063 9.00209C2.84063 9.72211 2.94548 10.3938 3.15519 11.0171C3.36491 11.6404 3.74374 12.3025 4.29169 13.0033ZM8.99754 9.6752C8.24097 9.6752 7.60848 9.41969 7.10008 8.90868C6.59169 8.39768 6.3375 7.76799 6.3375 7.01961C6.3375 6.27125 6.59251 5.63926 7.10254 5.12363C7.61256 4.60801 8.24587 4.3502 9.00246 4.3502C9.75903 4.3502 10.3915 4.60883 10.8999 5.12609C11.4083 5.64334 11.6625 6.27615 11.6625 7.02453C11.6625 7.77289 11.4075 8.40176 10.8975 8.91113C10.3874 9.42051 9.75413 9.6752 8.99754 9.6752ZM8.99316 16.8752C7.92388 16.8752 6.91083 16.6686 5.95401 16.2554C4.99717 15.8422 4.15971 15.2761 3.44164 14.5571C2.72357 13.8381 2.15795 13.002 1.74476 12.0489C1.33159 11.0958 1.125 10.0773 1.125 8.99365C1.125 7.93043 1.33289 6.91814 1.74868 5.95679C2.16447 4.99543 2.73009 4.15763 3.44556 3.44341C4.16102 2.72918 4.99562 2.16113 5.94936 1.73926C6.90309 1.31738 7.92216 1.10645 9.00654 1.10645C10.0698 1.10645 11.0821 1.31746 12.0434 1.7395C13.0048 2.16154 13.8426 2.73029 14.5568 3.44575C15.271 4.16121 15.8391 4.9999 16.2609 5.96181C16.6828 6.92371 16.8937 7.93879 16.8937 9.00704C16.8937 10.0763 16.6827 11.0901 16.2607 12.0483C15.8387 13.0065 15.2699 13.8428 14.5544 14.557C13.839 15.2712 13.0003 15.8361 12.0384 16.2518C11.0765 16.6674 10.0614 16.8752 8.99316 16.8752ZM8.99944 15.1596C9.64356 15.1596 10.2578 15.0736 10.8422 14.9018C11.4266 14.7299 12.0437 14.4127 12.6938 13.9502C12.0312 13.5127 11.4111 13.1924 10.8332 12.9893C10.2553 12.7861 9.64464 12.6846 9.00113 12.6846C8.35761 12.6846 7.74811 12.7846 7.17263 12.9846C6.59713 13.1846 5.98125 13.5064 5.325 13.9502C5.975 14.4127 6.58887 14.7299 7.16663 14.9018C7.74438 15.0736 8.35531 15.1596 8.99944 15.1596ZM9 8.37207C9.39209 8.37207 9.71667 8.24707 9.97374 7.99707C10.2308 7.74707 10.3594 7.42207 10.3594 7.02207C10.3594 6.62207 10.2308 6.29395 9.97374 6.0377C9.71667 5.78145 9.39209 5.65332 9 5.65332C8.60791 5.65332 8.28333 5.78145 8.02626 6.0377C7.76917 6.29395 7.64062 6.62207 7.64062 7.02207C7.64062 7.42207 7.76917 7.74707 8.02626 7.99707C8.28333 8.24707 8.60791 8.37207 9 8.37207Z" fill="#4D7BF1"/>
</g>
</g>
<defs>
<clipPath id="clip0_4875_87652">
<rect width="18" height="18" fill="white"/>
</clipPath>
</defs>
</svg>
