<svg width="18" height="18" viewBox="0 0 18 18" fill="none" xmlns="http://www.w3.org/2000/svg">
<path d="M11.1375 7.25203C11.1433 7.37761 11.0497 7.48434 10.9283 7.49042C10.8069 7.49649 10.7037 7.3996 10.6978 7.27401C10.6615 6.49597 10.3121 6.12271 9.58997 6.08302C9.46861 6.07635 9.37544 5.96916 9.38189 5.8436C9.38834 5.71804 9.49195 5.62167 9.61332 5.62834C10.5636 5.68056 11.0903 6.24328 11.1375 7.25203Z" fill="#4D7BF1"/>
<path d="M12.0406 7.8823C12.1622 7.88516 12.2629 7.78557 12.2657 7.65987C12.2852 6.77001 12.0276 6.01868 11.4923 5.4154C10.9561 4.81104 10.2165 4.4764 9.28041 4.40763C9.15917 4.39873 9.05391 4.49318 9.04531 4.6186C9.0367 4.74402 9.128 4.85291 9.24923 4.86181C10.0784 4.92272 10.7122 5.20949 11.1681 5.7233C11.6243 6.23755 11.8427 6.87427 11.8256 7.64952C11.8229 7.77523 11.9191 7.87944 12.0406 7.8823Z" fill="#4D7BF1"/>
<path d="M13.4224 8.12031C13.4233 8.24604 13.3255 8.34873 13.204 8.34966C13.0825 8.35061 12.9832 8.24944 12.9823 8.12371C12.9723 6.73829 12.577 5.66138 11.798 4.8734C11.0163 4.08523 10.0446 3.68697 8.87697 3.67924C8.75543 3.67844 8.65753 3.57586 8.65831 3.45013C8.65909 3.3244 8.75824 3.22312 8.87978 3.22393C10.1593 3.23239 11.2406 3.67555 12.1055 4.54758C12.9735 5.42554 13.4116 6.61929 13.4224 8.12031Z" fill="#4D7BF1"/>
<path d="M10.1213 10.1263C9.95676 10.3397 9.64604 10.3127 9.64604 10.3127C7.38482 9.71573 6.77905 7.34676 6.77905 7.34676C6.77905 7.34676 6.75294 7.02801 6.95921 6.85513L7.36654 6.52018C7.57021 6.35811 7.69815 5.96643 7.49188 5.58285C7.37699 5.36946 7.14721 4.98858 6.97749 4.74817C6.79732 4.49426 6.37955 3.97562 6.37694 3.97292C6.17588 3.72441 5.87822 3.66768 5.56488 3.83516C5.56488 3.83516 5.56227 3.83786 5.55966 3.83786C5.26199 4.01074 4.98522 4.24304 4.72672 4.53748L4.7215 4.54288C4.52827 4.78329 4.416 5.021 4.38989 5.2533C4.38466 5.28032 4.38205 5.31543 4.38466 5.35595C4.38205 5.4586 4.39772 5.55854 4.42905 5.65849L4.4395 5.66659C4.53611 6.02586 4.78155 6.62283 5.31161 7.61958C5.65627 8.26517 6.00877 8.80542 6.35866 9.25923C6.54144 9.49963 6.75032 9.74545 6.99055 9.99666L7.08455 10.0939C7.32738 10.3424 7.56499 10.5585 7.79738 10.7476C8.23604 11.1096 8.75565 11.4742 9.38232 11.8308C10.3458 12.3791 10.9229 12.6331 11.2701 12.733L11.278 12.7438C11.3746 12.7762 11.4712 12.7897 11.5704 12.7897C11.6096 12.7924 11.6435 12.7897 11.6696 12.7843C11.8942 12.7573 12.124 12.6412 12.3564 12.4413L12.3616 12.4359C12.6462 12.1684 12.8708 11.8794 13.0379 11.5742C13.0379 11.5742 13.0405 11.5715 13.0405 11.5688C13.2024 11.2446 13.1475 10.9367 12.9073 10.7287C12.9073 10.7287 12.4034 10.2938 12.1579 10.1074C11.9281 9.93183 11.5574 9.69683 11.3511 9.57527C10.9803 9.36187 10.6017 9.49423 10.445 9.70493L10.1213 10.1263Z" fill="#4D7BF1"/>
<path fill-rule="evenodd" clip-rule="evenodd" d="M9.31704 0.0129205C13.2076 0.0318291 14.9544 1.34463 15.3879 1.75521C16.8214 3.0437 17.6177 5.9016 17.0825 10.4154C16.6116 14.4035 13.9226 15.111 13.0205 15.3484C12.9322 15.3716 12.861 15.3904 12.8107 15.4072C12.5679 15.4883 10.4189 16.0447 7.62765 15.8016C7.31954 16.1717 6.9096 16.6579 6.61455 16.9874C6.52541 17.0868 6.44195 17.1849 6.3622 17.2786C5.95836 17.7533 5.64941 18.1164 5.17844 17.9653C4.71105 17.8167 4.73716 17.082 4.73716 17.082L4.73977 15.2695H4.73716C0.653396 14.0809 0.713451 9.70223 0.760451 7.36296C0.80484 5.0237 1.24351 3.13824 2.489 1.84976C4.72672 -0.27341 9.31704 0.0129205 9.31704 0.0129205ZM12.5573 14.0858C13.324 13.9018 15.4651 13.3877 15.8605 10.0912C16.3122 6.32029 15.6934 3.74602 14.4818 2.66823C14.1162 2.32517 12.5391 1.30141 9.24654 1.2852C9.24654 1.2852 5.34816 1.02048 3.45511 2.79248C2.40284 3.86757 2.04773 5.4667 2.00856 7.41969L2.00429 7.61863C1.9601 9.61584 1.88222 13.1358 5.22022 14.0944C5.22022 14.0944 5.20716 16.8632 5.20455 17.1063C5.20455 17.2765 5.23066 17.3926 5.32466 17.4169C5.39255 17.4358 5.49438 17.398 5.58055 17.3089C6.13149 16.7335 7.89921 14.5293 7.89921 14.5293C10.2701 14.6914 12.1553 14.2052 12.359 14.1376C12.4059 14.1222 12.4734 14.106 12.5573 14.0858Z" fill="#4D7BF1"/>
</svg>
