<svg width="18" height="18" viewBox="0 0 18 18" fill="none" xmlns="http://www.w3.org/2000/svg">
<g clip-path="url(#clip0_4196_87068)">
<path d="M11.5539 0.0996729C10.9869 0.0524229 10.4469 0.167173 9.91889 0.449923C9.21389 0.827173 8.71139 1.40617 8.48489 2.15992V2.21017L8.45864 2.38642L8.35814 2.21017L8.10689 1.75792C7.70489 1.13017 7.20239 0.752923 6.57389 0.577423C6.02189 0.452923 5.56889 0.504673 5.09189 0.757423C4.56314 1.08442 4.26239 1.58692 4.13639 2.29117C4.01039 3.02017 4.13639 3.72367 4.51289 4.42642L4.68989 4.67842L4.08464 4.47817C3.33089 4.30117 2.62664 4.40017 1.92239 4.77817C1.19339 5.15242 0.741887 5.68192 0.440387 6.41242C0.162887 7.11592 0.188387 7.79467 0.540137 8.42242C0.691637 8.69992 0.918137 8.92492 1.11914 9.07642C1.42064 9.37792 1.79789 9.55342 2.25014 9.62842L2.42564 9.67792L2.04914 10.0064C1.69664 10.3079 1.49564 10.6837 1.36964 11.0609C1.24364 11.5132 1.29464 11.9662 1.54664 12.3937C1.67414 12.5947 1.79714 12.7709 1.99814 12.8962C2.19914 13.0724 2.45114 13.1984 2.75264 13.2232C3.30614 13.3507 3.88364 13.3492 4.51214 13.1482L4.05914 13.9019L3.93314 14.2289C3.68189 15.0344 3.75839 15.7364 4.13564 16.4662C4.31189 16.7437 4.51064 16.9949 4.71314 17.2207C5.01314 17.4967 5.39264 17.6722 5.84564 17.7982C6.59864 17.9992 7.35314 17.9752 8.08064 17.5979C8.78564 17.2207 9.23789 16.6154 9.46439 15.8617L9.48839 15.7117C9.96614 16.2389 10.4184 16.5914 10.9224 16.7167C11.4249 16.8682 11.9274 16.8442 12.3804 16.5419C12.8079 16.2907 13.1101 15.8624 13.2609 15.3344C13.3869 14.7809 13.3869 14.2289 13.2609 13.6004C13.5121 13.7767 13.7634 13.9004 14.0649 13.9769C14.8696 14.2282 15.5724 14.2019 16.2774 13.8269C16.9554 13.4489 17.4084 12.8459 17.6349 12.0667C17.8359 11.3129 17.7864 10.5839 17.4099 9.87967L17.2824 9.67717C17.0821 9.37567 16.8796 9.07417 16.5774 8.87317C16.3269 8.69692 16.0261 8.57167 15.7494 8.44567C16.5294 8.06842 17.0814 7.54042 17.3319 6.86167C17.5089 6.30817 17.4594 5.85517 17.2066 5.40292V5.35342C16.9051 4.85092 16.5039 4.52467 15.8754 4.34842C15.4981 4.27342 15.0714 4.27192 14.6949 4.29742L13.8639 4.47367L14.1414 3.84517C14.3919 3.04042 14.3176 2.26117 13.8901 1.53217L13.8151 1.40467C13.4379 0.776173 12.8851 0.399673 12.1306 0.199423C11.9356 0.149173 11.7429 0.114673 11.5539 0.0996729ZM11.1264 1.16017C11.3686 1.13767 11.6139 1.16917 11.8516 1.25767C12.3796 1.38217 12.7569 1.65817 12.9841 2.08567V2.08792C13.1101 2.33917 13.1844 2.63992 13.1844 2.96692L13.1094 3.52042C13.0089 3.79792 12.8829 4.04767 12.7321 4.27342L10.4701 7.04092C10.2451 6.86467 9.99239 6.73867 9.74114 6.61342L9.48914 3.77092L9.46439 2.76592L9.48839 2.51467C9.61439 2.01217 9.96689 1.63492 10.4184 1.38367C10.6449 1.25767 10.8834 1.18192 11.1264 1.16017ZM5.96414 1.56292C6.06464 1.55992 6.17114 1.58542 6.27164 1.63492C6.72389 1.76092 7.10114 2.08717 7.40264 2.71492C7.53014 2.96692 7.65464 3.21742 7.70489 3.51967L8.20739 6.48742L7.82939 6.61342L5.59214 4.17442L5.46614 3.92392C5.26364 3.47092 5.13989 3.04417 5.19014 2.59117V2.58967C5.21564 2.13742 5.39114 1.83742 5.69264 1.66117C5.76764 1.59817 5.86289 1.56592 5.96264 1.56367L5.96414 1.56292ZM15.0616 5.33767C15.1741 5.33767 15.2844 5.34292 15.3976 5.35567C15.8251 5.40667 16.1266 5.60842 16.2774 5.91067L16.3786 6.23542L16.3284 6.48667C16.1529 6.93892 15.7749 7.29217 15.1471 7.56817C14.8959 7.69417 14.6199 7.74442 14.3184 7.79317L11.2261 8.17042L11.1759 7.99417L11.1249 7.91917L11.2261 7.79392L13.7664 5.68192L14.0664 5.55742L14.0679 5.55592C14.4054 5.40592 14.7316 5.34142 15.0639 5.33842L15.0616 5.33767ZM3.46589 5.47492C3.58589 5.48092 3.70889 5.49967 3.83339 5.53117V5.53267L4.51439 5.80792L6.72689 7.41817C6.52439 7.67017 6.40064 7.92067 6.32489 8.17192L2.70389 8.62417L2.45339 8.57467C2.00114 8.49967 1.69814 8.29717 1.49639 7.92217C1.29389 7.54492 1.29614 7.16767 1.44689 6.78967C1.62314 6.31267 1.94939 5.93467 2.42639 5.73442C2.76614 5.54542 3.10514 5.45467 3.46589 5.47492ZM8.83589 7.49242C9.28889 7.49242 9.71714 7.66942 9.99389 7.94542C10.3464 8.29792 10.4964 8.67517 10.4964 9.12742C10.4964 9.57967 10.3464 10.0064 9.99389 10.3079C9.66689 10.6349 9.28889 10.8104 8.83664 10.8104C8.35964 10.8104 7.95914 10.6342 7.65689 10.3079C7.32989 10.0064 7.15439 9.58042 7.15439 9.12742C7.15439 8.67517 7.32989 8.29717 7.65689 7.94542C7.95839 7.66792 8.35964 7.49242 8.83739 7.49242H8.83589ZM15.1471 9.42742L15.3991 9.45367C15.7771 9.57967 16.1289 9.80467 16.3291 10.1812C16.5811 10.4587 16.7064 10.8359 16.7064 11.2634L16.6314 11.7659C16.5061 12.2684 16.2039 12.6457 15.7764 12.8459C15.3241 13.0979 14.8711 13.1482 14.3686 12.9734C14.0671 12.8984 13.8661 12.7724 13.6906 12.5714L11.0506 10.3829L11.2269 10.0064L11.3019 9.70417L14.1429 9.45292L15.1479 9.42667L15.1471 9.42742ZM10.1701 11.2634L11.2254 12.3434L11.8779 13.1482L12.0054 13.4009C12.2304 13.8284 12.3564 14.2297 12.3054 14.7074C12.2559 15.1589 12.1051 15.4859 11.8029 15.6119C11.6274 15.7379 11.4264 15.7394 11.2254 15.7132C10.7476 15.5887 10.3704 15.2122 10.0944 14.6084L9.79214 13.7774L9.41564 11.5897L9.84164 11.4397L10.1686 11.2634H10.1701ZM7.45514 11.3144C7.70564 11.4397 7.95764 11.5649 8.23514 11.5897C8.28464 12.4447 8.35889 13.3499 8.48414 14.3302V15.3367L8.45939 15.5864C8.28239 16.0387 7.98089 16.4167 7.52939 16.6177C7.07639 16.8689 6.59939 16.9192 6.14564 16.7939C5.64314 16.6687 5.26589 16.3664 5.06564 15.9644C4.93814 15.7132 4.83764 15.4094 4.83764 15.1094L4.96514 14.5319C5.01464 14.2807 5.14139 14.0294 5.34239 13.8269L7.45439 11.3144H7.45514Z" fill="#4D7BF1"/>
</g>
<defs>
<clipPath id="clip0_4196_87068">
<rect width="18" height="18" fill="white"/>
</clipPath>
</defs>
</svg>
