<svg width="18" height="18" viewBox="0 0 18 18" fill="none" xmlns="http://www.w3.org/2000/svg">
<path fill-rule="evenodd" clip-rule="evenodd" d="M5.61202 0.75C6.52693 0.75 7.41526 1.00466 8.17983 1.47424C8.452 1.44542 8.72605 1.4309 9.00083 1.4309C10.0121 1.4309 11.0135 1.62761 11.9478 2.00979C12.8821 2.39197 13.731 2.95213 14.4461 3.65831C15.1612 4.36449 15.7284 5.20284 16.1154 6.1255C16.5024 7.04816 16.7016 8.03707 16.7016 9.03575C16.7016 9.39065 16.6764 9.74432 16.6266 10.0942C16.7211 10.2603 16.8057 10.4321 16.8798 10.6088C17.1242 11.1915 17.25 11.8161 17.25 12.4469C17.25 13.0776 17.1242 13.7022 16.8798 14.2849C16.6354 14.8677 16.2771 15.3972 15.8255 15.8432C15.3738 16.2892 14.8377 16.643 14.2476 16.8844C13.6575 17.1258 13.025 17.25 12.3863 17.25C11.5114 17.25 10.6608 17.0172 9.91937 16.5863C9.61518 16.6224 9.30846 16.6406 9.00083 16.6406C7.98956 16.6406 6.98818 16.4439 6.05389 16.0617C5.11959 15.6795 4.27067 15.1194 3.55559 14.4132C2.84051 13.707 2.27328 12.8687 1.88628 11.946C1.49928 11.0233 1.30009 10.0344 1.30009 9.03575C1.30009 8.66181 1.32802 8.28925 1.38327 7.92102C0.971793 7.20479 0.75 6.38944 0.75 5.5515C0.75 4.27806 1.26225 3.05678 2.17405 2.15633C3.08586 1.25587 4.32253 0.75 5.61202 0.75ZM6.07663 7.97865C6.26455 8.29738 6.52424 8.56881 6.83543 8.77175C7.24775 9.03906 7.68605 9.26477 8.14378 9.4455C8.65557 9.65743 9.05264 9.8371 9.335 9.9845C9.57375 10.1009 9.79045 10.2571 9.97557 10.4465C10.1156 10.5938 10.1935 10.7886 10.1932 10.991C10.1992 11.1337 10.1708 11.2758 10.1104 11.4055C10.05 11.5352 9.95922 11.6488 9.84568 11.7368C9.54238 11.939 9.17952 12.0349 8.81488 12.0091C8.60869 12.0112 8.40292 11.9901 8.20151 11.9464C8.03816 11.9108 7.87839 11.8607 7.72413 11.7968C7.58906 11.7388 7.40458 11.6519 7.17071 11.536C6.98262 11.4366 6.77326 11.3833 6.56011 11.3804C6.36881 11.3727 6.18181 11.438 6.03777 11.563C5.96907 11.6278 5.91537 11.7066 5.88039 11.794C5.84541 11.8813 5.82998 11.9752 5.83516 12.069C5.83086 12.2469 5.88502 12.4214 5.98948 12.5662C6.1153 12.7242 6.27798 12.8495 6.46352 12.9314C7.1893 13.2431 7.97606 13.3906 8.76659 13.3632C9.34186 13.3746 9.91443 13.2822 10.4563 13.0904C10.9059 12.9322 11.2973 12.6443 11.5803 12.2637C11.8582 11.8617 11.999 11.3822 11.9822 10.8953C11.993 10.4976 11.8925 10.1047 11.6919 9.7601C11.4882 9.43222 11.2137 9.1531 10.8881 8.9428C10.476 8.67934 10.0387 8.45662 9.58257 8.27785C9.53381 8.25418 9.48334 8.23414 9.43158 8.2179C8.9642 8.0265 8.61264 7.87287 8.37691 7.757C8.16646 7.65925 7.97588 7.5241 7.81461 7.35825C7.67889 7.21707 7.60403 7.02906 7.6059 6.8341C7.59939 6.6856 7.63326 6.5381 7.70396 6.40701C7.77465 6.27591 7.87958 6.16603 8.00778 6.08885C8.31158 5.90939 8.66126 5.82076 9.01471 5.83365C9.2859 5.83084 9.55624 5.86413 9.81848 5.93265C10.1034 6.01405 10.3821 6.11513 10.6528 6.23515C10.7626 6.28563 10.882 6.31226 11.003 6.31325C11.091 6.31556 11.1785 6.29941 11.2597 6.26585C11.3409 6.2323 11.4141 6.1821 11.4743 6.11855C11.538 6.04959 11.5873 5.96887 11.6195 5.88102C11.6517 5.79316 11.6661 5.69988 11.6619 5.6065C11.6648 5.42676 11.6014 5.25215 11.4837 5.11535C11.324 4.94908 11.1259 4.82375 10.9065 4.75015C10.6675 4.66319 10.4203 4.6 10.1687 4.5615C9.81722 4.50437 9.46139 4.47732 9.10519 4.48065C8.56076 4.47746 8.01988 4.56771 7.50654 4.7474C7.03454 4.90529 6.61318 5.18425 6.28534 5.5559C5.96988 5.92599 5.80309 6.39827 5.81685 6.8825C5.80565 7.26406 5.8952 7.64191 6.07663 7.97865Z" fill="#4D7BF1"/>
</svg>
