<svg width="19" height="18" viewBox="0 0 19 18" fill="none" xmlns="http://www.w3.org/2000/svg">
<mask id="mask0_4196_87164" style="mask-type:alpha" maskUnits="userSpaceOnUse" x="0" y="0" width="19" height="18">
<rect x="0.5" width="18" height="18" fill="#D9D9D9"/>
</mask>
<g mask="url(#mask0_4196_87164)">
<path d="M15.3594 16.1252C13.8644 16.1252 12.3453 15.7658 10.8022 15.0471C9.25907 14.3283 7.83437 13.3096 6.52812 11.9908C5.20937 10.6846 4.1875 9.25826 3.4625 7.7119C2.7375 6.16553 2.375 4.64688 2.375 3.15597C2.375 2.79408 2.49911 2.48703 2.74732 2.2348C2.99553 1.98256 3.29955 1.85645 3.65937 1.85645H6.21875C6.60625 1.85645 6.92031 1.95801 7.16094 2.16113C7.40156 2.36426 7.56562 2.65957 7.65312 3.04707L8.15804 5.06534C8.20268 5.38233 8.19062 5.66582 8.12187 5.91582C8.05312 6.16582 7.92044 6.37661 7.72383 6.54818L5.80625 8.30645C6.08125 8.75645 6.37305 9.17931 6.68165 9.57503C6.99024 9.97077 7.34219 10.3542 7.7375 10.7252C8.14375 11.1627 8.55469 11.5428 8.97031 11.8656C9.38594 12.1884 9.8125 12.4645 10.25 12.6939L12.1352 10.8002C12.3409 10.5814 12.5681 10.4361 12.8169 10.3643C13.0657 10.2924 13.3319 10.2939 13.6156 10.3689L15.4412 10.7897C15.8304 10.8967 16.1281 11.0764 16.3344 11.3289C16.5406 11.5814 16.6437 11.8958 16.6437 12.2721V14.8408C16.6437 15.2078 16.5174 15.5136 16.2647 15.7582C16.0121 16.0029 15.7103 16.1252 15.3594 16.1252ZM4.94375 6.79707L6.44375 5.39082L6.02188 3.59082H4.1375C4.14375 4.03457 4.20598 4.51701 4.32419 5.03815C4.44241 5.55929 4.64893 6.1456 4.94375 6.79707ZM11.825 13.5846C12.2625 13.7971 12.7542 13.9721 13.3 14.1096C13.8458 14.2471 14.3823 14.3346 14.9094 14.3721V12.4442L13.2781 12.0752L11.825 13.5846Z" fill="#4D7BF1"/>
</g>
</svg>
