<svg width="18" height="18" viewBox="0 0 18 18" fill="none" xmlns="http://www.w3.org/2000/svg">
<path d="M6.87697 10.8494C8.94147 10.7182 10.6981 10.0557 11.9356 8.16213C13.1067 6.36854 13.0765 4.61245 11.9778 3.06883C10.6981 1.27524 7.74623 1.56897 7.74623 1.56897C7.74623 1.56897 10.4808 1.01902 13.0886 3.02509C15.6963 5.03116 16.469 8.58084 15.0444 11.3743C13.6198 14.1678 11.0844 15.2927 8.38007 15.0553C6.53289 16.5926 4.2873 16.4989 4.2873 16.4989C4.2873 16.4989 5.14449 15.6927 6.07411 14.4678C4.87888 13.9491 2.74195 12.5742 2.3375 9.99947C1.93305 7.4247 3.06189 6.2998 3.06189 6.2998C1.69159 9.17454 4.61931 10.9931 6.87697 10.8494ZM12.5996 6.08732C12.5996 6.08732 13.0463 2.91885 9.87713 1.88144C8.19897 1.33149 6.18277 1.81269 5.01168 2.66887C3.79834 3.55629 3.22487 4.91242 3.30335 5.1374C3.39993 5.42487 4.2873 4.31247 6.01979 3.87501C7.82471 3.4188 10.6739 3.79377 12.5996 6.08732ZM10.4808 9.47451C10.3359 6.35604 6.70191 4.0375 4.02773 5.53736C5.91113 4.74368 7.69794 5.69985 8.21708 8.11214C8.48269 9.33703 8.1869 10.4869 8.1869 10.4869C8.1869 10.4869 9.76243 10.2057 10.4808 9.47451ZM8.14464 8.33712C7.64361 4.47496 3.1464 4.65619 2.82646 7.24346C2.63933 8.75583 3.44219 9.32453 3.44219 9.32453C4.49254 7.32471 7.25124 7.66218 8.14464 8.33712Z" fill="#4D7BF1"/>
</svg>
