<svg width="18" height="18" viewBox="0 0 18 18" fill="none" xmlns="http://www.w3.org/2000/svg">
<path fill-rule="evenodd" clip-rule="evenodd" d="M2.53117 7.73879C6.5577 5.93947 9.24268 4.75325 10.5861 4.18013C14.4219 2.54374 15.2189 2.25949 15.7384 2.2501C15.8527 2.24804 16.1082 2.27708 16.2737 2.41481C16.4134 2.5311 16.4518 2.6882 16.4702 2.79846C16.4886 2.90872 16.5115 3.15989 16.4933 3.35615C16.2855 5.59624 15.3861 11.0323 14.9285 13.5413C14.7349 14.6029 14.3536 14.9588 13.9845 14.9937C13.1825 15.0694 12.5734 14.45 11.7965 13.9277C10.5809 13.1103 9.89409 12.6016 8.71409 11.804C7.3504 10.8823 8.23442 10.3757 9.01159 9.54778C9.21498 9.33111 12.749 6.0341 12.8174 5.73501C12.826 5.6976 12.8339 5.55817 12.7532 5.48454C12.6724 5.41092 12.5532 5.4361 12.4672 5.45612C12.3453 5.4845 10.4033 6.80105 6.64115 9.40576C6.08991 9.794 5.59062 9.98316 5.14328 9.97324C4.65011 9.96232 3.70146 9.68724 2.99623 9.45212C2.13125 9.16373 1.44377 9.01125 1.50363 8.52148C1.53481 8.26637 1.87733 8.00548 2.53117 7.73879Z" fill="#000000"/>
</svg>
