<svg width="20" height="20" viewBox="0 0 20 20" fill="none" xmlns="http://www.w3.org/2000/svg">
<g id="dark_mode">
<mask id="mask0_4896_29017" style="mask-type:alpha" maskUnits="userSpaceOnUse" x="0" y="0" width="20" height="20">
<rect id="Bounding box" width="20" height="20" fill="#D9D9D9"/>
</mask>
<g mask="url(#mask0_4896_29017)">
<path id="dark_mode_2" d="M10.0001 17.6978C7.85105 17.6978 6.0312 16.9519 4.5406 15.4601C3.04999 13.9683 2.30469 12.1488 2.30469 10.0018C2.30469 7.8547 3.05078 6.02943 4.54298 4.52596C6.03516 3.02249 7.85503 2.27075 10.0026 2.27075H10.2355C10.3233 2.27075 10.454 2.2777 10.6276 2.29159C10.2595 2.79853 9.97656 3.34367 9.77865 3.927C9.58073 4.51034 9.48177 5.11667 9.48177 5.746C9.48177 7.08136 9.94965 8.21447 10.8854 9.14531C11.8212 10.0762 12.9575 10.5416 14.2943 10.5416C14.9106 10.5416 15.5138 10.4562 16.1038 10.2855C16.6938 10.1147 17.2364 9.85979 17.7318 9.52075V9.97731C17.7318 12.1226 16.9804 13.9457 15.4778 15.4465C13.9751 16.9474 12.1493 17.6978 10.0001 17.6978ZM10.006 15.7916C11.2398 15.7916 12.3411 15.4218 13.3099 14.6822C14.2786 13.9426 14.9123 13.0763 15.2109 12.0833C14.9633 12.1937 14.6849 12.2752 14.3759 12.3276C14.0668 12.38 13.7764 12.3923 13.5046 12.3645C11.9615 12.1839 10.6465 11.5642 9.55979 10.5052C8.47306 9.44627 7.83247 8.10357 7.63802 6.47711C7.62413 6.26547 7.63471 6.01786 7.66975 5.73429C7.70478 5.45072 7.7949 5.11565 7.9401 4.72909C6.86372 5.13881 5.97309 5.83682 5.26823 6.82313C4.56337 7.80943 4.21094 8.86957 4.21094 10.0035C4.21094 11.6219 4.77178 12.9911 5.89348 14.1113C7.01517 15.2315 8.38601 15.7916 10.006 15.7916Z" fill="#4D7BF1"/>
</g>
</g>
</svg>
