<svg width="20" height="20" viewBox="0 0 20 20" fill="none" xmlns="http://www.w3.org/2000/svg">
<g clip-path="url(#clip0_4429_69538)">
<mask id="mask0_4429_69538" style="mask-type:alpha" maskUnits="userSpaceOnUse" x="0" y="0" width="20" height="20">
<rect width="20" height="20" fill="#ffffff"/>
</mask>
<g mask="url(#mask0_4429_69538)">
<path d="M3.15625 17.0941C2.62821 17.0941 2.17849 16.9084 1.80708 16.537C1.43569 16.1656 1.25 15.7159 1.25 15.1878V4.81283C1.25 4.27906 1.43569 3.82444 1.80708 3.44895C2.1785 3.07348 2.62822 2.88574 3.15625 2.88574H16.8437C17.3775 2.88574 17.8321 3.07348 18.2076 3.44895C18.5831 3.82444 18.7708 4.27906 18.7708 4.81283V15.1878C18.7708 15.7159 18.5831 16.1656 18.2076 16.537C17.8321 16.9084 17.3775 17.0941 16.8437 17.0941H3.15625ZM10 11.0003L3.15625 6.38574V15.1878H16.8437V6.38574L10 11.0003ZM10 9.32324L16.75 4.81283H3.27083L10 9.32324ZM3.15625 6.38574V4.81283V15.1878V6.38574Z" fill="#4D7BF1"/>
</g>
</g>
<defs>
<clipPath id="clip0_4429_69538">
<rect width="20" height="20" fill="white"/>
</clipPath>
</defs>
</svg>
