<svg width="388" height="108" viewBox="0 0 388 108" fill="none" xmlns="http://www.w3.org/2000/svg">
<path d="M210.15 47.5163H207.517L206.583 46.6163C209.85 42.8163 211.817 37.8829 211.817 32.5163C211.817 20.5496 202.117 10.8496 190.15 10.8496C178.75 10.8496 169.417 19.6496 168.583 30.8496H175.317C176.15 23.3496 182.417 17.5163 190.15 17.5163C198.45 17.5163 205.15 24.2163 205.15 32.5163C205.15 40.8163 198.45 47.5163 190.15 47.5163C189.583 47.5163 189.05 47.4163 188.483 47.3496V54.0829C189.05 54.1496 189.583 54.1829 190.15 54.1829C195.517 54.1829 200.45 52.2163 204.25 48.9496L205.15 49.8829V52.5163L221.817 69.1496L226.783 64.1829L210.15 47.5163Z" fill="#567A45"/>
<path d="M180.05 36.9163L171.817 45.1496L163.583 36.9163L161.217 39.2829L169.45 47.5163L161.217 55.7496L163.583 58.1163L171.817 49.8829L180.05 58.1163L182.417 55.7496L174.183 47.5163L182.417 39.2829L180.05 36.9163Z" fill="#567A45"/>
<path d="M162.441 105H161.279V100.29H156.029V105H154.867V95.0059H156.029V99.2646H161.279V95.0059H162.441V105ZM167.903 97.3711C168.541 97.3711 169.088 97.5124 169.544 97.7949C170 98.0775 170.348 98.474 170.59 98.9844C170.831 99.4902 170.952 100.083 170.952 100.762V101.466H165.777C165.791 102.345 166.01 103.015 166.434 103.476C166.857 103.936 167.454 104.166 168.225 104.166C168.699 104.166 169.118 104.123 169.482 104.036C169.847 103.95 170.225 103.822 170.617 103.653V104.651C170.239 104.82 169.863 104.943 169.489 105.021C169.12 105.098 168.683 105.137 168.177 105.137C167.457 105.137 166.828 104.991 166.29 104.699C165.757 104.403 165.342 103.97 165.046 103.4C164.75 102.831 164.602 102.133 164.602 101.309C164.602 100.502 164.736 99.8047 165.005 99.2168C165.278 98.6243 165.661 98.1686 166.153 97.8496C166.65 97.5306 167.233 97.3711 167.903 97.3711ZM167.89 98.3008C167.284 98.3008 166.8 98.499 166.44 98.8955C166.08 99.292 165.866 99.8457 165.798 100.557H169.763C169.758 100.11 169.688 99.7181 169.551 99.3809C169.419 99.0391 169.216 98.7747 168.942 98.5879C168.669 98.3965 168.318 98.3008 167.89 98.3008ZM177.986 98.4717H175.519V105H174.397V98.4717H171.964V97.5078H177.986V98.4717ZM188.596 97.5078V104.036H189.669V107.591H188.568V105H183.264V107.591H182.177V104.036H182.765C183.193 103.444 183.549 102.794 183.831 102.088C184.114 101.382 184.328 100.641 184.474 99.8662C184.619 99.0869 184.697 98.3008 184.706 97.5078H188.596ZM187.495 98.4102H185.718C185.677 99.0755 185.579 99.7523 185.424 100.44C185.273 101.129 185.073 101.785 184.822 102.409C184.572 103.029 184.28 103.571 183.947 104.036H187.495V98.4102ZM193.962 97.3848C194.855 97.3848 195.518 97.5853 195.951 97.9863C196.384 98.3874 196.601 99.0277 196.601 99.9072V105H195.773L195.555 103.893H195.5C195.29 104.166 195.072 104.396 194.844 104.583C194.616 104.765 194.352 104.904 194.051 105C193.755 105.091 193.39 105.137 192.957 105.137C192.501 105.137 192.096 105.057 191.74 104.897C191.389 104.738 191.111 104.496 190.906 104.173C190.706 103.849 190.605 103.439 190.605 102.942C190.605 102.195 190.902 101.621 191.494 101.22C192.087 100.819 192.989 100.6 194.201 100.563L195.493 100.509V100.051C195.493 99.4036 195.354 98.9502 195.076 98.6904C194.798 98.4307 194.406 98.3008 193.9 98.3008C193.508 98.3008 193.135 98.3577 192.779 98.4717C192.424 98.5856 192.087 98.7201 191.768 98.875L191.419 98.0137C191.756 97.8405 192.144 97.6924 192.581 97.5693C193.019 97.4463 193.479 97.3848 193.962 97.3848ZM195.479 101.309L194.338 101.356C193.404 101.393 192.745 101.546 192.362 101.814C191.979 102.083 191.788 102.464 191.788 102.956C191.788 103.384 191.918 103.701 192.178 103.906C192.438 104.111 192.782 104.214 193.21 104.214C193.875 104.214 194.42 104.029 194.844 103.66C195.268 103.291 195.479 102.737 195.479 101.999V101.309ZM200.08 97.5078V100.652H204.257V97.5078H205.392V105H204.257V101.616H200.08V105H198.938V97.5078H200.08ZM208.939 97.5078V100.652H213.116V97.5078H214.251V105H213.116V101.616H208.939V105H207.798V97.5078H208.939ZM216.657 105V97.5078H217.799V100.598H219.85C220.488 100.598 221.012 100.677 221.422 100.837C221.837 100.996 222.144 101.233 222.345 101.548C222.545 101.862 222.646 102.252 222.646 102.717C222.646 103.182 222.545 103.585 222.345 103.927C222.149 104.269 221.839 104.533 221.415 104.72C220.996 104.907 220.449 105 219.774 105H216.657ZM217.799 104.077H219.665C220.23 104.077 220.681 103.977 221.019 103.776C221.356 103.576 221.524 103.241 221.524 102.771C221.524 102.311 221.367 101.992 221.053 101.814C220.738 101.632 220.287 101.541 219.699 101.541H217.799V104.077ZM223.883 105V97.5078H225.018V105H223.883ZM229.201 101.165L226.61 97.5078H227.909L229.885 100.393L231.854 97.5078H233.139L230.548 101.165L233.282 105H231.983L229.885 101.944L227.772 105H226.487L229.201 101.165Z" fill="#567A45"/>
</svg>
