<svg width="80" height="81" viewBox="0 0 80 81" fill="none" xmlns="http://www.w3.org/2000/svg">
<mask id="mask0_8083_110170" style="mask-type:alpha" maskUnits="userSpaceOnUse" x="0" y="0" width="80" height="81">
<rect y="0.262207" width="80" height="80" fill="#D9D9D9"/>
</mask>
<g mask="url(#mask0_8083_110170)">
<path d="M22.4948 73.1372C18.2448 73.1372 14.592 71.6094 11.5365 68.5539C8.4809 65.4983 6.95312 61.8455 6.95312 57.5955C6.95312 53.3455 8.4809 49.6928 11.5365 46.6372C14.592 43.5817 18.2448 42.0539 22.4948 42.0539C26.7448 42.0539 30.3976 43.5817 33.4531 46.6372C36.5087 49.6928 38.0365 53.3455 38.0365 57.5955C38.0365 61.8455 36.5087 65.4983 33.4531 68.5539C30.3976 71.6094 26.7448 73.1372 22.4948 73.1372ZM69.8281 72.1789L47.9115 50.2622C46.9115 51.1511 45.7587 51.9636 44.4531 52.6997C43.1476 53.4358 41.9115 54.0539 40.7448 54.5539C40.717 52.7205 40.5642 51.1025 40.2865 49.6997C40.0087 48.2969 39.6198 47.0539 39.1198 45.9705C42.092 44.9428 44.5642 43.1858 46.5365 40.6997C48.5087 38.2136 49.4948 35.1789 49.4948 31.5955C49.4948 27.4289 48.0781 23.915 45.2448 21.0539C42.4115 18.1928 38.9115 16.7622 34.7448 16.7622C30.6059 16.7622 27.0851 18.1928 24.1823 21.0539C21.2795 23.915 19.8281 27.4289 19.8281 31.5955C19.8281 32.5678 19.9115 33.6094 20.0781 34.7205C20.2448 35.8317 20.5087 36.6928 20.8698 37.3039C19.7031 37.415 18.4392 37.665 17.0781 38.0539C15.717 38.4428 14.5365 38.915 13.5365 39.4705C13.0642 38.3594 12.724 37.0747 12.5156 35.6164C12.3073 34.158 12.2031 32.8178 12.2031 31.5955C12.2031 25.3455 14.3976 20.04 18.7865 15.6789C23.1753 11.3178 28.4948 9.13721 34.7448 9.13721C40.9392 9.13721 46.217 11.3317 50.5781 15.7205C54.9392 20.1094 57.1198 25.4011 57.1198 31.5955C57.1198 33.9844 56.7517 36.3317 56.0156 38.6372C55.2795 40.9428 54.2726 42.9011 52.9948 44.5122L75.3698 66.6372L69.8281 72.1789ZM19.6615 66.6789L24.4115 61.8455L27.2031 64.6372L31.3698 60.4289L26.6198 55.7622L29.6198 52.7622L25.4531 48.5539L20.6198 53.3872L17.6615 50.4705L13.4948 54.6372L18.4115 59.4705L15.4531 62.4289L19.6615 66.6789Z" fill="#4D7BF1"/>
</g>
</svg>
