<svg width="24" height="25" viewBox="0 0 24 25" fill="none" xmlns="http://www.w3.org/2000/svg">
<path id="Subtract" fill-rule="evenodd" clip-rule="evenodd" d="M13.9017 24.5386C19.6254 23.6273 24 18.6687 24 12.6885C24 6.06106 18.6274 0.688477 12 0.688477C5.37258 0.688477 0 6.06106 0 12.6885C0 18.6682 4.37372 23.6263 10.0966 24.5384C10.0854 24.5106 10.0792 24.4803 10.0792 24.4485V16.2885C10.0792 16.156 9.97177 16.0485 9.83922 16.0485H7.43922C7.30667 16.0485 7.19922 15.9411 7.19922 15.8085V12.9285C7.19922 12.796 7.30667 12.6885 7.43922 12.6885H9.83922C9.97177 12.6885 10.0792 12.5811 10.0792 12.4485V9.32853C10.0792 7.88853 11.6152 5.48853 13.9192 5.48853H17.0393C17.1718 5.48853 17.2792 5.59598 17.2792 5.72853V8.60853C17.2792 8.74107 17.1718 8.84853 17.0392 8.84853H15.5992C15.1192 8.84853 13.9192 9.32853 13.9192 10.2885V12.4487C13.9192 12.5812 14.0267 12.6885 14.1592 12.6885H16.5592C16.6918 12.6885 16.7992 12.796 16.7992 12.9285V15.8085C16.7992 15.9411 16.6918 16.0485 16.5592 16.0485H14.1592C14.0267 16.0485 13.9192 16.156 13.9192 16.2885V24.4485C13.9192 24.4804 13.913 24.5108 13.9017 24.5386Z" fill="#4D7BF1"/>
</svg>
