<svg width="24" height="24" viewBox="0 0 24 24" fill="none" xmlns="http://www.w3.org/2000/svg">
<path id="Subtract" fill-rule="evenodd" clip-rule="evenodd" d="M13.9017 23.9324C19.6254 23.0211 24 18.0625 24 12.0823C24 5.45486 18.6274 0.0822754 12 0.0822754C5.37258 0.0822754 0 5.45486 0 12.0823C0 18.062 4.37372 23.0201 10.0966 23.9322C10.0854 23.9044 10.0792 23.8741 10.0792 23.8423V15.6823C10.0792 15.5498 9.97177 15.4423 9.83922 15.4423H7.43922C7.30667 15.4423 7.19922 15.3349 7.19922 15.2023V12.3223C7.19922 12.1898 7.30667 12.0823 7.43922 12.0823H9.83922C9.97177 12.0823 10.0792 11.9749 10.0792 11.8423V8.72232C10.0792 7.28232 11.6152 4.88232 13.9192 4.88232H17.0393C17.1718 4.88232 17.2792 4.98978 17.2792 5.12232V8.00232C17.2792 8.13487 17.1718 8.24232 17.0392 8.24232H15.5992C15.1192 8.24232 13.9192 8.72232 13.9192 9.68232V11.8425C13.9192 11.975 14.0267 12.0823 14.1592 12.0823H16.5592C16.6918 12.0823 16.7992 12.1898 16.7992 12.3223V15.2023C16.7992 15.3349 16.6918 15.4423 16.5592 15.4423H14.1592C14.0267 15.4423 13.9192 15.5498 13.9192 15.6823V23.8423C13.9192 23.8742 13.913 23.9046 13.9017 23.9324Z" fill="#B5B5B5"/>
</svg>
