<svg width="140" height="140" viewBox="0 0 140 140" fill="none" xmlns="http://www.w3.org/2000/svg">
<mask id="mask0_651_94122" style="mask-type:alpha" maskUnits="userSpaceOnUse" x="0" y="0" width="140" height="140">
<rect width="140" height="140" fill="#D9D9D9"/>
</mask>
<g mask="url(#mask0_651_94122)">
<path d="M52.6343 123.846L42.8971 107.423L24.3651 103.43L26.1823 84.3141L13.6855 70L26.1823 55.6859L24.3651 36.5705L42.8971 32.5768L52.6343 16.1538L69.9997 23.4904L87.3651 16.1538L97.1022 32.5768L115.634 36.5705L113.817 55.6859L126.314 70L113.817 84.3141L115.634 103.43L97.1022 107.423L87.3651 123.846L69.9997 116.51L52.6343 123.846ZM55.1247 116.375L69.9997 110.183L84.942 116.375L93.333 102.375L109.375 98.8076L107.916 82.25L118.708 70L107.916 57.6826L109.375 41.125L93.333 37.625L84.8747 23.625L69.9997 29.8174L55.0573 23.625L46.6663 37.625L30.6247 41.125L32.083 57.6826L21.2913 70L32.083 82.25L30.6247 98.875L46.6663 102.375L55.1247 116.375ZM63.8747 86.6699L92.7946 57.75L88.6663 53.5545L63.8747 78.3462L51.333 65.8718L47.2048 70L63.8747 86.6699Z" fill="#338E63"/>
</g>
</svg>
