<svg width="140" height="140" viewBox="0 0 140 140" fill="none" xmlns="http://www.w3.org/2000/svg">
<mask id="mask0_651_94123" style="mask-type:alpha" maskUnits="userSpaceOnUse" x="0" y="0" width="140" height="140">
<rect width="140" height="140" fill="#D9D9D9"/>
</mask>
<g mask="url(#mask0_651_94123)">
<path d="M70 122.5C64.7051 122.5 59.442 121.634 54.2108 119.903C48.9794 118.172 43.9968 115.672 39.2629 112.404L43.4583 108.208C47.5417 111.028 51.8194 113.142 56.2917 114.552C60.7639 115.962 65.3333 116.667 70 116.667C83.0053 116.667 94.0345 112.14 103.087 103.087C112.14 94.0345 116.667 83.0053 116.667 70C116.667 56.9947 112.14 45.9655 103.087 36.9126C94.0345 27.8598 83.0053 23.3333 70 23.3333C56.9947 23.3333 45.9655 27.8598 36.9126 36.9126C27.8598 45.9655 23.3333 56.9947 23.3333 70H17.5C17.5 62.7532 18.8817 55.9364 21.645 49.5496C24.4084 43.1629 28.1533 37.6063 32.8797 32.8797C37.6063 28.1533 43.1629 24.4084 49.5496 21.645C55.9364 18.8817 62.7532 17.5 70 17.5C77.2468 17.5 84.058 18.8817 90.4334 21.645C96.809 24.4084 102.366 28.1589 107.103 32.8966C111.841 37.6344 115.592 43.191 118.355 49.5666C121.118 55.942 122.5 62.7532 122.5 70C122.5 77.2244 121.118 84.0299 118.355 90.4167C115.592 96.8034 111.841 102.366 107.103 107.103C102.366 111.841 96.809 115.592 90.4334 118.355C84.058 121.118 77.2468 122.5 70 122.5ZM25.5433 97.7196L46.734 76.5288L64.234 91.1121L95.3525 59.9936V79.6475H100.737V50.9295H72.0192V56.3141H91.673L64.0993 83.8879L46.5993 69.3045L22.7837 93.1203C23.2548 94.085 23.6605 94.8796 24.0008 95.5041C24.3411 96.1285 24.8553 96.867 25.5433 97.7196Z" fill="#338E63"/>
</g>
</svg>
