<svg width="140" height="140" viewBox="0 0 140 140" fill="none" xmlns="http://www.w3.org/2000/svg">
<mask id="mask0_32_2462" style="mask-type:alpha" maskUnits="userSpaceOnUse" x="0" y="0" width="140" height="140">
<rect width="140" height="140" fill="#D9D9D9"/>
</mask>
<g mask="url(#mask0_32_2462)">
<path d="M63.8744 86.6699L92.7943 57.75L88.6323 53.5881L63.8744 78.3462L51.4001 65.8718L47.2381 70.0337L63.8744 86.6699ZM69.9994 122.276C58.2803 118.798 48.545 111.699 40.7935 100.978C33.0418 90.2578 29.166 78.1816 29.166 64.75V33.2051L69.9994 17.9487L110.833 33.2051V64.75C110.833 78.1816 106.957 90.2578 99.2053 100.978C91.4537 111.699 81.7184 118.798 69.9994 122.276ZM69.9994 116.083C80.1105 112.875 88.4716 106.458 95.0827 96.8333C101.694 87.2083 104.999 76.5139 104.999 64.75V37.1875L69.9994 24.1747L34.9994 37.1875V64.75C34.9994 76.5139 38.3049 87.2083 44.916 96.8333C51.5271 106.458 59.8882 112.875 69.9994 116.083Z" fill="#338E63"/>
</g>
</svg>
