<svg width="140" height="140" viewBox="0 0 140 140" fill="none" xmlns="http://www.w3.org/2000/svg">
<mask id="mask0_651_94121" style="mask-type:alpha" maskUnits="userSpaceOnUse" x="0" y="0" width="140" height="140">
<rect width="140" height="140" fill="#D9D9D9"/>
</mask>
<g mask="url(#mask0_651_94121)">
<path d="M101.859 116.667H43.3013V52.5L79.8718 16.3781L82.452 18.9584C82.9829 19.4893 83.4297 20.1698 83.7925 21C84.1552 21.8301 84.3366 22.5929 84.3366 23.2884V24.2084L78.3687 52.5H118.91C121.348 52.5 123.528 53.461 125.45 55.383C127.372 57.305 128.333 59.485 128.333 61.923V69.1026C128.333 69.6336 128.273 70.2132 128.154 70.8413C128.034 71.4696 127.877 72.0492 127.683 72.5801L111.753 110.34C110.953 112.135 109.607 113.638 107.715 114.849C105.823 116.061 103.871 116.667 101.859 116.667ZM49.1346 110.833H101.859C102.682 110.833 103.523 110.609 104.383 110.16C105.243 109.712 105.897 108.964 106.346 107.917L122.5 70V61.923C122.5 60.8761 122.163 60.016 121.49 59.343C120.817 58.6699 119.957 58.3334 118.91 58.3334H71.1217L77.875 26.4743L49.1346 54.9904V110.833ZM43.3013 52.5V58.3334H23.3333V110.833H43.3013V116.667H17.5V52.5H43.3013Z" fill="#338E63"/>
</g>
</svg>
