<svg width="140" height="140" viewBox="0 0 140 140" fill="none" xmlns="http://www.w3.org/2000/svg">
<mask id="mask0_32_2429" style="mask-type:alpha" maskUnits="userSpaceOnUse" x="0" y="0" width="140" height="140">
<rect width="140" height="140" fill="#D9D9D9"/>
</mask>
<g mask="url(#mask0_32_2429)">
<path d="M61.25 121.76C54.9081 120.608 49.0579 118.478 43.6995 115.371C38.341 112.264 33.7155 108.427 29.8229 103.862C25.9302 99.2958 22.9033 94.1261 20.742 88.3526C18.5807 82.5791 17.5 76.4616 17.5 70C17.5 61.6015 19.3117 53.7901 22.9351 46.5658C26.5584 39.3414 31.9935 33.0182 39.2404 27.5962H21.875V21.7627H49.5833V49.4712H43.75V31.5562C36.907 36.2826 31.7935 41.9869 28.4095 48.6691C25.0254 55.3513 23.3333 62.4616 23.3333 70C23.3333 81.1358 26.8165 90.9795 33.7829 99.5313C40.7492 108.083 49.9049 113.5 61.25 115.78V121.76ZM61.6875 92.7949L41.0801 72.1538L45.2083 68.0256L61.6875 84.5048L94.7917 51.4006L98.9199 55.5625L61.6875 92.7949ZM90.4167 118.349V90.641H96.25V108.556C103.018 103.732 108.113 97.9851 111.535 91.3142C114.956 84.6432 116.667 77.5384 116.667 70C116.667 58.8643 113.183 49.0205 106.217 40.4688C99.2508 31.9169 90.0951 26.5005 78.75 24.2196V18.2404C91.5086 20.5213 101.99 26.4631 110.194 36.0656C118.398 45.6683 122.5 56.9797 122.5 70C122.5 78.3986 120.688 86.2287 117.065 93.4904C113.442 100.752 108.006 107.094 100.76 112.516H118.125V118.349H90.4167Z" fill="#338E63"/>
</g>
</svg>
