<svg width="44" height="44" viewBox="0 0 44 44" fill="none" xmlns="http://www.w3.org/2000/svg">
<path d="M34 22C34 28.6274 28.6274 34 22 34C15.3726 34 10 28.6274 10 22C10 15.3726 15.3726 10 22 10C28.6274 10 34 15.3726 34 22Z" fill="#D0DBE2"/>
<path d="M20.08 25.6V33.76C20.08 33.8925 20.1875 34 20.32 34H23.68C23.8125 34 23.92 33.8925 23.92 33.76V25.6C23.92 25.4675 24.0275 25.36 24.16 25.36H26.56C26.6925 25.36 26.8 25.2525 26.8 25.12V22.24C26.8 22.1075 26.6925 22 26.56 22H24.16C24.0275 22 23.92 21.8927 23.92 21.7602V19.6C23.92 18.64 25.12 18.16 25.6 18.16H27.04C27.1725 18.16 27.28 18.0525 27.28 17.92V15.04C27.28 14.9075 27.1726 14.8 27.04 14.8H23.92C21.616 14.8 20.08 17.2 20.08 18.64V21.76C20.08 21.8925 19.9725 22 19.84 22H17.44C17.3075 22 17.2 22.1075 17.2 22.24V25.12C17.2 25.2525 17.3075 25.36 17.44 25.36H19.84C19.9725 25.36 20.08 25.4675 20.08 25.6Z" fill="#020F17"/>
</svg>
