<svg width="18" height="18" viewBox="0 0 18 18" fill="none" xmlns="http://www.w3.org/2000/svg">
<mask id="mask0_4196_67897" style="mask-type:alpha" maskUnits="userSpaceOnUse" x="0" y="0" width="18" height="18">
<rect width="18" height="18" fill="#D9D9D9"/>
</mask>
<g mask="url(#mask0_4196_67897)">
<path d="M2.84063 15.3842C2.36539 15.3842 1.96064 15.2171 1.62637 14.8828C1.29212 14.5485 1.125 14.1438 1.125 13.6686V4.33105C1.125 3.85067 1.29212 3.4415 1.62637 3.10357C1.96065 2.76564 2.3654 2.59668 2.84063 2.59668H15.1594C15.6398 2.59668 16.0489 2.76564 16.3869 3.10357C16.7248 3.4415 16.8937 3.85067 16.8937 4.33105V13.6686C16.8937 14.1438 16.7248 14.5485 16.3869 14.8828C16.0489 15.2171 15.6398 15.3842 15.1594 15.3842H2.84063ZM9 9.89981L2.84063 5.74668V13.6686H15.1594V5.74668L9 9.89981ZM9 8.39043L15.075 4.33105H2.94375L9 8.39043ZM2.84063 5.74668V4.33105V13.6686V5.74668Z" fill="#000000"/>
</g>
</svg>
