<svg width="44" height="44" viewBox="0 0 44 44" fill="none" xmlns="http://www.w3.org/2000/svg">
<path d="M31.543 16.9945C31.5576 17.2115 31.5576 17.4285 31.5576 17.6475C31.5576 24.32 26.6045 32.0154 17.5476 32.0154V32.0114C14.8722 32.0154 12.2523 31.2294 10 29.7476C10.389 29.7955 10.78 29.8195 11.172 29.8205C13.3892 29.8225 15.543 29.0596 17.2873 27.6547C15.1803 27.6137 13.3326 26.2048 12.6871 24.148C13.4252 24.294 14.1857 24.264 14.9102 24.061C12.613 23.585 10.9604 21.5152 10.9604 19.1114C10.9604 19.0894 10.9604 19.0684 10.9604 19.0474C11.6449 19.4383 12.4112 19.6553 13.1951 19.6793C11.0316 18.1964 10.3647 15.2446 11.6712 12.9368C14.1711 16.0916 17.8596 18.0094 21.8191 18.2124C21.4223 16.4586 21.9644 14.6207 23.2436 13.3878C25.2268 11.4759 28.3459 11.5739 30.2101 13.6068C31.3129 13.3838 32.3698 12.9688 33.337 12.3809C32.9694 13.5498 32.2001 14.5427 31.1725 15.1736C32.1484 15.0557 33.102 14.7877 34 14.3787C33.3389 15.3946 32.5063 16.2796 31.543 16.9945Z" fill="#D0DBE2"/>
</svg>
