<svg width="203" height="60" viewBox="0 0 203 60" fill="none" xmlns="http://www.w3.org/2000/svg">
<g clip-path="url(#clip0_4463_70022)">
<path d="M8 0.5H195.5C199.366 0.5 202.5 3.63401 202.5 7.5V52.5C202.5 56.366 199.366 59.5 195.5 59.5H8C4.13401 59.5 1 56.366 1 52.5V7.5C1 3.63401 4.13401 0.5 8 0.5Z" stroke="#4D7BF1"/>
<path d="M102.708 32.6249C101.444 32.6279 100.21 33.0055 99.1606 33.7101C98.1115 34.4147 97.2948 35.4146 96.8139 36.5834C96.333 37.7521 96.2095 39.0372 96.4589 40.2762C96.7084 41.5152 97.3197 42.6523 98.2154 43.5439C99.1112 44.4354 100.251 45.0413 101.491 45.285C102.731 45.5286 104.016 45.3991 105.182 44.9127C106.349 44.4263 107.345 43.605 108.045 42.5525C108.744 41.5 109.116 40.2637 109.113 38.9999C109.125 38.1568 108.968 37.3198 108.65 36.5389C108.332 35.758 107.86 35.049 107.263 34.4541C106.665 33.8593 105.954 33.3908 105.171 33.0766C104.389 32.7623 103.551 32.6087 102.708 32.6249ZM102.708 42.8699C101.934 42.9241 101.161 42.7439 100.49 42.353C99.8187 41.962 99.281 41.3782 98.9462 40.6775C98.6115 39.9769 98.4953 39.1917 98.6127 38.4241C98.7301 37.6565 99.0758 36.942 99.6046 36.3734C100.134 35.8049 100.821 35.4086 101.578 35.236C102.335 35.0635 103.127 35.1227 103.85 35.406C104.573 35.6893 105.194 36.1835 105.632 36.8244C106.071 37.4654 106.306 38.2234 106.308 38.9999C106.332 39.4919 106.258 39.9838 106.089 40.4465C105.92 40.9092 105.66 41.3335 105.324 41.6941C104.989 42.0548 104.585 42.3447 104.135 42.5466C103.686 42.7485 103.201 42.8585 102.708 42.8699ZM88.7282 32.6249C87.4644 32.6279 86.2298 33.0055 85.1806 33.7101C84.1315 34.4147 83.3148 35.4146 82.8339 36.5834C82.353 37.7521 82.2295 39.0372 82.4789 40.2762C82.7284 41.5152 83.3397 42.6523 84.2354 43.5439C85.1312 44.4354 86.2712 45.0413 87.5113 45.285C88.7514 45.5286 90.0359 45.3991 91.2024 44.9127C92.3689 44.4263 93.3649 43.605 94.0646 42.5525C94.7643 41.5 95.1362 40.2637 95.1332 38.9999C95.1454 38.1568 94.9879 37.3198 94.67 36.5389C94.352 35.758 93.8802 35.049 93.2826 34.4541C92.685 33.8593 91.9738 33.3908 91.1913 33.0766C90.4089 32.7623 89.5712 32.6087 88.7282 32.6249ZM88.7282 42.8699C87.9536 42.9241 87.1806 42.7439 86.5096 42.353C85.8387 41.962 85.301 41.3782 84.9662 40.6775C84.6315 39.9769 84.5153 39.1917 84.6327 38.4241C84.7501 37.6565 85.0958 36.942 85.6246 36.3734C86.1535 35.8049 86.8412 35.4086 87.5984 35.236C88.3555 35.0635 89.147 35.1227 89.87 35.406C90.593 35.6893 91.2141 36.1835 91.6525 36.8244C92.0909 37.4654 92.3263 38.2234 92.3282 38.9999C92.3524 39.4919 92.2778 39.9838 92.1088 40.4465C91.9398 40.9092 91.6799 41.3335 91.3444 41.6941C91.0089 42.0548 90.6045 42.3447 90.1552 42.5466C89.7059 42.7485 89.2207 42.8585 88.7282 42.8699ZM72.1082 34.5899V37.2899H78.5882C78.4866 38.5616 77.958 39.7616 77.0882 40.6949C76.4382 41.3572 75.6564 41.8756 74.7934 42.2167C73.9303 42.5577 73.0053 42.7138 72.0782 42.6749C70.1686 42.6749 68.3373 41.9163 66.987 40.5661C65.6368 39.2158 64.8782 37.3844 64.8782 35.4749C64.8782 33.5653 65.6368 31.734 66.987 30.3837C68.3373 29.0335 70.1686 28.2749 72.0782 28.2749C73.9089 28.2477 75.6765 28.9429 76.9982 30.2099L78.9032 28.3049C78.0092 27.4206 76.9477 26.7237 75.7809 26.2549C74.6141 25.7862 73.3655 25.555 72.1082 25.5749C70.7747 25.523 69.4444 25.7408 68.1971 26.2153C66.9498 26.6899 65.8111 27.4113 64.8493 28.3364C63.8875 29.2615 63.1223 30.3713 62.5997 31.5992C62.077 32.8271 61.8076 34.1479 61.8076 35.4824C61.8076 36.8169 62.077 38.1377 62.5997 39.3656C63.1223 40.5935 63.8875 41.7033 64.8493 42.6284C65.8111 43.5535 66.9498 44.2749 68.1971 44.7494C69.4444 45.2239 70.7747 45.4418 72.1082 45.3899C73.3913 45.4411 74.6708 45.2204 75.8626 44.7421C77.0543 44.2639 78.1314 43.5389 79.0232 42.6149C80.5984 40.8845 81.4377 38.6087 81.3632 36.2699C81.3686 35.707 81.3234 35.1447 81.2282 34.5899H72.1082ZM140.073 36.6899C139.682 35.539 138.95 34.5341 137.975 33.8082C137 33.0823 135.828 32.6696 134.613 32.6249C133.793 32.6233 132.981 32.79 132.227 33.1147C131.474 33.4394 130.795 33.9152 130.232 34.5127C129.67 35.1102 129.236 35.8167 128.958 36.5885C128.679 37.3603 128.562 38.181 128.613 38.9999C128.6 40.3692 129.031 41.7058 129.84 42.8103C130.65 43.9147 131.795 44.7276 133.105 45.1276C134.414 45.5276 135.818 45.4931 137.107 45.0294C138.395 44.5657 139.499 43.6977 140.253 42.5549L138.078 41.0549C137.754 41.5953 137.294 42.0416 136.744 42.3494C136.194 42.6573 135.573 42.816 134.943 42.8099C134.293 42.8367 133.65 42.6663 133.099 42.3209C132.547 41.9756 132.113 41.4715 131.853 40.8749L140.388 37.3499L140.073 36.6899ZM131.373 38.8199C131.343 38.354 131.406 37.8866 131.558 37.4453C131.711 37.004 131.95 36.5975 132.261 36.2497C132.573 35.9018 132.95 35.6197 133.372 35.4197C133.794 35.2197 134.252 35.1058 134.718 35.0849C135.202 35.0554 135.683 35.1692 136.102 35.412C136.521 35.6548 136.859 36.0158 137.073 36.4499L131.373 38.8199ZM124.443 44.9999H127.248V26.2499H124.443V44.9999ZM119.853 34.0499H119.748C119.329 33.5727 118.812 33.1916 118.232 32.9327C117.652 32.6738 117.023 32.5432 116.388 32.5499C114.749 32.6294 113.203 33.3365 112.071 34.5248C110.939 35.713 110.308 37.2912 110.308 38.9324C110.308 40.5735 110.939 42.1518 112.071 43.34C113.203 44.5283 114.749 45.2354 116.388 45.3149C117.024 45.3276 117.655 45.1998 118.236 44.9405C118.817 44.6812 119.333 44.2969 119.748 43.8149H119.853V44.7299C119.853 47.1749 118.548 48.4799 116.448 48.4799C115.747 48.4645 115.066 48.2409 114.491 47.8377C113.917 47.4344 113.476 46.8695 113.223 46.2149L110.793 47.2199C111.242 48.3483 112.024 49.3137 113.033 49.9887C114.043 50.6636 115.234 51.0162 116.448 50.9999C119.733 50.9999 122.448 49.0649 122.448 44.3549V32.9999H119.853V34.0499ZM116.628 42.8699C115.645 42.8086 114.723 42.375 114.049 41.6574C113.374 40.9398 112.999 39.9921 112.999 39.0074C112.999 38.0227 113.374 37.075 114.049 36.3574C114.723 35.6398 115.645 35.2062 116.628 35.1449C117.109 35.1656 117.58 35.2828 118.014 35.4893C118.448 35.6959 118.836 35.9877 119.155 36.3474C119.474 36.7071 119.718 37.1272 119.871 37.5829C120.025 38.0386 120.085 38.5205 120.048 38.9999C120.089 39.4809 120.032 39.9653 119.88 40.4236C119.729 40.882 119.486 41.3048 119.166 41.6666C118.846 42.0283 118.457 42.3215 118.02 42.5283C117.584 42.7351 117.111 42.8513 116.628 42.8699ZM153.213 26.2499H146.493V44.9999H149.298V37.8899H153.213C154.013 37.9473 154.815 37.8394 155.571 37.573C156.327 37.3065 157.02 36.8872 157.607 36.3411C158.193 35.7951 158.661 35.134 158.981 34.3991C159.301 33.6643 159.466 32.8714 159.466 32.0699C159.466 31.2684 159.301 30.4755 158.981 29.7406C158.661 29.0058 158.193 28.3447 157.607 27.7986C157.02 27.2526 156.327 26.8333 155.571 26.5668C154.815 26.3003 154.013 26.1925 153.213 26.2499ZM153.213 35.2499H149.298V28.8599H153.273C153.695 28.8599 154.112 28.9429 154.502 29.1042C154.891 29.2655 155.245 29.502 155.543 29.8001C155.841 30.0981 156.078 30.452 156.239 30.8415C156.4 31.2309 156.483 31.6483 156.483 32.0699C156.483 32.4914 156.4 32.9088 156.239 33.2983C156.078 33.6878 155.841 34.0416 155.543 34.3397C155.245 34.6378 154.891 34.8742 154.502 35.0355C154.112 35.1969 153.695 35.2799 153.273 35.2799L153.213 35.2499ZM170.523 32.5649C169.502 32.5019 168.484 32.7397 167.596 33.2489C166.709 33.7581 165.99 34.5164 165.528 35.4299L168.003 36.4649C168.253 36.014 168.629 35.6452 169.084 35.4029C169.539 35.1607 170.054 35.0554 170.568 35.0999C170.924 35.0583 171.285 35.088 171.63 35.1874C171.974 35.2867 172.295 35.4536 172.574 35.6784C172.854 35.9033 173.085 36.1814 173.256 36.4967C173.427 36.812 173.533 37.1581 173.568 37.5149V37.6949C172.666 37.2208 171.662 36.9736 170.643 36.9749C167.973 36.9749 165.243 38.4749 165.243 41.2049C165.27 41.7852 165.412 42.3542 165.663 42.8782C165.914 43.4022 166.267 43.8705 166.702 44.2553C167.137 44.6401 167.645 44.9335 168.196 45.1181C168.747 45.3027 169.329 45.3747 169.908 45.3299C170.612 45.3688 171.314 45.2199 171.941 44.8983C172.568 44.5767 173.099 44.0941 173.478 43.4999H173.568V44.9999H176.268V37.7849C176.268 34.4999 173.778 32.5949 170.583 32.5949L170.523 32.5649ZM170.178 42.8399C169.263 42.8399 167.988 42.3749 167.988 41.2499C167.988 39.7499 169.578 39.2399 170.988 39.2399C171.879 39.2179 172.76 39.4355 173.538 39.8699C173.444 40.6845 173.058 41.4373 172.451 41.989C171.844 42.5406 171.058 42.8535 170.238 42.8699L170.178 42.8399ZM186.108 32.9999L182.898 41.1299H182.808L179.478 32.9999H176.478L181.473 44.3699L178.623 50.6849H181.548L189.228 32.9999H186.108ZM160.908 44.9999H163.698V26.2499H160.908V44.9999Z" fill="#4D7BF1"/>
<path d="M16.1597 11.3101C15.6654 11.8945 15.4132 12.6458 15.4547 13.4101V46.5901C15.4037 47.3556 15.657 48.1104 16.1597 48.6901L16.2647 48.8101L34.8497 30.2251V29.7751L16.2647 11.2051L16.1597 11.3101Z" fill="url(#paint0_linear_4463_70022)"/>
<path d="M40.9991 36.4201L34.8491 30.2251V29.7751L40.9991 23.5801L41.1341 23.6701L48.4991 27.8401C50.5991 29.0251 50.5991 30.9751 48.4991 32.1751L41.1641 36.3451L40.9991 36.4201Z" fill="url(#paint1_linear_4463_70022)"/>
<path d="M41.1797 36.33L34.8497 30L16.1597 48.69C16.5835 49.0673 17.1261 49.2843 17.6932 49.3035C18.2603 49.3227 18.8163 49.1428 19.2647 48.795L41.1797 36.33Z" fill="url(#paint2_linear_4463_70022)"/>
<path d="M41.1797 23.6697L19.2647 11.2197C18.8192 10.8671 18.2637 10.6828 17.6958 10.6993C17.1279 10.7157 16.584 10.9319 16.1597 11.3097L34.8497 29.9997L41.1797 23.6697Z" fill="url(#paint3_linear_4463_70022)"/>
<path opacity="0.2" d="M40.9997 36.1953L19.2647 48.5703C18.8326 48.8964 18.306 49.0728 17.7647 49.0728C17.2233 49.0728 16.6968 48.8964 16.2647 48.5703L16.1597 48.6753L16.2647 48.7953C16.6968 49.1214 17.2233 49.2978 17.7647 49.2978C18.306 49.2978 18.8326 49.1214 19.2647 48.7953L41.1797 36.3303L40.9997 36.1953Z" fill="white"/>
<path opacity="0.12" d="M16.1598 48.4802C15.678 47.8853 15.4419 47.1286 15.4998 46.3652V46.5902C15.4488 47.3558 15.7022 48.1105 16.2048 48.6902L16.3098 48.5852L16.1598 48.4802Z" fill="white"/>
<path opacity="0.12" d="M48.4995 31.95L40.9995 36.195L41.1345 36.33L48.4995 32.16C48.9343 31.9762 49.3114 31.6785 49.5912 31.2984C49.871 30.9183 50.0432 30.4697 50.0895 30C49.9957 30.4269 49.803 30.8257 49.5268 31.1644C49.2506 31.5031 48.8987 31.7722 48.4995 31.95Z" fill="white"/>
<path opacity="0.25" d="M19.2636 11.4305L48.4986 28.0505C48.8979 28.2282 49.2497 28.4973 49.5259 28.836C49.8021 29.1748 49.9948 29.5736 50.0886 30.0005C50.0423 29.5307 49.8701 29.0822 49.5903 28.7021C49.3105 28.3219 48.9334 28.0243 48.4986 27.8405L19.2636 11.2205C17.1786 10.0205 15.4536 11.0105 15.4536 13.4105V13.6355C15.4986 11.2355 17.1786 10.2455 19.2636 11.4305Z" fill="#4D7BF1"/>
<path d="M63.6629 21.405H62.5679V18.405H63.4979C63.9163 17.9507 64.231 17.4109 64.42 16.823C64.6091 16.235 64.6681 15.613 64.5929 15V10.5H70.5929V18.39H71.5979V21.39H70.4879V19.5H63.6629V21.405ZM65.7479 15C65.8148 16.2049 65.5168 17.402 64.8929 18.435H69.3929V11.61H65.7479V15Z" fill="#4D7BF1" stroke="#4D7BF1" stroke-width="0.411304" stroke-miterlimit="10"/>
<path d="M80.6136 18.3301C80.1816 18.7633 79.6685 19.1069 79.1035 19.3414C78.5385 19.5758 77.9328 19.6965 77.3211 19.6965C76.7094 19.6965 76.1037 19.5758 75.5387 19.3414C74.9737 19.1069 74.4605 18.7633 74.0286 18.3301C73.1704 17.4339 72.6914 16.241 72.6914 15.0001C72.6914 13.7593 73.1704 12.5664 74.0286 11.6701C74.4605 11.237 74.9737 10.8934 75.5387 10.6589C76.1037 10.4244 76.7094 10.3037 77.3211 10.3037C77.9328 10.3037 78.5385 10.4244 79.1035 10.6589C79.6685 10.8934 80.1816 11.237 80.6136 11.6701C81.0469 12.1081 81.3882 12.6284 81.6175 13.2002C81.8468 13.7721 81.9593 14.3841 81.9486 15.0001C81.9663 15.6171 81.8569 16.231 81.6273 16.8039C81.3976 17.3768 81.0526 17.8963 80.6136 18.3301ZM74.8686 17.5801C75.1846 17.9084 75.5647 18.1683 75.9853 18.3437C76.4058 18.5192 76.8579 18.6064 77.3136 18.6001C77.7696 18.6092 78.2225 18.5231 78.6435 18.3475C79.0644 18.1719 79.4442 17.9106 79.7586 17.5801C80.4058 16.8768 80.7651 15.9559 80.7651 15.0001C80.7651 14.0443 80.4058 13.1234 79.7586 12.4201C79.4442 12.0897 79.0644 11.8283 78.6435 11.6527C78.2225 11.4771 77.7696 11.3911 77.3136 11.4001C76.8579 11.3938 76.4058 11.4811 75.9853 11.6565C75.5647 11.832 75.1846 12.0919 74.8686 12.4201C74.2309 13.1281 73.8779 14.0472 73.8779 15.0001C73.8779 15.953 74.2309 16.8721 74.8686 17.5801Z" fill="#4D7BF1" stroke="#4D7BF1" stroke-width="0.411304" stroke-miterlimit="10"/>
<path d="M87.7675 19.6946C87.1606 19.7041 86.558 19.5908 85.9961 19.3613C85.4341 19.1319 84.9244 18.7912 84.4975 18.3596C83.632 17.4551 83.1489 16.2515 83.1489 14.9996C83.1489 13.7477 83.632 12.5441 84.4975 11.6396C84.9314 11.2006 85.4509 10.8556 86.0237 10.6259C86.5966 10.3962 87.2106 10.2869 87.8275 10.3046C88.4555 10.2868 89.0792 10.4127 89.6511 10.6727C90.223 10.9326 90.728 11.3198 91.1275 11.8046L90.3325 12.5846C90.0378 12.2057 89.6565 11.9031 89.2206 11.7021C88.7848 11.5011 88.307 11.4077 87.8275 11.4296C87.3658 11.4178 86.9066 11.5009 86.4783 11.6738C86.05 11.8467 85.6617 12.1056 85.3375 12.4346C84.6914 13.1444 84.3333 14.0697 84.3333 15.0296C84.3333 15.9894 84.6914 16.9148 85.3375 17.6246C85.6617 17.9536 86.05 18.2125 86.4783 18.3854C86.9066 18.5582 87.3658 18.6414 87.8275 18.6296C88.3429 18.6149 88.8489 18.4879 89.3101 18.2573C89.7713 18.0267 90.1766 17.6981 90.4975 17.2946L91.3075 18.0896C90.8966 18.582 90.3852 18.9809 89.8075 19.2596C89.1694 19.5577 88.4717 19.7065 87.7675 19.6946Z" fill="#4D7BF1" stroke="#4D7BF1" stroke-width="0.411304" stroke-miterlimit="10"/>
<path d="M96.0207 19.5H94.8657V11.61H92.3457V10.5H98.5257V11.61H96.0207V19.5Z" fill="#4D7BF1" stroke="#4D7BF1" stroke-width="0.411304" stroke-miterlimit="10"/>
<path d="M106.477 10.5L103.072 18.09C102.989 18.3943 102.842 18.677 102.639 18.9186C102.436 19.1601 102.183 19.3547 101.898 19.4888C101.613 19.6229 101.302 19.6934 100.986 19.6953C100.671 19.6973 100.359 19.6306 100.072 19.5L100.372 18.435C100.555 18.5381 100.761 18.5948 100.972 18.6C101.194 18.6111 101.414 18.5535 101.602 18.435C101.784 18.2834 101.924 18.0869 102.007 17.865L102.337 17.145L99.3369 10.5H100.702L102.922 15.66L105.112 10.5H106.477Z" fill="#4D7BF1" stroke="#4D7BF1" stroke-width="0.411304" stroke-miterlimit="10"/>
<path d="M107.779 19.5V10.5H114.289V19.5H113.134V11.61H108.934V19.5H107.779Z" fill="#4D7BF1" stroke="#4D7BF1" stroke-width="0.411304" stroke-miterlimit="10"/>
<path d="M116.345 19.5V10.5H117.5V14.355H122V10.5H123.17V19.5H122V15.435H117.5V19.5H116.345Z" fill="#4D7BF1" stroke="#4D7BF1" stroke-width="0.411304" stroke-miterlimit="10"/>
<path d="M132.589 18.3301C132.155 18.7637 131.641 19.1077 131.075 19.3424C130.508 19.577 129.901 19.6978 129.289 19.6978C128.676 19.6978 128.069 19.577 127.502 19.3424C126.936 19.1077 126.422 18.7637 125.989 18.3301C125.13 17.4339 124.651 16.241 124.651 15.0001C124.651 13.7593 125.13 12.5664 125.989 11.6701C126.42 11.237 126.934 10.8934 127.499 10.6589C128.064 10.4244 128.669 10.3037 129.281 10.3037C129.893 10.3037 130.498 10.4244 131.063 10.6589C131.628 10.8934 132.142 11.237 132.574 11.6701C133.425 12.5698 133.899 13.7615 133.899 15.0001C133.899 16.2388 133.425 17.4304 132.574 18.3301H132.589ZM126.844 17.5801C127.158 17.9106 127.538 18.1719 127.959 18.3475C128.38 18.5231 128.833 18.6092 129.289 18.6001C129.744 18.6064 130.196 18.5192 130.617 18.3437C131.037 18.1683 131.417 17.9084 131.734 17.5801C132.371 16.8721 132.724 15.953 132.724 15.0001C132.724 14.0472 132.371 13.1281 131.734 12.4201C131.417 12.0919 131.037 11.832 130.617 11.6565C130.196 11.4811 129.744 11.3938 129.289 11.4001C128.833 11.3911 128.38 11.4771 127.959 11.6527C127.538 11.8283 127.158 12.0897 126.844 12.4201C126.196 13.1234 125.837 14.0443 125.837 15.0001C125.837 15.9559 126.196 16.8768 126.844 17.5801Z" fill="#4D7BF1" stroke="#4D7BF1" stroke-width="0.411304" stroke-miterlimit="10"/>
<path d="M138.635 19.5001V10.5001H141.89C142.565 10.4934 143.217 10.7395 143.72 11.1901C143.97 11.4077 144.17 11.6776 144.305 11.9809C144.44 12.2841 144.506 12.6133 144.5 12.9451C144.503 13.3492 144.389 13.7455 144.17 14.0851C143.948 14.4072 143.642 14.6616 143.285 14.8201C143.718 14.9682 144.098 15.2393 144.38 15.6001C144.655 15.9677 144.803 16.4156 144.8 16.8751C144.807 17.2209 144.739 17.5642 144.599 17.8805C144.459 18.1967 144.251 18.4783 143.99 18.7051C143.469 19.1896 142.781 19.4531 142.07 19.4401L138.635 19.5001ZM139.79 14.3551H141.89C142.086 14.3665 142.283 14.3333 142.465 14.2579C142.646 14.1826 142.809 14.0671 142.94 13.9201C143.194 13.6709 143.34 13.3312 143.345 12.9751C143.359 12.6179 143.235 12.2689 143 12.0001C142.874 11.8602 142.718 11.75 142.544 11.6774C142.371 11.6048 142.183 11.5716 141.995 11.5801H139.835L139.79 14.3551ZM139.79 18.3901H142.13C142.333 18.397 142.535 18.3588 142.722 18.2784C142.908 18.198 143.075 18.0774 143.21 17.9251C143.469 17.6485 143.613 17.2841 143.615 16.9051C143.606 16.5293 143.456 16.1707 143.195 15.9001C143.05 15.7483 142.875 15.6285 142.682 15.5484C142.488 15.4683 142.279 15.4297 142.07 15.4351H139.79V18.3901Z" fill="#4D7BF1" stroke="#4D7BF1" stroke-width="0.411304" stroke-miterlimit="10"/>
</g>
<defs>
<linearGradient id="paint0_linear_4463_70022" x1="33.1997" y1="13.0651" x2="8.0297" y2="38.2351" gradientUnits="userSpaceOnUse">
<stop stop-color="#00A0FF"/>
<stop offset="0.01" stop-color="#00A1FF"/>
<stop offset="0.26" stop-color="#00BEFF"/>
<stop offset="0.51" stop-color="#00D2FF"/>
<stop offset="0.76" stop-color="#00DFFF"/>
<stop offset="1" stop-color="#00E3FF"/>
</linearGradient>
<linearGradient id="paint1_linear_4463_70022" x1="51.2441" y1="30.0001" x2="14.9591" y2="30.0001" gradientUnits="userSpaceOnUse">
<stop stop-color="#FFE000"/>
<stop offset="0.41" stop-color="#FFBD00"/>
<stop offset="0.78" stop-color="#FFA500"/>
<stop offset="1" stop-color="#FF9C00"/>
</linearGradient>
<linearGradient id="paint2_linear_4463_70022" x1="37.7447" y1="33.45" x2="3.60466" y2="67.575" gradientUnits="userSpaceOnUse">
<stop stop-color="#FF3A44"/>
<stop offset="1" stop-color="#C31162"/>
</linearGradient>
<linearGradient id="paint3_linear_4463_70022" x1="11.4497" y1="0.269712" x2="26.6897" y2="15.5097" gradientUnits="userSpaceOnUse">
<stop stop-color="#32A071"/>
<stop offset="0.07" stop-color="#2DA771"/>
<stop offset="0.48" stop-color="#15CF74"/>
<stop offset="0.8" stop-color="#06E775"/>
<stop offset="1" stop-color="#00F076"/>
</linearGradient>
<clipPath id="clip0_4463_70022">
<rect width="202.5" height="60" fill="white" transform="translate(0.5)"/>
</clipPath>
</defs>
</svg>
