<svg width="24" height="24" viewBox="0 0 24 24" fill="none" xmlns="http://www.w3.org/2000/svg">
<g clip-path="url(#clip0_1_45119)">
<path d="M15.4052 0.13485C14.6492 0.0718503 13.9292 0.22485 13.2252 0.60185C12.2852 1.10485 11.6152 1.87685 11.3132 2.88185V2.94885L11.2782 3.18385L11.1442 2.94885L10.8092 2.34585C10.2732 1.50885 9.60318 1.00585 8.76518 0.77185C8.02918 0.60585 7.42518 0.67485 6.78918 1.01185C6.08418 1.44785 5.68318 2.11785 5.51518 3.05685C5.34718 4.02885 5.51518 4.96685 6.01718 5.90385L6.25318 6.23985L5.44618 5.97285C4.44118 5.73685 3.50218 5.86885 2.56318 6.37285C1.59118 6.87185 0.989183 7.57785 0.587183 8.55185C0.217183 9.48985 0.251183 10.3948 0.720183 11.2318C0.922183 11.6018 1.22418 11.9019 1.49218 12.1039C1.89418 12.5059 2.39718 12.7399 3.00018 12.8399L3.23418 12.9059L2.73218 13.3439C2.26218 13.7459 1.99418 14.2469 1.82618 14.7499C1.65818 15.3529 1.72618 15.9568 2.06218 16.5268C2.23218 16.7948 2.39618 17.0298 2.66418 17.1968C2.93218 17.4318 3.26818 17.5999 3.67018 17.6329C4.40818 17.8029 5.17818 17.8009 6.01618 17.5329L5.41218 18.5378L5.24418 18.9739C4.90918 20.0479 5.01118 20.9839 5.51418 21.9569C5.74918 22.3269 6.01418 22.6619 6.28418 22.9629C6.68418 23.3309 7.19018 23.5649 7.79418 23.7329C8.79818 24.0009 9.80418 23.9689 10.7742 23.4659C11.7142 22.9629 12.3172 22.1559 12.6192 21.1509L12.6512 20.9508C13.2882 21.6538 13.8912 22.1238 14.5632 22.2908C15.2332 22.4928 15.9032 22.4608 16.5072 22.0578C17.0772 21.7228 17.4802 21.1518 17.6812 20.4478C17.8492 19.7098 17.8492 18.9739 17.6812 18.1359C18.0162 18.3709 18.3512 18.5358 18.7532 18.6378C19.8262 18.9728 20.7632 18.9379 21.7032 18.4379C22.6072 17.9339 23.2112 17.1299 23.5132 16.0909C23.7812 15.0859 23.7152 14.1139 23.2132 13.1749L23.0432 12.9049C22.7762 12.5028 22.5062 12.1009 22.1032 11.8329C21.7692 11.5979 21.3682 11.4308 20.9992 11.2628C22.0392 10.7598 22.7752 10.0559 23.1092 9.15085C23.3452 8.41285 23.2792 7.80885 22.9422 7.20585V7.13985C22.5402 6.46985 22.0052 6.03485 21.1672 5.79985C20.6642 5.69985 20.0952 5.69785 19.5932 5.73185L18.4852 5.96685L18.8552 5.12885C19.1892 4.05585 19.0902 3.01685 18.5202 2.04485L18.4202 1.87485C17.9172 1.03685 17.1802 0.53485 16.1742 0.26785C15.9142 0.20085 15.6572 0.15485 15.4052 0.13485ZM14.8352 1.54885C15.1582 1.51885 15.4852 1.56085 15.8022 1.67885C16.5062 1.84485 17.0092 2.21285 17.3122 2.78285V2.78585C17.4802 3.12085 17.5792 3.52185 17.5792 3.95785L17.4792 4.69585C17.3452 5.06585 17.1772 5.39885 16.9762 5.69985L13.9602 9.38985C13.6602 9.15485 13.3232 8.98685 12.9882 8.81985L12.6522 5.02985L12.6192 3.68985L12.6512 3.35485C12.8192 2.68485 13.2892 2.18185 13.8912 1.84685C14.1932 1.67885 14.5112 1.57785 14.8352 1.54885ZM7.95218 2.08585C8.08618 2.08185 8.22818 2.11585 8.36218 2.18185C8.96518 2.34985 9.46818 2.78485 9.87018 3.62185C10.0402 3.95785 10.2062 4.29185 10.2732 4.69485L10.9432 8.65185L10.4392 8.81985L7.45618 5.56785L7.28818 5.23385C7.01818 4.62985 6.85318 4.06085 6.92018 3.45685V3.45485C6.95418 2.85185 7.18818 2.45185 7.59018 2.21685C7.69018 2.13285 7.81718 2.08985 7.95018 2.08685L7.95218 2.08585ZM20.0822 7.11885C20.2322 7.11885 20.3792 7.12585 20.5302 7.14285C21.1002 7.21085 21.5022 7.47985 21.7032 7.88285L21.8382 8.31585L21.7712 8.65085C21.5372 9.25385 21.0332 9.72485 20.1962 10.0928C19.8612 10.2608 19.4932 10.3278 19.0912 10.3928L14.9682 10.8959L14.9012 10.6609L14.8332 10.5609L14.9682 10.3939L18.3552 7.57785L18.7552 7.41185L18.7572 7.40985C19.2072 7.20985 19.6422 7.12385 20.0852 7.11985L20.0822 7.11885ZM4.62118 7.30185C4.78118 7.30985 4.94518 7.33485 5.11118 7.37685V7.37885L6.01918 7.74585L8.96918 9.89285C8.69918 10.2288 8.53418 10.5629 8.43318 10.8979L3.60518 11.5008L3.27118 11.4348C2.66818 11.3348 2.26418 11.0648 1.99518 10.5648C1.72518 10.0618 1.72818 9.55885 1.92918 9.05485C2.16418 8.41885 2.59918 7.91485 3.23518 7.64785C3.68818 7.39585 4.14018 7.27485 4.62118 7.30185ZM11.7812 9.99185C12.3852 9.99185 12.9562 10.2278 13.3252 10.5958C13.7952 11.0658 13.9952 11.5689 13.9952 12.1719C13.9952 12.7749 13.7952 13.3439 13.3252 13.7459C12.8892 14.1819 12.3852 14.4158 11.7822 14.4158C11.1462 14.4158 10.6122 14.1809 10.2092 13.7459C9.77318 13.3439 9.53918 12.7759 9.53918 12.1719C9.53918 11.5689 9.77318 11.0649 10.2092 10.5958C10.6112 10.2258 11.1462 9.99185 11.7832 9.99185H11.7812ZM20.1962 12.5718L20.5322 12.6068C21.0362 12.7748 21.5052 13.0748 21.7722 13.5768C22.1082 13.9468 22.2752 14.4498 22.2752 15.0198L22.1752 15.6898C22.0082 16.3598 21.6052 16.8629 21.0352 17.1299C20.4322 17.4659 19.8282 17.5329 19.1582 17.2999C18.7562 17.1999 18.4882 17.0318 18.2542 16.7638L14.7342 13.8458L14.9692 13.3439L15.0692 12.9409L18.8572 12.6059L20.1972 12.5709L20.1962 12.5718ZM13.5602 15.0198L14.9672 16.4599L15.8372 17.5329L16.0072 17.8699C16.3072 18.4399 16.4752 18.9749 16.4072 19.6119C16.3412 20.2139 16.1402 20.6499 15.7372 20.8179C15.5032 20.9859 15.2352 20.9879 14.9672 20.9529C14.3302 20.7869 13.8272 20.2849 13.4592 19.4799L13.0562 18.3719L12.5542 15.4549L13.1222 15.2549L13.5582 15.0198H13.5602ZM9.94018 15.0879C10.2742 15.2549 10.6102 15.4219 10.9802 15.4549C11.0462 16.5949 11.1452 17.8019 11.3122 19.1089V20.4508L11.2792 20.7838C11.0432 21.3868 10.6412 21.8908 10.0392 22.1588C9.43518 22.4938 8.79918 22.5609 8.19418 22.3939C7.52418 22.2269 7.02118 21.8238 6.75418 21.2878C6.58418 20.9528 6.45018 20.5479 6.45018 20.1479L6.62018 19.3778C6.68618 19.0428 6.85518 18.7079 7.12318 18.4379L9.93918 15.0879H9.94018Z" fill="#4D7BF1"/>
</g>
<defs>
<clipPath id="clip0_1_45119">
<rect width="24" height="24" fill="white"/>
</clipPath>
</defs>
</svg>
