<svg width="19" height="18" viewBox="0 0 19 18" fill="none" xmlns="http://www.w3.org/2000/svg">
<mask id="mask0_685_128653" style="mask-type:alpha" maskUnits="userSpaceOnUse" x="0" y="0" width="19" height="18">
<rect x="0.5" width="18" height="18" fill="#ffffff"/>
</mask>
<g mask="url(#mask0_685_128653)">
<path d="M15.3594 16.125C13.8644 16.125 12.3453 15.7656 10.8022 15.0468C9.25907 14.3281 7.83437 13.3093 6.52812 11.9906C5.20937 10.6843 4.1875 9.25802 3.4625 7.71166C2.7375 6.16528 2.375 4.64664 2.375 3.15573C2.375 2.79384 2.49911 2.48678 2.74732 2.23456C2.99553 1.98232 3.29955 1.8562 3.65937 1.8562H6.21875C6.60625 1.8562 6.92031 1.95776 7.16094 2.16089C7.40156 2.36401 7.56562 2.65933 7.65312 3.04683L8.15804 5.06509C8.20268 5.38208 8.19062 5.66558 8.12187 5.91558C8.05312 6.16558 7.92044 6.37636 7.72383 6.54794L5.80625 8.3062C6.08125 8.7562 6.37305 9.17906 6.68165 9.57479C6.99024 9.97053 7.34219 10.3539 7.7375 10.725C8.14375 11.1625 8.55469 11.5426 8.97031 11.8654C9.38594 12.1882 9.8125 12.4643 10.25 12.6937L12.1352 10.8C12.3409 10.5812 12.5681 10.4359 12.8169 10.364C13.0657 10.2921 13.3319 10.2937 13.6156 10.3687L15.4412 10.7894C15.8304 10.8964 16.1281 11.0762 16.3344 11.3287C16.5406 11.5812 16.6437 11.8955 16.6437 12.2718V14.8406C16.6437 15.2075 16.5174 15.5133 16.2647 15.758C16.0121 16.0026 15.7103 16.125 15.3594 16.125ZM4.94375 6.79683L6.44375 5.39058L6.02188 3.59058H4.1375C4.14375 4.03433 4.20598 4.51677 4.32419 5.03791C4.44241 5.55904 4.64893 6.14535 4.94375 6.79683ZM11.825 13.5843C12.2625 13.7968 12.7542 13.9718 13.3 14.1093C13.8458 14.2468 14.3823 14.3343 14.9094 14.3718V12.4439L13.2781 12.075L11.825 13.5843Z" fill="#4D7BF1"/>
</g>
</svg>
