<svg width="18" height="18" viewBox="0 0 18 18" fill="none" xmlns="http://www.w3.org/2000/svg">
<path d="M6.49657 5.16231C6.64221 5.16827 6.80334 5.1751 6.95644 5.5154C7.06106 5.74804 7.2371 6.18176 7.3774 6.52739C7.48078 6.78208 7.56474 6.98895 7.58642 7.03231C7.63752 7.1345 7.67156 7.25383 7.60344 7.3903C7.59325 7.4107 7.58381 7.42995 7.5748 7.44834C7.5236 7.55283 7.48599 7.62961 7.39929 7.73108C7.36531 7.77075 7.33018 7.81348 7.29505 7.85621C7.22451 7.94201 7.15396 8.02783 7.09271 8.08895C6.9902 8.19083 6.88373 8.30153 7.00295 8.50592C7.1222 8.7105 7.53234 9.37943 8.13986 9.92106C8.79248 10.503 9.35944 10.7491 9.64734 10.8741C9.70389 10.8986 9.74967 10.9185 9.78323 10.9353C9.98761 11.0375 10.1068 11.0205 10.226 10.8839C10.3453 10.7476 10.7367 10.2874 10.873 10.0831C11.0092 9.87848 11.1455 9.91255 11.3328 9.98067C11.5202 10.0488 12.5248 10.5432 12.7292 10.6454C12.7691 10.6654 12.8063 10.6833 12.8409 10.7C12.9835 10.7688 13.0798 10.8153 13.1209 10.8839C13.172 10.9694 13.172 11.3784 13.0017 11.8555C12.8314 12.3327 11.9971 12.7929 11.6224 12.827C11.5863 12.8302 11.5505 12.8344 11.5136 12.8388C11.1673 12.8795 10.7302 12.9309 9.17007 12.3157C7.25032 11.5586 5.98453 9.68252 5.72302 9.29493C5.70157 9.26314 5.68688 9.24137 5.67914 9.23104L5.67686 9.228C5.56667 9.08073 4.84469 8.11587 4.84469 7.11748C4.84469 6.17637 5.30729 5.68305 5.52013 5.45607C5.53468 5.44056 5.54806 5.42629 5.56004 5.41321C5.74725 5.2087 5.9687 5.15753 6.10493 5.15753C6.1124 5.15753 6.11987 5.15753 6.12733 5.15753C6.25599 5.15751 6.384 5.1575 6.49657 5.16231Z" fill="#4D7BF1"/>
<path fill-rule="evenodd" clip-rule="evenodd" d="M1.9215 13.0095C1.1955 11.772 0.816 10.3695 0.816 8.9175C0.816 4.413 4.49549 0.75 8.99998 0.75C11.1945 0.75 13.2405 1.608 14.7915 3.1425C16.326 4.6935 17.184 6.7395 17.184 8.934C17.184 13.4385 13.5045 17.1015 8.99998 17.1015C7.63049 17.1015 6.27749 16.7715 5.08949 16.1115L0.75 17.25L1.9215 13.0095ZM3.24149 12.5475L3.40649 12.795L2.7135 15.303L5.28749 14.6265L5.53499 14.775C6.57449 15.402 7.77899 15.732 8.99998 15.732C12.7455 15.732 15.798 12.6795 15.798 8.934C15.798 7.119 15.0885 5.403 13.8015 4.116C12.531 2.8455 10.815 2.136 8.99998 2.136C5.25449 2.136 2.202 5.172 2.202 8.934C2.202 10.2045 2.565 11.4585 3.24149 12.5475Z" fill="#4D7BF1"/>
</svg>
