<svg width="16" height="14" viewBox="0 0 16 14" fill="none" xmlns="http://www.w3.org/2000/svg">
<path d="M1.84063 13.3842C1.36539 13.3842 0.960637 13.2171 0.626375 12.8828C0.292125 12.5485 0.125 12.1438 0.125 11.6686V2.33105C0.125 1.85067 0.292125 1.4415 0.626375 1.10357C0.96065 0.765642 1.3654 0.59668 1.84063 0.59668H14.1594C14.6398 0.59668 15.0489 0.765642 15.3869 1.10357C15.7248 1.4415 15.8937 1.85067 15.8937 2.33105V11.6686C15.8937 12.1438 15.7248 12.5485 15.3869 12.8828C15.0489 13.2171 14.6398 13.3842 14.1594 13.3842H1.84063ZM8 7.89981L1.84063 3.74668V11.6686H14.1594V3.74668L8 7.89981ZM8 6.39043L14.075 2.33105H1.94375L8 6.39043ZM1.84063 3.74668V2.33105V11.6686V3.74668Z" fill="#000000"/>
</svg>
