168 21.19 28.168 22C28.16<svg width="20" height="21" viewBox="0 0 20 21" fill="none" xmlns="http://www.w3.org/2000/svg">
<path fill-rule="evenodd" clip-rule="evenodd" d="M2.8125 9.07327C7.28641 7.07402 10.2697 5.756 11.7624 5.1192C16.0244 3.30099 16.91 2.98515 17.4872 2.97472C17.6142 2.97243 17.8981 3.0047 18.0819 3.15773C18.2372 3.28694 18.2799 3.4615 18.3003 3.58401C18.3208 3.70652 18.3462 3.9856 18.326 4.20367C18.095 6.69265 17.0957 12.7328 16.5873 15.5205C16.3722 16.7 15.9486 17.0955 15.5385 17.1343C14.6472 17.2184 13.9705 16.5302 13.1073 15.9498C11.7566 15.0417 10.9935 14.4763 9.68241 13.5902C8.16719 12.566 9.14944 12.0032 10.013 11.0832C10.2389 10.8425 14.1657 7.17916 14.2417 6.84684C14.2512 6.80528 14.26 6.65035 14.1703 6.56855C14.0805 6.48674 13.9481 6.51472 13.8525 6.53697C13.717 6.5685 11.5593 8.03133 7.37914 10.9255C6.76665 11.3568 6.21189 11.567 5.71483 11.556C5.16687 11.5438 4.11281 11.2382 3.32923 10.977C2.36813 10.6565 1.60427 10.4871 1.67079 9.94292C1.70543 9.65947 2.086 9.36958 2.8125 9.07327Z" fill="#000000"/>
</svg>
