<svg width="24" height="24" viewBox="0 0 24 24" fill="none" xmlns="http://www.w3.org/2000/svg">
<path d="M9.1693 14.4659C11.922 14.2909 14.2641 13.4076 15.9141 10.8828C17.4756 8.49139 17.4353 6.14993 15.9705 4.09178C14.2641 1.70032 10.3283 2.09196 10.3283 2.09196C10.3283 2.09196 13.9744 1.35869 17.4514 4.03345C20.9285 6.70821 21.9587 11.4411 20.0592 15.1658C18.1597 18.8905 14.7792 20.3903 11.1734 20.0737C8.71052 22.1235 5.7164 21.9985 5.7164 21.9985C5.7164 21.9985 6.85932 20.9236 8.09882 19.2904C6.50518 18.5988 3.65593 16.7657 3.11667 13.3326C2.57741 9.8996 4.08251 8.39973 4.08251 8.39973C2.25546 12.2327 6.15908 14.6575 9.1693 14.4659ZM16.7995 8.11642C16.7995 8.11642 17.3951 3.8918 13.1695 2.50858C10.932 1.77532 8.2437 2.41693 6.68225 3.55849C5.06446 4.74172 4.29983 6.54989 4.40446 6.84987C4.53324 7.23317 5.7164 5.74996 8.02638 5.16668C10.4329 4.5584 14.2319 5.05836 16.7995 8.11642ZM13.9744 12.6327C13.7812 8.47472 8.93588 5.38333 5.37031 7.38315C7.8815 6.32491 10.2639 7.5998 10.9561 10.8162C11.3103 12.4494 10.9159 13.9826 10.9159 13.9826C10.9159 13.9826 13.0166 13.6076 13.9744 12.6327ZM10.8595 11.1162C10.1915 5.96661 4.1952 6.20826 3.76861 9.65795C3.51911 11.6744 4.58958 12.4327 4.58958 12.4327C5.99006 9.76627 9.66832 10.2162 10.8595 11.1162Z" fill="#4D7BF1"/>
</svg>
