<svg width="16" height="16" viewBox="0 0 16 16" fill="none" xmlns="http://www.w3.org/2000/svg">
<path d="M7.33594 12H8.66927V10.6667H7.33594V12ZM8.0026 1.33337C4.3226 1.33337 1.33594 4.32004 1.33594 8.00004C1.33594 11.68 4.3226 14.6667 8.0026 14.6667C11.6826 14.6667 14.6693 11.68 14.6693 8.00004C14.6693 4.32004 11.6826 1.33337 8.0026 1.33337ZM8.0026 13.3334C5.0626 13.3334 2.66927 10.94 2.66927 8.00004C2.66927 5.06004 5.0626 2.66671 8.0026 2.66671C10.9426 2.66671 13.3359 5.06004 13.3359 8.00004C13.3359 10.94 10.9426 13.3334 8.0026 13.3334ZM8.0026 4.00004C6.52927 4.00004 5.33594 5.19337 5.33594 6.66671H6.66927C6.66927 5.93337 7.26927 5.33337 8.0026 5.33337C8.73594 5.33337 9.33594 5.93337 9.33594 6.66671C9.33594 8.00004 7.33594 7.83337 7.33594 10H8.66927C8.66927 8.50004 10.6693 8.33337 10.6693 6.66671C10.6693 5.19337 9.47594 4.00004 8.0026 4.00004Z" fill="#4D7BF1"/>
</svg>
