<svg width="16" height="16" viewBox="0 0 16 16" fill="none" xmlns="http://www.w3.org/2000/svg">
<g clip-path="url(#clip0_3644_54152)">
<mask id="mask0_3644_54152" style="mask-type:alpha" maskUnits="userSpaceOnUse" x="0" y="0" width="16" height="16">
<rect width="16" height="16" fill="#ffffff"/>
</mask>
<g mask="url(#mask0_3644_54152)">
<path d="M2.93229 15.2501C2.50528 15.2501 2.14158 15.0999 1.84119 14.7996C1.54081 14.4992 1.39062 14.1355 1.39062 13.7085V3.92513H2.93229V13.7085H10.574V15.2501H2.93229ZM5.41563 12.7501C4.99319 12.7501 4.63342 12.6016 4.33631 12.3044C4.03919 12.0073 3.89062 11.6476 3.89062 11.2251V2.25846C3.89062 1.83145 4.03919 1.46775 4.33631 1.16736C4.63342 0.866986 4.99319 0.716797 5.41563 0.716797H12.4107C12.8295 0.716797 13.1906 0.866986 13.494 1.16736C13.7973 1.46775 13.949 1.83145 13.949 2.25846V11.2251C13.949 11.6476 13.7973 12.0073 13.494 12.3044C13.1906 12.6016 12.8295 12.7501 12.4107 12.7501H5.41563ZM5.41563 11.2251H12.4073V2.25846H5.41563V11.2251Z" fill="#0C3397"/>
</g>
</g>
<defs>
<clipPath id="clip0_3644_54152">
<rect width="16" height="16" fill="white"/>
</clipPath>
</defs>
</svg>
