<svg width="376" height="120" viewBox="0 0 376 120" fill="none" xmlns="http://www.w3.org/2000/svg">
<mask id="mask0_4542_19100" style="mask-type:alpha" maskUnits="userSpaceOnUse" x="148" y="0" width="80" height="80">
<rect x="148" width="80" height="80" fill="#D9D9D9"/>
</mask>
<g mask="url(#mask0_4542_19100)">
<path d="M170.495 72.875C166.245 72.875 162.592 71.3472 159.536 68.2917C156.481 65.2361 154.953 61.5833 154.953 57.3333C154.953 53.0833 156.481 49.4306 159.536 46.375C162.592 43.3194 166.245 41.7917 170.495 41.7917C174.745 41.7917 178.398 43.3194 181.453 46.375C184.509 49.4306 186.036 53.0833 186.036 57.3333C186.036 61.5833 184.509 65.2361 181.453 68.2917C178.398 71.3472 174.745 72.875 170.495 72.875ZM217.828 71.9167L195.911 50C194.911 50.8889 193.759 51.7014 192.453 52.4375C191.148 53.1736 189.911 53.7917 188.745 54.2917C188.717 52.4583 188.564 50.8403 188.286 49.4375C188.009 48.0347 187.62 46.7917 187.12 45.7083C190.092 44.6806 192.564 42.9236 194.536 40.4375C196.509 37.9514 197.495 34.9167 197.495 31.3333C197.495 27.1667 196.078 23.6528 193.245 20.7917C190.411 17.9306 186.911 16.5 182.745 16.5C178.606 16.5 175.085 17.9306 172.182 20.7917C169.28 23.6528 167.828 27.1667 167.828 31.3333C167.828 32.3056 167.911 33.3472 168.078 34.4583C168.245 35.5694 168.509 36.4306 168.87 37.0417C167.703 37.1528 166.439 37.4028 165.078 37.7917C163.717 38.1806 162.536 38.6528 161.536 39.2083C161.064 38.0972 160.724 36.8125 160.516 35.3542C160.307 33.8958 160.203 32.5556 160.203 31.3333C160.203 25.0833 162.398 19.7778 166.786 15.4167C171.175 11.0556 176.495 8.875 182.745 8.875C188.939 8.875 194.217 11.0694 198.578 15.4583C202.939 19.8472 205.12 25.1389 205.12 31.3333C205.12 33.7222 204.752 36.0694 204.016 38.375C203.28 40.6806 202.273 42.6389 200.995 44.25L223.37 66.375L217.828 71.9167ZM167.661 66.4167L172.411 61.5833L175.203 64.375L179.37 60.1667L174.62 55.5L177.62 52.5L173.453 48.2917L168.62 53.125L165.661 50.2083L161.495 54.375L166.411 59.2083L163.453 62.1667L167.661 66.4167Z" fill="#4D7BF1"/>
</g>
<path d="M149.54 105C149.437 105 149.358 104.972 149.302 104.916C149.246 104.851 149.218 104.771 149.218 104.678V95.536C149.218 95.4333 149.246 95.354 149.302 95.298C149.358 95.2327 149.437 95.2 149.54 95.2H150.254C150.357 95.2 150.436 95.2327 150.492 95.298C150.557 95.354 150.59 95.4333 150.59 95.536V99.4H155.406V95.536C155.406 95.4333 155.434 95.354 155.49 95.298C155.555 95.2327 155.635 95.2 155.728 95.2H156.442C156.545 95.2 156.624 95.2327 156.68 95.298C156.745 95.354 156.778 95.4333 156.778 95.536V104.678C156.778 104.771 156.745 104.851 156.68 104.916C156.624 104.972 156.545 105 156.442 105H155.728C155.635 105 155.555 104.972 155.49 104.916C155.434 104.851 155.406 104.771 155.406 104.678V100.66H150.59V104.678C150.59 104.771 150.557 104.851 150.492 104.916C150.436 104.972 150.357 105 150.254 105H149.54ZM161.914 105.14C160.953 105.14 160.188 104.846 159.618 104.258C159.049 103.661 158.736 102.849 158.68 101.822C158.671 101.701 158.666 101.547 158.666 101.36C158.666 101.164 158.671 101.005 158.68 100.884C158.718 100.221 158.872 99.6427 159.142 99.148C159.413 98.644 159.782 98.2567 160.248 97.986C160.724 97.7153 161.28 97.58 161.914 97.58C162.624 97.58 163.216 97.7293 163.692 98.028C164.178 98.3267 164.546 98.7513 164.798 99.302C165.05 99.8527 165.176 100.497 165.176 101.234V101.472C165.176 101.575 165.144 101.654 165.078 101.71C165.022 101.766 164.948 101.794 164.854 101.794H160.01C160.01 101.803 160.01 101.822 160.01 101.85C160.01 101.878 160.01 101.901 160.01 101.92C160.029 102.303 160.113 102.662 160.262 102.998C160.412 103.325 160.626 103.591 160.906 103.796C161.186 104.001 161.522 104.104 161.914 104.104C162.25 104.104 162.53 104.053 162.754 103.95C162.978 103.847 163.16 103.735 163.3 103.614C163.44 103.483 163.534 103.385 163.58 103.32C163.664 103.199 163.73 103.129 163.776 103.11C163.823 103.082 163.898 103.068 164 103.068H164.672C164.766 103.068 164.84 103.096 164.896 103.152C164.962 103.199 164.99 103.269 164.98 103.362C164.971 103.502 164.896 103.675 164.756 103.88C164.616 104.076 164.416 104.272 164.154 104.468C163.893 104.664 163.576 104.827 163.202 104.958C162.829 105.079 162.4 105.14 161.914 105.14ZM160.01 100.828H163.846V100.786C163.846 100.366 163.767 99.9927 163.608 99.666C163.459 99.3393 163.24 99.0827 162.95 98.896C162.661 98.7 162.316 98.602 161.914 98.602C161.513 98.602 161.168 98.7 160.878 98.896C160.598 99.0827 160.384 99.3393 160.234 99.666C160.085 99.9927 160.01 100.366 160.01 100.786V100.828ZM169.076 105C168.983 105 168.904 104.972 168.838 104.916C168.782 104.851 168.754 104.771 168.754 104.678V98.84H166.318C166.225 98.84 166.146 98.812 166.08 98.756C166.024 98.6907 165.996 98.6113 165.996 98.518V98.042C165.996 97.9487 166.024 97.874 166.08 97.818C166.146 97.7527 166.225 97.72 166.318 97.72H172.478C172.572 97.72 172.646 97.7527 172.702 97.818C172.768 97.874 172.8 97.9487 172.8 98.042V98.518C172.8 98.6113 172.768 98.6907 172.702 98.756C172.646 98.812 172.572 98.84 172.478 98.84H170.042V104.678C170.042 104.771 170.014 104.851 169.958 104.916C169.902 104.972 169.823 105 169.72 105H169.076ZM177.026 106.54C176.933 106.54 176.853 106.507 176.788 106.442C176.732 106.386 176.704 106.311 176.704 106.218V104.202C176.704 104.109 176.732 104.034 176.788 103.978C176.853 103.913 176.933 103.88 177.026 103.88H177.096C177.348 103.871 177.563 103.731 177.74 103.46C177.917 103.18 178.053 102.746 178.146 102.158C178.239 101.561 178.286 100.786 178.286 99.834V98.042C178.286 97.9487 178.314 97.874 178.37 97.818C178.435 97.7527 178.515 97.72 178.608 97.72H183.074C183.167 97.72 183.242 97.7527 183.298 97.818C183.363 97.874 183.396 97.9487 183.396 98.042V103.852H184.054C184.157 103.852 184.236 103.885 184.292 103.95C184.348 104.006 184.376 104.081 184.376 104.174V106.218C184.376 106.311 184.348 106.386 184.292 106.442C184.236 106.507 184.157 106.54 184.054 106.54H183.396C183.303 106.54 183.223 106.507 183.158 106.442C183.102 106.386 183.074 106.311 183.074 106.218V105H178.006V106.218C178.006 106.311 177.973 106.386 177.908 106.442C177.852 106.507 177.777 106.54 177.684 106.54H177.026ZM178.762 103.88L182.094 103.852V98.84H179.56V99.988C179.56 100.977 179.49 101.789 179.35 102.424C179.21 103.049 179.014 103.535 178.762 103.88ZM187.871 105.14C187.404 105.14 186.979 105.047 186.597 104.86C186.214 104.673 185.906 104.421 185.673 104.104C185.439 103.787 185.323 103.427 185.323 103.026C185.323 102.382 185.584 101.869 186.107 101.486C186.629 101.103 187.311 100.851 188.151 100.73L190.237 100.436V100.03C190.237 99.582 190.106 99.232 189.845 98.98C189.593 98.728 189.177 98.602 188.599 98.602C188.179 98.602 187.838 98.686 187.577 98.854C187.325 99.022 187.147 99.2367 187.045 99.498C186.989 99.638 186.891 99.708 186.751 99.708H186.121C186.018 99.708 185.939 99.68 185.883 99.624C185.836 99.5587 185.813 99.484 185.813 99.4C185.813 99.26 185.864 99.0873 185.967 98.882C186.079 98.6767 186.247 98.476 186.471 98.28C186.695 98.084 186.979 97.9207 187.325 97.79C187.679 97.65 188.109 97.58 188.613 97.58C189.173 97.58 189.644 97.6547 190.027 97.804C190.409 97.944 190.708 98.1353 190.923 98.378C191.147 98.6207 191.305 98.896 191.399 99.204C191.501 99.512 191.553 99.8247 191.553 100.142V104.678C191.553 104.771 191.52 104.851 191.455 104.916C191.399 104.972 191.324 105 191.231 105H190.587C190.484 105 190.405 104.972 190.349 104.916C190.293 104.851 190.265 104.771 190.265 104.678V104.076C190.143 104.244 189.98 104.412 189.775 104.58C189.569 104.739 189.313 104.874 189.005 104.986C188.697 105.089 188.319 105.14 187.871 105.14ZM188.165 104.09C188.547 104.09 188.897 104.011 189.215 103.852C189.532 103.684 189.779 103.427 189.957 103.082C190.143 102.737 190.237 102.303 190.237 101.78V101.388L188.613 101.626C187.95 101.719 187.451 101.878 187.115 102.102C186.779 102.317 186.611 102.592 186.611 102.928C186.611 103.189 186.685 103.409 186.835 103.586C186.993 103.754 187.189 103.88 187.423 103.964C187.665 104.048 187.913 104.09 188.165 104.09ZM193.887 105C193.794 105 193.715 104.972 193.649 104.916C193.593 104.851 193.565 104.771 193.565 104.678V98.042C193.565 97.9487 193.593 97.874 193.649 97.818C193.715 97.7527 193.794 97.72 193.887 97.72H194.559C194.653 97.72 194.727 97.7527 194.783 97.818C194.839 97.874 194.867 97.9487 194.867 98.042V100.73H198.689V98.042C198.689 97.9487 198.717 97.874 198.773 97.818C198.839 97.7527 198.918 97.72 199.011 97.72H199.669C199.763 97.72 199.837 97.7527 199.893 97.818C199.959 97.874 199.991 97.9487 199.991 98.042V104.678C199.991 104.771 199.959 104.851 199.893 104.916C199.837 104.972 199.763 105 199.669 105H199.011C198.918 105 198.839 104.972 198.773 104.916C198.717 104.851 198.689 104.771 198.689 104.678V101.85H194.867V104.678C194.867 104.771 194.839 104.851 194.783 104.916C194.727 104.972 194.653 105 194.559 105H193.887ZM202.419 105C202.325 105 202.246 104.972 202.181 104.916C202.125 104.851 202.097 104.771 202.097 104.678V98.042C202.097 97.9487 202.125 97.874 202.181 97.818C202.246 97.7527 202.325 97.72 202.419 97.72H203.091C203.184 97.72 203.259 97.7527 203.315 97.818C203.371 97.874 203.399 97.9487 203.399 98.042V100.73H207.221V98.042C207.221 97.9487 207.249 97.874 207.305 97.818C207.37 97.7527 207.449 97.72 207.543 97.72H208.201C208.294 97.72 208.369 97.7527 208.425 97.818C208.49 97.874 208.523 97.9487 208.523 98.042V104.678C208.523 104.771 208.49 104.851 208.425 104.916C208.369 104.972 208.294 105 208.201 105H207.543C207.449 105 207.37 104.972 207.305 104.916C207.249 104.851 207.221 104.771 207.221 104.678V101.85H203.399V104.678C203.399 104.771 203.371 104.851 203.315 104.916C203.259 104.972 203.184 105 203.091 105H202.419ZM210.95 105C210.856 105 210.777 104.972 210.712 104.916C210.656 104.851 210.628 104.771 210.628 104.678V98.042C210.628 97.9487 210.656 97.874 210.712 97.818C210.777 97.7527 210.856 97.72 210.95 97.72H211.622C211.715 97.72 211.79 97.7527 211.846 97.818C211.911 97.874 211.944 97.9487 211.944 98.042V100.1H213.4C214.352 100.1 215.047 100.324 215.486 100.772C215.924 101.22 216.144 101.827 216.144 102.592C216.144 103.413 215.901 104.02 215.416 104.412C214.93 104.804 214.202 105 213.232 105H210.95ZM211.93 103.95H213.274C213.843 103.95 214.258 103.852 214.52 103.656C214.781 103.451 214.912 103.096 214.912 102.592C214.912 102.107 214.786 101.747 214.534 101.514C214.282 101.271 213.862 101.15 213.274 101.15H211.93V103.95ZM217.46 105C217.366 105 217.287 104.972 217.222 104.916C217.166 104.851 217.138 104.771 217.138 104.678V98.042C217.138 97.9487 217.166 97.874 217.222 97.818C217.287 97.7527 217.366 97.72 217.46 97.72H218.132C218.225 97.72 218.3 97.7527 218.356 97.818C218.421 97.874 218.454 97.9487 218.454 98.042V104.678C218.454 104.771 218.421 104.851 218.356 104.916C218.3 104.972 218.225 105 218.132 105H217.46ZM220.204 105C220.129 105 220.059 104.972 219.994 104.916C219.938 104.86 219.91 104.79 219.91 104.706C219.91 104.678 219.915 104.645 219.924 104.608C219.943 104.561 219.971 104.51 220.008 104.454L222.444 101.276L220.162 98.266C220.125 98.21 220.097 98.1633 220.078 98.126C220.069 98.0887 220.064 98.0513 220.064 98.014C220.064 97.93 220.092 97.86 220.148 97.804C220.204 97.748 220.274 97.72 220.358 97.72H221.072C221.175 97.72 221.249 97.748 221.296 97.804C221.352 97.8507 221.399 97.8973 221.436 97.944L223.298 100.366L225.16 97.958C225.197 97.9113 225.239 97.86 225.286 97.804C225.342 97.748 225.421 97.72 225.524 97.72H226.21C226.294 97.72 226.364 97.748 226.42 97.804C226.476 97.86 226.504 97.93 226.504 98.014C226.504 98.0513 226.495 98.0887 226.476 98.126C226.467 98.1633 226.443 98.21 226.406 98.266L224.096 101.304L226.532 104.454C226.569 104.51 226.593 104.557 226.602 104.594C226.621 104.631 226.63 104.669 226.63 104.706C226.63 104.79 226.602 104.86 226.546 104.916C226.49 104.972 226.42 105 226.336 105H225.594C225.501 105 225.426 104.977 225.37 104.93C225.314 104.883 225.267 104.837 225.23 104.79L223.256 102.228L221.282 104.79C221.245 104.827 221.198 104.874 221.142 104.93C221.095 104.977 221.021 105 220.918 105H220.204Z" fill="#7A7A7A"/>
</svg>
