<svg width="18" height="18" viewBox="0 0 18 18" fill="none" xmlns="http://www.w3.org/2000/svg">
<mask id="mask0_685_128615" style="mask-type:alpha" maskUnits="userSpaceOnUse" x="0" y="0" width="18" height="18">
<rect width="18" height="18" fill="#D9D9D9"/>
</mask>
<g mask="url(#mask0_685_128615)">
<path d="M4.29169 13.0031C5.06806 12.4843 5.82969 12.0875 6.57656 11.8125C7.32344 11.5375 8.13397 11.4 9.00816 11.4C9.88234 11.4 10.6975 11.5423 11.4535 11.8269C12.2096 12.1115 12.9698 12.5035 13.7344 13.0031C14.2656 12.3093 14.6359 11.6493 14.8453 11.023C15.0547 10.3967 15.1594 9.72295 15.1594 9.00185C15.1594 7.26 14.5683 5.79766 13.3861 4.61483C12.2039 3.432 10.743 2.84058 9.00326 2.84058C7.26359 2.84058 5.80156 3.432 4.61719 4.61483C3.43281 5.79766 2.84063 7.26 2.84063 9.00185C2.84063 9.72187 2.94548 10.3935 3.15519 11.0169C3.36491 11.6402 3.74374 12.3023 4.29169 13.0031ZM8.99754 9.67495C8.24097 9.67495 7.60848 9.41945 7.10008 8.90843C6.59169 8.39743 6.3375 7.76775 6.3375 7.01937C6.3375 6.27101 6.59251 5.63901 7.10254 5.12339C7.61256 4.60776 8.24587 4.34995 9.00246 4.34995C9.75903 4.34995 10.3915 4.60858 10.8999 5.12584C11.4083 5.64309 11.6625 6.27591 11.6625 7.02428C11.6625 7.77264 11.4075 8.40151 10.8975 8.91089C10.3874 9.42026 9.75413 9.67495 8.99754 9.67495ZM8.99316 16.875C7.92388 16.875 6.91083 16.6684 5.95401 16.2552C4.99717 15.842 4.15971 15.2759 3.44164 14.5569C2.72357 13.8379 2.15795 13.0018 1.74476 12.0486C1.33159 11.0955 1.125 10.0771 1.125 8.99341C1.125 7.93018 1.33289 6.91789 1.74868 5.95654C2.16447 4.99518 2.73009 4.15739 3.44556 3.44316C4.16102 2.72894 4.99562 2.16089 5.94936 1.73901C6.90309 1.31714 7.92216 1.1062 9.00654 1.1062C10.0698 1.1062 11.0821 1.31722 12.0434 1.73926C13.0048 2.16129 13.8426 2.73004 14.5568 3.44551C15.271 4.16097 15.8391 4.99966 16.2609 5.96157C16.6828 6.92347 16.8937 7.93855 16.8937 9.00679C16.8937 10.0761 16.6827 11.0898 16.2607 12.048C15.8387 13.0063 15.2699 13.8425 14.5544 14.5567C13.839 15.271 13.0003 15.8359 12.0384 16.2515C11.0765 16.6671 10.0614 16.875 8.99316 16.875ZM8.99944 15.1593C9.64356 15.1593 10.2578 15.0734 10.8422 14.9015C11.4266 14.7296 12.0437 14.4125 12.6938 13.95C12.0312 13.5125 11.4111 13.1921 10.8332 12.989C10.2553 12.7859 9.64464 12.6843 9.00113 12.6843C8.35761 12.6843 7.74811 12.7843 7.17263 12.9843C6.59713 13.1843 5.98125 13.5062 5.325 13.95C5.975 14.4125 6.58887 14.7296 7.16663 14.9015C7.74438 15.0734 8.35531 15.1593 8.99944 15.1593ZM9 8.37183C9.39209 8.37183 9.71667 8.24683 9.97374 7.99683C10.2308 7.74683 10.3594 7.42183 10.3594 7.02183C10.3594 6.62183 10.2308 6.2937 9.97374 6.03745C9.71667 5.7812 9.39209 5.65308 9 5.65308C8.60791 5.65308 8.28333 5.7812 8.02626 6.03745C7.76917 6.2937 7.64062 6.62183 7.64062 7.02183C7.64062 7.42183 7.76917 7.74683 8.02626 7.99683C8.28333 8.24683 8.60791 8.37183 9 8.37183Z" fill="#000000"/>
</g>
</svg>
