<svg width="40" height="40" viewBox="0 0 40 40" fill="none" xmlns="http://www.w3.org/2000/svg">
<path d="M26.2581 23.7591H24.9415L24.4748 23.3091C26.1081 21.4091 27.0915 18.9424 27.0915 16.2591C27.0915 10.2758 22.2415 5.42578 16.2581 5.42578C10.2748 5.42578 5.4248 10.2758 5.4248 16.2591C5.4248 22.2424 10.2748 27.0924 16.2581 27.0924C18.9415 27.0924 21.4081 26.1091 23.3081 24.4758L23.7581 24.9424V26.2591L32.0915 34.5758L34.5748 32.0924L26.2581 23.7591ZM16.2581 23.7591C12.1081 23.7591 8.75814 20.4091 8.75814 16.2591C8.75814 12.1091 12.1081 8.75911 16.2581 8.75911C20.4081 8.75911 23.7581 12.1091 23.7581 16.2591C23.7581 20.4091 20.4081 23.7591 16.2581 23.7591Z" fill="#898989"/>
</svg>
