<svg width="40" height="40" viewBox="0 0 40 40" fill="none" xmlns="http://www.w3.org/2000/svg">
<g clip-path="url(#clip0_3592_86907)">
<mask id="mask0_3592_86907" style="mask-type:alpha" maskUnits="userSpaceOnUse" x="0" y="0" width="40" height="40">
<rect width="40" height="40" fill="#D9D9D9"/>
</mask>
<g mask="url(#mask0_3592_86907)">
<path fill-rule="evenodd" clip-rule="evenodd" d="M32.8038 14.9228C33.3929 16.4772 33.6875 18.1709 33.6875 20.0039C33.6875 21.6063 33.4549 23.1035 32.9896 24.4953C32.5243 25.8871 31.7014 27.3538 30.5208 28.8955C28.8219 27.7854 27.1324 26.9141 25.4522 26.2817C23.7721 25.6492 21.9608 25.333 20.0181 25.333C18.0755 25.333 16.2743 25.6386 14.6146 26.2497C12.9549 26.8608 11.2624 27.7427 9.53708 28.8955C8.31942 27.3381 7.47757 25.8669 7.01154 24.4817C6.54551 23.0965 6.3125 21.6039 6.3125 20.0039C6.3125 16.1331 7.62847 12.8835 10.2604 10.255C12.8924 7.62644 16.1413 6.31217 20.0072 6.31217C21.1722 6.31217 22.2809 6.43151 23.3333 6.67019C23.3333 6.66892 23.3333 6.66765 23.3333 6.66638C23.3333 5.34148 23.6425 4.08879 24.1927 2.97653C22.8417 2.63085 21.449 2.45801 20.0145 2.45801C17.6048 2.45801 15.3402 2.92676 13.2208 3.86426C11.1014 4.80176 9.24671 6.06409 7.65679 7.65126C6.06687 9.23842 4.80993 11.1002 3.88596 13.2365C2.96199 15.3729 2.5 17.6224 2.5 19.9851C2.5 22.3933 2.95908 24.6565 3.87725 26.7745C4.79544 28.8926 6.05239 30.7506 7.64808 32.3484C9.24381 33.9462 11.1048 35.2042 13.2311 36.1224C15.3574 37.0406 17.6086 37.4997 19.9848 37.4997C22.3587 37.4997 24.6144 37.0379 26.752 36.1143C28.8895 35.1906 30.7533 33.9353 32.3432 32.3481C33.9331 30.7609 35.197 28.9026 36.1349 26.7732C37.0727 24.6438 37.5417 22.3911 37.5417 20.0149C37.5417 17.7721 37.1233 15.6348 36.2865 13.603C35.2627 14.2862 34.0792 14.7488 32.8038 14.9228ZM15.778 19.7963C16.9077 20.9319 18.3133 21.4997 19.9945 21.4997C21.6758 21.4997 23.0832 20.9337 24.2166 19.8018C25.35 18.6698 25.9167 17.2723 25.9167 15.6093C25.9167 13.9462 25.3518 12.54 24.222 11.3905C23.0923 10.2411 21.6867 9.66634 20.0055 9.66634C18.3242 9.66634 16.9168 10.2393 15.7834 11.3851C14.65 12.5309 14.0833 13.9354 14.0833 15.5984C14.0833 17.2614 14.6482 18.6607 15.778 19.7963ZM24.0938 33.1143C22.7951 33.4962 21.4301 33.6872 19.9988 33.6872C18.5674 33.6872 17.2097 33.4962 15.9258 33.1143C14.6419 32.7323 13.2778 32.0275 11.8333 30.9997C13.2917 30.0136 14.6603 29.2983 15.9392 28.8538C17.218 28.4094 18.5725 28.1872 20.0025 28.1872C21.4325 28.1872 22.7896 28.4129 24.0738 28.8643C25.3579 29.3156 26.7361 30.0275 28.2083 30.9997C26.7639 32.0275 25.3924 32.7323 24.0938 33.1143ZM22.1639 17.7705C21.5926 18.3261 20.8713 18.6038 20 18.6038C19.1287 18.6038 18.4074 18.3261 17.8361 17.7705C17.2648 17.215 16.9792 16.4927 16.9792 15.6038C16.9792 14.715 17.2648 13.9858 17.8361 13.4163C18.4074 12.8469 19.1287 12.5622 20 12.5622C20.8713 12.5622 21.5926 12.8469 22.1639 13.4163C22.7352 13.9858 23.0208 14.715 23.0208 15.6038C23.0208 16.4927 22.7352 17.215 22.1639 17.7705Z" fill="black"/>
</g>
<path d="M31.6667 11.667C34.4282 11.667 36.6667 9.42842 36.6667 6.66699C36.6667 3.90557 34.4282 1.66699 31.6667 1.66699C28.9053 1.66699 26.6667 3.90557 26.6667 6.66699C26.6667 9.42842 28.9053 11.667 31.6667 11.667Z" fill="#4BCB36"/>
</g>
<defs>
<clipPath id="clip0_3592_86907">
<rect width="40" height="40" fill="white"/>
</clipPath>
</defs>
</svg>
