<svg width="20" height="20" viewBox="0 0 20 20" fill="none" xmlns="http://www.w3.org/2000/svg">
<g clip-path="url(#clip0_5496_71319)">
<mask id="mask0_5496_71319" style="mask-type:alpha" maskUnits="userSpaceOnUse" x="0" y="0" width="20" height="20">
<rect width="20" height="20" fill="#D9D9D9"/>
</mask>
<g mask="url(#mask0_5496_71319)">
<path d="M3.95964 16.1981H4.58464L13.668 7.07311L13.043 6.44811L3.95964 15.5731V16.1981ZM16.5326 6.25019L13.8971 3.60436L14.3034 3.17728C14.6853 2.79533 15.135 2.60089 15.6523 2.59394C16.1697 2.587 16.6194 2.76755 17.0013 3.13561L17.3451 3.47936C17.6506 3.77797 17.7843 4.12172 17.7461 4.51061C17.7079 4.8995 17.5569 5.22589 17.293 5.48978L16.5326 6.25019ZM15.7305 7.05228L5.14714 17.6252H2.51172V14.9898L13.0742 4.43769L15.7305 7.05228ZM13.3763 6.76061L13.043 6.44811L13.668 7.07311L13.3763 6.76061Z" fill="#4D7BF1"/>
</g>
</g>
<defs>
<clipPath id="clip0_5496_71319">
<rect width="20" height="20" fill="white"/>
</clipPath>
</defs>
</svg>
