<svg width="24" height="25" viewBox="0 0 24 25" fill="none" xmlns="http://www.w3.org/2000/svg">
<g clip-path="url(#clip0_7831_80939)">
<path fill-rule="evenodd" clip-rule="evenodd" d="M7.05273 0.333719C8.33236 0.27481 8.74036 0.261719 12 0.261719C15.2596 0.261719 15.6676 0.275901 16.9462 0.333719C18.2247 0.391537 19.0975 0.595537 19.8611 0.891173C20.6607 1.19336 21.3862 1.66572 21.9862 2.27663C22.5971 2.87554 23.0684 3.5999 23.3695 4.40063C23.6662 5.16426 23.8691 6.03699 23.928 7.31335C23.9869 8.59517 24 9.00317 24 12.2617C24 15.5214 23.9858 15.9294 23.928 17.209C23.8702 18.4854 23.6662 19.3581 23.3695 20.1217C23.0684 20.9225 22.5963 21.6481 21.9862 22.2479C21.3862 22.8588 20.6607 23.3301 19.8611 23.6312C19.0975 23.9279 18.2247 24.1308 16.9484 24.1897C15.6676 24.2486 15.2596 24.2617 12 24.2617C8.74036 24.2617 8.33236 24.2475 7.05273 24.1897C5.77636 24.1319 4.90364 23.9279 4.14 23.6312C3.33919 23.33 2.61362 22.858 2.01382 22.2479C1.40332 21.6486 0.930889 20.9234 0.629454 20.1228C0.333818 19.3592 0.130909 18.4864 0.072 17.2101C0.0130909 15.9283 0 15.5203 0 12.2617C0 9.00208 0.0141818 8.59408 0.072 7.31554C0.129818 6.03699 0.333818 5.16426 0.629454 4.40063C0.931334 3.59999 1.40413 2.87479 2.01491 2.27554C2.61386 1.66517 3.3387 1.19275 4.13891 0.891173C4.90255 0.595537 5.77527 0.392628 7.05164 0.333719H7.05273ZM16.8491 2.49372C15.5836 2.4359 15.204 2.4239 12 2.4239C8.796 2.4239 8.41636 2.4359 7.15091 2.49372C5.98036 2.54717 5.34545 2.74245 4.92218 2.90717C4.36255 3.12535 3.96218 3.3839 3.54218 3.8039C3.14405 4.19123 2.83765 4.66275 2.64545 5.1839C2.48073 5.60717 2.28545 6.24208 2.232 7.41263C2.17418 8.67808 2.16218 9.05772 2.16218 12.2617C2.16218 15.4657 2.17418 15.8454 2.232 17.1108C2.28545 18.2814 2.48073 18.9163 2.64545 19.3395C2.83745 19.8599 3.144 20.3323 3.54218 20.7195C3.92945 21.1177 4.40182 21.4243 4.92218 21.6163C5.34545 21.781 5.98036 21.9763 7.15091 22.0297C8.41636 22.0875 8.79491 22.0995 12 22.0995C15.2051 22.0995 15.5836 22.0875 16.8491 22.0297C18.0196 21.9763 18.6545 21.781 19.0778 21.6163C19.6375 21.3981 20.0378 21.1395 20.4578 20.7195C20.856 20.3323 21.1625 19.8599 21.3545 19.3395C21.5193 18.9163 21.7145 18.2814 21.768 17.1108C21.8258 15.8454 21.8378 15.4657 21.8378 12.2617C21.8378 9.05772 21.8258 8.67808 21.768 7.41263C21.7145 6.24208 21.5193 5.60717 21.3545 5.1839C21.1364 4.62426 20.8778 4.2239 20.4578 3.8039C20.0705 3.4058 19.5989 3.0994 19.0778 2.90717C18.6545 2.74245 18.0196 2.54717 16.8491 2.49372ZM10.4673 15.961C11.3233 16.3173 12.2764 16.3654 13.1639 16.0971C14.0514 15.8287 14.8182 15.2605 15.3334 14.4896C15.8485 13.7187 16.0801 12.7928 15.9884 11.8702C15.8968 10.9475 15.4876 10.0853 14.8309 9.43081C14.4123 9.01242 13.906 8.69206 13.3487 8.49279C12.7914 8.29352 12.1968 8.22029 11.6078 8.27839C11.0188 8.33649 10.45 8.52446 9.94233 8.82877C9.43468 9.13308 9.00081 9.54617 8.67197 10.0383C8.34312 10.5304 8.12748 11.0893 8.04056 11.6748C7.95365 12.2602 7.99762 12.8577 8.16932 13.4241C8.34101 13.9905 8.63616 14.5118 9.03351 14.9505C9.43087 15.3892 9.92054 15.7343 10.4673 15.961ZM7.63854 7.90026C8.2113 7.32751 8.89126 6.87318 9.6396 6.5632C10.3879 6.25323 11.19 6.09369 12 6.09369C12.81 6.09369 13.6121 6.25323 14.3604 6.5632C15.1087 6.87318 15.7887 7.32751 16.3615 7.90026C16.9342 8.47302 17.3885 9.15298 17.6985 9.90132C18.0085 10.6497 18.168 11.4517 18.168 12.2617C18.168 13.0717 18.0085 13.8738 17.6985 14.6221C17.3885 15.3705 16.9342 16.0504 16.3615 16.6232C15.2047 17.7799 13.6359 18.4297 12 18.4297C10.3641 18.4297 8.79527 17.7799 7.63854 16.6232C6.48181 15.4664 5.83197 13.8976 5.83197 12.2617C5.83197 10.6259 6.48181 9.05699 7.63854 7.90026ZM19.536 7.01226C19.6779 6.87838 19.7916 6.71737 19.8701 6.53878C19.9487 6.36019 19.9907 6.16765 19.9935 5.97255C19.9964 5.77745 19.9601 5.58377 19.8867 5.40297C19.8134 5.22216 19.7045 5.05791 19.5665 4.91994C19.4285 4.78197 19.2643 4.67309 19.0835 4.59974C18.9027 4.52639 18.709 4.49006 18.5139 4.4929C18.3188 4.49574 18.1263 4.5377 17.9477 4.6163C17.7691 4.69489 17.6081 4.80851 17.4742 4.95045C17.2138 5.22648 17.0712 5.59312 17.0768 5.97255C17.0823 6.35198 17.2355 6.71431 17.5038 6.98264C17.7721 7.25096 18.1345 7.40415 18.5139 7.40968C18.8933 7.41521 19.26 7.27265 19.536 7.01226Z" fill="#4D7BF1"/>
</g>
<defs>
<clipPath id="clip0_7831_80939">
<rect width="24" height="24" fill="white" transform="translate(0 0.261719)"/>
</clipPath>
</defs>
</svg>
