<svg width="24" height="25" viewBox="0 0 24 25" fill="none" xmlns="http://www.w3.org/2000/svg">
<g clip-path="url(#clip0_5848_79611)">
<path fill-rule="evenodd" clip-rule="evenodd" d="M7.05273 0.154275C8.33236 0.0953663 8.74036 0.0822754 12 0.0822754C15.2596 0.0822754 15.6676 0.0964572 16.9462 0.154275C18.2247 0.212094 19.0975 0.416094 19.8611 0.71173C20.6607 1.01391 21.3862 1.48628 21.9862 2.09718C22.5971 2.69609 23.0684 3.42046 23.3695 4.22118C23.6662 4.98482 23.8691 5.85755 23.928 7.13391C23.9869 8.41573 24 8.82373 24 12.0823C24 15.3419 23.9858 15.7499 23.928 17.0295C23.8702 18.3059 23.6662 19.1786 23.3695 19.9423C23.0684 20.7431 22.5963 21.4687 21.9862 22.0685C21.3862 22.6794 20.6607 23.1506 19.8611 23.4517C19.0975 23.7485 18.2247 23.9514 16.9484 24.0103C15.6676 24.0692 15.2596 24.0823 12 24.0823C8.74036 24.0823 8.33236 24.0681 7.05273 24.0103C5.77636 23.9525 4.90364 23.7485 4.14 23.4517C3.33919 23.1506 2.61362 22.6786 2.01382 22.0685C1.40332 21.4692 0.930889 20.744 0.629454 19.9434C0.333818 19.1797 0.130909 18.307 0.072 17.0306C0.0130909 15.7488 0 15.3408 0 12.0823C0 8.82264 0.0141818 8.41464 0.072 7.13609C0.129818 5.85755 0.333818 4.98482 0.629454 4.22118C0.931334 3.42055 1.40413 2.69534 2.01491 2.09609C2.61386 1.48573 3.3387 1.0133 4.13891 0.71173C4.90255 0.416094 5.77527 0.213184 7.05164 0.154275H7.05273ZM16.8491 2.31428C15.5836 2.25646 15.204 2.24446 12 2.24446C8.796 2.24446 8.41636 2.25646 7.15091 2.31428C5.98036 2.36773 5.34545 2.563 4.92218 2.72773C4.36255 2.94591 3.96218 3.20446 3.54218 3.62446C3.14405 4.01179 2.83765 4.48331 2.64545 5.00446C2.48073 5.42773 2.28545 6.06264 2.232 7.23318C2.17418 8.49864 2.16218 8.87827 2.16218 12.0823C2.16218 15.2863 2.17418 15.6659 2.232 16.9314C2.28545 18.1019 2.48073 18.7368 2.64545 19.1601C2.83745 19.6805 3.144 20.1528 3.54218 20.5401C3.92945 20.9383 4.40182 21.2448 4.92218 21.4368C5.34545 21.6015 5.98036 21.7968 7.15091 21.8503C8.41636 21.9081 8.79491 21.9201 12 21.9201C15.2051 21.9201 15.5836 21.9081 16.8491 21.8503C18.0196 21.7968 18.6545 21.6015 19.0778 21.4368C19.6375 21.2186 20.0378 20.9601 20.4578 20.5401C20.856 20.1528 21.1625 19.6805 21.3545 19.1601C21.5193 18.7368 21.7145 18.1019 21.768 16.9314C21.8258 15.6659 21.8378 15.2863 21.8378 12.0823C21.8378 8.87827 21.8258 8.49864 21.768 7.23318C21.7145 6.06264 21.5193 5.42773 21.3545 5.00446C21.1364 4.44482 20.8778 4.04446 20.4578 3.62446C20.0705 3.22635 19.5989 2.91996 19.0778 2.72773C18.6545 2.563 18.0196 2.36773 16.8491 2.31428ZM10.4673 15.7815C11.3233 16.1379 12.2764 16.186 13.1639 15.9176C14.0514 15.6493 14.8182 15.0811 15.3334 14.3102C15.8485 13.5393 16.0801 12.6134 15.9884 11.6908C15.8968 10.7681 15.4876 9.90588 14.8309 9.25137C14.4123 8.83298 13.906 8.51262 13.3487 8.31334C12.7914 8.11407 12.1968 8.04085 11.6078 8.09895C11.0188 8.15704 10.45 8.34501 9.94233 8.64933C9.43468 8.95364 9.00081 9.36672 8.67197 9.85884C8.34312 10.351 8.12748 10.9099 8.04056 11.4953C7.95365 12.0808 7.99762 12.6782 8.16932 13.2447C8.34101 13.8111 8.63616 14.3324 9.03351 14.7711C9.43087 15.2097 9.92054 15.5548 10.4673 15.7815ZM7.63854 7.72082C8.2113 7.14807 8.89126 6.69373 9.6396 6.38376C10.3879 6.07379 11.19 5.91425 12 5.91425C12.81 5.91425 13.6121 6.07379 14.3604 6.38376C15.1087 6.69373 15.7887 7.14807 16.3615 7.72082C16.9342 8.29357 17.3885 8.97353 17.6985 9.72187C18.0085 10.4702 18.168 11.2723 18.168 12.0823C18.168 12.8923 18.0085 13.6943 17.6985 14.4427C17.3885 15.191 16.9342 15.871 16.3615 16.4437C15.2047 17.6005 13.6359 18.2503 12 18.2503C10.3641 18.2503 8.79527 17.6005 7.63854 16.4437C6.48181 15.287 5.83197 13.7181 5.83197 12.0823C5.83197 10.4464 6.48181 8.87755 7.63854 7.72082ZM19.536 6.83282C19.6779 6.69893 19.7916 6.53793 19.8701 6.35934C19.9487 6.18075 19.9907 5.9882 19.9935 5.79311C19.9964 5.59801 19.9601 5.40433 19.8867 5.22352C19.8134 5.04272 19.7045 4.87847 19.5665 4.7405C19.4285 4.60253 19.2643 4.49365 19.0835 4.42029C18.9027 4.34694 18.709 4.31061 18.5139 4.31346C18.3188 4.3163 18.1263 4.35826 17.9477 4.43685C17.7691 4.51544 17.6081 4.62907 17.4742 4.771C17.2138 5.04703 17.0712 5.41368 17.0768 5.79311C17.0823 6.17254 17.2355 6.53487 17.5038 6.80319C17.7721 7.07152 18.1345 7.22471 18.5139 7.23024C18.8933 7.23577 19.26 7.09321 19.536 6.83282Z" fill="#B5B5B5"/>
</g>
<defs>
<clipPath id="clip0_5848_79611">
<rect width="24" height="24" fill="white" transform="translate(0 0.0822754)"/>
</clipPath>
</defs>
</svg>
