<svg width="262" height="64" viewBox="0 0 262 64" fill="none" xmlns="http://www.w3.org/2000/svg">
<rect x="0.332031" width="64.0002" height="64.0002" rx="32.0001" fill="#4D7BF1"/>
<path d="M15.2695 21.3335C15.2695 20.4546 16.273 19.9528 16.9762 20.4802L31.1985 31.1469C31.7674 31.5736 31.7674 32.4269 31.1985 32.8536L16.9762 43.5203C16.273 44.0477 15.2695 43.5459 15.2695 42.6669L15.2695 21.3335Z" fill="white"/>
<path d="M49.4023 21.3335C49.4023 20.4546 48.3989 19.9528 47.6957 20.4802L33.4734 31.1469C32.9045 31.5736 32.9045 32.4269 33.4734 32.8536L47.6957 43.5203C48.3989 44.0477 49.4023 43.5459 49.4023 42.6669L49.4023 21.3335Z" fill="white"/>
<g clip-path="url(#clip0_8021_77069)">
<path d="M75.6832 36.7998V6.93303H88.3126C90.3037 6.93303 92.1099 7.38814 93.7313 8.29837C95.381 9.18015 96.6895 10.4317 97.6566 12.053C98.6237 13.6459 99.1073 15.4948 99.1073 17.5997C99.1073 19.6762 98.6237 21.5251 97.6566 23.1464C96.6895 24.7678 95.381 26.0335 93.7313 26.9438C92.1099 27.854 90.3037 28.3091 88.3126 28.3091H82.2966V36.7998H75.6832ZM82.2966 22.6344H87.5446C88.4548 22.6344 89.2797 22.4353 90.0192 22.0371C90.7873 21.6389 91.3846 21.07 91.8113 20.3304C92.2664 19.5624 92.4939 18.6664 92.4939 17.6424C92.4939 16.5615 92.2664 15.6513 91.8113 14.9117C91.3846 14.1722 90.7873 13.6033 90.0192 13.2051C89.2797 12.8068 88.4548 12.6077 87.5446 12.6077H82.2966V22.6344ZM102.591 36.7998V21.2691C102.591 19.3064 103.146 17.7704 104.255 16.6611C105.364 15.5517 106.915 14.9971 108.906 14.9971H115.092V20.1597H110.228C109.83 20.1597 109.489 20.302 109.204 20.5864C108.948 20.8424 108.82 21.1695 108.82 21.5677V36.7998H102.591ZM130.253 36.7998C127.778 36.7998 125.617 36.3305 123.768 35.3918C121.919 34.4531 120.468 33.1589 119.416 31.5091C118.392 29.8593 117.88 27.9962 117.88 25.9198C117.88 23.5589 118.363 21.5251 119.33 19.8184C120.297 18.1117 121.606 16.8033 123.256 15.8931C124.905 14.9544 126.754 14.4851 128.802 14.4851C131.163 14.4851 133.112 14.9828 134.648 15.9784C136.184 16.974 137.322 18.3251 138.061 20.0317C138.829 21.71 139.213 23.6015 139.213 25.7064C139.213 26.0478 139.199 26.4318 139.17 26.8584C139.142 27.2851 139.085 27.6264 139 27.8824H124.493C124.692 28.7073 125.048 29.4042 125.56 29.9731C126.072 30.5136 126.726 30.926 127.522 31.2105C128.319 31.4665 129.215 31.5945 130.21 31.5945H136.568V36.7998H130.253ZM124.365 23.8718H133.069C133.041 23.3598 132.955 22.8904 132.813 22.4638C132.671 22.0086 132.472 21.6104 132.216 21.2691C131.988 20.8993 131.704 20.5864 131.362 20.3304C131.05 20.0744 130.666 19.8895 130.21 19.7757C129.784 19.6335 129.314 19.5624 128.802 19.5624C128.12 19.5624 127.508 19.6904 126.968 19.9464C126.456 20.174 126.015 20.4869 125.645 20.8851C125.304 21.2833 125.019 21.7384 124.792 22.2504C124.593 22.7624 124.45 23.3029 124.365 23.8718ZM142.345 36.7998V23.8718C142.345 22.1366 142.758 20.558 143.582 19.1357C144.436 17.6851 145.63 16.5473 147.166 15.7224C148.731 14.8975 150.608 14.4851 152.798 14.4851C153.851 14.4851 154.832 14.5988 155.742 14.8264C156.653 15.0539 157.492 15.3953 158.26 15.8504C159.028 16.2771 159.682 16.7891 160.223 17.3864H160.308C160.877 16.7891 161.545 16.2771 162.313 15.8504C163.081 15.3953 163.92 15.0539 164.831 14.8264C165.741 14.5988 166.722 14.4851 167.775 14.4851C169.965 14.4851 171.842 14.8975 173.407 15.7224C174.971 16.5473 176.166 17.6851 176.991 19.1357C177.815 20.558 178.228 22.1366 178.228 23.8718V36.7998H171.999V23.9571C171.999 23.2175 171.799 22.5349 171.401 21.9091C171.031 21.2833 170.519 20.7855 169.865 20.4157C169.239 20.046 168.528 19.8611 167.732 19.8611C166.935 19.8611 166.21 20.046 165.556 20.4157C164.902 20.7855 164.375 21.2833 163.977 21.9091C163.607 22.5349 163.423 23.2175 163.423 23.9571V36.7998H157.193V23.9571C157.193 23.2175 156.994 22.5349 156.596 21.9091C156.226 21.2833 155.714 20.7855 155.06 20.4157C154.434 20.046 153.709 19.8611 152.884 19.8611C152.087 19.8611 151.362 20.046 150.708 20.4157C150.054 20.7855 149.527 21.2833 149.129 21.9091C148.759 22.5349 148.574 23.2175 148.574 23.9571V36.7998H142.345ZM186.228 13.7998C185.321 13.7998 184.521 13.4798 183.828 12.8398C183.161 12.1731 182.828 11.3598 182.828 10.3998C182.828 9.46647 183.161 8.66647 183.828 7.9998C184.521 7.30647 185.321 6.9598 186.228 6.9598C187.161 6.9598 187.961 7.30647 188.628 7.9998C189.321 8.66647 189.668 9.46647 189.668 10.3998C189.668 11.3598 189.321 12.1731 188.628 12.8398C187.961 13.4798 187.161 13.7998 186.228 13.7998ZM189.228 36.7998C187.388 36.7998 185.934 36.2798 184.868 35.2398C183.828 34.1731 183.308 32.7198 183.308 30.8798V16.3598H189.148V30.6398C189.148 30.9865 189.268 31.2931 189.508 31.5598C189.774 31.7998 190.081 31.9198 190.428 31.9198H191.628V36.7998H189.228ZM205.749 37.3118C203.531 37.3118 201.611 36.8709 199.989 35.9891C198.368 35.1074 197.116 33.9269 196.235 32.4478C195.381 30.9687 194.955 29.3331 194.955 27.5411V14.9971H201.184V27.4558C201.184 28.2522 201.383 29.006 201.781 29.7171C202.18 30.3998 202.72 30.9402 203.403 31.3385C204.114 31.7367 204.882 31.9358 205.707 31.9358C206.56 31.9358 207.328 31.7367 208.011 31.3385C208.693 30.9402 209.234 30.3998 209.632 29.7171C210.03 29.006 210.229 28.2522 210.229 27.4558V14.9971H216.459V27.5411C216.459 29.3331 216.032 30.9687 215.179 32.4478C214.325 33.9269 213.102 35.1074 211.509 35.9891C209.916 36.8709 207.996 37.3118 205.749 37.3118ZM221.663 36.7998V23.8718C221.663 22.1366 222.076 20.558 222.9 19.1357C223.754 17.6851 224.948 16.5473 226.484 15.7224C228.049 14.8975 229.926 14.4851 232.116 14.4851C233.169 14.4851 234.15 14.5988 235.06 14.8264C235.971 15.0539 236.81 15.3953 237.578 15.8504C238.346 16.2771 239 16.7891 239.54 17.3864H239.626C240.195 16.7891 240.863 16.2771 241.631 15.8504C242.399 15.3953 243.238 15.0539 244.148 14.8264C245.059 14.5988 246.04 14.4851 247.092 14.4851C249.283 14.4851 251.16 14.8975 252.725 15.7224C254.289 16.5473 255.484 17.6851 256.309 19.1357C257.133 20.558 257.546 22.1366 257.546 23.8718V36.7998H251.316V23.9571C251.316 23.2175 251.117 22.5349 250.719 21.9091C250.349 21.2833 249.837 20.7855 249.183 20.4157C248.557 20.046 247.846 19.8611 247.05 19.8611C246.253 19.8611 245.528 20.046 244.874 20.4157C244.22 20.7855 243.693 21.2833 243.295 21.9091C242.925 22.5349 242.74 23.2175 242.74 23.9571V36.7998H236.511V23.9571C236.511 23.2175 236.312 22.5349 235.914 21.9091C235.544 21.2833 235.032 20.7855 234.378 20.4157C233.752 20.046 233.027 19.8611 232.202 19.8611C231.405 19.8611 230.68 20.046 230.026 20.4157C229.372 20.7855 228.845 21.2833 228.447 21.9091C228.077 22.5349 227.892 23.2175 227.892 23.9571V36.7998H221.663Z" fill="#4D7BF1"/>
</g>
<g clip-path="url(#clip1_8021_77069)">
<path d="M82.838 56.2002C81.3703 56.2002 80.0818 55.9271 78.9724 55.381C77.8801 54.8178 77.0268 54.0498 76.4124 53.077C75.798 52.0871 75.4908 50.9522 75.4908 49.6722C75.4908 48.3239 75.7639 47.1378 76.31 46.1138C76.8561 45.0898 77.6071 44.2876 78.5628 43.7073C79.5185 43.1271 80.6194 42.8369 81.8652 42.8369C83.2647 42.8369 84.4167 43.1356 85.3212 43.7329C86.2258 44.3303 86.8914 45.1324 87.318 46.1394C87.7618 47.1463 87.9836 48.2727 87.9836 49.5186C87.9836 49.6892 87.9751 49.8855 87.958 50.1074C87.941 50.3292 87.9154 50.4999 87.8812 50.6194H78.614C78.7164 51.302 78.9639 51.8738 79.3564 52.3346C79.7489 52.7783 80.2439 53.1197 80.8412 53.3586C81.4386 53.5805 82.1042 53.6914 82.838 53.6914H86.3452V56.2002H82.838ZM78.5884 48.6226H85.0396C85.0226 48.2983 84.9714 47.974 84.886 47.6498C84.8178 47.3255 84.6983 47.0183 84.5276 46.7282C84.374 46.438 84.1692 46.1906 83.9132 45.9858C83.6743 45.7639 83.3842 45.5932 83.0428 45.4738C82.7015 45.3372 82.309 45.269 81.8652 45.269C81.3532 45.269 80.901 45.3714 80.5084 45.5762C80.1159 45.7639 79.7831 46.0199 79.51 46.3442C79.2369 46.6514 79.0236 47.0098 78.87 47.4194C78.7335 47.8119 78.6396 48.213 78.5884 48.6226ZM88.762 56.2002L92.9605 49.3906L89.1205 43.1441H92.5253L95.5461 48.3666H96.6213L99.6165 43.1441H102.97L99.1045 49.3906L103.303 56.2002H99.8469L96.7493 50.8754H95.2901L92.1669 56.2002H88.762ZM111.157 56.2002C109.809 56.2002 108.605 55.9101 107.547 55.3298C106.489 54.7495 105.653 53.973 105.039 53.0002C104.424 52.0103 104.117 50.901 104.117 49.6722C104.117 48.4434 104.424 47.3426 105.039 46.3698C105.653 45.3799 106.489 44.5948 107.547 44.0146C108.605 43.4343 109.809 43.1441 111.157 43.1441H112.744V45.653H111.106C110.321 45.653 109.621 45.8322 109.007 46.1906C108.409 46.5319 107.94 47.0098 107.599 47.6242C107.257 48.2386 107.087 48.9212 107.087 49.6722C107.087 50.4231 107.257 51.1058 107.599 51.7202C107.94 52.3346 108.409 52.821 109.007 53.1794C109.621 53.5207 110.321 53.6914 111.106 53.6914H112.744V56.2002H111.157ZM115.309 56.2002V37.5121H118.253V44.4498C118.782 43.8865 119.397 43.4769 120.097 43.2209C120.796 42.9649 121.505 42.8369 122.221 42.8369C123.416 42.8369 124.432 43.0929 125.268 43.6049C126.121 44.0999 126.77 44.7911 127.213 45.6786C127.657 46.549 127.879 47.5474 127.879 48.6738V56.2002H124.961V48.6994C124.961 48.0338 124.798 47.4535 124.474 46.9586C124.167 46.4466 123.757 46.054 123.245 45.781C122.75 45.4908 122.196 45.3458 121.581 45.3458C121.001 45.3458 120.455 45.4823 119.943 45.7554C119.431 46.0284 119.021 46.4124 118.714 46.9074C118.407 47.4023 118.253 47.9655 118.253 48.597V56.2002H115.309ZM133.995 56.2002C133.295 56.2002 132.655 56.0295 132.075 55.6882C131.512 55.3298 131.06 54.8605 130.718 54.2802C130.377 53.6829 130.206 53.0258 130.206 52.309C130.206 51.5068 130.377 50.8242 130.718 50.261C131.06 49.6807 131.512 49.2455 132.075 48.9554C132.655 48.6482 133.295 48.4946 133.995 48.4946H139.243V46.933C139.243 46.5575 139.115 46.2503 138.859 46.0114C138.603 45.7724 138.287 45.653 137.912 45.653H131.461V43.1441H138.193C138.944 43.1441 139.61 43.3233 140.19 43.6817C140.788 44.0231 141.257 44.4924 141.598 45.0898C141.957 45.67 142.136 46.3271 142.136 47.061V52.2066C142.136 52.9404 141.957 53.6146 141.598 54.229C141.24 54.8263 140.753 55.3042 140.139 55.6626C139.542 56.021 138.859 56.2002 138.091 56.2002H133.995ZM134.661 53.6914H137.809C138.219 53.6914 138.56 53.5634 138.833 53.3074C139.107 53.0343 139.243 52.693 139.243 52.2834V50.4658H134.686C134.225 50.4658 133.841 50.6279 133.534 50.9522C133.244 51.2594 133.099 51.6263 133.099 52.053C133.099 52.326 133.167 52.5906 133.304 52.8466C133.44 53.1026 133.628 53.3074 133.867 53.461C134.106 53.6146 134.37 53.6914 134.661 53.6914ZM145.06 56.2002V48.6738C145.06 47.5474 145.316 46.549 145.828 45.6786C146.34 44.7911 147.066 44.0999 148.004 43.6049C148.943 43.0929 150.044 42.8369 151.307 42.8369C152.57 42.8369 153.662 43.0929 154.584 43.6049C155.522 44.0999 156.248 44.7911 156.76 45.6786C157.272 46.549 157.528 47.5474 157.528 48.6738V56.2002H154.609V48.6994C154.609 48.0338 154.456 47.4535 154.148 46.9586C153.841 46.4466 153.432 46.054 152.92 45.781C152.425 45.4908 151.879 45.3458 151.281 45.3458C150.701 45.3458 150.155 45.4908 149.643 45.781C149.148 46.054 148.747 46.4466 148.44 46.9586C148.15 47.4535 148.004 48.0338 148.004 48.6994V56.2002H145.06ZM162.52 61.397V58.8882H169.073C169.517 58.8882 169.858 58.7517 170.097 58.4786C170.353 58.2055 170.481 57.8642 170.481 57.4546V54.0754H170.456C170.08 54.5362 169.679 54.9373 169.253 55.2786C168.826 55.6029 168.339 55.8589 167.793 56.0466C167.264 56.2173 166.675 56.3026 166.027 56.3026C164.832 56.3026 163.766 56.021 162.827 55.4578C161.888 54.8946 161.146 54.1095 160.6 53.1026C160.071 52.0786 159.806 50.9095 159.806 49.5954C159.806 48.3154 160.071 47.1719 160.6 46.165C161.146 45.141 161.922 44.3303 162.929 43.7329C163.936 43.1356 165.165 42.8369 166.616 42.8369C167.998 42.8369 169.193 43.1271 170.2 43.7073C171.224 44.2876 172.017 45.1068 172.581 46.165C173.144 47.206 173.425 48.4263 173.425 49.8258V57.5826C173.425 58.7602 173.084 59.6903 172.401 60.373C171.719 61.0557 170.789 61.397 169.611 61.397H162.52ZM166.59 53.7938C167.375 53.7938 168.049 53.6146 168.613 53.2562C169.193 52.8807 169.637 52.3858 169.944 51.7714C170.268 51.1399 170.43 50.4402 170.43 49.6722C170.43 48.853 170.277 48.1191 169.969 47.4706C169.662 46.822 169.218 46.31 168.638 45.9346C168.075 45.542 167.392 45.3458 166.59 45.3458C165.805 45.3458 165.122 45.542 164.542 45.9346C163.979 46.31 163.544 46.822 163.237 47.4706C162.929 48.102 162.776 48.8188 162.776 49.621C162.776 50.389 162.929 51.0887 163.237 51.7202C163.544 52.3516 163.979 52.8551 164.542 53.2306C165.122 53.6061 165.805 53.7938 166.59 53.7938ZM182.941 56.2002C181.474 56.2002 180.185 55.9271 179.076 55.381C177.984 54.8178 177.13 54.0498 176.516 53.077C175.901 52.0871 175.594 50.9522 175.594 49.6722C175.594 48.3239 175.867 47.1378 176.413 46.1138C176.96 45.0898 177.71 44.2876 178.666 43.7073C179.622 43.1271 180.723 42.8369 181.969 42.8369C183.368 42.8369 184.52 43.1356 185.425 43.7329C186.329 44.3303 186.995 45.1324 187.421 46.1394C187.865 47.1463 188.087 48.2727 188.087 49.5186C188.087 49.6892 188.078 49.8855 188.061 50.1074C188.044 50.3292 188.019 50.4999 187.985 50.6194H178.717C178.82 51.302 179.067 51.8738 179.46 52.3346C179.852 52.7783 180.347 53.1197 180.945 53.3586C181.542 53.5805 182.208 53.6914 182.941 53.6914H186.449V56.2002H182.941ZM178.692 48.6226H185.143C185.126 48.2983 185.075 47.974 184.989 47.6498C184.921 47.3255 184.802 47.0183 184.631 46.7282C184.477 46.438 184.273 46.1906 184.017 45.9858C183.778 45.7639 183.488 45.5932 183.146 45.4738C182.805 45.3372 182.412 45.269 181.969 45.269C181.457 45.269 181.004 45.3714 180.612 45.5762C180.219 45.7639 179.886 46.0199 179.613 46.3442C179.34 46.6514 179.127 47.0098 178.973 47.4194C178.837 47.8119 178.743 48.213 178.692 48.6226ZM190.222 56.2002V46.8562C190.222 45.6956 190.546 44.7911 191.195 44.1426C191.861 43.4769 192.774 43.1441 193.934 43.1441H198.952V45.653H194.472C194.062 45.653 193.738 45.7724 193.499 46.0114C193.277 46.2503 193.166 46.5746 193.166 46.9842V56.2002H190.222Z" fill="#989898"/>
</g>
<defs>
<clipPath id="clip0_8021_77069">
<rect width="188.801" height="36.2668" fill="white" transform="translate(72.8652 2.66699)"/>
</clipPath>
<clipPath id="clip1_8021_77069">
<rect width="187.734" height="22.4001" fill="white" transform="translate(72.8652 38.9336)"/>
</clipPath>
</defs>
</svg>
