<svg width="200" height="117" viewBox="0 0 200 117" fill="none" xmlns="http://www.w3.org/2000/svg">
<rect x="70.4922" y="0.262329" width="59.0165" height="59.0165" rx="29.5082" fill="#4D7BF1"/>
<path d="M84.2617 19.6065C84.2617 18.9311 85.0328 18.5455 85.5732 18.9508L99.1251 29.1147C99.5623 29.4426 99.5623 30.0983 99.1251 30.4262L85.5732 40.5901C85.0328 40.9954 84.2617 40.6098 84.2617 39.9344L84.2617 19.6065Z" fill="white"/>
<path d="M115.736 19.6065C115.736 18.9311 114.965 18.5455 114.425 18.9508L100.873 29.1147C100.436 29.4426 100.436 30.0983 100.873 30.4262L114.425 40.5901C114.965 40.9954 115.736 40.6098 115.736 39.9344L115.736 19.6065Z" fill="white"/>
<path d="M30.0331 93.6229V70.6721H39.738C41.2681 70.6721 42.656 71.0218 43.9019 71.7213C45.1697 72.3989 46.1752 73.3606 46.9183 74.6065C47.6615 75.8306 48.0331 77.2513 48.0331 78.8688C48.0331 80.4644 47.6615 81.8852 46.9183 83.1311C46.1752 84.377 45.1697 85.3497 43.9019 86.0491C42.656 86.7486 41.2681 87.0983 39.738 87.0983H35.1151V93.6229H30.0331ZM35.1151 82.7377H39.1478C39.8473 82.7377 40.4812 82.5847 41.0495 82.2787C41.6396 81.9726 42.0987 81.5355 42.4265 80.9672C42.7763 80.377 42.9511 79.6885 42.9511 78.9016C42.9511 78.071 42.7763 77.3715 42.4265 76.8032C42.0987 76.2349 41.6396 75.7978 41.0495 75.4918C40.4812 75.1857 39.8473 75.0327 39.1478 75.0327H35.1151V82.7377ZM50.7101 93.6229V81.6885C50.7101 80.1803 51.1363 79 51.9888 78.1475C52.8412 77.295 54.0325 76.8688 55.5626 76.8688H60.3167V80.836H56.579C56.2729 80.836 56.0106 80.9453 55.7921 81.1639C55.5953 81.3606 55.497 81.612 55.497 81.918V93.6229H50.7101ZM71.9668 93.6229C70.0651 93.6229 68.4039 93.2623 66.9832 92.541C65.5624 91.8196 64.4476 90.8251 63.6389 89.5573C62.852 88.2896 62.4586 86.8579 62.4586 85.2623C62.4586 83.4481 62.8302 81.8852 63.5733 80.5737C64.3165 79.2623 65.322 78.2568 66.5897 77.5573C67.8575 76.836 69.2782 76.4754 70.852 76.4754C72.6662 76.4754 74.1635 76.8579 75.3438 77.6229C76.5242 78.3879 77.3985 79.4262 77.9668 80.7377C78.5569 82.0273 78.852 83.4808 78.852 85.0983C78.852 85.3606 78.8411 85.6557 78.8192 85.9836C78.7974 86.3114 78.7537 86.5737 78.6881 86.7705H67.5405C67.6935 87.4043 67.9668 87.9399 68.3602 88.377C68.7537 88.7923 69.2564 89.1093 69.8684 89.3278C70.4804 89.5246 71.169 89.6229 71.934 89.6229H76.8192V93.6229H71.9668ZM67.4422 83.6885H74.1307C74.1089 83.295 74.0433 82.9344 73.934 82.6065C73.8247 82.2568 73.6717 81.9508 73.475 81.6885C73.3001 81.4043 73.0815 81.1639 72.8192 80.9672C72.5788 80.7705 72.2837 80.6284 71.934 80.5409C71.6061 80.4317 71.2455 80.377 70.852 80.377C70.3274 80.377 69.8575 80.4754 69.4422 80.6721C69.0487 80.847 68.7099 81.0874 68.4258 81.3934C68.1635 81.6994 67.9449 82.0491 67.7701 82.4426C67.617 82.836 67.5078 83.2513 67.4422 83.6885ZM81.2588 93.6229V83.6885C81.2588 82.3552 81.5757 81.142 82.2096 80.0491C82.8654 78.9344 83.7834 78.0601 84.9637 77.4262C86.1659 76.7923 87.6085 76.4754 89.2916 76.4754C90.1003 76.4754 90.8544 76.5628 91.5539 76.7377C92.2533 76.9125 92.8982 77.1748 93.4883 77.5245C94.0785 77.8524 94.5812 78.2459 94.9965 78.7049H95.0621C95.4992 78.2459 96.0129 77.8524 96.6031 77.5245C97.1932 77.1748 97.838 76.9125 98.5375 76.7377C99.237 76.5628 99.9911 76.4754 100.8 76.4754C102.483 76.4754 103.925 76.7923 105.128 77.4262C106.33 78.0601 107.248 78.9344 107.882 80.0491C108.516 81.142 108.833 82.3552 108.833 83.6885V93.6229H104.046V83.7541C104.046 83.1858 103.893 82.6612 103.587 82.1803C103.303 81.6994 102.909 81.3169 102.406 81.0327C101.925 80.7486 101.379 80.6065 100.767 80.6065C100.155 80.6065 99.5976 80.7486 99.0949 81.0327C98.5921 81.3169 98.1878 81.6994 97.8818 82.1803C97.5976 82.6612 97.4555 83.1858 97.4555 83.7541V93.6229H92.6686V83.7541C92.6686 83.1858 92.5156 82.6612 92.2096 82.1803C91.9255 81.6994 91.532 81.3169 91.0293 81.0327C90.5484 80.7486 89.991 80.6065 89.3572 80.6065C88.7451 80.6065 88.1878 80.7486 87.685 81.0327C87.1823 81.3169 86.7779 81.6994 86.4719 82.1803C86.1878 82.6612 86.0457 83.1858 86.0457 83.7541V93.6229H81.2588ZM115.254 74.7704C114.511 74.7704 113.856 74.5081 113.287 73.9836C112.741 73.4371 112.468 72.7704 112.468 71.9836C112.468 71.2185 112.741 70.5628 113.287 70.0163C113.856 69.448 114.511 69.1639 115.254 69.1639C116.02 69.1639 116.675 69.448 117.222 70.0163C117.79 70.5628 118.074 71.2185 118.074 71.9836C118.074 72.7704 117.79 73.4371 117.222 73.9836C116.675 74.5081 116.02 74.7704 115.254 74.7704ZM117.713 93.6229C116.205 93.6229 115.014 93.1967 114.14 92.3442C113.287 91.4699 112.861 90.2787 112.861 88.7705V76.8688H117.648V88.5737C117.648 88.8579 117.746 89.1093 117.943 89.3278C118.162 89.5246 118.413 89.6229 118.697 89.6229H119.681V93.6229H117.713ZM130.57 94.0164C128.865 94.0164 127.389 93.6776 126.143 93C124.897 92.3224 123.936 91.4153 123.258 90.2787C122.602 89.142 122.274 87.8852 122.274 86.5082V76.8688H127.061V86.4426C127.061 87.0546 127.214 87.6338 127.52 88.1803C127.826 88.7049 128.242 89.1202 128.766 89.4262C129.313 89.7322 129.903 89.8852 130.537 89.8852C131.193 89.8852 131.783 89.7322 132.307 89.4262C132.832 89.1202 133.247 88.7049 133.553 88.1803C133.859 87.6338 134.012 87.0546 134.012 86.4426V76.8688H138.799V86.5082C138.799 87.8852 138.471 89.142 137.815 90.2787C137.16 91.4153 136.22 92.3224 134.996 93C133.772 93.6776 132.296 94.0164 130.57 94.0164ZM142.798 93.6229V83.6885C142.798 82.3552 143.115 81.142 143.749 80.0491C144.405 78.9344 145.323 78.0601 146.503 77.4262C147.705 76.7923 149.148 76.4754 150.831 76.4754C151.64 76.4754 152.394 76.5628 153.093 76.7377C153.793 76.9125 154.438 77.1748 155.028 77.5245C155.618 77.8524 156.121 78.2459 156.536 78.7049H156.602C157.039 78.2459 157.552 77.8524 158.143 77.5245C158.733 77.1748 159.378 76.9125 160.077 76.7377C160.776 76.5628 161.531 76.4754 162.339 76.4754C164.022 76.4754 165.465 76.7923 166.667 77.4262C167.869 78.0601 168.787 78.9344 169.421 80.0491C170.055 81.142 170.372 82.3552 170.372 83.6885V93.6229H165.585V83.7541C165.585 83.1858 165.432 82.6612 165.126 82.1803C164.842 81.6994 164.449 81.3169 163.946 81.0327C163.465 80.7486 162.919 80.6065 162.307 80.6065C161.694 80.6065 161.137 80.7486 160.634 81.0327C160.132 81.3169 159.727 81.6994 159.421 82.1803C159.137 82.6612 158.995 83.1858 158.995 83.7541V93.6229H154.208V83.7541C154.208 83.1858 154.055 82.6612 153.749 82.1803C153.465 81.6994 153.072 81.3169 152.569 81.0327C152.088 80.7486 151.531 80.6065 150.897 80.6065C150.285 80.6065 149.727 80.7486 149.225 81.0327C148.722 81.3169 148.317 81.6994 148.011 82.1803C147.727 82.6612 147.585 83.1858 147.585 83.7541V93.6229H142.798Z" fill="#4D7BF1"/>
<g clip-path="url(#clip0_4542_41441)">
<path d="M58.4797 110.393C57.3518 110.393 56.3616 110.184 55.5092 109.764C54.6698 109.331 54.0141 108.741 53.542 107.993C53.0698 107.233 52.8338 106.361 52.8338 105.377C52.8338 104.341 53.0436 103.43 53.4633 102.643C53.8829 101.856 54.46 101.239 55.1944 100.793C55.9288 100.348 56.7747 100.125 57.7321 100.125C58.8075 100.125 59.6928 100.354 60.3879 100.813C61.0829 101.272 61.5944 101.889 61.9223 102.662C62.2633 103.436 62.4338 104.302 62.4338 105.259C62.4338 105.39 62.4272 105.541 62.4141 105.712C62.401 105.882 62.3813 106.013 62.3551 106.105H55.2338C55.3125 106.63 55.5026 107.069 55.8043 107.423C56.1059 107.764 56.4862 108.026 56.9452 108.21C57.4043 108.38 57.9157 108.466 58.4797 108.466H61.1748V110.393H58.4797ZM55.2141 104.571H60.1715C60.1584 104.321 60.119 104.072 60.0534 103.823C60.001 103.574 59.9092 103.338 59.778 103.115C59.66 102.892 59.5026 102.702 59.3059 102.544C59.1223 102.374 58.8993 102.243 58.637 102.151C58.3748 102.046 58.0731 101.993 57.7321 101.993C57.3387 101.993 56.9911 102.072 56.6895 102.23C56.3879 102.374 56.1321 102.571 55.9223 102.82C55.7125 103.056 55.5485 103.331 55.4305 103.646C55.3256 103.948 55.2534 104.256 55.2141 104.571ZM63.0319 110.393L66.2582 105.161L63.3073 100.361H65.9237L68.245 104.374H69.0713L71.3729 100.361H73.95L70.9795 105.161L74.2057 110.393H71.55L69.1696 106.302H68.0483L65.6483 110.393H63.0319ZM80.2411 110.393C79.205 110.393 78.2804 110.171 77.4673 109.725C76.6542 109.279 76.0115 108.682 75.5394 107.934C75.0673 107.174 74.8312 106.321 74.8312 105.377C74.8312 104.433 75.0673 103.587 75.5394 102.839C76.0115 102.079 76.6542 101.475 77.4673 101.03C78.2804 100.584 79.205 100.361 80.2411 100.361H81.4607V102.289H80.2017C79.5984 102.289 79.0607 102.426 78.5886 102.702C78.1296 102.964 77.7689 103.331 77.5066 103.803C77.2443 104.275 77.1132 104.8 77.1132 105.377C77.1132 105.954 77.2443 106.479 77.5066 106.951C77.7689 107.423 78.1296 107.797 78.5886 108.072C79.0607 108.334 79.5984 108.466 80.2017 108.466H81.4607V110.393H80.2411ZM83.4319 110.393V96.0328H85.6942V101.364C86.1008 100.931 86.5729 100.616 87.1106 100.42C87.6483 100.223 88.1926 100.125 88.7434 100.125C89.6615 100.125 90.4418 100.321 91.0844 100.715C91.7402 101.095 92.2385 101.626 92.5795 102.308C92.9205 102.977 93.091 103.744 93.091 104.61V110.393H90.8483V104.63C90.8483 104.118 90.7238 103.672 90.4746 103.292C90.2385 102.898 89.9238 102.597 89.5303 102.387C89.15 102.164 88.7238 102.053 88.2516 102.053C87.8057 102.053 87.386 102.157 86.9926 102.367C86.5992 102.577 86.2844 102.872 86.0483 103.253C85.8123 103.633 85.6942 104.066 85.6942 104.551V110.393H83.4319ZM97.7908 110.393C97.2531 110.393 96.7613 110.262 96.3154 110C95.8826 109.725 95.535 109.364 95.2727 108.918C95.0104 108.459 94.8793 107.954 94.8793 107.403C94.8793 106.787 95.0104 106.262 95.2727 105.83C95.535 105.384 95.8826 105.049 96.3154 104.826C96.7613 104.59 97.2531 104.472 97.7908 104.472H101.824V103.272C101.824 102.984 101.725 102.748 101.528 102.564C101.332 102.38 101.089 102.289 100.801 102.289H95.8432V100.361H101.017C101.594 100.361 102.106 100.498 102.551 100.774C103.01 101.036 103.371 101.397 103.633 101.856C103.909 102.302 104.047 102.807 104.047 103.371V107.325C104.047 107.889 103.909 108.407 103.633 108.879C103.358 109.338 102.984 109.705 102.512 109.98C102.053 110.256 101.528 110.393 100.938 110.393H97.7908ZM98.3022 108.466H100.722C101.037 108.466 101.299 108.367 101.509 108.171C101.719 107.961 101.824 107.698 101.824 107.384V105.987H98.3219C97.9678 105.987 97.6727 106.112 97.4367 106.361C97.2137 106.597 97.1022 106.879 97.1022 107.207C97.1022 107.416 97.1547 107.62 97.2596 107.816C97.3645 108.013 97.5088 108.171 97.6924 108.289C97.876 108.407 98.0793 108.466 98.3022 108.466ZM106.294 110.393V104.61C106.294 103.744 106.491 102.977 106.884 102.308C107.278 101.626 107.835 101.095 108.556 100.715C109.278 100.321 110.123 100.125 111.094 100.125C112.064 100.125 112.904 100.321 113.612 100.715C114.333 101.095 114.891 101.626 115.284 102.308C115.678 102.977 115.874 103.744 115.874 104.61V110.393H113.632V104.63C113.632 104.118 113.514 103.672 113.278 103.292C113.041 102.898 112.727 102.597 112.333 102.387C111.953 102.164 111.533 102.053 111.074 102.053C110.628 102.053 110.209 102.164 109.815 102.387C109.435 102.597 109.127 102.898 108.891 103.292C108.668 103.672 108.556 104.118 108.556 104.63V110.393H106.294ZM119.71 114.387V112.459H124.746C125.087 112.459 125.35 112.354 125.533 112.144C125.73 111.934 125.828 111.672 125.828 111.357V108.761H125.809C125.52 109.115 125.212 109.423 124.884 109.685C124.556 109.934 124.182 110.131 123.763 110.275C123.356 110.407 122.904 110.472 122.405 110.472C121.487 110.472 120.668 110.256 119.946 109.823C119.225 109.39 118.655 108.787 118.235 108.013C117.828 107.226 117.625 106.328 117.625 105.318C117.625 104.334 117.828 103.456 118.235 102.682C118.655 101.895 119.251 101.272 120.025 100.813C120.799 100.354 121.743 100.125 122.858 100.125C123.92 100.125 124.838 100.348 125.612 100.793C126.399 101.239 127.009 101.869 127.441 102.682C127.874 103.482 128.091 104.42 128.091 105.495V111.456C128.091 112.361 127.828 113.075 127.304 113.6C126.779 114.125 126.064 114.387 125.159 114.387H119.71ZM122.838 108.544C123.441 108.544 123.959 108.407 124.392 108.131C124.838 107.843 125.179 107.462 125.415 106.99C125.664 106.505 125.789 105.967 125.789 105.377C125.789 104.748 125.671 104.184 125.435 103.685C125.199 103.187 124.858 102.793 124.412 102.505C123.979 102.203 123.455 102.053 122.838 102.053C122.235 102.053 121.71 102.203 121.264 102.505C120.832 102.793 120.497 103.187 120.261 103.685C120.025 104.171 119.907 104.721 119.907 105.338C119.907 105.928 120.025 106.466 120.261 106.951C120.497 107.436 120.832 107.823 121.264 108.112C121.71 108.4 122.235 108.544 122.838 108.544ZM135.403 110.393C134.275 110.393 133.285 110.184 132.433 109.764C131.593 109.331 130.938 108.741 130.465 107.993C129.993 107.233 129.757 106.361 129.757 105.377C129.757 104.341 129.967 103.43 130.387 102.643C130.806 101.856 131.383 101.239 132.118 100.793C132.852 100.348 133.698 100.125 134.656 100.125C135.731 100.125 136.616 100.354 137.311 100.813C138.006 101.272 138.518 101.889 138.846 102.662C139.187 103.436 139.357 104.302 139.357 105.259C139.357 105.39 139.351 105.541 139.338 105.712C139.324 105.882 139.305 106.013 139.279 106.105H132.157C132.236 106.63 132.426 107.069 132.728 107.423C133.029 107.764 133.41 108.026 133.869 108.21C134.328 108.38 134.839 108.466 135.403 108.466H138.098V110.393H135.403ZM132.138 104.571H137.095C137.082 104.321 137.042 104.072 136.977 103.823C136.924 103.574 136.833 103.338 136.702 103.115C136.583 102.892 136.426 102.702 136.229 102.544C136.046 102.374 135.823 102.243 135.561 102.151C135.298 102.046 134.997 101.993 134.656 101.993C134.262 101.993 133.915 102.072 133.613 102.23C133.311 102.374 133.056 102.571 132.846 102.82C132.636 103.056 132.472 103.331 132.354 103.646C132.249 103.948 132.177 104.256 132.138 104.571ZM140.998 110.393V103.213C140.998 102.321 141.247 101.626 141.746 101.128C142.257 100.616 142.959 100.361 143.85 100.361H147.706V102.289H144.264C143.949 102.289 143.7 102.38 143.516 102.564C143.346 102.748 143.26 102.997 143.26 103.312V110.393H140.998Z" fill="#989898"/>
</g>
<defs>
<clipPath id="clip0_4542_41441">
<rect width="96.7214" height="18.8525" fill="white" transform="translate(51.6387 97.4099)"/>
</clipPath>
</defs>
</svg>
