<svg width="262" height="64" viewBox="0 0 262 64" fill="none" xmlns="http://www.w3.org/2000/svg">
<rect width="64.0002" height="64.0002" rx="32.0001" fill="#4D7BF1"/>
<path d="M14.9371 21.3335C14.9371 20.4546 15.9406 19.9528 16.6438 20.4802L30.8661 31.1469C31.435 31.5736 31.435 32.4269 30.8661 32.8536L16.6438 43.5203C15.9406 44.0477 14.9371 43.5459 14.9371 42.6669L14.9371 21.3335Z" fill="white"/>
<path d="M49.0706 21.3335C49.0706 20.4546 48.0671 19.9528 47.3639 20.4802L33.1416 31.1469C32.5727 31.5736 32.5727 32.4269 33.1416 32.8536L47.3639 43.5203C48.0671 44.0477 49.0706 43.5459 49.0706 42.6669L49.0706 21.3335Z" fill="white"/>
<g clip-path="url(#clip0_8168_83915)">
<path d="M75.3519 36.7998V6.93303H87.9813C89.9724 6.93303 91.7786 7.38814 93.4 8.29837C95.0497 9.18015 96.3582 10.4317 97.3253 12.053C98.2924 13.6459 98.776 15.4948 98.776 17.5997C98.776 19.6762 98.2924 21.5251 97.3253 23.1464C96.3582 24.7678 95.0497 26.0335 93.4 26.9438C91.7786 27.854 89.9724 28.3091 87.9813 28.3091H81.9653V36.7998H75.3519ZM81.9653 22.6344H87.2133C88.1235 22.6344 88.9484 22.4353 89.688 22.0371C90.456 21.6389 91.0533 21.07 91.48 20.3304C91.9351 19.5624 92.1626 18.6664 92.1626 17.6424C92.1626 16.5615 91.9351 15.6513 91.48 14.9117C91.0533 14.1722 90.456 13.6033 89.688 13.2051C88.9484 12.8068 88.1235 12.6077 87.2133 12.6077H81.9653V22.6344ZM102.26 36.7998V21.2691C102.26 19.3064 102.814 17.7704 103.924 16.6611C105.033 15.5517 106.583 14.9971 108.574 14.9971H114.761V20.1597H109.897C109.499 20.1597 109.157 20.302 108.873 20.5864C108.617 20.8424 108.489 21.1695 108.489 21.5677V36.7998H102.26ZM129.922 36.7998C127.447 36.7998 125.285 36.3305 123.436 35.3918C121.588 34.4531 120.137 33.1589 119.084 31.5091C118.06 29.8593 117.548 27.9962 117.548 25.9198C117.548 23.5589 118.032 21.5251 118.999 19.8184C119.966 18.1117 121.275 16.8033 122.924 15.8931C124.574 14.9544 126.423 14.4851 128.471 14.4851C130.832 14.4851 132.78 14.9828 134.316 15.9784C135.852 16.974 136.99 18.3251 137.73 20.0317C138.498 21.71 138.882 23.6015 138.882 25.7064C138.882 26.0478 138.868 26.4318 138.839 26.8584C138.811 27.2851 138.754 27.6264 138.668 27.8824H124.162C124.361 28.7073 124.716 29.4042 125.228 29.9731C125.74 30.5136 126.395 30.926 127.191 31.2105C127.988 31.4665 128.884 31.5945 129.879 31.5945H136.236V36.7998H129.922ZM124.034 23.8718H132.738C132.709 23.3598 132.624 22.8904 132.482 22.4638C132.34 22.0086 132.14 21.6104 131.884 21.2691C131.657 20.8993 131.372 20.5864 131.031 20.3304C130.718 20.0744 130.334 19.8895 129.879 19.7757C129.452 19.6335 128.983 19.5624 128.471 19.5624C127.788 19.5624 127.177 19.6904 126.636 19.9464C126.124 20.174 125.684 20.4869 125.314 20.8851C124.972 21.2833 124.688 21.7384 124.46 22.2504C124.261 22.7624 124.119 23.3029 124.034 23.8718ZM142.014 36.7998V23.8718C142.014 22.1366 142.426 20.558 143.251 19.1357C144.104 17.6851 145.299 16.5473 146.835 15.7224C148.4 14.8975 150.277 14.4851 152.467 14.4851C153.52 14.4851 154.501 14.5988 155.411 14.8264C156.321 15.0539 157.161 15.3953 157.929 15.8504C158.697 16.2771 159.351 16.7891 159.891 17.3864H159.977C160.545 16.7891 161.214 16.2771 161.982 15.8504C162.75 15.3953 163.589 15.0539 164.499 14.8264C165.409 14.5988 166.391 14.4851 167.443 14.4851C169.633 14.4851 171.511 14.8975 173.075 15.7224C174.64 16.5473 175.834 17.6851 176.659 19.1357C177.484 20.558 177.897 22.1366 177.897 23.8718V36.7998H171.667V23.9571C171.667 23.2175 171.468 22.5349 171.07 21.9091C170.7 21.2833 170.188 20.7855 169.534 20.4157C168.908 20.046 168.197 19.8611 167.401 19.8611C166.604 19.8611 165.879 20.046 165.225 20.4157C164.57 20.7855 164.044 21.2833 163.646 21.9091C163.276 22.5349 163.091 23.2175 163.091 23.9571V36.7998H156.862V23.9571C156.862 23.2175 156.663 22.5349 156.265 21.9091C155.895 21.2833 155.383 20.7855 154.729 20.4157C154.103 20.046 153.377 19.8611 152.553 19.8611C151.756 19.8611 151.031 20.046 150.377 20.4157C149.722 20.7855 149.196 21.2833 148.798 21.9091C148.428 22.5349 148.243 23.2175 148.243 23.9571V36.7998H142.014ZM182.976 36.7998V16.3598H188.856V36.7998H182.976ZM185.936 13.9598C184.976 13.9598 184.136 13.6131 183.416 12.9198C182.723 12.1998 182.376 11.3598 182.376 10.3998C182.376 9.4398 182.723 8.61314 183.416 7.9198C184.136 7.1998 184.976 6.8398 185.936 6.8398C186.896 6.8398 187.723 7.1998 188.416 7.9198C189.136 8.61314 189.496 9.4398 189.496 10.3998C189.496 11.3598 189.136 12.1998 188.416 12.9198C187.723 13.6131 186.896 13.9598 185.936 13.9598ZM204.676 37.3118C202.457 37.3118 200.537 36.8709 198.916 35.9891C197.294 35.1074 196.043 33.9269 195.161 32.4478C194.308 30.9687 193.881 29.3331 193.881 27.5411V14.9971H200.11V27.4558C200.11 28.2522 200.31 29.006 200.708 29.7171C201.106 30.3998 201.647 30.9402 202.329 31.3385C203.04 31.7367 203.808 31.9358 204.633 31.9358C205.487 31.9358 206.255 31.7367 206.937 31.3385C207.62 30.9402 208.16 30.3998 208.559 29.7171C208.957 29.006 209.156 28.2522 209.156 27.4558V14.9971H215.385V27.5411C215.385 29.3331 214.959 30.9687 214.105 32.4478C213.252 33.9269 212.029 35.1074 210.436 35.9891C208.843 36.8709 206.923 37.3118 204.676 37.3118ZM220.59 36.7998V23.8718C220.59 22.1366 221.002 20.558 221.827 19.1357C222.68 17.6851 223.875 16.5473 225.411 15.7224C226.975 14.8975 228.853 14.4851 231.043 14.4851C232.095 14.4851 233.077 14.5988 233.987 14.8264C234.897 15.0539 235.736 15.3953 236.504 15.8504C237.272 16.2771 237.927 16.7891 238.467 17.3864H238.552C239.121 16.7891 239.79 16.2771 240.558 15.8504C241.326 15.3953 242.165 15.0539 243.075 14.8264C243.985 14.5988 244.967 14.4851 246.019 14.4851C248.209 14.4851 250.087 14.8975 251.651 15.7224C253.215 16.5473 254.41 17.6851 255.235 19.1357C256.06 20.558 256.472 22.1366 256.472 23.8718V36.7998H250.243V23.9571C250.243 23.2175 250.044 22.5349 249.646 21.9091C249.276 21.2833 248.764 20.7855 248.11 20.4157C247.484 20.046 246.773 19.8611 245.976 19.8611C245.18 19.8611 244.455 20.046 243.8 20.4157C243.146 20.7855 242.62 21.2833 242.222 21.9091C241.852 22.5349 241.667 23.2175 241.667 23.9571V36.7998H235.438V23.9571C235.438 23.2175 235.239 22.5349 234.84 21.9091C234.471 21.2833 233.959 20.7855 233.304 20.4157C232.679 20.046 231.953 19.8611 231.128 19.8611C230.332 19.8611 229.606 20.046 228.952 20.4157C228.298 20.7855 227.772 21.2833 227.374 21.9091C227.004 22.5349 226.819 23.2175 226.819 23.9571V36.7998H220.59Z" fill="#4D7BF1"/>
</g>
<g clip-path="url(#clip1_8168_83915)">
<path d="M82.5072 56.2002C81.0394 56.2002 79.7509 55.9271 78.6415 55.381C77.5493 54.8178 76.6959 54.0498 76.0815 53.077C75.4671 52.0871 75.1599 50.9522 75.1599 49.6722C75.1599 48.3239 75.433 47.1378 75.9791 46.1138C76.5253 45.0898 77.2762 44.2876 78.2319 43.7073C79.1877 43.1271 80.2885 42.8369 81.5344 42.8369C82.9338 42.8369 84.0858 43.1356 84.9904 43.7329C85.8949 44.3303 86.5605 45.1324 86.9872 46.1394C87.4309 47.1463 87.6528 48.2727 87.6528 49.5186C87.6528 49.6892 87.6442 49.8855 87.6272 50.1074C87.6101 50.3292 87.5845 50.4999 87.5504 50.6194H78.2831C78.3855 51.302 78.633 51.8738 79.0255 52.3346C79.4181 52.7783 79.913 53.1197 80.5103 53.3586C81.1077 53.5805 81.7733 53.6914 82.5072 53.6914H86.0144V56.2002H82.5072ZM78.2575 48.6226H84.7088C84.6917 48.2983 84.6405 47.974 84.5552 47.6498C84.4869 47.3255 84.3674 47.0183 84.1968 46.7282C84.0432 46.438 83.8384 46.1906 83.5824 45.9858C83.3434 45.7639 83.0533 45.5932 82.712 45.4738C82.3706 45.3372 81.9781 45.269 81.5344 45.269C81.0224 45.269 80.5701 45.3714 80.1775 45.5762C79.785 45.7639 79.4522 46.0199 79.1791 46.3442C78.9061 46.6514 78.6927 47.0098 78.5391 47.4194C78.4026 47.8119 78.3087 48.213 78.2575 48.6226ZM88.4312 56.2002L92.6296 49.3906L88.7896 43.1441H92.1944L95.2152 48.3666H96.2904L99.2856 43.1441H102.639L98.7736 49.3906L102.972 56.2002H99.516L96.4184 50.8754H94.9592L91.836 56.2002H88.4312ZM110.826 56.2002C109.478 56.2002 108.275 55.9101 107.216 55.3298C106.158 54.7495 105.322 53.973 104.708 53.0002C104.093 52.0103 103.786 50.901 103.786 49.6722C103.786 48.4434 104.093 47.3426 104.708 46.3698C105.322 45.3799 106.158 44.5948 107.216 44.0146C108.275 43.4343 109.478 43.1441 110.826 43.1441H112.413V45.653H110.775C109.99 45.653 109.29 45.8322 108.676 46.1906C108.078 46.5319 107.609 47.0098 107.268 47.6242C106.926 48.2386 106.756 48.9212 106.756 49.6722C106.756 50.4231 106.926 51.1058 107.268 51.7202C107.609 52.3346 108.078 52.821 108.676 53.1794C109.29 53.5207 109.99 53.6914 110.775 53.6914H112.413V56.2002H110.826ZM114.978 56.2002V37.5121H117.922V44.4498C118.452 43.8865 119.066 43.4769 119.766 43.2209C120.465 42.9649 121.174 42.8369 121.891 42.8369C123.085 42.8369 124.101 43.0929 124.937 43.6049C125.79 44.0999 126.439 44.7911 126.883 45.6786C127.326 46.549 127.548 47.5474 127.548 48.6738V56.2002H124.63V48.6994C124.63 48.0338 124.468 47.4535 124.143 46.9586C123.836 46.4466 123.427 46.054 122.915 45.781C122.42 45.4908 121.865 45.3458 121.251 45.3458C120.67 45.3458 120.124 45.4823 119.612 45.7554C119.1 46.0284 118.69 46.4124 118.383 46.9074C118.076 47.4023 117.922 47.9655 117.922 48.597V56.2002H114.978ZM133.664 56.2002C132.964 56.2002 132.324 56.0295 131.744 55.6882C131.181 55.3298 130.729 54.8605 130.387 54.2802C130.046 53.6829 129.875 53.0258 129.875 52.309C129.875 51.5068 130.046 50.8242 130.387 50.261C130.729 49.6807 131.181 49.2455 131.744 48.9554C132.324 48.6482 132.964 48.4946 133.664 48.4946H138.912V46.933C138.912 46.5575 138.784 46.2503 138.528 46.0114C138.272 45.7724 137.956 45.653 137.581 45.653H131.13V43.1441H137.863C138.613 43.1441 139.279 43.3233 139.859 43.6817C140.457 44.0231 140.926 44.4924 141.267 45.0898C141.626 45.67 141.805 46.3271 141.805 47.061V52.2066C141.805 52.9404 141.626 53.6146 141.267 54.229C140.909 54.8263 140.423 55.3042 139.808 55.6626C139.211 56.021 138.528 56.2002 137.76 56.2002H133.664ZM134.33 53.6914H137.479C137.888 53.6914 138.229 53.5634 138.503 53.3074C138.776 53.0343 138.912 52.693 138.912 52.2834V50.4658H134.355C133.895 50.4658 133.511 50.6279 133.203 50.9522C132.913 51.2594 132.768 51.6263 132.768 52.053C132.768 52.326 132.836 52.5906 132.973 52.8466C133.109 53.1026 133.297 53.3074 133.536 53.461C133.775 53.6146 134.04 53.6914 134.33 53.6914ZM144.73 56.2002V48.6738C144.73 47.5474 144.986 46.549 145.498 45.6786C146.01 44.7911 146.735 44.0999 147.674 43.6049C148.612 43.0929 149.713 42.8369 150.976 42.8369C152.239 42.8369 153.331 43.0929 154.253 43.6049C155.191 44.0999 155.917 44.7911 156.429 45.6786C156.941 46.549 157.197 47.5474 157.197 48.6738V56.2002H154.278V48.6994C154.278 48.0338 154.125 47.4535 153.818 46.9586C153.51 46.4466 153.101 46.054 152.589 45.781C152.094 45.4908 151.548 45.3458 150.95 45.3458C150.37 45.3458 149.824 45.4908 149.312 45.781C148.817 46.054 148.416 46.4466 148.109 46.9586C147.819 47.4535 147.674 48.0338 147.674 48.6994V56.2002H144.73ZM162.189 61.397V58.8882H168.742C169.186 58.8882 169.528 58.7517 169.766 58.4786C170.022 58.2055 170.15 57.8642 170.15 57.4546V54.0754H170.125C169.749 54.5362 169.348 54.9373 168.922 55.2786C168.495 55.6029 168.009 55.8589 167.462 56.0466C166.933 56.2173 166.345 56.3026 165.696 56.3026C164.501 56.3026 163.435 56.021 162.496 55.4578C161.557 54.8946 160.815 54.1095 160.269 53.1026C159.74 52.0786 159.475 50.9095 159.475 49.5954C159.475 48.3154 159.74 47.1719 160.269 46.165C160.815 45.141 161.592 44.3303 162.598 43.7329C163.605 43.1356 164.834 42.8369 166.285 42.8369C167.667 42.8369 168.862 43.1271 169.869 43.7073C170.893 44.2876 171.686 45.1068 172.25 46.165C172.813 47.206 173.094 48.4263 173.094 49.8258V57.5826C173.094 58.7602 172.753 59.6903 172.07 60.373C171.388 61.0557 170.458 61.397 169.28 61.397H162.189ZM166.259 53.7938C167.044 53.7938 167.718 53.6146 168.282 53.2562C168.862 52.8807 169.306 52.3858 169.613 51.7714C169.937 51.1399 170.099 50.4402 170.099 49.6722C170.099 48.853 169.946 48.1191 169.638 47.4706C169.331 46.822 168.888 46.31 168.307 45.9346C167.744 45.542 167.061 45.3458 166.259 45.3458C165.474 45.3458 164.792 45.542 164.211 45.9346C163.648 46.31 163.213 46.822 162.906 47.4706C162.598 48.102 162.445 48.8188 162.445 49.621C162.445 50.389 162.598 51.0887 162.906 51.7202C163.213 52.3516 163.648 52.8551 164.211 53.2306C164.792 53.6061 165.474 53.7938 166.259 53.7938ZM182.611 56.2002C181.143 56.2002 179.854 55.9271 178.745 55.381C177.653 54.8178 176.799 54.0498 176.185 53.077C175.571 52.0871 175.263 50.9522 175.263 49.6722C175.263 48.3239 175.536 47.1378 176.083 46.1138C176.629 45.0898 177.38 44.2876 178.335 43.7073C179.291 43.1271 180.392 42.8369 181.638 42.8369C183.037 42.8369 184.189 43.1356 185.094 43.7329C185.998 44.3303 186.664 45.1324 187.091 46.1394C187.534 47.1463 187.756 48.2727 187.756 49.5186C187.756 49.6892 187.748 49.8855 187.731 50.1074C187.713 50.3292 187.688 50.4999 187.654 50.6194H178.387C178.489 51.302 178.736 51.8738 179.129 52.3346C179.521 52.7783 180.016 53.1197 180.614 53.3586C181.211 53.5805 181.877 53.6914 182.611 53.6914H186.118V56.2002H182.611ZM178.361 48.6226H184.812C184.795 48.2983 184.744 47.974 184.659 47.6498C184.59 47.3255 184.471 47.0183 184.3 46.7282C184.147 46.438 183.942 46.1906 183.686 45.9858C183.447 45.7639 183.157 45.5932 182.815 45.4738C182.474 45.3372 182.081 45.269 181.638 45.269C181.126 45.269 180.673 45.3714 180.281 45.5762C179.888 45.7639 179.556 46.0199 179.283 46.3442C179.009 46.6514 178.796 47.0098 178.643 47.4194C178.506 47.8119 178.412 48.213 178.361 48.6226ZM189.891 56.2002V46.8562C189.891 45.6956 190.216 44.7911 190.864 44.1426C191.53 43.4769 192.443 43.1441 193.603 43.1441H198.621V45.653H194.141C193.731 45.653 193.407 45.7724 193.168 46.0114C192.946 46.2503 192.835 46.5746 192.835 46.9842V56.2002H189.891Z" fill="#989898"/>
</g>
<defs>
<clipPath id="clip0_8168_83915">
<rect width="188.801" height="36.2668" fill="white" transform="translate(72.5336 2.66699)"/>
</clipPath>
<clipPath id="clip1_8168_83915">
<rect width="187.734" height="22.4001" fill="white" transform="translate(72.5336 38.9336)"/>
</clipPath>
</defs>
</svg>
