<svg width="50" height="50" viewBox="0 0 50 50" fill="none" xmlns="http://www.w3.org/2000/svg">
<rect width="50" height="50" rx="25" fill="#4D7BF1"/>
<mask id="mask0_7990_69666" style="mask-type:alpha" maskUnits="userSpaceOnUse" x="9" y="9" width="32" height="32">
<rect width="32" height="32" transform="matrix(-1 0 0 1 41 9)" fill="#D9D9D9"/>
</mask>
<g mask="url(#mask0_7990_69666)">
<path d="M36.8633 36.1143V15.1175C36.8633 14.5514 36.6701 14.0752 36.2838 13.6888C35.8975 13.3025 35.4219 13.1094 34.8571 13.1094H15.1413C14.5765 13.1094 14.101 13.3025 13.7146 13.6888C13.3283 14.0752 13.1351 14.5508 13.1351 15.1158V30.0849C13.1351 30.6499 13.3283 31.1255 13.7146 31.5118C14.101 31.8982 14.5765 32.0913 15.1413 32.0913H32.8402L36.8633 36.1143ZM28.3338 27.308L24.9984 25.3272L21.6582 27.308L22.571 23.5888L19.6377 21.0862L23.4851 20.7309L24.9992 17.2465L26.5115 20.7309L30.3543 21.0862L27.4274 23.5888L28.3338 27.308Z" fill="white"/>
</g>
</svg>
