<svg width="250" height="250" viewBox="0 0 250 250" fill="none" xmlns="http://www.w3.org/2000/svg">
<circle cx="125.5" cy="125.5" r="74.5" fill="white"/>
<path d="M135.909 127.273C132.364 127.455 128.727 127.545 125 127.545C121.273 127.545 117.636 127.455 114.091 127.273V115.364C94.5455 116.364 79.0909 120.182 74.8182 124.909C79.8182 130.545 100.364 134.727 125 134.727C149.636 134.727 170.182 130.545 175.182 124.909C170.909 120.182 155.455 116.364 135.909 115.364V127.273Z" fill="#4D7BF1"/>
<path d="M125 25C69.7273 25 25 69.7273 25 125C25 180.273 69.7273 225 125 225C180.273 225 225 180.273 225 125C225 69.7273 180.273 25 125 25ZM176.364 131.182C176.182 137.091 158.909 142.091 135.909 143.273V171.182H114.091V143.273C91.0909 142.091 73.7273 137.091 73.6364 131.182V118.727C73.6364 112.727 91.0909 107.727 114.091 106.545V95.1818H81.2727V78.8182H168.727V95.1818H135.909V106.545C158.909 107.727 176.182 112.727 176.364 118.727V131.182Z" fill="#4D7BF1"/>
</svg>
