<svg width="24" height="24" viewBox="0 0 24 24" fill="none" xmlns="http://www.w3.org/2000/svg">
<g id="refresh">
<mask id="mask0_4499_16824" style="mask-type:alpha" maskUnits="userSpaceOnUse" x="0" y="0" width="24" height="24">
<rect id="Bounding box" width="24" height="24" fill="#D9D9D9"/>
</mask>
<g mask="url(#mask0_4499_16824)">
<path id="refresh_2" d="M11.9374 20.5124C9.57767 20.5124 7.56719 19.6814 5.90594 18.0195C4.24469 16.3576 3.41406 14.3524 3.41406 12.004C3.41406 9.65564 4.24469 7.64494 5.90594 5.97193C7.56719 4.29891 9.57823 3.4624 11.9391 3.4624C13.4391 3.4624 14.7653 3.76634 15.9177 4.37423C17.0701 4.98209 18.0605 5.83649 18.8891 6.9374V3.4624H20.6266V10.5999H13.4641V8.8874H17.5016C16.851 7.95352 16.0716 7.20129 15.1631 6.63073C14.2547 6.06018 13.1804 5.7749 11.94 5.7749C10.1936 5.7749 8.71719 6.37748 7.51094 7.58263C6.30469 8.78778 5.70156 10.2607 5.70156 12.0014C5.70156 13.7421 6.30371 15.2145 7.50801 16.4187C8.71233 17.6228 10.1882 18.2249 11.9355 18.2249C13.2234 18.2249 14.4168 17.8541 15.5157 17.1124C16.6146 16.3707 17.399 15.3874 17.8688 14.1624H20.2266C19.7349 16.0457 18.7203 17.5749 17.1829 18.7499C15.6455 19.9249 13.897 20.5124 11.9374 20.5124Z" fill="#4D7BF1"/>
</g>
</g>
</svg>
