<svg width="52" height="53" viewBox="0 0 52 53" fill="none" xmlns="http://www.w3.org/2000/svg">
<mask id="mask0_4528_88967" style="mask-type:alpha" maskUnits="userSpaceOnUse" x="0" y="0" width="52" height="53">
<rect y="0.5" width="52" height="52" fill="#D9D9D9"/>
</mask>
<g mask="url(#mask0_4528_88967)">
<path d="M12.3982 38.065C14.6411 36.5664 16.8413 35.4199 18.999 34.6255C21.1566 33.831 23.4981 33.4338 26.0236 33.4338C28.549 33.4338 30.9038 33.8449 33.0879 34.6671C35.2721 35.4892 37.4685 36.6219 39.6771 38.065C41.2118 36.0609 42.2816 34.1541 42.8865 32.3447C43.4913 30.5354 43.7937 28.5891 43.7937 26.5059C43.7937 21.4739 42.0861 17.2494 38.6709 13.8323C35.2557 10.4152 31.0352 8.70671 26.0094 8.70671C20.9837 8.70671 16.7601 10.4152 13.3385 13.8323C9.91701 17.2494 8.20625 21.4739 8.20625 26.5059C8.20625 28.586 8.50917 30.5264 9.115 32.3271C9.72084 34.1278 10.8152 36.0404 12.3982 38.065ZM25.9929 28.4505C23.8072 28.4505 21.9801 27.7123 20.5113 26.2361C19.0427 24.7598 18.3083 22.9408 18.3083 20.7788C18.3083 18.6168 19.045 16.7911 20.5184 15.3015C21.9918 13.8119 23.8214 13.0671 26.0071 13.0671C28.1928 13.0671 30.0199 13.8143 31.4887 15.3086C32.9573 16.8029 33.6917 18.631 33.6917 20.793C33.6917 22.9549 32.955 24.7716 31.4816 26.2432C30.0082 27.7147 28.1786 28.4505 25.9929 28.4505ZM25.9802 49.2505C22.8912 49.2505 19.9646 48.6536 17.2005 47.46C14.4363 46.2663 12.0169 44.6309 9.94251 42.5538C7.86811 40.4766 6.23408 38.0613 5.04042 35.3078C3.84681 32.5543 3.25 29.6122 3.25 26.4816C3.25 23.41 3.85058 20.4856 5.05175 17.7084C6.25291 14.9311 7.88694 12.5108 9.95383 10.4475C12.0207 8.3842 14.4318 6.74316 17.187 5.52441C19.9423 4.30566 22.8862 3.69629 26.0189 3.69629C29.0904 3.69629 32.0148 4.3059 34.7921 5.52512C37.5693 6.74434 39.9896 8.38739 42.0529 10.4543C44.1163 12.5212 45.7573 14.9441 46.976 17.7229C48.1948 20.5017 48.8042 23.4342 48.8042 26.5202C48.8042 29.6092 48.1946 32.5379 46.9753 35.3061C45.7561 38.0743 44.1131 40.4901 42.0462 42.5534C39.9793 44.6167 37.5564 46.2487 34.7775 47.4494C31.9987 48.6501 29.0663 49.2505 25.9802 49.2505ZM25.9984 44.2942C27.8592 44.2942 29.6337 44.0459 31.3219 43.5494C33.0101 43.0529 34.7931 42.1366 36.6708 40.8005C34.7569 39.5366 32.9653 38.6112 31.2959 38.0244C29.6265 37.4376 27.8623 37.1442 26.0032 37.1442C24.1442 37.1442 22.3834 37.4331 20.7209 38.0109C19.0584 38.5887 17.2792 39.5185 15.3833 40.8005C17.2611 42.1366 19.0345 43.0529 20.7036 43.5494C22.3726 44.0459 24.1376 44.2942 25.9984 44.2942ZM26 24.6859C27.1327 24.6859 28.0704 24.3248 28.813 23.6025C29.5557 22.8803 29.9271 21.9414 29.9271 20.7859C29.9271 19.6303 29.5557 18.6824 28.813 17.9421C28.0704 17.2018 27.1327 16.8317 26 16.8317C24.8673 16.8317 23.9296 17.2018 23.187 17.9421C22.4443 18.6824 22.0729 19.6303 22.0729 20.7859C22.0729 21.9414 22.4443 22.8803 23.187 23.6025C23.9296 24.3248 24.8673 24.6859 26 24.6859Z" fill="#0157E2"/>
</g>
</svg>
