<svg width="326" height="56" viewBox="0 0 326 56" fill="none" xmlns="http://www.w3.org/2000/svg">
<path d="M161.333 24L165.866 33.7609L176.55 35.0557L168.668 42.3831L170.738 52.9443L161.333 47.712L151.929 52.9443L153.999 42.3831L146.116 35.0557L156.8 33.7609L161.333 24Z" fill="#F2BC32"/>
<path d="M198.333 24L202.866 33.7609L213.55 35.0557L205.668 42.3831L207.738 52.9443L198.333 47.712L188.929 52.9443L190.999 42.3831L183.116 35.0557L193.8 33.7609L198.333 24Z" fill="#F2BC32"/>
<path d="M235.333 24L239.866 33.7609L250.55 35.0557L242.668 42.3831L244.738 52.9443L235.333 47.712L225.929 52.9443L227.999 42.3831L220.116 35.0557L230.8 33.7609L235.333 24Z" fill="#F2BC32"/>
<path d="M272.333 24L276.866 33.7609L287.55 35.0557L279.668 42.3831L281.738 52.9443L272.333 47.712L262.929 52.9443L264.999 42.3831L257.116 35.0557L267.8 33.7609L272.333 24Z" fill="#F2BC32"/>
<path d="M309.333 24L313.866 33.7609L324.55 35.0557L316.668 42.3831L318.738 52.9443L309.333 47.712L299.929 52.9443L301.999 42.3831L294.116 35.0557L304.8 33.7609L309.333 24Z" fill="#F2BC32"/>
</svg>
