<svg width="80" height="80" viewBox="0 0 80 80" fill="none" xmlns="http://www.w3.org/2000/svg">
<g id="search_off">
<mask id="mask0_4542_19102" style="mask-type:alpha" maskUnits="userSpaceOnUse" x="0" y="0" width="80" height="80">
<rect id="Bounding box" width="80" height="80" fill="#D9D9D9"/>
</mask>
<g mask="url(#mask0_4542_19102)">
<path id="search_off_2" d="M22.4948 72.875C18.2448 72.875 14.592 71.3472 11.5365 68.2917C8.4809 65.2361 6.95312 61.5833 6.95312 57.3333C6.95312 53.0833 8.4809 49.4306 11.5365 46.375C14.592 43.3194 18.2448 41.7917 22.4948 41.7917C26.7448 41.7917 30.3976 43.3194 33.4531 46.375C36.5087 49.4306 38.0365 53.0833 38.0365 57.3333C38.0365 61.5833 36.5087 65.2361 33.4531 68.2917C30.3976 71.3472 26.7448 72.875 22.4948 72.875ZM69.8281 71.9167L47.9115 50C46.9115 50.8889 45.7587 51.7014 44.4531 52.4375C43.1476 53.1736 41.9115 53.7917 40.7448 54.2917C40.717 52.4583 40.5642 50.8403 40.2865 49.4375C40.0087 48.0347 39.6198 46.7917 39.1198 45.7083C42.092 44.6806 44.5642 42.9236 46.5365 40.4375C48.5087 37.9514 49.4948 34.9167 49.4948 31.3333C49.4948 27.1667 48.0781 23.6528 45.2448 20.7917C42.4115 17.9306 38.9115 16.5 34.7448 16.5C30.6059 16.5 27.0851 17.9306 24.1823 20.7917C21.2795 23.6528 19.8281 27.1667 19.8281 31.3333C19.8281 32.3056 19.9115 33.3472 20.0781 34.4583C20.2448 35.5694 20.5087 36.4306 20.8698 37.0417C19.7031 37.1528 18.4392 37.4028 17.0781 37.7917C15.717 38.1806 14.5365 38.6528 13.5365 39.2083C13.0642 38.0972 12.724 36.8125 12.5156 35.3542C12.3073 33.8958 12.2031 32.5556 12.2031 31.3333C12.2031 25.0833 14.3976 19.7778 18.7865 15.4167C23.1753 11.0556 28.4948 8.875 34.7448 8.875C40.9392 8.875 46.217 11.0694 50.5781 15.4583C54.9392 19.8472 57.1198 25.1389 57.1198 31.3333C57.1198 33.7222 56.7517 36.0694 56.0156 38.375C55.2795 40.6806 54.2726 42.6389 52.9948 44.25L75.3698 66.375L69.8281 71.9167ZM19.6615 66.4167L24.4115 61.5833L27.2031 64.375L31.3698 60.1667L26.6198 55.5L29.6198 52.5L25.4531 48.2917L20.6198 53.125L17.6615 50.2083L13.4948 54.375L18.4115 59.2083L15.4531 62.1667L19.6615 66.4167Z" fill="#4D7BF1"/>
</g>
</g>
</svg>
