<svg width="40" height="40" viewBox="0 0 40 40" fill="none" xmlns="http://www.w3.org/2000/svg">
<g id="search">
<mask id="mask0_4683_102703" style="mask-type:alpha" maskUnits="userSpaceOnUse" x="0" y="0" width="40" height="40">
<rect id="Bounding box" width="40" height="40" fill="#D9D9D9"/>
</mask>
<g mask="url(#mask0_4683_102703)">
<path id="search_2" d="M33.0236 35.9373L21.8995 24.854C21.1072 25.5046 20.1631 26.0041 19.067 26.3524C17.9709 26.7007 16.7989 26.8748 15.551 26.8748C12.391 26.8748 9.71448 25.7779 7.52148 23.5841C5.32845 21.3903 4.23193 18.7445 4.23193 15.6466C4.23193 12.5488 5.32504 9.90262 7.51127 7.70817C9.69749 5.51373 12.3503 4.4165 15.4696 4.4165C18.5889 4.4165 21.2389 5.51382 23.4194 7.70846C25.6 9.90307 26.6903 12.552 26.6903 15.6552C26.6903 16.885 26.5167 18.0311 26.1694 19.0936C25.8222 20.1561 25.3083 21.1563 24.6278 22.0943L35.7944 33.1665L33.0236 35.9373ZM15.5175 23.0623C17.5841 23.0623 19.3274 22.3428 20.7476 20.9036C22.1677 19.4645 22.8778 17.711 22.8778 15.6432C22.8778 13.5754 22.1657 11.8228 20.7414 10.3853C19.3172 8.94775 17.5724 8.229 15.5071 8.229C13.4186 8.229 11.6527 8.94857 10.2093 10.3877C8.76607 11.8269 8.04443 13.5803 8.04443 15.6481C8.04443 17.7159 8.76461 19.4686 10.205 20.9061C11.6453 22.3436 13.4162 23.0623 15.5175 23.0623Z" fill="#4D7BF1"/>
</g>
</g>
</svg>
