<svg width="24" height="24" viewBox="0 0 24 24" fill="none" xmlns="http://www.w3.org/2000/svg">
<g id="settings">
<mask id="mask0_4804_94851" style="mask-type:alpha" maskUnits="userSpaceOnUse" x="0" y="0" width="24" height="24">
<rect id="Bounding box" width="24" height="24" fill="#D9D9D9"/>
</mask>
<g mask="url(#mask0_4804_94851)">
<path id="settings_2" d="M9.225 22.5004L8.7 19.1879C8.575 19.1629 8.36875 19.0691 8.08125 18.9066C7.79375 18.7441 7.50833 18.5671 7.225 18.3754L4.15 19.8004L1.3125 14.7754L4.1375 12.7254C4.12083 12.6258 4.10833 12.5092 4.1 12.3757C4.09167 12.2422 4.0875 12.1171 4.0875 12.0004C4.0875 11.9087 4.09167 11.79 4.1 11.6441C4.10833 11.4983 4.12083 11.3671 4.1375 11.2504L1.3125 9.17539L4.15 4.21289L7.3 5.62539C7.45 5.50039 7.66042 5.36081 7.93125 5.20664C8.20208 5.05247 8.45833 4.93789 8.7 4.86289L9.225 1.46289H14.7875L15.3125 4.82539C15.5292 4.90872 15.7771 5.02539 16.0563 5.17539C16.3354 5.32539 16.5667 5.47539 16.75 5.62539L19.8875 4.21289L22.7 9.17539L19.8125 11.2264C19.8208 11.3424 19.8354 11.4691 19.8563 11.6066C19.8771 11.7441 19.8875 11.8754 19.8875 12.0004C19.8875 12.1254 19.8771 12.2539 19.8563 12.386C19.8354 12.5181 19.8208 12.6402 19.8125 12.7524L22.6875 14.7754L19.85 19.8004L16.725 18.3629C16.5588 18.5106 16.3485 18.6621 16.0941 18.8174C15.8397 18.9727 15.5792 19.0962 15.3125 19.1879L14.7875 22.5004H9.225ZM11.9308 15.1879C12.8109 15.1879 13.5612 14.8773 14.1817 14.256C14.8022 13.6347 15.1125 12.8827 15.1125 11.9998C15.1125 11.1168 14.8019 10.365 14.1808 9.74414C13.5597 9.12331 12.8077 8.81289 11.925 8.81289C11.0333 8.81289 10.2792 9.12352 9.6625 9.74477C9.04583 10.366 8.7375 11.1181 8.7375 12.001C8.7375 12.8839 9.04583 13.6358 9.6625 14.2566C10.2792 14.8775 11.0353 15.1879 11.9308 15.1879ZM11.925 13.7504C11.4167 13.7504 10.9979 13.5796 10.6687 13.2379C10.3396 12.8962 10.175 12.4837 10.175 12.0004C10.175 11.5171 10.3396 11.1046 10.6687 10.7629C10.9979 10.4212 11.4167 10.2504 11.925 10.2504C12.4083 10.2504 12.8208 10.4212 13.1625 10.7629C13.5042 11.1046 13.675 11.5171 13.675 12.0004C13.675 12.4837 13.5042 12.8962 13.1625 13.2379C12.8208 13.5796 12.4083 13.7504 11.925 13.7504ZM11.1087 20.2129H12.8609L13.25 17.4254C13.8097 17.291 14.3396 17.0873 14.8396 16.8143C15.3396 16.5414 15.7889 16.1784 16.1875 15.7254L18.85 16.8879L19.6125 15.4315L17.3 13.7504C17.3583 13.4504 17.4146 13.157 17.4688 12.8702C17.5229 12.5833 17.55 12.2924 17.55 11.9974C17.55 11.6994 17.5292 11.4087 17.4875 11.1254C17.4458 10.8421 17.3833 10.5504 17.3 10.2504L19.6375 8.56289L18.8625 7.10039L16.2125 8.26289C15.8375 7.81289 15.3938 7.42956 14.8813 7.11289C14.3688 6.79622 13.825 6.60456 13.25 6.53789L12.9 3.77539H11.1L10.7875 6.53876C10.1708 6.64651 9.6125 6.84622 9.1125 7.13789C8.6125 7.42956 8.15417 7.80456 7.7375 8.26289L5.15 7.10039L4.35 8.56289L6.625 10.2004C6.55833 10.5087 6.5 10.8114 6.45 11.1084C6.4 11.4053 6.375 11.6983 6.375 11.9871C6.375 12.2876 6.39792 12.59 6.44375 12.8941C6.48958 13.1983 6.54583 13.4962 6.6125 13.7879L4.35 15.4254L5.14647 16.8879L7.7375 15.7379C8.1625 16.1796 8.63125 16.5441 9.14375 16.8316C9.65625 17.1191 10.2042 17.3296 10.7875 17.4629L11.1087 20.2129Z" fill="#4D7BF1"/>
</g>
</g>
</svg>
