<svg width="20" height="20" viewBox="0 0 20 20" fill="none" xmlns="http://www.w3.org/2000/svg">
<g id="Skype">
<path id="Subtract" fill-rule="evenodd" clip-rule="evenodd" d="M6.23574 0.833008C7.25231 0.833008 8.23934 1.11597 9.08886 1.63772C9.39127 1.6057 9.69577 1.58956 10.0011 1.58956C11.1247 1.58956 12.2374 1.80813 13.2755 2.23277C14.3136 2.65741 15.2568 3.27982 16.0514 4.06446C16.8459 4.8491 17.4761 5.78061 17.9061 6.80579C18.3361 7.83097 18.5575 8.92975 18.5575 10.0394C18.5575 10.4337 18.5295 10.8267 18.4742 11.2155C18.5791 11.4 18.6731 11.5909 18.7555 11.7872C19.027 12.4347 19.1668 13.1287 19.1668 13.8295C19.1668 14.5304 19.027 15.2243 18.7555 15.8718C18.4839 16.5193 18.0858 17.1076 17.584 17.6032C17.0822 18.0988 16.4864 18.4919 15.8308 18.7601C15.1751 19.0283 14.4724 19.1663 13.7627 19.1663C12.7906 19.1663 11.8455 18.9077 11.0217 18.4289C10.6837 18.469 10.3429 18.4892 10.0011 18.4892C8.87745 18.4892 7.76481 18.2707 6.7267 17.846C5.68859 17.4214 4.74535 16.799 3.95081 16.0143C3.15628 15.2297 2.52602 14.2982 2.09603 13.273C1.66603 12.2478 1.44471 11.149 1.44471 10.0394C1.44471 9.62391 1.47574 9.20995 1.53713 8.8008C1.07993 8.005 0.833496 7.09905 0.833496 6.16801C0.833496 4.75308 1.40266 3.3961 2.41578 2.39559C3.42889 1.39509 4.80297 0.833008 6.23574 0.833008ZM6.75197 8.86484C6.96078 9.21899 7.24931 9.52057 7.59509 9.74606C8.05321 10.0431 8.54022 10.2939 9.0488 10.4947C9.61746 10.7302 10.0587 10.9298 10.3724 11.0936C10.6377 11.2228 10.8784 11.3965 11.0841 11.6069C11.2398 11.7705 11.3263 11.987 11.3259 12.2119C11.3326 12.3705 11.3011 12.5284 11.2339 12.6725C11.1668 12.8166 11.066 12.9428 10.9398 13.0406C10.6028 13.2652 10.1996 13.3717 9.79447 13.3431C9.56537 13.3454 9.33674 13.322 9.11295 13.2734C8.93145 13.2339 8.75393 13.1783 8.58253 13.1072C8.43245 13.0428 8.22748 12.9462 7.96761 12.8175C7.75863 12.7071 7.52601 12.6478 7.28917 12.6446C7.07662 12.636 6.86884 12.7086 6.7088 12.8475C6.63246 12.9194 6.5728 13.007 6.53393 13.1041C6.49506 13.2011 6.47792 13.3054 6.48368 13.4097C6.4789 13.6074 6.53907 13.8012 6.65514 13.9621C6.79494 14.1377 6.97569 14.2769 7.18186 14.3679C7.98828 14.7142 8.86245 14.8781 9.74081 14.8476C10.38 14.8604 11.0162 14.7576 11.6182 14.5445C12.1178 14.3688 12.5528 14.0489 12.8672 13.626C13.176 13.1794 13.3324 12.6466 13.3137 12.1056C13.3257 11.6637 13.2141 11.2271 12.9912 10.8442C12.7648 10.4799 12.4598 10.1698 12.0981 9.93612C11.6401 9.64338 11.1542 9.39592 10.6475 9.19729C10.5933 9.17099 10.5372 9.14872 10.4797 9.13067C9.96038 8.91801 9.56976 8.7473 9.30784 8.61856C9.07401 8.50995 8.86225 8.35978 8.68306 8.17551C8.53227 8.01864 8.44908 7.80974 8.45116 7.59312C8.44393 7.42812 8.48156 7.26423 8.56011 7.11857C8.63866 6.97291 8.75525 6.85082 8.89769 6.76506C9.23525 6.56566 9.62378 6.46719 10.0165 6.48151C10.3178 6.47838 10.6182 6.51538 10.9096 6.59151C11.2261 6.68195 11.5359 6.79426 11.8366 6.92762C11.9586 6.98371 12.0913 7.0133 12.2258 7.0144C12.3235 7.01696 12.4207 6.99902 12.5109 6.96173C12.6012 6.92445 12.6824 6.86867 12.7494 6.79806C12.8201 6.72144 12.875 6.63176 12.9107 6.53414C12.9465 6.43652 12.9625 6.33287 12.9579 6.22912C12.961 6.02941 12.8906 5.8354 12.7599 5.6834C12.5824 5.49865 12.3623 5.35939 12.1184 5.27762C11.8529 5.181 11.5783 5.11078 11.2988 5.06801C10.9082 5.00453 10.5128 4.97447 10.117 4.97817C9.51212 4.97463 8.91114 5.0749 8.34076 5.27456C7.81632 5.44999 7.34814 5.75995 6.98387 6.1729C6.63336 6.58411 6.44805 7.10886 6.46333 7.6469C6.45088 8.07085 6.55038 8.49068 6.75197 8.86484Z" fill="#4D7BF1"/>
</g>
</svg>
