<svg width="170" height="20" viewBox="0 0 170 20" fill="none" xmlns="http://www.w3.org/2000/svg">
<path fill-rule="evenodd" clip-rule="evenodd" d="M6.23574 0.833008C7.25231 0.833008 8.23934 1.11597 9.08886 1.63772C9.39127 1.6057 9.69577 1.58956 10.0011 1.58956C11.1247 1.58956 12.2374 1.80813 13.2755 2.23277C14.3136 2.65741 15.2568 3.27982 16.0514 4.06446C16.8459 4.8491 17.4761 5.78061 17.9061 6.80579C18.3361 7.83097 18.5575 8.92975 18.5575 10.0394C18.5575 10.4337 18.5295 10.8267 18.4742 11.2155C18.5791 11.4 18.6731 11.5909 18.7555 11.7872C19.027 12.4347 19.1668 13.1287 19.1668 13.8295C19.1668 14.5304 19.027 15.2243 18.7555 15.8718C18.4839 16.5193 18.0858 17.1076 17.584 17.6032C17.0822 18.0988 16.4864 18.4919 15.8308 18.7601C15.1751 19.0283 14.4724 19.1663 13.7627 19.1663C12.7906 19.1663 11.8455 18.9077 11.0217 18.4289C10.6837 18.469 10.3429 18.4892 10.0011 18.4892C8.87745 18.4892 7.76481 18.2707 6.7267 17.846C5.68859 17.4214 4.74535 16.799 3.95081 16.0143C3.15628 15.2297 2.52602 14.2982 2.09603 13.273C1.66603 12.2478 1.44471 11.149 1.44471 10.0394C1.44471 9.62391 1.47574 9.20995 1.53713 8.8008C1.07993 8.005 0.833496 7.09905 0.833496 6.16801C0.833496 4.75308 1.40266 3.3961 2.41578 2.39559C3.42889 1.39509 4.80297 0.833008 6.23574 0.833008ZM6.75197 8.86484C6.96078 9.21899 7.24931 9.52057 7.59509 9.74606C8.05321 10.0431 8.54022 10.2939 9.0488 10.4947C9.61746 10.7302 10.0587 10.9298 10.3724 11.0936C10.6377 11.2228 10.8784 11.3965 11.0841 11.6069C11.2398 11.7705 11.3263 11.987 11.3259 12.2119C11.3326 12.3705 11.3011 12.5284 11.2339 12.6725C11.1668 12.8166 11.066 12.9428 10.9398 13.0406C10.6028 13.2652 10.1996 13.3717 9.79447 13.3431C9.56537 13.3454 9.33674 13.322 9.11295 13.2734C8.93145 13.2339 8.75393 13.1783 8.58253 13.1072C8.43245 13.0428 8.22748 12.9462 7.96761 12.8175C7.75863 12.7071 7.52601 12.6478 7.28917 12.6446C7.07662 12.636 6.86884 12.7086 6.7088 12.8475C6.63246 12.9194 6.5728 13.007 6.53393 13.1041C6.49506 13.2011 6.47792 13.3054 6.48368 13.4097C6.4789 13.6074 6.53907 13.8012 6.65514 13.9621C6.79494 14.1377 6.97569 14.2769 7.18186 14.3679C7.98828 14.7142 8.86245 14.8781 9.74081 14.8476C10.38 14.8604 11.0162 14.7576 11.6182 14.5445C12.1178 14.3688 12.5528 14.0489 12.8672 13.626C13.176 13.1794 13.3324 12.6466 13.3137 12.1056C13.3257 11.6637 13.2141 11.2271 12.9912 10.8442C12.7648 10.4799 12.4598 10.1698 12.0981 9.93612C11.6401 9.64338 11.1542 9.39592 10.6475 9.19729C10.5933 9.17099 10.5372 9.14872 10.4797 9.13067C9.96038 8.91801 9.56976 8.7473 9.30784 8.61856C9.07401 8.50995 8.86225 8.35978 8.68306 8.17551C8.53227 8.01864 8.44908 7.80974 8.45116 7.59312C8.44393 7.42812 8.48156 7.26423 8.56011 7.11857C8.63866 6.97291 8.75525 6.85082 8.89769 6.76506C9.23525 6.56566 9.62378 6.46719 10.0165 6.48151C10.3178 6.47838 10.6182 6.51538 10.9096 6.59151C11.2261 6.68195 11.5359 6.79426 11.8366 6.92762C11.9586 6.98371 12.0913 7.0133 12.2258 7.0144C12.3235 7.01696 12.4207 6.99902 12.5109 6.96173C12.6012 6.92445 12.6824 6.86867 12.7494 6.79806C12.8201 6.72144 12.875 6.63176 12.9107 6.53414C12.9465 6.43652 12.9625 6.33287 12.9579 6.22912C12.961 6.02941 12.8906 5.8354 12.7599 5.6834C12.5824 5.49865 12.3623 5.35939 12.1184 5.27762C11.8529 5.181 11.5783 5.11078 11.2988 5.06801C10.9082 5.00453 10.5128 4.97447 10.117 4.97817C9.51212 4.97463 8.91114 5.0749 8.34076 5.27456C7.81632 5.44999 7.34814 5.75995 6.98387 6.1729C6.63336 6.58411 6.44805 7.10886 6.46333 7.6469C6.45088 8.07085 6.55038 8.49068 6.75197 8.86484Z" fill="#4D7BF1"/>
<path d="M25.568 18.04C25.4613 18.04 25.3707 18.0027 25.296 17.928C25.232 17.864 25.2 17.7787 25.2 17.672V7.048C25.2 6.94133 25.232 6.856 25.296 6.792C25.3707 6.71733 25.4613 6.68 25.568 6.68H26.304C26.4107 6.68 26.496 6.71733 26.56 6.792C26.6347 6.856 26.672 6.94133 26.672 7.048V7.752C26.928 7.4 27.2693 7.10667 27.696 6.872C28.1227 6.63733 28.656 6.52 29.296 6.52C29.8933 6.52 30.4 6.62133 30.816 6.824C31.2427 7.02667 31.5893 7.304 31.856 7.656C32.1333 8.008 32.3413 8.408 32.48 8.856C32.6187 9.304 32.6933 9.784 32.704 10.296C32.7147 10.4667 32.72 10.648 32.72 10.84C32.72 11.032 32.7147 11.2133 32.704 11.384C32.6933 11.8853 32.6187 12.3653 32.48 12.824C32.3413 13.272 32.1333 13.672 31.856 14.024C31.5893 14.3653 31.2427 14.6427 30.816 14.856C30.4 15.0587 29.8933 15.16 29.296 15.16C28.6773 15.16 28.1547 15.048 27.728 14.824C27.312 14.5893 26.9707 14.3013 26.704 13.96V17.672C26.704 17.7787 26.672 17.864 26.608 17.928C26.544 18.0027 26.4533 18.04 26.336 18.04H25.568ZM28.96 13.864C29.5147 13.864 29.9467 13.7467 30.256 13.512C30.576 13.2667 30.8053 12.952 30.944 12.568C31.0827 12.1733 31.1627 11.752 31.184 11.304C31.1947 10.9947 31.1947 10.6853 31.184 10.376C31.1627 9.928 31.0827 9.512 30.944 9.128C30.8053 8.73333 30.576 8.41867 30.256 8.184C29.9467 7.93867 29.5147 7.816 28.96 7.816C28.4373 7.816 28.0107 7.93867 27.68 8.184C27.36 8.42933 27.12 8.744 26.96 9.128C26.8107 9.50133 26.7253 9.88533 26.704 10.28C26.6933 10.4507 26.688 10.6533 26.688 10.888C26.688 11.1227 26.6933 11.3307 26.704 11.512C26.7147 11.8853 26.8 12.2533 26.96 12.616C27.1307 12.9787 27.3813 13.2773 27.712 13.512C28.0427 13.7467 28.4587 13.864 28.96 13.864ZM35.0833 15C34.9766 15 34.8859 14.968 34.8113 14.904C34.7473 14.8293 34.7153 14.7387 34.7153 14.632V7.064C34.7153 6.95733 34.7473 6.86667 34.8113 6.792C34.8859 6.71733 34.9766 6.68 35.0833 6.68H35.8193C35.9259 6.68 36.0166 6.71733 36.0913 6.792C36.1659 6.86667 36.2033 6.95733 36.2033 7.064V7.768C36.4166 7.40533 36.7099 7.13333 37.0833 6.952C37.4566 6.77067 37.9046 6.68 38.4273 6.68H39.0673C39.1739 6.68 39.2593 6.71733 39.3233 6.792C39.3873 6.856 39.4193 6.94133 39.4193 7.048V7.704C39.4193 7.81067 39.3873 7.896 39.3233 7.96C39.2593 8.024 39.1739 8.056 39.0673 8.056H38.1073C37.5313 8.056 37.0779 8.22667 36.7473 8.568C36.4166 8.89867 36.2513 9.352 36.2513 9.928V14.632C36.2513 14.7387 36.2139 14.8293 36.1393 14.904C36.0646 14.968 35.9739 15 35.8673 15H35.0833ZM43.9491 15.16C42.8505 15.16 41.9758 14.824 41.3251 14.152C40.6745 13.4693 40.3171 12.5413 40.2531 11.368C40.2425 11.2293 40.2371 11.0533 40.2371 10.84C40.2371 10.616 40.2425 10.4347 40.2531 10.296C40.2958 9.53867 40.4718 8.87733 40.7811 8.312C41.0905 7.736 41.5118 7.29333 42.0451 6.984C42.5891 6.67467 43.2238 6.52 43.9491 6.52C44.7598 6.52 45.4371 6.69067 45.9811 7.032C46.5358 7.37333 46.9571 7.85867 47.2451 8.488C47.5331 9.11733 47.6771 9.85333 47.6771 10.696V10.968C47.6771 11.0853 47.6398 11.176 47.5651 11.24C47.5011 11.304 47.4158 11.336 47.3091 11.336H41.7731C41.7731 11.3467 41.7731 11.368 41.7731 11.4C41.7731 11.432 41.7731 11.4587 41.7731 11.48C41.7945 11.9173 41.8905 12.328 42.0611 12.712C42.2318 13.0853 42.4771 13.3893 42.7971 13.624C43.1171 13.8587 43.5011 13.976 43.9491 13.976C44.3331 13.976 44.6531 13.9173 44.9091 13.8C45.1651 13.6827 45.3731 13.5547 45.5331 13.416C45.6931 13.2667 45.7998 13.1547 45.8531 13.08C45.9491 12.9413 46.0238 12.8613 46.0771 12.84C46.1305 12.808 46.2158 12.792 46.3331 12.792H47.1011C47.2078 12.792 47.2931 12.824 47.3571 12.888C47.4318 12.9413 47.4638 13.0213 47.4531 13.128C47.4425 13.288 47.3571 13.4853 47.1971 13.72C47.0371 13.944 46.8078 14.168 46.5091 14.392C46.2105 14.616 45.8478 14.8027 45.4211 14.952C44.9945 15.0907 44.5038 15.16 43.9491 15.16ZM41.7731 10.232H46.1571V10.184C46.1571 9.704 46.0665 9.27733 45.8851 8.904C45.7145 8.53067 45.4638 8.23733 45.1331 8.024C44.8025 7.8 44.4078 7.688 43.9491 7.688C43.4905 7.688 43.0958 7.8 42.7651 8.024C42.4451 8.23733 42.1998 8.53067 42.0291 8.904C41.8585 9.27733 41.7731 9.704 41.7731 10.184V10.232ZM49.9583 15C49.8516 15 49.7609 14.968 49.6863 14.904C49.6223 14.8293 49.5903 14.7387 49.5903 14.632V7.048C49.5903 6.94133 49.6223 6.856 49.6863 6.792C49.7609 6.71733 49.8516 6.68 49.9583 6.68H50.6783C50.7849 6.68 50.8703 6.71733 50.9343 6.792C51.0089 6.856 51.0463 6.94133 51.0463 7.048V7.608C51.2916 7.27733 51.6009 7.016 51.9743 6.824C52.3476 6.62133 52.7956 6.52 53.3183 6.52C54.5236 6.50933 55.3769 7 55.8783 7.992C56.1236 7.544 56.4809 7.18667 56.9503 6.92C57.4196 6.65333 57.9529 6.52 58.5503 6.52C59.1049 6.52 59.6063 6.648 60.0543 6.904C60.5129 7.16 60.8703 7.54933 61.1263 8.072C61.3929 8.584 61.5263 9.22933 61.5263 10.008V14.632C61.5263 14.7387 61.4889 14.8293 61.4143 14.904C61.3503 14.968 61.2649 15 61.1583 15H60.4063C60.2996 15 60.2089 14.968 60.1343 14.904C60.0703 14.8293 60.0383 14.7387 60.0383 14.632V10.152C60.0383 9.55467 59.9529 9.08533 59.7823 8.744C59.6116 8.40267 59.3823 8.16267 59.0943 8.024C58.8063 7.88533 58.4916 7.816 58.1503 7.816C57.8729 7.816 57.5903 7.88533 57.3023 8.024C57.0143 8.16267 56.7743 8.40267 56.5823 8.744C56.4009 9.08533 56.3103 9.55467 56.3103 10.152V14.632C56.3103 14.7387 56.2729 14.8293 56.1983 14.904C56.1343 14.968 56.0489 15 55.9423 15H55.1903C55.0836 15 54.9929 14.968 54.9183 14.904C54.8543 14.8293 54.8223 14.7387 54.8223 14.632V10.152C54.8223 9.55467 54.7316 9.08533 54.5503 8.744C54.3689 8.40267 54.1343 8.16267 53.8463 8.024C53.5583 7.88533 53.2543 7.816 52.9343 7.816C52.6569 7.816 52.3743 7.88533 52.0863 8.024C51.7983 8.16267 51.5583 8.40267 51.3663 8.744C51.1849 9.08533 51.0943 9.54933 51.0943 10.136V14.632C51.0943 14.7387 51.0569 14.8293 50.9823 14.904C50.9183 14.968 50.8329 15 50.7263 15H49.9583ZM64.177 15C64.0703 15 63.9797 14.968 63.905 14.904C63.841 14.8293 63.809 14.7387 63.809 14.632V7.048C63.809 6.94133 63.841 6.856 63.905 6.792C63.9797 6.71733 64.0703 6.68 64.177 6.68H64.945C65.0517 6.68 65.137 6.71733 65.201 6.792C65.265 6.856 65.297 6.94133 65.297 7.048V14.632C65.297 14.7387 65.265 14.8293 65.201 14.904C65.137 14.968 65.0517 15 64.945 15H64.177ZM64.049 5.128C63.9423 5.128 63.8517 5.096 63.777 5.032C63.713 4.95733 63.681 4.86667 63.681 4.76V3.896C63.681 3.78933 63.713 3.704 63.777 3.64C63.8517 3.56533 63.9423 3.528 64.049 3.528H65.057C65.1637 3.528 65.249 3.56533 65.313 3.64C65.3877 3.704 65.425 3.78933 65.425 3.896V4.76C65.425 4.86667 65.3877 4.95733 65.313 5.032C65.249 5.096 65.1637 5.128 65.057 5.128H64.049ZM70.788 15.16C70.1053 15.16 69.524 15.0107 69.044 14.712C68.5747 14.4027 68.2173 13.976 67.972 13.432C67.7267 12.888 67.604 12.264 67.604 11.56V7.048C67.604 6.94133 67.636 6.856 67.7 6.792C67.7747 6.71733 67.8653 6.68 67.972 6.68H68.772C68.8787 6.68 68.964 6.71733 69.028 6.792C69.1027 6.856 69.14 6.94133 69.14 7.048V11.48C69.14 13.0693 69.8333 13.864 71.22 13.864C71.8813 13.864 72.4093 13.656 72.804 13.24C73.2093 12.8133 73.412 12.2267 73.412 11.48V7.048C73.412 6.94133 73.444 6.856 73.508 6.792C73.5827 6.71733 73.6733 6.68 73.78 6.68H74.564C74.6813 6.68 74.772 6.71733 74.836 6.792C74.9 6.856 74.932 6.94133 74.932 7.048V14.632C74.932 14.7387 74.9 14.8293 74.836 14.904C74.772 14.968 74.6813 15 74.564 15H73.828C73.7213 15 73.6307 14.968 73.556 14.904C73.492 14.8293 73.46 14.7387 73.46 14.632V13.928C73.172 14.3013 72.82 14.6 72.404 14.824C71.9987 15.048 71.46 15.16 70.788 15.16ZM77.677 15C77.5703 15 77.4797 14.968 77.405 14.904C77.341 14.8293 77.309 14.7387 77.309 14.632V7.048C77.309 6.94133 77.341 6.856 77.405 6.792C77.4797 6.71733 77.5703 6.68 77.677 6.68H78.397C78.5037 6.68 78.589 6.71733 78.653 6.792C78.7277 6.856 78.765 6.94133 78.765 7.048V7.608C79.0103 7.27733 79.3197 7.016 79.693 6.824C80.0663 6.62133 80.5143 6.52 81.037 6.52C82.2423 6.50933 83.0957 7 83.597 7.992C83.8423 7.544 84.1997 7.18667 84.669 6.92C85.1383 6.65333 85.6717 6.52 86.269 6.52C86.8237 6.52 87.325 6.648 87.773 6.904C88.2317 7.16 88.589 7.54933 88.845 8.072C89.1117 8.584 89.245 9.22933 89.245 10.008V14.632C89.245 14.7387 89.2077 14.8293 89.133 14.904C89.069 14.968 88.9837 15 88.877 15H88.125C88.0183 15 87.9277 14.968 87.853 14.904C87.789 14.8293 87.757 14.7387 87.757 14.632V10.152C87.757 9.55467 87.6717 9.08533 87.501 8.744C87.3303 8.40267 87.101 8.16267 86.813 8.024C86.525 7.88533 86.2103 7.816 85.869 7.816C85.5917 7.816 85.309 7.88533 85.021 8.024C84.733 8.16267 84.493 8.40267 84.301 8.744C84.1197 9.08533 84.029 9.55467 84.029 10.152V14.632C84.029 14.7387 83.9917 14.8293 83.917 14.904C83.853 14.968 83.7677 15 83.661 15H82.909C82.8023 15 82.7117 14.968 82.637 14.904C82.573 14.8293 82.541 14.7387 82.541 14.632V10.152C82.541 9.55467 82.4503 9.08533 82.269 8.744C82.0877 8.40267 81.853 8.16267 81.565 8.024C81.277 7.88533 80.973 7.816 80.653 7.816C80.3757 7.816 80.093 7.88533 79.805 8.024C79.517 8.16267 79.277 8.40267 79.085 8.744C78.9037 9.08533 78.813 9.54933 78.813 10.136V14.632C78.813 14.7387 78.7757 14.8293 78.701 14.904C78.637 14.968 78.5517 15 78.445 15H77.677ZM94.8398 15.16C93.7411 15.16 92.8664 14.824 92.2158 14.152C91.5651 13.4693 91.2078 12.5413 91.1438 11.368C91.1331 11.2293 91.1278 11.0533 91.1278 10.84C91.1278 10.616 91.1331 10.4347 91.1438 10.296C91.1864 9.53867 91.3624 8.87733 91.6718 8.312C91.9811 7.736 92.4024 7.29333 92.9358 6.984C93.4798 6.67467 94.1144 6.52 94.8398 6.52C95.6504 6.52 96.3278 6.69067 96.8718 7.032C97.4264 7.37333 97.8478 7.85867 98.1358 8.488C98.4238 9.11733 98.5677 9.85333 98.5677 10.696V10.968C98.5677 11.0853 98.5304 11.176 98.4558 11.24C98.3918 11.304 98.3064 11.336 98.1998 11.336H92.6638C92.6638 11.3467 92.6638 11.368 92.6638 11.4C92.6638 11.432 92.6638 11.4587 92.6638 11.48C92.6851 11.9173 92.7811 12.328 92.9518 12.712C93.1224 13.0853 93.3678 13.3893 93.6878 13.624C94.0078 13.8587 94.3918 13.976 94.8398 13.976C95.2238 13.976 95.5438 13.9173 95.7998 13.8C96.0558 13.6827 96.2638 13.5547 96.4238 13.416C96.5838 13.2667 96.6904 13.1547 96.7438 13.08C96.8398 12.9413 96.9144 12.8613 96.9678 12.84C97.0211 12.808 97.1064 12.792 97.2238 12.792H97.9918C98.0984 12.792 98.1838 12.824 98.2478 12.888C98.3224 12.9413 98.3544 13.0213 98.3438 13.128C98.3331 13.288 98.2478 13.4853 98.0878 13.72C97.9278 13.944 97.6984 14.168 97.3998 14.392C97.1011 14.616 96.7384 14.8027 96.3118 14.952C95.8851 15.0907 95.3944 15.16 94.8398 15.16ZM92.6638 10.232H97.0478V10.184C97.0478 9.704 96.9571 9.27733 96.7758 8.904C96.6051 8.53067 96.3544 8.23733 96.0238 8.024C95.6931 7.8 95.2984 7.688 94.8398 7.688C94.3811 7.688 93.9864 7.8 93.6558 8.024C93.3358 8.23733 93.0904 8.53067 92.9198 8.904C92.7491 9.27733 92.6638 9.704 92.6638 10.184V10.232ZM99.925 15C99.8397 15 99.7597 14.968 99.685 14.904C99.621 14.84 99.589 14.76 99.589 14.664C99.589 14.632 99.5943 14.5947 99.605 14.552C99.6263 14.4987 99.6583 14.44 99.701 14.376L102.485 10.744L99.877 7.304C99.8343 7.24 99.8023 7.18667 99.781 7.144C99.7703 7.10133 99.765 7.05867 99.765 7.016C99.765 6.92 99.797 6.84 99.861 6.776C99.925 6.712 100.005 6.68 100.101 6.68H100.917C101.034 6.68 101.12 6.712 101.173 6.776C101.237 6.82933 101.29 6.88267 101.333 6.936L103.461 9.704L105.589 6.952C105.632 6.89867 105.68 6.84 105.733 6.776C105.797 6.712 105.888 6.68 106.005 6.68H106.789C106.885 6.68 106.965 6.712 107.029 6.776C107.093 6.84 107.125 6.92 107.125 7.016C107.125 7.05867 107.114 7.10133 107.093 7.144C107.082 7.18667 107.056 7.24 107.013 7.304L104.373 10.776L107.157 14.376C107.2 14.44 107.226 14.4933 107.237 14.536C107.258 14.5787 107.269 14.6213 107.269 14.664C107.269 14.76 107.237 14.84 107.173 14.904C107.109 14.968 107.029 15 106.933 15H106.085C105.978 15 105.893 14.9733 105.829 14.92C105.765 14.8667 105.712 14.8133 105.669 14.76L103.413 11.832L101.157 14.76C101.114 14.8027 101.061 14.856 100.997 14.92C100.944 14.9733 100.858 15 100.741 15H99.925ZM112.075 15.16C111.318 15.16 110.662 15.016 110.107 14.728C109.563 14.4293 109.142 14.008 108.843 13.464C108.545 12.9093 108.385 12.248 108.363 11.48C108.353 11.32 108.347 11.1067 108.347 10.84C108.347 10.5733 108.353 10.36 108.363 10.2C108.385 9.432 108.545 8.776 108.843 8.232C109.142 7.67733 109.563 7.256 110.107 6.968C110.662 6.66933 111.318 6.52 112.075 6.52C112.694 6.52 113.222 6.60533 113.659 6.776C114.107 6.94667 114.475 7.16533 114.763 7.432C115.051 7.69867 115.265 7.98667 115.403 8.296C115.553 8.60533 115.633 8.89867 115.643 9.176C115.654 9.28267 115.622 9.368 115.547 9.432C115.473 9.496 115.382 9.528 115.275 9.528H114.507C114.401 9.528 114.321 9.50667 114.267 9.464C114.214 9.41067 114.161 9.32533 114.107 9.208C113.915 8.68533 113.654 8.31733 113.323 8.104C112.993 7.89067 112.582 7.784 112.091 7.784C111.451 7.784 110.929 7.98133 110.523 8.376C110.129 8.77067 109.915 9.40533 109.883 10.28C109.873 10.664 109.873 11.0373 109.883 11.4C109.915 12.2853 110.129 12.9253 110.523 13.32C110.929 13.704 111.451 13.896 112.091 13.896C112.582 13.896 112.993 13.7893 113.323 13.576C113.654 13.3627 113.915 12.9947 114.107 12.472C114.161 12.3547 114.214 12.2747 114.267 12.232C114.321 12.1787 114.401 12.152 114.507 12.152H115.275C115.382 12.152 115.473 12.184 115.547 12.248C115.622 12.312 115.654 12.3973 115.643 12.504C115.633 12.728 115.585 12.9573 115.499 13.192C115.414 13.4267 115.275 13.6667 115.083 13.912C114.902 14.1467 114.673 14.36 114.395 14.552C114.118 14.7333 113.782 14.8827 113.387 15C113.003 15.1067 112.566 15.16 112.075 15.16ZM117.927 15C117.821 15 117.73 14.968 117.655 14.904C117.591 14.8293 117.559 14.7387 117.559 14.632V4.008C117.559 3.90133 117.591 3.816 117.655 3.752C117.73 3.67733 117.821 3.64 117.927 3.64H118.727C118.845 3.64 118.935 3.67733 118.999 3.752C119.063 3.816 119.095 3.90133 119.095 4.008V7.736C119.383 7.37333 119.735 7.08 120.151 6.856C120.567 6.632 121.095 6.52 121.735 6.52C122.429 6.52 123.015 6.67467 123.495 6.984C123.986 7.28267 124.354 7.704 124.599 8.248C124.855 8.78133 124.983 9.40533 124.983 10.12V14.632C124.983 14.7387 124.951 14.8293 124.887 14.904C124.823 14.968 124.733 15 124.615 15H123.815C123.709 15 123.618 14.968 123.543 14.904C123.479 14.8293 123.447 14.7387 123.447 14.632V10.2C123.447 9.45333 123.266 8.872 122.903 8.456C122.541 8.02933 122.007 7.816 121.303 7.816C120.642 7.816 120.109 8.02933 119.703 8.456C119.298 8.872 119.095 9.45333 119.095 10.2V14.632C119.095 14.7387 119.063 14.8293 118.999 14.904C118.935 14.968 118.845 15 118.727 15H117.927ZM129.613 15.16C129.08 15.16 128.595 15.0533 128.157 14.84C127.72 14.6267 127.368 14.3387 127.101 13.976C126.835 13.6133 126.701 13.2027 126.701 12.744C126.701 12.008 127 11.4213 127.597 10.984C128.195 10.5467 128.973 10.2587 129.933 10.12L132.317 9.784V9.32C132.317 8.808 132.168 8.408 131.869 8.12C131.581 7.832 131.107 7.688 130.445 7.688C129.965 7.688 129.576 7.784 129.277 7.976C128.989 8.168 128.787 8.41333 128.669 8.712C128.605 8.872 128.493 8.952 128.333 8.952H127.613C127.496 8.952 127.405 8.92 127.341 8.856C127.288 8.78133 127.261 8.696 127.261 8.6C127.261 8.44 127.32 8.24267 127.437 8.008C127.565 7.77333 127.757 7.544 128.013 7.32C128.269 7.096 128.595 6.90933 128.989 6.76C129.395 6.6 129.885 6.52 130.461 6.52C131.101 6.52 131.64 6.60533 132.077 6.776C132.515 6.936 132.856 7.15467 133.101 7.432C133.357 7.70933 133.539 8.024 133.645 8.376C133.763 8.728 133.821 9.08533 133.821 9.448V14.632C133.821 14.7387 133.784 14.8293 133.709 14.904C133.645 14.968 133.56 15 133.453 15H132.717C132.6 15 132.509 14.968 132.445 14.904C132.381 14.8293 132.349 14.7387 132.349 14.632V13.944C132.211 14.136 132.024 14.328 131.789 14.52C131.555 14.7013 131.261 14.856 130.909 14.984C130.557 15.1013 130.125 15.16 129.613 15.16ZM129.949 13.96C130.387 13.96 130.787 13.8693 131.149 13.688C131.512 13.496 131.795 13.2027 131.997 12.808C132.211 12.4133 132.317 11.9173 132.317 11.32V10.872L130.461 11.144C129.704 11.2507 129.133 11.432 128.749 11.688C128.365 11.9333 128.173 12.248 128.173 12.632C128.173 12.9307 128.259 13.1813 128.429 13.384C128.611 13.576 128.835 13.72 129.101 13.816C129.379 13.912 129.661 13.96 129.949 13.96ZM136.49 15C136.383 15 136.292 14.968 136.218 14.904C136.154 14.8293 136.122 14.7387 136.122 14.632V7.048C136.122 6.94133 136.154 6.856 136.218 6.792C136.292 6.71733 136.383 6.68 136.49 6.68H137.242C137.348 6.68 137.434 6.71733 137.498 6.792C137.572 6.856 137.61 6.94133 137.61 7.048V7.752C137.887 7.38933 138.234 7.096 138.65 6.872C139.076 6.63733 139.62 6.52 140.282 6.52C140.975 6.52 141.562 6.67467 142.042 6.984C142.532 7.28267 142.9 7.704 143.146 8.248C143.391 8.78133 143.514 9.40533 143.514 10.12V14.632C143.514 14.7387 143.482 14.8293 143.418 14.904C143.354 14.968 143.268 15 143.161 15H142.362C142.255 15 142.164 14.968 142.09 14.904C142.026 14.8293 141.994 14.7387 141.994 14.632V10.2C141.994 9.45333 141.812 8.872 141.45 8.456C141.087 8.02933 140.554 7.816 139.85 7.816C139.188 7.816 138.655 8.02933 138.25 8.456C137.855 8.872 137.658 9.45333 137.658 10.2V14.632C137.658 14.7387 137.62 14.8293 137.546 14.904C137.482 14.968 137.396 15 137.289 15H136.49ZM149.233 18.52C148.507 18.52 147.91 18.424 147.441 18.232C146.982 18.04 146.619 17.8053 146.353 17.528C146.097 17.2613 145.91 16.9893 145.793 16.712C145.686 16.4453 145.627 16.232 145.617 16.072C145.606 15.9653 145.638 15.8747 145.713 15.8C145.798 15.7253 145.889 15.688 145.985 15.688H146.753C146.849 15.688 146.929 15.7093 146.993 15.752C147.057 15.7947 147.11 15.8853 147.153 16.024C147.217 16.184 147.313 16.36 147.441 16.552C147.569 16.7547 147.766 16.9253 148.033 17.064C148.299 17.2133 148.673 17.288 149.153 17.288C149.654 17.288 150.075 17.2187 150.417 17.08C150.758 16.952 151.014 16.7173 151.185 16.376C151.366 16.0453 151.457 15.5867 151.457 15V13.912C151.201 14.2427 150.865 14.52 150.449 14.744C150.033 14.9573 149.51 15.064 148.881 15.064C148.283 15.064 147.771 14.9627 147.345 14.76C146.918 14.5467 146.566 14.264 146.289 13.912C146.022 13.5493 145.819 13.1387 145.681 12.68C145.553 12.2213 145.478 11.7413 145.457 11.24C145.446 10.9413 145.446 10.648 145.457 10.36C145.478 9.85867 145.553 9.37867 145.681 8.92C145.819 8.46133 146.022 8.05067 146.289 7.688C146.566 7.32533 146.918 7.04267 147.345 6.84C147.771 6.62667 148.283 6.52 148.881 6.52C149.521 6.52 150.049 6.64267 150.465 6.888C150.891 7.12267 151.238 7.41067 151.505 7.752V7.064C151.505 6.95733 151.537 6.86667 151.601 6.792C151.675 6.71733 151.766 6.68 151.873 6.68H152.609C152.715 6.68 152.806 6.71733 152.881 6.792C152.955 6.86667 152.993 6.95733 152.993 7.064V14.824C152.993 15.5387 152.87 16.1733 152.625 16.728C152.39 17.2827 151.995 17.72 151.441 18.04C150.897 18.36 150.161 18.52 149.233 18.52ZM149.201 13.784C149.734 13.784 150.161 13.6613 150.481 13.416C150.811 13.1707 151.051 12.8613 151.201 12.488C151.361 12.1147 151.446 11.736 151.457 11.352C151.467 11.2027 151.473 11.0213 151.473 10.808C151.473 10.584 151.467 10.3973 151.457 10.248C151.446 9.864 151.361 9.48533 151.201 9.112C151.051 8.73867 150.811 8.42933 150.481 8.184C150.161 7.93867 149.734 7.816 149.201 7.816C148.667 7.816 148.241 7.93867 147.921 8.184C147.601 8.41867 147.371 8.73333 147.233 9.128C147.094 9.512 147.014 9.928 146.993 10.376C146.982 10.6533 146.982 10.936 146.993 11.224C147.014 11.672 147.094 12.0933 147.233 12.488C147.371 12.872 147.601 13.1867 147.921 13.432C148.241 13.6667 148.667 13.784 149.201 13.784ZM158.684 15.16C157.585 15.16 156.71 14.824 156.06 14.152C155.409 13.4693 155.052 12.5413 154.988 11.368C154.977 11.2293 154.972 11.0533 154.972 10.84C154.972 10.616 154.977 10.4347 154.988 10.296C155.03 9.53867 155.206 8.87733 155.516 8.312C155.825 7.736 156.246 7.29333 156.78 6.984C157.324 6.67467 157.958 6.52 158.684 6.52C159.494 6.52 160.172 6.69067 160.716 7.032C161.27 7.37333 161.692 7.85867 161.98 8.488C162.268 9.11733 162.411 9.85333 162.411 10.696V10.968C162.411 11.0853 162.374 11.176 162.3 11.24C162.236 11.304 162.15 11.336 162.044 11.336H156.508C156.508 11.3467 156.508 11.368 156.508 11.4C156.508 11.432 156.508 11.4587 156.508 11.48C156.529 11.9173 156.625 12.328 156.796 12.712C156.966 13.0853 157.212 13.3893 157.532 13.624C157.852 13.8587 158.236 13.976 158.684 13.976C159.068 13.976 159.388 13.9173 159.644 13.8C159.9 13.6827 160.108 13.5547 160.268 13.416C160.428 13.2667 160.534 13.1547 160.588 13.08C160.684 12.9413 160.758 12.8613 160.812 12.84C160.865 12.808 160.95 12.792 161.068 12.792H161.836C161.942 12.792 162.028 12.824 162.092 12.888C162.166 12.9413 162.198 13.0213 162.188 13.128C162.177 13.288 162.092 13.4853 161.932 13.72C161.772 13.944 161.542 14.168 161.244 14.392C160.945 14.616 160.582 14.8027 160.156 14.952C159.729 15.0907 159.238 15.16 158.684 15.16ZM156.508 10.232H160.892V10.184C160.892 9.704 160.801 9.27733 160.62 8.904C160.449 8.53067 160.198 8.23733 159.868 8.024C159.537 7.8 159.142 7.688 158.684 7.688C158.225 7.688 157.83 7.8 157.5 8.024C157.18 8.23733 156.934 8.53067 156.764 8.904C156.593 9.27733 156.508 9.704 156.508 10.184V10.232ZM164.693 15C164.586 15 164.495 14.968 164.421 14.904C164.357 14.8293 164.325 14.7387 164.325 14.632V7.064C164.325 6.95733 164.357 6.86667 164.421 6.792C164.495 6.71733 164.586 6.68 164.693 6.68H165.429C165.535 6.68 165.626 6.71733 165.701 6.792C165.775 6.86667 165.813 6.95733 165.813 7.064V7.768C166.026 7.40533 166.319 7.13333 166.693 6.952C167.066 6.77067 167.514 6.68 168.037 6.68H168.677C168.783 6.68 168.869 6.71733 168.933 6.792C168.997 6.856 169.029 6.94133 169.029 7.048V7.704C169.029 7.81067 168.997 7.896 168.933 7.96C168.869 8.024 168.783 8.056 168.677 8.056H167.717C167.141 8.056 166.687 8.22667 166.357 8.568C166.026 8.89867 165.861 9.352 165.861 9.928V14.632C165.861 14.7387 165.823 14.8293 165.749 14.904C165.674 14.968 165.583 15 165.477 15H164.693Z" fill="#4D7BF1"/>
</svg>
