<svg style="position: absolute; width: 0; height: 0; overflow: hidden;" version="1.1" xmlns="http://www.w3.org/2000/svg" xmlns:xlink="http://www.w3.org/1999/xlink">
    <style>
        :root > svg {
        display: none;
        }
        :root > svg:target {
        display: block;
        }
    </style>


    <svg id="tg" viewBox="0 0 20 20" xmlns="http://www.w3.org/2000/svg">
        <path fill-rule="evenodd" clip-rule="evenodd" d="M2.81243 8.59866C7.28635 6.59941 10.2697 5.28139 11.7624 4.64459C16.0243 2.82638 16.91 2.51054 17.4872 2.50011C17.6141 2.49782 17.898 2.53009 18.0819 2.68312C18.2371 2.81233 18.2798 2.98689 18.3003 3.1094C18.3207 3.23191 18.3462 3.51099 18.3259 3.72906C18.095 6.21804 17.0956 12.2581 16.5872 15.0459C16.3721 16.2254 15.9485 16.6209 15.5384 16.6596C14.6472 16.7438 13.9704 16.0555 13.1072 15.4752C11.7565 14.5671 10.9935 14.0017 9.68235 13.1156C8.16713 12.0914 9.14938 11.5285 10.0129 10.6086C10.2389 10.3679 14.1656 6.70456 14.2416 6.37223C14.2511 6.33067 14.2599 6.17574 14.1702 6.09394C14.0805 6.01213 13.948 6.04011 13.8525 6.06236C13.717 6.09389 11.5592 7.55672 7.37908 10.4508C6.76659 10.8822 6.21182 11.0924 5.71477 11.0814C5.16681 11.0692 4.11275 10.7636 3.32917 10.5024C2.36807 10.1819 1.60421 10.0125 1.67072 9.46831C1.70537 9.18486 2.08594 8.89498 2.81243 8.59866Z"/>
    </svg>

    <svg id="email" viewBox="0 0 20 20" xmlns="http://www.w3.org/2000/svg">
        <g clip-path="url(#clip0_4429_69538)">
            <mask id="mask0_4429_69538" style="mask-type:alpha" maskUnits="userSpaceOnUse" x="0" y="0" width="20" height="20">
                <rect width="20" height="20" fill="#ffffff"/>
            </mask>
            <g mask="url(#mask0_4429_69538)">
                <path d="M3.15625 17.0941C2.62821 17.0941 2.17849 16.9084 1.80708 16.537C1.43569 16.1656 1.25 15.7159 1.25 15.1878V4.81283C1.25 4.27906 1.43569 3.82444 1.80708 3.44895C2.1785 3.07348 2.62822 2.88574 3.15625 2.88574H16.8437C17.3775 2.88574 17.8321 3.07348 18.2076 3.44895C18.5831 3.82444 18.7708 4.27906 18.7708 4.81283V15.1878C18.7708 15.7159 18.5831 16.1656 18.2076 16.537C17.8321 16.9084 17.3775 17.0941 16.8437 17.0941H3.15625ZM10 11.0003L3.15625 6.38574V15.1878H16.8437V6.38574L10 11.0003ZM10 9.32324L16.75 4.81283H3.27083L10 9.32324ZM3.15625 6.38574V4.81283V15.1878V6.38574Z" fill="#4D7BF1"/>
            </g>
        </g>
        <defs>
            <clipPath id="clip0_4429_69538">
                <rect width="20" height="20" fill="white"/>
            </clipPath>
        </defs>
    </svg>

    <svg id="phone" viewBox="0 0 20 20" xmlns="http://www.w3.org/2000/svg">
        <g clip-path="url(#clip0_7526_127725)">
            <mask id="mask0_7526_127725" style="mask-type:alpha" maskUnits="userSpaceOnUse" x="0" y="0" width="20" height="20">
                <rect width="20" height="20" fill="#ffffff"/>
            </mask>
            <g mask="url(#mask0_7526_127725)">
                <path d="M15.3197 16.3942C13.8608 16.2692 12.4523 15.876 11.0942 15.2147C9.73598 14.5534 8.50442 13.6661 7.39946 12.5529C6.28755 11.4466 5.40854 10.2191 4.76244 8.87059C4.11635 7.52204 3.72385 6.11701 3.58496 4.65548C3.55719 4.37 3.6409 4.1202 3.83611 3.90611C4.03132 3.69201 4.27533 3.58496 4.56815 3.58496H6.62659C6.87873 3.58496 7.09173 3.65601 7.26561 3.79811C7.4395 3.9402 7.56437 4.13652 7.64021 4.38704L8.07611 6.06329C8.10923 6.21982 8.09701 6.38537 8.03944 6.55994C7.98187 6.7345 7.89547 6.87759 7.78023 6.98921L5.90063 8.83013C6.21474 9.41132 6.55628 9.95611 6.92523 10.4645C7.29419 10.9729 7.69817 11.4456 8.13717 11.8827C8.56977 12.3177 9.04114 12.7237 9.5513 13.1006C10.0615 13.4774 10.6165 13.8243 11.2164 14.141L13.2079 12.2132C13.3172 12.0983 13.4303 12.0255 13.5473 11.9948C13.6643 11.9641 13.808 11.9605 13.9784 11.984L15.595 12.3336C15.8479 12.3965 16.0478 12.5225 16.1947 12.7116C16.3416 12.9007 16.415 13.1253 16.415 13.3854V15.411C16.415 15.7038 16.3048 15.9479 16.0842 16.1431C15.8637 16.3383 15.6088 16.422 15.3197 16.3942ZM5.44713 7.85659L7.01765 6.35017C7.04169 6.32881 7.05771 6.29943 7.06571 6.26202C7.07373 6.22464 7.07373 6.18991 7.06571 6.15786L6.68978 4.71236C6.6791 4.66962 6.6604 4.63757 6.63369 4.61619C6.60698 4.59482 6.57226 4.58413 6.52953 4.58413H4.7404C4.70568 4.58413 4.6783 4.59482 4.65825 4.61619C4.63823 4.63757 4.62821 4.66427 4.62821 4.69631C4.65973 5.21288 4.74947 5.73652 4.89744 6.26723C5.04541 6.79795 5.22864 7.32774 5.44713 7.85659ZM12.2372 14.5986C12.7257 14.8178 13.2423 14.9842 13.7868 15.0979C14.3314 15.2116 14.837 15.2951 15.3037 15.3486C15.3357 15.3486 15.3624 15.3379 15.3838 15.3165C15.4052 15.2951 15.4159 15.2684 15.4159 15.2364V13.4415C15.4159 13.3988 15.4052 13.364 15.3838 13.3373C15.3624 13.3106 15.3304 13.2919 15.2877 13.2812L13.9672 12.9776C13.9351 12.9696 13.9071 12.9696 13.883 12.9776C13.859 12.9856 13.8336 13.0016 13.8069 13.0256L12.2372 14.5986Z"/>
            </g>
        </g>
        <defs>
            <clipPath id="clip0_7526_127725">
                <rect width="20" height="20" fill="white"/>
            </clipPath>
        </defs>
    </svg>

    <svg id="jabber" viewBox="0 0 18 18" xmlns="http://www.w3.org/2000/svg">
        <path d="M6.87697 10.8494C8.94147 10.7182 10.6981 10.0557 11.9356 8.16213C13.1067 6.36854 13.0765 4.61245 11.9778 3.06883C10.6981 1.27524 7.74623 1.56897 7.74623 1.56897C7.74623 1.56897 10.4808 1.01902 13.0886 3.02509C15.6963 5.03116 16.469 8.58084 15.0444 11.3743C13.6198 14.1678 11.0844 15.2927 8.38007 15.0553C6.53289 16.5926 4.2873 16.4989 4.2873 16.4989C4.2873 16.4989 5.14449 15.6927 6.07411 14.4678C4.87888 13.9491 2.74195 12.5742 2.3375 9.99947C1.93305 7.4247 3.06189 6.2998 3.06189 6.2998C1.69159 9.17454 4.61931 10.9931 6.87697 10.8494ZM12.5996 6.08732C12.5996 6.08732 13.0463 2.91885 9.87713 1.88144C8.19897 1.33149 6.18277 1.81269 5.01168 2.66887C3.79834 3.55629 3.22487 4.91242 3.30335 5.1374C3.39993 5.42487 4.2873 4.31247 6.01979 3.87501C7.82471 3.4188 10.6739 3.79377 12.5996 6.08732ZM10.4808 9.47451C10.3359 6.35604 6.70191 4.0375 4.02773 5.53736C5.91113 4.74368 7.69794 5.69985 8.21708 8.11214C8.48269 9.33703 8.1869 10.4869 8.1869 10.4869C8.1869 10.4869 9.76243 10.2057 10.4808 9.47451ZM8.14464 8.33712C7.64361 4.47496 3.1464 4.65619 2.82646 7.24346C2.63933 8.75583 3.44219 9.32453 3.44219 9.32453C4.49254 7.32471 7.25124 7.66218 8.14464 8.33712Z"/>
    </svg>

    <svg id="icq" viewBox="0 0 18 18" xmlns="http://www.w3.org/2000/svg">
        <g clip-path="url(#clip0_4196_87068)">
            <path d="M11.5539 0.0996729C10.9869 0.0524229 10.4469 0.167173 9.91889 0.449923C9.21389 0.827173 8.71139 1.40617 8.48489 2.15992V2.21017L8.45864 2.38642L8.35814 2.21017L8.10689 1.75792C7.70489 1.13017 7.20239 0.752923 6.57389 0.577423C6.02189 0.452923 5.56889 0.504673 5.09189 0.757423C4.56314 1.08442 4.26239 1.58692 4.13639 2.29117C4.01039 3.02017 4.13639 3.72367 4.51289 4.42642L4.68989 4.67842L4.08464 4.47817C3.33089 4.30117 2.62664 4.40017 1.92239 4.77817C1.19339 5.15242 0.741887 5.68192 0.440387 6.41242C0.162887 7.11592 0.188387 7.79467 0.540137 8.42242C0.691637 8.69992 0.918137 8.92492 1.11914 9.07642C1.42064 9.37792 1.79789 9.55342 2.25014 9.62842L2.42564 9.67792L2.04914 10.0064C1.69664 10.3079 1.49564 10.6837 1.36964 11.0609C1.24364 11.5132 1.29464 11.9662 1.54664 12.3937C1.67414 12.5947 1.79714 12.7709 1.99814 12.8962C2.19914 13.0724 2.45114 13.1984 2.75264 13.2232C3.30614 13.3507 3.88364 13.3492 4.51214 13.1482L4.05914 13.9019L3.93314 14.2289C3.68189 15.0344 3.75839 15.7364 4.13564 16.4662C4.31189 16.7437 4.51064 16.9949 4.71314 17.2207C5.01314 17.4967 5.39264 17.6722 5.84564 17.7982C6.59864 17.9992 7.35314 17.9752 8.08064 17.5979C8.78564 17.2207 9.23789 16.6154 9.46439 15.8617L9.48839 15.7117C9.96614 16.2389 10.4184 16.5914 10.9224 16.7167C11.4249 16.8682 11.9274 16.8442 12.3804 16.5419C12.8079 16.2907 13.1101 15.8624 13.2609 15.3344C13.3869 14.7809 13.3869 14.2289 13.2609 13.6004C13.5121 13.7767 13.7634 13.9004 14.0649 13.9769C14.8696 14.2282 15.5724 14.2019 16.2774 13.8269C16.9554 13.4489 17.4084 12.8459 17.6349 12.0667C17.8359 11.3129 17.7864 10.5839 17.4099 9.87967L17.2824 9.67717C17.0821 9.37567 16.8796 9.07417 16.5774 8.87317C16.3269 8.69692 16.0261 8.57167 15.7494 8.44567C16.5294 8.06842 17.0814 7.54042 17.3319 6.86167C17.5089 6.30817 17.4594 5.85517 17.2066 5.40292V5.35342C16.9051 4.85092 16.5039 4.52467 15.8754 4.34842C15.4981 4.27342 15.0714 4.27192 14.6949 4.29742L13.8639 4.47367L14.1414 3.84517C14.3919 3.04042 14.3176 2.26117 13.8901 1.53217L13.8151 1.40467C13.4379 0.776173 12.8851 0.399673 12.1306 0.199423C11.9356 0.149173 11.7429 0.114673 11.5539 0.0996729ZM11.1264 1.16017C11.3686 1.13767 11.6139 1.16917 11.8516 1.25767C12.3796 1.38217 12.7569 1.65817 12.9841 2.08567V2.08792C13.1101 2.33917 13.1844 2.63992 13.1844 2.96692L13.1094 3.52042C13.0089 3.79792 12.8829 4.04767 12.7321 4.27342L10.4701 7.04092C10.2451 6.86467 9.99239 6.73867 9.74114 6.61342L9.48914 3.77092L9.46439 2.76592L9.48839 2.51467C9.61439 2.01217 9.96689 1.63492 10.4184 1.38367C10.6449 1.25767 10.8834 1.18192 11.1264 1.16017ZM5.96414 1.56292C6.06464 1.55992 6.17114 1.58542 6.27164 1.63492C6.72389 1.76092 7.10114 2.08717 7.40264 2.71492C7.53014 2.96692 7.65464 3.21742 7.70489 3.51967L8.20739 6.48742L7.82939 6.61342L5.59214 4.17442L5.46614 3.92392C5.26364 3.47092 5.13989 3.04417 5.19014 2.59117V2.58967C5.21564 2.13742 5.39114 1.83742 5.69264 1.66117C5.76764 1.59817 5.86289 1.56592 5.96264 1.56367L5.96414 1.56292ZM15.0616 5.33767C15.1741 5.33767 15.2844 5.34292 15.3976 5.35567C15.8251 5.40667 16.1266 5.60842 16.2774 5.91067L16.3786 6.23542L16.3284 6.48667C16.1529 6.93892 15.7749 7.29217 15.1471 7.56817C14.8959 7.69417 14.6199 7.74442 14.3184 7.79317L11.2261 8.17042L11.1759 7.99417L11.1249 7.91917L11.2261 7.79392L13.7664 5.68192L14.0664 5.55742L14.0679 5.55592C14.4054 5.40592 14.7316 5.34142 15.0639 5.33842L15.0616 5.33767ZM3.46589 5.47492C3.58589 5.48092 3.70889 5.49967 3.83339 5.53117V5.53267L4.51439 5.80792L6.72689 7.41817C6.52439 7.67017 6.40064 7.92067 6.32489 8.17192L2.70389 8.62417L2.45339 8.57467C2.00114 8.49967 1.69814 8.29717 1.49639 7.92217C1.29389 7.54492 1.29614 7.16767 1.44689 6.78967C1.62314 6.31267 1.94939 5.93467 2.42639 5.73442C2.76614 5.54542 3.10514 5.45467 3.46589 5.47492ZM8.83589 7.49242C9.28889 7.49242 9.71714 7.66942 9.99389 7.94542C10.3464 8.29792 10.4964 8.67517 10.4964 9.12742C10.4964 9.57967 10.3464 10.0064 9.99389 10.3079C9.66689 10.6349 9.28889 10.8104 8.83664 10.8104C8.35964 10.8104 7.95914 10.6342 7.65689 10.3079C7.32989 10.0064 7.15439 9.58042 7.15439 9.12742C7.15439 8.67517 7.32989 8.29717 7.65689 7.94542C7.95839 7.66792 8.35964 7.49242 8.83739 7.49242H8.83589ZM15.1471 9.42742L15.3991 9.45367C15.7771 9.57967 16.1289 9.80467 16.3291 10.1812C16.5811 10.4587 16.7064 10.8359 16.7064 11.2634L16.6314 11.7659C16.5061 12.2684 16.2039 12.6457 15.7764 12.8459C15.3241 13.0979 14.8711 13.1482 14.3686 12.9734C14.0671 12.8984 13.8661 12.7724 13.6906 12.5714L11.0506 10.3829L11.2269 10.0064L11.3019 9.70417L14.1429 9.45292L15.1479 9.42667L15.1471 9.42742ZM10.1701 11.2634L11.2254 12.3434L11.8779 13.1482L12.0054 13.4009C12.2304 13.8284 12.3564 14.2297 12.3054 14.7074C12.2559 15.1589 12.1051 15.4859 11.8029 15.6119C11.6274 15.7379 11.4264 15.7394 11.2254 15.7132C10.7476 15.5887 10.3704 15.2122 10.0944 14.6084L9.79214 13.7774L9.41564 11.5897L9.84164 11.4397L10.1686 11.2634H10.1701ZM7.45514 11.3144C7.70564 11.4397 7.95764 11.5649 8.23514 11.5897C8.28464 12.4447 8.35889 13.3499 8.48414 14.3302V15.3367L8.45939 15.5864C8.28239 16.0387 7.98089 16.4167 7.52939 16.6177C7.07639 16.8689 6.59939 16.9192 6.14564 16.7939C5.64314 16.6687 5.26589 16.3664 5.06564 15.9644C4.93814 15.7132 4.83764 15.4094 4.83764 15.1094L4.96514 14.5319C5.01464 14.2807 5.14139 14.0294 5.34239 13.8269L7.45439 11.3144H7.45514Z"/>
        </g>
        <defs>
            <clipPath id="clip0_4196_87068">
                <rect width="18" height="18" fill="white"/>
            </clipPath>
        </defs>
    </svg>

    <svg id="skype" viewBox="0 0 18 18" xmlns="http://www.w3.org/2000/svg">
        <path fill-rule="evenodd" clip-rule="evenodd" d="M5.61202 0.75C6.52693 0.75 7.41526 1.00466 8.17983 1.47424C8.452 1.44542 8.72605 1.4309 9.00083 1.4309C10.0121 1.4309 11.0135 1.62761 11.9478 2.00979C12.8821 2.39197 13.731 2.95213 14.4461 3.65831C15.1612 4.36449 15.7284 5.20284 16.1154 6.1255C16.5024 7.04816 16.7016 8.03707 16.7016 9.03575C16.7016 9.39065 16.6764 9.74432 16.6266 10.0942C16.7211 10.2603 16.8057 10.4321 16.8798 10.6088C17.1242 11.1915 17.25 11.8161 17.25 12.4469C17.25 13.0776 17.1242 13.7022 16.8798 14.2849C16.6354 14.8677 16.2771 15.3972 15.8255 15.8432C15.3738 16.2892 14.8377 16.643 14.2476 16.8844C13.6575 17.1258 13.025 17.25 12.3863 17.25C11.5114 17.25 10.6608 17.0172 9.91937 16.5863C9.61518 16.6224 9.30846 16.6406 9.00083 16.6406C7.98956 16.6406 6.98818 16.4439 6.05389 16.0617C5.11959 15.6795 4.27067 15.1194 3.55559 14.4132C2.84051 13.707 2.27328 12.8687 1.88628 11.946C1.49928 11.0233 1.30009 10.0344 1.30009 9.03575C1.30009 8.66181 1.32802 8.28925 1.38327 7.92102C0.971793 7.20479 0.75 6.38944 0.75 5.5515C0.75 4.27806 1.26225 3.05678 2.17405 2.15633C3.08586 1.25587 4.32253 0.75 5.61202 0.75ZM6.07663 7.97865C6.26455 8.29738 6.52424 8.56881 6.83543 8.77175C7.24775 9.03906 7.68605 9.26477 8.14378 9.4455C8.65557 9.65743 9.05264 9.8371 9.335 9.9845C9.57375 10.1009 9.79045 10.2571 9.97557 10.4465C10.1156 10.5938 10.1935 10.7886 10.1932 10.991C10.1992 11.1337 10.1708 11.2758 10.1104 11.4055C10.05 11.5352 9.95922 11.6488 9.84568 11.7368C9.54238 11.939 9.17952 12.0349 8.81488 12.0091C8.60869 12.0112 8.40292 11.9901 8.20151 11.9464C8.03816 11.9108 7.87839 11.8607 7.72413 11.7968C7.58906 11.7388 7.40458 11.6519 7.17071 11.536C6.98262 11.4366 6.77326 11.3833 6.56011 11.3804C6.36881 11.3727 6.18181 11.438 6.03777 11.563C5.96907 11.6278 5.91537 11.7066 5.88039 11.794C5.84541 11.8813 5.82998 11.9752 5.83516 12.069C5.83086 12.2469 5.88502 12.4214 5.98948 12.5662C6.1153 12.7242 6.27798 12.8495 6.46352 12.9314C7.1893 13.2431 7.97606 13.3906 8.76659 13.3632C9.34186 13.3746 9.91443 13.2822 10.4563 13.0904C10.9059 12.9322 11.2973 12.6443 11.5803 12.2637C11.8582 11.8617 11.999 11.3822 11.9822 10.8953C11.993 10.4976 11.8925 10.1047 11.6919 9.7601C11.4882 9.43222 11.2137 9.1531 10.8881 8.9428C10.476 8.67934 10.0387 8.45662 9.58257 8.27785C9.53381 8.25418 9.48334 8.23414 9.43158 8.2179C8.9642 8.0265 8.61264 7.87287 8.37691 7.757C8.16646 7.65925 7.97588 7.5241 7.81461 7.35825C7.67889 7.21707 7.60403 7.02906 7.6059 6.8341C7.59939 6.6856 7.63326 6.5381 7.70396 6.40701C7.77465 6.27591 7.87958 6.16603 8.00778 6.08885C8.31158 5.90939 8.66126 5.82076 9.01471 5.83365C9.2859 5.83084 9.55624 5.86413 9.81848 5.93265C10.1034 6.01405 10.3821 6.11513 10.6528 6.23515C10.7626 6.28563 10.882 6.31226 11.003 6.31325C11.091 6.31556 11.1785 6.29941 11.2597 6.26585C11.3409 6.2323 11.4141 6.1821 11.4743 6.11855C11.538 6.04959 11.5873 5.96887 11.6195 5.88102C11.6517 5.79316 11.6661 5.69988 11.6619 5.6065C11.6648 5.42676 11.6014 5.25215 11.4837 5.11535C11.324 4.94908 11.1259 4.82375 10.9065 4.75015C10.6675 4.66319 10.4203 4.6 10.1687 4.5615C9.81722 4.50437 9.46139 4.47732 9.10519 4.48065C8.56076 4.47746 8.01988 4.56771 7.50654 4.7474C7.03454 4.90529 6.61318 5.18425 6.28534 5.5559C5.96988 5.92599 5.80309 6.39827 5.81685 6.8825C5.80565 7.26406 5.8952 7.64191 6.07663 7.97865Z"/>
    </svg>

    <svg id="viber" viewBox="0 0 18 18" xmlns="http://www.w3.org/2000/svg">
        <path d="M11.1375 7.25203C11.1433 7.37761 11.0497 7.48434 10.9283 7.49042C10.8069 7.49649 10.7037 7.3996 10.6978 7.27401C10.6615 6.49597 10.3121 6.12271 9.58997 6.08302C9.46861 6.07635 9.37544 5.96916 9.38189 5.8436C9.38834 5.71804 9.49195 5.62167 9.61332 5.62834C10.5636 5.68056 11.0903 6.24328 11.1375 7.25203Z"/>
        <path d="M12.0406 7.8823C12.1622 7.88516 12.2629 7.78557 12.2657 7.65987C12.2852 6.77001 12.0276 6.01868 11.4923 5.4154C10.9561 4.81104 10.2165 4.4764 9.28041 4.40763C9.15917 4.39873 9.05391 4.49318 9.04531 4.6186C9.0367 4.74402 9.128 4.85291 9.24923 4.86181C10.0784 4.92272 10.7122 5.20949 11.1681 5.7233C11.6243 6.23755 11.8427 6.87427 11.8256 7.64952C11.8229 7.77523 11.9191 7.87944 12.0406 7.8823Z"/>
        <path d="M13.4224 8.12031C13.4233 8.24604 13.3255 8.34873 13.204 8.34966C13.0825 8.35061 12.9832 8.24944 12.9823 8.12371C12.9723 6.73829 12.577 5.66138 11.798 4.8734C11.0163 4.08523 10.0446 3.68697 8.87697 3.67924C8.75543 3.67844 8.65753 3.57586 8.65831 3.45013C8.65909 3.3244 8.75824 3.22312 8.87978 3.22393C10.1593 3.23239 11.2406 3.67555 12.1055 4.54758C12.9735 5.42554 13.4116 6.61929 13.4224 8.12031Z"/>
        <path d="M10.1213 10.1263C9.95676 10.3397 9.64604 10.3127 9.64604 10.3127C7.38482 9.71573 6.77905 7.34676 6.77905 7.34676C6.77905 7.34676 6.75294 7.02801 6.95921 6.85513L7.36654 6.52018C7.57021 6.35811 7.69815 5.96643 7.49188 5.58285C7.37699 5.36946 7.14721 4.98858 6.97749 4.74817C6.79732 4.49426 6.37955 3.97562 6.37694 3.97292C6.17588 3.72441 5.87822 3.66768 5.56488 3.83516C5.56488 3.83516 5.56227 3.83786 5.55966 3.83786C5.26199 4.01074 4.98522 4.24304 4.72672 4.53748L4.7215 4.54288C4.52827 4.78329 4.416 5.021 4.38989 5.2533C4.38466 5.28032 4.38205 5.31543 4.38466 5.35595C4.38205 5.4586 4.39772 5.55854 4.42905 5.65849L4.4395 5.66659C4.53611 6.02586 4.78155 6.62283 5.31161 7.61958C5.65627 8.26517 6.00877 8.80542 6.35866 9.25923C6.54144 9.49963 6.75032 9.74545 6.99055 9.99666L7.08455 10.0939C7.32738 10.3424 7.56499 10.5585 7.79738 10.7476C8.23604 11.1096 8.75565 11.4742 9.38232 11.8308C10.3458 12.3791 10.9229 12.6331 11.2701 12.733L11.278 12.7438C11.3746 12.7762 11.4712 12.7897 11.5704 12.7897C11.6096 12.7924 11.6435 12.7897 11.6696 12.7843C11.8942 12.7573 12.124 12.6412 12.3564 12.4413L12.3616 12.4359C12.6462 12.1684 12.8708 11.8794 13.0379 11.5742C13.0379 11.5742 13.0405 11.5715 13.0405 11.5688C13.2024 11.2446 13.1475 10.9367 12.9073 10.7287C12.9073 10.7287 12.4034 10.2938 12.1579 10.1074C11.9281 9.93183 11.5574 9.69683 11.3511 9.57527C10.9803 9.36187 10.6017 9.49423 10.445 9.70493L10.1213 10.1263Z"/>
        <path fill-rule="evenodd" clip-rule="evenodd" d="M9.31704 0.0129205C13.2076 0.0318291 14.9544 1.34463 15.3879 1.75521C16.8214 3.0437 17.6177 5.9016 17.0825 10.4154C16.6116 14.4035 13.9226 15.111 13.0205 15.3484C12.9322 15.3716 12.861 15.3904 12.8107 15.4072C12.5679 15.4883 10.4189 16.0447 7.62765 15.8016C7.31954 16.1717 6.9096 16.6579 6.61455 16.9874C6.52541 17.0868 6.44195 17.1849 6.3622 17.2786C5.95836 17.7533 5.64941 18.1164 5.17844 17.9653C4.71105 17.8167 4.73716 17.082 4.73716 17.082L4.73977 15.2695H4.73716C0.653396 14.0809 0.713451 9.70223 0.760451 7.36296C0.80484 5.0237 1.24351 3.13824 2.489 1.84976C4.72672 -0.27341 9.31704 0.0129205 9.31704 0.0129205ZM12.5573 14.0858C13.324 13.9018 15.4651 13.3877 15.8605 10.0912C16.3122 6.32029 15.6934 3.74602 14.4818 2.66823C14.1162 2.32517 12.5391 1.30141 9.24654 1.2852C9.24654 1.2852 5.34816 1.02048 3.45511 2.79248C2.40284 3.86757 2.04773 5.4667 2.00856 7.41969L2.00429 7.61863C1.9601 9.61584 1.88222 13.1358 5.22022 14.0944C5.22022 14.0944 5.20716 16.8632 5.20455 17.1063C5.20455 17.2765 5.23066 17.3926 5.32466 17.4169C5.39255 17.4358 5.49438 17.398 5.58055 17.3089C6.13149 16.7335 7.89921 14.5293 7.89921 14.5293C10.2701 14.6914 12.1553 14.2052 12.359 14.1376C12.4059 14.1222 12.4734 14.106 12.5573 14.0858Z"/>
    </svg>

    <svg id="whatsapp" viewBox="0 0 18 18" xmlns="http://www.w3.org/2000/svg">
        <path d="M6.49657 5.16231C6.64221 5.16827 6.80334 5.1751 6.95644 5.5154C7.06106 5.74804 7.2371 6.18176 7.3774 6.52739C7.48078 6.78208 7.56474 6.98895 7.58642 7.03231C7.63752 7.1345 7.67156 7.25383 7.60344 7.3903C7.59325 7.4107 7.58381 7.42995 7.5748 7.44834C7.5236 7.55283 7.48599 7.62961 7.39929 7.73108C7.36531 7.77075 7.33018 7.81348 7.29505 7.85621C7.22451 7.94201 7.15396 8.02783 7.09271 8.08895C6.9902 8.19083 6.88373 8.30153 7.00295 8.50592C7.1222 8.7105 7.53234 9.37943 8.13986 9.92106C8.79248 10.503 9.35944 10.7491 9.64734 10.8741C9.70389 10.8986 9.74967 10.9185 9.78323 10.9353C9.98761 11.0375 10.1068 11.0205 10.226 10.8839C10.3453 10.7476 10.7367 10.2874 10.873 10.0831C11.0092 9.87848 11.1455 9.91255 11.3328 9.98067C11.5202 10.0488 12.5248 10.5432 12.7292 10.6454C12.7691 10.6654 12.8063 10.6833 12.8409 10.7C12.9835 10.7688 13.0798 10.8153 13.1209 10.8839C13.172 10.9694 13.172 11.3784 13.0017 11.8555C12.8314 12.3327 11.9971 12.7929 11.6224 12.827C11.5863 12.8302 11.5505 12.8344 11.5136 12.8388C11.1673 12.8795 10.7302 12.9309 9.17007 12.3157C7.25032 11.5586 5.98453 9.68252 5.72302 9.29493C5.70157 9.26314 5.68688 9.24137 5.67914 9.23104L5.67686 9.228C5.56667 9.08073 4.84469 8.11587 4.84469 7.11748C4.84469 6.17637 5.30729 5.68305 5.52013 5.45607C5.53468 5.44056 5.54806 5.42629 5.56004 5.41321C5.74725 5.2087 5.9687 5.15753 6.10493 5.15753C6.1124 5.15753 6.11987 5.15753 6.12733 5.15753C6.25599 5.15751 6.384 5.1575 6.49657 5.16231Z"/>
        <path fill-rule="evenodd" clip-rule="evenodd" d="M1.9215 13.0095C1.1955 11.772 0.816 10.3695 0.816 8.9175C0.816 4.413 4.49549 0.75 8.99998 0.75C11.1945 0.75 13.2405 1.608 14.7915 3.1425C16.326 4.6935 17.184 6.7395 17.184 8.934C17.184 13.4385 13.5045 17.1015 8.99998 17.1015C7.63049 17.1015 6.27749 16.7715 5.08949 16.1115L0.75 17.25L1.9215 13.0095ZM3.24149 12.5475L3.40649 12.795L2.7135 15.303L5.28749 14.6265L5.53499 14.775C6.57449 15.402 7.77899 15.732 8.99998 15.732C12.7455 15.732 15.798 12.6795 15.798 8.934C15.798 7.119 15.0885 5.403 13.8015 4.116C12.531 2.8455 10.815 2.136 8.99998 2.136C5.25449 2.136 2.202 5.172 2.202 8.934C2.202 10.2045 2.565 11.4585 3.24149 12.5475Z"/>
    </svg>

    <svg id="ins" viewBox="0 0 20 20" xmlns="http://www.w3.org/2000/svg">
        <g clip-path="url(#clip0_4305_131341)">
            <path fill-rule="evenodd" clip-rule="evenodd" d="M5.87727 0.06C6.94364 0.0109091 7.28364 0 10 0C12.7164 0 13.0564 0.0118182 14.1218 0.06C15.1873 0.108182 15.9145 0.278182 16.5509 0.524545C17.2173 0.776364 17.8218 1.17 18.3218 1.67909C18.8309 2.17818 19.2236 2.78182 19.4745 3.44909C19.7218 4.08545 19.8909 4.81273 19.94 5.87636C19.9891 6.94455 20 7.28454 20 10C20 12.7164 19.9882 13.0564 19.94 14.1227C19.8918 15.1864 19.7218 15.9136 19.4745 16.55C19.2236 17.2174 18.8303 17.822 18.3218 18.3218C17.8218 18.8309 17.2173 19.2236 16.5509 19.4745C15.9145 19.7218 15.1873 19.8909 14.1236 19.94C13.0564 19.9891 12.7164 20 10 20C7.28364 20 6.94364 19.9882 5.87727 19.94C4.81364 19.8918 4.08636 19.7218 3.45 19.4745C2.78265 19.2236 2.17802 18.8302 1.67818 18.3218C1.16944 17.8224 0.775741 17.2181 0.524545 16.5509C0.278182 15.9145 0.109091 15.1873 0.06 14.1236C0.0109091 13.0555 0 12.7155 0 10C0 7.28364 0.0118182 6.94364 0.06 5.87818C0.108182 4.81273 0.278182 4.08545 0.524545 3.44909C0.776112 2.78189 1.17011 2.17756 1.67909 1.67818C2.17822 1.16955 2.78225 0.775858 3.44909 0.524545C4.08545 0.278182 4.81273 0.109091 5.87636 0.06H5.87727ZM14.0409 1.86C12.9864 1.81182 12.67 1.80182 10 1.80182C7.33 1.80182 7.01364 1.81182 5.95909 1.86C4.98364 1.90455 4.45455 2.06727 4.10182 2.20455C3.63545 2.38636 3.30182 2.60182 2.95182 2.95182C2.62004 3.27459 2.36471 3.66753 2.20455 4.10182C2.06727 4.45455 1.90455 4.98364 1.86 5.95909C1.81182 7.01364 1.80182 7.33 1.80182 10C1.80182 12.67 1.81182 12.9864 1.86 14.0409C1.90455 15.0164 2.06727 15.5455 2.20455 15.8982C2.36455 16.3318 2.62 16.7255 2.95182 17.0482C3.27455 17.38 3.66818 17.6355 4.10182 17.7955C4.45455 17.9327 4.98364 18.0955 5.95909 18.14C7.01364 18.1882 7.32909 18.1982 10 18.1982C12.6709 18.1982 12.9864 18.1882 14.0409 18.14C15.0164 18.0955 15.5455 17.9327 15.8982 17.7955C16.3645 17.6136 16.6982 17.3982 17.0482 17.0482C17.38 16.7255 17.6355 16.3318 17.7955 15.8982C17.9327 15.5455 18.0955 15.0164 18.14 14.0409C18.1882 12.9864 18.1982 12.67 18.1982 10C18.1982 7.33 18.1882 7.01364 18.14 5.95909C18.0955 4.98364 17.9327 4.45455 17.7955 4.10182C17.6136 3.63545 17.3982 3.30182 17.0482 2.95182C16.7254 2.62006 16.3325 2.36474 15.8982 2.20455C15.5455 2.06727 15.0164 1.90455 14.0409 1.86ZM8.72273 13.0827C9.43605 13.3797 10.2303 13.4197 10.9699 13.1961C11.7095 12.9725 12.3485 12.499 12.7778 11.8566C13.2071 11.2142 13.4 10.4426 13.3237 9.67373C13.2473 8.90485 12.9064 8.18634 12.3591 7.64091C12.0102 7.29225 11.5884 7.02528 11.1239 6.85922C10.6595 6.69316 10.164 6.63215 9.67318 6.68056C9.18233 6.72897 8.70832 6.88562 8.28528 7.13921C7.86223 7.3928 7.50068 7.73704 7.22664 8.14714C6.9526 8.55723 6.7729 9.02299 6.70047 9.51087C6.62804 9.99876 6.66468 10.4966 6.80776 10.9687C6.95084 11.4407 7.1968 11.8751 7.52793 12.2407C7.85905 12.6062 8.26711 12.8938 8.72273 13.0827ZM6.36545 6.36545C6.84275 5.88816 7.40938 5.50955 8.033 5.25124C8.65661 4.99293 9.325 4.85998 10 4.85998C10.675 4.85998 11.3434 4.99293 11.967 5.25124C12.5906 5.50955 13.1572 5.88816 13.6345 6.36545C14.1118 6.84275 14.4905 7.40938 14.7488 8.033C15.0071 8.65661 15.14 9.325 15.14 10C15.14 10.675 15.0071 11.3434 14.7488 11.967C14.4905 12.5906 14.1118 13.1572 13.6345 13.6345C12.6706 14.5985 11.3632 15.14 10 15.14C8.63678 15.14 7.3294 14.5985 6.36545 13.6345C5.40151 12.6706 4.85998 11.3632 4.85998 10C4.85998 8.63678 5.40151 7.3294 6.36545 6.36545ZM16.28 5.62545C16.3983 5.51388 16.493 5.37971 16.5585 5.23089C16.624 5.08206 16.6589 4.92161 16.6613 4.75903C16.6637 4.59645 16.6334 4.43504 16.5723 4.28437C16.5111 4.1337 16.4204 3.99683 16.3054 3.88185C16.1904 3.76688 16.0536 3.67614 15.9029 3.61502C15.7522 3.55389 15.5908 3.52361 15.4282 3.52598C15.2657 3.52835 15.1052 3.56332 14.9564 3.62881C14.8076 3.69431 14.6734 3.789 14.5618 3.90727C14.3448 4.1373 14.226 4.44284 14.2306 4.75903C14.2352 5.07522 14.3629 5.37716 14.5865 5.60077C14.8101 5.82437 15.1121 5.95203 15.4282 5.95663C15.7444 5.96124 16.05 5.84244 16.28 5.62545Z"/>
        </g>
        <defs>
            <clipPath id="clip0_4305_131341">
                <rect width="20" height="20" fill="white"/>
            </clipPath>
        </defs>
    </svg>

    <svg id="vk" viewBox="0 0 24 16" xmlns="http://www.w3.org/2000/svg">
        <path d="M13.0718 15.4114C4.87188 15.4114 0.194878 9.84703 0 0.587891H4.10743C4.24235 7.38386 7.27038 10.2625 9.66888 10.856V0.587891H13.5366V6.44905C15.9051 6.19679 18.3933 3.52589 19.2328 0.587891H23.1004C22.4558 4.20845 19.7575 6.87936 17.8387 7.9774C19.7575 8.8677 22.8307 11.1973 24 15.4114H19.7425C18.8281 12.5921 16.5497 10.4109 13.5366 10.1141V15.4114H13.0718Z"/>
    </svg>

    <svg id="fb" viewBox="0 0 24 24" xmlns="http://www.w3.org/2000/svg">
        <path fill-rule="evenodd" clip-rule="evenodd" d="M13.9017 23.8501C19.6254 22.9388 24 17.9803 24 12C24 5.37258 18.6274 0 12 0C5.37258 0 0 5.37258 0 12C0 17.9797 4.37372 22.9378 10.0966 23.8499C10.0854 23.8221 10.0792 23.7918 10.0792 23.76V15.6C10.0792 15.4675 9.97177 15.36 9.83922 15.36H7.43922C7.30667 15.36 7.19922 15.2526 7.19922 15.12V12.24C7.19922 12.1075 7.30667 12 7.43922 12H9.83922C9.97177 12 10.0792 11.8926 10.0792 11.76V8.64005C10.0792 7.20005 11.6152 4.80005 13.9192 4.80005H17.0393C17.1718 4.80005 17.2792 4.9075 17.2792 5.04005V7.92005C17.2792 8.0526 17.1718 8.16005 17.0392 8.16005H15.5992C15.1192 8.16005 13.9192 8.64005 13.9192 9.60005V11.7602C13.9192 11.8928 14.0267 12 14.1592 12H16.5592C16.6918 12 16.7992 12.1075 16.7992 12.24V15.12C16.7992 15.2526 16.6918 15.36 16.5592 15.36H14.1592C14.0267 15.36 13.9192 15.4675 13.9192 15.6V23.76C13.9192 23.7919 13.913 23.8223 13.9017 23.8501Z"/>
    </svg>

    <svg id="tw" viewBox="0 0 24 24" xmlns="http://www.w3.org/2000/svg">
        <g clip-path="url(#clip0_6835_98130)">
            <path d="M13.4958 10.5645L20.3959 2.54395H18.7608L12.7694 9.5081L7.98412 2.54395H2.46484L9.70115 13.075L2.46484 21.4858H4.10005L10.4271 14.1314L15.4807 21.4858H21L13.4954 10.5645H13.4958ZM11.2561 13.1678L10.523 12.1191L4.68923 3.77486H7.20081L11.9087 10.5089L12.6419 11.5576L18.7616 20.3109H16.25L11.2561 13.1682V13.1678Z"/>
        </g>
        <defs>
            <clipPath id="clip0_6835_98130">
                <rect width="18.5352" height="18.9516" fill="white" transform="translate(2.46875 2.54395)"/>
            </clipPath>
        </defs>
    </svg>

    <svg id="account" viewBox="0 0 21 20" xmlns="http://www.w3.org/2000/svg">
        <g clip-path="url(#clip0_9453_84341)">
            <mask id="mask0_9453_84341" style="mask-type:alpha" maskUnits="userSpaceOnUse" x="0" y="0" width="21" height="20">
                <rect x="0.5" width="20" height="20" fill="#ffffff"/>
            </mask>
            <g mask="url(#mask0_9453_84341)">
                <path d="M5.67629 14.2124C6.43752 13.7076 7.20942 13.3363 7.992 13.0986C8.77459 12.8609 9.61059 12.742 10.5 12.742C11.3894 12.742 12.2254 12.8609 13.008 13.0986C13.7906 13.3363 14.5638 13.7076 15.3277 14.2124C15.8614 13.6274 16.2595 12.978 16.522 12.264C16.7846 11.5501 16.9159 10.7949 16.9159 9.99848C16.9159 8.21662 16.2918 6.7021 15.0437 5.45492C13.7956 4.20773 12.2794 3.58413 10.4952 3.58413C8.71102 3.58413 7.19645 4.20773 5.95152 5.45492C4.70659 6.7021 4.08413 8.21662 4.08413 9.99848C4.08413 10.7949 4.21541 11.5501 4.47796 12.264C4.74052 12.978 5.13996 13.6274 5.67629 14.2124ZM10.5023 11.258C9.73475 11.258 9.0828 10.9906 8.54648 10.4558C8.01016 9.92104 7.742 9.26987 7.742 8.50232C7.742 7.73475 8.0094 7.0828 8.54419 6.54648C9.07897 6.01016 9.73014 5.742 10.4977 5.742C11.2653 5.742 11.9172 6.0094 12.4535 6.54419C12.9898 7.07897 13.258 7.73013 13.258 8.49769C13.258 9.26526 12.9906 9.9172 12.4558 10.4535C11.921 10.9898 11.2699 11.258 10.5023 11.258ZM10.5058 17.415C9.48453 17.415 8.52263 17.2225 7.62004 16.8374C6.71748 16.4524 5.92843 15.9214 5.2529 15.2445C4.57737 14.5676 4.04717 13.7787 3.66229 12.8777C3.27741 11.9767 3.08496 11.0143 3.08496 9.99046C3.08496 8.96286 3.2775 8.00192 3.66256 7.10763C4.04762 6.21334 4.5786 5.42843 5.2555 4.7529C5.93241 4.07737 6.72136 3.54717 7.62236 3.16229C8.52336 2.7774 9.48575 2.58496 10.5095 2.58496C11.5371 2.58496 12.4981 2.7775 13.3924 3.16256C14.2867 3.54762 15.0716 4.0786 15.7471 4.7555C16.4226 5.43241 16.9528 6.21907 17.3377 7.11548C17.7226 8.0119 17.915 8.97149 17.915 9.99425C17.915 11.0155 17.7225 11.9774 17.3374 12.88C16.9524 13.7825 16.4214 14.5716 15.7445 15.2471C15.0676 15.9226 14.2809 16.4528 13.3845 16.8377C12.4881 17.2226 11.5285 17.415 10.5058 17.415Z"/>
            </g>
        </g>
        <defs>
            <clipPath id="clip0_9453_84341">
                <rect width="20" height="20" fill="white" transform="translate(0.5)"/>
            </clipPath>
        </defs>
    </svg>

    <svg id="logout" viewBox="0 0 20 20" xmlns="http://www.w3.org/2000/svg">
        <g clip-path="url(#clip0_9453_84813)">
            <mask id="mask0_9453_84813" style="mask-type:alpha" maskUnits="userSpaceOnUse" x="0" y="0" width="20" height="20">
                <rect width="20" height="20" fill="#ffffff"/>
            </mask>
            <g mask="url(#mask0_9453_84813)">
                <path d="M4.83867 16.4992C4.49081 16.4992 4.19489 16.3772 3.95092 16.1332C3.70695 15.8893 3.58496 15.5927 3.58496 15.2436V4.84056C3.58496 4.49144 3.70695 4.19489 3.95092 3.95092C4.19489 3.70695 4.49081 3.58496 4.83867 3.58496H10.0248V4.58413H4.84057C4.77645 4.58413 4.71769 4.61084 4.66427 4.66427C4.61084 4.71769 4.58413 4.77645 4.58413 4.84056V15.2436C4.58413 15.3077 4.61084 15.3664 4.66427 15.4199C4.71769 15.4733 4.77645 15.5 4.84057 15.5H10.0248V16.4992H4.83867ZM13.6755 12.7796L12.9375 12.0993L14.4952 10.5416H8.13061V9.54248H14.4952L12.9375 7.9848L13.6755 7.30052L16.415 10.0401L13.6755 12.7796Z"/>
            </g>
        </g>
        <defs>
            <clipPath id="clip0_9453_84813">
                <rect width="20" height="20" fill="white"/>
            </clipPath>
        </defs>
    </svg>

    <svg id="register" viewBox="0 0 24 24" xmlns="http://www.w3.org/2000/svg">
        <g clip-path="url(#clip0_1754_144051)">
            <mask id="mask0_1754_144051" style="mask-type:alpha" maskUnits="userSpaceOnUse" x="0" y="0" width="24" height="24">
                <rect width="24" height="24" fill="#ffffff"/>
            </mask>
            <g mask="url(#mask0_1754_144051)">
                <path d="M17.7765 12.8894V10.8298H15.7169V9.63078H17.7765V7.57118H18.9755V9.63078H21.0352V10.8298H18.9755V12.8894H17.7765ZM9.61981 11.7125C8.77911 11.7125 8.0691 11.4228 7.48979 10.8435C6.91047 10.2642 6.62081 9.55418 6.62081 8.71348C6.62081 7.87278 6.91047 7.16277 7.48979 6.58345C8.0691 6.00414 8.77911 5.71448 9.61981 5.71448C10.4605 5.71448 11.1705 6.00414 11.7498 6.58345C12.3292 7.16277 12.6188 7.87278 12.6188 8.71348C12.6188 9.55418 12.3292 10.2642 11.7498 10.8435C11.1705 11.4228 10.4605 11.7125 9.61981 11.7125ZM3.10156 18.2452V16.6433C3.10156 16.3033 3.18743 15.9909 3.35916 15.706C3.53091 15.4211 3.77818 15.1863 4.10096 15.0017C4.96121 14.5138 5.85746 14.1373 6.78971 13.8724C7.72196 13.6075 8.66538 13.475 9.61996 13.475C10.5745 13.475 11.5183 13.6074 12.4512 13.8721C13.3841 14.1369 14.2803 14.5133 15.1398 15.0014C15.4622 15.186 15.7092 15.4208 15.8808 15.7057C16.0523 15.9907 16.138 16.3032 16.138 16.6433V18.2452H3.10156Z"/>
            </g>
        </g>
        <defs>
            <clipPath id="clip0_1754_144051">
                <rect width="24" height="24" fill="white"/>
            </clipPath>
        </defs>
    </svg>

    <svg id="youtube" viewBox="0 0 24 18" xmlns="http://www.w3.org/2000/svg">
        <path fill-rule="evenodd" clip-rule="evenodd" d="M21.3903 0.754209C22.4182 1.03106 23.2288 1.84148 23.5055 2.86962C24.0197 4.74754 23.9999 8.66195 23.9999 8.66195C23.9999 8.66195 23.9999 12.5564 23.5057 14.4345C23.2288 15.4625 22.4184 16.2731 21.3903 16.5497C19.5122 17.0441 12 17.0441 12 17.0441C12 17.0441 4.50731 17.0441 2.60961 16.5301C1.58148 16.2533 0.771054 15.4427 0.4942 14.4147C0 12.5564 0 8.64218 0 8.64218C0 8.64218 0 4.74754 0.4942 2.86962C0.770871 1.84167 1.60125 1.01129 2.60943 0.734617C4.48753 0.240234 11.9998 0.240234 11.9998 0.240234C11.9998 0.240234 19.5122 0.240234 21.3903 0.754209ZM15.8546 8.64218L9.60764 12.2402V5.04417L15.8546 8.64218Z"/>
    </svg>


</svg>
