<svg width="52" height="52" viewBox="0 0 52 52" fill="none" xmlns="http://www.w3.org/2000/svg">
<rect width="52" height="52" rx="26" fill="#4D7BF1"/>
<path d="M25.9212 33.2C24.9878 33.2 24.1812 33.0867 23.5012 32.86C22.8212 32.6333 22.2545 32.34 21.8012 31.98C21.3612 31.6067 21.0278 31.2067 20.8012 30.78C20.5745 30.34 20.4545 29.9067 20.4412 29.48C20.4412 29.36 20.4812 29.2667 20.5612 29.2C20.6545 29.12 20.7612 29.08 20.8812 29.08H22.6812C22.8145 29.08 22.9278 29.1067 23.0212 29.16C23.1145 29.2133 23.1945 29.32 23.2612 29.48C23.3812 29.84 23.5745 30.1267 23.8412 30.34C24.1212 30.5533 24.4412 30.7067 24.8012 30.8C25.1612 30.88 25.5412 30.92 25.9412 30.92C26.7412 30.92 27.3745 30.7333 27.8412 30.36C28.3212 29.9733 28.5612 29.4267 28.5612 28.72C28.5612 28.0133 28.3412 27.5067 27.9012 27.2C27.4612 26.88 26.8478 26.72 26.0612 26.72H24.0012C23.8545 26.72 23.7345 26.68 23.6412 26.6C23.5478 26.5067 23.5012 26.3867 23.5012 26.24V25.4C23.5012 25.2667 23.5278 25.1533 23.5812 25.06C23.6478 24.9533 23.7145 24.8667 23.7812 24.8L27.3612 21.3H21.6412C21.4945 21.3 21.3745 21.2533 21.2812 21.16C21.2012 21.0667 21.1612 20.9533 21.1612 20.82V19.5C21.1612 19.3533 21.2012 19.2333 21.2812 19.14C21.3745 19.0467 21.4945 19 21.6412 19H30.2212C30.3678 19 30.4878 19.0467 30.5812 19.14C30.6745 19.2333 30.7212 19.3533 30.7212 19.5V20.7C30.7212 20.82 30.6945 20.9267 30.6412 21.02C30.5878 21.1133 30.5278 21.1933 30.4612 21.26L27.0012 24.82L27.2412 24.84C28.0545 24.9067 28.7745 25.0933 29.4012 25.4C30.0412 25.6933 30.5345 26.1267 30.8812 26.7C31.2412 27.2733 31.4212 27.9933 31.4212 28.86C31.4212 29.7667 31.1812 30.5467 30.7012 31.2C30.2345 31.84 29.5878 32.3333 28.7612 32.68C27.9345 33.0267 26.9878 33.2 25.9212 33.2Z" fill="white"/>
</svg>
