<svg width="52" height="52" viewBox="0 0 52 52" fill="none" xmlns="http://www.w3.org/2000/svg">
<rect width="52" height="52" rx="26" fill="#4D7BF1"/>
<path d="M21.1886 33C21.0553 33 20.9419 32.9533 20.8486 32.86C20.7553 32.7667 20.7086 32.6533 20.7086 32.52V31.5C20.7086 31.38 20.7353 31.24 20.7886 31.08C20.8553 30.9067 20.9953 30.7333 21.2086 30.56L24.3686 27.42C25.2486 26.7267 25.9553 26.14 26.4886 25.66C27.0353 25.1667 27.4286 24.72 27.6686 24.32C27.9219 23.9067 28.0486 23.5 28.0486 23.1C28.0486 22.5 27.8819 22.0133 27.5486 21.64C27.2286 21.2667 26.7153 21.08 26.0086 21.08C25.5419 21.08 25.1486 21.18 24.8286 21.38C24.5086 21.5667 24.2553 21.82 24.0686 22.14C23.8953 22.46 23.7753 22.8133 23.7086 23.2C23.6819 23.3733 23.6086 23.4933 23.4886 23.56C23.3686 23.6267 23.2486 23.66 23.1286 23.66H21.3486C21.2286 23.66 21.1286 23.62 21.0486 23.54C20.9686 23.46 20.9286 23.3667 20.9286 23.26C20.9419 22.6867 21.0619 22.1333 21.2886 21.6C21.5153 21.0533 21.8419 20.5733 22.2686 20.16C22.7086 19.7333 23.2419 19.3933 23.8686 19.14C24.4953 18.8867 25.2019 18.76 25.9886 18.76C27.0953 18.76 28.0086 18.9467 28.7286 19.32C29.4619 19.6933 30.0086 20.2 30.3686 20.84C30.7419 21.48 30.9286 22.2 30.9286 23C30.9286 23.6267 30.8086 24.2067 30.5686 24.74C30.3286 25.26 29.9819 25.7667 29.5286 26.26C29.0753 26.74 28.5286 27.2333 27.8886 27.74L25.0486 30.62H30.7486C30.8953 30.62 31.0086 30.6667 31.0886 30.76C31.1819 30.84 31.2286 30.9533 31.2286 31.1V32.52C31.2286 32.6533 31.1819 32.7667 31.0886 32.86C31.0086 32.9533 30.8953 33 30.7486 33H21.1886Z" fill="white"/>
</svg>
