<svg width="52" height="52" viewBox="0 0 52 52" fill="none" xmlns="http://www.w3.org/2000/svg">
<rect width="52" height="52" rx="26" fill="#4D7BF1"/>
<path d="M26.9111 33C26.7644 33 26.6444 32.9533 26.5511 32.86C26.4711 32.7667 26.4311 32.6533 26.4311 32.52V22.16L23.3911 24.5C23.2711 24.58 23.1511 24.6133 23.0311 24.6C22.9111 24.5733 22.8044 24.5 22.7111 24.38L21.8711 23.3C21.7911 23.18 21.7578 23.0533 21.7711 22.92C21.7978 22.7867 21.8711 22.68 21.9911 22.6L26.4711 19.14C26.5511 19.0733 26.6311 19.0333 26.7111 19.02C26.7911 19.0067 26.8778 19 26.9711 19H28.7311C28.8644 19 28.9778 19.0467 29.0711 19.14C29.1644 19.2333 29.2111 19.3467 29.2111 19.48V32.52C29.2111 32.6533 29.1644 32.7667 29.0711 32.86C28.9778 32.9533 28.8644 33 28.7311 33H26.9111Z" fill="white"/>
</svg>
