<svg width="328" height="162" viewBox="0 0 328 162" fill="none" xmlns="http://www.w3.org/2000/svg">
<g clip-path="url(#clip0_5909_93253)">
<mask id="mask0_5909_93253" style="mask-type:alpha" maskUnits="userSpaceOnUse" x="122" y="0" width="84" height="84">
<rect width="84" height="84" transform="matrix(1 -1.74846e-07 -1.74846e-07 -1 122 84)" fill="#D9D9D9"/>
</mask>
<g mask="url(#mask0_5909_93253)">
<path d="M149.606 38.0191L169.731 17.8941L164 12.2504L134.25 42.0004L164 71.8379L169.731 66.1066L149.606 46.0254L193.837 46.0254L193.837 38.0191L149.606 38.0191Z" fill="#F3F3F3"/>
</g>
</g>
<path d="M97.0725 117C96.9552 117 96.8645 116.968 96.8005 116.904C96.7365 116.829 96.7045 116.739 96.7045 116.632V106.184C96.7045 106.067 96.7365 105.976 96.8005 105.912C96.8645 105.837 96.9552 105.8 97.0725 105.8H101.457C102.257 105.8 102.907 105.933 103.409 106.2C103.921 106.456 104.294 106.808 104.529 107.256C104.774 107.704 104.897 108.205 104.897 108.76C104.897 109.197 104.822 109.576 104.673 109.896C104.534 110.205 104.358 110.461 104.145 110.664C103.931 110.856 103.723 111.005 103.521 111.112C103.937 111.315 104.305 111.645 104.625 112.104C104.955 112.563 105.121 113.117 105.121 113.768C105.121 114.355 104.987 114.893 104.72 115.384C104.454 115.875 104.054 116.269 103.521 116.568C102.998 116.856 102.347 117 101.569 117H97.0725ZM98.2725 115.704H101.361C102.054 115.704 102.587 115.517 102.961 115.144C103.334 114.771 103.521 114.312 103.521 113.768C103.521 113.203 103.334 112.739 102.961 112.376C102.587 112.003 102.054 111.816 101.361 111.816H98.2725V115.704ZM98.2725 110.536H101.217C101.899 110.536 102.417 110.381 102.769 110.072C103.121 109.752 103.297 109.32 103.297 108.776C103.297 108.232 103.121 107.816 102.769 107.528C102.417 107.24 101.899 107.096 101.217 107.096H98.2725V110.536ZM107.552 117C107.445 117 107.355 116.968 107.28 116.904C107.216 116.829 107.184 116.739 107.184 116.632V109.048C107.184 108.941 107.216 108.856 107.28 108.792C107.355 108.717 107.445 108.68 107.552 108.68H108.32C108.427 108.68 108.512 108.717 108.576 108.792C108.651 108.856 108.688 108.941 108.688 109.048V111.4H110.352C111.44 111.4 112.235 111.656 112.736 112.168C113.237 112.68 113.488 113.373 113.488 114.248C113.488 115.187 113.211 115.88 112.656 116.328C112.101 116.776 111.269 117 110.16 117H107.552ZM108.672 115.8H110.208C110.859 115.8 111.333 115.688 111.632 115.464C111.931 115.229 112.08 114.824 112.08 114.248C112.08 113.693 111.936 113.283 111.648 113.016C111.36 112.739 110.88 112.6 110.208 112.6H108.672V115.8ZM114.992 117C114.885 117 114.795 116.968 114.72 116.904C114.656 116.829 114.624 116.739 114.624 116.632V109.048C114.624 108.941 114.656 108.856 114.72 108.792C114.795 108.717 114.885 108.68 114.992 108.68H115.76C115.867 108.68 115.952 108.717 116.016 108.792C116.091 108.856 116.128 108.941 116.128 109.048V116.632C116.128 116.739 116.091 116.829 116.016 116.904C115.952 116.968 115.867 117 115.76 117H114.992ZM122.032 117.16C121.211 117.16 120.523 117.005 119.968 116.696C119.424 116.376 119.008 115.928 118.72 115.352C118.443 114.765 118.293 114.088 118.272 113.32C118.261 113 118.256 112.68 118.256 112.36C118.256 112.04 118.261 111.72 118.272 111.4C118.272 110.429 118.352 109.624 118.512 108.984C118.672 108.344 118.912 107.821 119.232 107.416C119.563 107 119.979 106.659 120.48 106.392C120.981 106.125 121.573 105.896 122.256 105.704C122.939 105.501 123.717 105.288 124.592 105.064C124.688 105.043 124.779 105.059 124.864 105.112C124.96 105.165 125.013 105.24 125.024 105.336L125.152 105.992C125.173 106.088 125.157 106.173 125.104 106.248C125.061 106.323 124.992 106.371 124.896 106.392C124.096 106.595 123.397 106.771 122.8 106.92C122.203 107.069 121.701 107.245 121.296 107.448C120.891 107.64 120.565 107.891 120.32 108.2C120.075 108.509 119.904 108.92 119.808 109.432C119.723 109.944 119.696 110.6 119.728 111.4L119.376 111.256C119.429 110.861 119.595 110.504 119.872 110.184C120.16 109.853 120.517 109.587 120.944 109.384C121.371 109.181 121.824 109.08 122.304 109.08C123.04 109.08 123.659 109.235 124.16 109.544C124.672 109.853 125.061 110.275 125.328 110.808C125.605 111.341 125.76 111.955 125.792 112.648C125.813 113.011 125.813 113.325 125.792 113.592C125.76 114.285 125.6 114.904 125.312 115.448C125.024 115.981 124.608 116.403 124.064 116.712C123.52 117.011 122.843 117.16 122.032 117.16ZM122.032 115.976C122.704 115.976 123.237 115.768 123.632 115.352C124.027 114.936 124.235 114.328 124.256 113.528C124.267 113.421 124.272 113.299 124.272 113.16C124.272 113.021 124.267 112.877 124.256 112.728C124.235 111.917 124.027 111.304 123.632 110.888C123.248 110.472 122.763 110.264 122.176 110.264C121.504 110.264 120.949 110.472 120.512 110.888C120.075 111.304 119.84 111.917 119.808 112.728C119.797 112.877 119.792 113.021 119.792 113.16C119.792 113.299 119.797 113.421 119.808 113.528C119.84 114.328 120.053 114.936 120.448 115.352C120.843 115.768 121.371 115.976 122.032 115.976ZM131.121 117.16C130.022 117.16 129.148 116.824 128.497 116.152C127.846 115.469 127.489 114.541 127.425 113.368C127.414 113.229 127.409 113.053 127.409 112.84C127.409 112.616 127.414 112.435 127.425 112.296C127.468 111.539 127.644 110.877 127.953 110.312C128.262 109.736 128.684 109.293 129.217 108.984C129.761 108.675 130.396 108.52 131.121 108.52C131.932 108.52 132.609 108.691 133.153 109.032C133.708 109.373 134.129 109.859 134.417 110.488C134.705 111.117 134.849 111.853 134.849 112.696V112.968C134.849 113.085 134.812 113.176 134.737 113.24C134.673 113.304 134.588 113.336 134.481 113.336H128.945C128.945 113.347 128.945 113.368 128.945 113.4C128.945 113.432 128.945 113.459 128.945 113.48C128.966 113.917 129.062 114.328 129.233 114.712C129.404 115.085 129.649 115.389 129.969 115.624C130.289 115.859 130.673 115.976 131.121 115.976C131.505 115.976 131.825 115.917 132.081 115.8C132.337 115.683 132.545 115.555 132.705 115.416C132.865 115.267 132.972 115.155 133.025 115.08C133.121 114.941 133.196 114.861 133.249 114.84C133.302 114.808 133.388 114.792 133.505 114.792H134.273C134.38 114.792 134.465 114.824 134.529 114.888C134.604 114.941 134.636 115.021 134.625 115.128C134.614 115.288 134.529 115.485 134.369 115.72C134.209 115.944 133.98 116.168 133.681 116.392C133.382 116.616 133.02 116.803 132.593 116.952C132.166 117.091 131.676 117.16 131.121 117.16ZM128.945 112.232H133.329V112.184C133.329 111.704 133.238 111.277 133.057 110.904C132.886 110.531 132.636 110.237 132.305 110.024C131.974 109.8 131.58 109.688 131.121 109.688C130.662 109.688 130.268 109.8 129.937 110.024C129.617 110.237 129.372 110.531 129.201 110.904C129.03 111.277 128.945 111.704 128.945 112.184V112.232ZM137.146 120.04C137.039 120.04 136.949 120.003 136.874 119.928C136.81 119.864 136.778 119.779 136.778 119.672V109.048C136.778 108.941 136.81 108.856 136.874 108.792C136.949 108.717 137.039 108.68 137.146 108.68H137.882C137.989 108.68 138.074 108.717 138.138 108.792C138.213 108.856 138.25 108.941 138.25 109.048V109.752C138.506 109.4 138.847 109.107 139.274 108.872C139.701 108.637 140.234 108.52 140.874 108.52C141.471 108.52 141.978 108.621 142.394 108.824C142.821 109.027 143.167 109.304 143.434 109.656C143.711 110.008 143.919 110.408 144.058 110.856C144.197 111.304 144.271 111.784 144.282 112.296C144.293 112.467 144.298 112.648 144.298 112.84C144.298 113.032 144.293 113.213 144.282 113.384C144.271 113.885 144.197 114.365 144.058 114.824C143.919 115.272 143.711 115.672 143.434 116.024C143.167 116.365 142.821 116.643 142.394 116.856C141.978 117.059 141.471 117.16 140.874 117.16C140.255 117.16 139.733 117.048 139.306 116.824C138.89 116.589 138.549 116.301 138.282 115.96V119.672C138.282 119.779 138.25 119.864 138.186 119.928C138.122 120.003 138.031 120.04 137.914 120.04H137.146ZM140.538 115.864C141.093 115.864 141.525 115.747 141.834 115.512C142.154 115.267 142.383 114.952 142.522 114.568C142.661 114.173 142.741 113.752 142.762 113.304C142.773 112.995 142.773 112.685 142.762 112.376C142.741 111.928 142.661 111.512 142.522 111.128C142.383 110.733 142.154 110.419 141.834 110.184C141.525 109.939 141.093 109.816 140.538 109.816C140.015 109.816 139.589 109.939 139.258 110.184C138.938 110.429 138.698 110.744 138.538 111.128C138.389 111.501 138.303 111.885 138.282 112.28C138.271 112.451 138.266 112.653 138.266 112.888C138.266 113.123 138.271 113.331 138.282 113.512C138.293 113.885 138.378 114.253 138.538 114.616C138.709 114.979 138.959 115.277 139.29 115.512C139.621 115.747 140.037 115.864 140.538 115.864ZM146.645 117C146.549 117 146.464 116.968 146.389 116.904C146.325 116.829 146.293 116.749 146.293 116.664V109.048C146.293 108.941 146.325 108.856 146.389 108.792C146.464 108.717 146.555 108.68 146.661 108.68H147.429C147.536 108.68 147.621 108.717 147.685 108.792C147.749 108.856 147.781 108.941 147.781 109.048V115.832L147.365 115.4L152.213 108.92C152.267 108.856 152.325 108.803 152.389 108.76C152.453 108.707 152.533 108.68 152.629 108.68H153.365C153.451 108.68 153.525 108.712 153.589 108.776C153.664 108.84 153.701 108.915 153.701 109V116.632C153.701 116.739 153.664 116.829 153.589 116.904C153.525 116.968 153.44 117 153.333 117H152.581C152.464 117 152.373 116.968 152.309 116.904C152.245 116.829 152.213 116.739 152.213 116.632V110.248L152.661 110.232L147.781 116.76C147.739 116.813 147.685 116.867 147.621 116.92C147.557 116.973 147.472 117 147.365 117H146.645ZM158.587 117C158.481 117 158.39 116.968 158.315 116.904C158.251 116.829 158.219 116.739 158.219 116.632V109.96H155.435C155.329 109.96 155.238 109.928 155.163 109.864C155.099 109.789 155.067 109.699 155.067 109.592V109.048C155.067 108.941 155.099 108.856 155.163 108.792C155.238 108.717 155.329 108.68 155.435 108.68H162.475C162.582 108.68 162.667 108.717 162.731 108.792C162.806 108.856 162.843 108.941 162.843 109.048V109.592C162.843 109.699 162.806 109.789 162.731 109.864C162.667 109.928 162.582 109.96 162.475 109.96H159.691V116.632C159.691 116.739 159.659 116.829 159.595 116.904C159.531 116.968 159.441 117 159.323 117H158.587ZM167.543 117.16C166.444 117.16 165.57 116.824 164.919 116.152C164.268 115.469 163.911 114.541 163.847 113.368C163.836 113.229 163.831 113.053 163.831 112.84C163.831 112.616 163.836 112.435 163.847 112.296C163.89 111.539 164.066 110.877 164.375 110.312C164.684 109.736 165.106 109.293 165.639 108.984C166.183 108.675 166.818 108.52 167.543 108.52C168.354 108.52 169.031 108.691 169.575 109.032C170.13 109.373 170.551 109.859 170.839 110.488C171.127 111.117 171.271 111.853 171.271 112.696V112.968C171.271 113.085 171.234 113.176 171.159 113.24C171.095 113.304 171.01 113.336 170.903 113.336H165.367C165.367 113.347 165.367 113.368 165.367 113.4C165.367 113.432 165.367 113.459 165.367 113.48C165.388 113.917 165.484 114.328 165.655 114.712C165.826 115.085 166.071 115.389 166.391 115.624C166.711 115.859 167.095 115.976 167.543 115.976C167.927 115.976 168.247 115.917 168.503 115.8C168.759 115.683 168.967 115.555 169.127 115.416C169.287 115.267 169.394 115.155 169.447 115.08C169.543 114.941 169.618 114.861 169.671 114.84C169.724 114.808 169.81 114.792 169.927 114.792H170.695C170.802 114.792 170.887 114.824 170.951 114.888C171.026 114.941 171.058 115.021 171.047 115.128C171.036 115.288 170.951 115.485 170.791 115.72C170.631 115.944 170.402 116.168 170.103 116.392C169.804 116.616 169.442 116.803 169.015 116.952C168.588 117.091 168.098 117.16 167.543 117.16ZM165.367 112.232H169.751V112.184C169.751 111.704 169.66 111.277 169.479 110.904C169.308 110.531 169.058 110.237 168.727 110.024C168.396 109.8 168.002 109.688 167.543 109.688C167.084 109.688 166.69 109.8 166.359 110.024C166.039 110.237 165.794 110.531 165.623 110.904C165.452 111.277 165.367 111.704 165.367 112.184V112.232ZM177.474 117C177.367 117 177.277 116.968 177.202 116.904C177.138 116.829 177.106 116.739 177.106 116.632V109.048C177.106 108.941 177.138 108.856 177.202 108.792C177.277 108.717 177.367 108.68 177.474 108.68H180.802C181.805 108.68 182.557 108.883 183.058 109.288C183.57 109.693 183.826 110.237 183.826 110.92C183.826 111.4 183.735 111.763 183.554 112.008C183.373 112.253 183.117 112.461 182.786 112.632C183.191 112.803 183.495 113.08 183.698 113.464C183.911 113.837 184.018 114.227 184.018 114.632C184.018 115.4 183.746 115.987 183.202 116.392C182.658 116.797 181.901 117 180.93 117H177.474ZM178.578 115.832H180.802C181.314 115.832 181.725 115.736 182.034 115.544C182.354 115.341 182.514 115.037 182.514 114.632C182.514 114.205 182.37 113.896 182.082 113.704C181.794 113.501 181.367 113.4 180.802 113.4H178.578V115.832ZM178.578 112.216H180.706C181.218 112.216 181.623 112.104 181.922 111.88C182.231 111.656 182.386 111.341 182.386 110.936C182.386 110.52 182.231 110.237 181.922 110.088C181.623 109.928 181.218 109.848 180.706 109.848H178.578V112.216ZM188.395 117.16C187.861 117.16 187.376 117.053 186.939 116.84C186.501 116.627 186.149 116.339 185.883 115.976C185.616 115.613 185.483 115.203 185.483 114.744C185.483 114.008 185.781 113.421 186.379 112.984C186.976 112.547 187.755 112.259 188.715 112.12L191.099 111.784V111.32C191.099 110.808 190.949 110.408 190.651 110.12C190.363 109.832 189.888 109.688 189.227 109.688C188.747 109.688 188.357 109.784 188.059 109.976C187.771 110.168 187.568 110.413 187.451 110.712C187.387 110.872 187.275 110.952 187.115 110.952H186.395C186.277 110.952 186.187 110.92 186.123 110.856C186.069 110.781 186.043 110.696 186.043 110.6C186.043 110.44 186.101 110.243 186.219 110.008C186.347 109.773 186.539 109.544 186.795 109.32C187.051 109.096 187.376 108.909 187.771 108.76C188.176 108.6 188.667 108.52 189.243 108.52C189.883 108.52 190.421 108.605 190.859 108.776C191.296 108.936 191.637 109.155 191.883 109.432C192.139 109.709 192.32 110.024 192.427 110.376C192.544 110.728 192.603 111.085 192.603 111.448V116.632C192.603 116.739 192.565 116.829 192.491 116.904C192.427 116.968 192.341 117 192.235 117H191.499C191.381 117 191.291 116.968 191.227 116.904C191.163 116.829 191.131 116.739 191.131 116.632V115.944C190.992 116.136 190.805 116.328 190.571 116.52C190.336 116.701 190.043 116.856 189.691 116.984C189.339 117.101 188.907 117.16 188.395 117.16ZM188.731 115.96C189.168 115.96 189.568 115.869 189.931 115.688C190.293 115.496 190.576 115.203 190.779 114.808C190.992 114.413 191.099 113.917 191.099 113.32V112.872L189.243 113.144C188.485 113.251 187.915 113.432 187.531 113.688C187.147 113.933 186.955 114.248 186.955 114.632C186.955 114.931 187.04 115.181 187.211 115.384C187.392 115.576 187.616 115.72 187.883 115.816C188.16 115.912 188.443 115.96 188.731 115.96ZM194.503 117C194.396 117 194.305 116.963 194.231 116.888C194.156 116.813 194.119 116.723 194.119 116.616V116.024C194.119 115.8 194.231 115.683 194.455 115.672C194.785 115.661 195.063 115.507 195.287 115.208C195.511 114.899 195.681 114.413 195.799 113.752C195.916 113.08 195.975 112.195 195.975 111.096V109.048C195.975 108.941 196.007 108.856 196.071 108.792C196.145 108.717 196.236 108.68 196.343 108.68H201.431C201.537 108.68 201.623 108.717 201.687 108.792C201.761 108.856 201.799 108.941 201.799 109.048V116.632C201.799 116.739 201.761 116.829 201.687 116.904C201.623 116.968 201.537 117 201.431 117H200.663C200.556 117 200.471 116.968 200.407 116.904C200.343 116.829 200.311 116.739 200.311 116.632V109.96H197.431V111.272C197.431 112.296 197.372 113.176 197.255 113.912C197.137 114.637 196.956 115.229 196.711 115.688C196.476 116.136 196.172 116.467 195.799 116.68C195.436 116.893 195.004 117 194.503 117ZM207.992 113.4H205.672V116.632C205.672 116.739 205.64 116.829 205.576 116.904C205.512 116.968 205.427 117 205.32 117H204.552C204.445 117 204.355 116.968 204.28 116.904C204.216 116.829 204.184 116.739 204.184 116.632V109.048C204.184 108.941 204.216 108.856 204.28 108.792C204.355 108.717 204.445 108.68 204.552 108.68H205.32C205.427 108.68 205.512 108.717 205.576 108.792C205.64 108.856 205.672 108.941 205.672 109.048V112.12H207.992V113.4ZM211.144 117.16C210.333 117.16 209.656 117.005 209.112 116.696C208.568 116.387 208.152 115.96 207.864 115.416C207.576 114.861 207.416 114.232 207.384 113.528C207.373 113.347 207.368 113.117 207.368 112.84C207.368 112.552 207.373 112.323 207.384 112.152C207.416 111.437 207.576 110.808 207.864 110.264C208.152 109.72 208.568 109.293 209.112 108.984C209.667 108.675 210.344 108.52 211.144 108.52C211.944 108.52 212.616 108.675 213.16 108.984C213.704 109.293 214.12 109.72 214.408 110.264C214.707 110.808 214.867 111.437 214.888 112.152C214.909 112.323 214.92 112.552 214.92 112.84C214.92 113.117 214.909 113.347 214.888 113.528C214.867 114.232 214.712 114.861 214.424 115.416C214.136 115.96 213.715 116.387 213.16 116.696C212.616 117.005 211.944 117.16 211.144 117.16ZM211.144 115.928C211.805 115.928 212.333 115.72 212.728 115.304C213.123 114.877 213.336 114.259 213.368 113.448C213.379 113.288 213.384 113.085 213.384 112.84C213.384 112.595 213.379 112.392 213.368 112.232C213.336 111.421 213.123 110.808 212.728 110.392C212.333 109.965 211.805 109.752 211.144 109.752C210.483 109.752 209.949 109.965 209.544 110.392C209.149 110.808 208.936 111.421 208.904 112.232C208.893 112.392 208.888 112.595 208.888 112.84C208.888 113.085 208.893 113.288 208.904 113.448C208.936 114.259 209.149 114.877 209.544 115.304C209.949 115.72 210.483 115.928 211.144 115.928ZM219.462 117C219.356 117 219.265 116.968 219.19 116.904C219.126 116.829 219.094 116.739 219.094 116.632V109.96H216.31C216.204 109.96 216.113 109.928 216.038 109.864C215.974 109.789 215.942 109.699 215.942 109.592V109.048C215.942 108.941 215.974 108.856 216.038 108.792C216.113 108.717 216.204 108.68 216.31 108.68H223.35C223.457 108.68 223.542 108.717 223.606 108.792C223.681 108.856 223.718 108.941 223.718 109.048V109.592C223.718 109.699 223.681 109.789 223.606 109.864C223.542 109.928 223.457 109.96 223.35 109.96H220.566V116.632C220.566 116.739 220.534 116.829 220.47 116.904C220.406 116.968 220.316 117 220.198 117H219.462ZM225.49 120.04C225.373 120.04 225.282 120.003 225.218 119.928C225.154 119.864 225.122 119.779 225.122 119.672V119.128C225.122 119.021 225.154 118.931 225.218 118.856C225.282 118.792 225.373 118.76 225.49 118.76H225.906C226.151 118.76 226.349 118.712 226.498 118.616C226.647 118.52 226.781 118.355 226.898 118.12C227.026 117.896 227.175 117.587 227.346 117.192L230.818 108.952C230.85 108.867 230.893 108.803 230.946 108.76C231.01 108.707 231.101 108.68 231.218 108.68H231.922C232.018 108.68 232.098 108.712 232.162 108.776C232.226 108.84 232.258 108.915 232.258 109C232.258 109.043 232.253 109.085 232.242 109.128C232.231 109.16 232.21 109.213 232.178 109.288L229.138 116.488C228.978 116.872 228.802 117.272 228.61 117.688C228.429 118.104 228.221 118.488 227.986 118.84C227.762 119.203 227.495 119.491 227.186 119.704C226.877 119.928 226.514 120.04 226.098 120.04H225.49ZM227.714 116.76L224.482 109.288C224.429 109.16 224.402 109.069 224.402 109.016C224.413 108.92 224.45 108.84 224.514 108.776C224.578 108.712 224.653 108.68 224.738 108.68H225.49C225.607 108.68 225.693 108.707 225.746 108.76C225.81 108.813 225.858 108.877 225.89 108.952L228.546 115.304L227.714 116.76ZM58.4762 129.176C58.3695 129.176 58.2895 129.144 58.2362 129.08C58.1935 129.005 58.1669 128.92 58.1562 128.824L57.8842 126.008C57.8629 125.891 57.8842 125.8 57.9482 125.736C58.0122 125.672 58.0975 125.64 58.2042 125.64H59.2442C59.3509 125.64 59.4362 125.672 59.5002 125.736C59.5642 125.8 59.5909 125.891 59.5802 126.008L59.2922 128.824C59.2815 128.92 59.2495 129.005 59.1962 129.08C59.1535 129.144 59.0789 129.176 58.9722 129.176H58.4762ZM55.9802 129.176C55.8735 129.176 55.7935 129.144 55.7402 129.08C55.6975 129.005 55.6709 128.92 55.6602 128.824L55.3882 126.008C55.3775 125.891 55.3989 125.8 55.4522 125.736C55.5162 125.672 55.6015 125.64 55.7082 125.64H56.7482C56.8549 125.64 56.9402 125.672 57.0042 125.736C57.0682 125.8 57.0949 125.891 57.0842 126.008L56.8122 128.824C56.8015 128.92 56.7695 129.005 56.7162 129.08C56.6629 129.144 56.5829 129.176 56.4762 129.176H55.9802ZM62.2366 137C62.1192 137 62.0286 136.968 61.9646 136.904C61.9006 136.829 61.8686 136.739 61.8686 136.632V126.184C61.8686 126.067 61.9006 125.976 61.9646 125.912C62.0286 125.837 62.1192 125.8 62.2366 125.8H70.1246C70.2419 125.8 70.3326 125.837 70.3966 125.912C70.4712 125.976 70.5086 126.067 70.5086 126.184V136.632C70.5086 136.739 70.4712 136.829 70.3966 136.904C70.3326 136.968 70.2419 137 70.1246 137H69.3086C69.2019 137 69.1112 136.968 69.0366 136.904C68.9726 136.829 68.9406 136.739 68.9406 136.632V127.24H63.4366V136.632C63.4366 136.739 63.3992 136.829 63.3246 136.904C63.2606 136.968 63.1699 137 63.0526 137H62.2366ZM76.4748 137.16C75.6641 137.16 74.9868 137.005 74.4428 136.696C73.8988 136.387 73.4828 135.96 73.1948 135.416C72.9068 134.861 72.7468 134.232 72.7148 133.528C72.7041 133.347 72.6988 133.117 72.6988 132.84C72.6988 132.552 72.7041 132.323 72.7148 132.152C72.7468 131.437 72.9068 130.808 73.1948 130.264C73.4935 129.72 73.9148 129.293 74.4588 128.984C75.0028 128.675 75.6748 128.52 76.4748 128.52C77.2748 128.52 77.9468 128.675 78.4908 128.984C79.0348 129.293 79.4508 129.72 79.7388 130.264C80.0375 130.808 80.2028 131.437 80.2348 132.152C80.2455 132.323 80.2508 132.552 80.2508 132.84C80.2508 133.117 80.2455 133.347 80.2348 133.528C80.2028 134.232 80.0428 134.861 79.7548 135.416C79.4668 135.96 79.0508 136.387 78.5068 136.696C77.9628 137.005 77.2855 137.16 76.4748 137.16ZM76.4748 135.928C77.1361 135.928 77.6641 135.72 78.0588 135.304C78.4535 134.877 78.6668 134.259 78.6988 133.448C78.7095 133.288 78.7148 133.085 78.7148 132.84C78.7148 132.595 78.7095 132.392 78.6988 132.232C78.6668 131.421 78.4535 130.808 78.0588 130.392C77.6641 129.965 77.1361 129.752 76.4748 129.752C75.8135 129.752 75.2801 129.965 74.8748 130.392C74.4801 130.808 74.2721 131.421 74.2508 132.232C74.2401 132.392 74.2348 132.595 74.2348 132.84C74.2348 133.085 74.2401 133.288 74.2508 133.448C74.2721 134.259 74.4801 134.877 74.8748 135.304C75.2801 135.72 75.8135 135.928 76.4748 135.928ZM81.8543 137C81.7476 137 81.657 136.963 81.5823 136.888C81.5076 136.813 81.4703 136.723 81.4703 136.616V136.024C81.4703 135.8 81.5823 135.683 81.8063 135.672C82.137 135.661 82.4143 135.507 82.6383 135.208C82.8623 134.899 83.033 134.413 83.1503 133.752C83.2676 133.08 83.3263 132.195 83.3263 131.096V129.048C83.3263 128.941 83.3583 128.856 83.4223 128.792C83.497 128.717 83.5876 128.68 83.6943 128.68H88.7823C88.889 128.68 88.9743 128.717 89.0383 128.792C89.113 128.856 89.1503 128.941 89.1503 129.048V136.632C89.1503 136.739 89.113 136.829 89.0383 136.904C88.9743 136.968 88.889 137 88.7823 137H88.0143C87.9076 137 87.8223 136.968 87.7583 136.904C87.6943 136.829 87.6623 136.739 87.6623 136.632V129.96H84.7823V131.272C84.7823 132.296 84.7236 133.176 84.6063 133.912C84.489 134.637 84.3076 135.229 84.0623 135.688C83.8276 136.136 83.5236 136.467 83.1503 136.68C82.7876 136.893 82.3556 137 81.8543 137ZM91.9196 140.04C91.8022 140.04 91.7116 140.003 91.6476 139.928C91.5836 139.864 91.5516 139.779 91.5516 139.672V139.128C91.5516 139.021 91.5836 138.931 91.6476 138.856C91.7116 138.792 91.8022 138.76 91.9196 138.76H92.3356C92.5809 138.76 92.7782 138.712 92.9276 138.616C93.0769 138.52 93.2102 138.355 93.3276 138.12C93.4556 137.896 93.6049 137.587 93.7756 137.192L97.2476 128.952C97.2796 128.867 97.3222 128.803 97.3756 128.76C97.4396 128.707 97.5302 128.68 97.6476 128.68H98.3516C98.4476 128.68 98.5276 128.712 98.5916 128.776C98.6556 128.84 98.6876 128.915 98.6876 129C98.6876 129.043 98.6822 129.085 98.6716 129.128C98.6609 129.16 98.6396 129.213 98.6076 129.288L95.5676 136.488C95.4076 136.872 95.2316 137.272 95.0396 137.688C94.8582 138.104 94.6502 138.488 94.4156 138.84C94.1916 139.203 93.9249 139.491 93.6156 139.704C93.3062 139.928 92.9436 140.04 92.5276 140.04H91.9196ZM94.1436 136.76L90.9116 129.288C90.8582 129.16 90.8316 129.069 90.8316 129.016C90.8422 128.92 90.8796 128.84 90.9436 128.776C91.0076 128.712 91.0822 128.68 91.1676 128.68H91.9196C92.0369 128.68 92.1222 128.707 92.1756 128.76C92.2396 128.813 92.2876 128.877 92.3196 128.952L94.9756 135.304L94.1436 136.76ZM105.549 137C105.432 137 105.341 136.968 105.277 136.904C105.213 136.829 105.181 136.739 105.181 136.632V133.624C104.893 133.891 104.541 134.088 104.125 134.216C103.72 134.333 103.256 134.392 102.733 134.392C101.795 134.392 101.064 134.184 100.541 133.768C100.029 133.352 99.7732 132.68 99.7732 131.752V129.048C99.7732 128.941 99.8052 128.856 99.8692 128.792C99.9439 128.717 100.035 128.68 100.141 128.68H100.925C101.032 128.68 101.117 128.717 101.181 128.792C101.256 128.856 101.293 128.941 101.293 129.048V131.656C101.293 132.136 101.432 132.488 101.709 132.712C101.997 132.936 102.435 133.048 103.021 133.048C103.672 133.048 104.195 132.968 104.589 132.808C104.984 132.637 105.181 132.339 105.181 131.912V129.048C105.181 128.941 105.213 128.856 105.277 128.792C105.341 128.717 105.432 128.68 105.549 128.68H106.349C106.456 128.68 106.541 128.717 106.605 128.792C106.68 128.856 106.717 128.941 106.717 129.048V136.632C106.717 136.739 106.68 136.829 106.605 136.904C106.541 136.968 106.456 137 106.349 137H105.549ZM111.418 137.16C110.885 137.16 110.399 137.053 109.962 136.84C109.525 136.627 109.173 136.339 108.906 135.976C108.639 135.613 108.506 135.203 108.506 134.744C108.506 134.008 108.805 133.421 109.402 132.984C109.999 132.547 110.778 132.259 111.738 132.12L114.122 131.784V131.32C114.122 130.808 113.973 130.408 113.674 130.12C113.386 129.832 112.911 129.688 112.25 129.688C111.77 129.688 111.381 129.784 111.082 129.976C110.794 130.168 110.591 130.413 110.474 130.712C110.41 130.872 110.298 130.952 110.138 130.952H109.418C109.301 130.952 109.21 130.92 109.146 130.856C109.093 130.781 109.066 130.696 109.066 130.6C109.066 130.44 109.125 130.243 109.242 130.008C109.37 129.773 109.562 129.544 109.818 129.32C110.074 129.096 110.399 128.909 110.794 128.76C111.199 128.6 111.69 128.52 112.266 128.52C112.906 128.52 113.445 128.605 113.882 128.776C114.319 128.936 114.661 129.155 114.906 129.432C115.162 129.709 115.343 130.024 115.45 130.376C115.567 130.728 115.626 131.085 115.626 131.448V136.632C115.626 136.739 115.589 136.829 115.514 136.904C115.45 136.968 115.365 137 115.258 137H114.522C114.405 137 114.314 136.968 114.25 136.904C114.186 136.829 114.154 136.739 114.154 136.632V135.944C114.015 136.136 113.829 136.328 113.594 136.52C113.359 136.701 113.066 136.856 112.714 136.984C112.362 137.101 111.93 137.16 111.418 137.16ZM111.754 135.96C112.191 135.96 112.591 135.869 112.954 135.688C113.317 135.496 113.599 135.203 113.802 134.808C114.015 134.413 114.122 133.917 114.122 133.32V132.872L112.266 133.144C111.509 133.251 110.938 133.432 110.554 133.688C110.17 133.933 109.978 134.248 109.978 134.632C109.978 134.931 110.063 135.181 110.234 135.384C110.415 135.576 110.639 135.72 110.906 135.816C111.183 135.912 111.466 135.96 111.754 135.96ZM121.734 133.4H119.414V136.632C119.414 136.739 119.382 136.829 119.318 136.904C119.254 136.968 119.169 137 119.062 137H118.294C118.188 137 118.097 136.968 118.022 136.904C117.958 136.829 117.926 136.739 117.926 136.632V129.048C117.926 128.941 117.958 128.856 118.022 128.792C118.097 128.717 118.188 128.68 118.294 128.68H119.062C119.169 128.68 119.254 128.717 119.318 128.792C119.382 128.856 119.414 128.941 119.414 129.048V132.12H121.734V133.4ZM124.886 137.16C124.076 137.16 123.398 137.005 122.854 136.696C122.31 136.387 121.894 135.96 121.606 135.416C121.318 134.861 121.158 134.232 121.126 133.528C121.116 133.347 121.11 133.117 121.11 132.84C121.11 132.552 121.116 132.323 121.126 132.152C121.158 131.437 121.318 130.808 121.606 130.264C121.894 129.72 122.31 129.293 122.854 128.984C123.409 128.675 124.086 128.52 124.886 128.52C125.686 128.52 126.358 128.675 126.902 128.984C127.446 129.293 127.862 129.72 128.15 130.264C128.449 130.808 128.609 131.437 128.63 132.152C128.652 132.323 128.662 132.552 128.662 132.84C128.662 133.117 128.652 133.347 128.63 133.528C128.609 134.232 128.454 134.861 128.166 135.416C127.878 135.96 127.457 136.387 126.902 136.696C126.358 137.005 125.686 137.16 124.886 137.16ZM124.886 135.928C125.548 135.928 126.076 135.72 126.47 135.304C126.865 134.877 127.078 134.259 127.11 133.448C127.121 133.288 127.126 133.085 127.126 132.84C127.126 132.595 127.121 132.392 127.11 132.232C127.078 131.421 126.865 130.808 126.47 130.392C126.076 129.965 125.548 129.752 124.886 129.752C124.225 129.752 123.692 129.965 123.286 130.392C122.892 130.808 122.678 131.421 122.646 132.232C122.636 132.392 122.63 132.595 122.63 132.84C122.63 133.085 122.636 133.288 122.646 133.448C122.678 134.259 122.892 134.877 123.286 135.304C123.692 135.72 124.225 135.928 124.886 135.928ZM133.461 129.176C133.354 129.176 133.274 129.144 133.221 129.08C133.178 129.005 133.151 128.92 133.141 128.824L132.869 126.008C132.847 125.891 132.869 125.8 132.933 125.736C132.997 125.672 133.082 125.64 133.189 125.64H134.229C134.335 125.64 134.421 125.672 134.485 125.736C134.549 125.8 134.575 125.891 134.565 126.008L134.277 128.824C134.266 128.92 134.234 129.005 134.181 129.08C134.138 129.144 134.063 129.176 133.957 129.176H133.461ZM130.965 129.176C130.858 129.176 130.778 129.144 130.725 129.08C130.682 129.005 130.655 128.92 130.645 128.824L130.373 126.008C130.362 125.891 130.383 125.8 130.437 125.736C130.501 125.672 130.586 125.64 130.693 125.64H131.733C131.839 125.64 131.925 125.672 131.989 125.736C132.053 125.8 132.079 125.891 132.069 126.008L131.797 128.824C131.786 128.92 131.754 129.005 131.701 129.08C131.647 129.144 131.567 129.176 131.461 129.176H130.965ZM134.924 138.2C134.838 138.2 134.769 138.168 134.716 138.104C134.673 138.04 134.657 137.96 134.668 137.864L135.036 135.576C135.057 135.448 135.1 135.341 135.164 135.256C135.238 135.16 135.345 135.112 135.484 135.112H136.556C136.63 135.112 136.689 135.139 136.732 135.192C136.785 135.245 136.812 135.309 136.812 135.384C136.812 135.469 136.79 135.555 136.748 135.64L135.916 137.832C135.873 137.939 135.814 138.024 135.74 138.088C135.676 138.163 135.58 138.2 135.452 138.2H134.924ZM148.19 137C148.072 137 147.982 136.968 147.918 136.904C147.854 136.829 147.822 136.739 147.822 136.632V133.624C147.534 133.891 147.182 134.088 146.766 134.216C146.36 134.333 145.896 134.392 145.374 134.392C144.435 134.392 143.704 134.184 143.182 133.768C142.67 133.352 142.414 132.68 142.414 131.752V129.048C142.414 128.941 142.446 128.856 142.51 128.792C142.584 128.717 142.675 128.68 142.782 128.68H143.566C143.672 128.68 143.758 128.717 143.822 128.792C143.896 128.856 143.934 128.941 143.934 129.048V131.656C143.934 132.136 144.072 132.488 144.35 132.712C144.638 132.936 145.075 133.048 145.662 133.048C146.312 133.048 146.835 132.968 147.23 132.808C147.624 132.637 147.822 132.339 147.822 131.912V129.048C147.822 128.941 147.854 128.856 147.918 128.792C147.982 128.717 148.072 128.68 148.19 128.68H148.99C149.096 128.68 149.182 128.717 149.246 128.792C149.32 128.856 149.358 128.941 149.358 129.048V136.632C149.358 136.739 149.32 136.829 149.246 136.904C149.182 136.968 149.096 137 148.99 137H148.19ZM154.283 137C154.176 137 154.085 136.968 154.011 136.904C153.947 136.829 153.915 136.739 153.915 136.632V129.96H151.131C151.024 129.96 150.933 129.928 150.859 129.864C150.795 129.789 150.763 129.699 150.763 129.592V129.048C150.763 128.941 150.795 128.856 150.859 128.792C150.933 128.717 151.024 128.68 151.131 128.68H158.171C158.277 128.68 158.363 128.717 158.427 128.792C158.501 128.856 158.539 128.941 158.539 129.048V129.592C158.539 129.699 158.501 129.789 158.427 129.864C158.363 129.928 158.277 129.96 158.171 129.96H155.387V136.632C155.387 136.739 155.355 136.829 155.291 136.904C155.227 136.968 155.136 137 155.019 137H154.283ZM163.334 137.16C162.524 137.16 161.846 137.005 161.302 136.696C160.758 136.387 160.342 135.96 160.054 135.416C159.766 134.861 159.606 134.232 159.574 133.528C159.564 133.347 159.558 133.117 159.558 132.84C159.558 132.552 159.564 132.323 159.574 132.152C159.606 131.437 159.766 130.808 160.054 130.264C160.353 129.72 160.774 129.293 161.318 128.984C161.862 128.675 162.534 128.52 163.334 128.52C164.134 128.52 164.806 128.675 165.35 128.984C165.894 129.293 166.31 129.72 166.598 130.264C166.897 130.808 167.062 131.437 167.094 132.152C167.105 132.323 167.11 132.552 167.11 132.84C167.11 133.117 167.105 133.347 167.094 133.528C167.062 134.232 166.902 134.861 166.614 135.416C166.326 135.96 165.91 136.387 165.366 136.696C164.822 137.005 164.145 137.16 163.334 137.16ZM163.334 135.928C163.996 135.928 164.524 135.72 164.918 135.304C165.313 134.877 165.526 134.259 165.558 133.448C165.569 133.288 165.574 133.085 165.574 132.84C165.574 132.595 165.569 132.392 165.558 132.232C165.526 131.421 165.313 130.808 164.918 130.392C164.524 129.965 163.996 129.752 163.334 129.752C162.673 129.752 162.14 129.965 161.734 130.392C161.34 130.808 161.132 131.421 161.11 132.232C161.1 132.392 161.094 132.595 161.094 132.84C161.094 133.085 161.1 133.288 161.11 133.448C161.132 134.259 161.34 134.877 161.734 135.304C162.14 135.72 162.673 135.928 163.334 135.928ZM172.634 137.16C171.812 137.16 171.124 137.005 170.57 136.696C170.026 136.376 169.61 135.928 169.322 135.352C169.044 134.765 168.895 134.088 168.874 133.32C168.863 133 168.858 132.68 168.858 132.36C168.858 132.04 168.863 131.72 168.874 131.4C168.874 130.429 168.954 129.624 169.114 128.984C169.274 128.344 169.514 127.821 169.834 127.416C170.164 127 170.58 126.659 171.082 126.392C171.583 126.125 172.175 125.896 172.858 125.704C173.54 125.501 174.319 125.288 175.194 125.064C175.29 125.043 175.38 125.059 175.466 125.112C175.562 125.165 175.615 125.24 175.626 125.336L175.754 125.992C175.775 126.088 175.759 126.173 175.706 126.248C175.663 126.323 175.594 126.371 175.498 126.392C174.698 126.595 173.999 126.771 173.402 126.92C172.804 127.069 172.303 127.245 171.898 127.448C171.492 127.64 171.167 127.891 170.922 128.2C170.676 128.509 170.506 128.92 170.41 129.432C170.324 129.944 170.298 130.6 170.33 131.4L169.978 131.256C170.031 130.861 170.196 130.504 170.474 130.184C170.762 129.853 171.119 129.587 171.546 129.384C171.972 129.181 172.426 129.08 172.906 129.08C173.642 129.08 174.26 129.235 174.762 129.544C175.274 129.853 175.663 130.275 175.93 130.808C176.207 131.341 176.362 131.955 176.394 132.648C176.415 133.011 176.415 133.325 176.394 133.592C176.362 134.285 176.202 134.904 175.914 135.448C175.626 135.981 175.21 136.403 174.666 136.712C174.122 137.011 173.444 137.16 172.634 137.16ZM172.634 135.976C173.306 135.976 173.839 135.768 174.234 135.352C174.628 134.936 174.836 134.328 174.858 133.528C174.868 133.421 174.874 133.299 174.874 133.16C174.874 133.021 174.868 132.877 174.858 132.728C174.836 131.917 174.628 131.304 174.234 130.888C173.85 130.472 173.364 130.264 172.778 130.264C172.106 130.264 171.551 130.472 171.114 130.888C170.676 131.304 170.442 131.917 170.41 132.728C170.399 132.877 170.394 133.021 170.394 133.16C170.394 133.299 170.399 133.421 170.41 133.528C170.442 134.328 170.655 134.936 171.05 135.352C171.444 135.768 171.972 135.976 172.634 135.976ZM178.779 137C178.672 137 178.581 136.968 178.507 136.904C178.443 136.829 178.411 136.739 178.411 136.632V129.048C178.411 128.941 178.443 128.856 178.507 128.792C178.581 128.717 178.672 128.68 178.779 128.68H179.547C179.653 128.68 179.739 128.717 179.803 128.792C179.877 128.856 179.915 128.941 179.915 129.048V131.4H181.579C182.667 131.4 183.461 131.656 183.963 132.168C184.464 132.68 184.715 133.373 184.715 134.248C184.715 135.187 184.437 135.88 183.883 136.328C183.328 136.776 182.496 137 181.387 137H178.779ZM179.899 135.8H181.435C182.085 135.8 182.56 135.688 182.859 135.464C183.157 135.229 183.307 134.824 183.307 134.248C183.307 133.693 183.163 133.283 182.875 133.016C182.587 132.739 182.107 132.6 181.435 132.6H179.899V135.8ZM186.219 137C186.112 137 186.021 136.968 185.947 136.904C185.883 136.829 185.851 136.739 185.851 136.632V129.048C185.851 128.941 185.883 128.856 185.947 128.792C186.021 128.717 186.112 128.68 186.219 128.68H186.987C187.093 128.68 187.179 128.717 187.243 128.792C187.317 128.856 187.355 128.941 187.355 129.048V136.632C187.355 136.739 187.317 136.829 187.243 136.904C187.179 136.968 187.093 137 186.987 137H186.219ZM194.029 137C193.922 137 193.831 136.968 193.757 136.904C193.693 136.829 193.661 136.739 193.661 136.632V129.048C193.661 128.941 193.693 128.856 193.757 128.792C193.831 128.717 193.922 128.68 194.029 128.68H200.381C200.487 128.68 200.573 128.717 200.637 128.792C200.711 128.856 200.749 128.941 200.749 129.048V136.632C200.749 136.739 200.711 136.829 200.637 136.904C200.573 136.968 200.487 137 200.381 137H199.613C199.506 137 199.421 136.968 199.357 136.904C199.293 136.829 199.261 136.739 199.261 136.632V129.96H195.149V136.632C195.149 136.739 195.117 136.829 195.053 136.904C194.989 136.968 194.903 137 194.797 137H194.029ZM206.537 137.16C205.727 137.16 205.049 137.005 204.505 136.696C203.961 136.387 203.545 135.96 203.257 135.416C202.969 134.861 202.809 134.232 202.777 133.528C202.767 133.347 202.761 133.117 202.761 132.84C202.761 132.552 202.767 132.323 202.777 132.152C202.809 131.437 202.969 130.808 203.257 130.264C203.556 129.72 203.977 129.293 204.521 128.984C205.065 128.675 205.737 128.52 206.537 128.52C207.337 128.52 208.009 128.675 208.553 128.984C209.097 129.293 209.513 129.72 209.801 130.264C210.1 130.808 210.265 131.437 210.297 132.152C210.308 132.323 210.313 132.552 210.313 132.84C210.313 133.117 210.308 133.347 210.297 133.528C210.265 134.232 210.105 134.861 209.817 135.416C209.529 135.96 209.113 136.387 208.569 136.696C208.025 137.005 207.348 137.16 206.537 137.16ZM206.537 135.928C207.199 135.928 207.727 135.72 208.121 135.304C208.516 134.877 208.729 134.259 208.761 133.448C208.772 133.288 208.777 133.085 208.777 132.84C208.777 132.595 208.772 132.392 208.761 132.232C208.729 131.421 208.516 130.808 208.121 130.392C207.727 129.965 207.199 129.752 206.537 129.752C205.876 129.752 205.343 129.965 204.937 130.392C204.543 130.808 204.335 131.421 204.313 132.232C204.303 132.392 204.297 132.595 204.297 132.84C204.297 133.085 204.303 133.288 204.313 133.448C204.335 134.259 204.543 134.877 204.937 135.304C205.343 135.72 205.876 135.928 206.537 135.928ZM217.501 137C217.383 137 217.293 136.968 217.229 136.904C217.165 136.829 217.133 136.739 217.133 136.632V134.024H215.293V133.944C214.29 133.944 213.543 133.699 213.053 133.208C212.573 132.707 212.333 132.072 212.333 131.304C212.333 130.408 212.594 129.747 213.117 129.32C213.65 128.893 214.45 128.68 215.517 128.68H218.269C218.375 128.68 218.461 128.717 218.525 128.792C218.599 128.856 218.637 128.941 218.637 129.048V136.632C218.637 136.739 218.599 136.829 218.525 136.904C218.461 136.968 218.375 137 218.269 137H217.501ZM212.429 137C212.333 137 212.253 136.968 212.189 136.904C212.125 136.84 212.093 136.765 212.093 136.68C212.093 136.637 212.098 136.595 212.109 136.552C212.13 136.499 212.162 136.445 212.205 136.392L214.109 133.576L215.645 133.688L213.613 136.76C213.57 136.813 213.511 136.867 213.437 136.92C213.362 136.973 213.282 137 213.197 137H212.429ZM215.341 132.824H217.149V129.88H215.469C214.871 129.88 214.429 129.987 214.141 130.2C213.863 130.403 213.725 130.771 213.725 131.304C213.725 131.741 213.853 132.104 214.109 132.392C214.375 132.68 214.786 132.824 215.341 132.824ZM221.388 137C221.281 137 221.191 136.968 221.116 136.904C221.052 136.829 221.02 136.739 221.02 136.632V129.048C221.02 128.941 221.052 128.856 221.116 128.792C221.191 128.717 221.281 128.68 221.388 128.68H224.716C225.719 128.68 226.471 128.883 226.972 129.288C227.484 129.693 227.74 130.237 227.74 130.92C227.74 131.4 227.649 131.763 227.468 132.008C227.287 132.253 227.031 132.461 226.7 132.632C227.105 132.803 227.409 133.08 227.612 133.464C227.825 133.837 227.932 134.227 227.932 134.632C227.932 135.4 227.66 135.987 227.116 136.392C226.572 136.797 225.815 137 224.844 137H221.388ZM222.492 135.832H224.716C225.228 135.832 225.639 135.736 225.948 135.544C226.268 135.341 226.428 135.037 226.428 134.632C226.428 134.205 226.284 133.896 225.996 133.704C225.708 133.501 225.281 133.4 224.716 133.4H222.492V135.832ZM222.492 132.216H224.62C225.132 132.216 225.537 132.104 225.836 131.88C226.145 131.656 226.3 131.341 226.3 130.936C226.3 130.52 226.145 130.237 225.836 130.088C225.537 129.928 225.132 129.848 224.62 129.848H222.492V132.216ZM230.341 137C230.245 137 230.159 136.968 230.085 136.904C230.021 136.829 229.989 136.749 229.989 136.664V129.048C229.989 128.941 230.021 128.856 230.085 128.792C230.159 128.717 230.25 128.68 230.357 128.68H231.125C231.231 128.68 231.317 128.717 231.381 128.792C231.445 128.856 231.477 128.941 231.477 129.048V135.832L231.061 135.4L235.909 128.92C235.962 128.856 236.021 128.803 236.085 128.76C236.149 128.707 236.229 128.68 236.325 128.68H237.061C237.146 128.68 237.221 128.712 237.285 128.776C237.359 128.84 237.397 128.915 237.397 129V136.632C237.397 136.739 237.359 136.829 237.285 136.904C237.221 136.968 237.135 137 237.029 137H236.277C236.159 137 236.069 136.968 236.005 136.904C235.941 136.829 235.909 136.739 235.909 136.632V130.248L236.357 130.232L231.477 136.76C231.434 136.813 231.381 136.867 231.317 136.92C231.253 136.973 231.167 137 231.061 137H230.341ZM239.339 137C239.232 137 239.141 136.963 239.067 136.888C238.992 136.813 238.955 136.723 238.955 136.616V136.024C238.955 135.8 239.067 135.683 239.291 135.672C239.621 135.661 239.899 135.507 240.123 135.208C240.347 134.899 240.517 134.413 240.635 133.752C240.752 133.08 240.811 132.195 240.811 131.096V129.048C240.811 128.941 240.843 128.856 240.907 128.792C240.981 128.717 241.072 128.68 241.179 128.68H246.267C246.373 128.68 246.459 128.717 246.523 128.792C246.597 128.856 246.635 128.941 246.635 129.048V136.632C246.635 136.739 246.597 136.829 246.523 136.904C246.459 136.968 246.373 137 246.267 137H245.499C245.392 137 245.307 136.968 245.243 136.904C245.179 136.829 245.147 136.739 245.147 136.632V129.96H242.267V131.272C242.267 132.296 242.208 133.176 242.091 133.912C241.973 134.637 241.792 135.229 241.547 135.688C241.312 136.136 241.008 136.467 240.635 136.68C240.272 136.893 239.84 137 239.339 137ZM251.34 137.16C250.807 137.16 250.321 137.053 249.884 136.84C249.447 136.627 249.095 136.339 248.828 135.976C248.561 135.613 248.428 135.203 248.428 134.744C248.428 134.008 248.727 133.421 249.324 132.984C249.921 132.547 250.7 132.259 251.66 132.12L254.044 131.784V131.32C254.044 130.808 253.895 130.408 253.596 130.12C253.308 129.832 252.833 129.688 252.172 129.688C251.692 129.688 251.303 129.784 251.004 129.976C250.716 130.168 250.513 130.413 250.396 130.712C250.332 130.872 250.22 130.952 250.06 130.952H249.34C249.223 130.952 249.132 130.92 249.068 130.856C249.015 130.781 248.988 130.696 248.988 130.6C248.988 130.44 249.047 130.243 249.164 130.008C249.292 129.773 249.484 129.544 249.74 129.32C249.996 129.096 250.321 128.909 250.716 128.76C251.121 128.6 251.612 128.52 252.188 128.52C252.828 128.52 253.367 128.605 253.804 128.776C254.241 128.936 254.583 129.155 254.828 129.432C255.084 129.709 255.265 130.024 255.372 130.376C255.489 130.728 255.548 131.085 255.548 131.448V136.632C255.548 136.739 255.511 136.829 255.436 136.904C255.372 136.968 255.287 137 255.18 137H254.444C254.327 137 254.236 136.968 254.172 136.904C254.108 136.829 254.076 136.739 254.076 136.632V135.944C253.937 136.136 253.751 136.328 253.516 136.52C253.281 136.701 252.988 136.856 252.636 136.984C252.284 137.101 251.852 137.16 251.34 137.16ZM251.676 135.96C252.113 135.96 252.513 135.869 252.876 135.688C253.239 135.496 253.521 135.203 253.724 134.808C253.937 134.413 254.044 133.917 254.044 133.32V132.872L252.188 133.144C251.431 133.251 250.86 133.432 250.476 133.688C250.092 133.933 249.9 134.248 249.9 134.632C249.9 134.931 249.985 135.181 250.156 135.384C250.337 135.576 250.561 135.72 250.828 135.816C251.105 135.912 251.388 135.96 251.676 135.96ZM261.208 137.16C260.451 137.16 259.795 137.016 259.24 136.728C258.696 136.429 258.275 136.008 257.976 135.464C257.677 134.909 257.517 134.248 257.496 133.48C257.485 133.32 257.48 133.107 257.48 132.84C257.48 132.573 257.485 132.36 257.496 132.2C257.517 131.432 257.677 130.776 257.976 130.232C258.275 129.677 258.696 129.256 259.24 128.968C259.795 128.669 260.451 128.52 261.208 128.52C261.827 128.52 262.355 128.605 262.792 128.776C263.24 128.947 263.608 129.165 263.896 129.432C264.184 129.699 264.397 129.987 264.536 130.296C264.685 130.605 264.765 130.899 264.776 131.176C264.787 131.283 264.755 131.368 264.68 131.432C264.605 131.496 264.515 131.528 264.408 131.528H263.64C263.533 131.528 263.453 131.507 263.4 131.464C263.347 131.411 263.293 131.325 263.24 131.208C263.048 130.685 262.787 130.317 262.456 130.104C262.125 129.891 261.715 129.784 261.224 129.784C260.584 129.784 260.061 129.981 259.656 130.376C259.261 130.771 259.048 131.405 259.016 132.28C259.005 132.664 259.005 133.037 259.016 133.4C259.048 134.285 259.261 134.925 259.656 135.32C260.061 135.704 260.584 135.896 261.224 135.896C261.715 135.896 262.125 135.789 262.456 135.576C262.787 135.363 263.048 134.995 263.24 134.472C263.293 134.355 263.347 134.275 263.4 134.232C263.453 134.179 263.533 134.152 263.64 134.152H264.408C264.515 134.152 264.605 134.184 264.68 134.248C264.755 134.312 264.787 134.397 264.776 134.504C264.765 134.728 264.717 134.957 264.632 135.192C264.547 135.427 264.408 135.667 264.216 135.912C264.035 136.147 263.805 136.36 263.528 136.552C263.251 136.733 262.915 136.883 262.52 137C262.136 137.107 261.699 137.16 261.208 137.16ZM267.044 137C266.938 137 266.847 136.968 266.772 136.904C266.708 136.829 266.676 136.739 266.676 136.632V129.048C266.676 128.941 266.708 128.856 266.772 128.792C266.847 128.717 266.938 128.68 267.044 128.68H267.812C267.919 128.68 268.004 128.717 268.068 128.792C268.143 128.856 268.18 128.941 268.18 129.048V131.4H269.972C271.06 131.4 271.855 131.656 272.356 132.168C272.858 132.68 273.108 133.373 273.108 134.248C273.108 135.187 272.831 135.88 272.276 136.328C271.722 136.776 270.89 137 269.78 137H267.044ZM268.164 135.8H269.844C270.484 135.8 270.954 135.688 271.252 135.464C271.551 135.229 271.7 134.824 271.7 134.248C271.7 133.693 271.556 133.283 271.268 133.016C270.98 132.739 270.506 132.6 269.844 132.6H268.164V135.8ZM113.977 160.04C113.871 160.04 113.78 160.003 113.705 159.928C113.641 159.864 113.609 159.779 113.609 159.672V157C112.671 157 111.897 156.845 111.289 156.536C110.692 156.227 110.244 155.8 109.945 155.256C109.657 154.712 109.492 154.093 109.449 153.4C109.428 153.027 109.428 152.653 109.449 152.28C109.492 151.576 109.663 150.957 109.961 150.424C110.26 149.88 110.708 149.453 111.305 149.144C111.913 148.835 112.681 148.68 113.609 148.68V146.008C113.609 145.901 113.641 145.816 113.705 145.752C113.78 145.677 113.871 145.64 113.977 145.64H114.729C114.836 145.64 114.921 145.677 114.985 145.752C115.06 145.816 115.097 145.901 115.097 146.008V148.68C116.025 148.68 116.788 148.835 117.385 149.144C117.993 149.453 118.447 149.88 118.745 150.424C119.055 150.957 119.225 151.576 119.257 152.28C119.279 152.653 119.279 153.027 119.257 153.4C119.225 154.093 119.06 154.712 118.761 155.256C118.463 155.8 118.015 156.227 117.417 156.536C116.82 156.845 116.047 157 115.097 157V159.672C115.097 159.779 115.06 159.864 114.985 159.928C114.921 160.003 114.836 160.04 114.729 160.04H113.977ZM113.609 155.768V149.912C112.745 149.912 112.095 150.12 111.657 150.536C111.22 150.952 110.98 151.571 110.937 152.392C110.927 152.552 110.921 152.707 110.921 152.856C110.921 152.995 110.927 153.139 110.937 153.288C110.991 154.109 111.231 154.728 111.657 155.144C112.095 155.56 112.745 155.768 113.609 155.768ZM115.097 155.768C115.972 155.768 116.623 155.56 117.049 155.144C117.487 154.717 117.727 154.099 117.769 153.288C117.78 153.139 117.785 152.995 117.785 152.856C117.785 152.707 117.78 152.552 117.769 152.392C117.737 151.571 117.497 150.952 117.049 150.536C116.612 150.12 115.961 149.912 115.097 149.912V155.768ZM124.678 157.16C123.867 157.16 123.19 157.005 122.646 156.696C122.102 156.387 121.686 155.96 121.398 155.416C121.11 154.861 120.95 154.232 120.918 153.528C120.907 153.347 120.902 153.117 120.902 152.84C120.902 152.552 120.907 152.323 120.918 152.152C120.95 151.437 121.11 150.808 121.398 150.264C121.697 149.72 122.118 149.293 122.662 148.984C123.206 148.675 123.878 148.52 124.678 148.52C125.478 148.52 126.15 148.675 126.694 148.984C127.238 149.293 127.654 149.72 127.942 150.264C128.241 150.808 128.406 151.437 128.438 152.152C128.449 152.323 128.454 152.552 128.454 152.84C128.454 153.117 128.449 153.347 128.438 153.528C128.406 154.232 128.246 154.861 127.958 155.416C127.67 155.96 127.254 156.387 126.71 156.696C126.166 157.005 125.489 157.16 124.678 157.16ZM124.678 155.928C125.339 155.928 125.867 155.72 126.262 155.304C126.657 154.877 126.87 154.259 126.902 153.448C126.913 153.288 126.918 153.085 126.918 152.84C126.918 152.595 126.913 152.392 126.902 152.232C126.87 151.421 126.657 150.808 126.262 150.392C125.867 149.965 125.339 149.752 124.678 149.752C124.017 149.752 123.483 149.965 123.078 150.392C122.683 150.808 122.475 151.421 122.454 152.232C122.443 152.392 122.438 152.595 122.438 152.84C122.438 153.085 122.443 153.288 122.454 153.448C122.475 154.259 122.683 154.877 123.078 155.304C123.483 155.72 124.017 155.928 124.678 155.928ZM130.841 160.04C130.735 160.04 130.644 160.003 130.569 159.928C130.505 159.864 130.473 159.779 130.473 159.672V149.048C130.473 148.941 130.505 148.856 130.569 148.792C130.644 148.717 130.735 148.68 130.841 148.68H131.577C131.684 148.68 131.769 148.717 131.833 148.792C131.908 148.856 131.945 148.941 131.945 149.048V149.752C132.201 149.4 132.543 149.107 132.969 148.872C133.396 148.637 133.929 148.52 134.569 148.52C135.167 148.52 135.673 148.621 136.089 148.824C136.516 149.027 136.863 149.304 137.129 149.656C137.407 150.008 137.615 150.408 137.753 150.856C137.892 151.304 137.967 151.784 137.977 152.296C137.988 152.467 137.993 152.648 137.993 152.84C137.993 153.032 137.988 153.213 137.977 153.384C137.967 153.885 137.892 154.365 137.753 154.824C137.615 155.272 137.407 155.672 137.129 156.024C136.863 156.365 136.516 156.643 136.089 156.856C135.673 157.059 135.167 157.16 134.569 157.16C133.951 157.16 133.428 157.048 133.001 156.824C132.585 156.589 132.244 156.301 131.977 155.96V159.672C131.977 159.779 131.945 159.864 131.881 159.928C131.817 160.003 131.727 160.04 131.609 160.04H130.841ZM134.233 155.864C134.788 155.864 135.22 155.747 135.529 155.512C135.849 155.267 136.079 154.952 136.217 154.568C136.356 154.173 136.436 153.752 136.457 153.304C136.468 152.995 136.468 152.685 136.457 152.376C136.436 151.928 136.356 151.512 136.217 151.128C136.079 150.733 135.849 150.419 135.529 150.184C135.22 149.939 134.788 149.816 134.233 149.816C133.711 149.816 133.284 149.939 132.953 150.184C132.633 150.429 132.393 150.744 132.233 151.128C132.084 151.501 131.999 151.885 131.977 152.28C131.967 152.451 131.961 152.653 131.961 152.888C131.961 153.123 131.967 153.331 131.977 153.512C131.988 153.885 132.073 154.253 132.233 154.616C132.404 154.979 132.655 155.277 132.985 155.512C133.316 155.747 133.732 155.864 134.233 155.864ZM140.341 157C140.234 157 140.149 156.968 140.085 156.904C140.021 156.84 139.989 156.755 139.989 156.648V148.984C139.989 148.899 140.021 148.829 140.085 148.776C140.159 148.712 140.234 148.68 140.309 148.68H141.125C141.295 148.68 141.429 148.765 141.525 148.936L144.245 154.024L146.981 148.936C147.077 148.765 147.21 148.68 147.381 148.68H148.181C148.266 148.68 148.341 148.712 148.405 148.776C148.469 148.829 148.501 148.899 148.501 148.984V156.648C148.501 156.755 148.469 156.84 148.405 156.904C148.341 156.968 148.261 157 148.165 157H147.381C147.274 157 147.189 156.968 147.125 156.904C147.061 156.84 147.029 156.755 147.029 156.648V150.264L147.589 150.328L144.981 155.256C144.927 155.363 144.863 155.459 144.789 155.544C144.714 155.629 144.602 155.672 144.453 155.672H144.037C143.898 155.672 143.791 155.629 143.717 155.544C143.642 155.459 143.573 155.363 143.509 155.256L140.981 150.568L141.477 150.52V156.648C141.477 156.755 141.445 156.84 141.381 156.904C141.317 156.968 141.231 157 141.125 157H140.341ZM153.215 157.16C152.682 157.16 152.196 157.053 151.759 156.84C151.322 156.627 150.97 156.339 150.703 155.976C150.436 155.613 150.303 155.203 150.303 154.744C150.303 154.008 150.602 153.421 151.199 152.984C151.796 152.547 152.575 152.259 153.535 152.12L155.919 151.784V151.32C155.919 150.808 155.77 150.408 155.471 150.12C155.183 149.832 154.708 149.688 154.047 149.688C153.567 149.688 153.178 149.784 152.879 149.976C152.591 150.168 152.388 150.413 152.271 150.712C152.207 150.872 152.095 150.952 151.935 150.952H151.215C151.098 150.952 151.007 150.92 150.943 150.856C150.89 150.781 150.863 150.696 150.863 150.6C150.863 150.44 150.922 150.243 151.039 150.008C151.167 149.773 151.359 149.544 151.615 149.32C151.871 149.096 152.196 148.909 152.591 148.76C152.996 148.6 153.487 148.52 154.063 148.52C154.703 148.52 155.242 148.605 155.679 148.776C156.116 148.936 156.458 149.155 156.703 149.432C156.959 149.709 157.14 150.024 157.247 150.376C157.364 150.728 157.423 151.085 157.423 151.448V156.632C157.423 156.739 157.386 156.829 157.311 156.904C157.247 156.968 157.162 157 157.055 157H156.319C156.202 157 156.111 156.968 156.047 156.904C155.983 156.829 155.951 156.739 155.951 156.632V155.944C155.812 156.136 155.626 156.328 155.391 156.52C155.156 156.701 154.863 156.856 154.511 156.984C154.159 157.101 153.727 157.16 153.215 157.16ZM153.551 155.96C153.988 155.96 154.388 155.869 154.751 155.688C155.114 155.496 155.396 155.203 155.599 154.808C155.812 154.413 155.919 153.917 155.919 153.32V152.872L154.063 153.144C153.306 153.251 152.735 153.432 152.351 153.688C151.967 153.933 151.775 154.248 151.775 154.632C151.775 154.931 151.86 155.181 152.031 155.384C152.212 155.576 152.436 155.72 152.703 155.816C152.98 155.912 153.263 155.96 153.551 155.96ZM167.053 157.16C166.242 157.16 165.565 157.005 165.021 156.696C164.477 156.387 164.061 155.96 163.773 155.416C163.485 154.861 163.325 154.232 163.293 153.528C163.282 153.347 163.277 153.117 163.277 152.84C163.277 152.552 163.282 152.323 163.293 152.152C163.325 151.437 163.485 150.808 163.773 150.264C164.072 149.72 164.493 149.293 165.037 148.984C165.581 148.675 166.253 148.52 167.053 148.52C167.853 148.52 168.525 148.675 169.069 148.984C169.613 149.293 170.029 149.72 170.317 150.264C170.616 150.808 170.781 151.437 170.813 152.152C170.824 152.323 170.829 152.552 170.829 152.84C170.829 153.117 170.824 153.347 170.813 153.528C170.781 154.232 170.621 154.861 170.333 155.416C170.045 155.96 169.629 156.387 169.085 156.696C168.541 157.005 167.864 157.16 167.053 157.16ZM167.053 155.928C167.714 155.928 168.242 155.72 168.637 155.304C169.032 154.877 169.245 154.259 169.277 153.448C169.288 153.288 169.293 153.085 169.293 152.84C169.293 152.595 169.288 152.392 169.277 152.232C169.245 151.421 169.032 150.808 168.637 150.392C168.242 149.965 167.714 149.752 167.053 149.752C166.392 149.752 165.858 149.965 165.453 150.392C165.058 150.808 164.85 151.421 164.829 152.232C164.818 152.392 164.813 152.595 164.813 152.84C164.813 153.085 164.818 153.288 164.829 153.448C164.85 154.259 165.058 154.877 165.453 155.304C165.858 155.72 166.392 155.928 167.053 155.928ZM176.352 157.16C175.531 157.16 174.843 157.005 174.288 156.696C173.744 156.376 173.328 155.928 173.04 155.352C172.763 154.765 172.614 154.088 172.592 153.32C172.582 153 172.576 152.68 172.576 152.36C172.576 152.04 172.582 151.72 172.592 151.4C172.592 150.429 172.672 149.624 172.832 148.984C172.992 148.344 173.232 147.821 173.552 147.416C173.883 147 174.299 146.659 174.8 146.392C175.302 146.125 175.894 145.896 176.576 145.704C177.259 145.501 178.038 145.288 178.912 145.064C179.008 145.043 179.099 145.059 179.184 145.112C179.28 145.165 179.334 145.24 179.344 145.336L179.472 145.992C179.494 146.088 179.478 146.173 179.424 146.248C179.382 146.323 179.312 146.371 179.216 146.392C178.416 146.595 177.718 146.771 177.12 146.92C176.523 147.069 176.022 147.245 175.616 147.448C175.211 147.64 174.886 147.891 174.64 148.2C174.395 148.509 174.224 148.92 174.128 149.432C174.043 149.944 174.016 150.6 174.048 151.4L173.696 151.256C173.75 150.861 173.915 150.504 174.192 150.184C174.48 149.853 174.838 149.587 175.264 149.384C175.691 149.181 176.144 149.08 176.624 149.08C177.36 149.08 177.979 149.235 178.48 149.544C178.992 149.853 179.382 150.275 179.648 150.808C179.926 151.341 180.08 151.955 180.112 152.648C180.134 153.011 180.134 153.325 180.112 153.592C180.08 154.285 179.92 154.904 179.632 155.448C179.344 155.981 178.928 156.403 178.384 156.712C177.84 157.011 177.163 157.16 176.352 157.16ZM176.352 155.976C177.024 155.976 177.558 155.768 177.952 155.352C178.347 154.936 178.555 154.328 178.576 153.528C178.587 153.421 178.592 153.299 178.592 153.16C178.592 153.021 178.587 152.877 178.576 152.728C178.555 151.917 178.347 151.304 177.952 150.888C177.568 150.472 177.083 150.264 176.496 150.264C175.824 150.264 175.27 150.472 174.832 150.888C174.395 151.304 174.16 151.917 174.128 152.728C174.118 152.877 174.112 153.021 174.112 153.16C174.112 153.299 174.118 153.421 174.128 153.528C174.16 154.328 174.374 154.936 174.768 155.352C175.163 155.768 175.691 155.976 176.352 155.976ZM182.481 157C182.375 157 182.289 156.968 182.225 156.904C182.161 156.84 182.129 156.755 182.129 156.648V148.984C182.129 148.899 182.161 148.829 182.225 148.776C182.3 148.712 182.375 148.68 182.449 148.68H183.265C183.436 148.68 183.569 148.765 183.665 148.936L186.385 154.024L189.121 148.936C189.217 148.765 189.351 148.68 189.521 148.68H190.321C190.407 148.68 190.481 148.712 190.545 148.776C190.609 148.829 190.641 148.899 190.641 148.984V156.648C190.641 156.755 190.609 156.84 190.545 156.904C190.481 156.968 190.401 157 190.305 157H189.521C189.415 157 189.329 156.968 189.265 156.904C189.201 156.84 189.169 156.755 189.169 156.648V150.264L189.729 150.328L187.121 155.256C187.068 155.363 187.004 155.459 186.929 155.544C186.855 155.629 186.743 155.672 186.593 155.672H186.177C186.039 155.672 185.932 155.629 185.857 155.544C185.783 155.459 185.713 155.363 185.649 155.256L183.121 150.568L183.617 150.52V156.648C183.617 156.755 183.585 156.84 183.521 156.904C183.457 156.968 183.372 157 183.265 157H182.481ZM196.348 157.16C195.249 157.16 194.374 156.824 193.724 156.152C193.073 155.469 192.716 154.541 192.652 153.368C192.641 153.229 192.636 153.053 192.636 152.84C192.636 152.616 192.641 152.435 192.652 152.296C192.694 151.539 192.87 150.877 193.18 150.312C193.489 149.736 193.91 149.293 194.444 148.984C194.988 148.675 195.622 148.52 196.348 148.52C197.158 148.52 197.836 148.691 198.38 149.032C198.934 149.373 199.356 149.859 199.644 150.488C199.932 151.117 200.076 151.853 200.076 152.696V152.968C200.076 153.085 200.038 153.176 199.964 153.24C199.9 153.304 199.814 153.336 199.708 153.336H194.172C194.172 153.347 194.172 153.368 194.172 153.4C194.172 153.432 194.172 153.459 194.172 153.48C194.193 153.917 194.289 154.328 194.46 154.712C194.63 155.085 194.876 155.389 195.196 155.624C195.516 155.859 195.9 155.976 196.348 155.976C196.732 155.976 197.052 155.917 197.308 155.8C197.564 155.683 197.772 155.555 197.932 155.416C198.092 155.267 198.198 155.155 198.252 155.08C198.348 154.941 198.422 154.861 198.476 154.84C198.529 154.808 198.614 154.792 198.732 154.792H199.5C199.606 154.792 199.692 154.824 199.756 154.888C199.83 154.941 199.862 155.021 199.852 155.128C199.841 155.288 199.756 155.485 199.596 155.72C199.436 155.944 199.206 156.168 198.908 156.392C198.609 156.616 198.246 156.803 197.82 156.952C197.393 157.091 196.902 157.16 196.348 157.16ZM194.172 152.232H198.556V152.184C198.556 151.704 198.465 151.277 198.284 150.904C198.113 150.531 197.862 150.237 197.532 150.024C197.201 149.8 196.806 149.688 196.348 149.688C195.889 149.688 195.494 149.8 195.164 150.024C194.844 150.237 194.598 150.531 194.428 150.904C194.257 151.277 194.172 151.704 194.172 152.184V152.232ZM202.357 157C202.25 157 202.159 156.968 202.085 156.904C202.021 156.829 201.989 156.739 201.989 156.632V149.048C201.989 148.941 202.021 148.856 202.085 148.792C202.159 148.717 202.25 148.68 202.357 148.68H203.125C203.231 148.68 203.317 148.717 203.381 148.792C203.445 148.856 203.477 148.941 203.477 149.048V152.12H207.845V149.048C207.845 148.941 207.877 148.856 207.941 148.792C208.015 148.717 208.106 148.68 208.213 148.68H208.965C209.071 148.68 209.157 148.717 209.221 148.792C209.295 148.856 209.333 148.941 209.333 149.048V156.632C209.333 156.739 209.295 156.829 209.221 156.904C209.157 156.968 209.071 157 208.965 157H208.213C208.106 157 208.015 156.968 207.941 156.904C207.877 156.829 207.845 156.739 207.845 156.632V153.4H203.477V156.632C203.477 156.739 203.445 156.829 203.381 156.904C203.317 156.968 203.231 157 203.125 157H202.357ZM214.059 157.16C213.525 157.16 213.04 157.053 212.603 156.84C212.165 156.627 211.813 156.339 211.547 155.976C211.28 155.613 211.147 155.203 211.147 154.744C211.147 154.008 211.445 153.421 212.043 152.984C212.64 152.547 213.419 152.259 214.379 152.12L216.763 151.784V151.32C216.763 150.808 216.613 150.408 216.315 150.12C216.027 149.832 215.552 149.688 214.891 149.688C214.411 149.688 214.021 149.784 213.723 149.976C213.435 150.168 213.232 150.413 213.115 150.712C213.051 150.872 212.939 150.952 212.779 150.952H212.059C211.941 150.952 211.851 150.92 211.787 150.856C211.733 150.781 211.707 150.696 211.707 150.6C211.707 150.44 211.765 150.243 211.883 150.008C212.011 149.773 212.203 149.544 212.459 149.32C212.715 149.096 213.04 148.909 213.435 148.76C213.84 148.6 214.331 148.52 214.907 148.52C215.547 148.52 216.085 148.605 216.523 148.776C216.96 148.936 217.301 149.155 217.547 149.432C217.803 149.709 217.984 150.024 218.091 150.376C218.208 150.728 218.267 151.085 218.267 151.448V156.632C218.267 156.739 218.229 156.829 218.155 156.904C218.091 156.968 218.005 157 217.899 157H217.163C217.045 157 216.955 156.968 216.891 156.904C216.827 156.829 216.795 156.739 216.795 156.632V155.944C216.656 156.136 216.469 156.328 216.235 156.52C216 156.701 215.707 156.856 215.355 156.984C215.003 157.101 214.571 157.16 214.059 157.16ZM214.395 155.96C214.832 155.96 215.232 155.869 215.595 155.688C215.957 155.496 216.24 155.203 216.443 154.808C216.656 154.413 216.763 153.917 216.763 153.32V152.872L214.907 153.144C214.149 153.251 213.579 153.432 213.195 153.688C212.811 153.933 212.619 154.248 212.619 154.632C212.619 154.931 212.704 155.181 212.875 155.384C213.056 155.576 213.28 155.72 213.547 155.816C213.824 155.912 214.107 155.96 214.395 155.96Z" fill="#898989"/>
<defs>
<clipPath id="clip0_5909_93253">
<rect width="84" height="84" fill="white" transform="translate(122)"/>
</clipPath>
</defs>
</svg>
