<svg width="20" height="20" viewBox="0 0 20 20" fill="none" xmlns="http://www.w3.org/2000/svg">
<g id="telegram">
<path id="Vector" fill-rule="evenodd" clip-rule="evenodd" d="M2.8125 8.59866C7.28641 6.59941 10.2697 5.28139 11.7624 4.64459C16.0244 2.82638 16.91 2.51054 17.4872 2.50011C17.6142 2.49782 17.8981 2.53009 18.0819 2.68312C18.2372 2.81233 18.2799 2.98689 18.3003 3.1094C18.3208 3.23191 18.3462 3.51099 18.326 3.72906C18.095 6.21804 17.0957 12.2581 16.5873 15.0459C16.3722 16.2254 15.9486 16.6209 15.5385 16.6596C14.6472 16.7438 13.9705 16.0555 13.1073 15.4752C11.7566 14.5671 10.9935 14.0017 9.68241 13.1156C8.16719 12.0914 9.14944 11.5285 10.013 10.6086C10.2389 10.3679 14.1657 6.70456 14.2417 6.37223C14.2512 6.33067 14.26 6.17574 14.1703 6.09394C14.0805 6.01213 13.9481 6.04011 13.8525 6.06236C13.717 6.09389 11.5593 7.55672 7.37914 10.4508C6.76665 10.8822 6.21189 11.0924 5.71483 11.0814C5.16687 11.0692 4.11281 10.7636 3.32923 10.5024C2.36813 10.1819 1.60427 10.0125 1.67079 9.46831C1.70543 9.18486 2.086 8.89498 2.8125 8.59866Z" fill="#4D7BF1"/>
</g>
</svg>
