<svg width="24" height="25" viewBox="0 0 24 25" fill="none" xmlns="http://www.w3.org/2000/svg">
<path fill-rule="evenodd" clip-rule="evenodd" d="M3.3749 10.4007C8.74359 8.00157 12.3236 6.41994 14.1148 5.65578C19.2292 3.47393 20.2919 3.09492 20.9846 3.08241C21.1369 3.07966 21.4776 3.11838 21.6982 3.30202C21.8845 3.45708 21.9358 3.66654 21.9603 3.81355C21.9848 3.96057 22.0154 4.29546 21.9911 4.55714C21.714 7.54392 20.5147 14.7921 19.9046 18.1373C19.6465 19.5528 19.1382 20.0274 18.6461 20.0739C17.5766 20.1748 16.7645 19.3489 15.7287 18.6525C14.1078 17.5627 13.1921 16.8844 11.6188 15.8209C9.80053 14.592 10.9792 13.9165 12.0155 12.8126C12.2866 12.5238 16.9987 8.12774 17.0899 7.72896C17.1013 7.67908 17.1119 7.49317 17.0042 7.395C16.8965 7.29683 16.7376 7.3304 16.6229 7.3571C16.4604 7.39495 13.871 9.15034 8.85487 12.6233C8.11989 13.1409 7.45416 13.3932 6.8577 13.3799C6.20015 13.3654 4.93528 12.9986 3.99498 12.6851C2.84166 12.3006 1.92503 12.0973 2.00485 11.4442C2.04642 11.1041 2.5031 10.7562 3.3749 10.4007Z" fill="#B5B5B5"/>
</svg>
