<svg width="24" height="25" viewBox="0 0 24 25" fill="none" xmlns="http://www.w3.org/2000/svg">
<g id="Twitter">
<path id="Symbol" d="M21.543 7.68299C21.5576 7.89997 21.5576 8.11696 21.5576 8.33594C21.5576 15.0084 16.6045 22.7039 7.54759 22.7039V22.6999C4.87215 22.7039 2.25229 21.9179 0 20.436C0.389031 20.484 0.780012 20.508 1.17197 20.509C3.38915 20.511 5.54296 19.7481 7.28726 18.3432C5.18026 18.3022 3.3326 16.8933 2.68714 14.8365C3.42523 14.9824 4.18574 14.9524 4.91018 14.7495C2.61304 14.2735 0.96039 12.2036 0.96039 9.79983C0.96039 9.77783 0.96039 9.75683 0.96039 9.73583C1.64485 10.1268 2.41121 10.3438 3.19512 10.3678C1.03157 8.8849 0.364656 5.93312 1.67118 3.62529C4.17111 6.78006 7.8596 8.69791 11.8191 8.9009C11.4223 7.14703 11.9644 5.30917 13.2436 4.07626C15.2268 2.1644 18.3459 2.2624 20.2101 4.29524C21.3129 4.07226 22.3698 3.65729 23.337 3.06934C22.9694 4.23825 22.2001 5.23117 21.1725 5.86213C22.1484 5.74414 23.102 5.47616 24 5.06719C23.3389 6.08311 22.5063 6.96804 21.543 7.68299Z" fill="#4D7BF1"/>
</g>
</svg>
