<svg width="135" height="40" viewBox="0 0 135 40" fill="none" xmlns="http://www.w3.org/2000/svg">
<g clip-path="url(#clip0_6795_156019)">
<path d="M20.4623 20.4052C20.4312 21.184 19.9119 21.8382 19.5173 22.4612C17.3572 25.836 15.1867 29.2003 12.9539 32.5232C11.3234 34.953 9.19449 34.953 7.54326 32.5024C5.26892 29.1173 2.74535 25.3375 0.75141 21.7863C0.18023 20.7582 0.201 19.7095 0.761795 18.6711C2.70381 15.0886 5.6324 11.122 7.84443 7.69531C9.17372 5.6393 11.3442 5.40047 12.6839 7.26957C15.3321 10.9455 17.326 14.8913 19.8392 18.6711C20.1611 19.1487 20.4935 19.751 20.4623 20.4156V20.4052ZM10.2642 32.1701C12.902 28.0997 15.2594 24.5172 17.5545 20.9036C17.7518 20.6025 17.7518 19.9691 17.5545 19.6679C16.2979 17.7262 14.9686 15.8363 13.2654 13.3338C12.3516 18.8788 9.38142 21.8174 4.18887 22.835L10.2642 32.1701Z" fill="#333333"/>
<path d="M33.6692 31.1323H28.5078L35.2166 11.2679H41.6138L48.3226 31.1323H43.1612L38.4983 16.273H38.3425L33.69 31.1323H33.6692ZM32.9838 23.3133H43.7739V26.958H32.9838V23.3133Z" fill="black"/>
<path d="M50.4648 11.2679H56.4155L61.4627 23.5729H61.6911L66.7383 11.2679H72.6889V31.1323H68.0156V18.9313H67.8495L63.0723 31.0077H60.0814L55.3043 18.8586H55.1381V31.1323H50.4648V11.2679Z" fill="black"/>
<path d="M75.6862 31.1323V11.2679H80.4841V27.2384H88.7506V31.1427H75.6758L75.6862 31.1323Z" fill="black"/>
<path d="M91.2409 31.1323V11.2679H99.5282C101.013 11.2679 102.259 11.4756 103.267 11.9014C104.274 12.3167 105.032 12.9086 105.541 13.6666C106.05 14.4246 106.299 15.2969 106.299 16.2937C106.299 17.0518 106.143 17.7267 105.822 18.3186C105.5 18.9105 105.063 19.3985 104.513 19.7931C103.952 20.1773 103.308 20.4577 102.581 20.6134V20.8107C103.381 20.8523 104.129 21.0703 104.804 21.4649C105.479 21.8595 106.04 22.4099 106.445 23.1056C106.86 23.8117 107.068 24.632 107.068 25.5977C107.068 26.6673 106.798 27.6226 106.258 28.4533C105.718 29.2944 104.928 29.9486 103.9 30.4366C102.872 30.9247 101.626 31.1635 100.151 31.1635H91.2305L91.2409 31.1323ZM96.0388 19.4297H98.6974C99.2166 19.4297 99.6839 19.3466 100.099 19.1701C100.504 18.9936 100.826 18.7443 101.055 18.4121C101.283 18.0798 101.397 17.6852 101.397 17.2179C101.397 16.5533 101.159 16.0238 100.691 15.6499C100.224 15.2657 99.5801 15.0788 98.7804 15.0788H96.0492V19.4401L96.0388 19.4297ZM96.0388 27.2591H99.0089C100.047 27.2591 100.816 27.0618 101.314 26.6673C101.813 26.2727 102.052 25.7223 102.052 25.0162C102.052 24.5074 101.927 24.0609 101.688 23.6871C101.449 23.3133 101.107 23.0329 100.671 22.8252C100.234 22.6175 99.7047 22.5241 99.092 22.5241H96.0388V27.2591Z" fill="black"/>
<path d="M116.343 31.4127C114.775 31.4127 113.435 31.0908 112.314 30.447C111.192 29.8032 110.33 28.8998 109.728 27.7472C109.125 26.5946 108.824 25.2551 108.824 23.7286C108.824 22.2022 109.125 20.8523 109.728 19.6997C110.33 18.5471 111.192 17.6437 112.314 16.9999C113.435 16.3561 114.775 16.0342 116.343 16.0342C117.911 16.0342 119.251 16.3561 120.372 16.9999C121.494 17.6437 122.356 18.5471 122.958 19.6997C123.561 20.8523 123.862 22.2022 123.862 23.7286C123.862 25.2551 123.561 26.5946 122.958 27.7472C122.356 28.8998 121.494 29.8032 120.372 30.447C119.251 31.0908 117.911 31.4127 116.343 31.4127ZM116.374 27.8303C116.945 27.8303 117.423 27.6538 117.818 27.3111C118.212 26.958 118.514 26.4804 118.721 25.8573C118.929 25.2343 119.033 24.5178 119.033 23.7079C119.033 22.8979 118.929 22.1503 118.721 21.5376C118.514 20.9146 118.212 20.4266 117.818 20.0839C117.423 19.7412 116.945 19.5647 116.374 19.5647C115.803 19.5647 115.294 19.7412 114.889 20.0839C114.484 20.4266 114.173 20.9146 113.965 21.5376C113.757 22.1607 113.653 22.8875 113.653 23.7079C113.653 24.5282 113.757 25.2447 113.965 25.8573C114.173 26.4804 114.484 26.9684 114.889 27.3111C115.294 27.6641 115.793 27.8303 116.374 27.8303Z" fill="black"/>
<path d="M134.719 16.2314V19.7203H125.32V16.2314H134.719ZM127.283 12.6593H132.029V26.4491C132.029 26.7399 132.071 26.9787 132.174 27.1552C132.268 27.3317 132.403 27.4563 132.59 27.529C132.766 27.6017 132.985 27.6433 133.244 27.6433C133.421 27.6433 133.618 27.6225 133.826 27.5913C134.033 27.5602 134.179 27.529 134.283 27.4979L134.999 30.9246C134.771 30.9869 134.459 31.0699 134.044 31.1634C133.628 31.2568 133.14 31.3192 132.569 31.3503C131.458 31.4022 130.502 31.2672 129.713 30.9557C128.924 30.6442 128.311 30.1562 127.896 29.4812C127.48 28.8166 127.273 27.9755 127.293 26.9683V12.6593H127.283Z" fill="black"/>
</g>
<defs>
<clipPath id="clip0_6795_156019">
<rect width="134.667" height="40" fill="white" transform="translate(0.332031)"/>
</clipPath>
</defs>
</svg>
