<svg width="138" height="40" viewBox="0 0 138 40" fill="none" xmlns="http://www.w3.org/2000/svg">
<g clip-path="url(#clip0_6795_156023)">
<path d="M14.3174 24.8731H7.45472L6.3818 28.048H0.667969L8.26954 8.49719H13.4823L21.2509 28.0532H15.3802L14.3123 24.8782L14.3174 24.8731ZM10.8759 14.5966L8.75539 20.6551H13.0167L10.8759 14.5966Z" fill="black"/>
<path d="M37.625 18.8502V28.0479H32.483V19.5711C32.483 17.8175 31.8302 16.9432 30.5345 16.9432C28.9302 16.9432 28.0091 18.0731 28.0091 19.9955V28.053H22.8672V12.9655H26.4757L27.1842 14.5198C28.2976 13.2672 29.9525 12.5156 31.8858 12.5156C35.3526 12.5156 37.63 15.0055 37.63 18.8502H37.625Z" fill="black"/>
<path d="M50.6576 23.4977V28.0479H47.12C43.8152 28.0479 41.811 26.008 41.811 22.6541V16.9637H39.0781V15.7469L45.7687 8.54822H46.8265V12.9656H50.5766V16.9688H46.953V21.7696C46.953 22.8484 47.5957 23.5028 48.6838 23.5028H50.6576V23.4977Z" fill="black"/>
<path d="M53.0547 12.9654H58.1966V28.0529H53.0547V12.9654ZM53.0952 6.66663H58.1612V11.0737H53.0952V6.66663Z" fill="black"/>
<path d="M60.7523 21.7336H66.2536C66.2536 23.1293 67.3214 23.8093 68.5361 23.8093C69.6546 23.8093 70.7174 23.2111 70.7174 22.1426C70.7174 20.9155 69.2092 20.5628 67.367 20.1077C64.5683 19.4022 60.9952 18.5381 60.9952 14.085C60.9952 10.2352 63.794 8.02649 68.3589 8.02649C72.9239 8.02649 75.6619 10.4346 75.6619 14.4122H70.3125C70.3125 13.1749 69.4015 12.5972 68.2931 12.5972C67.3417 12.5972 66.4307 13.0113 66.4307 13.9265C66.4307 15.036 67.8883 15.4041 69.7102 15.8693C72.5595 16.6107 76.2844 17.5718 76.2844 22.0403C76.2844 26.5088 73.0353 28.5283 68.5411 28.5283C63.8041 28.5283 60.7422 25.9975 60.7422 21.7336H60.7523Z" fill="black"/>
<path d="M100.993 12.9654L96.2356 28.0529H92.0906L89.135 21.294L86.2452 28.0529H82.1003L77.2266 12.9654H82.6114L84.8737 20.885L88.4012 13.0115H89.7879L93.5128 20.9565L95.7396 12.9603H100.993V12.9654Z" fill="black"/>
<path d="M118.205 12.95V28.0375H114.227L113.787 26.969C112.562 27.9711 111.013 28.5437 109.282 28.5437C104.717 28.5437 101.453 25.1795 101.453 20.4912C101.453 15.8029 104.717 12.495 109.282 12.495C111.044 12.495 112.613 13.0881 113.847 14.1157L114.374 12.95H118.205ZM113.311 20.5066C113.311 18.5484 111.894 17.0759 109.971 17.0759C108.048 17.0759 106.625 18.5484 106.625 20.5066C106.625 22.4647 108.043 23.9474 109.971 23.9474C111.899 23.9474 113.311 22.4749 113.311 20.5066Z" fill="black"/>
<path d="M138 20.5064C138 25.2049 134.735 28.5588 130.17 28.5588C128.819 28.5588 127.584 28.2009 126.532 27.5567V33.4977H121.445V12.9652H124.942L125.585 14.1615C126.815 13.0879 128.394 12.4692 130.17 12.4692C134.735 12.4692 138 15.8078 138 20.5064ZM132.822 20.5064C132.822 18.5226 131.405 17.0553 129.482 17.0553C127.559 17.0553 126.142 18.5278 126.142 20.5064C126.142 22.485 127.559 23.9574 129.482 23.9574C131.405 23.9574 132.822 22.485 132.822 20.5064Z" fill="black"/>
</g>
<defs>
<clipPath id="clip0_6795_156023">
<rect width="137.333" height="40" fill="white" transform="translate(0.667969)"/>
</clipPath>
</defs>
</svg>
