<svg width="145" height="40" viewBox="0 0 145 40" fill="none" xmlns="http://www.w3.org/2000/svg">
<path d="M140.033 4.66663H59.6133V9.74158V30C59.6133 32.69 59.6135 32 59.6133 34.6666H140.033C142.747 34.6666 144.947 32.4859 144.947 29.7959V9.53747C144.947 6.84739 142.747 4.66663 140.033 4.66663Z" fill="url(#paint0_linear_4762_67039)"/>
<path d="M59.6146 4.66663V34.6666H5.22296C2.49445 34.6666 0.28125 32.4852 0.28125 29.7959V9.53747C0.28125 6.8481 2.49445 4.66663 5.22296 4.66663H59.6146Z" fill="url(#paint1_linear_4762_67039)"/>
<path d="M6.94922 11.334H12.9663C16.6258 11.2924 17.7606 13.2654 17.7606 15.5711C17.7606 17.6688 17.2387 18.6048 16.4346 18.9821C17.5513 19.4932 18.2826 20.658 18.2826 22.9578C18.2826 26.1697 16.732 28 12.8571 28H6.94922V11.334ZM12.4262 17.752C14.1801 17.752 14.5078 17.4133 14.5048 15.987C14.5048 14.8134 14.1042 14.436 12.6144 14.445L10.2324 14.436L10.2385 17.752H12.4262ZM10.105 24.7167L12.6144 24.7316C14.5351 24.7524 14.9508 24.2681 14.9781 22.8151C15.0054 21.1928 14.6019 20.7085 12.4111 20.7085L10.105 20.7144V24.7167Z" fill="white"/>
<path d="M30.178 20.8211L23.5032 20.833V24.7345H30.9479V28H20.2812V11.3334H30.7347L30.7495 14.4385H23.4617L23.4765 17.6744L30.178 17.7546V20.8211Z" fill="white"/>
<path d="M139.51 20.8211L132.835 20.833V24.7345H140.28V28H129.613V11.3334H140.067L140.082 14.4385H132.794L132.809 17.6744L139.51 17.7546V20.8211Z" fill="#1F1F1F"/>
<path d="M34.8335 22.0234C34.8896 24.5458 36.0966 25.4913 37.8089 25.4913C39.6398 25.4913 40.2791 24.7706 40.2791 23.5295C40.2791 21.9372 39.6834 21.1426 37.2569 20.9485C34.2939 20.7114 32.1637 19.4147 32.0857 15.6974C32.0077 11.9646 34.4717 10.7204 37.5314 10.668C41.6047 10.5972 43.2546 13.1904 43.0831 16.5752L39.8924 16.5259C39.8674 14.6688 39.2343 13.7479 37.5251 13.7479C36.0842 13.7479 35.3387 14.2499 35.3512 15.3463C35.3668 16.6552 36.053 17.3205 38.4296 17.5915C43.0363 18.1182 43.6133 20.8469 43.6133 23.3631C43.6133 26.2243 41.8729 28.6666 37.6655 28.6666C34.1598 28.6666 31.543 27.1328 31.6147 22.008L34.8303 22.0234H34.8335Z" fill="white"/>
<path d="M48.2335 14.5157H44.2812V11.3334H54.9479V14.5693H51.2261V28H48.2335V14.5157Z" fill="white"/>
<path d="M74.9492 21.9223C74.5785 26.323 72.8125 28.6666 69.0266 28.6666C64.3795 28.6666 62.9492 24.5646 62.9492 19.5665C62.9492 14.5684 64.8436 10.6666 69.1521 10.6666C73.1365 10.6666 74.885 13.3982 74.885 16.7826L71.9135 16.798C71.7412 15.2089 71.2187 13.817 69.193 13.817C66.7381 13.817 66.1163 16.4223 66.1163 19.5696C66.1163 22.9017 66.6855 25.3376 69.2046 25.3376C71.175 25.3376 71.7266 23.8902 71.9514 21.9254H74.9492V21.9223Z" fill="#1F1F1F"/>
<path d="M76.9492 11.3334H79.8778V17.5563H84.6844V11.3334H87.6159V28H84.5658V20.7248H79.8778V28H76.9492V11.3334Z" fill="#1F1F1F"/>
<path d="M92.8612 24.4475L92.0174 28H88.9492C89.1243 27.3523 93.1195 12.0691 93.3147 11.3334H96.4173L100.949 28H97.8323L96.9483 24.4768L92.8583 24.4475H92.8612ZM96.1848 21.4899C95.3582 18.1132 95.2836 17.7556 94.9822 16.1991H94.7899C94.4685 18.0516 94.2819 18.6232 93.5874 21.4899H96.1848Z" fill="#1F1F1F"/>
<path d="M102.281 28V11.3334H105.443C107.731 16.416 109.391 19.0013 110.426 21.4254L110.508 11.3334H113.615L113.56 28H110.453C107.872 22.5656 105.427 17.8992 105.427 17.8992C105.479 20.4054 105.485 28 105.485 28H102.284H102.281Z" fill="#1F1F1F"/>
<path d="M127.61 28.411H125.123C125.03 27.8381 125.172 27.1728 125.138 26.5167C124.446 28.2662 122.879 28.6666 121.197 28.6666C117.293 28.6666 115.521 24.7642 115.617 19.6666C115.736 13.4387 117.424 10.6666 121.973 10.6666C126.119 10.6666 127.379 13.7867 127.379 16.9346L124.379 16.95C124.338 14.9572 123.542 13.8021 121.721 13.8021C119.381 13.8021 118.643 15.8781 118.646 19.7806C118.646 23.104 119.375 25.2539 121.643 25.2539C123.667 25.2539 124.524 24.3391 124.524 22.0906V22.0074L121.614 22.0352V18.8843H127.613V28.414L127.61 28.411Z" fill="#1F1F1F"/>
<defs>
<linearGradient id="paint0_linear_4762_67039" x1="0.27994" y1="19.6666" x2="144.947" y2="19.6666" gradientUnits="userSpaceOnUse">
<stop stop-color="#F4F4F4"/>
<stop offset="1" stop-color="#BFBFBF"/>
</linearGradient>
<linearGradient id="paint1_linear_4762_67039" x1="0.28125" y1="19.6666" x2="59.6146" y2="19.6666" gradientUnits="userSpaceOnUse">
<stop stop-color="#4A4A4A"/>
<stop offset="1" stop-color="#171717"/>
</linearGradient>
</defs>
</svg>
