<svg width="215" height="40" viewBox="0 0 215 40" fill="none" xmlns="http://www.w3.org/2000/svg">
<g clip-path="url(#clip0_6810_81932)">
<path d="M77.9226 7.73962C77.9226 7.73962 75.1408 6.30642 70.5928 6.53057C66.0449 6.75472 60.5722 9.0234 58.5483 14.1517C56.8125 18.5532 58.4649 26.4528 66.2116 27.5125C69.1526 27.9132 71.9421 27.5125 71.9421 27.5125L69.6681 38H52.4844V2.15623L80.6135 2C80.6135 2 79.1582 3.54189 78.5063 5.02264C77.9833 6.22491 77.9151 7.73962 77.9151 7.73962H77.9226Z" fill="#333333"/>
<path d="M83.5742 2C83.5742 2 85.2813 6.32183 87.8457 9.99708C89.3142 12.0933 92.393 16 92.393 16C92.393 16 97.0223 10.4395 101.092 7.60817C104.097 5.51872 105.781 4.32086 105.781 4.32086L98.6996 4.43656L100.906 2.01361H83.5742V2Z" fill="#333333"/>
<path d="M113.926 30V14.7838L111.23 17.0481V8.66663C111.23 8.66663 102.54 15.3063 100.087 17.919L97.6406 20.5316C97.6406 20.5316 100.05 24.3078 104.494 26.8578C110.371 30.2229 113.919 29.993 113.919 29.993L113.926 30Z" fill="#333333"/>
<path d="M114.666 33.4752C114.666 33.4752 113.09 36.3786 109.138 36.2469C104.772 36.1014 99.2741 32.1448 95.9407 28.7426L92.6074 25.3334C92.6074 25.3334 90.9181 28.3822 87.17 31.6667C83.5878 34.8057 81.3555 35.845 81.3555 35.845C81.3555 35.845 84.6888 36.6558 86.446 36.8844L88.2032 37.1131L86.3781 38H114.659V33.4752H114.666Z" fill="#333333"/>
<path d="M88.0177 20.869L83.7033 16L83.4557 19.3412H66.5508C66.5508 19.3412 66.5733 21.0948 68.4491 22.0314C70.3249 22.968 72.2608 22.4167 73.3263 21.6993C74.3917 20.9819 74.6994 20.6099 74.6994 20.6099L82.5778 21.4801C82.5778 21.4801 81.8875 23.3333 79.5765 25.0537C77.7607 26.4022 76.0725 26.7409 76.0725 26.7409L76.0125 30.6667C76.0125 30.6667 80.3794 28.8865 83.4557 26.0966C86.1719 23.6322 88.0177 20.8623 88.0177 20.8623V20.869Z" fill="#333333"/>
<path d="M66.5508 15.3334C66.5508 15.3334 67.2837 11.3334 71.0728 11.3334C74.6934 11.3334 74.6934 15.3334 74.6934 15.3334H66.5508Z" fill="#333333"/>
<path d="M125.982 20.5134H125.265L125.092 19.1202C124.865 18.8348 124.496 18.5969 123.967 18.4066C123.402 18.1959 122.843 18.094 122.307 18.094C121.077 18.094 120.134 18.4882 119.485 19.2833C118.995 19.8814 118.753 20.7648 118.753 21.9134C118.753 23.3813 119.146 24.557 119.93 25.4337C120.806 26.3988 121.96 26.8813 123.409 26.8813C124.292 26.8813 125.182 26.657 126.08 26.2153L126.337 26.5619L125.801 27.289C125.665 27.4657 125.22 27.6424 124.458 27.8123C123.696 27.9822 122.986 28.0706 122.322 28.0706C120.73 28.0706 119.402 27.6424 118.338 26.7793C117.123 25.7939 116.52 24.4755 116.52 22.8308C116.52 21.8114 116.746 20.9144 117.206 20.126C117.667 19.3445 118.338 18.6989 119.229 18.2027C120.76 17.3396 122.141 16.9115 123.371 16.9115C124.375 16.9115 125.364 17.1765 126.329 17.7134C126.103 18.5358 125.99 19.4736 125.967 20.5134H125.982Z" fill="#333333"/>
<path d="M127.422 26.9968L128.561 26.9288C128.999 26.9016 129.263 26.7997 129.361 26.6366C129.459 26.4735 129.504 26.0181 129.504 25.2842V13.4591C129.504 12.8338 129.293 12.5212 128.87 12.5212H127.444V11.8892C129.112 11.6581 130.432 11.3795 131.406 11.0397L131.625 11.2164V18.9842L133.541 17.4823C133.821 17.2716 134.107 17.1289 134.402 17.0406C134.696 16.9522 135.081 16.9114 135.556 16.9114C138.371 16.9114 139.774 18.2367 139.774 20.8803V25.2842C139.774 26.0181 139.82 26.4735 139.918 26.6366C140.016 26.8065 140.28 26.9016 140.718 26.9288L141.759 26.9968V27.6764C140.688 27.6288 139.978 27.6084 139.646 27.6084C139.284 27.6084 138.62 27.6288 137.654 27.6764V21.1997C137.654 20.1803 137.337 19.426 136.711 18.9231C136.183 18.5085 135.564 18.2978 134.839 18.2978C133.828 18.2978 132.968 18.6308 132.266 19.3036C131.836 19.7046 131.625 20.0852 131.625 20.4386V25.2774C131.625 26.0113 131.67 26.4667 131.768 26.6298C131.866 26.7997 132.13 26.8948 132.568 26.922L133.707 26.99V27.6696C132.304 27.622 131.255 27.6016 130.561 27.6016C129.867 27.6016 128.818 27.622 127.414 27.6696V26.99L127.422 26.9968Z" fill="#333333"/>
<path d="M150.243 25.7396L147.096 27.7036C146.9 27.8328 146.545 27.8939 146.032 27.8939C145.126 27.8939 144.402 27.6968 143.866 27.3027C143.179 26.8066 142.84 26.0726 142.84 25.094C142.84 24.1153 143.225 23.3066 143.987 22.7289C144.757 22.1581 146.002 21.7299 147.722 21.4445L150.235 21.0299C150.22 20.4387 150.137 19.963 149.978 19.6028C149.827 19.2426 149.571 18.9368 149.216 18.6785C148.696 18.2979 147.888 18.1076 146.794 18.1076C146.198 18.1076 145.79 18.1756 145.572 18.3183C145.353 18.461 145.104 18.8008 144.84 19.3445L144.508 20.0445L143.851 19.8882V18.4067L145.187 17.6795C146.145 17.163 147.171 16.8979 148.265 16.8979C149.782 16.8979 150.854 17.2785 151.473 18.0329C152.001 18.6717 152.265 19.8067 152.265 21.4309V25.6105C152.265 26.1813 152.303 26.5415 152.386 26.691C152.469 26.8405 152.657 26.9221 152.974 26.9357L153.963 26.9833V27.6629C153.729 27.6561 153.555 27.6493 153.442 27.6425C152.793 27.6153 152.34 27.5949 152.091 27.5949C151.797 27.5949 151.133 27.6153 150.114 27.6629L150.235 25.726L150.243 25.7396ZM150.243 24.7813V21.7707C148.265 22.0222 146.937 22.3348 146.273 22.695C145.896 22.9056 145.594 23.1979 145.36 23.5717C145.134 23.9454 145.021 24.3396 145.021 24.761C145.021 25.3182 145.239 25.7736 145.692 26.1338C146.054 26.4396 146.469 26.5891 146.93 26.5891C147.662 26.5891 148.545 26.2085 149.563 25.4406C149.82 25.2503 150.046 25.026 150.243 24.7813Z" fill="#333333"/>
<path d="M165.08 27.6765V21.1998C165.08 20.1804 164.763 19.4261 164.137 18.9232C163.608 18.5086 162.99 18.2979 162.265 18.2979C161.254 18.2979 160.394 18.6309 159.692 19.2902C159.262 19.6979 159.051 20.0853 159.051 20.4387V25.2775C159.051 26.0114 159.096 26.4668 159.194 26.6299C159.292 26.7998 159.556 26.8949 159.994 26.9221L161.133 26.9901V27.6697C159.73 27.6221 158.681 27.6017 157.987 27.6017C157.292 27.6017 156.243 27.6221 154.84 27.6697V26.9901L155.979 26.9221C156.409 26.8949 156.674 26.793 156.772 26.6231C156.87 26.4532 156.923 26.0046 156.923 25.2775V20.1397C156.923 19.3785 156.862 18.9164 156.741 18.7397C156.621 18.563 156.311 18.4814 155.806 18.4814H154.862V17.8426C156.251 17.6863 157.572 17.3737 158.824 16.9047L159.043 16.9931V18.9639L160.96 17.4688C161.45 17.0882 162.122 16.8979 162.974 16.8979C165.789 16.8979 167.193 18.2232 167.193 20.8668V25.2707C167.193 26.0046 167.238 26.46 167.336 26.6231C167.434 26.793 167.698 26.8881 168.136 26.9153L169.177 26.9833V27.6629C168.106 27.6153 167.396 27.5949 167.064 27.5949C166.702 27.5949 166.038 27.6153 165.072 27.6629L165.08 27.6765Z" fill="#333333"/>
<path d="M182.111 18.9845H179.787C179.968 19.3922 180.059 19.8068 180.059 20.2213C180.059 21.4038 179.493 22.3621 178.361 23.096C177.236 23.8232 176.082 24.1902 174.897 24.1902C174.724 24.1902 174.52 24.1766 174.294 24.1426C174.203 24.2174 174.097 24.3057 173.969 24.4009C173.403 24.8222 173.116 25.1756 173.116 25.4611C173.116 26.0455 173.758 26.3446 175.048 26.3446H179.108C180.044 26.3446 180.776 26.6164 181.311 27.1669C181.832 27.7038 182.089 28.3562 182.089 29.1309C182.089 30.3066 181.583 31.3464 180.579 32.2503C179.244 33.46 177.463 34.0648 175.244 34.0648C173.856 34.0648 172.671 33.8134 171.683 33.3037C170.415 32.6581 169.773 31.7406 169.773 30.5649C169.773 30.1979 169.849 29.8445 169.992 29.4911C170.136 29.1377 170.302 28.9202 170.483 28.8251L172.701 27.7445C172.083 27.5814 171.645 27.3979 171.396 27.2009C171.147 26.997 171.019 26.7387 171.019 26.4193C171.019 26.0999 171.147 25.7737 171.403 25.4475L173.411 24.0679C172.814 24.0067 172.294 23.8504 171.849 23.599C170.86 23.0349 170.362 22.1718 170.362 21.0165C170.362 19.5961 171.079 18.5155 172.505 17.7748C173.622 17.2039 174.776 16.9185 175.969 16.9185C177.161 16.9185 178.172 17.2379 179.063 17.8767L182.655 17.7883L182.768 18.0534L182.126 18.9912L182.111 18.9845ZM176.218 27.9348C174.686 27.9348 173.728 28.0096 173.358 28.1591C172.86 28.3494 172.46 28.662 172.158 29.0969C171.856 29.5251 171.698 30.0008 171.698 30.5105C171.698 31.36 172.037 32.0464 172.724 32.5697C173.411 33.0998 174.301 33.3581 175.395 33.3581C176.489 33.3581 177.365 33.1474 178.165 32.7328C179.432 32.0804 180.074 31.1493 180.074 29.9329C180.074 29.2465 179.832 28.7503 179.342 28.4309C178.829 28.0979 177.787 27.928 176.21 27.928L176.218 27.9348ZM175.056 17.6932C174.331 17.6932 173.743 17.8903 173.297 18.2845C172.754 18.767 172.482 19.4942 172.482 20.466C172.482 21.4378 172.784 22.1854 173.388 22.7291C173.901 23.1844 174.543 23.4087 175.32 23.4087C176.097 23.4087 176.738 23.1776 177.214 22.7155C177.689 22.2533 177.931 21.6485 177.931 20.9009C177.931 19.766 177.576 18.8961 176.867 18.3048C176.376 17.8971 175.78 17.6932 175.063 17.6932H175.056Z" fill="#333333"/>
<path d="M193.64 26.0179L193.134 26.7858C193.029 26.949 192.591 27.18 191.821 27.479C190.81 27.8732 189.837 28.0703 188.916 28.0703C187.452 28.0703 186.215 27.7033 185.188 26.9761C183.875 26.0383 183.219 24.5907 183.219 22.6267C183.219 21.4306 183.445 20.4519 183.89 19.6976C184.343 18.9432 185.083 18.2976 186.124 17.7539C187.196 17.1899 188.214 16.9044 189.18 16.9044C190.486 16.9044 191.58 17.2578 192.463 17.9646C193.429 18.7393 193.911 19.8267 193.911 21.2403C193.911 21.4714 193.896 21.7364 193.859 22.0286C192.334 22.2461 190.803 22.3548 189.271 22.3548H185.573C185.603 23.0141 185.671 23.5373 185.769 23.9247C185.867 24.3121 186.041 24.6927 186.275 25.0597C186.577 25.5422 186.992 25.9363 187.497 26.2286C188.214 26.6363 189.052 26.8402 190.01 26.8402C190.554 26.8402 191.036 26.7723 191.467 26.6363C191.889 26.5004 192.5 26.215 193.3 25.7732L193.632 26.0043L193.64 26.0179ZM191.663 21.5121C191.633 20.751 191.557 20.1733 191.444 19.7655C191.331 19.3578 191.127 18.9568 190.848 18.5762C190.395 17.9646 189.739 17.6656 188.893 17.6656C188.282 17.6656 187.724 17.8083 187.218 18.1005C186.713 18.3927 186.328 18.7869 186.064 19.283C185.777 19.8131 185.633 20.5335 185.641 21.4578C186.773 21.5529 187.837 21.6005 188.833 21.6005C189.625 21.6005 190.569 21.5733 191.67 21.5189L191.663 21.5121Z" fill="#333333"/>
<path d="M195.242 26.9968L196.404 26.9289C196.841 26.9017 197.106 26.7997 197.204 26.6366C197.294 26.4667 197.347 26.0182 197.347 25.2842V20.1464C197.347 19.3853 197.287 18.9231 197.166 18.7464C197.045 18.5697 196.736 18.4882 196.23 18.4882H195.287V17.8494C196.675 17.693 197.996 17.3804 199.249 16.9115L199.467 16.9998V19.3649L200.894 17.8494C201.467 17.2241 202.169 16.9115 202.999 16.9115C203.474 16.9115 203.874 16.9931 204.184 17.1562L203.965 19.895H203.429C203.022 19.195 202.456 18.8484 201.731 18.8484C201.135 18.8484 200.622 19.0794 200.184 19.5416C199.709 20.0309 199.467 20.6357 199.467 21.3561V25.2774C199.467 26.0454 199.52 26.5007 199.626 26.657C199.732 26.8065 200.079 26.9017 200.652 26.9289L201.973 26.9968V27.6764C200.109 27.6288 198.894 27.6085 198.336 27.6085C197.724 27.6085 196.69 27.6288 195.227 27.6764V26.9968H195.242Z" fill="#333333"/>
<path d="M205.744 24.3465H206.498V25.2844C206.498 25.7873 206.717 26.2086 207.155 26.5348C207.773 26.997 208.611 27.228 209.667 27.228C210.399 27.228 211.026 27.0921 211.546 26.8271C212.331 26.4261 212.724 25.862 212.724 25.1349C212.724 24.6999 212.595 24.3533 212.346 24.1019C212.097 23.8504 211.682 23.6737 211.116 23.5582C209.328 23.2048 208.075 22.8718 207.366 22.5796C206.211 22.097 205.63 21.3155 205.63 20.2281C205.63 19.1408 206.083 18.3184 206.989 17.734C207.834 17.1903 208.958 16.9185 210.369 16.9185C211.328 16.9185 212.429 17.1087 213.674 17.4893C213.614 18.1078 213.569 18.9641 213.539 20.065H212.837V19.5417C212.837 19.0728 212.618 18.6718 212.165 18.3388C211.584 17.9039 210.814 17.6796 209.841 17.6796C208.219 17.6796 207.404 18.2709 207.404 19.4602C207.404 19.9767 207.6 20.3776 208 20.6495C208.4 20.9213 209.117 21.1456 210.158 21.3223C211.501 21.5533 212.429 21.7776 212.927 21.9883C213.516 22.2397 213.939 22.5456 214.203 22.899C214.467 23.2524 214.595 23.7009 214.595 24.2378C214.595 25.3999 214.037 26.331 212.927 27.0445C211.878 27.7241 210.55 28.0707 208.928 28.0707C207.849 28.0707 206.687 27.8872 205.449 27.5271C205.63 26.7251 205.728 25.6649 205.736 24.3533L205.744 24.3465Z" fill="#333333"/>
<path d="M0.667969 13.0386V12.1823L2.67522 12.2162C3.8524 12.2366 4.59946 12.2502 4.93903 12.2502C5.6559 12.2502 6.59916 12.2366 7.76125 12.2162C8.8177 12.1958 9.51948 12.1823 9.87414 12.1823C13.0963 12.1823 14.7112 13.2152 14.7112 15.288C14.7112 16.2259 14.3867 16.9599 13.7528 17.49C13.3453 17.8365 12.9001 18.1152 12.4096 18.3395C11.9191 18.5637 11.1343 18.8424 10.0552 19.1754C11.0815 19.2365 11.8588 19.3317 12.3945 19.454C12.9303 19.5831 13.4359 19.7938 13.8962 20.086C14.8394 20.6841 15.3073 21.6219 15.3073 22.886C15.3073 24.4967 14.5602 25.7811 13.0586 26.7461C11.8135 27.5413 10.2514 27.9355 8.38757 27.9355C8.20647 27.9355 7.49714 27.9219 6.27468 27.8879C5.81437 27.8743 5.30124 27.8675 4.73529 27.8675C4.04105 27.8675 2.96951 27.8879 1.51313 27.9355V27.4054L2.3281 26.9908C2.66767 26.8209 2.84123 26.3792 2.84123 25.6724V15.356C2.84123 14.3298 2.78086 13.7046 2.66012 13.4871C2.53939 13.2628 2.19227 13.1337 1.61877 13.0997L0.667969 13.0318L0.667969 13.0386ZM6.44824 13.4191V18.6589H7.21039C8.49322 18.6589 9.41383 18.4482 9.97224 18.0268C10.6061 17.5647 10.923 16.8171 10.923 15.7977C10.923 14.9754 10.6967 14.3638 10.2514 13.9628C9.78359 13.5347 9.00635 13.324 7.91972 13.324C7.46695 13.324 6.98401 13.3512 6.45578 13.4123L6.44824 13.4191ZM6.44824 19.855V26.583C6.81799 26.6442 7.18775 26.6714 7.55751 26.6714C8.92334 26.6714 9.90433 26.3995 10.508 25.8627C11.1494 25.285 11.4664 24.4015 11.4664 23.219C11.4664 21.9414 11.0513 21.0375 10.2288 20.4938C9.57985 20.0656 8.56868 19.855 7.21039 19.855H6.44824Z" fill="black"/>
<path d="M28.5203 22.2746C27.162 22.5804 25.8189 22.7367 24.4832 22.7367H21.1252C21.178 23.6882 21.3818 24.4425 21.7364 24.9998C22.0232 25.4416 22.408 25.8085 22.8985 26.094C23.5399 26.461 24.2191 26.6445 24.9435 26.6445C25.8792 26.6445 26.8828 26.3726 27.9544 25.8357L28.2562 26.1755L27.6978 27.2901C26.8678 27.6707 26.1735 27.9357 25.6151 28.0716C25.0567 28.2075 24.4077 28.2823 23.6682 28.2823C21.8194 28.2823 20.3857 27.8202 19.3594 26.8959C18.3256 25.9649 17.8125 24.5649 17.8125 22.6892C17.8125 21.5882 18.0087 20.6775 18.3935 19.9708C18.7784 19.264 19.3972 18.6727 20.2499 18.2174L21.4497 17.5786C22.1062 17.2252 22.8457 17.0485 23.6758 17.0485C25.2152 17.0485 26.4376 17.4562 27.3507 18.265C28.143 18.9717 28.5354 19.9164 28.5354 21.0989V22.2882L28.5203 22.2746ZM25.2755 21.5202C25.2454 20.2086 25.019 19.3319 24.6039 18.8902C24.2493 18.5164 23.7663 18.3261 23.1702 18.3261C22.4458 18.3261 21.9175 18.564 21.5855 19.0465C21.3667 19.3455 21.2233 19.6649 21.1403 20.0115C21.0648 20.3513 21.012 20.8542 20.9818 21.527C21.3516 21.5406 21.6233 21.5542 21.8044 21.561C22.3703 21.5814 22.7778 21.595 23.0268 21.595H23.1249L25.2755 21.527V21.5202Z" fill="black"/>
<path d="M38.7824 20.3648H37.8618L37.5977 19.0396C37.5524 18.8085 37.3034 18.5978 36.8507 18.4143C36.3979 18.2309 35.9074 18.1357 35.3867 18.1357C34.6774 18.1357 34.1265 18.2716 33.7266 18.5367C33.3267 18.8017 33.1305 19.1687 33.1305 19.6308C33.1305 19.991 33.2361 20.2697 33.4549 20.4667C33.6738 20.6638 34.036 20.8133 34.5416 20.9085L36.6243 21.323C37.6204 21.5269 38.375 21.8056 38.873 22.1522C39.5446 22.6415 39.8842 23.3483 39.8842 24.2861C39.8842 25.3259 39.5069 26.189 38.7598 26.8754C38.4504 27.1472 38.1335 27.3647 37.8015 27.5278C36.8054 28.0171 35.6961 28.2618 34.4887 28.2618C33.2135 28.2618 31.8929 28.0443 30.5195 27.6094L30.6931 24.3677H31.6892L31.8174 25.9511C32.1721 26.3249 32.5117 26.59 32.8286 26.7395C33.4021 27.0181 34.0284 27.154 34.7 27.154C35.4245 27.154 35.998 26.9977 36.4205 26.6783C36.8431 26.3589 37.0544 25.9308 37.0544 25.3939C37.0544 24.9861 36.9337 24.6803 36.6922 24.4628C36.4507 24.2453 36.0281 24.0686 35.432 23.9327L33.2361 23.4502C31.4326 23.056 30.5271 22.091 30.5271 20.5619C30.5271 19.3998 31.0025 18.5095 31.9533 17.8843C32.3683 17.6124 32.9192 17.4017 33.6059 17.2522C34.2926 17.1027 35.0396 17.028 35.847 17.028C37.0544 17.028 38.1033 17.2047 38.9937 17.558L38.7975 20.358L38.7824 20.3648Z" fill="black"/>
<path d="M48.9107 26.4948L47.6506 27.854C47.4015 28.1326 46.8507 28.2685 46.0055 28.2685C44.8887 28.2685 44.0813 28.0375 43.5757 27.5685C43.0701 27.1064 42.8211 26.3588 42.8211 25.3394V19.3657L41.1836 19.4541V18.9512L42.8664 17.959V16.5726C42.8664 16.1784 42.8362 15.4716 42.7683 14.459C43.9304 14.0716 44.9717 13.6842 45.8923 13.2969L46.2545 13.5347C46.0432 14.5541 45.9451 15.5939 45.9451 16.6609V17.9997L48.8655 17.8638L48.6542 19.3589H45.9451V24.8501C45.9451 25.4142 46.0583 25.8016 46.2923 26.019C46.5186 26.2365 46.9412 26.3453 47.5449 26.3453C47.8769 26.3453 48.2618 26.2433 48.707 26.0394L48.9183 26.4744L48.9107 26.4948Z" fill="black"/>
</g>
<defs>
<clipPath id="clip0_6810_81932">
<rect width="213.929" height="40" fill="white" transform="translate(0.667969)"/>
</clipPath>
</defs>
</svg>
