<svg width="137" height="40" viewBox="0 0 137 40" fill="none" xmlns="http://www.w3.org/2000/svg">
<path fill-rule="evenodd" clip-rule="evenodd" d="M15.9193 18.0914C16.6271 18.0914 17.4297 17.9126 18.0499 17.5624C18.5826 17.2121 18.9365 16.7671 18.9365 15.9754C18.9365 15.2676 18.4038 14.5599 17.6048 14.3884C16.7147 14.1221 16.182 14.1221 15.5582 14.1221C14.9343 14.1221 14.2266 14.2096 14.2266 14.2096V18.1826C14.2266 18.095 15.2043 18.095 15.9157 18.095L15.9193 18.0914Z" fill="#333333"/>
<path fill-rule="evenodd" clip-rule="evenodd" d="M18.8478 20.5649C18.4939 20.3861 17.6074 20.1198 16.626 20.0359C15.6483 19.9483 14.3203 20.0359 14.3203 20.0359V24.4503H16.626C17.5162 24.3627 18.4939 24.1839 18.939 23.9176C19.3841 23.6549 20.0043 23.3047 20.0043 22.2394C19.9204 21.1814 19.2053 20.8275 18.8478 20.5685V20.5649Z" fill="#333333"/>
<path fill-rule="evenodd" clip-rule="evenodd" d="M30.9336 4.85187C21.0651 1.93691 10.58 1.93691 0.71875 4.85187V21.6229C0.71875 28.2445 6.49759 34.2459 15.8262 37.3323C25.1548 34.2459 30.9336 28.1533 30.9336 21.6229V4.85187ZM22.3128 25.5922C21.0687 26.4788 19.7371 26.5663 19.2045 26.6539C18.9345 26.6539 18.4019 26.7378 17.8692 26.7378V30.0905H15.8262V26.8253H14.2282V30.0905H12.1816V26.8253H8.18673L8.63182 24.3555H9.87588C10.321 24.3555 10.4924 24.3555 10.6748 24.1767C10.8536 23.9979 10.8536 23.7353 10.8536 23.5565V15.0852C10.8536 14.5526 10.8536 14.3775 10.5836 14.1111C10.321 13.8485 9.78468 13.8485 9.42715 13.8485H8.18673V11.7325H12.1816V8.4673H14.2282V11.7325H15.8262V8.46365H17.8692V11.8164C19.3796 11.904 20.5324 12.1739 21.5138 12.9656C22.7542 13.9397 22.7542 15.5267 22.6703 15.9681C22.6703 16.3184 22.4916 17.1173 22.1377 17.5551C21.7801 18.0841 20.9812 18.5256 20.9812 18.5256C20.9812 18.5256 21.9589 18.7043 22.6703 19.2333C23.3781 19.7623 23.9107 20.6452 23.8232 22.0571C23.8232 23.4689 23.5605 24.7932 22.3128 25.5849V25.5922Z" fill="#333333"/>
<path opacity="0.2" fill-rule="evenodd" clip-rule="evenodd" d="M15.0234 2.73585C16.5375 2.91462 30.7547 5.38449 30.7547 23.126C30.8459 22.6845 30.8459 22.1555 30.8459 21.7141V4.94304C25.7785 3.35605 20.3608 2.6483 15.0271 2.73585H15.0234Z" fill="#141414"/>
<path fill-rule="evenodd" clip-rule="evenodd" d="M41.4162 16.7423C42.0956 16.7423 42.6757 16.8377 43.1564 17.1317C43.6412 17.4178 44.0305 17.7078 44.4159 18.0892C44.7099 18.4707 44.996 18.9554 45.1907 19.5315C45.3814 20.1076 45.3814 20.6837 45.3814 21.3591C45.3814 22.3166 45.1907 23.2781 44.8013 24.1443C44.4159 25.0104 43.9312 25.7772 43.3511 26.4487C42.6717 27.1201 41.9963 27.6009 41.1222 27.9903C40.2521 28.3717 39.382 28.5664 38.3172 28.5664H37.6378C37.3517 28.5664 36.9583 28.5664 36.573 28.471C36.1876 28.3757 35.6989 28.3757 35.2181 28.181C34.7334 28.0856 34.348 27.8949 33.8633 27.7002L37.5424 12.2249L40.8361 11.7441L39.4813 17.2191C39.7753 17.1277 40.0614 17.0284 40.3554 16.9331C40.8401 16.8377 41.1262 16.7384 41.4202 16.7384L41.4162 16.7423ZM38.7025 25.8766C39.1912 25.8766 39.672 25.7812 40.1567 25.4952C40.6414 25.2051 41.0308 24.9191 41.3169 24.5297C41.6109 24.1483 41.8969 23.6675 42.0916 23.1868C42.2863 22.702 42.3777 22.1259 42.3777 21.5498C42.3777 20.8784 42.2863 20.2983 41.9923 19.9169C41.7976 19.5354 41.3129 19.3408 40.7328 19.3408C40.5381 19.3408 40.2481 19.3408 39.9581 19.4361C39.672 19.5315 39.378 19.6268 39.0879 19.9169L37.6338 25.7812H38.3132C38.4125 25.7812 38.5079 25.8766 38.6986 25.8766H38.7025Z" fill="#333333"/>
<path fill-rule="evenodd" clip-rule="evenodd" d="M49.0615 28.181H45.8711L48.5768 16.937H51.7712L49.0575 28.181H49.0615ZM50.611 15.5901C50.1263 15.5901 49.737 15.4948 49.4509 15.2087C49.0615 14.9187 48.8708 14.5333 48.8708 13.9572C48.8708 13.6671 48.9701 13.3811 49.0615 13.091C49.1608 12.805 49.3555 12.6103 49.5502 12.4156C49.7409 12.2249 49.9356 12.0342 50.2217 11.9349C50.5157 11.8395 50.8057 11.7441 51.0958 11.7441C51.5805 11.7441 51.9698 11.8355 52.2559 12.1256C52.6413 12.4116 52.836 12.797 52.836 13.3771C52.836 13.6632 52.7367 13.9532 52.6413 14.2393C52.5499 14.5293 52.3552 14.724 52.1566 14.9107C51.9659 15.1054 51.7712 15.3001 51.4772 15.3915C51.1911 15.5862 50.9925 15.5862 50.611 15.5862V15.5901Z" fill="#333333"/>
<path fill-rule="evenodd" clip-rule="evenodd" d="M54.8689 14.2433L58.1546 13.7626L57.3838 17.0325H60.9636L60.2842 19.6309H56.7998L55.8304 23.5682C55.731 23.8543 55.731 24.2397 55.6357 24.5258C55.5443 24.8158 55.6357 25.1019 55.735 25.2966C55.8343 25.4913 56.029 25.678 56.2237 25.7773C56.4144 25.8727 56.8038 25.972 57.1892 25.972C57.5745 25.972 57.8686 25.972 58.1546 25.8766C58.4486 25.7813 58.834 25.682 59.1241 25.5906L59.3148 27.9943C58.9294 28.185 58.4447 28.2804 57.9639 28.3757C57.4832 28.4711 56.8951 28.5704 56.2237 28.5704C55.2542 28.5704 54.4795 28.3757 53.8954 28.0857C53.3154 27.7996 52.93 27.4182 52.7353 26.9335C52.5446 26.4528 52.4492 25.8766 52.4492 25.2052C52.4492 24.5337 52.5485 23.8583 52.7353 23.1908L54.8649 14.2473L54.8689 14.2433Z" fill="#333333"/>
<path fill-rule="evenodd" clip-rule="evenodd" d="M65.0287 25.9719C65.8035 25.9719 66.2882 25.8766 66.5743 25.6819C66.8683 25.4912 66.9636 25.3005 66.9636 25.0144C66.9636 24.8197 66.9636 24.7244 66.8643 24.625C66.765 24.5297 66.765 24.4343 66.5703 24.339C66.4789 24.2436 66.2842 24.1443 66.0856 24.0489C65.8949 23.9536 65.6048 23.8582 65.3148 23.6675C64.9254 23.4728 64.6354 23.3775 64.3453 23.1868C64.0593 22.9921 63.7653 22.7974 63.4792 22.5153C63.2845 22.2253 63.0898 21.9392 62.8952 21.6492C62.8038 21.3631 62.7044 20.9777 62.7044 20.497C62.7044 19.3447 63.0898 18.4826 63.9639 17.8071C64.8301 17.1357 66.0896 16.8417 67.643 16.8417C68.4138 16.8417 69.0932 16.937 69.6733 17.1317C70.2534 17.3224 70.7381 17.5131 71.1275 17.7078L70.0627 20.1116C69.7687 19.9169 69.3833 19.8215 68.9025 19.6308C68.4138 19.5355 67.9331 19.4361 67.5477 19.4361H66.9676C66.7729 19.4361 66.5782 19.5315 66.3875 19.5315C66.1929 19.6268 66.0935 19.7222 65.9982 19.8175C65.8988 19.9129 65.8075 20.1076 65.8075 20.2983C65.8075 20.5883 65.8988 20.783 66.0935 20.9737C66.2882 21.0691 66.6736 21.2638 67.059 21.4584C67.643 21.7445 68.1278 21.9392 68.4138 22.2253C68.8032 22.4199 69.0932 22.706 69.2879 22.996C69.4826 23.2821 69.6733 23.5721 69.7726 23.8622C69.872 24.1482 69.9673 24.5297 69.9673 25.0144C69.9673 25.4991 69.868 25.8766 69.6733 26.3573C69.4826 26.842 69.1886 27.2235 68.8032 27.5095C68.4138 27.8989 67.8337 28.0896 67.2497 28.3757C66.5703 28.5704 65.7995 28.6657 64.9294 28.6657C64.3493 28.6657 63.8646 28.6657 63.3839 28.5704C62.8952 28.475 62.5098 28.3757 62.2237 28.2803C61.8343 28.185 61.5443 28.0856 61.3496 27.9942C61.1549 27.8989 60.9642 27.7996 60.7695 27.7042L61.8343 25.3005C62.1283 25.3958 62.4144 25.5905 62.9945 25.8766C63.6739 25.8766 64.3493 25.9719 65.0287 25.9719Z" fill="#333333"/>
<path fill-rule="evenodd" clip-rule="evenodd" d="M79.6434 17.5134C79.9295 17.418 80.1281 17.3187 80.4182 17.2233C80.7042 17.1319 80.9982 17.0326 81.3836 16.9372C81.769 16.8419 82.1584 16.8419 82.5438 16.7426C83.0285 16.6472 83.5132 16.6472 84.0933 16.6472C84.7648 16.6472 85.3528 16.7426 85.8335 16.9372C86.3143 17.1319 86.7036 17.3187 87.093 17.708C87.5777 17.418 88.1578 17.1319 88.6386 16.9372C89.1193 16.7426 89.7987 16.6472 90.4781 16.6472C91.1575 16.6472 91.7376 16.7426 92.2183 16.9372C92.6991 17.1319 93.0924 17.418 93.3785 17.708C93.6725 17.9941 93.9586 18.4749 94.0579 18.8603C94.1572 19.341 94.2526 19.8178 94.2526 20.3979C94.2526 20.6879 94.2526 20.8786 94.1533 21.1686C94.1533 21.4547 94.0539 21.7447 93.9586 22.0308L92.5084 28.0858H89.314L90.7681 22.1262C90.7681 21.9354 90.8595 21.7448 90.8595 21.4507C90.9589 21.1647 90.9589 20.97 90.9589 20.6839C90.9589 20.2945 90.8595 19.9131 90.6728 19.6271C90.4781 19.337 90.0927 19.1424 89.608 19.1424C89.314 19.1424 89.024 19.2377 88.7339 19.337C88.4399 19.4324 88.2492 19.5317 87.9592 19.6271V20.2032C87.9592 20.4892 87.9592 20.6839 87.8598 20.97C87.7684 21.26 87.7684 21.5461 87.6691 21.8361L86.215 27.8912H83.0206L84.4747 21.9315C84.4747 21.7368 84.5741 21.5421 84.5741 21.26C84.6734 20.97 84.6734 20.7793 84.6734 20.4892C84.6734 20.1078 84.574 19.7184 84.3794 19.4324C84.1847 19.1423 83.7993 18.9516 83.3146 18.9516H82.7345C82.5398 18.9516 82.3451 19.047 82.1544 19.047L80.1202 27.6965H76.9258L79.6394 17.5094L79.6434 17.5134Z" fill="black"/>
<path fill-rule="evenodd" clip-rule="evenodd" d="M95.418 23.8543C95.418 22.9921 95.6127 22.0266 95.9028 21.2638C96.1968 20.3976 96.6775 19.6269 97.2576 18.9594C97.8377 18.2879 98.5171 17.8072 99.3832 17.3224C100.257 16.941 101.131 16.7463 102.192 16.7463C102.677 16.7463 103.158 16.8417 103.547 16.941C103.932 17.0364 104.318 17.3224 104.707 17.5171C104.993 17.8072 105.287 18.0932 105.478 18.4746C105.673 18.864 105.772 19.3408 105.772 19.8215C105.772 20.5923 105.577 21.2638 105.192 21.8439C104.803 22.42 104.318 22.8014 103.738 23.1908C103.058 23.5722 102.383 23.7669 101.513 23.9576C100.639 24.1523 99.6733 24.1523 98.7038 24.1523C98.8031 24.7284 98.9978 25.2091 99.3832 25.4038C99.6772 25.6938 100.257 25.7852 101.032 25.7852C101.517 25.7852 101.998 25.7852 102.383 25.6938C102.872 25.5985 103.257 25.4991 103.738 25.3044L103.932 27.8036C103.547 27.9982 103.058 28.0936 102.383 28.185C101.803 28.2803 101.127 28.3797 100.353 28.3797C99.4786 28.3797 98.7078 28.2843 98.1237 27.9982C97.5437 27.7082 97.059 27.4221 96.6736 26.9414C96.2842 26.552 95.9942 25.9759 95.7995 25.3998C95.5134 25.1098 95.4141 24.4344 95.4141 23.8582L95.418 23.8543ZM101.711 19.2415C100.937 19.2415 100.357 19.5315 99.7766 20.0123C99.1965 20.493 98.9025 21.2638 98.7118 22.0266C99.5819 22.0266 100.357 21.9352 100.837 21.8359C101.417 21.7406 101.803 21.5459 102.097 21.3552C102.383 21.1605 102.582 20.9658 102.677 20.7751C102.776 20.5844 102.872 20.3937 102.872 20.199C102.872 19.5315 102.482 19.2415 101.711 19.2415Z" fill="black"/>
<path fill-rule="evenodd" clip-rule="evenodd" d="M110.321 28.4711C109.641 28.4711 108.966 28.3758 108.481 28.0817C107.996 27.7957 107.516 27.5056 107.222 27.1242C106.936 26.7428 106.642 26.2581 106.542 25.682C106.352 25.1059 106.352 24.5298 106.352 23.8543C106.352 22.8968 106.542 21.9353 106.836 21.1645C107.222 20.2984 107.71 19.5316 108.29 18.9555C108.871 18.284 109.641 17.7993 110.515 17.4139C111.386 17.0325 112.256 16.8378 113.32 16.8378H114C114.195 16.8378 114.485 16.9332 114.679 16.9332L115.839 12.1257L119.133 11.6449L116.324 23.3696C116.133 24.1404 116.038 25.0026 116.133 25.7734C116.225 26.5441 116.419 27.3149 116.618 27.9864L113.809 28.3678C113.718 28.1731 113.618 28.0778 113.618 27.887C113.519 27.6924 113.519 27.597 113.424 27.311C113.038 27.597 112.55 27.8871 112.069 28.0778C111.489 28.3678 111.004 28.4671 110.329 28.4671L110.321 28.4711ZM114.095 19.5316H113.03C112.546 19.5316 112.061 19.623 111.676 19.913C111.29 20.1077 110.901 20.4891 110.611 20.8705C110.317 21.2599 110.031 21.7367 109.931 22.2174C109.737 22.6982 109.637 23.2743 109.637 23.759C109.637 24.4265 109.737 25.0105 110.027 25.3919C110.217 25.7734 110.706 25.968 111.286 25.968C111.572 25.968 111.866 25.8727 112.156 25.7734C112.45 25.678 112.736 25.3919 113.03 25.0979C113.03 24.7165 113.13 24.3311 113.13 23.9457C113.229 23.5643 113.229 23.1789 113.32 22.8889L114.095 19.5276V19.5316Z" fill="black"/>
<path fill-rule="evenodd" clip-rule="evenodd" d="M121.355 28.1809H118.16L120.874 16.937H124.068L121.355 28.1809ZM122.904 15.5901C122.415 15.5901 122.03 15.4947 121.74 15.2087C121.355 14.9186 121.16 14.5372 121.16 13.9571C121.16 13.6671 121.259 13.381 121.355 13.091C121.454 12.8049 121.649 12.6102 121.839 12.4195C122.034 12.2288 122.229 12.0381 122.519 11.9388C122.813 11.8434 123.099 11.748 123.393 11.748C123.878 11.748 124.263 11.8394 124.553 12.1295C124.938 12.4155 125.133 12.8049 125.133 13.381C125.133 13.6671 125.034 13.9571 124.938 14.2432C124.839 14.5332 124.652 14.7279 124.454 14.9146C124.259 15.1093 124.068 15.304 123.774 15.3954C123.488 15.5901 123.194 15.5901 122.904 15.5901Z" fill="black"/>
<path fill-rule="evenodd" clip-rule="evenodd" d="M134.612 23.3775C134.417 24.1483 134.325 25.0144 134.417 25.7813C134.516 26.552 134.711 27.3228 134.906 27.9943L132.097 28.3757C131.997 28.181 131.906 28.0857 131.906 27.895C131.806 27.7003 131.806 27.6049 131.711 27.3189C131.326 27.6049 130.837 27.895 130.356 28.0857C129.872 28.2803 129.291 28.3757 128.711 28.3757C128.032 28.3757 127.357 28.2804 126.872 27.9943C126.387 27.7043 125.902 27.4142 125.612 27.0288C125.318 26.6474 125.032 26.1667 124.933 25.5906C124.834 25.0105 124.738 24.4344 124.738 23.7629C124.738 22.7974 124.933 21.8399 125.227 20.9738C125.612 20.1116 126.097 19.3408 126.677 18.6694C127.257 17.9979 128.032 17.5172 128.902 17.1318C129.776 16.7424 130.646 16.5557 131.616 16.5557H132.295C132.581 16.5557 132.975 16.5557 133.36 16.647C133.745 16.7424 134.234 16.7424 134.715 16.9371C135.2 17.0324 135.585 17.2231 136.07 17.4178L134.615 23.3775H134.612ZM132.387 19.4402C132.192 19.4402 132.001 19.3448 131.902 19.3448H131.322C130.833 19.3448 130.352 19.4401 129.967 19.7262C129.578 20.0163 129.192 20.3023 128.902 20.6917C128.608 21.0731 128.322 21.5539 128.127 22.0386C127.933 22.5193 127.833 23.0954 127.833 23.6715C127.833 24.343 127.933 24.9231 128.223 25.3045C128.509 25.6859 128.902 25.8806 129.482 25.8806C129.768 25.8806 130.062 25.7852 130.352 25.6859C130.646 25.5945 130.932 25.3045 131.226 25.0184C131.226 24.6291 131.326 24.2476 131.326 23.8662C131.425 23.4768 131.425 23.0954 131.516 22.8054L132.391 19.4441L132.387 19.4402Z" fill="black"/>
<path fill-rule="evenodd" clip-rule="evenodd" d="M73.5488 28.1809C73.0641 28.1809 72.6747 28.0855 72.3887 27.7995C72.0033 27.5094 71.8086 27.124 71.8086 26.5479C71.8086 26.2579 71.9079 25.9718 72.0033 25.6818C72.0947 25.3957 72.2893 25.201 72.488 25.0143C72.6787 24.8196 72.8734 24.6249 73.1674 24.5296C73.4535 24.4342 73.7475 24.3389 74.0375 24.3389C74.5222 24.3389 74.9116 24.4303 75.1977 24.7203C75.587 25.0064 75.7777 25.3918 75.7777 25.9718C75.7777 26.2579 75.6784 26.5479 75.587 26.834C75.4877 27.124 75.293 27.3187 75.0983 27.5055C74.9076 27.7001 74.713 27.8948 74.4269 27.9902C74.1329 28.1809 73.8468 28.1809 73.5528 28.1809H73.5488Z" fill="black"/>
</svg>
