<svg width="101" height="40" viewBox="0 0 101 40" fill="none" xmlns="http://www.w3.org/2000/svg">
<path d="M21.2582 0.0418914C9.22848 -0.729304 -0.727616 9.25248 0.0418054 21.3072C0.677533 31.2726 8.70735 39.3209 18.6498 39.9581C30.6795 40.7293 40.6356 30.7475 39.8662 18.6928C39.2332 8.73015 31.2006 0.679085 21.2582 0.0418914ZM38.0545 17.1723H29.5827L30.4749 13.0592L28.876 12.7092L27.9074 17.1723H23.1654C23.029 16.8441 22.8734 16.5159 22.6906 16.1878C21.973 14.9079 20.7289 14.0164 19.0945 13.6144C16.7917 13.0483 14.2952 13.6663 12.2107 15.0255C10.972 15.8323 9.9597 17.0547 9.17937 18.1705L12.2216 3.36186C14.5735 2.25976 17.1928 1.63898 19.9567 1.63898C29.097 1.63898 36.6957 8.38557 38.0572 17.1695L38.0545 17.1723ZM8.751 21.072C9.3649 19.3819 10.2298 17.9982 12.871 16.2753C14.5626 15.1732 16.8518 14.7548 18.7016 15.2087C19.5256 15.4111 20.6416 15.887 21.2609 16.9918C23.34 20.6946 21.6211 24.8952 20.4096 27.0693C19.1327 29.3637 15.8668 31.7074 13.0483 31.5433C9.75507 31.3464 8.01978 28.4312 7.76058 27.3947C7.64052 26.8204 8.1753 23.6837 8.74827 21.072H8.751ZM10.339 4.38465L4.96392 30.5369C2.8712 27.5533 1.63522 23.9216 1.63522 20.0027C1.63522 13.412 5.11944 7.62258 10.3362 4.38465H10.339ZM6.29267 32.2161L6.87929 29.3637C7.89427 31.0265 9.91605 33.0037 12.9555 33.1842C13.081 33.1924 13.2093 33.1951 13.3348 33.1951C16.7699 33.1951 20.3824 30.4932 21.8421 27.8733C22.9471 25.8879 24.415 22.3956 23.6701 18.8186H27.55L25.0589 30.2881C24.9771 30.6272 24.2759 33.6518 25.2554 35.1805C25.8884 36.1678 26.8051 36.4877 27.8528 36.567C25.46 37.7184 22.7779 38.3665 19.9513 38.3665C14.5244 38.3665 9.64593 35.9873 6.28722 32.2188L6.29267 32.2161ZM31.2689 34.4312C31.0615 34.5953 30.8187 34.7156 30.5622 34.7812C30.0138 34.9235 29.7791 34.9371 29.6263 34.9453C27.9483 35.0356 27.0971 35.0055 26.636 34.289C26.2049 33.6163 26.3849 31.7703 26.6551 30.6518L29.2253 18.8131H38.2291C38.2537 19.2069 38.2728 19.6007 38.2728 20C38.2728 25.8469 35.5307 31.0647 31.2689 34.4285V34.4312Z" fill="#5C5C5C"/>
<path d="M49.0547 14.6071C49.8514 14.4403 51.1092 14.3118 52.3888 14.3118C54.2142 14.3118 55.3874 14.6263 56.2687 15.3428C57.0027 15.8897 57.4419 16.7293 57.4419 17.845C57.4419 19.2124 56.5388 20.4102 55.0518 20.9572V20.9982C56.3942 21.3346 57.9685 22.4476 57.9685 24.5506C57.9685 25.7703 57.4856 26.6947 56.7735 27.3893C55.7885 28.2945 54.1924 28.7129 51.8868 28.7129C50.629 28.7129 49.6631 28.6281 49.0547 28.5433V14.6071ZM50.88 20.4102H52.5362C54.4652 20.4102 55.5975 19.4011 55.5975 18.0337C55.5975 16.3738 54.3397 15.7202 52.4925 15.7202C51.6549 15.7202 51.172 15.7831 50.8773 15.846V20.4075L50.88 20.4102ZM50.88 27.2006C51.2374 27.2635 51.7613 27.2854 52.4107 27.2854C54.2988 27.2854 56.0395 26.5907 56.0395 24.5315C56.0395 22.598 54.3833 21.7995 52.3888 21.7995H50.8773V27.2033L50.88 27.2006Z" fill="black"/>
<path d="M62.4114 15.5533C62.4333 16.185 61.9721 16.6882 61.2355 16.6882C60.5861 16.6882 60.125 16.185 60.125 15.5533C60.125 14.9216 60.6079 14.3965 61.2791 14.3965C61.9503 14.3965 62.4114 14.8997 62.4114 15.5533ZM60.3569 28.587V18.4111H62.2013V28.587H60.3569Z" fill="black"/>
<path d="M67.4872 15.9745V18.4139H70.1311V19.8223H67.4872V25.3081C67.4872 26.5689 67.8446 27.2854 68.8705 27.2854C69.3753 27.2854 69.6672 27.2443 69.9401 27.1596L70.0246 28.5461C69.6672 28.6937 69.1024 28.8195 68.3876 28.8195C67.5281 28.8195 66.8351 28.5242 66.3958 28.021C65.872 27.4741 65.6837 26.5716 65.6837 25.371V19.8223H64.1094V18.4139H65.6837V16.5433L67.4872 15.9745Z" fill="black"/>
<path d="M74.9563 15.9745H70.6562V14.4185H81.1226V15.9745H76.8007V28.5871H74.9535V15.9745H74.9563Z" fill="black"/>
<path d="M88.4199 26.1504C88.4199 27.0337 88.4608 27.8952 88.5863 28.5898H86.9083L86.761 27.3072H86.6982C86.1307 28.1058 85.0421 28.8223 83.5933 28.8223C81.5387 28.8223 80.4883 27.3728 80.4883 25.8988C80.4883 23.4403 82.671 22.0948 86.5918 22.1139V21.9034C86.5918 21.0611 86.3599 19.5488 84.2835 19.5488C83.3395 19.5488 82.3545 19.8441 81.6397 20.3063L81.2195 19.0866C82.0571 18.5396 83.274 18.1814 84.5537 18.1814C87.6586 18.1814 88.4144 20.3036 88.4144 22.3437V26.1477L88.4199 26.1504ZM86.6382 23.3965C84.6246 23.3555 82.3382 23.711 82.3382 25.6882C82.3382 26.8861 83.1349 27.4549 84.0789 27.4549C85.3995 27.4549 86.2398 26.6153 86.5318 25.7511C86.5945 25.5625 86.6355 25.3519 86.6355 25.1632V23.3965H86.6382Z" fill="black"/>
<path d="M91.3971 13.6609H93.2224V20.052H93.2633C93.9127 18.9171 95.0887 18.1814 96.723 18.1814C99.2414 18.1814 101.023 20.2844 101.001 23.3747C101.001 27.0119 98.7148 28.8195 96.4502 28.8195C94.9823 28.8195 93.8063 28.2507 93.0532 26.9052H92.9905L92.9059 28.5871H91.3125C91.3534 27.8925 91.3971 26.8642 91.3971 25.959V13.6609ZM93.2224 24.5096C93.2224 24.742 93.2633 24.9718 93.307 25.1823C93.6644 26.4649 94.734 27.3482 96.0764 27.3482C98.0054 27.3482 99.1595 25.7703 99.1595 23.4376C99.1595 21.3975 98.1118 19.6527 96.1391 19.6527C94.8813 19.6527 93.7053 20.5141 93.3288 21.9225C93.2879 22.1331 93.2251 22.3847 93.2251 22.68V24.5096H93.2224Z" fill="black"/>
</svg>
