<svg width="195" height="40" viewBox="0 0 195 40" fill="none" xmlns="http://www.w3.org/2000/svg">
<path d="M9.16021 28.1805C7.37446 28.1805 5.83375 27.8768 4.53807 27.2697C3.24911 26.6558 2.25219 25.7945 1.54728 24.6856C0.849097 23.5702 0.5 22.2534 0.5 20.7354V20.7156C0.5 19.1976 0.849097 17.8841 1.54728 16.7753C2.25219 15.6598 3.24911 14.7985 4.53807 14.1913C5.83375 13.5841 7.37446 13.2804 9.16021 13.2804C10.6506 13.2804 11.9798 13.5082 13.148 13.9636C14.3228 14.4124 15.2761 15.0493 16.0079 15.8744C16.7463 16.6928 17.2062 17.6597 17.3875 18.7752L17.3975 18.8741H14.6283L14.6081 18.8048C14.3999 18.1118 14.0509 17.5211 13.5608 17.0327C13.0707 16.5443 12.4565 16.1747 11.718 15.9239C10.9795 15.6665 10.1303 15.5377 9.17028 15.5377C7.9686 15.5377 6.93138 15.7523 6.05865 16.1813C5.18591 16.6037 4.51123 17.2043 4.03457 17.9831C3.56465 18.7554 3.32968 19.6662 3.32968 20.7156V20.7354C3.32968 21.7848 3.56465 22.6989 4.03457 23.4779C4.51123 24.25 5.18591 24.8506 6.05865 25.2797C6.9381 25.7087 7.97866 25.9232 9.18035 25.9232C10.1269 25.9232 10.9695 25.7978 11.7079 25.547C12.4464 25.2896 13.0607 24.9199 13.5507 24.4381C14.0408 23.9564 14.3933 23.3722 14.6081 22.6857L14.6283 22.6264H17.3975L17.3875 22.7254C17.1994 23.8343 16.7362 24.7978 15.9978 25.6163C15.266 26.4281 14.3161 27.0585 13.148 27.5072C11.9865 27.956 10.6573 28.1805 9.16021 28.1805ZM19.9434 27.8736V10.0981H23.2172V17.4914H23.3034C23.7793 16.5879 24.4972 15.8821 25.4573 15.3738C26.4173 14.8656 27.5578 14.6116 28.8788 14.6116C30.1588 14.6116 31.2543 14.8495 32.165 15.3255C33.0758 15.8014 33.7732 16.4871 34.2574 17.3825C34.7415 18.2779 34.9834 19.363 34.9834 20.6375V27.8736H31.6973V21.2426C31.6973 19.8953 31.3609 18.8749 30.688 18.1811C30.0153 17.4874 29.0306 17.1405 27.7342 17.1405C26.8235 17.1405 26.0275 17.3179 25.3465 17.6729C24.6737 18.0278 24.1485 18.5281 23.7711 19.1734C23.4018 19.8106 23.2172 20.5608 23.2172 21.424V27.8736H19.9434ZM42.8979 28.1155C41.7245 28.1155 40.6989 27.9623 39.821 27.6557C38.9511 27.3411 38.2742 26.8853 37.7902 26.2884C37.3142 25.6834 37.0763 24.9453 37.0763 24.0741V24.0499C37.0763 23.3077 37.2691 22.6583 37.6547 22.1017C38.0404 21.545 38.6435 21.1094 39.464 20.7948C40.2927 20.4722 41.3635 20.2947 42.6763 20.2624L50.221 20.1051V22.0412L43.144 22.2106C42.143 22.2347 41.4209 22.3961 40.9779 22.6945C40.543 22.985 40.3256 23.3883 40.3256 23.9047V23.9288C40.3256 24.5742 40.6332 25.0582 41.2486 25.3809C41.8722 25.6955 42.6887 25.8528 43.6979 25.8528C44.6825 25.8528 45.54 25.7197 46.2703 25.4535C47.0005 25.1792 47.5667 24.8001 47.9687 24.316C48.379 23.8239 48.5841 23.2512 48.5841 22.5978V19.7058C48.5841 18.8346 48.2477 18.165 47.5748 17.6971C46.902 17.2212 45.942 16.9832 44.6949 16.9832C43.6036 16.9832 42.7297 17.1566 42.0733 17.5035C41.4169 17.8423 41.0025 18.3062 40.8302 18.8951L40.7933 18.9918H37.6671L37.6917 18.8588C37.8312 18.0278 38.2005 17.2937 38.7995 16.6565C39.3983 16.0192 40.1984 15.519 41.1994 15.1561C42.2005 14.793 43.382 14.6116 44.744 14.6116C46.2374 14.6116 47.5133 14.8132 48.5717 15.2166C49.6384 15.6118 50.4508 16.1845 51.0087 16.9348C51.5748 17.6769 51.858 18.5723 51.858 19.6211V27.8736H48.5841V25.647H48.4979C48.1862 26.1553 47.7513 26.5949 47.1933 26.966C46.6436 27.329 46.0035 27.6114 45.2733 27.8131C44.5431 28.0147 43.7512 28.1155 42.8979 28.1155ZM54.6277 27.8736V14.902H57.9016V17.4551H57.9877C58.4719 16.5758 59.1898 15.8821 60.1416 15.3738C61.0935 14.8656 62.2298 14.6116 63.5508 14.6116C65.4791 14.6116 66.9724 15.1319 68.0309 16.1725C69.0976 17.2051 69.631 18.6692 69.631 20.5649V27.8736H66.357V21.1699C66.357 19.8469 66.0247 18.8466 65.3601 18.1691C64.6954 17.4833 63.7149 17.1405 62.4185 17.1405C61.5078 17.1405 60.7119 17.3179 60.0309 17.6729C59.358 18.0198 58.8329 18.5159 58.4555 19.1612C58.0862 19.7986 57.9016 20.5488 57.9016 21.412V27.8736H54.6277ZM79.9577 32.4959C78.5463 32.4959 77.3115 32.3426 76.253 32.0361C75.1946 31.7376 74.333 31.3101 73.6683 30.7534C73.0037 30.1968 72.5525 29.5434 72.3145 28.7932L72.2776 28.6964H75.7238L75.773 28.769C76.0602 29.2046 76.5525 29.5515 77.2499 29.8097C77.9556 30.0758 78.8581 30.2089 79.9577 30.2089C81.5658 30.2089 82.7761 29.9024 83.5884 29.2893C84.4007 28.6842 84.8069 27.8332 84.8069 26.7361V25.1631H84.7208C84.3761 25.6874 83.9208 26.1432 83.3546 26.5304C82.7885 26.9177 82.1279 27.2201 81.373 27.438C80.6263 27.6557 79.7936 27.7646 78.8746 27.7646C77.4305 27.7646 76.1751 27.4863 75.1084 26.9297C74.0417 26.3731 73.213 25.6027 72.6222 24.6186C72.0397 23.6344 71.7483 22.509 71.7483 21.2426V21.2183C71.7483 19.9277 72.0397 18.7902 72.6222 17.806C73.213 16.8137 74.0417 16.0354 75.1084 15.4707C76.1832 14.906 77.4469 14.6236 78.8992 14.6236C79.81 14.6236 80.6387 14.7366 81.3854 14.9624C82.1402 15.1883 82.7966 15.507 83.3546 15.9183C83.9208 16.3298 84.3802 16.8017 84.7331 17.3342H84.8069V14.902H88.0808V26.7361C88.0808 27.9381 87.7608 28.9666 87.1207 29.8217C86.489 30.6849 85.5659 31.3464 84.3515 31.8062C83.1454 32.266 81.6808 32.4959 79.9577 32.4959ZM79.9208 25.4171C80.9136 25.4171 81.775 25.2438 82.5053 24.8968C83.2356 24.55 83.8018 24.066 84.2038 23.4449C84.606 22.8156 84.8069 22.0815 84.8069 21.2426V21.2183C84.8069 20.3875 84.606 19.6614 84.2038 19.0403C83.8018 18.411 83.2315 17.927 82.4931 17.5882C81.7628 17.2413 80.9053 17.0679 79.9208 17.0679C78.9361 17.0679 78.0786 17.2373 77.3484 17.5761C76.6263 17.9068 76.0684 18.3828 75.6745 19.004C75.2807 19.6251 75.0838 20.3633 75.0838 21.2183V21.2426C75.0838 22.1057 75.2807 22.8478 75.6745 23.469C76.0684 24.0902 76.6263 24.5702 77.3484 24.909C78.0786 25.2477 78.9361 25.4171 79.9208 25.4171ZM98.4445 28.1761C96.7542 28.1761 95.2978 27.9098 94.0752 27.3775C92.8526 26.845 91.9132 26.0787 91.2567 25.0784C90.6003 24.07 90.2721 22.856 90.2721 21.4362V21.424C90.2721 20.0365 90.6044 18.8346 91.269 17.8181C91.9418 16.7936 92.8772 16.003 94.0752 15.4465C95.2732 14.8818 96.668 14.6075 98.2598 14.6236C99.8844 14.6236 101.279 14.91 102.444 15.4827C103.618 16.0474 104.516 16.842 105.14 17.8665C105.772 18.891 106.088 20.089 106.088 21.4603V22.15H91.9582V20.1777H104.02L102.937 21.7144V20.9522C102.937 20.1293 102.748 19.4235 102.371 18.8346C102.001 18.2376 101.472 17.7777 100.783 17.4551C100.094 17.1244 99.2691 16.9589 98.309 16.9589C97.2999 16.9589 96.4342 17.1204 95.7121 17.443C94.9983 17.7576 94.4485 18.2255 94.0629 18.8466C93.6854 19.4679 93.4967 20.2342 93.4967 21.1457V21.6539C93.4967 22.6623 93.7224 23.473 94.1736 24.0861C94.6249 24.6993 95.2321 25.1469 95.9952 25.4293C96.7583 25.7036 97.6075 25.8407 98.5429 25.8407C99.1912 25.8407 99.7901 25.7721 100.34 25.635C100.898 25.4898 101.378 25.2921 101.78 25.042C102.19 24.784 102.49 24.4773 102.678 24.1224L102.728 24.0377H105.878L105.841 24.1587C105.636 24.796 105.312 25.3648 104.869 25.8649C104.426 26.3569 103.88 26.7764 103.232 27.1233C102.584 27.4622 101.858 27.7202 101.054 27.8978C100.25 28.0833 99.3799 28.1761 98.4445 28.1761ZM106.872 27.8736L110.994 8.82532H118.728C120 8.82532 121.087 9.05854 121.991 9.52495C122.895 9.98257 123.585 10.6162 124.059 11.4258C124.541 12.2354 124.783 13.1683 124.783 14.2243C124.783 15.1571 124.591 16.046 124.206 16.8908C123.822 17.7356 123.266 18.4748 122.541 19.1085C121.817 19.742 120.939 20.2129 119.909 20.521L122.381 27.8736H118.11L115.908 20.9697H115.976H112.458L110.954 27.8736H106.872ZM114.405 12.0462L113.102 17.9072H116.687C117.474 17.9072 118.164 17.7664 118.755 17.4848C119.355 17.2032 119.82 16.8116 120.151 16.31C120.482 15.8084 120.648 15.2319 120.648 14.5807C120.648 13.7711 120.397 13.1463 119.897 12.7063C119.395 12.2662 118.692 12.0462 117.788 12.0462H114.405ZM128.772 19.2141H135.056C135.073 19.17 135.082 19.1085 135.082 19.0292C135.082 18.9412 135.082 18.8621 135.082 18.7917C135.082 18.3252 134.979 17.8984 134.774 17.5112C134.568 17.1152 134.263 16.7984 133.861 16.5607C133.467 16.3232 132.965 16.2043 132.357 16.2043C131.766 16.2043 131.229 16.3364 130.746 16.6004C130.262 16.8556 129.851 17.2075 129.511 17.6564C129.179 18.1052 128.933 18.6245 128.772 19.2141ZM131.189 28.1903C129.855 28.1903 128.71 27.9308 127.752 27.4115C126.794 26.8923 126.055 26.1575 125.536 25.2071C125.026 24.2478 124.771 23.1213 124.771 21.8277C124.771 20.6045 124.954 19.4781 125.322 18.4484C125.697 17.41 126.226 16.508 126.905 15.7424C127.595 14.968 128.414 14.3695 129.363 13.9471C130.311 13.5159 131.359 13.3003 132.504 13.3003C133.73 13.3003 134.81 13.5511 135.74 14.0527C136.671 14.5456 137.397 15.2452 137.916 16.1516C138.435 17.058 138.694 18.1317 138.694 19.3724C138.694 19.7069 138.676 20.0809 138.641 20.4945C138.613 20.8993 138.564 21.2733 138.493 21.6165H128.382C128.374 21.6869 128.365 21.7617 128.356 21.8409C128.356 21.9113 128.356 21.9817 128.356 22.0521C128.356 22.7034 128.477 23.271 128.718 23.7551C128.969 24.2302 129.318 24.5999 129.766 24.8638C130.222 25.1191 130.75 25.2467 131.349 25.2467C132.11 25.2467 132.755 25.0794 133.283 24.7451C133.812 24.4107 134.183 23.9662 134.397 23.4118H138.05C137.808 24.3534 137.365 25.1807 136.721 25.8935C136.085 26.6063 135.293 27.1695 134.344 27.5832C133.404 27.988 132.352 28.1903 131.189 28.1903ZM139.031 27.8736L143.193 8.62732H147.06L142.897 27.8736H139.031ZM145.435 27.8736L149.598 8.62732H153.465L149.302 27.8736H145.435ZM157.977 25.2599C158.514 25.2599 159.01 25.1586 159.467 24.9563C159.932 24.7539 160.326 24.4767 160.648 24.1247C160.97 23.7639 161.181 23.3546 161.28 22.897L161.562 21.6825L158.5 21.8014C157.667 21.8277 157.01 22.0082 156.526 22.3425C156.044 22.677 155.802 23.1126 155.802 23.6494C155.802 24.1334 156.002 24.525 156.406 24.8243C156.808 25.1147 157.333 25.2599 157.977 25.2599ZM156.406 28.0979C155.591 28.0979 154.852 27.9308 154.19 27.5963C153.537 27.2531 153.018 26.7912 152.633 26.2103C152.248 25.6207 152.055 24.9474 152.055 24.1907C152.055 22.7474 152.614 21.6077 153.734 20.7717C154.852 19.9357 156.397 19.4869 158.366 19.4253L162.059 19.2933L162.247 18.4353C162.273 18.3208 162.287 18.224 162.287 18.1449C162.296 18.0657 162.299 17.9865 162.299 17.9072C162.299 17.4144 162.094 17.0228 161.682 16.7324C161.28 16.4332 160.716 16.2835 159.991 16.2835C159.516 16.2835 159.099 16.3495 158.742 16.4816C158.383 16.6048 158.089 16.7851 157.856 17.0228C157.622 17.2516 157.458 17.5288 157.359 17.8545H153.72C153.899 16.9304 154.284 16.1295 154.875 15.452C155.466 14.7743 156.222 14.2463 157.144 13.8679C158.066 13.4895 159.109 13.3003 160.273 13.3003C161.437 13.3003 162.452 13.4807 163.32 13.8415C164.189 14.1935 164.865 14.6864 165.348 15.32C165.84 15.9536 166.086 16.6884 166.086 17.5244C166.086 17.7268 166.077 17.9336 166.06 18.1449C166.041 18.3561 166.015 18.5408 165.978 18.6993L163.992 27.8736H160.273L160.648 26.1575H160.541C160.263 26.5447 159.914 26.8879 159.493 27.1871C159.073 27.4775 158.599 27.702 158.07 27.8604C157.551 28.0188 156.997 28.0979 156.406 28.0979Z" fill="black"/>
<path d="M172.999 15.0236C172.583 15.0236 172.203 14.9691 171.861 14.8603C171.522 14.7513 171.228 14.5979 170.98 14.3999C170.735 14.1986 170.542 13.9659 170.401 13.7018H170.371V14.9196H169.625V7.50427H170.371V10.7912H170.401C170.538 10.5272 170.732 10.2978 170.98 10.1031C171.228 9.9051 171.523 9.75165 171.866 9.64275C172.209 9.53054 172.586 9.47444 172.999 9.47444C173.61 9.47444 174.138 9.59324 174.585 9.83085C175.035 10.0652 175.382 10.3902 175.628 10.806C175.873 11.2219 175.995 11.7004 175.995 12.2416V12.2564C175.995 12.7943 175.873 13.2729 175.628 13.692C175.382 14.1078 175.035 14.4345 174.585 14.6721C174.138 14.9064 173.61 15.0236 172.999 15.0236ZM172.812 14.4048C173.31 14.4048 173.739 14.3173 174.101 14.1425C174.465 13.9676 174.743 13.7201 174.938 13.3999C175.136 13.0765 175.235 12.6953 175.235 12.2564V12.2416C175.235 11.8027 175.136 11.4232 174.938 11.103C174.743 10.7796 174.465 10.5305 174.101 10.3556C173.739 10.1807 173.31 10.0932 172.812 10.0932C172.316 10.0932 171.884 10.184 171.519 10.3655C171.152 10.547 170.869 10.7994 170.668 11.1228C170.466 11.4429 170.365 11.8159 170.365 12.2416V12.2564C170.365 12.6821 170.466 13.0567 170.668 13.3801C170.869 13.7035 171.152 13.956 171.519 14.1375C171.884 14.3157 172.316 14.4048 172.812 14.4048ZM180.255 15.0285C179.59 15.0285 179.019 14.9179 178.542 14.6968C178.069 14.4758 177.705 14.1589 177.45 13.7464C177.195 13.3339 177.068 12.8373 177.068 12.2564V12.2515C177.068 11.6872 177.197 11.1971 177.455 10.7813C177.714 10.3655 178.076 10.0437 178.542 9.816C179.013 9.58499 179.559 9.47114 180.18 9.47444C180.813 9.47774 181.359 9.59489 181.816 9.8259C182.272 10.0536 182.622 10.3721 182.868 10.7813C183.113 11.1905 183.235 11.669 183.235 12.2168V12.4297L177.445 12.4247V11.8753H182.792L182.5 12.3307V12.1129C182.5 11.7004 182.406 11.3423 182.218 11.0387C182.03 10.7351 181.762 10.5008 181.412 10.3358C181.068 10.1708 180.657 10.0883 180.184 10.0883C179.694 10.0883 179.271 10.1708 178.916 10.3358C178.563 10.4975 178.291 10.7351 178.1 11.0486C177.909 11.3588 177.812 11.735 177.812 12.1772V12.3059C177.812 12.7844 177.918 13.1805 178.13 13.494C178.345 13.8042 178.636 14.0351 179.006 14.187C179.379 14.3388 179.8 14.4147 180.27 14.4147C180.606 14.4147 180.913 14.3784 181.191 14.3058C181.473 14.2332 181.715 14.1292 181.917 13.9939C182.12 13.8554 182.274 13.6871 182.375 13.489L182.394 13.4543H183.145L183.124 13.494C183.034 13.7415 182.9 13.9609 182.722 14.1523C182.544 14.3404 182.331 14.5005 182.083 14.6325C181.834 14.7612 181.556 14.8586 181.246 14.9246C180.938 14.9938 180.607 15.0285 180.255 15.0285ZM187.173 14.9889C186.538 14.9889 186.066 14.8586 185.758 14.5979C185.452 14.3339 185.3 13.9279 185.3 13.3801V10.1675H184.036V9.57839H185.3V8.1676H186.05V9.57839H188.004V10.1675H186.05V13.2662C186.05 13.659 186.149 13.9445 186.347 14.1227C186.545 14.3009 186.86 14.39 187.294 14.39C187.412 14.39 187.532 14.385 187.657 14.3751C187.784 14.3619 187.9 14.3454 188.004 14.3256V14.9097C187.879 14.9361 187.747 14.9559 187.606 14.9691C187.465 14.9824 187.321 14.9889 187.173 14.9889ZM191.227 15.0186C190.74 15.0186 190.314 14.9559 189.947 14.8305C189.585 14.7051 189.301 14.5203 189.097 14.2761C188.895 14.0319 188.794 13.7348 188.794 13.3851V13.3752C188.794 13.0683 188.875 12.8042 189.036 12.5831C189.198 12.362 189.444 12.1904 189.776 12.0683C190.109 11.9429 190.534 11.872 191.05 11.8555L194.127 11.7812V12.3208L191.135 12.4049C190.585 12.4181 190.182 12.5056 189.928 12.6673C189.676 12.829 189.549 13.0584 189.549 13.3553V13.3652C189.549 13.7085 189.714 13.9708 190.043 14.1523C190.376 14.3339 190.809 14.4245 191.343 14.4245C191.823 14.4245 192.243 14.3537 192.606 14.2118C192.968 14.0666 193.25 13.8668 193.452 13.6127C193.654 13.3587 193.754 13.0633 193.754 12.7267V11.5238C193.754 11.0552 193.582 10.6988 193.24 10.4546C192.898 10.2104 192.413 10.0883 191.785 10.0883C191.238 10.0883 190.791 10.179 190.445 10.3605C190.101 10.5387 189.878 10.7879 189.781 11.108L189.772 11.1426H189.036L189.041 11.103C189.108 10.7763 189.263 10.4909 189.505 10.2467C189.747 10.0025 190.062 9.8127 190.451 9.67739C190.841 9.54209 191.286 9.47444 191.791 9.47444C192.361 9.47444 192.849 9.55364 193.256 9.71204C193.662 9.87045 193.971 10.0998 194.182 10.4001C194.394 10.7004 194.499 11.0651 194.499 11.4941V14.9196H193.754V13.8405H193.719C193.592 14.0814 193.405 14.291 193.16 14.4692C192.918 14.6474 192.632 14.7843 192.299 14.88C191.969 14.9724 191.612 15.0186 191.227 15.0186Z" fill="black"/>
</svg>
