<svg width="128" height="40" viewBox="0 0 128 40" fill="none" xmlns="http://www.w3.org/2000/svg">
<g clip-path="url(#clip0_6795_156009)">
<path d="M8.02445 26.8528C8.34215 26.1747 8.4442 25.2436 8.33062 24.0596C8.32891 24.0402 8.33134 24.0207 8.33777 24.0023C8.34419 23.9839 8.35447 23.9669 8.36794 23.9526C8.38141 23.9383 8.39779 23.9269 8.41602 23.9191C8.43425 23.9113 8.45394 23.9073 8.47383 23.9074L12.1158 23.9098C12.2014 23.9098 12.2475 23.9509 12.254 24.0331C12.4516 26.5049 12.0022 29.4745 9.18 30.2767C7.54792 30.7406 5.35782 30.7213 3.8245 30.2356C1.13811 29.3875 0.639353 26.7465 0.609723 24.265C0.58174 22.071 0.578448 19.8763 0.599847 17.6807C0.627007 14.6966 1.38008 11.8599 4.91338 11.4419C9.76271 10.8716 12.4071 12.5002 12.1577 17.485C12.1565 17.511 12.145 17.5356 12.1257 17.5536C12.1064 17.5716 12.0807 17.5816 12.054 17.5816L8.40963 17.5768C8.38499 17.5769 8.36059 17.5719 8.338 17.5623C8.3154 17.5527 8.2951 17.5385 8.27839 17.5208C8.26167 17.5031 8.2489 17.4822 8.24089 17.4594C8.23288 17.4365 8.2298 17.4124 8.23186 17.3883C8.29606 16.6828 8.23351 15.9764 8.04421 15.2693C7.58742 13.5585 5.33806 13.8388 4.84177 15.3248C4.62614 15.9756 4.51832 16.7005 4.51832 17.4995C4.51997 19.6934 4.52902 21.8882 4.54548 24.0838C4.55207 24.8989 4.65906 25.7011 4.86646 26.4904C5.26646 28.0054 7.33804 28.3316 8.02445 26.8528Z" fill="black"/>
<path d="M62.5651 27.4353L62.5676 23.3736C62.5676 23.3561 62.5641 23.3388 62.5573 23.3227C62.5504 23.3066 62.5404 23.2919 62.5278 23.2796C62.5152 23.2672 62.5002 23.2575 62.4838 23.2508C62.4673 23.2441 62.4496 23.2407 62.4318 23.2407L60.8442 23.231C60.7816 23.2294 60.7503 23.198 60.7503 23.1368L60.7528 20.5731C60.7528 20.4861 60.7981 20.4426 60.8886 20.4426L66.3725 20.4402C66.4098 20.4402 66.4456 20.4547 66.472 20.4805C66.4984 20.5064 66.5132 20.5414 66.5132 20.5779L66.5083 29.8153C66.5075 29.8445 66.4969 29.8726 66.4782 29.8953C66.4594 29.918 66.4336 29.9341 66.4046 29.941C64.8079 30.3195 63.1725 30.5531 61.4985 30.6417C57.0516 30.8761 54.9553 29.5012 54.6418 25.048C54.5809 24.2023 54.5479 22.1292 54.543 18.8286C54.5381 15.511 55.0862 12.2394 59.0294 11.5363C63.5059 10.7389 66.8984 12.423 66.4811 17.3546C66.4793 17.3803 66.4675 17.4043 66.4483 17.4218C66.429 17.4392 66.4037 17.4489 66.3774 17.4489L62.7404 17.4416C62.7186 17.4417 62.697 17.4373 62.677 17.4288C62.6569 17.4203 62.6389 17.4078 62.6241 17.3921C62.6092 17.3765 62.5979 17.358 62.5907 17.3378C62.5835 17.3176 62.5807 17.2962 62.5824 17.2749C62.6812 15.7575 62.3503 13.897 60.2639 14.2087C58.6368 14.4527 58.538 16.1731 58.5133 17.4392C58.4615 20.2783 58.2788 23.3301 58.6763 26.1402C58.9627 28.1529 60.9182 28.0249 62.454 27.5827C62.5281 27.5601 62.5651 27.511 62.5651 27.4353Z" fill="black"/>
<path d="M31.1163 26.4179L30.3879 30.209C30.3816 30.2404 30.3644 30.2686 30.3392 30.2889C30.314 30.3092 30.2823 30.3202 30.2497 30.3202L26.7411 30.3226C26.72 30.3224 26.6992 30.3176 26.6802 30.3085C26.6613 30.2994 26.6447 30.2862 26.6316 30.27C26.6186 30.2537 26.6095 30.2348 26.6049 30.2147C26.6003 30.1945 26.6005 30.1736 26.6053 30.1535L30.8892 11.6908C30.8964 11.6607 30.9137 11.6339 30.9383 11.6146C30.9629 11.5953 30.9934 11.5847 31.025 11.5845L35.4175 11.582C35.4495 11.5818 35.4806 11.5921 35.5057 11.6115C35.5308 11.6308 35.5485 11.6579 35.5558 11.6884L39.8298 30.1583C39.8347 30.1786 39.8348 30.1997 39.8301 30.2201C39.8254 30.2404 39.816 30.2595 39.8027 30.2757C39.7894 30.292 39.7724 30.3052 39.7532 30.3141C39.7339 30.3231 39.7129 30.3276 39.6915 30.3274L36.1805 30.3178C36.1475 30.3177 36.1156 30.3063 36.0903 30.2855C36.065 30.2648 36.048 30.236 36.0422 30.2042L35.3434 26.4227C35.3377 26.391 35.3206 26.3622 35.2954 26.3414C35.2701 26.3207 35.2382 26.3092 35.2052 26.3092L31.2546 26.3068C31.222 26.3067 31.1903 26.3178 31.1651 26.3381C31.1399 26.3583 31.1226 26.3866 31.1163 26.4179ZM33.3114 15.3852C33.2768 15.1952 33.2414 15.1952 33.2052 15.3852L31.6793 23.4217C31.6771 23.4315 31.6772 23.4416 31.6797 23.4514C31.6821 23.4611 31.6868 23.4703 31.6934 23.4781C31.7 23.486 31.7084 23.4924 31.7179 23.4968C31.7274 23.5013 31.7378 23.5037 31.7484 23.5039H34.6521C34.7558 23.5039 34.7986 23.454 34.7805 23.3541L33.3114 15.3852Z" fill="black"/>
<path d="M44.6448 19.865L44.6522 30.1317C44.6522 30.2606 44.5863 30.325 44.4547 30.325L40.9436 30.3323C40.9036 30.3323 40.8653 30.3167 40.8371 30.2891C40.8088 30.2614 40.793 30.224 40.793 30.1849L40.8127 11.7077C40.8127 11.675 40.8262 11.6437 40.8503 11.6205C40.8744 11.5974 40.9071 11.5844 40.9411 11.5844L44.5164 11.582C44.5529 11.582 44.5886 11.5928 44.619 11.613C44.6494 11.6333 44.673 11.662 44.6868 11.6956L49.0546 22.2353C49.1287 22.4174 49.1657 22.4101 49.1657 22.2136L49.1682 11.756C49.1682 11.6416 49.2266 11.5844 49.3435 11.5844L52.8792 11.582C52.9179 11.582 52.9549 11.5968 52.9823 11.6231C53.0096 11.6494 53.0249 11.685 53.0249 11.7222L53.0274 30.1414C53.0274 30.1903 53.0077 30.2373 52.9726 30.2721C52.9375 30.3069 52.8897 30.3268 52.8397 30.3274L49.2818 30.3347C49.2081 30.3347 49.136 30.3129 49.0749 30.2719C49.0137 30.231 48.9662 30.1729 48.9386 30.1051L44.746 19.8457C44.6769 19.6765 44.6431 19.683 44.6448 19.865Z" fill="black"/>
<path d="M72.157 22.2813L72.1644 27.4062C72.1644 27.4395 72.1779 27.4714 72.202 27.495C72.2261 27.5186 72.2587 27.5318 72.2928 27.5318L77.789 27.5246C77.8231 27.5246 77.8557 27.5378 77.8798 27.5614C77.9039 27.5849 77.9174 27.6169 77.9174 27.6502V30.1945C77.9174 30.2279 77.9039 30.2598 77.8798 30.2834C77.8557 30.3069 77.8231 30.3202 77.789 30.3202L68.357 30.3226C68.323 30.3226 68.2903 30.3094 68.2662 30.2858C68.2422 30.2622 68.2286 30.2303 68.2286 30.1969L68.2188 11.7077C68.2188 11.6744 68.2323 11.6424 68.2564 11.6188C68.2804 11.5953 68.3131 11.582 68.3471 11.582H77.6853C77.7194 11.582 77.752 11.5953 77.7761 11.6188C77.8002 11.6424 77.8137 11.6744 77.8137 11.7077L77.8112 14.2496C77.8112 14.2829 77.7977 14.3149 77.7736 14.3384C77.7495 14.362 77.7169 14.3752 77.6828 14.3752L72.2854 14.3777C72.2513 14.3777 72.2187 14.3909 72.1946 14.4145C72.1705 14.438 72.157 14.47 72.157 14.5033L72.1594 19.2078C72.1594 19.2243 72.1628 19.2406 72.1692 19.2559C72.1757 19.2711 72.1851 19.2849 72.197 19.2966C72.209 19.3083 72.2231 19.3175 72.2387 19.3238C72.2543 19.3302 72.271 19.3334 72.2878 19.3334L77.4853 19.3479C77.5194 19.3479 77.552 19.3611 77.5761 19.3847C77.6002 19.4083 77.6137 19.4402 77.6137 19.4736L77.6112 22.0276C77.6112 22.0609 77.5977 22.0928 77.5736 22.1164C77.5495 22.14 77.5169 22.1532 77.4828 22.1532L72.2854 22.1556C72.2513 22.1556 72.2187 22.1689 72.1946 22.1924C72.1705 22.216 72.157 22.2479 72.157 22.2813Z" fill="black"/>
<path d="M86.8708 22.982L86.8733 30.1294C86.8733 30.18 86.853 30.2285 86.8168 30.2643C86.7807 30.3001 86.7317 30.3202 86.6807 30.3202H83.0931C83.0518 30.3202 83.0122 30.3045 82.9831 30.2764C82.9539 30.2483 82.9375 30.2102 82.9375 30.1704V11.6957C82.9375 11.6666 82.9494 11.6387 82.9706 11.6179C82.9919 11.5971 83.0207 11.5851 83.0511 11.5845C85.2535 11.5765 87.4527 11.5797 89.6485 11.5942C90.2033 11.5974 90.902 11.7359 91.7448 12.0098C94.6337 12.9425 94.7793 16.2672 94.4435 18.7681C94.3333 19.5816 94.1464 20.2605 93.883 20.805C92.8929 22.8491 89.2436 22.9096 87.0658 22.8032C86.9358 22.7968 86.8708 22.8564 86.8708 22.982ZM86.8757 14.4792L86.8659 19.94C86.8659 19.9662 86.8765 19.9914 86.8955 20.01C86.9145 20.0286 86.9402 20.039 86.9671 20.039L88.5522 20.0414C89.0964 20.0421 89.6186 19.8281 90.0038 19.4465C90.3891 19.065 90.6059 18.5472 90.6065 18.007L90.6115 16.4219C90.6118 16.1544 90.5591 15.8894 90.4563 15.6422C90.3534 15.3949 90.2026 15.1702 90.0123 14.9808C89.822 14.7915 89.596 14.6412 89.3471 14.5385C89.0983 14.4359 88.8316 14.3829 88.5621 14.3826L86.977 14.3801C86.9637 14.3801 86.9505 14.3827 86.9382 14.3877C86.9259 14.3927 86.9148 14.4 86.9054 14.4092C86.896 14.4184 86.8885 14.4293 86.8834 14.4413C86.8783 14.4533 86.8757 14.4662 86.8757 14.4792Z" fill="black"/>
<path d="M104.726 21.2302C106.679 21.5041 107.642 22.6196 107.615 24.5768C107.582 26.935 107.619 28.8077 107.726 30.1946C107.733 30.2784 107.693 30.3202 107.605 30.3202H104.033C103.99 30.3201 103.949 30.305 103.917 30.2779C103.886 30.2508 103.865 30.2135 103.86 30.1728C103.615 28.3751 103.716 26.447 103.682 24.6299C103.64 22.4722 101.781 22.6172 100.205 22.6148C100.17 22.6148 100.136 22.6285 100.111 22.653C100.086 22.6774 100.072 22.7106 100.072 22.7452L100.075 30.197C100.075 30.231 100.061 30.2635 100.036 30.2876C100.012 30.3116 99.9784 30.3251 99.9437 30.3251L96.3882 30.3323C96.3194 30.3323 96.2535 30.3053 96.2048 30.2573C96.1562 30.2093 96.1289 30.1441 96.1289 30.0762L96.1314 11.7029C96.1314 11.6728 96.1436 11.6439 96.1654 11.6226C96.1871 11.6013 96.2166 11.5893 96.2474 11.5893C98.1783 11.5829 100.114 11.5724 102.055 11.5579C105.894 11.5289 107.662 12.9594 107.635 16.8399C107.63 17.771 107.467 18.5965 107.146 19.3166C106.62 20.4981 105.788 20.7736 104.719 21.1602C104.628 21.1924 104.631 21.2157 104.726 21.2302ZM100.057 14.4961L100.087 19.7249C100.087 19.7525 100.098 19.7789 100.118 19.7984C100.138 19.8179 100.165 19.8288 100.193 19.8288L101.739 19.8191C101.995 19.8179 102.248 19.7662 102.484 19.6671C102.719 19.5679 102.933 19.4232 103.113 19.2413C103.293 19.0593 103.436 18.8436 103.533 18.6065C103.629 18.3695 103.678 18.1156 103.677 17.8595L103.667 16.3228C103.664 15.8057 103.457 15.3108 103.089 14.9469C102.722 14.583 102.226 14.38 101.709 14.3825L100.163 14.3922C100.135 14.3922 100.108 14.4032 100.088 14.4226C100.068 14.4421 100.057 14.4686 100.057 14.4961Z" fill="black"/>
<path d="M127.918 20.3723V21.5466C127.303 26.57 123.325 30.523 118.029 30.3297C108.251 29.9769 105.13 17.306 113.743 12.7055C116.799 11.0745 120.461 11.2412 123.414 13.0462C126.005 14.6296 127.506 17.0717 127.918 20.3723ZM126.826 20.9498C126.826 18.7344 125.927 16.6098 124.326 15.0433C122.726 13.4768 120.555 12.5967 118.291 12.5967C116.027 12.5967 113.856 13.4768 112.255 15.0433C110.654 16.6098 109.755 18.7344 109.755 20.9498C109.755 23.1651 110.654 25.2898 112.255 26.8563C113.856 28.4228 116.027 29.3028 118.291 29.3028C120.555 29.3028 122.726 28.4228 124.326 26.8563C125.927 25.2898 126.826 23.1651 126.826 20.9498Z" fill="black"/>
<path d="M17.5793 22.3418L17.5842 30.2671C17.5842 30.2998 17.5709 30.3311 17.5473 30.3542C17.5237 30.3774 17.4917 30.3903 17.4583 30.3903H13.7744C13.741 30.3903 13.7089 30.3774 13.6853 30.3542C13.6617 30.3311 13.6484 30.2998 13.6484 30.2671V11.7633C13.6484 11.7472 13.6517 11.7311 13.658 11.7162C13.6644 11.7012 13.6736 11.6876 13.6853 11.6762C13.697 11.6648 13.7109 11.6557 13.7262 11.6495C13.7415 11.6433 13.7578 11.6401 13.7744 11.6401H17.4583C17.4917 11.6401 17.5237 11.6531 17.5473 11.6762C17.5709 11.6993 17.5842 11.7307 17.5842 11.7633L17.5817 19.2948C17.5817 19.3275 17.595 19.3589 17.6186 19.382C17.6422 19.4051 17.6743 19.4181 17.7076 19.4181L21.1842 19.4157C21.2176 19.4157 21.2496 19.4027 21.2732 19.3796C21.2968 19.3565 21.3101 19.3251 21.3101 19.2924V11.7658C21.3101 11.7331 21.3233 11.7017 21.347 11.6786C21.3706 11.6555 21.4026 11.6425 21.436 11.6425L25.1199 11.6377C25.1533 11.6377 25.1853 11.6507 25.209 11.6738C25.2326 11.6969 25.2458 11.7282 25.2458 11.7609V30.2671C25.2458 30.2998 25.2326 30.3311 25.209 30.3542C25.1853 30.3774 25.1533 30.3903 25.1199 30.3903L21.436 30.3928C21.4026 30.3928 21.3706 30.3798 21.347 30.3567C21.3233 30.3336 21.3101 30.3022 21.3101 30.2695V22.3418C21.3101 22.3091 21.2968 22.2777 21.2732 22.2546C21.2496 22.2315 21.2176 22.2185 21.1842 22.2185H17.7052C17.6718 22.2185 17.6398 22.2315 17.6161 22.2546C17.5925 22.2777 17.5793 22.3091 17.5793 22.3418Z" fill="black"/>
<path d="M118.324 28.5564C122.635 28.5564 126.129 25.1368 126.129 20.9186C126.129 16.7003 122.635 13.2808 118.324 13.2808C114.014 13.2808 110.52 16.7003 110.52 20.9186C110.52 25.1368 114.014 28.5564 118.324 28.5564Z" fill="#333333"/>
</g>
<defs>
<clipPath id="clip0_6795_156009">
<rect width="127.333" height="40" fill="white" transform="translate(0.585938)"/>
</clipPath>
</defs>
</svg>
