<svg width="156" height="40" viewBox="0 0 156 40" fill="none" xmlns="http://www.w3.org/2000/svg">
<path d="M71.9237 14.7201L71.9141 14.7265V14.7201H71.9237Z" fill="black"/>
<path d="M91.6441 4.93467C91.3246 4.7733 91.0503 4.53771 90.8438 4.25047L90.9018 4.19238L91.6441 4.93467Z" fill="black"/>
<path d="M97.6191 5.3866L97.6094 5.39306V5.3866H97.6191Z" fill="black"/>
<path d="M74.3652 15.6786L74.3555 15.6883V15.6786H74.3652Z" fill="black"/>
<path d="M82.1744 11.2281H82.168L82.1712 11.2249L82.1744 11.2281Z" fill="black"/>
<path d="M95.8582 16.8921L94.8674 17.8829L94.4414 17.4569C94.6867 17.047 95.0578 16.7242 95.5032 16.5403L95.8582 16.8953V16.8921Z" fill="black"/>
<path d="M97.6243 5.38641H97.6211V5.38318L97.6243 5.38641Z" fill="black"/>
<path d="M110.64 16.6241V16.6274H110.637L110.64 16.6241Z" fill="black"/>
<path d="M117.901 9.36263L117.881 9.38199C117.455 9.16576 117.107 8.82043 116.891 8.39119L116.91 8.37183L117.901 9.36263Z" fill="black"/>
<path d="M10.1349 33.0902V35.9884C10.1349 38.78 8.31788 39.9225 5.30352 39.9225H5.24543C2.2343 39.9225 0.414062 38.8059 0.414062 35.9884V24.8249C0.414062 22.1397 2.23107 20.8907 5.24543 20.8907H5.30352C8.31466 20.8907 10.1349 22.1397 10.1349 24.8249V27.2712C10.1349 27.8296 9.82184 28.1491 9.19573 28.1491H8.39857C7.8015 28.1491 7.4594 27.8296 7.4594 27.2712V25.3058C7.4594 23.6856 6.72034 23.1015 5.27125 23.1015C3.82216 23.1015 3.08309 23.6856 3.08309 25.3058V35.5107C3.08309 37.1309 3.82216 37.715 5.27125 37.715C6.72034 37.715 7.4594 37.1309 7.4594 35.5107V33.0934C7.4594 32.5351 7.8015 32.2156 8.39857 32.2156H9.19573C9.82184 32.2156 10.1349 32.5351 10.1349 33.0934V33.0902Z" fill="black"/>
<path d="M22.4421 39.7096H21.6449C21.106 39.7096 20.7638 39.4966 20.5928 38.9931L18.0916 32.0833H15.7614V38.835C15.7614 39.3933 15.4193 39.7128 14.8223 39.7128H14.0251C13.399 39.7128 13.0859 39.3933 13.0859 38.835V21.9849C13.0859 21.4266 13.399 21.1071 14.0251 21.1071H18.0593C21.0704 21.1071 22.8907 22.3044 22.8907 25.0412V28.1492C22.8907 30.0081 22.0387 31.1506 20.5605 31.709L23.2328 38.6995C23.4329 39.2836 23.1198 39.7096 22.4356 39.7096H22.4421ZM15.7647 29.9016H17.9528C19.4309 29.9016 20.2249 29.3433 20.2249 27.6973V25.5189C20.2249 23.8697 19.4277 23.3146 17.9528 23.3146H15.7647V29.9049V29.9016Z" fill="black"/>
<path d="M31.0764 38.8317C31.0764 39.39 30.7342 39.7095 30.1372 39.7095H29.34C28.743 39.7095 28.4009 39.39 28.4009 38.8317V32.8514L24.5926 22.0881C24.3667 21.5039 24.6765 21.1038 25.3607 21.1038H26.2127C26.7807 21.1038 27.1228 21.3426 27.2648 21.8751L29.766 30.0855L32.2673 21.8751C32.4093 21.3426 32.7514 21.1038 33.2903 21.1038H34.1133C34.7943 21.1038 35.1073 21.5039 34.8814 22.0881L31.0731 32.8514V38.8317H31.0764Z" fill="black"/>
<path d="M42.1843 21.0715H38.1501C37.524 21.0715 37.2109 21.391 37.2109 21.9494V38.7995C37.2109 39.3578 37.524 39.6773 38.1501 39.6773H38.944C39.5411 39.6773 39.8832 39.3578 39.8832 38.7995V23.2791H42.0714C43.5495 23.2791 44.3434 23.8374 44.3434 25.4833V27.849C44.3434 29.4691 43.5495 30.0275 42.0714 30.0275C41.5711 30.0275 41.1645 30.4341 41.1645 30.9344V31.3539C41.1645 31.8542 41.5711 32.2608 42.0714 32.2608H42.1843C45.1954 32.2608 47.0157 31.0635 47.0157 28.3267V25.0057C47.0157 22.2689 45.1987 21.0715 42.1843 21.0715Z" fill="black"/>
<path d="M57.6143 21.9816V22.4334C57.6143 23.0176 57.3013 23.3113 56.6752 23.3113H54.1449V38.8317C54.1449 39.39 53.8028 39.7095 53.2057 39.7095H52.4086C51.8115 39.7095 51.4694 39.39 51.4694 38.8317V23.3113H48.9392C48.3421 23.3113 48 23.0176 48 22.4334V21.9816C48 21.4233 48.3421 21.1038 48.9392 21.1038H56.6687C57.2948 21.1038 57.6079 21.4233 57.6079 21.9816H57.6143Z" fill="black"/>
<path d="M64.0657 20.8939H64.2917C67.3028 20.8939 69.123 22.0913 69.123 24.8281V35.9915C69.123 38.7284 67.306 39.9257 64.2917 39.9257H64.0657C61.0546 39.9257 59.2344 38.7284 59.2344 35.9915V24.8281C59.2344 22.0654 61.0514 20.8939 64.0657 20.8939ZM64.1787 37.715C65.6568 37.715 66.4508 37.1566 66.4508 35.5107V25.3057C66.4508 23.6565 65.6536 23.1014 64.1787 23.1014C62.7038 23.1014 61.9066 23.6598 61.9066 25.3057V35.5107C61.9066 37.1599 62.7038 37.715 64.1787 37.715Z" fill="black"/>
<path d="M95.3422 38.6316L92.6699 31.6669C94.148 31.1118 95.0001 29.9726 95.0001 28.1201V25.0218C95.0001 22.2947 93.183 21.1038 90.1687 21.1038H86.1345C85.5084 21.1038 85.1953 21.42 85.1953 21.9784V38.7639C85.1953 39.319 85.5084 39.6385 86.1345 39.6385H86.9284C87.5255 39.6385 87.8676 39.3222 87.8676 38.7639V32.0381H90.1977L92.6989 38.9221C92.87 39.4255 93.2088 39.6385 93.751 39.6385H94.545C95.226 39.6385 95.539 39.2157 95.3389 38.6316H95.3422ZM92.331 27.6715C92.331 29.3142 91.5371 29.8693 90.059 29.8693H87.8708V23.3016H90.059C91.5371 23.3016 92.331 23.8567 92.331 25.4994V27.6715Z" fill="black"/>
<path d="M102.522 20.8939H102.296C99.2851 20.8939 97.4648 22.059 97.4648 24.8119V35.9335C97.4648 38.6606 99.2819 39.8515 102.296 39.8515H102.522C105.533 39.8515 107.354 38.6606 107.354 35.9335V24.8119C107.354 22.0848 105.537 20.8939 102.522 20.8939ZM104.681 35.4558C104.681 37.0985 103.887 37.6536 102.409 37.6536C100.931 37.6536 100.137 37.0985 100.137 35.4558V25.2896C100.137 23.6469 100.931 23.0918 102.409 23.0918C103.887 23.0918 104.681 23.6469 104.681 25.2896V35.4558Z" fill="black"/>
<path d="M120.86 38.751L117.162 30.5567C116.949 30.0823 116.949 29.5368 117.168 29.0624L120.292 22.2559C120.634 21.675 120.347 21.2231 119.611 21.2231H118.672C118.162 21.2231 117.791 21.4361 117.591 21.8848L114.667 29.1366C114.573 29.3722 114.522 29.624 114.522 29.8789V30.3179C114.522 30.5438 114.57 30.7697 114.66 30.9762L118.217 39.0382C118.388 39.5417 118.727 39.7547 119.269 39.7547H120.063C120.744 39.7547 121.057 39.3319 120.857 38.7477L120.86 38.751ZM112.421 21.2231H111.623C110.997 21.2231 110.688 21.5394 110.688 22.0978V38.8833C110.688 39.4384 111.001 39.7579 111.623 39.7579H112.421C113.018 39.7579 113.36 39.4416 113.36 38.8833V22.0978C113.36 21.5427 113.018 21.2231 112.421 21.2231Z" fill="black"/>
<path d="M130.435 37.4407H125.575V31.3506H129.467C130.093 31.3506 130.406 31.0311 130.406 30.476V29.9984C130.406 29.4433 130.093 29.1238 129.467 29.1238H125.575V23.2984H130.348C130.974 23.2984 131.287 23.0079 131.287 22.4237V21.9719C131.287 21.4168 130.974 21.0973 130.348 21.0973H123.842C123.215 21.0973 122.902 21.4136 122.902 21.9719V38.7575C122.902 39.3126 123.215 39.6321 123.842 39.6321H130.435C131.061 39.6321 131.374 39.3158 131.374 38.7575V38.3088C131.374 37.7279 131.061 37.4342 130.435 37.4342V37.4407Z" fill="black"/>
<path d="M143.873 38.6316L141.201 31.6669C142.679 31.1118 143.531 29.9726 143.531 28.1201V25.0218C143.531 22.2947 141.714 21.1038 138.7 21.1038H134.666C134.04 21.1038 133.727 21.42 133.727 21.9784V38.7639C133.727 39.319 134.04 39.6385 134.666 39.6385H135.46C136.057 39.6385 136.399 39.3222 136.399 38.7639V32.0381H138.729L141.23 38.9221C141.401 39.4255 141.74 39.6385 142.282 39.6385H143.076C143.757 39.6385 144.07 39.2157 143.87 38.6316H143.873ZM140.862 27.6715C140.862 29.3142 140.068 29.8693 138.59 29.8693H136.402V23.3016H138.59C140.068 23.3016 140.862 23.8567 140.862 25.4994V27.6715Z" fill="black"/>
<path d="M152.797 29.8435L150.212 28.5203C149.076 27.9103 148.65 27.5133 148.65 26.4031V25.1315C148.65 23.6502 149.418 23.066 150.78 23.066C152.142 23.066 152.91 23.6502 152.91 25.1315V26.7743C152.91 27.3294 153.223 27.6489 153.849 27.6489H154.588C155.214 27.6489 155.528 27.3294 155.528 26.7743V24.7087C155.528 22.0332 153.539 20.8972 150.812 20.8972H150.754C148.027 20.8972 146.039 22.0365 146.039 24.7087V27.0389C146.039 28.814 147.004 29.6079 148.824 30.5858L151.38 31.909C152.545 32.519 152.971 32.9934 152.971 34.1068V35.5624C152.971 37.0179 152.203 37.6795 150.812 37.6795C149.421 37.6795 148.653 37.0179 148.653 35.5624V33.7099C148.653 33.1548 148.34 32.8352 147.714 32.8352H146.975C146.349 32.8352 146.039 33.1515 146.039 33.7099V35.9884C146.039 38.7962 147.772 39.8548 150.783 39.8548H150.841C153.853 39.8548 155.586 38.7704 155.586 35.9884V33.4194C155.586 31.6443 154.504 30.7439 152.8 29.8467L152.797 29.8435Z" fill="black"/>
<path d="M92.648 3.67277C93.0491 3.67277 93.3742 3.34766 93.3742 2.94662C93.3742 2.54557 93.0491 2.22046 92.648 2.22046C92.247 2.22046 91.9219 2.54557 91.9219 2.94662C91.9219 3.34766 92.247 3.67277 92.648 3.67277Z" fill="#333333"/>
<path d="M108.23 11.4152C108.631 11.4152 108.956 11.0901 108.956 10.689C108.956 10.288 108.631 9.96289 108.23 9.96289C107.829 9.96289 107.504 10.288 107.504 10.689C107.504 11.0901 107.829 11.4152 108.23 11.4152Z" fill="#333333"/>
<path d="M118.879 8.11369C119.28 8.11369 119.605 7.78858 119.605 7.38753C119.605 6.98649 119.28 6.66138 118.879 6.66138C118.477 6.66138 118.152 6.98649 118.152 7.38753C118.152 7.78858 118.477 8.11369 118.879 8.11369Z" fill="#333333"/>
<path d="M96.3512 19.3255C96.7522 19.3255 97.0773 19.0004 97.0773 18.5993C97.0773 18.1983 96.7522 17.8732 96.3512 17.8732C95.9501 17.8732 95.625 18.1983 95.625 18.5993C95.625 19.0004 95.9501 19.3255 96.3512 19.3255Z" fill="#333333"/>
<path d="M118.881 4.44086C117.255 4.44086 115.931 5.76408 115.931 7.39067C115.931 7.84896 116.041 8.30725 116.244 8.71389C116.28 8.7849 116.319 8.85268 116.357 8.92045L110.051 15.2299H103.968L99.9689 11.2312L99.9624 11.2377V11.2312H82.1635L76.8416 16.5532L76.8512 16.5629H76.8416V20.1097H75.754V16.2724L81.7343 10.2921H94.6954L98.1971 6.79039H103.496L105.772 9.06568C105.462 9.53364 105.281 10.092 105.281 10.6955C105.281 12.3221 106.604 13.6453 108.231 13.6453C109.858 13.6453 111.181 12.3221 111.181 10.6955C111.181 9.06891 109.858 7.74568 108.231 7.74568C107.708 7.74568 107.218 7.88124 106.792 8.12329L106.801 8.11361L104.081 5.39294H97.6194L97.6129 5.39939L94.1177 8.89463H81.134V8.91722L74.3662 15.685L74.3565 15.6947V20.113H73.3141V15.3171L80.7047 7.92641H89.1637V7.90383L89.1701 7.91028L91.439 5.64144C91.8166 5.80927 92.2297 5.89963 92.646 5.89963C94.2726 5.89963 95.5958 4.57641 95.5958 2.94982C95.5958 1.32323 94.2726 0 92.646 0C91.0194 0 89.6962 1.32323 89.6962 2.94982C89.6962 3.57593 89.8898 4.17299 90.2545 4.67968C90.2771 4.70873 90.2997 4.741 90.3255 4.77005L88.573 6.52252H80.1238L71.9102 14.7329V22.8465H71.9682V39.0608C71.9682 39.6579 72.2813 40 72.9074 40H76.9416C79.9528 40 81.7149 38.4928 81.7149 36.0787V32.8126C81.7149 31.3636 81.1759 29.9435 79.3847 29.6595C81.0597 29.4594 81.6019 27.8974 81.6019 26.5354V24.0342C81.6019 23.0402 81.3341 22.2011 80.808 21.5588V18.1088L83.8256 15.0912H92.0618L93.9143 16.9437C93.8788 16.9921 93.8466 17.0437 93.8175 17.0954C93.5432 17.5504 93.398 18.0765 93.398 18.609C93.398 20.2356 94.7212 21.5588 96.3478 21.5588C97.9744 21.5588 99.2976 20.2356 99.2976 18.609C99.2976 16.9824 97.9744 15.6592 96.3478 15.6592C95.9573 15.6592 95.5797 15.7334 95.2247 15.8819C95.1343 15.9206 95.0472 15.9626 94.96 16.0077L92.6428 13.6905H83.2447L79.4299 17.5053L79.4396 17.5149H79.4041V20.539C79.0555 20.3937 78.6683 20.284 78.239 20.2098V17.1373L82.7412 12.6351H99.204L103.148 16.6403L103.393 16.6339H110.629L117.345 9.91447C117.413 9.9532 117.481 9.99193 117.548 10.0274C117.955 10.234 118.413 10.3405 118.875 10.3405C120.501 10.3405 121.825 9.01726 121.825 7.39067C121.825 5.76408 120.501 4.44086 118.875 4.44086H118.881ZM108.231 9.18187C109.064 9.18187 109.738 9.85961 109.738 10.689C109.738 11.5185 109.064 12.1962 108.231 12.1962C107.398 12.1962 106.724 11.5185 106.724 10.689C106.724 9.85961 107.402 9.18187 108.231 9.18187ZM92.6492 1.43941C93.4819 1.43941 94.1564 2.11393 94.1564 2.94659C94.1564 3.77925 93.4819 4.45377 92.6492 4.45377C92.4104 4.45377 92.1813 4.39891 91.9682 4.29241C91.7552 4.1859 91.5681 4.02453 91.4261 3.83088C91.2389 3.57269 91.1388 3.26933 91.1388 2.94659C91.1388 2.11393 91.8133 1.43941 92.646 1.43941H92.6492ZM95.0536 17.8248C95.2214 17.5472 95.4764 17.3277 95.7733 17.2019C95.954 17.1276 96.1477 17.0889 96.3478 17.0889C97.1804 17.0889 97.855 17.7634 97.855 18.5961C97.855 19.4288 97.1804 20.1033 96.3478 20.1033C95.5151 20.1033 94.8406 19.4255 94.8406 18.5961C94.8406 18.325 94.9148 18.0571 95.0536 17.8215V17.8248ZM79.0459 35.6205C79.0459 37.0115 78.3907 37.6666 77.0578 37.6666H74.6437V30.8472H77.0578C78.3358 30.8472 79.0459 31.4152 79.0459 32.6384V35.6205ZM78.9329 24.4828V26.7839C78.9329 28.0071 78.2229 28.5751 76.9449 28.5751H74.6437V22.4367H76.9449C77.4935 22.4367 77.926 22.5464 78.2455 22.7723C78.707 23.0983 78.9329 23.6631 78.9329 24.4828ZM118.881 8.89786C118.642 8.89786 118.417 8.84299 118.204 8.73649C117.916 8.59126 117.677 8.35244 117.532 8.0652C117.426 7.85542 117.374 7.62628 117.374 7.38745C117.374 6.55479 118.049 5.88026 118.881 5.88026C119.714 5.88026 120.388 6.55479 120.388 7.38745C120.388 8.22011 119.714 8.89463 118.881 8.89463V8.89786Z" fill="#333333"/>
</svg>
