<svg width="98" height="40" viewBox="0 0 98 40" fill="none" xmlns="http://www.w3.org/2000/svg">
<path fill-rule="evenodd" clip-rule="evenodd" d="M23.8321 14.0731C24.8354 14.1366 25.8388 13.9279 26.7303 13.4623C27.6219 12.9996 28.3714 12.2981 28.8973 11.4424C29.5803 10.4717 29.9067 9.2925 29.819 8.10719C29.7465 7.43289 29.5259 7.20004 29.1602 7.40565C28.2414 7.91667 27.2199 8.22509 26.1712 8.30976C25.053 8.4549 23.9227 8.5063 22.7955 8.46397C21.8193 8.41257 20.3112 8.29467 18.2773 8.11324C16.2403 7.92879 14.832 7.81688 14.0462 7.77757C13.4841 7.73524 12.9582 7.71105 12.4717 7.70198C11.9851 7.6929 11.163 7.72316 10.0055 7.7927C8.96591 7.84713 7.93232 7.98622 6.91384 8.20696C5.91048 8.44584 4.94036 8.79961 4.01859 9.26225C3.07869 9.69767 2.24154 10.3266 1.56457 11.1098C0.63374 12.1439 0.0897372 13.4683 0.0262712 14.8593C-0.0492835 15.5003 0.0383648 16.1504 0.286184 16.7461C0.530982 17.3418 0.923866 17.8679 1.42857 18.2701C2.2355 18.899 3.23281 19.2347 4.25734 19.2195C5.20328 19.2437 6.14621 19.0653 7.01962 18.6994C7.6845 18.4212 8.29498 18.0282 8.82084 17.5353C9.08982 17.2873 9.31347 16.991 9.47969 16.6644C9.522 16.5949 9.54617 16.5163 9.54617 16.4346C9.54617 16.353 9.52502 16.2744 9.47969 16.2048C9.34067 16.0657 9.19258 15.9388 9.0324 15.8239C8.83596 15.6787 8.67276 15.4912 8.55792 15.2735C8.35845 14.9711 8.28894 14.6022 8.35845 14.2484C8.41889 13.7556 8.57303 13.2748 8.8148 12.8424C9.12307 12.3132 9.58546 11.8869 10.1385 11.6178C10.8306 11.267 11.6073 11.1128 12.381 11.1703H12.4112L8.67276 22.8904C7.94744 25.1552 8.01997 27.0783 8.88432 28.6597C9.75169 30.2412 11.4169 31.0939 13.88 31.2148C15.0889 31.2783 16.3008 31.1241 17.4552 30.7552C18.4979 30.4438 19.4801 29.9509 20.3535 29.3008C21.0426 28.7807 21.6833 28.1971 22.2635 27.5561C22.6836 27.1025 23.0403 26.5945 23.3213 26.0411C23.4059 25.9323 23.4634 25.8053 23.4936 25.6692C23.5238 25.5332 23.5208 25.3941 23.4906 25.261C23.409 25.1068 23.1944 25.1219 22.8529 25.3064C21.7226 25.9021 20.4895 26.2861 19.2202 26.4373C18.1262 26.6368 16.9959 26.4645 16.0106 25.9474C15.1765 25.4576 14.9317 24.6412 15.2762 23.4982C15.2793 23.477 15.515 22.7422 15.9774 21.2938H21.0244C21.0728 21.3029 21.1212 21.2908 21.1635 21.2606C21.2028 21.2334 21.23 21.188 21.239 21.1396L22.2303 18.0796L22.2424 18.0161L22.1064 17.9254H17.0593C17.1923 17.5595 17.4522 16.7673 17.8391 15.5547C18.2259 14.3422 18.4979 13.4895 18.6551 12.9996C20.3263 13.5832 22.0671 13.9461 23.8351 14.0731H23.8321ZM35.1562 21.6627C35.1562 21.6627 35.1562 21.6325 35.1562 21.6174C35.1532 21.6022 35.1471 21.5902 35.1381 21.5781C35.129 21.566 35.1169 21.5569 35.1048 21.5509C35.0927 21.5448 35.0776 21.5418 35.0625 21.5387H25.9748C25.9264 21.5387 25.8811 21.5508 25.8418 21.5781C25.8025 21.6053 25.7753 21.6446 25.7602 21.6899L24.914 24.3206L25.0409 24.4416H34.1559C34.1861 24.4476 34.2193 24.4416 34.2435 24.4234C34.2707 24.4053 34.2888 24.3811 34.2949 24.3478L35.1562 21.6537V21.6627ZM60.3885 24.5081L61.8935 19.7336C62.3861 18.2459 62.371 17.0333 61.8512 16.0929C61.6034 15.6394 61.2317 15.2644 60.7783 15.0135C60.325 14.7655 59.8112 14.6506 59.2944 14.6839C58.2276 14.7262 57.185 15.0316 56.2632 15.5698C55.0452 16.2623 53.9814 17.1996 53.1443 18.3245C53.2259 17.8618 53.2108 17.3871 53.102 16.9275C52.9932 16.4709 52.7937 16.0385 52.5126 15.6606C52.2346 15.334 51.8871 15.0739 51.4911 14.9046C51.0983 14.7353 50.6691 14.6597 50.24 14.6809C49.1913 14.7232 48.1698 15.0165 47.2601 15.5366C46.0603 16.2018 45.0085 17.1089 44.1744 18.1975C44.2621 17.747 44.256 17.2843 44.1472 16.8368C44.0415 16.3893 43.839 15.972 43.5579 15.6122C43.2466 15.2856 42.8658 15.0346 42.4457 14.8744C42.0256 14.7141 41.5723 14.6476 41.125 14.6809C40.2335 14.702 39.3571 14.9379 38.5773 15.3703C37.852 15.6969 37.2234 16.2078 36.761 16.8549C36.7338 16.8821 36.7126 16.9124 36.6975 16.9487C36.6824 16.985 36.6794 17.0213 36.6824 17.0606C36.6824 17.0999 36.6975 17.1362 36.7157 17.1694C36.7338 17.2027 36.761 17.2299 36.7912 17.2541C36.9242 17.3569 37.0904 17.493 37.2929 17.6683C37.4168 17.8347 37.5075 18.0251 37.5558 18.2277C37.6072 18.4303 37.6163 18.639 37.583 18.8446C37.5196 19.7517 37.3413 20.6467 37.0511 21.5055C36.6159 22.9115 35.5884 25.9414 33.9745 30.595L33.9624 30.6584L34.032 30.7461H40.1791C40.2244 30.725 40.2637 30.7008 40.3 30.6706C40.3332 30.6433 40.3544 30.604 40.3634 30.5647L42.9625 22.3643C43.2345 21.5085 43.6607 20.7102 44.2137 20.0057C44.8967 19.2105 45.4951 18.8627 46.0059 18.9655C46.5771 19.0683 46.6859 19.658 46.3353 20.7405C46.0331 21.7806 45.8094 22.5064 45.6704 22.9115C45.2292 24.239 44.4283 26.7971 43.2647 30.5919C43.2587 30.5919 43.2527 30.598 43.2496 30.604C43.2466 30.6101 43.2436 30.6161 43.2406 30.6222C43.2406 30.6282 43.2406 30.6343 43.2406 30.6403C43.2406 30.6464 43.2466 30.6524 43.2496 30.6554L43.3282 30.7461H49.4784C49.5237 30.725 49.563 30.7008 49.5993 30.6706C49.6325 30.6433 49.6537 30.604 49.6627 30.5647L51.8478 22.9146L52.014 22.3643C52.2648 21.4995 52.691 20.6982 53.2652 20.0057C53.9482 19.2105 54.5466 18.8627 55.0573 18.9655C55.6285 19.0683 55.7373 19.658 55.3867 20.7405L53.5009 26.6761C53.0657 28.0822 53.1473 29.2101 53.7487 30.0537C54.0721 30.4831 54.4952 30.8248 54.9848 31.0455C55.4744 31.2662 56.0093 31.363 56.5473 31.3207C57.4388 31.2995 58.3153 31.0636 59.095 30.6312C59.8143 30.3107 60.4368 29.8088 60.9053 29.1768C60.9536 29.1345 60.9869 29.074 60.9929 29.0105C60.999 28.947 60.9808 28.8805 60.9415 28.829C60.8237 28.7141 60.6877 28.6204 60.5366 28.5539C60.322 28.4299 60.1527 28.2364 60.0621 28.0036C59.914 27.6135 59.8535 27.1962 59.8868 26.779C59.9503 26.0019 60.1134 25.2338 60.3764 24.499L60.3885 24.5081ZM79.5038 23.6524C80.2352 21.3482 80.0538 19.3375 78.9598 17.623C77.8658 15.9085 76.1099 14.959 73.6952 14.7776C71.2684 14.6234 68.8627 15.328 66.9013 16.7673C64.8734 18.1159 63.3593 20.1115 62.6068 22.4278C61.8754 24.7319 62.0597 26.7427 63.1659 28.4571C64.272 30.1716 66.0309 31.1211 68.4396 31.3025C70.8755 31.4718 73.2932 30.7703 75.2607 29.325C77.2674 27.9612 78.7573 25.9626 79.4978 23.6494L79.5038 23.6524ZM68.5544 22.8571C68.9231 21.6204 69.5094 20.4593 70.2892 19.4312C70.54 19.0472 70.8845 18.7327 71.2895 18.521C71.6945 18.3063 72.1478 18.2005 72.6072 18.2096C72.994 18.2277 73.3597 18.391 73.6257 18.6722C73.8946 18.9504 74.0427 19.3223 74.0458 19.7094C74.1485 20.9038 73.9823 22.1072 73.5622 23.2291C73.1995 24.4749 72.6162 25.6481 71.8365 26.6882C71.5857 27.0662 71.2442 27.3716 70.8452 27.5803C70.4433 27.7889 69.996 27.8917 69.5427 27.8796C69.1558 27.8615 68.7902 27.6921 68.5212 27.4109C68.2552 27.1297 68.1071 26.7548 68.1071 26.3647C68.0014 25.1794 68.1525 23.9819 68.5514 22.8601L68.5544 22.8571ZM96.0201 24.5081C96.283 23.6705 96.5792 22.7573 96.9026 21.7655C97.2259 20.7737 97.4435 20.0964 97.5584 19.7305C98.0298 18.2428 98.0057 17.0303 97.4859 16.0899C97.238 15.6364 96.8663 15.2614 96.413 15.0104C95.9596 14.7595 95.4459 14.6476 94.9291 14.6809C93.8441 14.7262 92.7863 15.0256 91.8404 15.5517C90.5952 16.22 89.5042 17.1422 88.6399 18.261C88.7366 17.8074 88.7336 17.3387 88.6278 16.8852C88.522 16.4346 88.3195 16.0113 88.0324 15.6454C87.7181 15.3128 87.3373 15.0528 86.9112 14.8865C86.4851 14.7201 86.0287 14.6506 85.5724 14.6809C84.6808 14.702 83.8044 14.9379 83.0247 15.3703C82.2993 15.6969 81.6707 16.2078 81.2083 16.8549C81.166 16.9003 81.1418 16.9578 81.1388 17.0182C81.1358 17.0787 81.1539 17.1392 81.1902 17.1906C81.2929 17.2934 81.4108 17.3811 81.5378 17.4506C81.7251 17.5867 81.8672 17.7802 81.9367 18.0009C82.0606 18.3971 82.1029 18.8113 82.0636 19.2256C81.9911 20.0027 81.8218 20.7677 81.5589 21.5055C81.1026 22.9115 80.0569 25.9414 78.4219 30.595C78.4158 30.6101 78.4128 30.6282 78.4158 30.6463C78.4158 30.6645 78.4219 30.6796 78.4309 30.6947C78.44 30.7098 78.4521 30.7219 78.4672 30.731C78.4823 30.7401 78.4974 30.7461 78.5156 30.7492H84.6325C84.6808 30.7431 84.7262 30.7219 84.7594 30.6887C84.7926 30.6554 84.8168 30.6131 84.8229 30.5647L87.422 22.3643C87.6939 21.5085 88.1382 20.7163 88.7275 20.039C89.4559 19.2226 90.1057 18.8657 90.6799 18.9685C91.2722 19.0714 91.4022 19.661 91.0697 20.7435L89.1869 26.6792C88.7306 28.0852 88.8031 29.2131 89.4015 30.0567C89.7249 30.4861 90.148 30.8278 90.6376 31.0485C91.1272 31.2693 91.6621 31.366 92.2 31.3237C93.0916 31.3025 93.968 31.0667 94.7477 30.6343C95.4701 30.3077 96.1017 29.8088 96.5883 29.1798C96.6306 29.1314 96.6548 29.071 96.6548 29.0075C96.6548 28.944 96.6336 28.8805 96.5943 28.8321C96.4764 28.7172 96.3404 28.6235 96.1893 28.5569C95.9747 28.433 95.8085 28.2394 95.7148 28.0066C95.5667 27.6165 95.5063 27.1993 95.5396 26.782C95.6 26.0049 95.7632 25.2368 96.0261 24.5021L96.0201 24.5081Z" fill="black"/>
</svg>
