<svg width="194" height="40" viewBox="0 0 194 40" fill="none" xmlns="http://www.w3.org/2000/svg">
<path fill-rule="evenodd" clip-rule="evenodd" d="M5.32084 23.831H12.3825C12.2163 24.663 11.7168 25.3376 10.876 25.8184C10.044 26.3268 9.00855 26.5668 7.78909 26.5668C5.5706 26.5668 3.96273 25.9846 2.92725 24.838L0.597656 26.4744C2.17798 28.332 4.53512 29.2386 7.70554 29.2386C10.2938 29.2386 12.3176 28.6289 13.7877 27.381C15.2578 26.1331 16.0062 24.5154 16.0062 22.5467C16.0062 20.5593 15.2854 18.9416 13.8064 17.7497C12.355 16.5667 10.3587 15.9845 7.87175 15.9845C5.4595 15.9845 2.48284 16.5765 0.791419 18.4528L3.12101 20.3104C3.70319 19.7282 4.40625 19.3123 5.26573 19.0625C6.09767 18.8225 6.93849 18.6741 7.76154 18.6741C8.95433 18.6741 9.96137 18.8963 10.756 19.3398C11.5604 19.7931 12.0963 20.3655 12.3363 21.1423H5.31106V23.8319V23.8132V23.8221L5.31995 23.831H5.32084ZM16.1538 18.8394H21.2654V29.1088H24.7869V18.8394H29.926V16.1498H16.1715V18.8394H16.1529H16.1538ZM30.0371 22.6382C30.0371 24.5518 30.8415 26.1322 32.4218 27.4174C34.0021 28.7026 35.9433 29.331 38.2543 29.331C40.5563 29.331 42.4788 28.6929 44.0867 27.4174C45.667 26.1322 46.4714 24.5332 46.4714 22.6382C46.4714 20.7246 45.667 19.1443 44.0867 17.859C42.5064 16.5738 40.5652 15.9454 38.2543 15.9454C35.9522 15.9454 34.0021 16.5836 32.4218 17.8777C30.8415 19.1807 30.0371 20.7619 30.0371 22.6196V22.6284V22.6373V22.6382ZM33.7071 22.6382C33.7071 21.4739 34.1604 20.5308 35.0474 19.81C35.9344 19.0892 37.0259 18.7381 38.264 18.7381C39.4933 18.7381 40.5376 19.0892 41.4256 19.81C42.341 20.5308 42.7846 21.4828 42.7846 22.6382C42.7846 23.8026 42.3313 24.7456 41.4816 25.4664C40.6221 26.1873 39.5404 26.5384 38.2649 26.5384C37.017 26.5384 35.9353 26.1873 35.0483 25.4664C34.1612 24.7456 33.7079 23.7937 33.7079 22.6382H33.7071ZM57.7585 29.1088V25.0327H60.8454C63.175 25.0327 64.8664 24.6167 65.9845 23.7475C67.0564 22.888 67.6208 21.8338 67.6208 20.6046C67.6208 20.0224 67.5097 19.4954 67.3249 18.987C67.14 18.4785 66.7614 18.0164 66.2992 17.5728C65.8281 17.1195 65.1064 16.7685 64.1918 16.5187C63.2763 16.2787 62.1582 16.1303 60.8551 16.1303H54.2459V29.0893H57.7674L57.7585 29.0982V29.107V29.1088ZM60.92 18.8394C62.9163 18.8394 63.9145 19.4216 63.9145 20.5868C63.9145 21.7512 62.8603 22.3342 60.7716 22.3342H57.7398V18.8216H60.9014V18.8403H60.9103H60.9191L60.92 18.8394ZM66.4752 29.1088H70.1078L71.4108 26.6966H78.0751L79.3781 29.1088H83.0667L76.0691 16.1498H73.4533L66.4556 29.1088H66.4645H66.4831H66.4743H66.4752ZM74.7483 20.4197L76.8006 24.2745H72.6596L74.7483 20.4197ZM90.4902 29.3488C92.4687 29.3488 93.9939 28.9328 95.2133 28.1845C96.4061 27.4361 97.0159 26.3819 97.0159 25.0789C97.0159 23.6088 96.295 22.6382 94.8525 22.1583C95.9244 21.6312 96.4888 20.8179 96.4888 19.69C96.4888 18.507 95.9617 17.5826 94.9085 16.9258C93.8543 16.2601 92.3202 15.9276 90.3515 15.9276C87.246 15.9276 84.9164 16.7871 83.3538 18.5345L86.0718 20.0411C87.0975 19.0981 88.4565 18.627 90.1204 18.627C90.8688 18.627 91.5159 18.7381 92.0989 18.923C92.6624 19.1452 92.9309 19.4865 92.9309 19.9487C92.9309 20.2997 92.6909 20.6144 92.154 20.8357C91.627 21.0579 90.9061 21.1681 89.9906 21.1681H87.6335V23.8577H90.1293C92.3478 23.8577 93.4659 24.3288 93.4659 25.2531C93.4659 26.1962 92.4402 26.6672 90.3791 26.6672C88.2343 26.6672 86.654 26.0851 85.5723 24.9198L82.7619 26.445C84.3795 28.3773 86.9304 29.3657 90.443 29.3657H90.4617H90.4706L90.4795 29.347H90.4884L90.4902 29.3488ZM99.4006 29.1088H106.342C108.893 29.1088 112.554 28.508 112.554 25.254C112.554 23.7839 111.861 22.7582 110.465 22.2223C111.491 21.5014 112.028 20.5495 112.028 19.458C112.028 17.2395 110.207 16.149 106.509 16.149H99.373V29.1079H99.3917H99.4006V29.1088ZM106.176 23.8035C107.174 23.8035 107.867 23.9146 108.265 24.0994C108.681 24.2843 108.874 24.6265 108.874 25.0976C108.874 25.5687 108.652 25.9295 108.209 26.1233C107.755 26.3082 107.016 26.4193 105.99 26.4193H102.94V23.7848H106.194L106.185 23.7937H106.176V23.8026V23.8035ZM105.954 18.8394C106.869 18.8394 107.516 18.9505 107.876 19.1354C108.227 19.3203 108.403 19.6625 108.403 20.106C108.403 20.4384 108.219 20.7157 107.84 20.9104C107.489 21.0952 106.953 21.1877 106.26 21.1877H102.951V18.8305H105.945L105.954 18.8394ZM114.282 22.6382C114.282 24.5518 115.086 26.1322 116.667 27.4174C118.247 28.7026 120.188 29.331 122.499 29.331C124.801 29.331 126.724 28.6929 128.332 27.4174C129.912 26.1322 130.716 24.5332 130.716 22.6382C130.716 20.7246 129.912 19.1443 128.332 17.859C126.751 16.5738 124.81 15.9454 122.499 15.9454C120.197 15.9454 118.247 16.5836 116.667 17.8777C115.086 19.1807 114.282 20.7619 114.282 22.6196V22.6284V22.6373V22.6382ZM117.952 22.6382C117.952 21.4739 118.405 20.5308 119.292 19.81C120.179 19.0892 121.271 18.7381 122.509 18.7381C123.738 18.7381 124.783 19.0892 125.671 19.81C126.586 20.5308 127.03 21.4828 127.03 22.6382C127.03 23.8026 126.576 24.7456 125.727 25.4664C124.867 26.1873 123.785 26.5384 122.51 26.5384C121.262 26.5384 120.18 26.1873 119.293 25.4664C118.406 24.7456 117.953 23.7937 117.953 22.6382H117.952ZM130.755 31.2713H134.064V29.1079H144.287V31.2713H147.596V26.4184H145.775V16.149H134.165V17.7115C134.165 21.6214 133.601 24.5332 132.492 26.4281H130.763V31.2811V31.2722H130.755V31.2713ZM137.53 18.8572H142.217V26.4184H136.135C136.967 24.8558 137.42 22.592 137.494 19.5594L137.512 18.8385L137.521 18.8474H137.53V18.8563V18.8572ZM153.308 11C153.308 17.0911 152.596 22.6187 155 28.2298C156.932 32.7592 165.001 40.699 168.744 39.9506C171.85 39.3498 176.768 34.9226 178.579 32.4908C183.672 25.6966 182.979 20.058 182.979 11.776C182.979 8.55933 180.122 7.67229 177.674 6.76569C171.814 4.6583 164.825 4.62097 158.835 6.60837C157.024 7.20921 153.289 8.75309 153.289 10.9529V10.9716V10.9805L153.298 10.9991H153.307L153.308 11ZM160.546 16.3614H165.075C165.177 14.4753 166.443 13.2558 168.366 13.2558C170.261 13.2558 171.546 14.4113 171.546 15.9916C171.546 17.572 170.89 18.3861 168.727 19.6802C166.407 21.0295 165.491 22.5547 165.695 25.1616L165.714 26.1411H170.169V25.254C170.169 23.6177 170.77 22.8044 173.026 21.5103C175.402 20.1149 176.612 18.3674 176.612 15.8441C176.612 12.0266 173.451 9.3646 168.644 9.3646C163.495 9.3646 160.574 12.239 160.501 16.38H160.519V16.3712L160.538 16.3623H160.547L160.546 16.3614ZM168.07 34.1458C169.595 34.1458 170.815 32.9903 170.815 31.5113C170.815 30.0323 169.595 28.8768 168.07 28.8768C166.563 28.8768 165.324 30.0323 165.324 31.5113C165.324 32.9903 166.545 34.1458 168.07 34.1458ZM182.739 1.10036H184.449V5.34269H185.642V1.10036H187.352V0H182.74V1.10036H182.739ZM187.906 5.34358H189.098V2.12694L190.522 4.29033H190.827L192.223 2.14561V5.3258H193.415V0.00177764H192.361L190.725 2.56247L189.015 0.00177764H187.915V5.3258V5.33469L187.923 5.34358H187.905H187.906Z" fill="black"/>
</svg>
