<svg width="136" height="41" viewBox="0 0 136 41" fill="none" xmlns="http://www.w3.org/2000/svg">
<path d="M50.1212 8.49137V16.7132H52.9417C54.1353 16.7132 54.9311 16.5371 55.3289 16.1762C55.8594 15.7097 56.1601 14.8822 56.2219 13.6938H56.7878V20.9297H56.2219C56.0805 19.9174 55.9302 19.266 55.7887 18.9843C55.603 18.6234 55.3024 18.3417 54.878 18.1392C54.4536 17.9368 53.8082 17.8311 52.9417 17.8311H50.1212V24.6885C50.1212 25.6128 50.1654 26.1673 50.245 26.3698C50.3246 26.5723 50.4749 26.7308 50.6782 26.8452C50.8816 26.9596 49.5023 27.0212 50.077 27.0212H53.6225C54.7984 27.0212 55.6561 26.942 56.1954 26.7748C56.7259 26.6075 57.2387 26.2906 57.7338 25.8065C58.3704 25.1727 59.0247 24.2132 59.6878 22.9368H60.3068L58.503 28.148H44.1797V27.5846H44.9224C45.4175 27.5846 45.8861 27.4702 46.3282 27.2325C46.6553 27.0653 46.8764 26.8276 47.0002 26.4931C47.1151 26.1674 47.177 25.4984 47.177 24.4861V10.9738C47.177 9.65335 47.0444 8.84347 46.7791 8.53538C46.4078 8.13045 45.7888 7.91923 44.9312 7.91923H44.1885V7.35583H58.5119L58.7418 11.9069H58.1406C57.9284 10.8153 57.6896 10.0583 57.4244 9.65335C57.1591 9.24842 56.779 8.93152 56.2573 8.72025C55.8506 8.57061 55.1256 8.49137 54.0822 8.49137H50.1212Z" fill="black"/>
<path d="M65.558 11.9066L67.3263 14.5386C67.8215 15.2692 68.184 15.727 68.4227 15.9206C68.6614 16.1143 68.962 16.2199 69.3246 16.2375V16.4576H65.7791V16.2375C66.0178 16.2375 66.1857 16.2111 66.3007 16.1671C66.3891 16.1319 66.4598 16.0791 66.5129 15.9999C66.5659 15.9294 66.5925 15.8502 66.5925 15.771C66.5925 15.6742 66.5748 15.5861 66.5394 15.4893C66.5129 15.4189 66.398 15.2428 66.2034 14.9523L64.8065 12.8397L63.0735 15.0492C62.8879 15.2868 62.7818 15.4365 62.7464 15.5157C62.711 15.595 62.6934 15.6742 62.6934 15.7622C62.6934 15.8942 62.7464 15.9998 62.8613 16.0791C62.9763 16.1583 63.1796 16.2111 63.4891 16.2288V16.4488H60.5625V16.2288C60.7659 16.2111 60.9515 16.1671 61.1018 16.1055C61.3494 15.9999 61.597 15.859 61.818 15.683C62.0479 15.5069 62.3043 15.234 62.5961 14.8643L64.5412 12.4171L62.9144 10.0492C62.4723 9.40658 62.101 8.98405 61.7915 8.78159C61.482 8.57912 61.1284 8.4735 60.7216 8.4647V8.24463H64.5412V8.4647C64.2141 8.4735 63.993 8.52631 63.8781 8.62314C63.7632 8.71997 63.7013 8.81678 63.7013 8.93122C63.7013 9.08086 63.7985 9.30093 63.993 9.58261L65.2574 11.4664L66.7251 9.61786C66.8931 9.39779 66.9992 9.24813 67.0346 9.16891C67.0699 9.08968 67.0965 9.00163 67.0965 8.92241C67.0965 8.84318 67.0699 8.76396 67.0257 8.70234C66.9638 8.61431 66.8842 8.56154 66.7958 8.52632C66.6986 8.49111 66.5129 8.4735 66.2211 8.4647V8.24463H69.1477V8.4647C68.9178 8.4735 68.7321 8.51751 68.5818 8.57033C68.3608 8.66716 68.1663 8.79039 67.9806 8.94884C67.7949 9.10729 67.5385 9.39777 67.2025 9.82031L65.5669 11.9066H65.558Z" fill="black"/>
<path d="M76.9696 8.05105L77.1553 10.8416H76.9696C76.7132 10.0053 76.3596 9.40667 75.891 9.03695C75.4224 8.66724 74.8653 8.48238 74.2111 8.48238C73.6629 8.48238 73.1678 8.62325 72.7257 8.89613C72.2836 9.16902 71.9388 9.61796 71.6824 10.2165C71.426 10.8239 71.3022 11.5722 71.3022 12.4789C71.3022 13.2183 71.4171 13.8697 71.6647 14.4155C71.9034 14.9613 72.2659 15.375 72.7434 15.6655C73.2208 15.956 73.769 16.1056 74.3879 16.1056C74.9272 16.1056 75.3958 15.9912 75.8025 15.7623C76.2093 15.5334 76.6602 15.0845 77.1553 14.3979L77.341 14.5211C76.9254 15.2517 76.448 15.7887 75.891 16.1232C75.3428 16.4665 74.6797 16.6338 73.9281 16.6338C72.5577 16.6338 71.5056 16.132 70.754 15.1197C70.197 14.3715 69.9141 13.4824 69.9141 12.4612C69.9141 11.6426 70.0997 10.8855 70.4711 10.1989C70.8424 9.51231 71.3464 8.98415 71.9918 8.60563C72.6373 8.22711 73.3446 8.04224 74.1138 8.04224C74.7062 8.04224 75.2986 8.19188 75.8821 8.48238C76.0501 8.5704 76.1739 8.61444 76.2446 8.61444C76.3507 8.61444 76.448 8.57922 76.5276 8.5C76.6337 8.39436 76.7044 8.2359 76.7486 8.04224H76.9608L76.9696 8.05105Z" fill="black"/>
<path d="M80.3412 12.0562H84.1784V9.70587C84.1784 9.28333 84.1519 9.01044 84.0988 8.8784C84.0546 8.78157 83.9751 8.69356 83.8425 8.61433C83.6656 8.5175 83.4799 8.4647 83.2854 8.4647H82.9936V8.24463H86.5214V8.4647H86.2297C86.0352 8.4647 85.8495 8.50869 85.6727 8.60552C85.54 8.66714 85.4516 8.76398 85.4074 8.89603C85.3632 9.02807 85.3367 9.29213 85.3367 9.69705V14.9963C85.3367 15.4101 85.3632 15.6918 85.4162 15.8238C85.4604 15.9206 85.54 16.0087 85.6638 16.0879C85.8407 16.1847 86.0263 16.2375 86.2208 16.2375H86.5126V16.4576H82.9848V16.2375H83.2766C83.6126 16.2375 83.8601 16.1407 84.0104 15.9382C84.1165 15.8062 84.1607 15.4981 84.1607 15.0052V12.5051H80.3235V15.0052C80.3235 15.4189 80.35 15.7006 80.4031 15.8326C80.4473 15.9294 80.5268 16.0175 80.6594 16.0967C80.8363 16.1935 81.022 16.2463 81.2165 16.2463H81.5171V16.4664H77.9805V16.2463H78.2723C78.6171 16.2463 78.8646 16.1495 79.0149 15.9471C79.1122 15.815 79.1653 15.5069 79.1653 15.014V9.71468C79.1653 9.29214 79.1387 9.01926 79.0857 8.88721C79.0415 8.79038 78.9619 8.70237 78.8381 8.62314C78.6612 8.52631 78.4756 8.47351 78.2811 8.47351H77.9893V8.25344H81.526V8.47351H81.2253C81.0308 8.47351 80.8451 8.5175 80.6683 8.61433C80.5445 8.67595 80.4561 8.7728 80.4031 8.90484C80.3589 9.03688 80.3323 9.30094 80.3323 9.70587V12.0562H80.3412Z" fill="black"/>
<path d="M92.4912 13.7112H89.2994L88.7424 15.0052C88.6009 15.3221 88.5391 15.5598 88.5391 15.7182C88.5391 15.8415 88.601 15.9559 88.7159 16.0528C88.8397 16.1496 89.0961 16.2112 89.494 16.2376V16.4576H86.8945V16.2376C87.2394 16.176 87.4604 16.0968 87.5665 15.9999C87.7699 15.8063 87.9997 15.4101 88.2561 14.8203L91.1562 8.05981H91.3684L94.2419 14.8996C94.4718 15.4454 94.6839 15.8062 94.8696 15.9647C95.0553 16.1319 95.3206 16.22 95.6565 16.2376V16.4576H92.4028V16.2376C92.73 16.22 92.951 16.1671 93.066 16.0703C93.1809 15.9735 93.2428 15.8679 93.2428 15.7271C93.2428 15.551 93.1632 15.2693 92.9952 14.882L92.5001 13.7024L92.4912 13.7112ZM92.3232 13.2623L90.9263 9.94362L89.494 13.2623H92.3321H92.3232Z" fill="black"/>
<path d="M95.6172 8.24463H97.8541L102.903 14.4066V9.67067C102.903 9.16892 102.85 8.85201 102.735 8.72877C102.584 8.56152 102.346 8.47351 102.018 8.47351H101.736V8.25344H104.609V8.47351H104.317C103.972 8.47351 103.725 8.57913 103.575 8.7904C103.486 8.92244 103.442 9.21294 103.442 9.67949V16.6073H103.221L97.7834 9.98756V15.0492C97.7834 15.5509 97.8364 15.8678 97.9514 15.9911C98.1017 16.1583 98.3404 16.2463 98.6675 16.2463H98.9593V16.4664H96.0858V16.2463H96.3687C96.7224 16.2463 96.97 16.1407 97.1203 15.9294C97.2087 15.7974 97.2529 15.5069 97.2529 15.0492V9.33616C97.0141 9.05448 96.8285 8.86961 96.7047 8.78159C96.5809 8.69356 96.3952 8.61431 96.1565 8.53508C96.0416 8.49987 95.8648 8.48227 95.6172 8.48227V8.2622V8.24463Z" fill="black"/>
<path d="M112.436 8.05105L112.649 10.6479H112.436C112.224 10.0053 111.941 9.51234 111.605 9.18664C111.11 8.71129 110.482 8.47362 109.713 8.47362C108.661 8.47362 107.865 8.88732 107.317 9.71479C106.857 10.4102 106.627 11.2465 106.627 12.2148C106.627 12.9982 106.778 13.7113 107.087 14.3627C107.388 15.0053 107.786 15.4806 108.281 15.7799C108.776 16.0792 109.28 16.2289 109.802 16.2289C110.102 16.2289 110.403 16.1936 110.686 16.1144C110.969 16.0352 111.243 15.9207 111.508 15.7711V13.3943C111.508 12.9806 111.473 12.7165 111.411 12.5845C111.349 12.4525 111.252 12.3644 111.119 12.294C110.986 12.2236 110.756 12.1972 110.42 12.1972V11.9683H113.612V12.1972H113.462C113.144 12.1972 112.932 12.3028 112.808 12.5141C112.728 12.6637 112.684 12.9542 112.684 13.3943V15.9119C112.215 16.1584 111.756 16.3433 111.305 16.4665C110.854 16.5809 110.341 16.6426 109.793 16.6426C108.201 16.6426 106.99 16.132 106.159 15.1197C105.54 14.3539 105.23 13.4736 105.23 12.4789C105.23 11.757 105.407 11.0616 105.752 10.4014C106.168 9.60918 106.734 9.01058 107.459 8.57925C108.06 8.22714 108.776 8.05105 109.598 8.05105C109.899 8.05105 110.173 8.07747 110.42 8.12148C110.668 8.1655 111.013 8.27992 111.464 8.43837C111.694 8.5264 111.844 8.56162 111.924 8.56162C112.003 8.56162 112.065 8.52642 112.118 8.45599C112.171 8.38557 112.206 8.2447 112.215 8.04224H112.436V8.05105Z" fill="black"/>
<path d="M116.396 8.6938V11.942H118.208C118.677 11.942 118.995 11.8716 119.154 11.7307C119.367 11.5459 119.482 11.2202 119.508 10.7448H119.729V13.6057H119.508C119.455 13.2096 119.393 12.9455 119.34 12.8399C119.269 12.699 119.146 12.5846 118.978 12.5054C118.81 12.4261 118.553 12.3822 118.208 12.3822H116.396V15.0934C116.396 15.4543 116.414 15.6744 116.44 15.7536C116.475 15.8328 116.529 15.8945 116.608 15.9385C116.688 15.9825 116.847 16.0089 117.068 16.0089H118.465C118.933 16.0089 119.269 15.9737 119.482 15.912C119.694 15.8504 119.897 15.7184 120.092 15.5335C120.339 15.287 120.605 14.9085 120.861 14.398H121.108L120.392 16.4578H114.035V16.2377H114.327C114.521 16.2377 114.707 16.1937 114.884 16.0969C115.017 16.0353 115.105 15.9384 115.149 15.8064C115.193 15.6744 115.22 15.4103 115.22 15.0142V9.67971C115.22 9.16034 115.167 8.83462 115.061 8.72018C114.911 8.56173 114.672 8.47373 114.327 8.47373H114.035V8.25366H120.392L120.481 10.0494H120.242C120.154 9.61807 120.065 9.31877 119.959 9.16032C119.853 9.00187 119.703 8.87865 119.499 8.79062C119.34 8.729 119.048 8.70256 118.642 8.70256H116.378L116.396 8.6938Z" fill="black"/>
<path d="M129.826 16.4576H127.625L124.831 12.6196C124.627 12.6196 124.459 12.6284 124.327 12.6284C124.274 12.6284 124.221 12.6284 124.159 12.6284C124.097 12.6284 124.035 12.6284 123.973 12.6196V15.0052C123.973 15.5245 124.026 15.8414 124.141 15.9646C124.291 16.1407 124.53 16.2288 124.839 16.2288H125.158V16.4488H121.621V16.2288H121.931C122.275 16.2288 122.532 16.1143 122.682 15.8854C122.771 15.7622 122.806 15.4629 122.806 14.9963V9.68824C122.806 9.16888 122.753 8.85201 122.638 8.72877C122.479 8.55272 122.24 8.4647 121.931 8.4647H121.621V8.24463H124.627C125.503 8.24463 126.148 8.30622 126.564 8.43826C126.979 8.57031 127.333 8.79917 127.625 9.14248C127.916 9.48578 128.058 9.89072 128.058 10.3661C128.058 10.8678 127.89 11.308 127.563 11.6777C127.236 12.0474 126.723 12.3115 126.024 12.47L127.731 14.8291C128.12 15.3749 128.456 15.727 128.739 15.9118C129.022 16.0967 129.384 16.2023 129.835 16.2551V16.4752L129.826 16.4576ZM123.964 12.2323C124.044 12.2323 124.106 12.2323 124.167 12.2323C124.221 12.2323 124.274 12.2323 124.309 12.2323C125.096 12.2323 125.688 12.065 126.086 11.7217C126.484 11.3784 126.687 10.9471 126.687 10.4277C126.687 9.90834 126.528 9.49462 126.201 9.17772C125.883 8.86082 125.45 8.69358 124.919 8.69358C124.68 8.69358 124.362 8.72874 123.964 8.80797V12.2234V12.2323Z" fill="black"/>
<path d="M135.431 8.05078V10.8941H135.209C135.139 10.3483 135.006 9.91697 134.82 9.59127C134.635 9.26556 134.361 9.01029 134.016 8.82543C133.662 8.63177 133.309 8.54373 132.928 8.54373C132.504 8.54373 132.159 8.67578 131.885 8.93106C131.611 9.18634 131.469 9.47682 131.469 9.80253C131.469 10.049 131.558 10.2779 131.735 10.4892C131.991 10.7885 132.584 11.1934 133.53 11.704C134.299 12.1177 134.829 12.4346 135.112 12.6547C135.395 12.8747 135.607 13.13 135.766 13.4293C135.917 13.7286 135.996 14.0455 135.996 14.3712C135.996 14.9962 135.758 15.5331 135.271 15.9821C134.785 16.431 134.166 16.6599 133.397 16.6599C133.158 16.6599 132.928 16.6423 132.725 16.6071C132.601 16.5895 132.336 16.5103 131.947 16.387C131.549 16.2638 131.302 16.1933 131.195 16.1933C131.089 16.1933 131.01 16.2198 130.957 16.2814C130.904 16.343 130.851 16.4663 130.824 16.6599H130.603V13.843H130.824C130.93 14.4328 131.072 14.8729 131.248 15.1634C131.425 15.4539 131.699 15.7004 132.071 15.8941C132.442 16.0877 132.84 16.1845 133.282 16.1845C133.786 16.1845 134.193 16.0525 134.484 15.7885C134.776 15.5244 134.927 15.2075 134.927 14.8466C134.927 14.6441 134.873 14.4416 134.759 14.2303C134.644 14.0279 134.476 13.8342 134.237 13.6581C134.078 13.5349 133.645 13.2796 132.937 12.8835C132.23 12.4874 131.726 12.1793 131.434 11.9416C131.134 11.704 130.912 11.4487 130.753 11.167C130.603 10.8853 130.523 10.5772 130.523 10.2339C130.523 9.64412 130.753 9.13352 131.204 8.71099C131.655 8.28846 132.239 8.0684 132.937 8.0684C133.379 8.0684 133.839 8.17402 134.334 8.38529C134.564 8.48212 134.723 8.53492 134.812 8.53492C134.918 8.53492 135.006 8.49972 135.068 8.43811C135.139 8.37649 135.192 8.25325 135.227 8.05959H135.448L135.431 8.05078Z" fill="black"/>
<path d="M72.5766 40.9914L65.3176 23.3418L63.5493 37.3559C63.3194 38.6675 63.346 39.4509 63.6289 39.7678C64.0091 40.1991 64.6192 40.4192 65.4503 40.4192H66.193V40.9914H58.8633V40.4192H59.6059C60.4989 40.4192 61.1267 40.1551 61.4981 39.6181C61.7279 39.2836 61.9136 38.421 62.1789 37.3559L63.9472 23.6499C63.9472 22.7256 63.8411 22.0478 63.6377 21.6429C63.4962 21.3436 63.2222 21.0971 62.8332 20.8947C62.4441 20.6922 61.8164 20.5953 60.9587 20.5953V20.0232H66.9268L73.6907 36.4315L80.3219 20.0232H86.29V20.5953H85.5561C84.6542 20.5953 84.0176 20.8595 83.6463 21.3964C83.4164 21.7309 83.3015 22.4792 83.3015 23.6587L85.0698 37.3646C85.3262 38.8435 85.5737 39.4597 85.8567 39.7766C86.2369 40.208 86.8469 40.428 87.678 40.428H88.4119V41.0002H79.4642V40.428H80.2069C81.1088 40.428 81.7365 40.1639 82.099 39.6269C82.3289 39.2924 82.3201 38.6498 82.0813 37.3646L80.313 23.3506L73.0717 41.0002H72.5589L72.5766 40.9914Z" fill="black"/>
<path d="M93.5343 21.7394C94.6041 21.7394 95.5324 22.1443 96.3194 22.9542C97.1063 23.764 97.4953 24.7764 97.4953 25.9911C97.4953 27.2059 97.0974 28.2799 96.3105 29.0985C95.5236 29.926 94.5599 30.3309 93.437 30.3309C92.3141 30.3309 91.3504 29.926 90.5723 29.1249C89.8031 28.3239 89.4141 27.2852 89.4141 26.0088C89.4141 24.7324 89.8562 23.6408 90.7492 22.8133C91.5272 22.1003 92.4556 21.7394 93.5343 21.7394ZM93.4193 22.1795C92.6855 22.1795 92.0842 22.4525 91.6422 22.9982C91.0851 23.676 90.8111 24.6707 90.8111 25.9823C90.8111 27.2939 91.1028 28.3591 91.6775 29.0809C92.1196 29.6267 92.7031 29.9084 93.4281 29.9084C94.2062 29.9084 94.8428 29.6091 95.3468 29.0017C95.8508 28.4031 96.1072 27.4524 96.1072 26.1496C96.1072 24.7411 95.8331 23.6936 95.276 23.007C94.834 22.4612 94.215 22.1795 93.4281 22.1795H93.4193Z" fill="black"/>
<path d="M97.8125 21.9332H100.049L105.098 28.0952V23.3593C105.098 22.8575 105.045 22.5406 104.93 22.4174C104.78 22.2501 104.541 22.1621 104.214 22.1621H103.931V21.942H106.804V22.1621H106.513C106.168 22.1621 105.92 22.2677 105.77 22.479C105.682 22.611 105.637 22.9015 105.637 23.3681V30.2959H105.416L99.9787 23.6762V28.7378C99.9787 29.2395 100.032 29.5564 100.147 29.6797C100.297 29.8469 100.536 29.9349 100.863 29.9349H101.155V30.155H98.2811V29.9349H98.564C98.9177 29.9349 99.1653 29.8293 99.3156 29.618C99.404 29.486 99.4482 29.1955 99.4482 28.7378V23.0248C99.2095 22.7431 99.0238 22.5582 98.9 22.4702C98.7762 22.3822 98.5905 22.303 98.3518 22.2237C98.2369 22.1885 98.0601 22.1709 97.8125 22.1709V21.9509V21.9332Z" fill="black"/>
<path d="M110.826 29.9259V30.146H107.289V29.9259H107.581C107.926 29.9259 108.173 29.8291 108.324 29.6266C108.421 29.4946 108.474 29.1865 108.474 28.6935V23.3855C108.474 22.9718 108.447 22.6989 108.394 22.558C108.35 22.4612 108.27 22.3731 108.147 22.2939C107.97 22.1971 107.784 22.1443 107.59 22.1443H107.298V21.9242H110.835V22.1443H110.534C110.198 22.1443 109.95 22.2411 109.8 22.4436C109.694 22.5756 109.65 22.8837 109.65 23.3767V28.6847C109.65 29.0984 109.676 29.3801 109.729 29.5122C109.774 29.609 109.853 29.697 109.986 29.7763C110.163 29.8731 110.348 29.9259 110.543 29.9259H110.843H110.826Z" fill="black"/>
<path d="M118.345 21.933L118.434 23.8608H118.204C118.16 23.5175 118.098 23.2798 118.018 23.1302C117.894 22.8925 117.726 22.7253 117.514 22.6108C117.302 22.4964 117.028 22.4436 116.692 22.4436H115.534V28.72C115.534 29.2217 115.587 29.5386 115.702 29.6618C115.852 29.8291 116.091 29.9171 116.418 29.9171H116.701V30.1372H113.199V29.9171H113.491C113.836 29.9171 114.084 29.8115 114.234 29.6002C114.322 29.4682 114.367 29.1777 114.367 28.72V22.4436H113.376C112.987 22.4436 112.713 22.47 112.554 22.5316C112.342 22.6108 112.165 22.7517 112.015 22.9717C111.864 23.1918 111.776 23.4823 111.749 23.852H111.52L111.617 21.9242H118.354L118.345 21.933Z" fill="black"/>
<path d="M123.085 21.7394C124.155 21.7394 125.083 22.1443 125.87 22.9542C126.657 23.764 127.046 24.7764 127.046 25.9911C127.046 27.2059 126.648 28.2799 125.861 29.0985C125.074 29.926 124.111 30.3309 122.988 30.3309C121.865 30.3309 120.901 29.926 120.123 29.1249C119.354 28.3239 118.965 27.2852 118.965 26.0088C118.965 24.7324 119.407 23.6408 120.3 22.8133C121.078 22.1003 122.006 21.7394 123.085 21.7394ZM122.97 22.1795C122.236 22.1795 121.635 22.4525 121.193 22.9982C120.636 23.676 120.362 24.6707 120.362 25.9823C120.362 27.2939 120.654 28.3591 121.228 29.0809C121.67 29.6267 122.254 29.9084 122.979 29.9084C123.757 29.9084 124.394 29.6091 124.898 29.0017C125.402 28.4031 125.658 27.4524 125.658 26.1496C125.658 24.7411 125.384 23.6936 124.827 23.007C124.385 22.4612 123.766 22.1795 122.979 22.1795H122.97Z" fill="black"/>
<path d="M135.947 30.1462H133.746L130.952 26.3082C130.748 26.3082 130.58 26.317 130.448 26.317C130.395 26.317 130.342 26.317 130.28 26.317C130.218 26.317 130.156 26.317 130.094 26.3082V28.6938C130.094 29.2131 130.147 29.53 130.262 29.6533C130.412 29.8293 130.651 29.9174 130.961 29.9174H131.279V30.1374H127.742V29.9174H128.052C128.396 29.9174 128.653 29.8029 128.803 29.574C128.892 29.4508 128.927 29.1515 128.927 28.6849V23.3769C128.927 22.8575 128.874 22.5406 128.759 22.4174C128.6 22.2413 128.361 22.1533 128.052 22.1533H127.742V21.9332H130.748C131.624 21.9332 132.269 21.9948 132.685 22.1269C133.1 22.2589 133.454 22.4878 133.746 22.8311C134.037 23.1744 134.179 23.5793 134.179 24.0547C134.179 24.5564 134.011 24.9966 133.684 25.3663C133.357 25.736 132.844 26.0001 132.145 26.1585L133.852 28.5177C134.241 29.0635 134.577 29.4156 134.86 29.6005C135.143 29.7853 135.505 29.8909 135.956 29.9437V30.1638L135.947 30.1462ZM130.085 25.9209C130.165 25.9209 130.227 25.9209 130.289 25.9209C130.342 25.9209 130.395 25.9209 130.43 25.9209C131.217 25.9209 131.809 25.7536 132.207 25.4103C132.605 25.067 132.808 24.6357 132.808 24.1163C132.808 23.5969 132.649 23.1832 132.322 22.8663C132.004 22.5494 131.571 22.3822 131.04 22.3822C130.801 22.3822 130.483 22.4174 130.085 22.4966V25.9121V25.9209Z" fill="black"/>
<path d="M109.282 39.2391C109.441 39.2391 109.582 39.292 109.688 39.4064C109.795 39.5208 109.856 39.6529 109.856 39.8113C109.856 39.9698 109.803 40.1018 109.688 40.2163C109.573 40.3307 109.441 40.3835 109.282 40.3835C109.123 40.3835 108.99 40.3307 108.875 40.2163C108.76 40.1018 108.707 39.9698 108.707 39.8113C108.707 39.6529 108.76 39.512 108.875 39.4064C108.99 39.3008 109.123 39.2391 109.282 39.2391Z" fill="#2B2B2B"/>
<path d="M117 33.086L117.159 35.4627H117C116.787 34.7497 116.478 34.2391 116.08 33.9222C115.682 33.6053 115.205 33.4557 114.648 33.4557C114.179 33.4557 113.763 33.5701 113.383 33.8078C113.003 34.0455 112.711 34.4152 112.499 34.9346C112.287 35.4539 112.172 36.0877 112.172 36.8624C112.172 37.4962 112.278 38.042 112.481 38.5085C112.685 38.975 112.994 39.3271 113.401 39.5736C113.808 39.8201 114.276 39.9434 114.798 39.9434C115.258 39.9434 115.656 39.8465 116.009 39.6528C116.363 39.4592 116.743 39.0719 117.159 38.4909L117.318 38.5965C116.964 39.2215 116.557 39.6704 116.089 39.9609C115.62 40.2514 115.063 40.3922 114.418 40.3922C113.251 40.3922 112.349 39.9609 111.712 39.1071C111.235 38.4645 110.996 37.7162 110.996 36.8448C110.996 36.1493 111.155 35.5067 111.465 34.917C111.774 34.3272 112.207 33.8782 112.764 33.5613C113.321 33.2444 113.914 33.0771 114.568 33.0771C115.072 33.0771 115.576 33.2004 116.071 33.4469C116.213 33.5261 116.319 33.5613 116.381 33.5613C116.478 33.5613 116.557 33.5261 116.628 33.4645C116.717 33.3676 116.778 33.2444 116.823 33.0771H117.008L117 33.086Z" fill="#2B2B2B"/>
<path d="M121.574 33.086C122.484 33.086 123.271 33.4293 123.943 34.1159C124.615 34.8025 124.942 35.6652 124.942 36.6951C124.942 37.7251 124.606 38.6405 123.934 39.3447C123.262 40.0489 122.449 40.4011 121.485 40.4011C120.521 40.4011 119.708 40.0578 119.045 39.3712C118.382 38.6845 118.055 37.8042 118.055 36.7127C118.055 35.6212 118.435 34.6969 119.195 33.9927C119.858 33.3853 120.645 33.0771 121.565 33.0771L121.574 33.086ZM121.476 33.4645C120.849 33.4645 120.345 33.6934 119.964 34.1599C119.487 34.7409 119.257 35.586 119.257 36.6951C119.257 37.8043 119.505 38.711 119.991 39.3271C120.371 39.7937 120.866 40.0314 121.485 40.0314C122.148 40.0314 122.688 39.7761 123.121 39.2655C123.554 38.755 123.766 37.9451 123.766 36.8448C123.766 35.6476 123.528 34.7585 123.059 34.1687C122.679 33.7022 122.157 33.4645 121.485 33.4645H121.476Z" fill="#2B2B2B"/>
<path d="M129.689 40.2428L126.974 34.3538V39.028C126.974 39.4594 127.019 39.7235 127.116 39.8291C127.24 39.97 127.443 40.0492 127.726 40.0492H127.974V40.2428H125.524V40.0492H125.772C126.073 40.0492 126.276 39.9611 126.4 39.7851C126.479 39.6794 126.515 39.4242 126.515 39.028V34.4594C126.515 34.1513 126.479 33.9224 126.409 33.7904C126.364 33.6935 126.267 33.6055 126.143 33.5439C126.02 33.4823 125.807 33.4471 125.516 33.4471V33.2534H127.505L130.051 38.7288L132.562 33.2534H134.552V33.4471H134.304C134.004 33.4471 133.791 33.5351 133.668 33.7112C133.588 33.8168 133.553 34.0721 133.553 34.4682V39.0368C133.553 39.4682 133.597 39.7322 133.694 39.8379C133.818 39.9787 134.021 40.0579 134.304 40.0579H134.552V40.2516H131.563V40.0579H131.811C132.111 40.0579 132.324 39.9699 132.439 39.7939C132.518 39.6882 132.554 39.433 132.554 39.0368V34.3626L129.848 40.2516H129.68L129.689 40.2428Z" fill="#2B2B2B"/>
<path d="M18.396 21.2201L16.4332 16.449L15.9557 20.243C15.8939 20.5952 15.9027 20.8064 15.9734 20.8944C16.0795 21.0089 16.2387 21.0705 16.4686 21.0705H16.6719V21.2289H14.6914V21.0705H14.8948C15.1335 21.0705 15.3103 21.0001 15.4076 20.8504C15.4695 20.7624 15.5225 20.5247 15.5933 20.243L16.0707 16.5371C16.0707 16.2818 16.0442 16.1057 15.9823 15.9913C15.9469 15.9121 15.8674 15.8417 15.7701 15.7888C15.6729 15.736 15.496 15.7096 15.2661 15.7096V15.5511H16.8842L18.7143 19.9877L20.5092 15.5511H22.1272V15.7096H21.9327C21.6851 15.7096 21.5171 15.78 21.4199 15.9297C21.358 16.0177 21.3315 16.2202 21.3315 16.5371L21.8089 20.243C21.8796 20.6392 21.9416 20.8064 22.0211 20.8944C22.1272 21.0089 22.2864 21.0705 22.5163 21.0705H22.7107V21.2289H20.2882V21.0705H20.4915C20.7391 21.0705 20.9071 21.0001 21.0043 20.8504C21.0662 20.7624 21.0662 20.5864 21.0043 20.243L20.5269 16.449L18.564 21.2201H18.4226H18.396Z" fill="#2B2B2B"/>
<path d="M9.76776 15.8415V19.301H10.9526C11.4565 19.301 11.7925 19.2217 11.9605 19.0721C12.1816 18.8784 12.3142 18.5263 12.3318 18.0246H12.5706V21.0703H12.3318C12.27 20.6478 12.208 20.3749 12.1462 20.2516C12.0666 20.102 11.9428 19.9788 11.766 19.8996C11.5891 19.8115 11.3151 19.7675 10.9526 19.7675H9.76776V22.6548C9.76776 23.0422 9.78544 23.2798 9.82081 23.359C9.85617 23.4383 9.91808 23.5087 10.0065 23.5615C10.0949 23.6143 9.5114 23.6319 9.75896 23.6319H11.2531C11.7483 23.6319 12.1108 23.5967 12.3318 23.5263C12.5529 23.4559 12.7739 23.3238 12.9773 23.1214C13.2425 22.8573 13.5166 22.4523 13.7995 21.9154H14.056L13.2956 24.1073H7.26562V23.8696H7.57506C7.77842 23.8696 7.98176 23.8168 8.16743 23.7199C8.3089 23.6495 8.39732 23.5439 8.45037 23.4119C8.50342 23.271 8.52112 22.9893 8.52112 22.5668V16.8802C8.52112 16.3256 8.46807 15.9823 8.35312 15.8503C8.19398 15.6742 7.93757 15.595 7.57506 15.595H7.26562V15.3573H13.2956L13.3928 17.2764H13.1364C13.048 16.8186 12.9419 16.5017 12.8358 16.3256C12.7297 16.1496 12.5617 16.0263 12.3495 15.9295C12.1727 15.8679 11.8721 15.8327 11.4388 15.8327H9.77661L9.76776 15.8415Z" fill="#2B2B2B"/>
<path d="M21.5283 26.7481C21.5283 26.7481 16.7362 29.116 10.2553 28.5087C5.96712 28.1037 3.08474 25.9207 2.44815 22.9365C2.06796 21.1408 3.4826 17.2851 5.25092 15.3837C7.01924 13.4823 7.24913 13.0686 7.24913 13.0686C7.24913 13.0686 4.53478 14.6531 2.3509 17.3379C0.644471 19.433 -1.28304 24.6355 1.1484 28.1038C3.3588 31.2552 7.14305 34.565 14.7291 34.0984C20.6795 33.7287 24.6317 30.9382 24.6317 30.9382L21.5371 26.7569L21.5283 26.7481Z" fill="url(#paint0_linear_8924_85512)"/>
<path d="M11.795 9.94368C11.795 9.94368 15.1725 8.23596 19.7613 8.64088C22.794 8.90497 25.7205 11.5986 26.2156 13.7025C26.6489 15.5511 26.0035 18.0863 25.2254 19.75C24.7126 20.8503 23.0238 23.8697 23.0238 23.8697C23.0238 23.8697 25.579 21.2904 26.8699 19.213C27.8955 17.5492 29.3367 13.2447 27.1087 10.0493C25.5525 7.8134 21.786 4.574 16.4191 4.95252C12.2105 5.24301 9.16016 6.44895 9.16016 6.44895L11.8038 9.9613L11.795 9.94368Z" fill="url(#paint1_linear_8924_85512)"/>
<path d="M14.7188 24.838L22.2076 29.5475L22.3844 37.3995L31.6416 24.4683L14.7188 24.838Z" fill="#2B2B2B"/>
<path fill-rule="evenodd" clip-rule="evenodd" d="M31.9403 24.3124C31.9996 24.4239 31.9905 24.5591 31.917 24.6618L22.6598 37.5931C22.5761 37.71 22.4266 37.7604 22.2888 37.7182C22.1509 37.676 22.0557 37.5506 22.0525 37.4071L21.8797 29.7339L14.5428 25.1199C14.4179 25.0413 14.3594 24.8906 14.3989 24.7489C14.4384 24.6072 14.5665 24.508 14.7142 24.5048L31.637 24.1351C31.7637 24.1323 31.8811 24.201 31.9403 24.3124ZM15.8398 25.147L22.3892 29.2657C22.484 29.3254 22.5426 29.4284 22.5451 29.5401L22.6993 36.3893L30.9842 24.8162L15.8398 25.147Z" fill="black"/>
<path d="M16.5854 12.3028L10.0338 7.97184V1L1.55469 12.3028H16.5854Z" fill="#2B2B2B"/>
<path fill-rule="evenodd" clip-rule="evenodd" d="M10.1382 0.683648C10.2751 0.728922 10.3675 0.856381 10.3675 0.999979V7.79302L16.7695 12.0251C16.8925 12.1064 16.9475 12.2583 16.9048 12.3991C16.8621 12.5398 16.7319 12.6361 16.5843 12.6361H1.55355C1.42686 12.6361 1.31102 12.5649 1.25425 12.4521C1.19748 12.3394 1.2095 12.2044 1.28531 12.1033L9.76443 0.800513C9.85074 0.685462 10.0014 0.638374 10.1382 0.683648ZM2.22149 11.9694H15.4748L9.84748 8.24951C9.75404 8.18774 9.69787 8.08349 9.69787 7.97182V2.00331L2.22149 11.9694Z" fill="black"/>
<defs>
<linearGradient id="paint0_linear_8924_85512" x1="-0.00983736" y1="23.5967" x2="24.6229" y2="23.5967" gradientUnits="userSpaceOnUse">
<stop stop-color="#2B2B2B" stop-opacity="0.4"/>
<stop offset="1" stop-color="#2B2B2B"/>
</linearGradient>
<linearGradient id="paint1_linear_8924_85512" x1="28.3128" y1="14.2777" x2="9.24203" y2="14.4248" gradientUnits="userSpaceOnUse">
<stop stop-color="#2B2B2B" stop-opacity="0.4"/>
<stop offset="1" stop-color="#2B2B2B"/>
</linearGradient>
</defs>
</svg>
