<svg width="178" height="40" viewBox="0 0 178 40" fill="none" xmlns="http://www.w3.org/2000/svg">
<path d="M122.41 11.6666V28C122.41 30.9376 122.41 32 122.413 33.8927H33.0807C32.453 33.8377 32.0454 33.5854 31.6733 32.9318C30.5281 30.9098 29.2275 28.9783 28.0369 26.9789C27.5225 26.1151 26.7784 25.6751 25.8434 25.5684C25.2934 25.5037 24.9569 25.2578 24.7046 24.8081C24.3034 24.0963 23.7243 23.4331 23.5302 22.6696C23.2908 21.7249 24.3746 21.4111 24.8405 20.7996C28.3863 16.1538 28.6063 10.188 25.3775 5.27683C25.206 5.01801 24.8113 4.75591 25.0184 4.41944C25.0669 4.34503 25.1284 4.29651 25.1996 4.27063H122.41C122.413 6.33329 122.413 5.72901 122.413 8.66663L122.41 11.6666Z" fill="#2D2D2D"/>
<path d="M177.715 9.62173V28.6062C177.715 31.5438 175.279 33.9251 172.273 33.9251H122.285V4.30298H172.273C175.279 4.30298 177.715 6.68411 177.715 9.62173Z" fill="#D1D1D1"/>
<path d="M39.9471 10.0294V13.5558H35.5051V17.1826H39.4003V20.6831H35.5051V24.7401H40.1218V28.2666H31.8945V10.0294H39.9471Z" fill="#DBDBDB"/>
<path d="M41.3082 10.0294H45.2034L46.4523 15.2026H46.4976L47.7464 10.0294H51.509L48.6199 18.577L51.6837 28.2666H47.8984L46.3455 22.3816H46.3228L44.8993 28.2666H41.1367L44.1779 18.4249L41.3114 10.0294H41.3082Z" fill="#DBDBDB"/>
<path d="M52.6836 14.9988C52.6836 14.1188 52.8001 13.3455 53.033 12.679C53.2659 12.0126 53.5895 11.4626 54.0068 11.0291C54.4242 10.5988 54.9159 10.272 55.4853 10.052C56.0547 9.83205 56.6727 9.72205 57.3456 9.72205C58.0185 9.72205 58.6365 9.83205 59.2059 10.052C59.7753 10.272 60.267 10.5988 60.6844 11.0291C61.1017 11.4594 61.4253 12.0093 61.6582 12.679C61.8911 13.3487 62.0076 13.9893 62.0076 14.8693L58.3971 15.2834V14.6429C58.3971 14.4908 58.3906 14.3161 58.3744 14.122C58.3582 13.9278 58.3194 13.7467 58.2547 13.5752C58.19 13.407 58.0865 13.2614 57.9474 13.1449C57.8082 13.0252 57.6077 12.967 57.3456 12.967C57.0836 12.967 56.8797 13.0252 56.7341 13.1449C56.5886 13.2646 56.4818 13.407 56.4171 13.5752C56.3524 13.7434 56.3136 13.9278 56.3071 14.122C56.3006 14.3161 56.2974 14.4908 56.2974 14.6429V23.6466C56.2974 23.7663 56.3006 23.9216 56.3071 24.1157C56.3136 24.3098 56.3524 24.4975 56.4171 24.6722C56.4818 24.8501 56.5886 25.0021 56.7341 25.1283C56.8797 25.2545 57.0836 25.3192 57.3456 25.3192C57.6077 25.3192 57.8082 25.2545 57.9474 25.1283C58.0865 25.0021 58.1868 24.8501 58.2547 24.6722C58.3227 24.4942 58.3615 24.3098 58.3744 24.1157C58.3874 23.9216 58.3971 23.7663 58.3971 23.6466V22.9122L62.0076 23.2907C62.0076 24.931 61.5967 26.2218 60.7717 27.1601C59.9468 28.0983 58.8047 28.5674 57.3456 28.5674C55.8865 28.5674 54.7639 28.0983 53.9324 27.1601C53.1009 26.2218 52.6836 24.931 52.6836 23.2907V14.9955V14.9988Z" fill="#DBDBDB"/>
<path d="M67.2395 10.0294V16.8526H69.3392V10.0294H72.9497V28.2666H69.3392V20.5052H67.2395V28.2666H63.6289V10.0294H67.2395Z" fill="#DBDBDB"/>
<path d="M81.6164 10.0294L84.5702 28.2666H80.7623L80.4356 24.5396H77.8959L77.5238 28.2666H73.8906L76.8024 10.0294H81.6164ZM80.0862 21.3723L79.3129 14.4714H79.1091L78.2712 21.3723H80.0862Z" fill="#DBDBDB"/>
<path d="M88.8563 10.0294L92.0334 19.1043H92.0754V10.0294H95.4789V28.2666H92.551L89.2737 18.8196H89.2316V28.2666H85.8281V10.0294H88.8563Z" fill="#DBDBDB"/>
<path d="M97.5469 14.9988C97.5469 14.1188 97.6633 13.3455 97.8963 12.679C98.1292 12.0126 98.4528 11.4626 98.8701 11.0291C99.2875 10.5988 99.7792 10.272 100.349 10.052C100.918 9.83205 101.536 9.72205 102.209 9.72205C102.82 9.72205 103.412 9.7932 103.982 9.93878C104.551 10.0811 105.046 10.327 105.47 10.6732C105.894 11.0194 106.234 11.482 106.489 12.0547C106.745 12.6305 106.871 13.5881 106.871 14.452L103.435 15.1993V14.4132C103.435 13.957 103.348 13.6011 103.173 13.3488C102.998 13.0964 102.707 12.967 102.296 12.967C102.047 12.967 101.85 13.0252 101.704 13.1449C101.559 13.2646 101.445 13.4102 101.364 13.5882C101.284 13.7661 101.229 13.9473 101.199 14.1349C101.17 14.3226 101.154 14.4908 101.154 14.6429V23.6466C101.154 23.7663 101.157 23.9216 101.164 24.1157C101.17 24.3098 101.209 24.4975 101.274 24.6722C101.339 24.8501 101.445 25.0021 101.591 25.1283C101.737 25.2545 101.94 25.3192 102.202 25.3192C102.976 25.3192 103.364 24.8631 103.364 23.9507V21.191H102.096V18.2178L106.68 18.2017L106.619 24.1222C106.615 24.5169 106.541 24.9115 106.399 25.2804C106.111 26.018 105.512 27.1892 104.438 27.7974C103.425 28.3701 101.944 28.3572 101.077 28.2633C100.423 28.1922 98.1551 27.5451 97.6989 25.2836C97.5728 24.6527 97.5469 23.9863 97.5469 23.294V14.9988Z" fill="#DBDBDB"/>
<path d="M116.545 10.0294V13.5558H112.103V17.1826H115.998V20.6831H112.103V24.7401H116.719V28.2666H108.492V10.0294H116.545Z" fill="#DBDBDB"/>
<path d="M129.794 23.4233C129.794 23.6724 129.807 23.9087 129.836 24.1351C129.865 24.3584 129.92 24.5589 130.004 24.7336C130.088 24.9083 130.208 25.0442 130.363 25.1445C130.518 25.2448 130.722 25.2933 130.978 25.2933C131.372 25.2933 131.673 25.1607 131.877 24.8954C132.081 24.6301 132.162 24.2969 132.184 23.8957C132.269 22.4269 132.168 21.4078 131.414 21.0195C129.137 19.8484 128.694 19.4181 128.364 19.1011C128.03 18.784 127.733 18.4346 127.464 18.0528C127.196 17.6711 126.985 17.2343 126.83 16.7425C126.675 16.2508 126.597 15.6652 126.597 14.9826C126.597 13.2194 126.989 11.9382 127.772 11.139C128.554 10.3399 129.651 9.94202 131.065 9.94202C132.589 9.94202 133.702 10.3497 134.401 11.165C135.099 11.9802 135.449 13.077 135.449 14.4584V14.6558L132.165 15.3578V15.1055C132.165 14.8887 132.155 14.6591 132.133 14.4196C132.11 14.1802 132.061 13.9667 131.984 13.7823C131.906 13.5979 131.796 13.4458 131.657 13.3196C131.515 13.1934 131.317 13.132 131.065 13.132C130.696 13.132 130.405 13.2517 130.185 13.4943C129.965 13.737 129.858 14.0637 129.858 14.4811C129.858 14.7464 129.693 15.882 130.295 16.4384C131.224 17.299 133.857 18.2114 134.811 19.5314C135.109 19.9455 135.798 20.6928 135.704 23.8893C135.691 24.3228 135.627 24.8048 135.471 25.3354C135.316 25.8692 135.054 26.3674 134.689 26.8333C134.32 27.2992 133.834 27.6907 133.226 28.0077C132.618 28.3248 131.858 28.4833 130.939 28.4833C130.02 28.4833 129.337 28.3377 128.758 28.0465C128.179 27.7554 127.717 27.3898 127.37 26.9498C127.024 26.5098 126.778 26.031 126.629 25.5134C126.481 24.999 126.406 24.0542 126.406 23.5883L129.794 22.8475V23.4168V23.4233Z" fill="#2D2D2D"/>
<path d="M140.616 10.0294V23.3457C140.616 23.5819 140.619 23.8149 140.626 24.0446C140.632 24.2743 140.668 24.4716 140.732 24.6398C140.797 24.8081 140.897 24.9439 141.04 25.0442C141.182 25.1445 141.379 25.1963 141.632 25.1963C141.884 25.1963 142.078 25.1445 142.214 25.0442C142.347 24.9439 142.447 24.8081 142.512 24.6398C142.576 24.4716 142.615 24.2711 142.628 24.0446C142.641 23.8149 142.651 23.5851 142.651 23.3457V10.0294H146.145V23.294C146.145 24.9343 145.747 26.2251 144.948 27.1634C144.149 28.1016 143.046 28.5707 141.635 28.5707C140.224 28.5707 139.137 28.1016 138.332 27.1634C137.526 26.2251 137.125 24.9343 137.125 23.294V10.0294H140.619H140.616Z" fill="#2D2D2D"/>
<path d="M151.286 10.0294L154.217 18.6578H154.256L157.106 10.0294H160.348V28.2666H157.022L156.941 19.4505H156.902L155.304 24.7434H153.169L151.648 19.3697H151.629V28.2666H148.125V10.0294H151.286Z" fill="#2D2D2D"/>
<path d="M162.535 14.9988C162.535 14.1188 162.648 13.3455 162.875 12.679C163.101 12.0126 163.415 11.4626 163.816 11.0291C164.217 10.5988 164.696 10.272 165.246 10.052C165.796 9.83205 166.398 9.72205 167.045 9.72205C167.692 9.72205 168.294 9.83205 168.844 10.052C169.394 10.272 169.869 10.5988 170.274 11.0291C170.675 11.4594 170.989 12.0093 171.215 12.679C171.442 13.3487 171.555 14.122 171.555 14.9988V23.294C171.555 24.9342 171.157 26.2251 170.358 27.1633C169.559 28.1015 168.456 28.5707 167.045 28.5707C165.635 28.5707 164.548 28.1015 163.742 27.1633C162.936 26.2251 162.535 24.9342 162.535 23.294V14.9988ZM166.029 23.6499C166.029 23.7696 166.032 23.9248 166.039 24.119C166.045 24.3131 166.081 24.5007 166.146 24.6754C166.21 24.8534 166.311 25.0054 166.453 25.1316C166.595 25.2577 166.793 25.3225 167.045 25.3225C167.297 25.3225 167.492 25.2577 167.627 25.1316C167.76 25.0054 167.86 24.8534 167.925 24.6754C167.99 24.4975 168.029 24.3131 168.042 24.119C168.055 23.9248 168.064 23.7696 168.064 23.6499V14.6461C168.064 14.494 168.058 14.3193 168.042 14.1252C168.029 13.9311 167.99 13.7499 167.925 13.5785C167.86 13.4102 167.763 13.2646 167.627 13.1481C167.492 13.0284 167.301 12.9703 167.045 12.9703C166.79 12.9703 166.592 13.0284 166.453 13.1481C166.311 13.2678 166.21 13.4102 166.146 13.5785C166.081 13.7467 166.045 13.9311 166.039 14.1252C166.032 14.3193 166.029 14.494 166.029 14.6461V23.6499Z" fill="#2D2D2D"/>
<path d="M25.3763 13.1061C25.276 16.5646 24.0855 19.787 21.3905 22.3622C20.9408 22.7925 20.9084 23.1031 21.2481 23.5722C21.5296 23.9605 21.7464 24.3972 22.002 24.8048C22.484 25.5716 22.814 26.4483 24.0628 26.2866C24.629 26.2122 25.1563 26.7234 25.496 27.2669C27.1104 29.8454 28.7539 32.4044 30.336 35.0024C31.1674 36.3676 30.8472 37.61 29.5401 38.5288C28.9966 38.9106 28.4563 39.2988 27.8804 39.6256C26.7319 40.2758 25.5607 40.0882 24.8522 38.9915C23.1246 36.3094 21.4714 33.5757 19.8052 30.8548C19.3749 30.1528 19.4137 29.3924 19.8052 28.7001C20.0349 28.2892 19.9832 27.998 19.7437 27.6389C19.2779 26.9368 18.8087 26.2316 18.4238 25.4842C18.1229 24.9051 17.822 24.8372 17.217 25.0701C14.2503 26.2154 11.2512 26.2543 8.30709 25.0216C3.70979 23.0934 1.1604 19.5378 0.419524 14.6849C-0.547819 8.34055 3.66773 1.89592 9.70473 0.381823C17.2429 -1.50757 24.6387 3.83062 25.2922 11.6341C25.3278 12.0547 25.344 12.4753 25.3796 13.1158L25.3763 13.1061Z" fill="#5C5C5C"/>
<path d="M2.10242 12.9864C2.02801 7.00118 6.82266 1.92183 12.6267 1.84095C18.5828 1.76007 23.4907 6.67443 23.5425 12.7632C23.591 18.9167 18.8967 23.9766 13.0764 24.0381C6.99736 24.1028 2.18006 19.2531 2.10242 12.9864Z" fill="#DBDBDB"/>
<path d="M4.2737 14.8209C4.2737 9.92266 8.07513 5.73624 12.8439 5.27683C13.8274 5.18301 13.9407 4.84331 13.656 4.06361C13.6042 3.92449 13.5718 3.7724 13.5557 3.62358C13.5298 3.42299 13.4424 3.18357 13.6689 3.04769C13.8468 2.94093 14.0215 3.0639 14.1704 3.15772C15.7848 4.16065 17.3959 5.16683 19.0103 6.16977C19.3953 6.40917 19.4471 6.68094 19.1915 7.06594C18.1465 8.64798 17.1177 10.2462 16.0792 11.8347C15.9659 12.0094 15.8365 12.2197 15.5971 12.1938C15.3351 12.1647 15.3189 11.9091 15.2639 11.7117C15.2089 11.5079 15.1733 11.3009 15.128 11.0938C14.7851 9.53119 14.7786 9.49559 13.1739 9.79C10.6504 10.2526 8.37925 11.2071 6.73574 13.3003C5.94957 14.3 5.52574 15.4388 5.37369 16.6908C5.3381 16.9852 5.3381 17.3605 4.92399 17.3508C4.59076 17.3411 4.55517 17.0014 4.49693 16.7393C4.34488 16.0308 4.24782 15.3158 4.2737 14.8209Z" fill="#2D2D2D"/>
<path d="M21.2757 11.3429C21.0298 16.4514 17.5066 20.2496 12.7055 20.8222C11.8222 20.9258 11.5084 21.1781 11.8514 22.0322C11.9161 22.1972 11.9225 22.3848 11.9452 22.566C12.0131 23.1095 11.8093 23.2486 11.3402 22.9542C9.72902 21.9513 8.1211 20.9419 6.50024 19.9519C6.1023 19.7092 6.04082 19.4634 6.30288 19.0751C7.37699 17.4737 8.43168 15.8626 9.49608 14.2546C9.59314 14.1058 9.67726 13.9149 9.88755 13.9246C10.1626 13.9376 10.1884 14.1867 10.237 14.384C10.3178 14.7043 10.3858 15.0278 10.4472 15.3546C10.6802 16.5678 10.6834 16.5969 11.8675 16.4158C14.8666 15.9596 17.4872 14.8338 19.2083 12.1647C19.7583 11.3106 20.0204 10.3626 20.1627 9.36936C20.1983 9.12024 20.1854 8.7644 20.5639 8.7644C20.9166 8.7644 20.9489 9.08141 20.9877 9.3564C21.0977 10.1296 21.211 10.9029 21.2757 11.3461V11.3429Z" fill="#2D2D2D"/>
</svg>
