<svg width="150" height="40" viewBox="0 0 150 40" fill="none" xmlns="http://www.w3.org/2000/svg">
<g clip-path="url(#clip0_6795_156013)">
<path d="M52.2406 13.8644V20.5708H50.081L49.9847 19.3013C48.7483 20.2993 47.1346 20.8023 45.1276 20.8023C43.6022 20.8023 42.2695 20.5468 41.1455 20.0359C40.0216 19.5249 39.1465 18.7904 38.5363 17.8403C37.9262 16.8902 37.6211 15.7725 37.6211 14.4791V14.2316C37.6211 12.9622 37.9262 11.8525 38.5443 10.8944C39.1625 9.93636 40.0376 9.19386 41.1776 8.67492C42.3176 8.14799 43.6423 7.88452 45.1436 7.88452C46.5486 7.88452 47.7769 8.06815 48.8527 8.44339C49.9285 8.81863 50.7474 9.34556 51.3334 10.0401C51.9195 10.7347 52.2085 11.5251 52.2085 12.4273V12.5231H49.784V12.4273C49.784 12.0121 49.5752 11.6209 49.1658 11.2617C48.7563 10.9024 48.1944 10.615 47.4879 10.4074C46.7814 10.1998 46.0107 10.096 45.1677 10.096C43.546 10.096 42.2936 10.4553 41.3944 11.1659C40.4952 11.8844 40.0456 12.8904 40.0456 14.1997V14.5191C40.0456 15.8523 40.4792 16.8663 41.3543 17.5609C42.2293 18.2555 43.4978 18.6068 45.1677 18.6068C46.1712 18.6068 47.0704 18.463 47.8652 18.1676C48.66 17.8722 49.3183 17.4731 49.8562 16.9701V16.004H43.4577V13.8724H52.2486L52.2406 13.8644Z" fill="black"/>
<path d="M65.3512 16.603H56.5843C56.6726 17.2736 57.0017 17.7926 57.5718 18.1598C58.1418 18.5271 58.8964 18.7107 59.8357 18.7107C60.7108 18.7107 61.4253 18.5829 61.9793 18.3275C62.5332 18.072 62.8303 17.7287 62.8945 17.2976H65.3592C65.2307 18.4153 64.6848 19.2775 63.7214 19.8843C62.758 20.4911 61.4655 20.7945 59.8357 20.7945C58.6797 20.7945 57.6761 20.6028 56.8251 20.2116C55.9741 19.8284 55.3238 19.2775 54.8662 18.559C54.4086 17.8405 54.1758 17.0022 54.1758 16.0441V15.6609C54.1758 14.6869 54.4086 13.8326 54.8662 13.1141C55.3238 12.3955 55.9822 11.8366 56.8332 11.4534C57.6842 11.0702 58.6877 10.8706 59.8357 10.8706C61.5698 10.8706 62.9186 11.2858 63.8981 12.1241C64.8695 12.9624 65.3592 14.112 65.3592 15.581V16.587L65.3512 16.603ZM57.7243 13.4334C57.1784 13.7368 56.8171 14.1599 56.6565 14.7028H62.8704C62.7179 14.1599 62.3727 13.7368 61.8348 13.4334C61.2969 13.13 60.6225 12.9783 59.8116 12.9783C59.0008 12.9783 58.2782 13.13 57.7323 13.4334H57.7243Z" fill="black"/>
<path d="M71.3863 13.122V17.3055C71.3863 17.7127 71.4987 18.024 71.7315 18.2396C71.9643 18.4552 72.2935 18.559 72.727 18.559H74.983V20.5709H72.5183C71.4585 20.5709 70.6236 20.2835 70.0135 19.7166C69.4033 19.1498 69.0982 18.3674 69.0982 17.3774V13.122H65.7344V11.1101H68.5282C68.7691 11.1101 68.9377 11.0702 69.026 10.9744C69.1143 10.8865 69.1625 10.7189 69.1625 10.4794V8.57922H71.4024V11.1101H75.569V13.122H71.4024H71.3863Z" fill="black"/>
<path d="M89.1644 15.222C89.4856 15.669 89.6461 16.204 89.6461 16.8267V17.0343C89.6461 17.7448 89.4615 18.3676 89.0842 18.8945C88.7068 19.4294 88.177 19.8366 87.4865 20.132C86.7961 20.4274 85.9933 20.5711 85.078 20.5711H77.3789V8.1084H84.7007C86.1378 8.1084 87.2617 8.38783 88.0565 8.95468C88.8513 9.52153 89.2528 10.3119 89.2528 11.3418V11.5494C89.2528 12.6911 88.7711 13.5613 87.7996 14.1681C88.4018 14.4236 88.8594 14.7749 89.1725 15.222H89.1644ZM79.7633 10.2321V13.218H84.6766C85.3992 13.218 85.9371 13.1063 86.2903 12.8747C86.6436 12.6432 86.8122 12.2999 86.8122 11.8288V11.6213C86.8122 11.1662 86.6275 10.8229 86.2662 10.5834C85.905 10.3518 85.3751 10.2321 84.6927 10.2321H79.7633ZM87.2136 16.7469C87.2136 16.2758 87.0369 15.9245 86.6757 15.693C86.3224 15.4615 85.7685 15.3417 85.0299 15.3417H79.7553V18.4394H85.0299C85.7203 18.4394 86.2502 18.3117 86.6355 18.0482C87.0209 17.7848 87.2055 17.4255 87.2055 16.9544V16.7469H87.2136Z" fill="black"/>
<path d="M93.1149 19.8923C92.5931 19.4372 92.3281 18.7825 92.3281 17.9362V7.34973H94.6242V17.5291C94.6242 17.8963 94.7125 18.1598 94.8891 18.3195C95.0658 18.4791 95.3628 18.559 95.7642 18.559H96.5831V20.5709H95.3387C94.3673 20.5709 93.6287 20.3394 93.0988 19.8843L93.1149 19.8923Z" fill="black"/>
<path d="M100.354 20.2196C99.4867 19.8364 98.8203 19.2775 98.3547 18.559C97.8891 17.8405 97.6562 16.9862 97.6562 16.0122V15.7248C97.6562 14.7348 97.8891 13.8805 98.3467 13.146C98.8043 12.4195 99.4706 11.8606 100.338 11.4614C101.205 11.0702 102.232 10.8706 103.413 10.8706C104.593 10.8706 105.596 11.0702 106.447 11.4614C107.298 11.8526 107.957 12.4115 108.414 13.146C108.872 13.8725 109.105 14.7348 109.105 15.7248V16.0122C109.105 16.9862 108.872 17.8325 108.414 18.559C107.957 19.2855 107.298 19.8364 106.447 20.2196C105.596 20.6028 104.585 20.8024 103.413 20.8024C102.24 20.8024 101.221 20.6108 100.354 20.2196ZM105.845 17.9921C106.439 17.5211 106.736 16.8584 106.736 16.0042V15.7168C106.736 14.8465 106.439 14.1679 105.861 13.6809C105.275 13.2019 104.456 12.9624 103.396 12.9624C102.337 12.9624 101.486 13.2019 100.9 13.6729C100.314 14.144 100.033 14.8306 100.033 15.7168V16.0042C100.033 16.8505 100.33 17.5131 100.924 17.9921C101.518 18.4712 102.345 18.7027 103.396 18.7027C104.448 18.7027 105.259 18.4632 105.853 17.9921H105.845Z" fill="black"/>
<path d="M113.423 20.2196C112.572 19.8364 111.914 19.2775 111.448 18.559C110.983 17.8405 110.75 16.9942 110.75 16.0281V15.7248C110.75 14.7348 110.983 13.8805 111.44 13.146C111.898 12.4195 112.556 11.8606 113.415 11.4614C114.274 11.0702 115.286 10.8706 116.442 10.8706C117.502 10.8706 118.449 11.0462 119.292 11.4055C120.135 11.7568 120.785 12.2518 121.259 12.8905C121.733 13.5212 121.966 14.2398 121.966 15.0381V15.094H119.597V15.0381C119.597 14.4314 119.3 13.9364 118.722 13.5452C118.136 13.162 117.381 12.9624 116.45 12.9624C115.39 12.9624 114.571 13.2019 113.993 13.6809C113.415 14.1599 113.126 14.8465 113.126 15.7327V15.9962C113.126 16.8584 113.415 17.5211 113.993 17.9921C114.571 18.4632 115.39 18.6947 116.45 18.6947C117.381 18.6947 118.136 18.5031 118.722 18.1279C119.308 17.7446 119.597 17.2576 119.597 16.6429V16.587H121.966V16.6429C121.966 17.4572 121.733 18.1758 121.275 18.7985C120.817 19.4292 120.167 19.9162 119.332 20.2595C118.497 20.6108 117.534 20.7785 116.434 20.7785C115.278 20.7785 114.266 20.5869 113.415 20.1957L113.423 20.2196Z" fill="black"/>
<path d="M135.382 20.2515V20.5709H132.532L128.863 16.6349L126.534 18.5749V20.5709H124.238V7.34973H126.534V15.7646L132.154 11.1101H135.157V11.4374L130.645 15.1978L135.382 20.2515Z" fill="black"/>
<path d="M44.4299 30.5265C44.6306 30.774 44.735 31.0774 44.735 31.4287V31.5485C44.735 32.0834 44.5262 32.5065 44.1168 32.8179C43.7073 33.1293 43.1534 33.2889 42.471 33.2889H38.6094V26.8141H42.2542C42.9687 26.8141 43.5227 26.9578 43.9241 27.2372C44.3175 27.5167 44.5182 27.9159 44.5182 28.4188V28.5466C44.5182 28.8659 44.4379 29.1533 44.2693 29.3929C44.1007 29.6403 43.8679 29.832 43.5548 29.9757C43.9402 30.0954 44.2292 30.2791 44.4299 30.5265ZM39.364 27.4927V29.6883H42.2462C42.7359 29.6883 43.1132 29.6004 43.3702 29.4168C43.6271 29.2332 43.7555 28.9777 43.7555 28.6344V28.5146C43.7555 28.1953 43.6271 27.9398 43.3621 27.7642C43.0972 27.5885 42.7279 27.5007 42.2542 27.5007H39.364V27.4927ZM43.9643 31.4128C43.9643 31.0694 43.8358 30.806 43.5789 30.6303C43.322 30.4467 42.9447 30.3589 42.4549 30.3589H39.364V32.6103H42.4549C42.9286 32.6103 43.3059 32.5145 43.5628 32.3229C43.8197 32.1313 43.9562 31.8678 43.9562 31.5325V31.4128H43.9643Z" fill="black"/>
<path d="M46.4688 32.0515V26.4149H47.2074V31.9317C47.2074 32.1792 47.2636 32.3628 47.384 32.4746C47.5044 32.5864 47.7051 32.6423 47.9781 32.6423H48.4036V33.281H47.8496C46.9264 33.281 46.4688 32.8738 46.4688 32.0435V32.0515Z" fill="black"/>
<path d="M50.4586 33.0975C50.017 32.8979 49.6798 32.6185 49.447 32.2512C49.2142 31.884 49.0938 31.4529 49.0938 30.9579V30.7663C49.0938 30.2633 49.2142 29.8322 49.447 29.4569C49.6798 29.0817 50.017 28.8022 50.4586 28.6027C50.8921 28.4031 51.4139 28.3073 52.008 28.3073C52.6021 28.3073 53.0999 28.4031 53.5334 28.6106C53.9669 28.8102 54.3041 29.0976 54.5369 29.4649C54.7698 29.8322 54.8902 30.2713 54.8902 30.7663V30.9579C54.8902 31.4529 54.7698 31.884 54.5369 32.2512C54.3041 32.6185 53.9669 32.9059 53.5334 33.0975C53.0999 33.2971 52.5941 33.3929 52.008 33.3929C51.422 33.3929 50.9081 33.2971 50.4666 33.0975H50.4586ZM53.5575 32.2512C53.9348 31.9319 54.1275 31.5008 54.1275 30.9579V30.7663C54.1275 30.2154 53.9348 29.7763 53.5575 29.4569C53.1802 29.1376 52.6583 28.9779 51.992 28.9779C51.3256 28.9779 50.7877 29.1376 50.4104 29.4489C50.0331 29.7683 49.8484 30.1994 49.8484 30.7583V30.9499C49.8484 31.4928 50.0411 31.9239 50.4264 32.2433C50.8118 32.5626 51.3336 32.7143 51.992 32.7143C52.6503 32.7143 53.1721 32.5546 53.5575 32.2433V32.2512Z" fill="black"/>
<path d="M57.2596 33.0975C56.826 32.8979 56.4888 32.6184 56.248 32.2512C56.0071 31.8839 55.8867 31.4528 55.8867 30.9658V30.7662C55.8867 30.2712 56.0071 29.8401 56.24 29.4648C56.4728 29.0976 56.81 28.8102 57.2515 28.6026C57.6851 28.403 58.1989 28.2992 58.793 28.2992C59.3228 28.2992 59.7965 28.387 60.214 28.5627C60.6314 28.7383 60.9606 28.9778 61.2014 29.2972C61.4423 29.6165 61.5627 29.9598 61.5627 30.351V30.3989H60.8081V30.351C60.8081 30.0876 60.7198 29.856 60.5431 29.6485C60.3665 29.4409 60.1257 29.2812 59.8206 29.1614C59.5155 29.0417 59.1703 28.9858 58.7849 28.9858C58.1186 28.9858 57.5887 29.1455 57.2114 29.4648C56.8341 29.7842 56.6414 30.2233 56.6414 30.7822V30.9578C56.6414 31.5007 56.8341 31.9318 57.2114 32.2512C57.5887 32.5705 58.1186 32.7222 58.7849 32.7222C59.1703 32.7222 59.5155 32.6663 59.8206 32.5466C60.1257 32.4268 60.3665 32.2671 60.5431 32.0596C60.7198 31.852 60.8 31.6205 60.8 31.357V31.3091H61.5547V31.357C61.5547 31.7482 61.4343 32.1075 61.2014 32.4108C60.9686 32.7222 60.6395 32.9617 60.222 33.1294C59.8045 33.297 59.3228 33.3849 58.7849 33.3849C58.1989 33.3849 57.6931 33.2891 57.2596 33.0895V33.0975Z" fill="black"/>
<path d="M68.4653 33.1772V33.289H67.5661L65.1014 30.9497L63.6644 32.0195V33.289H62.9258V26.4149H63.6644V31.1333L67.3895 28.4188H68.3449V28.5306L65.6715 30.5266L68.4733 33.1852L68.4653 33.1772Z" fill="black"/>
<path d="M70.3377 33.0975C69.9042 32.8979 69.567 32.6184 69.3261 32.2512C69.0853 31.8839 68.9648 31.4528 68.9648 30.9658V30.7662C68.9648 30.2712 69.0853 29.8401 69.3181 29.4648C69.5509 29.0976 69.8881 28.8102 70.3297 28.6026C70.7632 28.403 71.277 28.2992 71.8711 28.2992C72.401 28.2992 72.8746 28.387 73.2921 28.5627C73.7096 28.7383 74.0387 28.9778 74.2796 29.2972C74.5204 29.6165 74.6409 29.9598 74.6409 30.351V30.3989H73.8862V30.351C73.8862 30.0876 73.7979 29.856 73.6213 29.6485C73.4446 29.4409 73.2038 29.2812 72.8987 29.1614C72.5936 29.0417 72.2484 28.9858 71.8631 28.9858C71.1967 28.9858 70.6668 29.1455 70.2895 29.4648C69.9122 29.7842 69.7195 30.2233 69.7195 30.7822V30.9578C69.7195 31.5007 69.9122 31.9318 70.2895 32.2512C70.6668 32.5705 71.1967 32.7222 71.8631 32.7222C72.2484 32.7222 72.5936 32.6663 72.8987 32.5466C73.2038 32.4268 73.4446 32.2671 73.6213 32.0596C73.7979 31.852 73.8782 31.6205 73.8782 31.357V31.3091H74.6328V31.357C74.6328 31.7482 74.5124 32.1075 74.2796 32.4108C74.0468 32.7222 73.7176 32.9617 73.3001 33.1294C72.8827 33.297 72.401 33.3849 71.8631 33.3849C71.277 33.3849 70.7712 33.2891 70.3377 33.0895V33.0975Z" fill="black"/>
<path d="M80.6846 28.9459C81.1262 29.369 81.3429 29.9758 81.3429 30.7741V33.289H80.6043V30.7741C80.6043 30.1993 80.4438 29.7522 80.1146 29.4488C79.7855 29.1454 79.3118 28.9938 78.6936 28.9938C78.2842 28.9938 77.8988 29.0896 77.5456 29.2812C77.1923 29.4728 76.9193 29.7283 76.7347 30.0396V33.297H75.9961V26.423H76.7347V29.1534C76.9916 28.882 77.2967 28.6744 77.6419 28.5307C77.9871 28.387 78.3644 28.3151 78.7578 28.3151C79.6008 28.3151 80.235 28.5227 80.6766 28.9459H80.6846Z" fill="black"/>
<path d="M89.2414 32.6424V33.2811H88.6393C88.3182 33.2811 88.0452 33.2092 87.8365 33.0735C87.6278 32.9378 87.4832 32.7382 87.419 32.4907C86.8651 33.0895 86.0703 33.3849 85.0346 33.3849C84.3362 33.3849 83.7983 33.2651 83.429 33.0336C83.0597 32.8021 82.875 32.4667 82.875 32.0196C82.875 31.2292 83.4691 30.7742 84.6653 30.6464L87.3869 30.359C87.3869 29.9039 87.2263 29.5606 86.9132 29.3291C86.5921 29.0976 86.1265 28.9858 85.5163 28.9858C84.9543 28.9858 84.4967 29.0896 84.1595 29.3052C83.8223 29.5207 83.6457 29.7922 83.6457 30.1355V30.1914H82.9232V30.1355C82.9232 29.7762 83.0356 29.4648 83.2523 29.1854C83.4691 28.906 83.7742 28.6904 84.1676 28.5307C84.5609 28.379 85.0186 28.2992 85.5324 28.2992C86.3513 28.2992 86.9935 28.4828 87.4511 28.8421C87.9087 29.2014 88.1335 29.7123 88.1335 30.359V32.0037C88.1335 32.2033 88.1897 32.355 88.3102 32.4667C88.4306 32.5785 88.5992 32.6264 88.824 32.6264H89.2575L89.2414 32.6424ZM86.4636 32.4827C86.8731 32.2991 87.1782 32.0436 87.3789 31.7163V30.9738L84.8098 31.2372C84.4004 31.2851 84.0953 31.373 83.9026 31.5007C83.7099 31.6284 83.6136 31.8041 83.6136 32.0276C83.6136 32.5067 84.0873 32.7462 85.0346 32.7462C85.5805 32.7462 86.0622 32.6583 86.4717 32.4747L86.4636 32.4827Z" fill="black"/>
<path d="M90.3205 27.3889C90.2242 27.2931 90.168 27.1733 90.168 27.0296C90.168 26.8859 90.2161 26.7661 90.3205 26.6783C90.4249 26.5905 90.5453 26.5426 90.6978 26.5426C90.8504 26.5426 90.9788 26.5905 91.0752 26.6783C91.1715 26.7661 91.2277 26.8859 91.2277 27.0296C91.2277 27.1733 91.1795 27.2931 91.0752 27.3889C90.9788 27.4847 90.8504 27.5326 90.6978 27.5326C90.5453 27.5326 90.4168 27.4847 90.3205 27.3889ZM91.0671 28.4188V33.2889H90.3285V28.4188H91.0671Z" fill="black"/>
<path d="M97.6924 28.9379C98.126 29.3531 98.3508 29.9678 98.3508 30.7662V33.2811H97.6122V30.7662C97.6122 30.1834 97.4516 29.7363 97.1224 29.4329C96.7933 29.1295 96.3196 28.9778 95.7014 28.9778C95.2839 28.9778 94.8986 29.0736 94.5453 29.2572C94.1921 29.4409 93.9272 29.6964 93.7425 30.0157V33.2811H93.0039V28.411H93.6863L93.7184 29.1535C93.9673 28.882 94.2724 28.6744 94.6256 28.5227C94.9789 28.371 95.3562 28.2992 95.7656 28.2992C96.6086 28.2992 97.2509 28.5068 97.6924 28.9299V28.9379Z" fill="black"/>
<path d="M109.548 26.814V27.4926H104.884V29.7041H109.347V30.3828H104.884V32.6023H109.548V33.2809H104.129V26.806H109.548V26.814Z" fill="black"/>
<path d="M116.435 33.1772V33.2889H115.568L113.569 31.2611L111.57 33.2889H110.703V33.1772L113.047 30.8299L110.743 28.5306V28.4188H111.594L113.561 30.3908L115.544 28.4188H116.371V28.5306L114.067 30.8299L116.419 33.1772H116.435Z" fill="black"/>
<path d="M122.018 28.6106C122.451 28.8102 122.788 29.0976 123.029 29.4649C123.262 29.8322 123.382 30.2633 123.382 30.7583V30.9339C123.382 31.4289 123.262 31.86 123.021 32.2353C122.78 32.6105 122.443 32.89 122.018 33.0975C121.584 33.2971 121.078 33.4009 120.492 33.4009C120.099 33.4009 119.721 33.337 119.376 33.2013C119.031 33.0656 118.726 32.882 118.469 32.6345V34.9657H117.73V28.419H118.413L118.445 29.0976C118.694 28.8501 118.999 28.6506 119.352 28.5148C119.705 28.3791 120.083 28.3073 120.492 28.3073C121.078 28.3073 121.584 28.4031 122.018 28.6106ZM122.62 30.7583C122.62 30.2074 122.427 29.7683 122.05 29.4569C121.672 29.1376 121.142 28.9859 120.476 28.9859C120.051 28.9859 119.657 29.0657 119.304 29.2254C118.943 29.3851 118.662 29.6006 118.469 29.8641V31.8361C118.67 32.1075 118.951 32.3231 119.304 32.4828C119.665 32.6425 120.059 32.7223 120.476 32.7223C121.142 32.7223 121.672 32.5626 122.05 32.2512C122.427 31.9319 122.62 31.5008 122.62 30.9419V30.7663V30.7583Z" fill="black"/>
<path d="M124.93 32.0515V26.4149H125.668V31.9317C125.668 32.1792 125.724 32.3628 125.845 32.4746C125.965 32.5864 126.166 32.6423 126.439 32.6423H126.865V33.281H126.311C125.387 33.281 124.93 32.8738 124.93 32.0435V32.0515Z" fill="black"/>
<path d="M128.912 33.0975C128.47 32.8979 128.133 32.6185 127.9 32.2512C127.667 31.884 127.547 31.4529 127.547 30.9579V30.7663C127.547 30.2633 127.667 29.8322 127.9 29.4569C128.133 29.0817 128.47 28.8022 128.912 28.6027C129.345 28.4031 129.867 28.3073 130.461 28.3073C131.055 28.3073 131.553 28.4031 131.987 28.6106C132.42 28.8102 132.757 29.0976 132.99 29.4649C133.223 29.8322 133.343 30.2713 133.343 30.7663V30.9579C133.343 31.4529 133.223 31.884 132.99 32.2512C132.757 32.6185 132.42 32.9059 131.987 33.0975C131.553 33.2971 131.047 33.3929 130.461 33.3929C129.875 33.3929 129.361 33.2971 128.92 33.0975H128.912ZM132.011 32.2512C132.388 31.9319 132.581 31.5008 132.581 30.9579V30.7663C132.581 30.2154 132.388 29.7763 132.011 29.4569C131.633 29.1376 131.111 28.9779 130.445 28.9779C129.779 28.9779 129.241 29.1376 128.864 29.4489C128.486 29.7683 128.302 30.1994 128.302 30.7583V30.9499C128.302 31.4928 128.494 31.9239 128.88 32.2433C129.265 32.5626 129.787 32.7143 130.445 32.7143C131.103 32.7143 131.625 32.5546 132.011 32.2433V32.2512Z" fill="black"/>
<path d="M138.415 28.4188V29.0735H137.355C136.97 29.0735 136.633 29.1453 136.336 29.2811C136.039 29.4168 135.806 29.6164 135.629 29.8639V33.2889H134.891V28.4188H135.573L135.605 29.0815C135.822 28.8659 136.087 28.6983 136.408 28.5865C136.721 28.4747 137.066 28.4188 137.444 28.4188H138.415Z" fill="black"/>
<path d="M144.503 31.0935H139.622C139.638 31.5965 139.838 31.9957 140.216 32.2911C140.593 32.5785 141.091 32.7222 141.733 32.7222C142.319 32.7222 142.785 32.6184 143.154 32.4029C143.515 32.1953 143.708 31.9159 143.732 31.5646H144.519C144.479 32.1314 144.214 32.5785 143.716 32.9059C143.218 33.2332 142.56 33.3929 141.741 33.3929C141.155 33.3929 140.649 33.2971 140.224 33.0975C139.79 32.8979 139.461 32.6184 139.228 32.2512C138.995 31.8839 138.875 31.4528 138.875 30.9658V30.7502C138.875 30.2552 138.995 29.8241 139.228 29.4569C139.461 29.0896 139.798 28.8022 140.224 28.6106C140.657 28.411 141.163 28.3152 141.741 28.3152C142.319 28.3152 142.793 28.411 143.218 28.6026C143.644 28.7942 143.965 29.0736 144.19 29.4329C144.415 29.7922 144.527 30.2233 144.527 30.7183V31.0935H144.503ZM140.248 29.377C139.879 29.6405 139.678 30.0078 139.63 30.4788H143.732C143.692 30.0157 143.491 29.6485 143.138 29.377C142.777 29.1136 142.311 28.9778 141.717 28.9778C141.123 28.9778 140.617 29.1136 140.256 29.377H140.248Z" fill="black"/>
<path d="M149.583 28.4188V29.0735H148.523C148.138 29.0735 147.801 29.1453 147.504 29.2811C147.207 29.4168 146.974 29.6164 146.797 29.8639V33.2889H146.059V28.4188H146.741L146.773 29.0815C146.99 28.8659 147.255 28.6983 147.576 28.5865C147.889 28.4747 148.234 28.4188 148.612 28.4188H149.583Z" fill="black"/>
<path d="M24.3349 9.02612H0.25V32.9775H24.3349V9.02612Z" fill="#313131"/>
<path d="M24.3339 9.02612H8.27734V24.9937H24.3339V9.02612Z" fill="#707070"/>
<path opacity="0.5" d="M29.33 5.03442H13.2734V21.002H29.33V5.03442Z" fill="#A0A0A0"/>
</g>
<defs>
<clipPath id="clip0_6795_156013">
<rect width="149.333" height="40" fill="white" transform="translate(0.25)"/>
</clipPath>
</defs>
</svg>
