<svg width="135" height="40" viewBox="0 0 135 40" fill="none" xmlns="http://www.w3.org/2000/svg">
<path d="M55.2635 19.7285H61.4268V27.7851C60.6105 28.0561 59.7668 28.2688 58.8853 28.4265C58.0073 28.5843 57.0127 28.6666 55.898 28.6666C54.3546 28.6666 53.041 28.3614 51.964 27.7509C50.887 27.1404 50.0673 26.2417 49.5083 25.0516C48.9492 23.8614 48.668 22.3969 48.668 20.6614C48.668 19.0323 48.9801 17.6227 49.6077 16.4325C50.2354 15.2424 51.1511 14.3197 52.3619 13.6681C53.5692 13.0164 55.044 12.6906 56.7897 12.6906C57.6129 12.6906 58.4223 12.7797 59.2249 12.9581C60.024 13.1364 60.7512 13.3662 61.4028 13.6475L60.3087 16.285C59.8354 16.0449 59.2935 15.8425 58.683 15.6779C58.0725 15.5167 57.4345 15.4344 56.7692 15.4344C55.8122 15.4344 54.9822 15.654 54.2757 16.093C53.5692 16.532 53.0238 17.1459 52.6397 17.9382C52.2521 18.727 52.06 19.6565 52.06 20.7266C52.06 21.7384 52.1972 22.637 52.475 23.4224C52.7529 24.2044 53.1884 24.8184 53.7818 25.2608C54.3752 25.7033 55.1537 25.9262 56.1106 25.9262C56.5771 25.9262 56.9749 25.9022 57.2973 25.8576C57.6197 25.813 57.9216 25.765 58.2063 25.7135V22.4724H55.2635V19.7285Z" fill="black"/>
<path d="M65.1289 28.454V12.9136H68.4249V25.7307H74.7289V28.4505H65.1323L65.1289 28.454Z" fill="black"/>
<path d="M86.9385 28.454L85.8135 24.7567H80.1475L79.0225 28.454H75.4727L80.9569 12.8518H84.9835L90.4883 28.454H86.9385ZM85.0247 21.9923L83.8997 18.3773C83.8277 18.1372 83.7351 17.8251 83.6184 17.4478C83.5018 17.0671 83.3852 16.6829 83.2686 16.2885C83.152 15.894 83.0594 15.5545 82.9873 15.263C82.9153 15.5545 82.8193 15.9147 82.6958 16.3434C82.5723 16.7721 82.4523 17.1768 82.3391 17.5609C82.2259 17.9451 82.1436 18.2161 82.0956 18.3807L80.9809 21.9957H85.0315L85.0247 21.9923Z" fill="black"/>
<path d="M102.569 28.4539H91.0039V26.3172L98.4535 15.6368H91.2028V12.917H102.363V15.0435L94.9242 25.7376H102.566V28.4574L102.569 28.4539Z" fill="black"/>
<path d="M119.156 20.6614C119.156 21.8584 119.008 22.9491 118.71 23.93C118.411 24.911 117.962 25.7582 117.355 26.4647C116.748 27.1747 115.983 27.7166 115.054 28.0973C114.124 28.4746 113.026 28.6666 111.757 28.6666C110.488 28.6666 109.391 28.478 108.461 28.0973C107.532 27.7166 106.767 27.1747 106.16 26.4647C105.553 25.7547 105.104 24.9075 104.805 23.9232C104.507 22.9388 104.359 21.8448 104.359 20.6375C104.359 19.0289 104.623 17.6261 105.152 16.4325C105.68 15.239 106.493 14.3129 107.59 13.6544C108.688 12.9958 110.084 12.6666 111.778 12.6666C113.472 12.6666 114.851 12.9958 115.938 13.6544C117.026 14.3129 117.835 15.2424 118.363 16.4394C118.891 17.6364 119.156 19.0426 119.156 20.658V20.6614ZM107.813 20.6614C107.813 21.7453 107.95 22.6782 108.221 23.4636C108.496 24.2456 108.921 24.8493 109.501 25.2712C110.08 25.693 110.831 25.9022 111.754 25.9022C112.677 25.9022 113.448 25.693 114.028 25.2712C114.608 24.8493 115.033 24.2456 115.297 23.4636C115.561 22.6816 115.695 21.7487 115.695 20.6614C115.695 19.0323 115.39 17.7495 114.779 16.8132C114.169 15.8769 113.167 15.4105 111.771 15.4105C110.842 15.4105 110.087 15.6231 109.501 16.0415C108.918 16.4634 108.489 17.067 108.214 17.849C107.94 18.631 107.806 19.5708 107.806 20.6614H107.813Z" fill="black"/>
<path d="M134.873 28.4538H131.131L127.06 21.9064L125.667 22.9044V28.4538H122.371V12.9135H125.667V20.0234C125.887 19.7182 126.103 19.4129 126.315 19.1076C126.528 18.8024 126.744 18.4971 126.964 18.1919L131.172 12.91H134.828L129.409 19.7868L134.873 28.4504V28.4538Z" fill="black"/>
<path d="M26.5514 17.5901L28.5941 15.5249L28.096 14.6611L25.8086 17.3678C26.059 17.4354 26.3066 17.5085 26.5514 17.5873V17.5901Z" fill="black"/>
<path d="M23.7642 16.9345L26.3892 11.7068L25.7083 10.5251L23.1367 16.8473C23.3477 16.8726 23.5559 16.9008 23.7642 16.9345Z" fill="black"/>
<path d="M25.0949 17.1907L27.5681 13.7496L27.0026 12.7733L24.4141 17.0472C24.642 17.0922 24.8699 17.1401 25.0949 17.1907Z" fill="black"/>
<path d="M29.8482 19.0307L30.4418 18.7241L29.9916 17.9419L28.9844 18.5693C29.2798 18.7156 29.5668 18.8675 29.851 19.0307H29.8482Z" fill="black"/>
<path d="M28.1373 18.181L29.5301 17.1541L29.0658 16.3522L27.3242 17.8575C27.5971 17.9588 27.87 18.0657 28.1345 18.181H28.1373Z" fill="black"/>
<path d="M18.9306 16.7995L17.5069 7.67505L16.5391 9.35194L18.2666 16.8755C18.4861 16.8474 18.7083 16.8192 18.9306 16.7995Z" fill="black"/>
<path d="M17.6457 16.9712L15.7212 10.77L15.0234 11.9799L17.0549 17.0809C17.2518 17.0415 17.4459 17.005 17.6429 16.974L17.6457 16.9712Z" fill="black"/>
<path d="M20.3972 16.7123L20.0596 3.25488L18.6641 5.6689L19.6404 16.7432C19.8936 16.7292 20.144 16.7179 20.3972 16.7123Z" fill="black"/>
<path d="M20.818 16.7095C20.9502 16.7095 21.0797 16.7095 21.2091 16.7151C21.2541 16.7151 21.2991 16.7151 21.3413 16.7179L22.9873 5.82087L21.6424 3.49402L21.5636 5.91937L20.7617 16.7123C20.7786 16.7123 20.7983 16.7123 20.8152 16.7123L20.818 16.7095Z" fill="black"/>
<path d="M22.5301 16.7855L24.9357 9.19444L24.0438 7.64978L21.9336 16.7433C22.1334 16.7546 22.3303 16.7686 22.5301 16.7883V16.7855Z" fill="black"/>
<path d="M34.7801 26.2477L34.4678 25.7046C34.3524 25.8537 34.2343 26 34.1133 26.1463L34.7829 26.2477H34.7801Z" fill="black"/>
<path d="M14.3518 25.6933C14.2674 25.5329 14.1914 25.3697 14.1211 25.2037L12.582 25.4344C12.8212 25.606 13.066 25.772 13.3192 25.9296L14.3518 25.6933Z" fill="black"/>
<path d="M31.5096 28.6194C31.2226 28.836 30.93 29.0442 30.6289 29.244L38.929 33.4307L37.5869 31.1038L31.5096 28.6222V28.6194Z" fill="black"/>
<path d="M14.866 26.5346C14.7731 26.4052 14.6859 26.2729 14.6043 26.135L14.0078 26.3208C14.2104 26.4277 14.4158 26.5317 14.624 26.6302L14.8688 26.5318L14.866 26.5346Z" fill="black"/>
<path d="M13.5702 22.9163H13.5618C13.241 23.0907 12.9315 23.2736 12.6445 23.4593L13.6405 23.5324C13.6068 23.3299 13.5843 23.1217 13.5702 22.9135V22.9163Z" fill="black"/>
<path d="M13.7609 24.1121H11.7408C11.6845 24.1599 11.6282 24.2049 11.5748 24.2499C11.5213 24.2978 11.451 24.3569 11.375 24.4216C11.451 24.4919 11.5213 24.5566 11.5748 24.6073C11.6564 24.6832 11.7408 24.7564 11.8252 24.8295L13.9269 24.6748C13.865 24.4891 13.8116 24.3006 13.7637 24.1121H13.7609Z" fill="black"/>
<path d="M29.9047 24.7029L27.6173 24.5369C27.5554 24.7338 27.485 24.928 27.4062 25.1193L29.0719 25.3725C29.2154 25.2656 29.3533 25.1559 29.4911 25.0433C29.5952 24.9589 29.7472 24.8323 29.9047 24.6973V24.7029Z" fill="black"/>
<path d="M27.7773 23.9404L29.6203 23.9292C29.5949 23.9067 29.5696 23.8898 29.5499 23.8729C29.3389 23.7013 29.0603 23.4902 28.7283 23.2651L27.8843 23.3355C27.8561 23.5381 27.8224 23.7407 27.7773 23.9404Z" fill="black"/>
<path d="M33.2667 27.0804C32.9882 27.3646 32.6956 27.6403 32.3945 27.902L36.4968 29.2104L35.5795 27.6206L33.2696 27.0804H33.2667Z" fill="black"/>
<path d="M27.1614 25.6511C27.0741 25.8199 26.9841 25.9831 26.8828 26.1463L27.5328 26.3545C27.7888 26.2167 28.042 26.0703 28.2868 25.9156L27.1614 25.6511Z" fill="black"/>
<path d="M26.5779 26.6049C26.4991 26.7118 26.4203 26.8158 26.3359 26.9199C26.5019 26.8524 26.6651 26.7793 26.8255 26.7061L26.5779 26.6049Z" fill="black"/>
<path d="M31.0579 19.796L30.8919 19.509L30.7344 19.5766C30.8441 19.6497 30.951 19.72 31.0579 19.796Z" fill="black"/>
<path d="M21.5664 32.1196L22.5202 37.9972H23.6653L22.2163 32.0802C21.9997 32.0971 21.7831 32.1111 21.5664 32.1196Z" fill="black"/>
<path d="M16.1635 31.5483L13.0742 37.9971H14.4135L16.8641 31.7172C16.6306 31.6665 16.3943 31.6102 16.1635 31.5512V31.5483Z" fill="black"/>
<path d="M19.1871 32.0689L18.1602 37.9971H19.294L19.868 32.1138C19.6401 32.1026 19.415 32.0857 19.1871 32.066V32.0689Z" fill="black"/>
<path d="M17.6001 31.8607L15.6953 37.9972H16.9389L18.3739 31.9789C18.115 31.9451 17.8562 31.9057 17.6001 31.8607Z" fill="black"/>
<path d="M22.8789 32.0155L24.8569 37.9972H26.1117L23.557 31.9254C23.3319 31.9592 23.104 31.9901 22.8789 32.0155Z" fill="black"/>
<path d="M20.7714 32.1365C20.6054 32.1365 20.4394 32.1365 20.2734 32.1309L20.296 37.9972H21.4017L20.9178 32.1365C20.8671 32.1365 20.8193 32.1365 20.7686 32.1365H20.7714Z" fill="black"/>
<path d="M40.6407 36.3934L29.7577 29.7815C29.4763 29.9419 29.1921 30.0966 28.9023 30.2429L39.6587 38H41.5663L40.6407 36.3962V36.3934Z" fill="black"/>
<path d="M27.25 30.9632L34.3431 37.9971H36.7543L28.0659 30.6311C27.7986 30.7493 27.5257 30.8591 27.25 30.9632Z" fill="black"/>
<path d="M25.7266 31.4612L30.5237 37.9972H32.3301L26.4975 31.2277C26.2443 31.3121 25.9854 31.3881 25.7266 31.4612Z" fill="black"/>
<path d="M24.2578 31.8045L27.4569 37.9973H28.9143L24.9781 31.6526C24.7389 31.7089 24.4998 31.7595 24.2578 31.8073V31.8045Z" fill="black"/>
<path d="M15.3633 17.5001L13.3966 14.7935L12.9492 15.5672L14.7809 17.683C14.9722 17.6183 15.1663 17.5564 15.3633 17.4973V17.5001Z" fill="black"/>
<path d="M10.8281 19.5962C10.98 19.4977 11.1348 19.3993 11.2895 19.3036L10.9013 19.1179L10.4961 19.8185C10.6058 19.7425 10.7156 19.6666 10.8281 19.5934V19.5962Z" fill="black"/>
<path d="M12.8262 18.4736L11.7177 17.7026L11.3125 18.4032L12.0806 18.8506C12.3254 18.7184 12.573 18.5945 12.8262 18.4736Z" fill="black"/>
<path d="M14.1722 17.9024L12.5291 16.2987L12.1211 17.0049L13.5223 18.1613C13.7361 18.0713 13.9527 17.984 14.1722 17.9024Z" fill="black"/>
<path d="M15.9592 17.3313C16.1337 17.2863 16.3109 17.2412 16.4854 17.2018L14.4174 13.0293L13.8828 13.9577L15.9283 17.3425C15.9283 17.3425 15.9508 17.3369 15.9592 17.334V17.3313Z" fill="black"/>
<path d="M7.43603 26.2053L6.74952 26.3067L6.00391 27.5953L8.26323 27.0804C7.97906 26.799 7.70333 26.5064 7.43603 26.2025V26.2053Z" fill="black"/>
<path d="M13.5275 30.6396L6.33594 37.9972H8.34203L14.1859 30.9097C13.9636 30.8253 13.7469 30.7353 13.5303 30.6396H13.5275Z" fill="black"/>
<path d="M14.8353 31.1488L10.0859 37.9971H11.6475L15.4937 31.3598C15.2742 31.2923 15.0548 31.222 14.8381 31.1488H14.8353Z" fill="black"/>
<path d="M9.09364 27.8513L5.15179 29.0781L4.14453 30.8253L9.9124 28.5181C9.63386 28.3043 9.36094 28.082 9.09364 27.8513Z" fill="black"/>
<path d="M12.1563 29.97L1.08203 37.9944H3.96597L12.8541 30.3273C12.6178 30.212 12.3842 30.0938 12.1563 29.9672V29.97Z" fill="black"/>
<path d="M10.7047 29.0894L2.90827 32.9637L1.32422 35.7041L11.4672 29.5761C11.2084 29.4185 10.9523 29.2582 10.7047 29.0865V29.0894Z" fill="black"/>
<path d="M33.5615 24.3878C27.8753 32.2799 14.6908 33.0959 7.92969 24.4329C9.9808 21.5489 13.0139 19.6722 16.3423 18.7972C19.1981 18.046 22.2678 18.0319 25.1151 18.755C28.4802 19.6075 31.5358 21.487 33.5615 24.3878Z" fill="white"/>
<path d="M25.1151 18.755C22.2678 18.0319 19.1953 18.046 16.3423 18.7972C13.0139 19.6722 9.9808 21.5489 7.92969 24.4329C14.6908 33.0959 27.8753 32.2799 33.5615 24.3878C31.5358 21.487 28.4802 19.6075 25.1151 18.755ZM30.4525 26.2166C24.9238 30.7718 15.7881 30.5439 10.5435 25.7243C9.13672 24.43 9.13672 24.3428 10.5801 23.102C11.8715 21.9906 13.8129 20.9974 15.4167 20.4094C15.1888 21.0256 15.0622 21.6896 15.0622 22.3846C15.0622 25.5217 17.6056 28.0652 20.7428 28.0652C23.88 28.0652 26.4235 25.5217 26.4235 22.3846C26.4235 21.6418 26.28 20.9327 26.0211 20.2828C27.94 20.8483 29.5409 21.9259 30.4919 22.694C32.5402 24.3456 32.5008 24.5228 30.4497 26.2138L30.4525 26.2166Z" fill="black"/>
<path d="M23.7266 22.9219C23.7266 24.5622 22.3958 25.8931 20.7554 25.8931C19.1151 25.8931 17.7843 24.5622 17.7843 22.9219C17.7843 22.7306 17.8012 22.5449 17.8377 22.362C17.2441 22.1679 16.8164 21.608 16.8164 20.9496C16.8164 20.128 17.4804 19.464 18.302 19.464C18.845 19.464 19.3205 19.7566 19.5793 20.1927C19.9395 20.0352 20.339 19.9507 20.7554 19.9507C22.3958 19.9507 23.7266 21.2816 23.7266 22.9219Z" fill="white"/>
</svg>
