<svg width="137" height="40" viewBox="0 0 137 40" fill="none" xmlns="http://www.w3.org/2000/svg">
<path d="M28.1981 2H7.04952C3.15618 2 0 5.16385 0 9.06667V30.2667C0 34.1695 3.15618 37.3333 7.04952 37.3333H28.1981C32.0914 37.3333 35.2476 34.1695 35.2476 30.2667V9.06667C35.2476 5.16385 32.0914 2 28.1981 2Z" fill="#5C5C5C"/>
<path d="M5.32031 17.2V13.0785C5.32031 12.4829 5.80995 12 6.41395 12H7.25054C9.80849 12 11.8821 14.045 11.8821 16.5676V18.518C11.8821 21.6452 14.4527 24.1803 17.6237 24.1803C20.7946 24.1803 23.3652 21.6452 23.3652 18.518V16.5676C23.3652 14.045 25.4389 12 27.9968 12H28.8335C29.4374 12 29.9271 12.4829 29.9271 13.0785V17.2C29.9271 23.9011 24.4187 29.3333 17.6237 29.3333C10.8287 29.3333 5.32031 23.9011 5.32031 17.2Z" fill="white"/>
<path d="M75.1523 5.61907V4.90478C75.1523 4.77328 75.2565 4.66669 75.3851 4.66669H75.727C76.181 4.66669 76.5489 5.0431 76.5489 5.50742V5.95625C76.5489 6.48225 76.9658 6.90864 77.48 6.90864C77.9941 6.90864 78.4111 6.48225 78.4111 5.95625V5.50742C78.4111 5.0431 78.7791 4.66669 79.233 4.66669H79.5749C79.7034 4.66669 79.8077 4.77328 79.8077 4.90478V5.61907C79.8077 6.93403 78.7655 8.00002 77.48 8.00002C76.1944 8.00002 75.1523 6.93403 75.1523 5.61907Z" fill="#5C5C5C"/>
<path d="M50.3354 34.6667C48.7283 34.6667 47.4074 34.4583 46.3728 34.0418C45.3381 33.6252 44.5236 33.1209 43.9292 32.5289C43.3349 31.9369 42.9056 31.3449 42.6414 30.7529C42.3993 30.1829 42.2672 29.7333 42.2451 29.4045C42.2232 29.1852 42.2892 28.9878 42.4433 28.8124C42.6195 28.659 42.8175 28.5822 43.0377 28.5822H45.9105C46.1306 28.5822 46.3067 28.626 46.4388 28.7138C46.5709 28.8235 46.681 29.0098 46.7691 29.2729C46.9012 29.5579 47.0773 29.8648 47.2974 30.1938C47.5176 30.5226 47.8477 30.7968 48.288 31.016C48.7504 31.2572 49.3777 31.3778 50.1702 31.3778C51.0068 31.3778 51.7112 31.2572 52.2836 31.016C52.856 30.7748 53.2853 30.3692 53.5714 29.7991C53.8796 29.229 54.0338 28.4397 54.0338 27.4311V25.1947C53.5054 25.8305 52.8229 26.3458 51.9864 26.7404C51.1719 27.1351 50.1593 27.3325 48.9484 27.3325C47.7597 27.3325 46.736 27.146 45.8776 26.7733C45.0189 26.3787 44.3035 25.8415 43.7311 25.1618C43.1588 24.4601 42.7185 23.6379 42.4103 22.6951C42.124 21.7522 41.959 20.7109 41.915 19.5707C41.8929 18.9787 41.8929 18.3867 41.915 17.7947C41.959 16.6984 42.124 15.6788 42.4103 14.736C42.6964 13.7932 43.1257 12.971 43.6981 12.2693C44.2925 11.5458 45.0189 10.9867 45.8776 10.592C46.736 10.1973 47.7597 10 48.9484 10C50.2033 10 51.26 10.2412 52.1185 10.7236C52.9771 11.184 53.6815 11.765 54.2318 12.4667V11.1511C54.2318 10.9099 54.3089 10.7126 54.4631 10.5591C54.6171 10.4056 54.8042 10.3289 55.0243 10.3289H57.6991C57.9192 10.3289 58.1063 10.4056 58.2605 10.5591C58.4145 10.7126 58.4916 10.9099 58.4916 11.1511L58.5247 27.0035C58.5247 28.5822 58.2274 29.9416 57.6331 31.0817C57.0387 32.2219 56.1362 33.0989 54.9253 33.7129C53.7365 34.3488 52.2065 34.6667 50.3354 34.6667ZM50.1702 23.8462C51.0729 23.8462 51.7993 23.6489 52.3497 23.2543C52.9 22.8596 53.3072 22.3443 53.5714 21.7084C53.8356 21.0726 53.9897 20.4258 54.0338 19.768C54.0557 19.483 54.0668 19.1211 54.0668 18.6826C54.0668 18.2441 54.0557 17.8933 54.0338 17.6302C53.9897 16.9505 53.8356 16.3037 53.5714 15.6898C53.3072 15.0539 52.9 14.5387 52.3497 14.144C51.7993 13.7274 51.0729 13.5191 50.1702 13.5191C49.2677 13.5191 48.5412 13.7274 47.9909 14.144C47.4405 14.5387 47.0442 15.0649 46.8021 15.7227C46.582 16.3805 46.4499 17.104 46.4059 17.8933C46.3619 18.4195 46.3619 18.9568 46.4059 19.5049C46.4499 20.2723 46.582 20.9958 46.8021 21.6756C47.0442 22.3334 47.4405 22.8596 47.9909 23.2543C48.5412 23.6489 49.2677 23.8462 50.1702 23.8462Z" fill="black"/>
<path d="M62.6481 27.3333C62.4257 27.3333 62.2368 27.2555 62.0811 27.1C61.9255 26.9444 61.8477 26.7556 61.8477 26.5333V10.8333C61.8477 10.5889 61.9255 10.3889 62.0811 10.2333C62.2368 10.0778 62.4257 10 62.6481 10H65.3495C65.5718 10 65.7608 10.0778 65.9164 10.2333C66.0942 10.3889 66.1832 10.5889 66.1832 10.8333V12.2C66.6946 11.4889 67.3505 10.9445 68.151 10.5667C68.9735 10.1889 69.9184 10 70.9857 10H72.3531C72.5977 10 72.7867 10.0778 72.9201 10.2333C73.0756 10.3889 73.1535 10.5778 73.1535 10.8V13.2C73.1535 13.4222 73.0756 13.6111 72.9201 13.7667C72.7867 13.9222 72.5977 14 72.3531 14H69.7518C68.6846 14 67.8508 14.3 67.2504 14.9C66.6723 15.5001 66.3833 16.3222 66.3833 17.3667V26.5333C66.3833 26.7556 66.3055 26.9444 66.1499 27.1C65.9942 27.2555 65.7942 27.3333 65.5495 27.3333H62.6481Z" fill="black"/>
<path d="M76.5475 27.3333C76.3444 27.3333 76.1718 27.2555 76.0296 27.1C75.8875 26.9444 75.8164 26.7556 75.8164 26.5333V10.8C75.8164 10.5778 75.8875 10.3889 76.0296 10.2333C76.1718 10.0778 76.3444 10 76.5475 10H79.0756C79.2991 10 79.4717 10.0778 79.5935 10.2333C79.7356 10.3889 79.8067 10.5778 79.8067 10.8V26.5333C79.8067 26.7556 79.7356 26.9444 79.5935 27.1C79.4717 27.2555 79.2991 27.3333 79.0756 27.3333H76.5475Z" fill="black"/>
<path d="M83.9357 27.3333C83.7127 27.3333 83.5231 27.257 83.367 27.1044C83.2109 26.9518 83.1328 26.7665 83.1328 26.5484V11.1119C83.1328 10.8939 83.2109 10.7086 83.367 10.556C83.5231 10.4034 83.7127 10.327 83.9357 10.327H86.6788C86.9018 10.327 87.0915 10.4034 87.2475 10.556C87.4037 10.7086 87.4816 10.8939 87.4816 11.1119V12.4528C88.0615 11.7551 88.7975 11.1774 89.6896 10.7195C90.6039 10.2398 91.7303 10 93.0684 10C94.4288 10 95.6108 10.3052 96.6144 10.9157C97.618 11.5044 98.3874 12.3438 98.9227 13.434C99.4802 14.5241 99.759 15.8323 99.759 17.3585V26.5484C99.759 26.7665 99.6809 26.9518 99.5248 27.1044C99.3687 27.257 99.1792 27.3333 98.9562 27.3333H96.0123C95.7893 27.3333 95.5996 27.257 95.4435 27.1044C95.2874 26.9518 95.2094 26.7665 95.2094 26.5484V17.5548C95.2094 16.2902 94.8859 15.2981 94.2392 14.5786C93.6148 13.8591 92.7003 13.4994 91.496 13.4994C90.3363 13.4994 89.4109 13.8591 88.7194 14.5786C88.0281 15.2981 87.6824 16.2902 87.6824 17.5548V26.5484C87.6824 26.7665 87.6043 26.9518 87.4483 27.1044C87.2921 27.257 87.1026 27.3333 86.8796 27.3333H83.9357Z" fill="black"/>
<path d="M110.398 28C108.008 28 106.112 27.2889 104.712 25.8667C103.312 24.4444 102.558 22.4223 102.45 19.8C102.429 19.5778 102.418 19.3001 102.418 18.9667C102.418 18.6111 102.429 18.3334 102.45 18.1333C102.536 16.4667 102.903 15.0222 103.549 13.8C104.217 12.5778 105.132 11.6444 106.295 11C107.458 10.3333 108.826 10 110.398 10C112.143 10 113.608 10.3778 114.793 11.1333C115.977 11.8667 116.871 12.9 117.474 14.2334C118.078 15.5445 118.379 17.0666 118.379 18.8V19.5C118.379 19.7222 118.304 19.9111 118.153 20.0667C118.002 20.2222 117.808 20.3 117.571 20.3H106.844C106.844 20.3 106.844 20.3334 106.844 20.4C106.844 20.4667 106.844 20.5222 106.844 20.5667C106.866 21.3445 107.006 22.0667 107.265 22.7334C107.544 23.3778 107.943 23.9 108.46 24.3C108.998 24.7 109.634 24.9001 110.366 24.9001C110.969 24.9001 111.476 24.8112 111.885 24.6334C112.294 24.4334 112.628 24.2111 112.886 23.9668C113.145 23.7222 113.328 23.5223 113.436 23.3667C113.629 23.1 113.78 22.9445 113.888 22.9001C114.017 22.8334 114.2 22.8 114.437 22.8H117.216C117.431 22.8 117.604 22.8667 117.733 23.0001C117.884 23.1334 117.948 23.3001 117.927 23.5C117.905 23.8556 117.722 24.2889 117.378 24.8C117.054 25.3112 116.581 25.8111 115.956 26.3C115.331 26.7889 114.545 27.2 113.597 27.5334C112.671 27.8445 111.605 28 110.398 28ZM106.844 17.5H113.985V17.4C113.985 16.5333 113.845 15.7778 113.565 15.1333C113.285 14.4889 112.876 13.9778 112.337 13.6C111.799 13.2222 111.152 13.0333 110.398 13.0333C109.645 13.0333 108.998 13.2222 108.46 13.6C107.921 13.9778 107.512 14.4889 107.232 15.1333C106.974 15.7778 106.844 16.5333 106.844 17.4V17.5Z" fill="black"/>
<path d="M120.44 27.3333C120.24 27.3333 120.062 27.2666 119.907 27.1333C119.774 26.9778 119.707 26.8 119.707 26.5999C119.707 26.5333 119.718 26.4555 119.74 26.3666C119.785 26.2777 119.851 26.1667 119.94 26.0334L125.604 18.4334L120.34 11.3C120.273 11.1889 120.218 11.0889 120.173 11C120.151 10.9111 120.14 10.8222 120.14 10.7333C120.14 10.5333 120.207 10.3667 120.34 10.2333C120.496 10.0778 120.673 10 120.873 10H123.772C124.038 10 124.238 10.0667 124.371 10.2C124.505 10.3333 124.605 10.4556 124.671 10.5667L128.436 15.5667L132.201 10.5667C132.29 10.4556 132.39 10.3333 132.501 10.2C132.634 10.0667 132.834 10 133.101 10H135.867C136.066 10 136.233 10.0778 136.365 10.2333C136.521 10.3667 136.599 10.5222 136.599 10.7C136.599 10.8111 136.577 10.9111 136.532 11C136.51 11.0889 136.465 11.1889 136.4 11.3L131.068 18.5L136.766 26.0334C136.855 26.1667 136.909 26.2777 136.933 26.3666C136.976 26.4555 136.998 26.5333 136.998 26.5999C136.998 26.8 136.922 26.9778 136.766 27.1333C136.632 27.2666 136.465 27.3333 136.266 27.3333H133.234C132.99 27.3333 132.801 27.2778 132.668 27.1666C132.534 27.0333 132.423 26.911 132.334 26.8L128.336 21.5L124.272 26.8C124.183 26.911 124.072 27.0333 123.938 27.1666C123.827 27.2778 123.638 27.3333 123.372 27.3333H120.44Z" fill="black"/>
</svg>
