<svg width="175" height="40" viewBox="0 0 175 40" fill="none" xmlns="http://www.w3.org/2000/svg">
<path d="M43.8125 11.1708H45.57V17.5911L52.4625 11.1708H54.7781L46.4987 18.8479L55.4236 28.2819H53.1289L45.5742 20.3113V28.2819H43.8167V11.1708H43.8125Z" fill="#333333"/>
<path d="M57.8772 16.0639L60.5809 23.0044C60.8596 23.7793 61.1694 24.7016 61.3729 25.4091H61.426C61.6561 24.7058 61.9084 23.8088 62.2181 22.958L64.6651 16.0639H67.0369L63.6695 24.4363C62.0632 28.4666 60.9658 30.5302 59.4348 31.7894C58.3374 32.7117 57.24 33.0739 56.6825 33.1708L56.1205 31.3767C56.6825 31.2083 57.4214 30.8671 58.0852 30.3323C58.6958 29.869 59.4613 29.0478 59.9702 27.9528C60.072 27.7338 60.1472 27.5654 60.1472 27.4432C60.1472 27.3211 60.0941 27.1527 59.9924 26.8831L55.4258 16.0597H57.8728L57.8772 16.0639Z" fill="#333333"/>
<path d="M68.3581 20.0876C68.3581 18.6128 68.3058 17.423 68.2578 16.3241H70.2424L70.3428 18.2988H70.3951C71.298 16.8942 72.733 16.0597 74.7176 16.0597C77.6575 16.0597 79.8689 18.4186 79.8689 21.9177C79.8689 26.0613 77.2039 28.1063 74.3382 28.1063C72.7287 28.1063 71.3198 27.4411 70.5914 26.2968H70.539V32.5597H68.3538V20.0835L68.3581 20.0876ZM70.5434 23.1571C70.5434 23.4669 70.5957 23.752 70.6437 24.0122C71.045 25.4664 72.3797 26.4662 73.9631 26.4662C76.301 26.4662 77.6575 24.6567 77.6575 22.0128C77.6575 19.7034 76.3751 17.7287 74.0372 17.7287C72.528 17.7287 71.1192 18.7533 70.6961 20.3231C70.6219 20.5834 70.5434 20.8932 70.5434 21.1782V23.153V23.1571Z" fill="#333333"/>
<path d="M90.2159 27.5805C89.6989 27.8703 88.56 28.2819 87.1023 28.2819C83.8333 28.2819 81.7031 25.8627 81.7031 22.28C81.7031 18.6973 83.9888 16.0597 87.526 16.0597C88.6922 16.0597 89.7223 16.3747 90.2587 16.6645L89.8117 18.3109C89.3413 18.0211 88.6028 17.7523 87.526 17.7523C85.0383 17.7523 83.6972 19.7389 83.6972 22.1834C83.6972 24.8924 85.3104 26.5641 87.4599 26.5641C88.5794 26.5641 89.318 26.2491 89.8777 25.9845L90.212 27.5805H90.2159Z" fill="#333333"/>
<path d="M101.753 20.8324H95.4153V26.5596H102.479V28.2818H93.3125V12.3929H102.118V14.1152H95.4195V19.1388H101.757V20.8365L101.753 20.8324Z" fill="black"/>
<path d="M104.312 15.4486H106.057V20.8552L112.341 15.4486H114.768L107.891 21.3204L115.312 28.2777H112.846L106.611 22.3472L106.062 22.8083V28.2819H104.317V15.4486H104.312Z" fill="black"/>
<path d="M125.656 27.5805C125.102 27.8703 123.882 28.2819 122.32 28.2819C118.817 28.2819 116.535 25.8627 116.535 22.28C116.535 18.6973 118.984 16.0597 122.774 16.0597C124.023 16.0597 125.127 16.3747 125.702 16.6645L125.223 18.3109C124.719 18.0211 123.928 17.7523 122.774 17.7523C120.109 17.7523 118.672 19.7389 118.672 22.1834C118.672 24.8924 120.4 26.5641 122.703 26.5641C123.903 26.5641 124.694 26.2491 125.294 25.9845L125.652 27.5805H125.656Z" fill="black"/>
<path d="M137.313 16.0597V28.2819H135.162V17.8258H129.66V28.2819H127.535V16.0597H137.313Z" fill="black"/>
<path d="M142.298 22.5564C142.346 25.4317 144.086 26.6137 146.1 26.6137C147.543 26.6137 148.413 26.3496 149.168 26.0101L149.509 27.5316C148.798 27.8711 147.586 28.2819 145.822 28.2819C142.409 28.2819 140.371 25.8886 140.371 22.3636C140.371 18.8386 142.342 16.0597 145.568 16.0597C149.187 16.0597 150.149 19.417 150.149 21.5672C150.149 22.0031 150.101 22.3385 150.081 22.5564H142.298ZM148.206 21.0349C148.23 19.6811 147.678 17.5812 145.413 17.5812C143.375 17.5812 142.481 19.5637 142.322 21.0349H148.206Z" fill="black"/>
<path d="M152.689 20.0876C152.689 18.6128 152.639 17.423 152.594 16.3241H154.474L154.569 18.2988H154.619C155.474 16.8942 156.833 16.0597 158.714 16.0597C161.499 16.0597 163.594 18.4186 163.594 21.9177C163.594 26.0613 161.069 28.1063 158.354 28.1063C156.829 28.1063 155.495 27.4411 154.804 26.2968H154.755V32.5597H152.685V20.0835L152.689 20.0876ZM154.759 23.1571C154.759 23.4669 154.809 23.752 154.854 24.0122C155.234 25.4664 156.499 26.4662 157.999 26.4662C160.214 26.4662 161.499 24.6567 161.499 22.0128C161.499 19.7034 160.284 17.7287 158.069 17.7287C156.639 17.7287 155.304 18.7533 154.904 20.3231C154.833 20.5834 154.759 20.8932 154.759 21.1782V23.153V23.1571Z" fill="black"/>
<path d="M173.979 16.0597V17.8258H170.422V28.2819H168.373V17.8258H164.816V16.0597H173.983H173.979Z" fill="black"/>
<path d="M31.1223 17.3993C30.6356 15.4944 29.6508 13.6883 28.5291 12.0457C28.358 11.7948 26.5215 10.0381 25.7002 10.1788C24.6774 10.3575 24.3884 10.5894 24.4341 11.5552C27.974 13.3879 28.3086 15.905 28.4683 16.5324C26.6964 16.6046 24.6964 16.4792 22.723 16.6655C21.3808 16.7948 20.3276 17.0951 19.2667 17.6769C19.1945 17.7187 19.031 17.8594 18.9512 17.8556C18.8409 17.8556 18.6888 17.7035 18.609 17.6579C17.5557 17.0837 16.5139 16.7909 15.1793 16.6617C13.2059 16.4716 11.2059 16.6008 9.43404 16.5286C9.59373 15.9012 9.92454 13.3841 13.4683 11.5514C13.5139 10.5894 13.2249 10.3537 12.2021 10.175C11.3808 10.0343 9.54431 11.791 9.37321 12.0419C8.25534 13.6845 7.27054 15.4868 6.78005 17.3955C6.35419 19.0609 6.61275 21.2777 6.76484 22.0001C6.8599 22.4602 7.21731 23.3347 7.66978 23.5666C9.89412 24.7187 15.2363 24.3537 16.1565 23.9279C17.5823 23.2625 18.1489 22.0115 18.5405 20.9165C18.6432 20.6275 18.7877 20.3499 18.955 20.0077C19.1223 20.3499 19.2629 20.6237 19.3694 20.9165C19.761 22.0115 20.3276 23.2625 21.7534 23.9279C22.6698 24.3537 28.012 24.7187 30.2401 23.5666C30.6926 23.3347 31.05 22.4602 31.1451 22.0001C31.2972 21.2739 31.5557 19.0609 31.1299 17.3955L31.1223 17.3993ZM12.8409 22.4298C9.06903 22.4412 8.57472 22.1446 8.51008 18.7454C11.4264 18.7834 13.609 18.7263 16.5025 18.791C16.1071 22.2435 15.723 22.4183 12.8409 22.4259V22.4298ZM25.0652 22.4298C22.1831 22.4221 21.7991 22.2473 21.4036 18.7948C24.2972 18.7302 26.4797 18.7872 29.396 18.7492C29.3352 22.1484 28.8409 22.445 25.0652 22.4336V22.4298Z" fill="black"/>
<path d="M18.9492 38C9.02527 38 0.949219 29.9278 0.949219 20C0.949219 10.0722 9.02147 2 18.9492 2C28.877 2 36.9493 10.0722 36.9493 20C36.9493 29.9278 28.877 38 18.9492 38ZM18.9492 6.26996C11.3789 6.26996 5.21919 12.4297 5.21919 20C5.21919 27.5703 11.3789 33.73 18.9492 33.73C26.5196 33.73 32.6793 27.5703 32.6793 20C32.6793 12.4297 26.5196 6.26996 18.9492 6.26996Z" fill="black"/>
</svg>
