<svg width="132" height="40" viewBox="0 0 132 40" fill="none" xmlns="http://www.w3.org/2000/svg">
<path d="M16.0568 8H13.3527C11.4307 8 8.85327 9.82393 8.5113 12.7902L8.28331 14.1377H0.965749V16.4949H7.88118L7.33972 19.6727H0V22.0299H6.93759L6.53229 24.4187C6.51013 24.586 6.50696 24.7501 6.50063 24.9078C6.34864 27.9372 8.95142 29.2121 10.7151 29.2121H13.1152C15.0721 29.2121 17.6337 28.0477 18.3176 24.4219L19.9293 12.7902C19.9515 12.6261 19.9388 12.462 19.961 12.3074C20.2745 10.272 18.6723 8 16.0632 8H16.0568ZM15.4742 13.0648C15.471 13.0995 14.1538 23.6866 14.1538 23.6866C14.1032 24.0116 13.7865 25.6778 12.9443 25.6778H12.1495C11.3864 25.58 11.4117 24.8952 11.5732 23.9422C11.5795 23.9075 12.9316 13.1878 12.9316 13.1878C13.0361 12.6104 13.0804 11.5374 14.0905 11.5374H14.7206C15.851 11.5374 15.5344 12.5031 15.4742 13.0648Z" fill="black"/>
<path d="M31.3426 18.398L34.4415 29.2121H29.264L26.8254 19.5246L25.3659 29.2121H20.6055L23.8023 8H28.5628L27.1507 17.3643L32.4609 8H37.5752L31.3426 18.398Z" fill="black"/>
<path d="M49.0408 14.157C48.9636 13.8951 48.8338 13.6595 48.6917 13.4336C48.1788 12.5857 47.3662 11.967 46.4084 11.7346C46.1426 11.6724 45.8677 11.6364 45.5834 11.6364H42.9015C40.1981 11.6364 37.9457 13.702 37.4791 16.4224L37.4142 16.9331L36.4564 24.194C36.4564 24.194 36.0949 26.4266 36.7963 27.6183C37.3092 28.4923 38.0476 29.2125 38.9745 29.5628C39.4071 29.7298 39.8675 29.8182 40.3525 29.8182H42.778C44.2363 29.684 45.4505 29.3926 46.1272 28.8394C46.9923 28.1486 47.5176 27.4677 47.8543 25.8996L47.9192 25.4118L48.1139 23.9518L48.3518 22.1349H43.915L43.7852 23.1367L43.7728 23.2479L43.3001 26.3645C43.2383 26.8293 42.883 26.9635 42.5061 26.9635H42.1415C41.8047 26.9635 41.369 26.79 41.369 26.4037C41.369 26.3612 41.3721 26.3121 41.3783 26.2662L41.6688 22.9763L41.8943 21.2609L42.2434 18.642L42.5679 15.8659L42.6049 15.5746C42.6667 15.1097 42.7749 14.1734 43.3866 14.1472H43.9119C44.2826 14.1407 44.4897 14.5499 44.4526 15.4207C44.4526 15.4698 44.1591 17.9872 44.1591 17.9872H48.8091C48.8091 17.9872 49.2324 14.7987 49.0408 14.1538V14.157Z" fill="black"/>
<path d="M63.6316 14.5811C63.6316 14.7877 63.6158 15.0039 63.5876 15.2233L61.6483 29.2121H57.1349C57.1349 29.2121 58.7976 17.0482 58.9044 16.3742C59.0584 15.4204 58.3041 15.0929 57.9647 15.0929H57.3455C56.9746 15.0929 56.2108 15.0039 55.9877 16.3837L54.2087 29.2121H49.6953L52.9075 8H57.4209L56.4497 13.055C57.0877 12.2189 59.1339 11.6848 59.9951 11.6848H60.7274C62.5755 11.6848 63.6347 12.842 63.6347 14.5779L63.6316 14.5811Z" fill="black"/>
<path d="M78.1709 15.7708C78.158 15.9342 78.1579 16.1009 78.1352 16.2708L76.1343 29.6548L70.7477 29.7038L70.9747 28.1578C70.4169 29.4684 68.8959 29.8182 67.7576 29.8182H67.3068C65.3675 29.8182 64.2422 28.6219 64.2422 26.8276C64.2422 26.6185 64.2584 26.4027 64.2876 26.1805L64.6151 23.8436C64.9946 21.3924 67.1803 20.5785 69.2202 19.7157C71.2763 18.8463 72.4859 18.343 72.4859 18.343C72.4859 18.343 72.807 16.6565 72.8556 15.7479C72.8913 15.0518 72.8978 14.153 71.967 14.1399C70.6147 14.1203 70.5855 15.4374 70.5174 15.9015L70.3488 17.8528H65.7632L66.1231 15.274C66.4182 13.2575 69.2462 11.6364 71.3152 11.6364H73.4977C76.3451 11.6364 78.346 13.6072 78.1709 15.7708ZM71.9897 21.278C71.9897 21.278 70.3423 21.8663 69.8202 23.422C69.3986 24.677 69.3045 26.0563 69.3824 26.5335C69.4472 26.942 69.658 27.1381 70.2482 27.076C70.8352 27.0335 71.2795 26.1968 71.2795 26.1968C71.2795 26.1968 71.9249 22.667 71.9897 21.278Z" fill="black"/>
<path d="M91.5132 14.5401C91.5132 14.7473 91.5009 14.9641 91.4732 15.184L89.7034 29.2089H85.2668C85.2668 29.2089 86.7621 17.5364 86.8268 17.0136C86.8731 16.6503 87.1506 15.0852 86.1855 15.0565H85.6707C85.1188 15.0979 84.7519 15.49 84.5083 16.9977L82.9112 29.2121H78.7891L80.9966 11.7989H84.5946L84.6193 13.6062C85.1465 12.4332 86.2472 11.6364 87.2061 11.6364H88.8617C90.5482 11.6364 91.5163 12.7966 91.5163 14.5369L91.5132 14.5401Z" fill="black"/>
<path d="M107.877 11.801L105.161 30.7788C104.863 32.9681 102.874 34.6667 100.619 34.6667H93.557L94.0223 31.205H99.5899C100.088 31.205 100.452 30.8789 100.517 30.4526L100.865 28.0017C100.272 28.9704 99.2852 29.6034 98.3611 29.6034H97.0732C95.1168 29.6034 93.1867 28.3924 93.3407 26.0061C93.3538 25.7962 93.3571 25.5798 93.3866 25.3538L94.9104 15.8892C95.2086 13.7644 97.4664 11.6364 99.6555 11.6364H101.11C102.205 11.6364 103.005 12.5276 103.123 13.8096L103.83 11.7978H107.874L107.877 11.801ZM100.085 26.1417C100.776 26.1417 101.11 25.7607 101.215 25.0599C101.215 25.0599 102.444 16.6997 102.447 16.6545C102.624 15.295 102.484 15.1012 101.743 15.1012H100.835C100.065 15.1012 99.9733 15.6986 99.8062 16.648C99.8062 16.648 98.6101 24.8404 98.6003 24.8856C98.4495 25.6961 98.7707 26.1449 99.4064 26.1449H100.088L100.085 26.1417Z" fill="black"/>
<path d="M120.579 16.2757L119.793 21.4902H113.107L112.584 25.2212C112.523 25.6852 112.873 26.3354 113.434 26.3158H113.919C114.512 26.2733 114.891 25.6852 114.949 25.2212L115.25 23.274H119.549L119.187 25.182C118.914 27.1652 116.213 29.8182 114.307 29.8182H111.808C109.902 29.8182 107.653 27.1652 107.897 25.182L109.289 16.2724C109.7 13.2372 112.263 11.6364 114.169 11.6364H116.668C118.574 11.6364 120.884 13.2176 120.579 16.2724V16.2757ZM113.492 18.4843H115.857L116.19 16.573C116.351 15.4687 116.02 15.1486 115.369 15.1486H114.884C114.156 15.1878 113.922 15.9457 113.823 16.573L113.492 18.4843Z" fill="black"/>
<path d="M131.513 11.6428L130.608 16.1598L129.053 16.3046C128.187 16.3786 127.832 16.8515 127.633 18.1609L126.21 29.2121H121.816L124.17 11.6364H127.915L127.942 13.9141C128.466 12.5919 129.5 11.6364 131.039 11.6364H131.513V11.6428Z" fill="black"/>
</svg>
