<svg width="77" height="40" viewBox="0 0 77 40" fill="none" xmlns="http://www.w3.org/2000/svg">
<path d="M53.0794 8.66663H60.7756V16.2222H53.0794V8.66663Z" fill="black"/>
<path d="M0.167969 8.66663H7.86417V16.2222H0.167969V8.66663Z" fill="black"/>
<path d="M26.1427 8.66663H33.8389V16.2222H26.1427V8.66663Z" fill="black"/>
<path d="M60.7756 16.2222H68.4718V23.7777H60.7756V16.2222Z" fill="black"/>
<path d="M7.86417 8.66663H15.5604V16.2222H7.86417V8.66663Z" fill="black"/>
<path d="M7.86417 23.7777H15.5604V31.3333H7.86417V23.7777Z" fill="black"/>
<path d="M0.167969 16.2222H7.86417V23.7777H0.167969V16.2222Z" fill="black"/>
<path d="M15.5604 16.2222H23.2566V23.7777H15.5604V16.2222Z" fill="black"/>
<path d="M33.8389 16.2222H41.5351V23.7777H33.8389V16.2222Z" fill="black"/>
<path d="M26.1427 16.2222H33.8389V23.7777H26.1427V16.2222Z" fill="black"/>
<path d="M53.0794 23.7777H60.7756V31.3333H53.0794V23.7777Z" fill="black"/>
<path d="M0.167969 23.7777H7.86417V31.3333H0.167969V23.7777Z" fill="black"/>
<path d="M26.1427 23.7777H33.8389V31.3333H26.1427V23.7777Z" fill="black"/>
<path d="M68.4718 8.66663H76.168V16.2222H68.4718V8.66663Z" fill="black"/>
<path d="M15.5604 8.66663H23.2566V16.2222H15.5604V8.66663Z" fill="black"/>
<path d="M41.5351 8.66663H49.2313V16.2222H41.5351V8.66663Z" fill="black"/>
<path d="M68.4718 23.7777H76.168V31.3333H68.4718V23.7777Z" fill="black"/>
<path d="M15.5604 23.7777H23.2566V31.3333H15.5604V23.7777Z" fill="black"/>
<path d="M41.5351 23.7777H49.2313V31.3333H41.5351V23.7777Z" fill="black"/>
</svg>
