<svg width="202" height="40" viewBox="0 0 202 40" fill="none" xmlns="http://www.w3.org/2000/svg">
<g clip-path="url(#clip0_4936_71519)">
<path d="M38.6369 14.4286C40.2488 14.4286 41.2746 15.3143 41.2746 16.9381C41.2746 18.5619 40.3954 19.4476 38.6369 19.4476H37.025V14.4286H38.6369ZM63.2555 25.2048C63.2555 26.3857 62.6693 27.2714 61.3505 27.2714C60.1782 27.2714 59.4455 26.3857 59.4455 25.2048V20.6286C59.4455 19.4476 60.1782 18.5619 61.3505 18.5619C62.6693 18.5619 63.2555 19.4476 63.2555 20.6286V25.2048ZM77.6163 15.1667H74.6856V14.281C74.6856 13.5429 75.1252 13.3952 75.7113 13.3952H77.4698V10H74.9786C72.7806 10 70.8755 11.4762 70.8755 13.8381V15.1667H69.1171V18.5619H70.8755V30.2238H74.539V18.5619H77.4698V15.1667H77.6163ZM61.3505 14.8714C57.687 14.8714 55.782 17.381 55.782 20.3333V25.0571C55.782 28.3048 57.687 30.6667 61.3505 30.6667C65.014 30.6667 67.0655 28.1571 67.0655 25.0571V20.3333C67.0655 17.381 65.014 14.8714 61.3505 14.8714ZM54.7562 18.7095V14.8714H54.3166C52.5581 14.8714 51.3858 15.6095 50.6531 16.9381V15.1667H47.2827V30.2238H50.9462V21.3667C50.9462 19.5952 52.1185 18.5619 53.877 18.5619H54.7562V18.7095ZM32.9219 10.7381V30.3714H37.025V23.1381H38.6369C42.5935 23.1381 45.2312 20.9238 45.2312 16.9381C45.2312 13.1 42.4469 10.7381 38.6369 10.7381H32.9219ZM154.403 30.3714H158.213V20.481C158.213 19.3 158.799 18.5619 159.825 18.5619C160.997 18.5619 161.437 19.3 161.437 20.481V30.3714H165.1V19.7429C165.1 17.0857 163.635 15.019 160.704 15.019C159.092 15.019 157.92 15.6095 157.187 16.6429C156.454 15.6095 155.429 15.019 153.817 15.019C152.351 15.019 151.179 15.6095 150.593 16.6429V15.1667H147.516V30.2238H151.179V19.8905C151.326 19.0048 151.912 18.4143 152.938 18.4143C153.963 18.4143 154.403 19.1524 154.403 20.3333V30.3714ZM171.255 20.6286C171.255 19.4476 171.841 18.5619 173.16 18.5619C174.479 18.5619 175.065 19.4476 175.065 20.6286V20.9238H171.108V20.6286H171.255ZM173.16 14.8714C169.643 14.8714 167.591 17.381 167.591 20.3333V25.0571C167.591 28.3048 169.643 30.6667 173.16 30.6667C176.091 30.6667 178.142 29.1905 179.168 27.1238L176.091 25.3524C175.211 27.2714 171.108 28.3048 171.108 25.0571V24.0238H178.728V20.481C178.875 17.381 176.677 14.8714 173.16 14.8714ZM188.253 30.3714H191.917V19.5952C191.917 17.0857 190.452 15.019 187.374 15.019C186.055 15.019 184.883 15.6095 184.15 16.6429V15.1667H180.78V30.2238H184.59V20.3333C184.59 19.1524 185.176 18.4143 186.348 18.4143C187.521 18.4143 188.107 19.3 188.107 20.481V30.3714H188.253ZM201.589 18.5619V15.1667H198.804V11.181H195.141V15.3143H193.236V18.7095H195.141V26.681C195.141 28.8952 196.753 30.519 199.244 30.519H201.295V26.9762H199.83C199.244 26.9762 198.804 26.8286 198.804 25.9429V18.5619H201.589Z" fill="black"/>
<path fill-rule="evenodd" clip-rule="evenodd" d="M13.1914 19.4138V12.1207V4.68176L19.3312 8.47418L25.471 12.1207L19.3312 15.7673L13.1914 19.4138Z" fill="url(#paint0_linear_4936_71519)"/>
<path fill-rule="evenodd" clip-rule="evenodd" d="M13.1937 19.4138L7.20007 15.7673L0.914062 12.1207L7.20007 8.47418L13.1937 4.68176V12.1207V19.4138Z" fill="url(#paint1_linear_4936_71519)"/>
<path fill-rule="evenodd" clip-rule="evenodd" d="M13.1937 19.4138L7.20007 23.0604L0.914062 26.8528V19.4138V12.1207L7.20007 15.7673L13.1937 19.4138Z" fill="url(#paint2_linear_4936_71519)"/>
<path fill-rule="evenodd" clip-rule="evenodd" d="M13.1937 19.4139V26.8529V34.0001L7.20007 30.4995L0.914062 26.8529L7.20007 23.0605L13.1937 19.4139Z" fill="url(#paint3_linear_4936_71519)"/>
<path fill-rule="evenodd" clip-rule="evenodd" d="M13.1914 19.4139V26.8529V34.0001L19.3312 30.4995L25.471 26.8529L19.3312 23.0605L13.1914 19.4139Z" fill="url(#paint4_linear_4936_71519)"/>
<path fill-rule="evenodd" clip-rule="evenodd" d="M13.1914 19.4138L19.3312 23.0604L25.471 26.8528V19.4138V12.1207L19.3312 15.7673L13.1914 19.4138Z" fill="url(#paint5_linear_4936_71519)"/>
<path d="M115.899 20.4984C115.899 19.3021 116.507 18.4049 117.722 18.4049C119.089 18.4049 119.849 19.3021 119.849 20.4984V20.7975H115.748V20.4984H115.899ZM117.874 14.6666C114.229 14.6666 112.254 17.2087 112.254 20.1993V24.9844C112.254 28.2741 114.38 30.6666 118.026 30.6666C121.064 30.6666 123.191 29.1713 124.254 27.0778L121.064 25.2834C120.153 27.2274 115.899 28.2741 115.899 24.9844V23.9377H123.798V20.3489C123.798 17.2087 121.672 14.6666 117.874 14.6666Z" fill="url(#paint6_linear_4936_71519)"/>
<path d="M84.9219 15.3334H80.9219V30H84.9219V15.3334Z" fill="url(#paint7_linear_4936_71519)"/>
<path d="M82.9219 10C83.9988 10 84.9219 10.9231 84.9219 12C84.9219 13.0769 83.9988 14 82.9219 14C81.6911 14 80.9219 13.0769 80.9219 12C80.9219 10.9231 81.6911 10 82.9219 10Z" fill="url(#paint8_linear_4936_71519)"/>
<path d="M144.922 18.4581V15.1807H142.255V11.3334H138.746V15.3232H136.922V18.6005H138.746V26.2952C138.746 28.4326 140.29 30 142.676 30H144.641V26.5802H143.238C142.676 26.5802 142.255 26.4377 142.255 25.5827V18.4581H144.922Z" fill="url(#paint9_linear_4936_71519)"/>
<path d="M131.749 20.0498H135.304V19.7507C135.304 16.162 132.317 14.6666 130.184 14.6666C127.055 14.6666 125.064 16.461 125.064 19.3021C125.064 21.8442 126.202 23.0405 128.477 23.7881L129.9 24.3863C130.895 24.6853 132.033 24.9844 132.033 25.8816C132.033 26.6292 131.322 27.0778 130.326 27.0778C129.331 27.0778 128.477 26.4797 128.477 25.2834V25.1339H124.922V25.732C124.922 28.4236 127.055 30.6666 130.326 30.6666C133.597 30.6666 135.589 28.7227 135.589 25.732C135.589 23.4891 134.309 21.9937 132.175 21.2461L130.895 20.7975C129.615 20.1993 128.477 20.0498 128.477 19.3021C128.477 18.704 128.904 18.2554 130.042 18.2554C131.037 18.2554 131.606 18.8535 131.606 19.7507V20.0498H131.749Z" fill="url(#paint10_linear_4936_71519)"/>
<path d="M98.9219 15.3334L103.488 30H107.17L111.589 15.3334H107.906L105.255 24.589L102.899 15.3334H98.9219Z" fill="url(#paint11_linear_4936_71519)"/>
<path d="M94.5271 30H98.2552V19.2371C98.2552 16.7307 96.764 14.6666 93.6324 14.6666C92.2903 14.6666 91.0973 15.2564 90.3517 16.2884V14.8141H86.9219V29.8525H90.6499V19.9743C90.7991 18.7948 91.3956 18.0577 92.5885 18.0577C93.7815 18.0577 94.378 18.9423 94.378 20.1218V30H94.5271Z" fill="url(#paint12_linear_4936_71519)"/>
</g>
<defs>
<linearGradient id="paint0_linear_4936_71519" x1="12.7305" y1="11.588" x2="24.1449" y2="11.588" gradientUnits="userSpaceOnUse">
<stop stop-color="#7B7B7B"/>
<stop offset="0.0001" stop-color="#9C9C9C"/>
<stop offset="0.6118" stop-color="#636363"/>
<stop offset="1" stop-color="#464646"/>
</linearGradient>
<linearGradient id="paint1_linear_4936_71519" x1="6.52022" y1="15.4108" x2="12.3675" y2="4.90423" gradientUnits="userSpaceOnUse">
<stop stop-color="#7B7B7B"/>
<stop offset="0.6118" stop-color="#5A5A5A"/>
<stop offset="1" stop-color="#2B2B2B"/>
</linearGradient>
<linearGradient id="paint2_linear_4936_71519" x1="2.01392" y1="18.9587" x2="13.0099" y2="18.9587" gradientUnits="userSpaceOnUse">
<stop stop-color="#7B7B7B"/>
<stop offset="0.5" stop-color="#676767"/>
<stop offset="1" stop-color="#4A4A4A"/>
</linearGradient>
<linearGradient id="paint3_linear_4936_71519" x1="9.48785" y1="30.6665" x2="5.22849" y2="18.7935" gradientUnits="userSpaceOnUse">
<stop stop-color="#7B7B7B"/>
<stop offset="0.6118" stop-color="#666666"/>
<stop offset="1" stop-color="#4A4A4A"/>
</linearGradient>
<linearGradient id="paint4_linear_4936_71519" x1="12.7305" y1="26.2543" x2="24.1449" y2="26.2543" gradientUnits="userSpaceOnUse">
<stop stop-color="#7B7B7B"/>
<stop offset="0.6118" stop-color="#646464"/>
<stop offset="1" stop-color="#4A4A4A"/>
</linearGradient>
<linearGradient id="paint5_linear_4936_71519" x1="18.8159" y1="22.7612" x2="24.6471" y2="12.2819" gradientUnits="userSpaceOnUse">
<stop stop-color="#7B7B7B"/>
<stop offset="0.6118" stop-color="#565656"/>
<stop offset="1" stop-color="#4A4A4A"/>
</linearGradient>
<linearGradient id="paint6_linear_4936_71519" x1="125.64" y1="16.792" x2="123.226" y2="30.4158" gradientUnits="userSpaceOnUse">
<stop stop-color="#4A4A4A"/>
<stop offset="0.502" stop-color="#7B7B7B"/>
<stop offset="1" stop-color="#4A4A4A"/>
</linearGradient>
<linearGradient id="paint7_linear_4936_71519" x1="85.384" y1="17.2817" x2="80.3113" y2="27.6901" gradientUnits="userSpaceOnUse">
<stop stop-color="#4A4A4A"/>
<stop offset="0.502" stop-color="#7B7B7B"/>
<stop offset="1" stop-color="#4A4A4A"/>
</linearGradient>
<linearGradient id="paint8_linear_4936_71519" x1="85.384" y1="10.5314" x2="84.9252" y2="13.9833" gradientUnits="userSpaceOnUse">
<stop stop-color="#4A4A4A"/>
<stop offset="0.502" stop-color="#7B7B7B"/>
<stop offset="1" stop-color="#4A4A4A"/>
</linearGradient>
<linearGradient id="paint9_linear_4936_71519" x1="145.846" y1="13.813" x2="141.208" y2="28.7682" gradientUnits="userSpaceOnUse">
<stop stop-color="#4A4A4A"/>
<stop offset="0.502" stop-color="#7B7B7B"/>
<stop offset="1" stop-color="#4A4A4A"/>
</linearGradient>
<linearGradient id="paint10_linear_4936_71519" x1="136.821" y1="16.792" x2="134.126" y2="30.3065" gradientUnits="userSpaceOnUse">
<stop stop-color="#4A4A4A"/>
<stop offset="0.502" stop-color="#7B7B7B"/>
<stop offset="1" stop-color="#4A4A4A"/>
</linearGradient>
<linearGradient id="paint11_linear_4936_71519" x1="113.052" y1="17.2817" x2="111.115" y2="29.8643" gradientUnits="userSpaceOnUse">
<stop stop-color="#4A4A4A"/>
<stop offset="0.502" stop-color="#7B7B7B"/>
<stop offset="1" stop-color="#4A4A4A"/>
</linearGradient>
<linearGradient id="paint12_linear_4936_71519" x1="99.5645" y1="16.7035" x2="97.2188" y2="29.7478" gradientUnits="userSpaceOnUse">
<stop stop-color="#4A4A4A"/>
<stop offset="0.502" stop-color="#7B7B7B"/>
<stop offset="1" stop-color="#4A4A4A"/>
</linearGradient>
<clipPath id="clip0_4936_71519">
<rect width="200.667" height="40" fill="white" transform="translate(0.921875)"/>
</clipPath>
</defs>
</svg>
