<svg width="207" height="40" viewBox="0 0 207 40" fill="none" xmlns="http://www.w3.org/2000/svg">
<path d="M37.735 4.32439L33.117 0V2.82738H6.34766V13.2161H21.8837C23.2321 13.2161 24.3268 14.3144 24.3268 15.6592C24.3268 17.004 23.2285 18.1024 21.8837 18.1024H6.34766V31.6484H9.34538V21.1001H21.8837C22.4926 21.1001 23.0799 20.9986 23.6272 20.8137C25.7731 20.0851 27.3245 18.0516 27.3245 15.6592C27.3245 13.2668 25.7767 11.2333 23.6272 10.5047C23.0799 10.3162 22.4926 10.2184 21.8837 10.2184H9.34538V5.82512H33.117V8.6525L37.735 4.32802V4.32439Z" fill="url(#paint0_linear_4762_67049)"/>
<path d="M36.8811 15.8259C36.8811 12.8898 35.8112 10.1858 34.0123 8.02173H29.4661C32.0057 9.81602 33.6439 12.6469 33.6439 15.8259C33.6439 19.5885 31.3473 22.8618 27.9807 24.5111C27.0636 24.9605 26.0368 25.1852 24.9982 25.1852H14.6241V34.1784H5.661V31.3511L0.667969 35.6755L5.661 39.9999V37.1726H17.8653V28.2772H24.7866C25.249 28.2772 25.7154 28.241 26.174 28.1721C26.7579 28.0815 27.5221 27.951 27.8082 27.8531C33.0991 26.048 36.885 21.3356 36.885 15.8223L36.8811 15.8259Z" fill="url(#paint1_linear_4762_67049)"/>
<path d="M52.0881 13.9714C51.2338 13.9714 50.3955 14.1399 49.5973 14.4728C48.9997 14.7215 48.4903 15.0304 48.0771 15.3954V14.2483H45.4219V32.6667H48.0771V26.7264C48.9235 27.1836 50.0265 27.4123 51.3702 27.4123C53.3596 27.4123 54.9881 26.7465 56.2074 25.4349C57.4388 24.1072 58.0645 22.4467 58.0645 20.5013C58.0645 18.556 57.515 17.0158 56.436 15.8205C55.3812 14.5932 53.9212 13.9755 52.0921 13.9755L52.0881 13.9714ZM55.2689 20.5816C55.2689 21.8651 54.8918 22.9159 54.1538 23.7061C53.4158 24.4963 52.417 24.8934 51.1776 24.8934C50.0345 24.8934 48.9917 24.6006 48.0812 24.027V18.0587C48.9596 16.9998 50.0626 16.4863 51.4544 16.4863C52.6376 16.4863 53.5802 16.8594 54.2501 17.5894C54.9279 18.3274 55.2689 19.3342 55.2689 20.5776V20.5816Z" fill="black"/>
<path d="M66.36 14.0277C65.1728 14.0277 64.1981 14.4488 63.4561 15.2831V14.2483H60.8008V27.1356H63.4561V18.147C64.0256 17.068 64.8038 16.5426 65.8346 16.5426C66.3801 16.5426 66.9095 16.691 67.4109 16.9838L67.6395 17.1161L68.5661 14.6414L68.4337 14.5411C67.9724 14.2002 67.2785 14.0277 66.368 14.0277H66.36Z" fill="black"/>
<path d="M76.2338 13.9714C74.2082 13.9714 72.5397 14.6172 71.2642 15.8887C69.9887 17.1602 69.375 18.7565 69.375 20.6898C69.375 22.6231 70.0087 24.2275 71.2642 25.5191H71.2682C72.5597 26.7745 74.2283 27.4123 76.2338 27.4123C78.2393 27.4123 79.9199 26.7745 81.1753 25.5231C82.4468 24.2516 83.0926 22.6271 83.0926 20.6939C83.0926 18.7606 82.4468 17.1441 81.1753 15.8927C79.9199 14.6212 78.2593 13.9755 76.2338 13.9755V13.9714ZM79.1578 23.7302C78.4037 24.5043 77.417 24.8934 76.2338 24.8934C75.0505 24.8934 74.0598 24.4963 73.2937 23.7141C72.5477 22.948 72.1666 21.9332 72.1666 20.6898C72.1666 19.4464 72.5557 18.4317 73.3218 17.6616C74.0679 16.8795 75.0465 16.4863 76.2298 16.4863C77.413 16.4863 78.3957 16.8835 79.1377 17.6616C79.9038 18.4638 80.2929 19.4825 80.2929 20.6898C80.2929 21.8971 79.9079 22.9561 79.1538 23.7302H79.1578Z" fill="black"/>
<path d="M93.2935 18.1189H86.2422V20.6338H93.2935V18.1189Z" fill="black"/>
<path d="M103.277 13.9714C101.251 13.9714 99.5826 14.6172 98.3072 15.8887C97.0517 17.1441 96.418 18.7565 96.418 20.6898C96.418 22.6231 97.0517 24.2275 98.3072 25.5191H98.3112C99.6027 26.7745 101.271 27.4123 103.277 27.4123C105.282 27.4123 106.963 26.7745 108.218 25.5231C109.49 24.2516 110.136 22.6271 110.136 20.6939C110.136 18.7606 109.49 17.1441 108.218 15.8927C106.963 14.6212 105.302 13.9755 103.277 13.9755V13.9714ZM106.201 23.7302C105.447 24.5043 104.46 24.8934 103.277 24.8934C102.094 24.8934 101.103 24.4963 100.337 23.7141C99.5907 22.948 99.2096 21.9332 99.2096 20.6898C99.2096 19.4464 99.5987 18.4317 100.365 17.6616C101.111 16.8795 102.09 16.4863 103.273 16.4863C104.456 16.4863 105.439 16.8835 106.181 17.6616C106.947 18.4638 107.336 19.4825 107.336 20.6898C107.336 21.8971 106.951 22.9561 106.197 23.7302H106.201Z" fill="black"/>
<path d="M119.18 13.9715C118.458 13.9715 117.72 14.1119 116.986 14.3886C116.429 14.5972 115.943 14.8619 115.53 15.1788V7.33337H112.875V25.8641L112.967 25.9323C114.307 26.915 116.064 27.4123 118.186 27.4123C120.307 27.4123 122.08 26.7866 123.372 25.5512C124.663 24.2958 125.321 22.5951 125.321 20.4974C125.321 18.552 124.76 16.9637 123.661 15.7844C122.57 14.5812 121.065 13.9676 119.184 13.9676L119.18 13.9715ZM121.35 23.7423C120.568 24.5084 119.541 24.8975 118.298 24.8975C117.247 24.8975 116.32 24.6447 115.53 24.1434V17.9545C115.855 17.5654 116.308 17.2244 116.874 16.9397C117.468 16.6428 118.077 16.4944 118.683 16.4944C119.85 16.4944 120.789 16.8674 121.483 17.6014C122.176 18.3395 122.529 19.3744 122.529 20.6699C122.529 21.9654 122.132 22.9842 121.35 23.7463V23.7423Z" fill="black"/>
<path d="M142.739 14.0277C141.804 14.0277 140.926 14.2323 140.124 14.6334C139.442 14.9743 138.872 15.4236 138.423 15.9731C138.146 15.4276 137.709 14.9823 137.128 14.6414C136.434 14.2363 135.587 14.0317 134.609 14.0317C133.786 14.0317 132.98 14.2042 132.21 14.5492C131.628 14.8059 131.127 15.1267 130.71 15.5077V14.2523H128.055V27.1396H130.71V18.0828C131.46 17.0479 132.459 16.5466 133.75 16.5466C134.516 16.5466 135.118 16.7592 135.547 17.1764C135.976 17.5975 136.185 18.163 136.185 18.897V27.1396H138.84V19.0093C138.84 18.5079 138.832 18.2794 138.82 18.1671C139.093 17.6817 139.494 17.2926 140.011 17.0038C140.557 16.703 141.175 16.5466 141.852 16.5466C143.509 16.5466 144.315 17.4692 144.315 19.3664V27.1356H146.971V18.7567C146.971 15.6201 145.547 14.0277 142.739 14.0277Z" fill="black"/>
<path d="M160.344 15.6401C159.216 14.533 157.781 13.9714 156.068 13.9714C154.002 13.9714 152.366 14.6172 151.203 15.8967C150.027 17.1682 149.43 18.7806 149.43 20.6939C149.43 22.7194 150.067 24.364 151.319 25.5793C152.554 26.7946 154.235 27.4123 156.313 27.4123C158.278 27.4123 159.898 26.8427 161.134 25.7236L161.246 25.6194L160.38 23.4334L160.143 23.658C159.269 24.4803 158.033 24.8975 156.477 24.8975C155.302 24.8975 154.331 24.5805 153.593 23.9548C152.915 23.3813 152.506 22.5911 152.382 21.6084H161.888L161.924 21.4319C162.02 20.9586 162.068 20.4412 162.068 19.8957C162.068 18.1629 161.487 16.7311 160.344 15.6441V15.6401ZM153.405 17.3488C154.07 16.7792 154.929 16.4903 155.956 16.4903C156.982 16.4903 157.773 16.7671 158.362 17.3166C158.904 17.818 159.22 18.5079 159.313 19.3663H152.261C152.418 18.544 152.799 17.8662 153.405 17.3488Z" fill="black"/>
<path d="M171.142 14.0277C170.36 14.0277 169.574 14.1962 168.8 14.5291C168.218 14.7818 167.717 15.0906 167.296 15.4596V14.2483H164.641V27.1356H167.296V18.0106C168.178 17.0359 169.285 16.5426 170.589 16.5426C172.803 16.5426 173.882 17.7178 173.882 20.1364V27.1316H176.537V19.7193C176.537 15.9409 174.724 14.0237 171.146 14.0237L171.142 14.0277Z" fill="black"/>
<path d="M181.012 23.7343C180.51 23.7343 180.085 23.9027 179.736 24.2396C179.387 24.5766 179.215 24.9736 179.215 25.4229C179.215 25.9242 179.391 26.3535 179.736 26.6984C180.081 27.0434 180.51 27.2198 181.012 27.2198C181.513 27.2198 181.906 27.0434 182.227 26.6904C182.54 26.3455 182.7 25.9202 182.7 25.4229C182.7 24.9776 182.528 24.5806 182.191 24.2437C181.854 23.9067 181.457 23.7383 181.012 23.7383V23.7343Z" fill="black"/>
<path d="M191.192 14.0277C190.005 14.0277 189.03 14.4488 188.288 15.2831V14.2483H185.633V27.1356H188.288V18.147C188.858 17.068 189.636 16.5426 190.667 16.5426C191.212 16.5426 191.742 16.691 192.243 16.9838L192.472 17.1161L193.398 14.6414L193.266 14.5411C192.804 14.2002 192.111 14.0277 191.2 14.0277H191.192Z" fill="black"/>
<path d="M203.746 14.2483V23.1888C203.369 23.6861 202.872 24.0952 202.274 24.408C201.657 24.7329 201.023 24.8934 200.401 24.8934C198.392 24.8934 197.413 23.7463 197.413 21.3798V14.2443H194.758V21.8772C194.758 23.6781 195.183 25.0619 196.017 25.9925C196.86 26.931 198.055 27.4082 199.571 27.4082C201.207 27.4082 202.611 26.8347 203.746 25.7036V27.1315H206.402V14.2443H203.746V14.2483Z" fill="black"/>
<defs>
<linearGradient id="paint0_linear_4762_67049" x1="22.0432" y1="-969.094" x2="22.0432" y2="-969.094" gradientUnits="userSpaceOnUse">
<stop stop-color="#484848"/>
<stop offset="1" stop-color="#545454"/>
</linearGradient>
<linearGradient id="paint1_linear_4762_67049" x1="-1411.24" y1="-1273.03" x2="-1411.24" y2="-1273.03" gradientUnits="userSpaceOnUse">
<stop stop-color="#9B9B9B"/>
<stop offset="1" stop-color="#555555"/>
</linearGradient>
</defs>
</svg>
