<svg width="122" height="40" viewBox="0 0 122 40" fill="none" xmlns="http://www.w3.org/2000/svg">
<path d="M37.6004 12.4445V15.1965C37.9637 14.1939 38.5835 13.4365 39.4598 12.9245C40.336 12.3912 41.3405 12.1245 42.4733 12.1245V16.7325C41.2123 16.5619 40.0796 16.8179 39.0751 17.5005C38.0919 18.1619 37.6004 19.2605 37.6004 20.7965V28.4445H33.4648V12.4445H37.6004ZM56.4792 14.3325V12.4445H60.6147V28.4445H56.4792V26.5565C55.2396 28.1139 53.4978 28.8925 51.2537 28.8925C49.1165 28.8925 47.2784 28.0819 45.7396 26.4605C44.2222 24.8179 43.4635 22.8125 43.4635 20.4445C43.4635 18.0979 44.2222 16.1032 45.7396 14.4605C47.2784 12.8179 49.1165 11.9965 51.2537 11.9965C53.4978 11.9965 55.2396 12.7752 56.4792 14.3325ZM48.8493 23.7085C49.6828 24.5405 50.7408 24.9565 52.0231 24.9565C53.3054 24.9565 54.3634 24.5405 55.1969 23.7085C56.0518 22.8552 56.4792 21.7672 56.4792 20.4445C56.4792 19.1219 56.0518 18.0445 55.1969 17.2125C54.3634 16.3592 53.3054 15.9325 52.0231 15.9325C50.7408 15.9325 49.6828 16.3592 48.8493 17.2125C48.0164 18.0445 47.5999 19.1219 47.5999 20.4445C47.5999 21.7672 48.0158 22.8552 48.8493 23.7085ZM73.6955 11.9965C75.8535 11.9965 77.6912 12.8179 79.2086 14.4605C80.7468 16.1032 81.5159 18.0979 81.5159 20.4445C81.5159 22.8339 80.7465 24.8392 79.2077 26.4605C77.7117 28.0819 75.8736 28.8925 73.6937 28.8925C71.4496 28.8925 69.7184 28.1139 68.5002 26.5565V34.8445H64.3647V12.4445H68.5002V14.3325C69.7184 12.7752 71.4496 11.9965 73.6937 11.9965M69.7496 23.7085C70.5831 24.5405 71.641 24.9565 72.9234 24.9565C74.2057 24.9565 75.2636 24.5405 76.0972 23.7085C76.9521 22.8552 77.3795 21.7672 77.3795 20.4445C77.3795 19.1219 76.9521 18.0445 76.0972 17.2125C75.2636 16.3592 74.2057 15.9325 72.9234 15.9325C71.641 15.9325 70.5831 16.3592 69.7496 17.2125C68.9167 18.0445 68.5002 19.1219 68.5002 20.4445C68.5002 21.7672 68.9161 22.8552 69.7496 23.7085ZM86.485 10.5245C85.8005 10.5245 85.202 10.2792 84.6897 9.78852C84.1981 9.27652 83.9524 8.67919 83.9524 7.99652C83.9524 7.31386 84.1981 6.71652 84.6897 6.20452C85.2026 5.69252 85.8011 5.43652 86.485 5.43652C87.1891 5.43652 87.7875 5.69252 88.2802 6.20452C88.7926 6.71652 89.0491 7.31386 89.0496 7.99652C89.0496 8.67919 88.7932 9.27652 88.2802 9.78852C88.0473 10.0274 87.7676 10.2159 87.4587 10.3425C87.1497 10.4691 86.8189 10.5311 86.485 10.5245ZM88.5688 28.4445H84.4315V12.4445H88.567L88.5688 28.4445ZM96.489 12.4445V15.1965C96.8523 14.1939 97.4721 13.4365 98.3484 12.9245C99.2246 12.3912 100.229 12.1245 101.362 12.1245V16.7325C100.101 16.5619 98.9682 16.8179 97.9637 17.5005C96.9805 18.1619 96.489 19.2605 96.489 20.7965V28.4445H92.3534V12.4445H96.489ZM115.368 14.3325V12.4445H119.503V28.4445H115.368V26.5565C114.128 28.1139 112.386 28.8925 110.142 28.8925C108.005 28.8925 106.167 28.0819 104.628 26.4605C103.111 24.8179 102.352 22.8125 102.352 20.4445C102.352 18.0979 103.111 16.1032 104.628 14.4605C106.167 12.8179 108.005 11.9965 110.142 11.9965C112.386 11.9965 114.128 12.7752 115.368 14.3325ZM107.738 23.7085C108.571 24.5405 109.629 24.9565 110.912 24.9565C112.194 24.9565 113.252 24.5405 114.085 23.7085C114.94 22.8552 115.368 21.7672 115.368 20.4445C115.368 19.1219 114.94 18.0445 114.085 17.2125C113.252 16.3592 112.194 15.9325 110.912 15.9325C109.629 15.9325 108.571 16.3592 107.738 17.2125C106.904 18.0445 106.488 19.1219 106.488 20.4445C106.488 21.7672 106.904 22.8552 107.738 23.7085Z" fill="black"/>
<path fill-rule="evenodd" clip-rule="evenodd" d="M10.8954 10.167C8.4367 10.167 5.88272 12.0763 5.19168 14.4319L0 32.1181H4.86575L8.47677 19.8141C9.1687 17.4585 11.7227 15.5492 14.1814 15.5492H22.7668L24.3466 10.167H10.8954Z" fill="#4C4C4C"/>
<path opacity="0.5" fill-rule="evenodd" clip-rule="evenodd" d="M21.8026 19.322L19.2317 28.0802C18.5406 30.4357 15.9867 32.3451 13.5271 32.3451H8.16797L10.7389 23.5877C11.4299 21.2322 13.9839 19.322 16.4426 19.322H21.8026Z" fill="#4C4C4C"/>
</svg>
