<svg width="110" height="40" viewBox="0 0 110 40" fill="none" xmlns="http://www.w3.org/2000/svg">
<g clip-path="url(#clip0_8924_85500)">
<path d="M36.7488 8.97971C36.7488 4.03524 32.7025 0 27.7442 0C25.1796 0 22.8429 1.07981 21.2471 2.78486L0.901108 15.5725C0.502168 15.7998 0.38824 16.3682 0.616192 16.766C0.78718 17.0502 1.0721 17.1638 1.35711 17.1638C1.528 17.1638 1.64202 17.107 1.81301 17.0502L19.1955 6.08124C18.8535 6.99057 18.6825 7.95676 18.6825 9.03657C18.6825 11.3099 19.5374 13.356 20.9052 14.9473L7.22718 28.5306C6.88521 28.8716 6.88521 29.3831 7.22718 29.7241C7.39817 29.8946 7.62612 29.9514 7.85408 29.9514C8.08212 29.9514 8.31007 29.8946 8.48106 29.7241L22.159 16.1409C23.6977 17.3343 25.6355 18.0731 27.6872 18.0731C28.8841 18.0731 30.0238 17.8458 31.0498 17.448L20.1643 35.0665C19.9363 35.4643 20.0503 35.9758 20.4493 36.26C20.5633 36.3736 20.7342 36.3736 20.9052 36.3736C21.1902 36.3736 21.4751 36.2031 21.6461 35.9758L34.7541 14.6631C36.008 13.0718 36.7488 11.1394 36.7488 8.97971ZM23.4128 14.8905L27.4022 10.969C27.7442 10.6279 27.7442 10.1164 27.4022 9.77543C27.0603 9.43438 26.5474 9.43438 26.2054 9.77543L22.159 13.7538C21.0762 12.5034 20.3923 10.8552 20.3923 9.03657C20.4493 5.00133 23.6977 1.70505 27.7442 1.70505C31.7906 1.70505 35.0392 5.00133 35.0392 8.97971C35.0392 13.015 31.7336 16.2545 27.7442 16.2545C26.1484 16.3113 24.6097 15.743 23.4128 14.8905Z" fill="#333333"/>
<path d="M27.7458 3.06897C24.4404 3.06897 21.7617 5.74011 21.7617 9.03649C21.7617 9.49116 22.1607 9.88897 22.6167 9.88897C23.0726 9.88897 23.4715 9.49116 23.4715 9.03649C23.4715 6.7063 25.3522 4.77392 27.7458 4.77392C28.2018 4.77392 28.6008 4.37611 28.6008 3.92145C28.6008 3.46678 28.2018 3.06897 27.7458 3.06897Z" fill="#333333"/>
<path d="M42.1761 37.2173C44.9109 37.2173 46.2784 36.1756 46.2784 34.0923C46.2784 32.1578 45.1504 31.1905 42.8943 31.1905H41.5318C40.2286 31.1905 39.5769 30.6201 39.5769 29.4792C39.5769 28.1895 40.5396 27.5447 42.4648 27.5447C43.699 27.5447 44.8468 27.7431 45.9081 28.1399V26.875C44.8468 26.5774 43.699 26.4286 42.4648 26.4286C39.6263 26.4286 38.207 27.4455 38.207 29.4792C38.207 31.4137 39.3153 32.381 41.5318 32.381H42.8943C44.2371 32.381 44.9085 32.9514 44.9085 34.0923C44.9085 35.4316 43.9977 36.1012 42.1761 36.1012C40.8876 36.1012 39.688 35.9028 38.5773 35.506V36.7709C39.688 37.0685 40.8876 37.2173 42.1761 37.2173ZM50.5288 37.1429L52.6466 31.3021L54.8754 37.1429H56.1269L58.1558 29.3304H56.7045L55.4604 35.4539L53.2982 29.3304H52.0616L50.04 35.4539L48.6627 29.3304H47.278L49.2477 37.1429H50.5288ZM65.7088 37.1429V31.756C65.7088 30.1389 64.5536 29.3304 62.2433 29.3304C61.4436 29.3304 60.6241 29.4544 59.7849 29.7024V30.8185C60.6241 30.5705 61.4436 30.4464 62.2433 30.4464C63.6404 30.4464 64.3389 30.8954 64.3389 31.7932V32.5298C63.6626 32.4306 62.9863 32.381 62.31 32.381C60.207 32.381 59.1555 33.1821 59.1555 34.7842C59.1555 36.3567 60.0811 37.1429 61.9323 37.1429C62.8456 37.1429 63.6897 36.8849 64.4648 36.3691L64.9387 37.1429H65.7088ZM61.9323 36.0268C60.9944 36.0268 60.5254 35.6052 60.5254 34.7619C60.5254 33.9187 61.1202 33.497 62.31 33.497C62.9863 33.497 63.6626 33.5466 64.3389 33.6459V35.2679C63.6823 35.7738 62.8801 36.0268 61.9323 36.0268ZM69.3002 39.9703V36.7709C69.8827 37.0189 70.485 37.1429 71.107 37.1429C73.6148 37.1429 74.8687 35.7763 74.8687 33.0432C74.8687 30.568 73.6222 29.3304 71.1292 29.3304C70.0283 29.3304 68.962 29.437 67.9303 29.6503V39.9703H69.3002ZM71.0996 35.9524C70.4381 35.9524 69.8383 35.8185 69.3002 35.5506V30.6548C69.8185 30.5357 70.4232 30.4762 71.1144 30.4762C72.7188 30.4762 73.521 31.3269 73.521 33.0283C73.521 34.9777 72.7138 35.9524 71.0996 35.9524ZM82.4216 37.1429V36.1012H77.9269L82.5697 30.4464V29.3304H76.4977V30.4464H81.0517L76.3496 36.1012V37.1429H82.4216ZM87.7532 37.1354C90.2215 37.1354 91.4556 35.8358 91.4556 33.2366C91.4556 30.6325 90.2215 29.3304 87.7532 29.3304C85.2849 29.3304 84.0507 30.6325 84.0507 33.2366C84.0606 35.8358 85.2947 37.1354 87.7532 37.1354ZM87.7532 36.0268C86.1981 36.0268 85.4206 35.0868 85.4206 33.2069C85.4206 31.3666 86.1981 30.4464 87.7532 30.4464C89.3082 30.4464 90.0857 31.3666 90.0857 33.2069C90.0857 35.0868 89.3082 36.0268 87.7532 36.0268ZM94.6767 37.1429V31.4658C95.3827 30.8061 96.1281 30.4762 96.913 30.4762C98.0632 30.4762 98.6384 31.0566 98.6384 32.2173V37.1429H100.008V32.2396C100.008 30.3001 99.0382 29.3304 97.0981 29.3304C96.1454 29.3304 95.2716 29.6627 94.4768 30.3274L94.2324 29.3304H93.3068V37.1429H94.6767ZM105.866 37.1429C106.848 37.1429 107.682 37.0437 108.368 36.8453V35.7292C107.682 35.9276 106.897 36.0268 106.014 36.0268C104.157 36.0268 103.229 35.2282 103.229 33.631H108.687C108.731 33.2738 108.753 32.939 108.753 32.6265C108.753 30.4291 107.648 29.3304 105.436 29.3304C103.052 29.3304 101.859 30.6027 101.859 33.1473C101.859 35.811 103.195 37.1429 105.866 37.1429ZM107.435 32.4851H103.229C103.318 31.1161 104.054 30.4316 105.436 30.4316C106.739 30.4316 107.406 31.1161 107.435 32.4851Z" fill="black"/>
<path d="M42.1761 37.2173C44.9109 37.2173 46.2784 36.1756 46.2784 34.0923C46.2784 32.1578 45.1504 31.1905 42.8943 31.1905H41.5318C40.2286 31.1905 39.5769 30.6201 39.5769 29.4792C39.5769 28.1895 40.5396 27.5447 42.4648 27.5447C43.699 27.5447 44.8468 27.7431 45.9081 28.1399V26.875C44.8468 26.5774 43.699 26.4286 42.4648 26.4286C39.6263 26.4286 38.207 27.4455 38.207 29.4792C38.207 31.4137 39.3153 32.381 41.5318 32.381H42.8943C44.2371 32.381 44.9085 32.9514 44.9085 34.0923C44.9085 35.4316 43.9977 36.1012 42.1761 36.1012C40.8876 36.1012 39.688 35.9028 38.5773 35.506V36.7709C39.688 37.0685 40.8876 37.2173 42.1761 37.2173ZM50.5288 37.1429L52.6466 31.3021L54.8754 37.1429H56.1269L58.1558 29.3304H56.7045L55.4604 35.4539L53.2982 29.3304H52.0616L50.04 35.4539L48.6627 29.3304H47.278L49.2477 37.1429H50.5288ZM65.7088 37.1429V31.756C65.7088 30.1389 64.5536 29.3304 62.2433 29.3304C61.4436 29.3304 60.6241 29.4544 59.7849 29.7024V30.8185C60.6241 30.5705 61.4436 30.4464 62.2433 30.4464C63.6404 30.4464 64.3389 30.8954 64.3389 31.7932V32.5298C63.6626 32.4306 62.9863 32.381 62.31 32.381C60.207 32.381 59.1555 33.1821 59.1555 34.7842C59.1555 36.3567 60.0811 37.1429 61.9323 37.1429C62.8456 37.1429 63.6897 36.8849 64.4648 36.3691L64.9387 37.1429H65.7088ZM61.9323 36.0268C60.9944 36.0268 60.5254 35.6052 60.5254 34.7619C60.5254 33.9187 61.1202 33.497 62.31 33.497C62.9863 33.497 63.6626 33.5466 64.3389 33.6459V35.2679C63.6823 35.7738 62.8801 36.0268 61.9323 36.0268ZM69.3002 39.9703V36.7709C69.8827 37.0189 70.485 37.1429 71.107 37.1429C73.6148 37.1429 74.8687 35.7763 74.8687 33.0432C74.8687 30.568 73.6222 29.3304 71.1292 29.3304C70.0283 29.3304 68.962 29.437 67.9303 29.6503V39.9703H69.3002ZM71.0996 35.9524C70.4381 35.9524 69.8383 35.8185 69.3002 35.5506V30.6548C69.8185 30.5357 70.4232 30.4762 71.1144 30.4762C72.7188 30.4762 73.521 31.3269 73.521 33.0283C73.521 34.9777 72.7138 35.9524 71.0996 35.9524ZM82.4216 37.1429V36.1012H77.9269L82.5697 30.4464V29.3304H76.4977V30.4464H81.0517L76.3496 36.1012V37.1429H82.4216ZM87.7532 37.1354C90.2215 37.1354 91.4556 35.8358 91.4556 33.2366C91.4556 30.6325 90.2215 29.3304 87.7532 29.3304C85.2849 29.3304 84.0507 30.6325 84.0507 33.2366C84.0606 35.8358 85.2947 37.1354 87.7532 37.1354ZM87.7532 36.0268C86.1981 36.0268 85.4206 35.0868 85.4206 33.2069C85.4206 31.3666 86.1981 30.4464 87.7532 30.4464C89.3082 30.4464 90.0857 31.3666 90.0857 33.2069C90.0857 35.0868 89.3082 36.0268 87.7532 36.0268ZM94.6767 37.1429V31.4658C95.3827 30.8061 96.1281 30.4762 96.913 30.4762C98.0632 30.4762 98.6384 31.0566 98.6384 32.2173V37.1429H100.008V32.2396C100.008 30.3001 99.0382 29.3304 97.0981 29.3304C96.1454 29.3304 95.2716 29.6627 94.4768 30.3274L94.2324 29.3304H93.3068V37.1429H94.6767ZM105.866 37.1429C106.848 37.1429 107.682 37.0437 108.368 36.8453V35.7292C107.682 35.9276 106.897 36.0268 106.014 36.0268C104.157 36.0268 103.229 35.2282 103.229 33.631H108.687C108.731 33.2738 108.753 32.939 108.753 32.6265C108.753 30.4291 107.648 29.3304 105.436 29.3304C103.052 29.3304 101.859 30.6027 101.859 33.1473C101.859 35.811 103.195 37.1429 105.866 37.1429ZM107.435 32.4851H103.229C103.318 31.1161 104.054 30.4316 105.436 30.4316C106.739 30.4316 107.406 31.1161 107.435 32.4851Z" fill="black"/>
</g>
<defs>
<clipPath id="clip0_8924_85500">
<rect width="109" height="40" fill="white" transform="translate(0.5)"/>
</clipPath>
</defs>
</svg>
