<svg width="155" height="40" viewBox="0 0 155 40" fill="none" xmlns="http://www.w3.org/2000/svg">
<g clip-path="url(#clip0_8924_85504)">
<path fill-rule="evenodd" clip-rule="evenodd" d="M17.6545 12.6015C17.6545 17.352 13.8143 21.203 9.07724 21.203C4.34015 21.203 0.5 17.352 0.5 12.6015C0.5 7.85103 4.34015 4 9.07724 4C13.8143 4 17.6545 7.85103 17.6545 12.6015ZM14.2236 9.10544C14.2236 9.7184 13.728 10.2153 13.1168 10.2153C12.5056 10.2153 12.0101 9.7184 12.0101 9.10544C12.0101 8.49248 12.5056 7.99556 13.1168 7.99556C13.728 7.99556 14.2236 8.49248 14.2236 9.10544ZM9.02187 9.10536C10.1221 9.10536 11.0141 8.50912 11.0141 7.77353C11.0141 7.03797 10.1221 6.44168 9.02187 6.44168C7.92168 6.44168 7.02977 7.03797 7.02977 7.77353C7.02977 8.50912 7.92168 9.10536 9.02187 9.10536Z" fill="#535353"/>
<path d="M97.8778 16.8782C97.8778 15.9756 97.5618 15.2633 96.9291 14.7412C96.2971 14.2116 95.1409 13.7119 93.4597 13.242C91.7785 12.7647 90.5513 12.2463 89.7781 11.6868C88.6769 10.8962 88.1272 9.85939 88.1272 8.57651C88.1272 7.3309 88.6362 6.32023 89.6552 5.54451C90.6813 4.76133 91.9907 4.36975 93.5826 4.36975C94.6606 4.36975 95.6237 4.5786 96.4719 4.99629C97.3273 5.41398 97.9895 5.99577 98.4579 6.74165C98.9263 7.48753 99.1609 8.31915 99.1609 9.23659H97.7773C97.7773 8.12523 97.3983 7.23393 96.6394 6.56264C95.8806 5.88389 94.8617 5.54451 93.5826 5.54451C92.3402 5.54451 91.3508 5.82421 90.6151 6.38363C89.8786 6.93558 89.51 7.65909 89.51 8.55411C89.51 9.38203 89.8411 10.0571 90.5034 10.5792C91.1649 11.1013 92.2253 11.5638 93.6831 11.9665C95.1409 12.3619 96.2453 12.7758 96.9961 13.2084C97.7478 13.6336 98.3127 14.1445 98.6917 14.7412C99.0715 15.338 99.2614 16.0428 99.2614 16.8558C99.2614 18.1387 98.7476 19.168 97.7214 19.9437C96.7025 20.7195 95.3564 21.1073 93.6831 21.1073C92.5373 21.1073 91.4848 20.9022 90.5257 20.492C89.5738 20.0817 88.8485 19.5074 88.3498 18.769C87.859 18.0305 87.6133 17.184 87.6133 16.2292H88.9857C88.9857 17.3779 89.4134 18.2841 90.2688 18.948C91.1242 19.6118 92.262 19.9437 93.6831 19.9437C94.947 19.9437 95.9628 19.664 96.7288 19.1046C97.4948 18.5452 97.8778 17.8031 97.8778 16.8782Z" fill="#535353"/>
<path d="M103.599 14.249V20.8837H102.227V4.59363H107.76C109.449 4.59363 110.78 5.02624 111.754 5.89146C112.736 6.75668 113.227 7.94636 113.227 9.46047C113.227 10.9896 112.754 12.1717 111.81 13.0072C110.873 13.8351 109.512 14.249 107.727 14.249H103.599ZM103.599 13.0855H107.76C109.091 13.0855 110.107 12.7685 110.806 12.1345C111.505 11.5005 111.854 10.6166 111.854 9.48287C111.854 8.35663 111.505 7.46154 110.806 6.79771C110.114 6.12642 109.129 5.78331 107.85 5.7684H103.599V13.0855Z" fill="#535353"/>
<path d="M123.534 16.3189H116.16L114.486 20.8837H113.047L119.194 4.59363H120.5L126.647 20.8837H125.219L123.534 16.3189ZM116.584 15.1441H123.099L119.841 6.27186L116.584 15.1441Z" fill="#535353"/>
<path d="M140.414 15.8041C140.228 17.5196 139.614 18.8324 138.573 19.7424C137.539 20.6524 136.159 21.1073 134.434 21.1073C133.229 21.1073 132.162 20.8052 131.232 20.2011C130.31 19.5969 129.595 18.7428 129.09 17.639C128.584 16.5276 128.327 15.2596 128.32 13.835V11.7204C128.32 10.2734 128.572 8.99051 129.078 7.87166C129.584 6.75284 130.31 5.89134 131.254 5.28718C132.206 4.67556 133.299 4.36975 134.535 4.36975C136.275 4.36975 137.646 4.84338 138.651 5.79065C139.663 6.73046 140.25 8.03203 140.414 9.69531H139.03C138.688 6.92812 137.189 5.54451 134.535 5.54451C133.062 5.54451 131.886 6.09646 131.009 7.20037C130.139 8.30427 129.703 9.82963 129.703 11.7764V13.7679C129.703 15.6475 130.128 17.1467 130.975 18.2655C131.83 19.3844 132.983 19.9437 134.434 19.9437C135.87 19.9437 136.952 19.6006 137.68 18.9144C138.409 18.2208 138.859 17.184 139.03 15.8041H140.414Z" fill="#535353"/>
<path d="M152.723 13.0743H145.126V19.7201H153.861V20.8837H143.754V4.59363H153.805V5.7684H145.126V11.9107H152.723V13.0743Z" fill="#535353"/>
<path d="M97.8778 16.8782C97.8778 15.9756 97.5618 15.2633 96.9291 14.7412C96.2971 14.2116 95.1409 13.7119 93.4597 13.242C91.7785 12.7647 90.5513 12.2463 89.7781 11.6868C88.6769 10.8962 88.1272 9.85939 88.1272 8.57651C88.1272 7.3309 88.6362 6.32023 89.6552 5.54451C90.6813 4.76133 91.9907 4.36975 93.5826 4.36975C94.6606 4.36975 95.6237 4.5786 96.4719 4.99629C97.3273 5.41398 97.9895 5.99577 98.4579 6.74165C98.9263 7.48753 99.1609 8.31915 99.1609 9.23659H97.7773C97.7773 8.12523 97.3983 7.23393 96.6394 6.56264C95.8806 5.88389 94.8617 5.54451 93.5826 5.54451C92.3402 5.54451 91.3508 5.82421 90.6151 6.38363C89.8786 6.93558 89.51 7.65909 89.51 8.55411C89.51 9.38203 89.8411 10.0571 90.5034 10.5792C91.1649 11.1013 92.2253 11.5638 93.6831 11.9665C95.1409 12.3619 96.2453 12.7758 96.9961 13.2084C97.7478 13.6336 98.3127 14.1445 98.6917 14.7412C99.0715 15.338 99.2614 16.0428 99.2614 16.8558C99.2614 18.1387 98.7476 19.168 97.7214 19.9437C96.7025 20.7195 95.3564 21.1073 93.6831 21.1073C92.5373 21.1073 91.4848 20.9022 90.5257 20.492C89.5738 20.0817 88.8485 19.5074 88.3498 18.769C87.859 18.0305 87.6133 17.184 87.6133 16.2292H88.9857C88.9857 17.3779 89.4134 18.2841 90.2688 18.948C91.1242 19.6118 92.262 19.9437 93.6831 19.9437C94.947 19.9437 95.9628 19.664 96.7288 19.1046C97.4948 18.5452 97.8778 17.8031 97.8778 16.8782Z" fill="#535353"/>
<path d="M32.8225 16.6096C32.8225 15.9756 32.5994 15.4908 32.1531 15.1552C31.7068 14.8121 30.9035 14.454 29.7433 14.0812C28.583 13.7008 27.6644 13.3278 26.9876 12.9623C25.1431 11.9628 24.2207 10.6165 24.2207 8.92331C24.2207 8.04323 24.4662 7.26004 24.9571 6.57383C25.4554 5.88016 26.1658 5.3394 27.088 4.95153C28.0177 4.56368 29.059 4.36975 30.2119 4.36975C31.3722 4.36975 32.406 4.58233 33.3133 5.00748C34.2208 5.42517 34.9236 6.01814 35.422 6.78641C35.9278 7.55466 36.1806 8.42731 36.1806 9.40443H32.8336C32.8336 8.65859 32.5994 8.08051 32.1308 7.67027C31.6622 7.25257 31.004 7.04374 30.1561 7.04374C29.3379 7.04374 28.702 7.21902 28.2483 7.56958C27.7946 7.91268 27.5677 8.36763 27.5677 8.93451C27.5677 9.46411 27.8317 9.90795 28.3599 10.266C28.8954 10.624 29.6801 10.9596 30.7139 11.2729C32.618 11.8472 34.0051 12.5596 34.8753 13.4098C35.7455 14.2601 36.1806 15.3193 36.1806 16.5873C36.1806 17.997 35.6488 19.1046 34.5852 19.9102C33.5216 20.7083 32.0899 21.1073 30.2899 21.1073C29.0404 21.1073 27.9024 20.8798 26.8761 20.4248C25.8496 19.9624 25.0649 19.3321 24.522 18.534C23.9865 17.736 23.7188 16.8111 23.7188 15.7593H27.0768C27.0768 17.5569 28.1479 18.4557 30.2899 18.4557C31.0858 18.4557 31.7068 18.2953 32.1531 17.9746C32.5994 17.6464 32.8225 17.1915 32.8225 16.6096Z" fill="black"/>
<path d="M51.1099 16.1845L53.2967 4.59351H56.6325L53.0289 20.8835H49.6596L47.0155 9.98619L44.3714 20.8835H41.002L37.3984 4.59351H40.7343L42.9321 16.1621L45.6098 4.59351H48.4435L51.1099 16.1845Z" fill="black"/>
<path d="M67.129 17.5271H61.2606L60.1449 20.8835H56.5859L62.6329 4.59351H65.7344L71.8147 20.8835H68.2558L67.129 17.5271ZM62.1643 14.8083H66.2253L64.1836 8.71075L62.1643 14.8083Z" fill="black"/>
<path d="M76.679 15.144V20.8835H73.332V4.59351H79.6689C80.8888 4.59351 81.9596 4.81727 82.882 5.2648C83.8116 5.71233 84.5258 6.35006 85.0245 7.17799C85.5224 7.99845 85.7713 8.93451 85.7713 9.98619C85.7713 11.5824 85.2247 12.843 84.1316 13.7679C83.0456 14.6853 81.5399 15.144 79.6132 15.144H76.679ZM76.679 12.4252H79.6689C80.5537 12.4252 81.2271 12.2164 81.6883 11.7987C82.1567 11.381 82.3913 10.7843 82.3913 10.0086C82.3913 9.21051 82.1567 8.56531 81.6883 8.07307C81.2199 7.58076 80.5728 7.32716 79.747 7.31224H76.679V12.4252Z" fill="black"/>
<path d="M32.8225 16.6096C32.8225 15.9756 32.5994 15.4908 32.1531 15.1552C31.7068 14.8121 30.9035 14.454 29.7433 14.0812C28.583 13.7008 27.6644 13.3278 26.9876 12.9623C25.1431 11.9628 24.2207 10.6165 24.2207 8.92331C24.2207 8.04323 24.4662 7.26004 24.9571 6.57383C25.4554 5.88016 26.1658 5.3394 27.088 4.95153C28.0177 4.56368 29.059 4.36975 30.2119 4.36975C31.3722 4.36975 32.406 4.58233 33.3133 5.00748C34.2208 5.42517 34.9236 6.01814 35.422 6.78641C35.9278 7.55466 36.1806 8.42731 36.1806 9.40443H32.8336C32.8336 8.65859 32.5994 8.08051 32.1308 7.67027C31.6622 7.25257 31.004 7.04374 30.1561 7.04374C29.3379 7.04374 28.702 7.21902 28.2483 7.56958C27.7946 7.91268 27.5677 8.36763 27.5677 8.93451C27.5677 9.46411 27.8317 9.90795 28.3599 10.266C28.8954 10.624 29.6801 10.9596 30.7139 11.2729C32.618 11.8472 34.0051 12.5596 34.8753 13.4098C35.7455 14.2601 36.1806 15.3193 36.1806 16.5873C36.1806 17.997 35.6488 19.1046 34.5852 19.9102C33.5216 20.7083 32.0899 21.1073 30.2899 21.1073C29.0404 21.1073 27.9024 20.8798 26.8761 20.4248C25.8496 19.9624 25.0649 19.3321 24.522 18.534C23.9865 17.736 23.7188 16.8111 23.7188 15.7593H27.0768C27.0768 17.5569 28.1479 18.4557 30.2899 18.4557C31.0858 18.4557 31.7068 18.2953 32.1531 17.9746C32.5994 17.6464 32.8225 17.1915 32.8225 16.6096Z" fill="black"/>
<path d="M51.1099 16.1845L53.2967 4.59351H56.6325L53.0289 20.8835H49.6596L47.0155 9.98619L44.3714 20.8835H41.002L37.3984 4.59351H40.7343L42.9321 16.1621L45.6098 4.59351H48.4435L51.1099 16.1845Z" fill="black"/>
<path d="M67.129 17.5271H61.2606L60.1449 20.8835H56.5859L62.6329 4.59351H65.7344L71.8147 20.8835H68.2558L67.129 17.5271ZM62.1643 14.8083H66.2253L64.1836 8.71075L62.1643 14.8083Z" fill="black"/>
<path d="M76.679 15.144V20.8835H73.332V4.59351H79.6689C80.8888 4.59351 81.9596 4.81727 82.882 5.2648C83.8116 5.71233 84.5258 6.35006 85.0245 7.17799C85.5224 7.99845 85.7713 8.93451 85.7713 9.98619C85.7713 11.5824 85.2247 12.843 84.1316 13.7679C83.0456 14.6853 81.5399 15.144 79.6132 15.144H76.679ZM76.679 12.4252H79.6689C80.5537 12.4252 81.2271 12.2164 81.6883 11.7987C82.1567 11.381 82.3913 10.7843 82.3913 10.0086C82.3913 9.21051 82.1567 8.56531 81.6883 8.07307C81.2199 7.58076 80.5728 7.32716 79.747 7.31224H76.679V12.4252Z" fill="black"/>
<path d="M28.8666 32.0848H29.8242C29.7743 32.5449 29.643 32.9566 29.4302 33.3199C29.2174 33.6833 28.9165 33.9716 28.5275 34.185C28.1385 34.395 27.653 34.5 27.0712 34.5C26.6455 34.5 26.2582 34.42 25.9091 34.26C25.5632 34.1 25.2657 33.8733 25.0163 33.5799C24.7669 33.2833 24.574 32.9282 24.4378 32.5149C24.3047 32.0982 24.2383 31.6348 24.2383 31.1247V30.3997C24.2383 29.8896 24.3047 29.4279 24.4378 29.0146C24.574 28.5978 24.7686 28.2412 25.0213 27.9445C25.2773 27.6478 25.5849 27.4194 25.9439 27.2594C26.3031 27.0994 26.7071 27.0194 27.1559 27.0194C27.7046 27.0194 28.1684 27.1227 28.5474 27.3294C28.9264 27.5361 29.2207 27.8228 29.4302 28.1895C29.643 28.5529 29.7743 28.9746 29.8242 29.4546H28.8666C28.8201 29.1146 28.7336 28.8229 28.6073 28.5795C28.4809 28.3328 28.3013 28.1428 28.0687 28.0094C27.8359 27.8762 27.5316 27.8094 27.1559 27.8094C26.8334 27.8094 26.5491 27.8711 26.3031 27.9945C26.0603 28.1178 25.8558 28.2928 25.6896 28.5195C25.5267 28.7462 25.4037 29.0179 25.3205 29.3346C25.2374 29.6513 25.1959 30.003 25.1959 30.3897V31.1247C25.1959 31.4814 25.2324 31.8165 25.3056 32.1298C25.382 32.4432 25.4968 32.7182 25.6497 32.9549C25.8026 33.1916 25.9972 33.3782 26.2333 33.515C26.4693 33.6482 26.7486 33.715 27.0712 33.715C27.4801 33.715 27.806 33.6499 28.0487 33.5199C28.2914 33.3899 28.4742 33.2032 28.5973 32.9599C28.7237 32.7166 28.8134 32.4248 28.8666 32.0848ZM31.9189 29.8396V34.4H30.9962V28.9895H31.894L31.9189 29.8396ZM33.6047 28.9595L33.5997 29.8196C33.5232 29.803 33.4501 29.793 33.3802 29.7896C33.3137 29.783 33.2373 29.7796 33.1508 29.7796C32.938 29.7796 32.7502 29.813 32.5872 29.8796C32.4243 29.9463 32.2863 30.0397 32.1733 30.1597C32.0602 30.2797 31.9704 30.423 31.904 30.5897C31.8408 30.753 31.7992 30.933 31.7793 31.1298L31.5199 31.2798C31.5199 30.953 31.5515 30.6463 31.6147 30.3597C31.6812 30.073 31.7826 29.8196 31.9189 29.5996C32.0553 29.3762 32.2282 29.2029 32.4376 29.0796C32.6504 28.9529 32.9031 28.8895 33.1957 28.8895C33.2622 28.8895 33.3387 28.8979 33.4251 28.9146C33.5116 28.9279 33.5715 28.9429 33.6047 28.9595ZM36.0635 33.8399L37.5647 28.9895H38.5522L36.3877 35.235C36.3378 35.3684 36.2713 35.5118 36.1882 35.6651C36.1084 35.8218 36.0053 35.9702 35.879 36.1102C35.7526 36.2502 35.5997 36.3635 35.4201 36.4502C35.2439 36.5402 35.0328 36.5852 34.7867 36.5852C34.7136 36.5852 34.6204 36.5752 34.5074 36.5552C34.3944 36.5352 34.3146 36.5185 34.268 36.5052L34.263 35.7551C34.2896 35.7585 34.3312 35.7618 34.3878 35.7651C34.4476 35.7718 34.4891 35.7751 34.5124 35.7751C34.7219 35.7751 34.8998 35.7468 35.046 35.6901C35.1924 35.6368 35.3153 35.5451 35.4152 35.4151C35.5182 35.2884 35.6064 35.1134 35.6794 34.8901L36.0635 33.8399ZM34.9613 28.9895L36.3628 33.1899L36.6022 34.165L35.9388 34.505L33.9538 28.9895H34.9613ZM40.3078 30.0297V36.4802H39.3802V28.9895H40.228L40.3078 30.0297ZM43.9437 31.6498V31.7548C43.9437 32.1482 43.8971 32.5132 43.804 32.8498C43.7109 33.1832 43.5746 33.4733 43.3951 33.7199C43.2188 33.9666 43.0011 34.1583 42.7417 34.295C42.4823 34.4317 42.1848 34.5 41.8489 34.5C41.5065 34.5 41.2039 34.4434 40.9412 34.33C40.6785 34.2166 40.4558 34.0516 40.273 33.835C40.0901 33.6182 39.9437 33.3582 39.834 33.0549C39.7276 32.7515 39.6545 32.4098 39.6146 32.0298V31.4698C39.6545 31.0698 39.7292 30.7114 39.839 30.3946C39.9488 30.078 40.0933 29.8079 40.273 29.5846C40.4558 29.3579 40.6769 29.1862 40.9363 29.0696C41.1956 28.9495 41.4948 28.8895 41.834 28.8895C42.1731 28.8895 42.474 28.9562 42.7367 29.0896C42.9994 29.2196 43.2205 29.4062 43.4 29.6496C43.5796 29.893 43.7143 30.1846 43.804 30.5247C43.8971 30.8614 43.9437 31.2364 43.9437 31.6498ZM43.016 31.7548V31.6498C43.016 31.3798 42.9877 31.1264 42.9312 30.8897C42.8747 30.6497 42.7866 30.4397 42.6669 30.2597C42.5506 30.0763 42.4009 29.933 42.2181 29.8296C42.0352 29.723 41.8173 29.6696 41.5646 29.6696C41.3319 29.6696 41.1291 29.7096 40.9562 29.7896C40.7867 29.8696 40.642 29.978 40.5223 30.1146C40.4026 30.248 40.3045 30.4014 40.228 30.5747C40.1549 30.7447 40.1 30.9214 40.0634 31.1047V32.3998C40.13 32.6332 40.223 32.8532 40.3428 33.0599C40.4625 33.2633 40.622 33.4282 40.8215 33.555C41.021 33.6782 41.272 33.7399 41.5746 33.7399C41.824 33.7399 42.0384 33.6882 42.2181 33.585C42.4009 33.4782 42.5506 33.3333 42.6669 33.1499C42.7866 32.9666 42.8747 32.7566 42.9312 32.5198C42.9877 32.2798 43.016 32.0248 43.016 31.7548ZM47.38 28.9895V29.6996H44.4624V28.9895H47.38ZM45.4499 27.6745H46.3725V33.0599C46.3725 33.2432 46.4008 33.3816 46.4574 33.475C46.5139 33.5682 46.587 33.6299 46.6768 33.6599C46.7666 33.6899 46.863 33.705 46.966 33.705C47.0426 33.705 47.1224 33.6982 47.2055 33.685C47.2919 33.6682 47.3568 33.655 47.4 33.645L47.405 34.4C47.3318 34.4234 47.2354 34.445 47.1157 34.465C46.9993 34.4883 46.858 34.5 46.6918 34.5C46.4657 34.5 46.2579 34.455 46.0683 34.365C45.8788 34.275 45.7275 34.125 45.6144 33.915C45.5047 33.7016 45.4499 33.4149 45.4499 33.0549V27.6745ZM48.1182 31.7548V31.6398C48.1182 31.2498 48.1747 30.8881 48.2877 30.5547C48.4008 30.218 48.5637 29.9263 48.7765 29.6796C48.9894 29.4296 49.247 29.2362 49.5496 29.0996C49.8522 28.9595 50.1913 28.8895 50.567 28.8895C50.946 28.8895 51.2869 28.9595 51.5895 29.0996C51.8953 29.2362 52.1547 29.4296 52.3675 29.6796C52.5836 29.9263 52.7482 30.218 52.8612 30.5547C52.9743 30.8881 53.0309 31.2498 53.0309 31.6398V31.7548C53.0309 32.1448 52.9743 32.5065 52.8612 32.8398C52.7482 33.1732 52.5836 33.465 52.3675 33.715C52.1547 33.9616 51.897 34.155 51.5944 34.295C51.2952 34.4317 50.956 34.5 50.577 34.5C50.198 34.5 49.8572 34.4317 49.5546 34.295C49.252 34.155 48.9926 33.9616 48.7765 33.715C48.5637 33.465 48.4008 33.1732 48.2877 32.8398C48.1747 32.5065 48.1182 32.1448 48.1182 31.7548ZM49.0409 31.6398V31.7548C49.0409 32.0248 49.0724 32.2798 49.1356 32.5198C49.1988 32.7566 49.2935 32.9666 49.4199 33.1499C49.5496 33.3333 49.7108 33.4782 49.9037 33.585C50.0966 33.6882 50.3209 33.7399 50.577 33.7399C50.8297 33.7399 51.0508 33.6882 51.2403 33.585C51.4332 33.4782 51.5927 33.3333 51.7191 33.1499C51.8455 32.9666 51.9402 32.7566 52.0034 32.5198C52.0699 32.2798 52.1032 32.0248 52.1032 31.7548V31.6398C52.1032 31.3731 52.0699 31.1214 52.0034 30.8847C51.9402 30.6447 51.8438 30.433 51.7141 30.2497C51.5878 30.063 51.4282 29.9163 51.2354 29.8096C51.0459 29.703 50.8231 29.6496 50.567 29.6496C50.3143 29.6496 50.0915 29.703 49.8987 29.8096C49.7092 29.9163 49.5496 30.063 49.4199 30.2497C49.2935 30.433 49.1988 30.6447 49.1356 30.8847C49.0724 31.1214 49.0409 31.3731 49.0409 31.6398ZM61.4746 33.615V34.4H57.6292V33.615H61.4746ZM57.8238 27.1194V34.4H56.8612V27.1194H57.8238ZM60.9658 30.2497V31.0347H57.6292V30.2497H60.9658ZM61.4247 27.1194V27.9094H57.6292V27.1194H61.4247ZM63.1503 28.9895L64.3324 30.9597L65.5294 28.9895H66.6117L64.8461 31.6598L66.6666 34.4H65.5992L64.3523 32.3698L63.1055 34.4H62.0332L63.8486 31.6598L62.0881 28.9895H63.1503ZM69.654 33.7399C69.8734 33.7399 70.0763 33.695 70.2625 33.605C70.4487 33.515 70.6016 33.3916 70.7213 33.2349C70.841 33.0749 70.9092 32.8932 70.9258 32.6898H71.8036C71.7869 33.0099 71.6789 33.3082 71.4794 33.585C71.2832 33.8583 71.0256 34.08 70.7064 34.25C70.3871 34.4166 70.0364 34.5 69.654 34.5C69.2483 34.5 68.8943 34.4283 68.5917 34.285C68.2924 34.1417 68.0431 33.945 67.8436 33.695C67.6474 33.445 67.4994 33.1582 67.3997 32.8349C67.3032 32.5082 67.255 32.1631 67.255 31.7998V31.5898C67.255 31.2264 67.3032 30.883 67.3997 30.5597C67.4994 30.233 67.6474 29.9446 67.8436 29.6946C68.0431 29.4446 68.2924 29.2479 68.5917 29.1046C68.8943 28.9612 69.2483 28.8895 69.654 28.8895C70.0763 28.8895 70.4454 28.9762 70.7612 29.1496C71.0771 29.3196 71.3248 29.553 71.5044 29.8496C71.6872 30.143 71.7869 30.4763 71.8036 30.8497H70.9258C70.9092 30.6263 70.846 30.4246 70.7363 30.2446C70.6299 30.0646 70.4836 29.9213 70.2974 29.8146C70.1145 29.7046 69.9001 29.6496 69.654 29.6496C69.3714 29.6496 69.1337 29.7063 68.9408 29.8196C68.7513 29.9296 68.6 30.0797 68.4869 30.2697C68.3772 30.4563 68.2974 30.6647 68.2476 30.8947C68.201 31.1214 68.1778 31.3531 68.1778 31.5898V31.7998C68.1778 32.0365 68.201 32.2698 68.2476 32.4998C68.2941 32.7298 68.3722 32.9382 68.4819 33.1249C68.595 33.3116 68.7463 33.4616 68.9358 33.575C69.1286 33.685 69.368 33.7399 69.654 33.7399ZM73.7636 26.7194V34.4H72.841V26.7194H73.7636ZM73.5442 31.4898L73.1602 31.4748C73.1635 31.1047 73.2183 30.763 73.3248 30.4497C73.4311 30.133 73.5808 29.858 73.7736 29.6246C73.9665 29.3913 74.1959 29.2113 74.4619 29.0846C74.7312 28.9546 75.0288 28.8895 75.3546 28.8895C75.6207 28.8895 75.86 28.9262 76.0728 28.9995C76.2857 29.0696 76.4669 29.1829 76.6165 29.3396C76.7694 29.4962 76.8859 29.6996 76.9656 29.9496C77.0454 30.1963 77.0853 30.498 77.0853 30.8547V34.4H76.1577V30.8447C76.1577 30.5614 76.1161 30.3346 76.0329 30.1646C75.9498 29.9913 75.8284 29.8663 75.6689 29.7896C75.5093 29.7096 75.3131 29.6696 75.0804 29.6696C74.8509 29.6696 74.6414 29.7179 74.4519 29.8146C74.2658 29.9113 74.1045 30.0446 73.9682 30.2146C73.8351 30.3846 73.7304 30.5797 73.6539 30.7997C73.5808 31.0164 73.5442 31.2464 73.5442 31.4898ZM81.6491 33.475V30.6897C81.6491 30.4763 81.606 30.2914 81.519 30.1346C81.436 29.9746 81.31 29.8513 81.14 29.7646C80.9708 29.6779 80.761 29.6346 80.512 29.6346C80.279 29.6346 80.0745 29.6746 79.8983 29.7546C79.7254 29.8346 79.589 29.9396 79.4893 30.0697C79.3929 30.1997 79.3447 30.3397 79.3447 30.4897H78.4219C78.4219 30.2963 78.4718 30.1046 78.5716 29.9146C78.6713 29.7246 78.8143 29.553 79.0005 29.3996C79.19 29.2429 79.4161 29.1196 79.6788 29.0296C79.9448 28.9362 80.2407 28.8895 80.5663 28.8895C80.9589 28.8895 81.3044 28.9562 81.6036 29.0896C81.9068 29.2229 82.1422 29.4246 82.3122 29.6946C82.4853 29.9613 82.5715 30.2963 82.5715 30.6997V33.2199C82.5715 33.3999 82.5866 33.5916 82.6162 33.795C82.6497 33.9983 82.6976 34.1733 82.7614 34.32V34.4H81.7983C81.752 34.2934 81.7153 34.1517 81.689 33.975C81.6618 33.795 81.6491 33.6282 81.6491 33.475ZM81.8087 31.1198L81.8182 31.7698H80.8855C80.6229 31.7698 80.3884 31.7914 80.1825 31.8348C79.9764 31.8748 79.8035 31.9365 79.6638 32.0198C79.5242 32.1031 79.4178 32.2082 79.3447 32.3348C79.2715 32.4582 79.2349 32.6032 79.2349 32.7698C79.2349 32.9399 79.2732 33.0949 79.3496 33.2349C79.4261 33.3749 79.5408 33.4866 79.6938 33.5699C79.85 33.6499 80.0412 33.6899 80.2673 33.6899C80.5495 33.6899 80.7993 33.6299 81.0155 33.5099C81.2318 33.3899 81.4025 33.2432 81.5294 33.0699C81.6587 32.8966 81.7289 32.7282 81.7384 32.5649L82.1326 33.0099C82.1095 33.1499 82.0464 33.3049 81.9427 33.475C81.8398 33.645 81.7017 33.8083 81.5294 33.965C81.3594 34.1183 81.1568 34.2466 80.9206 34.35C80.6876 34.45 80.4251 34.5 80.1326 34.5C79.7669 34.5 79.446 34.4283 79.1701 34.285C78.8974 34.1417 78.6846 33.95 78.5317 33.7099C78.382 33.4666 78.3072 33.1949 78.3072 32.8949C78.3072 32.6049 78.3638 32.3498 78.4768 32.1298C78.5898 31.9065 78.7528 31.7214 78.9656 31.5748C79.1784 31.4247 79.4344 31.3114 79.7337 31.2347C80.0329 31.1581 80.3668 31.1198 80.7363 31.1198H81.8087ZM84.9453 30.1446V34.4H84.0229V28.9895H84.8958L84.9453 30.1446ZM84.7259 31.4898L84.3421 31.4748C84.3453 31.1047 84.4003 30.763 84.5065 30.4497C84.6134 30.133 84.7626 29.858 84.9557 29.6246C85.148 29.3913 85.3778 29.2113 85.6435 29.0846C85.9132 28.9546 86.2108 28.8895 86.5364 28.8895C86.8029 28.8895 87.0423 28.9262 87.2545 28.9995C87.4676 29.0696 87.6487 29.1829 87.7987 29.3396C87.9511 29.4962 88.0676 29.6996 88.1474 29.9496C88.2272 30.1963 88.2671 30.498 88.2671 30.8547V34.4H87.3399V30.8447C87.3399 30.5614 87.2976 30.3346 87.2146 30.1646C87.1316 29.9913 87.0104 29.8663 86.8508 29.7896C86.6912 29.7096 86.4949 29.6696 86.2619 29.6696C86.0329 29.6696 85.823 29.7179 85.6339 29.8146C85.4472 29.9113 85.286 30.0446 85.1504 30.2146C85.0171 30.3846 84.9126 30.5797 84.836 30.7997C84.7626 31.0164 84.7259 31.2464 84.7259 31.4898ZM93.1648 28.9895H94.0026V34.285C94.0026 34.7617 93.906 35.1684 93.7137 35.5051C93.5206 35.8418 93.2509 36.0968 92.9054 36.2702C92.5631 36.4468 92.1674 36.5352 91.7181 36.5352C91.5322 36.5352 91.3128 36.5052 91.0598 36.4452C90.8109 36.3885 90.5651 36.2902 90.3218 36.1502C90.0824 36.0134 89.8813 35.8285 89.7185 35.5951L90.2021 35.045C90.4287 35.3184 90.6649 35.5084 90.9106 35.6151C91.1596 35.7218 91.4061 35.7751 91.6487 35.7751C91.9415 35.7751 92.1937 35.7201 92.4067 35.6101C92.6198 35.5001 92.7842 35.3367 92.9007 35.1201C93.0203 34.9067 93.0802 34.6434 93.0802 34.33V30.1797L93.1648 28.9895ZM89.4488 31.7548V31.6498C89.4488 31.2364 89.4975 30.8614 89.594 30.5247C89.6938 30.1846 89.835 29.893 90.0177 29.6496C90.2037 29.4062 90.4287 29.2196 90.6912 29.0896C90.9537 28.9562 91.2497 28.8895 91.5785 28.8895C91.9176 28.8895 92.2136 28.9495 92.4666 29.0696C92.7227 29.1862 92.939 29.3579 93.1153 29.5846C93.2948 29.8079 93.4361 30.078 93.539 30.3946C93.6419 30.7114 93.7137 31.0698 93.7536 31.4698V31.9298C93.7169 32.3265 93.6451 32.6832 93.539 32.9999C93.4361 33.3166 93.2948 33.5866 93.1153 33.8099C92.939 34.0333 92.7227 34.205 92.4666 34.325C92.2105 34.4417 91.9112 34.5 91.5689 34.5C91.2466 34.5 90.9537 34.4317 90.6912 34.295C90.4319 34.1583 90.2092 33.9666 90.0225 33.7199C89.8366 33.4733 89.6938 33.1832 89.594 32.8498C89.4975 32.5132 89.4488 32.1482 89.4488 31.7548ZM90.372 31.6498V31.7548C90.372 32.0248 90.3984 32.2782 90.4518 32.5149C90.5085 32.7515 90.5931 32.9599 90.7064 33.1399C90.8221 33.3199 90.9705 33.4616 91.15 33.565C91.3295 33.665 91.5442 33.715 91.7931 33.715C92.0995 33.715 92.3517 33.6499 92.5512 33.5199C92.7506 33.3899 92.9086 33.2182 93.0251 33.0049C93.1448 32.7915 93.2382 32.5598 93.3044 32.3098V31.1047C93.2677 30.9214 93.2111 30.7447 93.1352 30.5747C93.0618 30.4014 92.9653 30.248 92.8456 30.1146C92.7291 29.978 92.5847 29.8696 92.4115 29.7896C92.2392 29.7096 92.0357 29.6696 91.8035 29.6696C91.5506 29.6696 91.3327 29.723 91.15 29.8296C90.9705 29.933 90.8221 30.0763 90.7064 30.2597C90.5931 30.4397 90.5085 30.6497 90.4518 30.8897C90.3984 31.1264 90.372 31.3798 90.372 31.6498ZM97.6435 34.5C97.2677 34.5 96.927 34.4366 96.6214 34.31C96.319 34.18 96.0573 33.9983 95.8378 33.765C95.6224 33.5316 95.4556 33.2549 95.3391 32.9349C95.2234 32.6149 95.1652 32.2648 95.1652 31.8848V31.6748C95.1652 31.2347 95.2298 30.843 95.3591 30.4997C95.4891 30.153 95.6655 29.8596 95.8881 29.6196C96.1107 29.3796 96.3637 29.1979 96.6461 29.0746C96.9286 28.9512 97.2214 28.8895 97.5238 28.8895C97.9092 28.8895 98.242 28.9562 98.5213 29.0896C98.8037 29.2229 99.0351 29.4096 99.2147 29.6496C99.3942 29.8863 99.5274 30.1663 99.6136 30.4897C99.6998 30.8097 99.7437 31.1598 99.7437 31.5398V31.9548H95.7133V31.1998H98.8205V31.1298C98.8077 30.8897 98.7574 30.6564 98.6713 30.4297C98.5883 30.203 98.455 30.0163 98.2723 29.8696C98.0888 29.723 97.8398 29.6496 97.5238 29.6496C97.3148 29.6496 97.1217 29.6946 96.9454 29.7846C96.769 29.8713 96.6182 30.0013 96.4913 30.1746C96.3653 30.348 96.2671 30.5597 96.1969 30.8097C96.1275 31.0598 96.0924 31.3481 96.0924 31.6748V31.8848C96.0924 32.1415 96.1275 32.3832 96.1969 32.6098C96.2703 32.8332 96.3748 33.0299 96.5113 33.1999C96.6509 33.3699 96.8193 33.5033 97.0156 33.5999C97.215 33.6966 97.4409 33.745 97.6938 33.745C98.0194 33.745 98.2954 33.6782 98.5213 33.545C98.7479 33.4116 98.945 33.2332 99.1149 33.0099L99.6735 33.455C99.557 33.6316 99.4094 33.7999 99.2298 33.96C99.0503 34.12 98.8293 34.25 98.5659 34.35C98.3066 34.45 97.9994 34.5 97.6435 34.5ZM106.182 27.7645L103.778 34.4H102.796L105.564 27.1194H106.197L106.182 27.7645ZM108.197 34.4L105.788 27.7645L105.773 27.1194H106.406L109.185 34.4H108.197ZM108.072 31.7048V32.4949H103.993V31.7048H108.072ZM113.514 28.9895H114.351V34.285C114.351 34.7617 114.255 35.1684 114.062 35.5051C113.869 35.8418 113.6 36.0968 113.254 36.2702C112.912 36.4468 112.516 36.5352 112.068 36.5352C111.881 36.5352 111.662 36.5052 111.409 36.4452C111.16 36.3885 110.914 36.2902 110.67 36.1502C110.431 36.0134 110.23 35.8285 110.067 35.5951L110.551 35.045C110.777 35.3184 111.014 35.5084 111.259 35.6151C111.509 35.7218 111.755 35.7751 111.997 35.7751C112.29 35.7751 112.542 35.7201 112.755 35.6101C112.969 35.5001 113.133 35.3367 113.249 35.1201C113.369 34.9067 113.429 34.6434 113.429 34.33V30.1797L113.514 28.9895ZM109.798 31.7548V31.6498C109.798 31.2364 109.846 30.8614 109.943 30.5247C110.043 30.1846 110.184 29.893 110.366 29.6496C110.552 29.4062 110.777 29.2196 111.04 29.0896C111.302 28.9562 111.598 28.8895 111.928 28.8895C112.267 28.8895 112.562 28.9495 112.815 29.0696C113.071 29.1862 113.288 29.3579 113.464 29.5846C113.644 29.8079 113.785 30.078 113.888 30.3946C113.991 30.7114 114.062 31.0698 114.102 31.4698V31.9298C114.066 32.3265 113.994 32.6832 113.888 32.9999C113.785 33.3166 113.644 33.5866 113.464 33.8099C113.288 34.0333 113.071 34.205 112.815 34.325C112.559 34.4417 112.26 34.5 111.918 34.5C111.595 34.5 111.302 34.4317 111.04 34.295C110.781 34.1583 110.558 33.9666 110.371 33.7199C110.185 33.4733 110.043 33.1832 109.943 32.8498C109.846 32.5132 109.798 32.1482 109.798 31.7548ZM110.721 31.6498V31.7548C110.721 32.0248 110.747 32.2782 110.801 32.5149C110.857 32.7515 110.942 32.9599 111.055 33.1399C111.172 33.3199 111.319 33.4616 111.499 33.565C111.678 33.665 111.893 33.715 112.142 33.715C112.448 33.715 112.7 33.6499 112.9 33.5199C113.099 33.3899 113.257 33.2182 113.374 33.0049C113.494 32.7915 113.587 32.5598 113.653 32.3098V31.1047C113.616 30.9214 113.561 30.7447 113.484 30.5747C113.411 30.4014 113.314 30.248 113.194 30.1146C113.078 29.978 112.933 29.8696 112.76 29.7896C112.588 29.7096 112.385 29.6696 112.152 29.6696C111.899 29.6696 111.681 29.723 111.499 29.8296C111.319 29.933 111.172 30.0763 111.055 30.2597C110.942 30.4397 110.857 30.6497 110.801 30.8897C110.747 31.1264 110.721 31.3798 110.721 31.6498ZM119.249 28.9895H120.087V34.285C120.087 34.7617 119.991 35.1684 119.798 35.5051C119.605 35.8418 119.336 36.0968 118.99 36.2702C118.647 36.4468 118.252 36.5352 117.803 36.5352C117.616 36.5352 117.397 36.5052 117.145 36.4452C116.895 36.3885 116.649 36.2902 116.407 36.1502C116.167 36.0134 115.966 35.8285 115.803 35.5951L116.286 35.045C116.513 35.3184 116.749 35.5084 116.995 35.6151C117.245 35.7218 117.49 35.7751 117.733 35.7751C118.026 35.7751 118.279 35.7201 118.491 35.6101C118.704 35.5001 118.868 35.3367 118.985 35.1201C119.105 34.9067 119.164 34.6434 119.164 34.33V30.1797L119.249 28.9895ZM115.534 31.7548V31.6498C115.534 31.2364 115.582 30.8614 115.678 30.5247C115.778 30.1846 115.919 29.893 116.102 29.6496C116.289 29.4062 116.513 29.2196 116.775 29.0896C117.038 28.9562 117.334 28.8895 117.664 28.8895C118.003 28.8895 118.299 28.9495 118.551 29.0696C118.807 29.1862 119.023 29.3579 119.2 29.5846C119.379 29.8079 119.52 30.078 119.623 30.3946C119.726 30.7114 119.798 31.0698 119.838 31.4698V31.9298C119.801 32.3265 119.729 32.6832 119.623 32.9999C119.52 33.3166 119.379 33.5866 119.2 33.8099C119.023 34.0333 118.807 34.205 118.551 34.325C118.295 34.4417 117.995 34.5 117.653 34.5C117.331 34.5 117.038 34.4317 116.775 34.295C116.516 34.1583 116.293 33.9666 116.107 33.7199C115.921 33.4733 115.778 33.1832 115.678 32.8498C115.582 32.5132 115.534 32.1482 115.534 31.7548ZM116.456 31.6498V31.7548C116.456 32.0248 116.483 32.2782 116.536 32.5149C116.593 32.7515 116.677 32.9599 116.791 33.1399C116.907 33.3199 117.055 33.4616 117.234 33.565C117.414 33.665 117.628 33.715 117.877 33.715C118.184 33.715 118.436 33.6499 118.635 33.5199C118.836 33.3899 118.993 33.2182 119.109 33.0049C119.229 32.7915 119.322 32.5598 119.389 32.3098V31.1047C119.352 30.9214 119.296 30.7447 119.219 30.5747C119.146 30.4014 119.05 30.248 118.93 30.1146C118.813 29.978 118.669 29.8696 118.496 29.7896C118.323 29.7096 118.121 29.6696 117.888 29.6696C117.635 29.6696 117.417 29.723 117.234 29.8296C117.055 29.933 116.907 30.0763 116.791 30.2597C116.677 30.4397 116.593 30.6497 116.536 30.8897C116.483 31.1264 116.456 31.3798 116.456 31.6498ZM122.411 29.8396V34.4H121.489V28.9895H122.386L122.411 29.8396ZM124.097 28.9595L124.092 29.8196C124.016 29.803 123.942 29.793 123.873 29.7896C123.806 29.783 123.729 29.7796 123.643 29.7796C123.43 29.7796 123.243 29.813 123.08 29.8796C122.917 29.9463 122.779 30.0397 122.666 30.1597C122.552 30.2797 122.463 30.423 122.396 30.5897C122.333 30.753 122.292 30.933 122.272 31.1298L122.012 31.2798C122.012 30.953 122.044 30.6463 122.107 30.3597C122.173 30.073 122.275 29.8196 122.411 29.5996C122.548 29.3762 122.721 29.2029 122.93 29.0796C123.143 28.9529 123.396 28.8895 123.688 28.8895C123.755 28.8895 123.831 28.8979 123.918 28.9146C124.004 28.9279 124.064 28.9429 124.097 28.9595ZM127.089 34.5C126.714 34.5 126.373 34.4366 126.067 34.31C125.765 34.18 125.503 33.9983 125.284 33.765C125.068 33.5316 124.902 33.2549 124.785 32.9349C124.669 32.6149 124.611 32.2648 124.611 31.8848V31.6748C124.611 31.2347 124.676 30.843 124.805 30.4997C124.935 30.153 125.111 29.8596 125.334 29.6196C125.557 29.3796 125.81 29.1979 126.092 29.0746C126.375 28.9512 126.667 28.8895 126.97 28.8895C127.355 28.8895 127.688 28.9562 127.967 29.0896C128.25 29.2229 128.481 29.4096 128.661 29.6496C128.84 29.8863 128.973 30.1663 129.06 30.4897C129.146 30.8097 129.19 31.1598 129.19 31.5398V31.9548H125.159V31.1998H128.266V31.1298C128.254 30.8897 128.203 30.6564 128.117 30.4297C128.034 30.203 127.901 30.0163 127.718 29.8696C127.535 29.723 127.286 29.6496 126.97 29.6496C126.761 29.6496 126.568 29.6946 126.391 29.7846C126.215 29.8713 126.064 30.0013 125.937 30.1746C125.811 30.348 125.713 30.5597 125.643 30.8097C125.573 31.0598 125.538 31.3481 125.538 31.6748V31.8848C125.538 32.1415 125.573 32.3832 125.643 32.6098C125.716 32.8332 125.821 33.0299 125.957 33.1999C126.097 33.3699 126.265 33.5033 126.461 33.5999C126.661 33.6966 126.887 33.745 127.14 33.745C127.465 33.745 127.741 33.6782 127.967 33.545C128.194 33.4116 128.391 33.2332 128.561 33.0099L129.119 33.455C129.003 33.6316 128.855 33.7999 128.676 33.96C128.496 34.12 128.275 34.25 128.012 34.35C127.753 34.45 127.445 34.5 127.089 34.5ZM133.763 28.9895H134.6V34.285C134.6 34.7617 134.505 35.1684 134.312 35.5051C134.118 35.8418 133.85 36.0968 133.503 36.2702C133.161 36.4468 132.765 36.5352 132.317 36.5352C132.13 36.5352 131.911 36.5052 131.658 36.4452C131.409 36.3885 131.163 36.2902 130.92 36.1502C130.68 36.0134 130.479 35.8285 130.316 35.5951L130.8 35.045C131.026 35.3184 131.263 35.5084 131.508 35.6151C131.758 35.7218 132.004 35.7751 132.246 35.7751C132.539 35.7751 132.792 35.7201 133.004 35.6101C133.218 35.5001 133.382 35.3367 133.498 35.1201C133.618 34.9067 133.678 34.6434 133.678 34.33V30.1797L133.763 28.9895ZM130.047 31.7548V31.6498C130.047 31.2364 130.095 30.8614 130.192 30.5247C130.292 30.1846 130.433 29.893 130.615 29.6496C130.802 29.4062 131.026 29.2196 131.289 29.0896C131.551 28.9562 131.847 28.8895 132.177 28.8895C132.516 28.8895 132.812 28.9495 133.064 29.0696C133.32 29.1862 133.537 29.3579 133.713 29.5846C133.893 29.8079 134.034 30.078 134.137 30.3946C134.24 30.7114 134.311 31.0698 134.351 31.4698V31.9298C134.315 32.3265 134.243 32.6832 134.137 32.9999C134.034 33.3166 133.893 33.5866 133.713 33.8099C133.537 34.0333 133.32 34.205 133.064 34.325C132.808 34.4417 132.509 34.5 132.167 34.5C131.844 34.5 131.551 34.4317 131.289 34.295C131.03 34.1583 130.807 33.9666 130.62 33.7199C130.434 33.4733 130.292 33.1832 130.192 32.8498C130.095 32.5132 130.047 32.1482 130.047 31.7548ZM130.97 31.6498V31.7548C130.97 32.0248 130.996 32.2782 131.05 32.5149C131.106 32.7515 131.191 32.9599 131.304 33.1399C131.421 33.3199 131.568 33.4616 131.748 33.565C131.927 33.665 132.142 33.715 132.391 33.715C132.697 33.715 132.949 33.6499 133.149 33.5199C133.348 33.3899 133.506 33.2182 133.623 33.0049C133.743 32.7915 133.836 32.5598 133.902 32.3098V31.1047C133.865 30.9214 133.81 30.7447 133.733 30.5747C133.66 30.4014 133.563 30.248 133.443 30.1146C133.327 29.978 133.182 29.8696 133.009 29.7896C132.837 29.7096 132.634 29.6696 132.401 29.6696C132.148 29.6696 131.93 29.723 131.748 29.8296C131.568 29.933 131.421 30.0763 131.304 30.2597C131.191 30.4397 131.106 30.6497 131.05 30.8897C130.996 31.1264 130.97 31.3798 130.97 31.6498ZM139.184 33.475V30.6897C139.184 30.4763 139.141 30.2914 139.054 30.1346C138.971 29.9746 138.845 29.8513 138.675 29.7646C138.506 29.6779 138.296 29.6346 138.047 29.6346C137.814 29.6346 137.61 29.6746 137.434 29.7546C137.261 29.8346 137.124 29.9396 137.024 30.0697C136.928 30.1997 136.88 30.3397 136.88 30.4897H135.957C135.957 30.2963 136.007 30.1046 136.107 29.9146C136.207 29.7246 136.349 29.553 136.536 29.3996C136.725 29.2429 136.951 29.1196 137.214 29.0296C137.48 28.9362 137.776 28.8895 138.102 28.8895C138.494 28.8895 138.84 28.9562 139.139 29.0896C139.442 29.2229 139.678 29.4246 139.848 29.6946C140.021 29.9613 140.107 30.2963 140.107 30.6997V33.2199C140.107 33.3999 140.122 33.5916 140.152 33.795C140.185 33.9983 140.233 34.1733 140.296 34.32V34.4H139.334C139.287 34.2934 139.251 34.1517 139.224 33.975C139.197 33.795 139.184 33.6282 139.184 33.475ZM139.344 31.1198L139.354 31.7698H138.421C138.158 31.7698 137.924 31.7914 137.718 31.8348C137.512 31.8748 137.339 31.9365 137.199 32.0198C137.06 32.1031 136.953 32.2082 136.88 32.3348C136.807 32.4582 136.77 32.6032 136.77 32.7698C136.77 32.9399 136.808 33.0949 136.885 33.2349C136.961 33.3749 137.076 33.4866 137.229 33.5699C137.385 33.6499 137.577 33.6899 137.802 33.6899C138.085 33.6899 138.335 33.6299 138.551 33.5099C138.767 33.3899 138.938 33.2432 139.065 33.0699C139.194 32.8966 139.264 32.7282 139.274 32.5649L139.668 33.0099C139.645 33.1499 139.582 33.3049 139.478 33.475C139.375 33.645 139.237 33.8083 139.065 33.965C138.895 34.1183 138.692 34.2466 138.456 34.35C138.223 34.45 137.96 34.5 137.668 34.5C137.302 34.5 136.981 34.4283 136.705 34.285C136.432 34.1417 136.22 33.95 136.067 33.7099C135.917 33.4666 135.843 33.1949 135.843 32.8949C135.843 32.6049 135.899 32.3498 136.012 32.1298C136.125 31.9065 136.288 31.7214 136.501 31.5748C136.713 31.4247 136.969 31.3114 137.269 31.2347C137.568 31.1581 137.902 31.1198 138.272 31.1198H139.344ZM143.817 28.9895V29.6996H140.9V28.9895H143.817ZM141.887 27.6745H142.81V33.0599C142.81 33.2432 142.838 33.3816 142.895 33.475C142.951 33.5682 143.024 33.6299 143.114 33.6599C143.204 33.6899 143.3 33.705 143.404 33.705C143.48 33.705 143.559 33.6982 143.643 33.685C143.729 33.6682 143.794 33.655 143.837 33.645L143.843 34.4C143.769 34.4234 143.673 34.445 143.553 34.465C143.437 34.4883 143.295 34.5 143.129 34.5C142.903 34.5 142.695 34.455 142.505 34.365C142.316 34.275 142.165 34.125 142.052 33.915C141.942 33.7016 141.887 33.4149 141.887 33.0549V27.6745ZM144.555 31.7548V31.6398C144.555 31.2498 144.612 30.8881 144.725 30.5547C144.839 30.218 145.001 29.9263 145.214 29.6796C145.427 29.4296 145.684 29.2362 145.987 29.0996C146.289 28.9595 146.629 28.8895 147.004 28.8895C147.383 28.8895 147.725 28.9595 148.027 29.0996C148.333 29.2362 148.592 29.4296 148.805 29.6796C149.021 29.9263 149.186 30.218 149.299 30.5547C149.411 30.8881 149.468 31.2498 149.468 31.6398V31.7548C149.468 32.1448 149.411 32.5065 149.299 32.8398C149.186 33.1732 149.021 33.465 148.805 33.715C148.592 33.9616 148.334 34.155 148.032 34.295C147.733 34.4317 147.394 34.5 147.014 34.5C146.635 34.5 146.295 34.4317 145.992 34.295C145.689 34.155 145.43 33.9616 145.214 33.715C145.001 33.465 144.839 33.1732 144.725 32.8398C144.612 32.5065 144.555 32.1448 144.555 31.7548ZM145.478 31.6398V31.7548C145.478 32.0248 145.51 32.2798 145.573 32.5198C145.636 32.7566 145.731 32.9666 145.858 33.1499C145.987 33.3333 146.148 33.4782 146.341 33.585C146.534 33.6882 146.758 33.7399 147.014 33.7399C147.267 33.7399 147.488 33.6882 147.678 33.585C147.871 33.4782 148.03 33.3333 148.156 33.1499C148.283 32.9666 148.377 32.7566 148.441 32.5198C148.507 32.2798 148.541 32.0248 148.541 31.7548V31.6398C148.541 31.3731 148.507 31.1214 148.441 30.8847C148.377 30.6447 148.282 30.433 148.152 30.2497C148.025 30.063 147.866 29.9163 147.673 29.8096C147.483 29.703 147.26 29.6496 147.004 29.6496C146.752 29.6496 146.529 29.703 146.336 29.8096C146.146 29.9163 145.987 30.063 145.858 30.2497C145.731 30.433 145.636 30.6447 145.573 30.8847C145.51 31.1214 145.478 31.3731 145.478 31.6398ZM151.548 29.8396V34.4H150.625V28.9895H151.523L151.548 29.8396ZM153.234 28.9595L153.229 29.8196C153.152 29.803 153.08 29.793 153.009 29.7896C152.943 29.783 152.867 29.7796 152.78 29.7796C152.567 29.7796 152.379 29.813 152.216 29.8796C152.053 29.9463 151.915 30.0397 151.802 30.1597C151.69 30.2797 151.599 30.423 151.533 30.5897C151.47 30.753 151.429 30.933 151.409 31.1298L151.149 31.2798C151.149 30.953 151.18 30.6463 151.244 30.3597C151.311 30.073 151.412 29.8196 151.548 29.5996C151.684 29.3762 151.857 29.2029 152.067 29.0796C152.279 28.9529 152.532 28.8895 152.825 28.8895C152.891 28.8895 152.968 28.8979 153.054 28.9146C153.141 28.9279 153.201 28.9429 153.234 28.9595Z" fill="#1D1D1D"/>
</g>
<defs>
<clipPath id="clip0_8924_85504">
<rect width="154" height="40" fill="white" transform="translate(0.5)"/>
</clipPath>
</defs>
</svg>
