<svg width="110" height="40" viewBox="0 0 110 40" fill="none" xmlns="http://www.w3.org/2000/svg">
<path d="M32.6667 19.6666C32.6667 10.646 25.354 3.33331 16.3333 3.33331C7.31268 3.33331 0 10.646 0 19.6666C0 28.6873 7.31268 36 16.3333 36C25.354 36 32.6667 28.6873 32.6667 19.6666Z" fill="url(#paint0_linear_8924_85522)"/>
<path d="M9.33203 16.8421V23.1578C9.33203 24.0884 9.69001 24.9809 10.3272 25.6389C10.9644 26.297 11.8287 26.6666 12.7298 26.6666H20.8848C21.5459 26.6664 22.1927 26.4671 22.7457 26.0931C23.2988 25.7191 23.7342 25.1866 23.9987 24.5608H20.5441C19.7331 24.5608 18.9553 24.2281 18.3819 23.6359C17.8084 23.0437 17.4862 22.2405 17.4862 21.403V18.5961C17.4862 17.7586 17.8084 16.9554 18.3819 16.3632C18.9553 15.771 19.7331 15.4383 20.5441 15.4383H23.9987C23.7341 14.8126 23.2985 14.2802 22.7452 13.9063C22.192 13.5324 21.5452 13.3333 20.884 13.3333H12.729C11.828 13.3335 10.964 13.7033 10.3269 14.3613C9.6899 15.0193 9.33203 15.9117 9.33203 16.8421Z" fill="white"/>
<path fill-rule="evenodd" clip-rule="evenodd" d="M18.668 18.333V20.9996C18.668 21.9199 19.4893 22.6667 20.5015 22.6667H24.1686C25.1809 22.6667 26.0013 21.9207 26.0013 20.9996V18.333C26.0013 17.4126 25.18 16.6667 24.1677 16.6667H20.5015C19.4893 16.6667 18.6689 17.4126 18.6689 18.333H18.668ZM22.3351 19.6667C22.3351 19.932 22.2192 20.1864 22.0129 20.374C21.8065 20.5616 21.5267 20.667 21.2349 20.667C20.9432 20.667 20.6633 20.5616 20.457 20.374C20.2507 20.1864 20.1348 19.932 20.1348 19.6667C20.1348 19.4014 20.2507 19.147 20.457 18.9594C20.6633 18.7718 20.9432 18.6664 21.2349 18.6664C21.5267 18.6664 21.8065 18.7718 22.0129 18.9594C22.2192 19.147 22.3351 19.4014 22.3351 19.6667Z" fill="white"/>
<path d="M44.8041 29.1248L39.332 10.8753H43.0873L46.7089 24.9013L50.3834 10.8753H54.5142L58.2159 24.9013L61.8375 10.8753H65.5928L60.1736 29.1248H56.311L52.4756 15.7501L48.613 29.1248H44.8041ZM72.538 20.6779C72.538 19.1914 71.4915 18.2794 69.8557 18.2794C68.38 18.2794 67.3343 19.1658 67.1733 20.5736L64.1691 20.0522C64.5982 17.4451 66.9851 15.7766 69.8557 15.7766C73.3964 15.7766 75.8105 17.6272 75.8105 21.1207V29.1248H72.538V27.2212C71.787 28.4991 70.1503 29.3334 68.4873 29.3334C65.8321 29.3334 63.9809 27.6648 63.9809 25.4227C63.9809 22.8413 65.9931 21.46 70.0166 21.0429L72.538 20.8078V20.6779ZM67.2534 25.3185C67.2534 26.2305 68.0044 26.9084 69.2383 26.9084C71.3306 26.9084 72.538 25.3706 72.538 23.4414V23.1542L69.963 23.4414C68.1654 23.6499 67.2534 24.3799 67.2534 25.3185ZM77.7352 29.1248V10.6667H81.1158V29.1248H77.7352ZM83.0141 29.1248V10.6667H86.3939V29.1248H83.0141ZM87.5675 22.555C87.5675 19.1393 89.7671 15.7766 94.247 15.7766C98.8071 15.7766 101.033 19.0615 101.033 22.1114C101.033 22.5806 101.007 23.1542 100.979 23.4149H90.9473C91.2428 25.3963 92.5567 26.5699 94.488 26.5699C96.071 26.5699 97.1976 25.8399 97.5459 24.562L100.711 25.3963C99.9601 27.8734 97.5996 29.3334 94.4344 29.3334C89.9553 29.3334 87.5675 25.9698 87.5675 22.555ZM91.0282 21.0164H97.4122C97.2513 19.4521 96.2047 18.2794 94.247 18.2794C92.584 18.2794 91.4037 19.2436 91.0282 21.0164ZM109.999 28.994C109.328 29.2291 108.604 29.3334 107.826 29.3334C105.09 29.3334 103.051 27.8991 103.051 24.8227V18.7486H100.771V15.9851H103.051V12.1267H106.431V15.9851H109.838V18.7486H106.431V24.5099C106.431 25.7613 107.128 26.4391 108.175 26.4391C108.684 26.4391 109.274 26.3613 109.757 26.1262L109.999 28.994Z" fill="black"/>
<defs>
<linearGradient id="paint0_linear_8924_85522" x1="16.3333" y1="3.33331" x2="16.3333" y2="36" gradientUnits="userSpaceOnUse">
<stop stop-color="#666666"/>
<stop offset="1" stop-color="#313131"/>
</linearGradient>
</defs>
</svg>
