<svg width="134" height="40" viewBox="0 0 134 40" fill="none" xmlns="http://www.w3.org/2000/svg">
<g clip-path="url(#clip0_8924_85532)">
<path d="M16.5273 2.0117C16.5273 2.0117 16.5176 2.0078 16.5117 2.00585C16.5176 2.00585 16.5215 2.00195 16.5273 2V2.0117Z" fill="black"/>
<path d="M17.1452 37.7836C17.0361 37.8658 16.9213 37.9327 16.7988 37.9863C16.6993 38.0283 16.6094 38.0436 16.5156 38.0341C16.5749 38.0264 16.6343 38.0092 16.6974 37.9824C16.8486 37.9174 16.9978 37.8505 17.1452 37.7836Z" fill="black"/>
<path d="M32.5219 18.5324C32.5258 19.7064 32.365 20.8537 32.055 21.9818C31.3394 24.5957 30.0765 26.9342 28.4367 29.0739C25.4402 32.9842 21.596 35.7855 17.1434 37.7837C16.996 37.8506 16.8468 37.9175 16.6956 37.9825C16.6325 38.0093 16.5732 38.0265 16.5138 38.0341H16.5081C16.4507 38.0265 16.3914 38.0093 16.3282 37.9825C16.2823 37.9634 16.2364 37.9424 16.1924 37.9213C16.0871 37.8773 15.9819 37.8295 15.8766 37.7817C11.4259 35.7836 7.58175 32.9823 4.58717 29.0739C2.94733 26.9342 1.68252 24.5957 0.966887 21.9818C0.656905 20.8537 0.5 19.7064 0.5 18.5324C0.507654 14.9089 0.503827 11.2835 0.503827 7.6581V7.20302C5.741 5.50314 10.9437 3.81473 16.1924 2.10911C16.2938 2.07661 16.3933 2.0441 16.4947 2.0116L16.5119 2.00586C16.5119 2.00586 16.5215 2.00968 16.5272 2.0116C21.8792 3.74972 27.1814 5.47063 32.52 7.20302V7.6581C32.52 11.2835 32.5143 14.9089 32.5219 18.5324Z" fill="url(#paint0_linear_8924_85532)"/>
<path d="M16.3305 37.9824C16.3936 38.0092 16.4529 38.0264 16.5104 38.0341C16.4166 38.0436 16.3267 38.0283 16.2272 37.9863C16.1047 37.9327 15.988 37.8658 15.8789 37.7817C16.0282 37.8505 16.1793 37.9174 16.3305 37.9824Z" fill="black"/>
<path d="M16.5142 2.00611L16.4961 2.01221V2L16.5142 2.00611Z" fill="black"/>
<path d="M90.0051 10.5606H96.4306C96.4306 10.5606 96.4478 10.5759 96.4554 10.5836C96.4631 10.5912 96.4746 10.6008 96.4765 10.6103C96.4861 10.6792 96.4995 10.7499 96.4995 10.8187C96.4995 16.9605 96.4975 23.1022 96.4937 29.244C96.4937 29.2765 96.4746 29.309 96.4497 29.3931C94.3238 29.395 92.1884 29.3931 90.0166 29.3931V27.6416C89.9018 27.7277 89.8329 27.764 89.7832 27.8175C88.6447 29.026 87.2306 29.6761 85.5984 29.8807C84.3489 30.0375 83.1052 30.0184 81.8824 29.701C79.615 29.1101 78.1799 27.6493 77.5006 25.4274C77.2193 24.5096 77.093 23.5631 77.0892 22.6089C77.0777 18.691 77.0835 14.773 77.0835 10.8551C77.0835 10.7633 77.0969 10.6715 77.1064 10.5606H83.5759C83.5835 10.7098 83.5988 10.8589 83.5988 11.008C83.5988 14.2682 83.6007 17.5265 83.5988 20.7867C83.5988 21.3775 83.6486 21.9607 83.8342 22.5267C84.3547 24.1118 85.6826 24.7199 87.1368 24.5593C87.6592 24.5019 88.1491 24.3489 88.5892 24.0545C89.3833 23.521 89.7851 22.7447 89.9343 21.8269C89.9879 21.5037 90.007 21.1729 90.009 20.844C90.0147 17.5609 90.0128 14.2778 90.0128 10.9966V10.5625L90.0051 10.5606Z" fill="black"/>
<path d="M98.1875 23.63H104.228C104.263 23.7256 104.297 23.8135 104.324 23.9015C104.544 24.6262 105.036 25.0698 105.744 25.305C106.31 25.4924 106.898 25.5325 107.487 25.5459C108.159 25.5612 108.834 25.5497 109.485 25.3662C109.774 25.284 110.07 25.1673 110.315 24.9971C110.836 24.6377 110.832 23.9856 110.336 23.5879C110.007 23.3259 109.617 23.1864 109.215 23.0908C108.094 22.825 106.968 22.5764 105.845 22.3144C104.86 22.085 103.872 21.8632 102.897 21.605C102.187 21.4176 101.532 21.0945 100.928 20.6738C99.9728 20.0103 99.3222 19.1231 99.0045 18.0083C98.6716 16.8419 98.6601 15.6583 98.9433 14.4824C99.2897 13.0425 100.153 11.9813 101.437 11.2528C102.359 10.7308 103.362 10.444 104.399 10.2585C105.859 9.99843 107.33 9.99078 108.802 10.0634C109.944 10.1189 111.069 10.3044 112.158 10.683C114.374 11.4536 115.757 12.9699 116.277 15.2587C116.358 15.6124 116.409 15.9719 116.478 16.3543H110.455C110.438 16.3123 110.409 16.2626 110.395 16.2071C110.267 15.6067 109.883 15.2185 109.355 14.947C108.962 14.7443 108.541 14.6315 108.109 14.5799C107.32 14.4862 106.53 14.4652 105.761 14.6908C105.474 14.7749 105.185 14.9107 104.944 15.0885C104.469 15.4365 104.435 16.0006 104.823 16.448C105.07 16.731 105.388 16.9184 105.738 17.0293C106.331 17.2167 106.934 17.3792 107.537 17.5303C109.066 17.9127 110.598 18.2779 112.127 18.6604C112.826 18.8344 113.495 19.0906 114.132 19.4309C115.893 20.3736 116.777 21.8383 116.788 23.8365C116.798 25.2476 116.392 26.5001 115.434 27.5537C114.779 28.2726 113.976 28.7774 113.088 29.1522C111.882 29.6589 110.615 29.9017 109.318 30.0127C108.212 30.1083 107.106 30.1102 106 30.005C104.358 29.8482 102.772 29.4849 101.318 28.6703C100.103 27.9896 99.1404 27.0661 98.5932 25.762C98.3119 25.0947 98.1626 24.3986 98.1913 23.6242L98.1875 23.63Z" fill="black"/>
<path d="M47.7268 16.3792H42.9297V10.5606H58.9914V16.3754H54.2077C54.1866 17.2626 54.2 18.1173 54.1981 18.9701C54.1962 19.8402 54.1981 20.7121 54.1981 21.5821V26.7697C54.1981 27.6263 54.1981 28.483 54.1981 29.3281C53.9034 29.4046 48.2644 29.4276 47.744 29.3568C47.7076 28.2879 47.7325 27.2095 47.7287 26.1349C47.7248 25.0526 47.7287 23.9703 47.7287 22.8881V16.3773L47.7268 16.3792Z" fill="black"/>
<path d="M129.229 28.8691H122.765C122.754 28.3203 122.761 27.783 122.759 27.2457C122.759 26.7046 122.759 26.1635 122.759 25.6223V15.8705C121.573 15.8705 118.793 15.8705 117.955 15.8705C117.955 14.6257 117.93 10.5701 117.93 10.0997C118.291 10.0997 132.786 10.0576 133.49 10.0576C133.49 10.4133 133.5 15.337 133.5 15.8686H129.25C129.25 16.7826 129.234 17.6048 129.231 18.4576C129.225 19.3276 129.231 20.1995 129.231 21.0696V28.8691H129.229Z" fill="black"/>
<path d="M60.9369 10.5607H67.2073V13.9776L67.2762 14.0063C67.3336 13.9451 67.3967 13.8897 67.4446 13.8208C67.8368 13.2587 68.2769 12.7386 68.7878 12.2816C69.7101 11.4594 70.797 10.9851 72.0005 10.7614C72.9879 10.5779 73.9867 10.532 74.9894 10.5415C75.0468 10.5415 75.1042 10.5511 75.1558 10.5549C75.2439 10.8169 75.2668 16.3429 75.1788 16.777C75.0831 16.7827 74.9817 16.7961 74.8784 16.7961C74.2776 16.8018 73.6767 16.7904 73.0759 16.8095C72.2856 16.8343 71.5088 16.9567 70.7549 17.2129C69.1055 17.7732 68.0818 18.909 67.6436 20.5821C67.479 21.2112 67.4044 21.8518 67.4044 22.5019C67.4044 24.6435 67.4025 26.785 67.4006 28.9266C67.4006 29.0643 67.4006 29.2039 67.4006 29.3683H60.9464C60.868 29.1121 60.8507 10.9469 60.933 10.5587L60.9369 10.5607Z" fill="black"/>
<path d="M16.1924 2.10895V37.9212C16.0871 37.8772 15.9819 37.8294 15.8766 37.7816C11.4259 35.7834 7.58175 32.9821 4.58717 29.0737C2.94733 26.9341 1.68252 24.5955 0.966887 21.9817C0.656905 20.8535 0.5 19.7062 0.5 18.5322C0.507654 14.9087 0.503827 11.2833 0.503827 7.65794V7.20285C5.741 5.50297 10.9437 3.81456 16.1924 2.10895Z" fill="#454545"/>
</g>
<defs>
<linearGradient id="paint0_linear_8924_85532" x1="16.5119" y1="38.0341" x2="16.5119" y2="2.00586" gradientUnits="userSpaceOnUse">
<stop/>
<stop offset="1" stop-color="#848484"/>
</linearGradient>
<clipPath id="clip0_8924_85532">
<rect width="133" height="40" fill="white" transform="translate(0.5)"/>
</clipPath>
</defs>
</svg>
