<svg width="174" height="40" viewBox="0 0 174 40" fill="none" xmlns="http://www.w3.org/2000/svg">
<g clip-path="url(#clip0_6950_141019)">
<path fill-rule="evenodd" clip-rule="evenodd" d="M32.5114 14.193H1.62891C3.89791 7.86047 9.95768 3.33337 17.0701 3.33337C24.1826 3.33337 30.2423 7.86047 32.5114 14.193Z" fill="#C6C6C6"/>
<path fill-rule="evenodd" clip-rule="evenodd" d="M33.4773 19.7398C33.4773 21.6652 33.1446 23.5088 32.5337 25.2269H1.60766C0.996777 23.5088 0.664062 21.6652 0.664062 19.7398C0.664062 17.8144 1.00223 15.9272 1.62948 14.1927H32.5119C33.1392 15.9272 33.4773 17.7926 33.4773 19.7398Z" fill="#505050"/>
<path fill-rule="evenodd" clip-rule="evenodd" d="M32.5315 25.2268C30.2735 31.592 24.2028 36.1464 17.0685 36.1464C9.93424 36.1464 3.86356 31.592 1.60547 25.2268H32.5315Z" fill="#232323"/>
<path d="M45.6812 4.69128H50.192C51.6156 4.69128 52.6955 4.80037 53.4318 5.024C54.1682 5.24763 54.7573 5.69488 55.21 6.37122C55.6627 7.04756 55.8863 8.13842 55.8863 9.63837C55.8863 10.6529 55.7281 11.3619 55.4063 11.7656C55.09 12.1692 54.4573 12.4746 53.5191 12.6873C54.5664 12.9219 55.2754 13.3146 55.6463 13.8655C56.0172 14.4164 56.2027 15.2563 56.2027 16.3854V17.9999C56.2027 19.1725 56.0663 20.0452 55.799 20.6125C55.5318 21.1797 55.1009 21.567 54.5173 21.7743C53.9282 21.9815 52.7282 22.0852 50.9065 22.0852H45.6758V4.69128H45.6812ZM50.2029 7.6639V11.531C50.3938 11.5256 50.5465 11.5201 50.6556 11.5201C51.0974 11.5201 51.381 11.411 51.5065 11.1929C51.6265 10.9747 51.6865 10.3474 51.6865 9.31656C51.6865 8.77113 51.6374 8.38932 51.5337 8.17115C51.4356 7.95298 51.3047 7.81662 51.141 7.75662C50.9774 7.69662 50.6665 7.66935 50.2029 7.65844V7.6639ZM50.2029 14.2364V19.1016C50.841 19.0798 51.2447 18.9816 51.4192 18.8017C51.5937 18.6217 51.681 18.1799 51.681 17.4817V15.8618C51.681 15.1145 51.5992 14.6673 51.4465 14.5091C51.2937 14.3509 50.8738 14.2636 50.2029 14.2418V14.2364Z" fill="black"/>
<path d="M67.5299 15.2072H61.912V18.2889C61.912 18.9325 61.9556 19.347 62.0538 19.5325C62.1465 19.7179 62.3265 19.8107 62.5883 19.8107C62.9156 19.8107 63.1392 19.6852 63.2483 19.4398C63.3574 19.1943 63.4174 18.7143 63.4174 18.0053V16.1235H67.5299V17.1762C67.5299 18.0544 67.4754 18.7362 67.3608 19.2052C67.2518 19.6798 66.9899 20.1816 66.5809 20.7215C66.1718 21.2561 65.6536 21.6597 65.0264 21.9324C64.3991 22.2051 63.6137 22.336 62.6701 22.336C61.7265 22.336 60.9465 22.2051 60.2429 21.9378C59.5393 21.6706 58.9939 21.3106 58.6066 20.847C58.2139 20.3834 57.9467 19.8761 57.7939 19.3198C57.6412 18.7634 57.5703 17.9562 57.5703 16.898V12.7418C57.5703 11.4982 57.7394 10.511 58.0776 9.79104C58.4157 9.07107 58.9666 8.52018 59.7302 8.13838C60.4938 7.75658 61.3774 7.56567 62.3701 7.56567C63.5864 7.56567 64.59 7.79476 65.3809 8.25837C66.1718 8.72199 66.7281 9.33288 67.0445 10.0965C67.3608 10.8601 67.5245 11.9291 67.5245 13.3145V15.2072H67.5299ZM63.1774 12.8891V11.8473C63.1774 11.111 63.1392 10.6365 63.0574 10.4183C62.981 10.2056 62.8174 10.0965 62.5719 10.0965C62.2719 10.0965 62.0865 10.1892 62.0156 10.3692C61.9447 10.5492 61.9065 11.0455 61.9065 11.8473V12.8891H63.1719H63.1774Z" fill="black"/>
<path d="M75.5871 7.82749C77.6489 7.82749 78.7288 8.66201 78.8216 10.331C78.8652 11.1274 78.887 12.0001 78.887 12.9491V16.429C78.887 18.038 78.7779 19.1398 78.5652 19.7289C77.9325 21.3815 76.378 22.2106 73.8908 22.2106C72.9582 22.2106 72.3527 22.1942 72.0636 22.1669C71.4637 22.0906 70.951 21.9051 70.5255 21.6215C69.8546 21.1579 69.4074 20.5252 69.1838 19.7179C69.0256 19.1289 68.9492 18.1962 68.9492 16.9144V8.54747C68.9492 7.36388 69.3419 6.40391 70.1328 5.66212C70.9182 4.92033 71.9491 4.54944 73.2145 4.54944C73.7436 4.54944 74.5017 4.58762 75.489 4.65853C76.4762 4.72943 77.1253 4.76761 77.4307 4.76761C77.8125 4.76761 78.1343 4.72398 78.3961 4.63671V6.88389C78.047 6.98207 77.7634 7.03662 77.5562 7.03662C77.1689 7.03662 76.618 7.00934 75.9089 6.94935C75.1944 6.8948 74.6872 6.86208 74.3763 6.86208C73.7872 6.86208 73.4272 7.14025 73.2909 7.70204C73.2472 7.86567 73.2254 8.32929 73.2254 9.08745C73.9127 8.24748 74.6981 7.83295 75.5762 7.83295L75.5871 7.82749ZM74.5563 19.1561V11.8746C74.5563 11.2365 74.5399 10.8437 74.5017 10.691C74.4254 10.3638 74.229 10.1947 73.9236 10.1947C73.6181 10.1947 73.4109 10.3638 73.3345 10.7019C73.2963 10.8601 73.28 11.2474 73.28 11.8746V18.6925C73.28 19.5107 73.4927 19.9198 73.9236 19.9198C74.3545 19.9198 74.5563 19.6634 74.5563 19.1561Z" fill="black"/>
<path d="M94.8405 22.0854H90.3079V8.16045H88.9661V22.0799H84.4336V4.68604H94.8405V22.0854Z" fill="black"/>
<path d="M100.934 7.82728L100.857 9.08723C101.245 8.57997 101.67 8.19817 102.134 7.94727C102.597 7.69637 103.11 7.57092 103.661 7.57092C104.332 7.57092 104.915 7.75092 105.406 8.1109C105.897 8.47089 106.203 8.89087 106.323 9.35994C106.443 9.82902 106.503 10.6363 106.503 11.7653V17.7705C106.503 19.0687 106.426 19.9904 106.273 20.5359C106.121 21.0813 105.804 21.5231 105.33 21.8449C104.855 22.1722 104.277 22.3358 103.606 22.3358C103.072 22.3358 102.57 22.2104 102.112 21.9595C101.654 21.7086 101.234 21.3377 100.857 20.8413V24.1085H96.5156V7.82728H100.928H100.934ZM102.166 11.9726C102.166 11.0944 102.134 10.5599 102.068 10.3745C102.003 10.189 101.823 10.0963 101.534 10.0963C101.245 10.0963 101.065 10.2054 100.983 10.4181C100.901 10.6308 100.857 11.1544 100.857 11.978V17.8851C100.857 18.7469 100.901 19.2814 100.988 19.4941C101.075 19.7068 101.261 19.8159 101.545 19.8159C101.828 19.8159 101.997 19.7177 102.068 19.5214C102.134 19.325 102.172 18.845 102.172 18.0869V11.9726H102.166Z" fill="black"/>
<path d="M117.756 12.8348V16.3255C117.756 17.6073 117.69 18.5455 117.565 19.1454C117.434 19.7454 117.161 20.3017 116.736 20.8199C116.316 21.3381 115.77 21.7199 115.11 21.9708C114.45 22.2217 113.687 22.3417 112.83 22.3417C111.871 22.3417 111.058 22.238 110.392 22.0253C109.727 21.8126 109.209 21.4962 108.838 21.0708C108.467 20.6454 108.205 20.1272 108.047 19.5272C107.889 18.9218 107.812 18.0164 107.812 16.8055V13.1511C107.812 11.8257 107.954 10.7894 108.243 10.0476C108.527 9.30035 109.045 8.70583 109.792 8.25312C110.54 7.80041 111.489 7.57678 112.65 7.57678C113.627 7.57678 114.461 7.72405 115.159 8.01313C115.858 8.30221 116.398 8.67856 116.774 9.14763C117.15 9.6167 117.412 10.0912 117.554 10.5876C117.696 11.0839 117.761 11.8312 117.761 12.8402L117.756 12.8348ZM113.414 11.7603C113.414 11.0294 113.376 10.5712 113.294 10.3803C113.218 10.1894 113.049 10.0967 112.787 10.0967C112.525 10.0967 112.356 10.1894 112.274 10.3803C112.187 10.5712 112.143 11.0294 112.143 11.7603V18.1909C112.143 18.8618 112.187 19.3036 112.274 19.5054C112.361 19.7072 112.531 19.8109 112.781 19.8109C113.032 19.8109 113.207 19.7181 113.294 19.5327C113.376 19.3472 113.42 18.9436 113.42 18.3273V11.7548L113.414 11.7603Z" fill="black"/>
<path d="M129.236 18.3219C129.236 19.7782 128.92 20.7654 128.287 21.2945C127.654 21.8181 126.274 22.0854 124.158 22.0854H119.184V7.82776H124.305C126.062 7.82776 127.267 8.11684 127.932 8.695C128.592 9.27316 128.925 10.2658 128.925 11.6731C128.925 13.2821 128.085 14.1984 126.411 14.422C127.283 14.5639 127.976 14.9075 128.478 15.4475C128.985 15.9874 129.236 16.6692 129.236 17.4819V18.3219ZM123.487 13.1239C124.147 13.1239 124.551 13.0421 124.698 12.8785C124.845 12.7148 124.916 12.3876 124.916 11.9021C124.916 11.4931 124.834 11.2094 124.671 11.0513C124.507 10.8931 124.114 10.8167 123.487 10.8167V13.1239ZM124.916 17.6565V17.171C124.916 16.5547 124.834 16.1729 124.671 16.0147C124.507 15.862 124.114 15.7856 123.487 15.7856V19.0801C124.065 19.0801 124.452 18.9982 124.638 18.8292C124.823 18.6601 124.916 18.2674 124.916 17.651V17.6565Z" fill="black"/>
<path d="M140.319 15.2072H134.701V18.2889C134.701 18.9325 134.745 19.347 134.843 19.5325C134.936 19.7179 135.116 19.8107 135.377 19.8107C135.705 19.8107 135.928 19.6852 136.037 19.4398C136.146 19.1943 136.206 18.7143 136.206 18.0053V16.1235H140.319V17.1762C140.319 18.0544 140.264 18.7362 140.15 19.2052C140.041 19.6798 139.779 20.1816 139.37 20.7215C138.961 21.2561 138.443 21.6597 137.815 21.9324C137.188 22.2051 136.403 22.336 135.459 22.336C134.516 22.336 133.736 22.2051 133.032 21.9378C132.328 21.6706 131.783 21.3106 131.396 20.847C131.003 20.3834 130.736 19.8761 130.583 19.3198C130.43 18.7634 130.359 17.9562 130.359 16.898V12.7418C130.359 11.4982 130.528 10.511 130.867 9.79104C131.205 9.07107 131.756 8.52018 132.519 8.13838C133.283 7.75658 134.167 7.56567 135.159 7.56567C136.376 7.56567 137.379 7.79476 138.17 8.25837C138.961 8.72199 139.517 9.33288 139.834 10.0965C140.15 10.8601 140.314 11.9291 140.314 13.3145V15.2072H140.319ZM135.966 12.8891V11.8473C135.966 11.111 135.928 10.6365 135.846 10.4183C135.77 10.2056 135.606 10.0965 135.361 10.0965C135.061 10.0965 134.876 10.1892 134.805 10.3692C134.734 10.5492 134.696 11.0455 134.696 11.8473V12.8891H135.961H135.966Z" fill="black"/>
<path d="M146.152 7.82728L146.076 9.08723C146.463 8.57997 146.889 8.19817 147.352 7.94727C147.816 7.69637 148.329 7.57092 148.88 7.57092C149.55 7.57092 150.134 7.75092 150.625 8.1109C151.116 8.47089 151.421 8.89087 151.541 9.35994C151.661 9.82902 151.721 10.6363 151.721 11.7653V17.7705C151.721 19.0687 151.645 19.9904 151.492 20.5359C151.339 21.0813 151.023 21.5231 150.549 21.8449C150.074 22.1722 149.496 22.3358 148.825 22.3358C148.29 22.3358 147.789 22.2104 147.331 21.9595C146.872 21.7086 146.452 21.3377 146.076 20.8413V24.1085H141.734V7.82728H146.147H146.152ZM147.385 11.9726C147.385 11.0944 147.352 10.5599 147.287 10.3745C147.221 10.189 147.041 10.0963 146.752 10.0963C146.463 10.0963 146.283 10.2054 146.201 10.4181C146.12 10.6308 146.076 11.1544 146.076 11.978V17.8851C146.076 18.7469 146.12 19.2814 146.207 19.4941C146.294 19.7068 146.48 19.8159 146.763 19.8159C147.047 19.8159 147.216 19.7177 147.287 19.5214C147.352 19.325 147.391 18.845 147.391 18.0869V11.9726H147.385Z" fill="black"/>
<path d="M157.439 7.83301V13.3746C158.35 13.3746 158.803 12.8892 158.803 11.9238V9.50749C158.803 8.53116 158.967 7.97482 159.288 7.83301H163.466C163.145 8.29663 162.981 8.98387 162.981 9.89475V11.8801C162.981 12.5728 162.697 13.151 162.13 13.6091C161.923 13.7782 161.487 14.0237 160.821 14.34C160.39 14.5473 159.91 14.6564 159.37 14.6727C159.621 14.7164 160.09 14.8364 160.777 15.0273C162.261 15.5018 163.003 16.3254 163.003 17.509V20.0125C163.003 20.9289 163.166 21.6216 163.488 22.0852H159.31C158.988 21.6488 158.825 21.0925 158.825 20.4107V17.4054C158.825 16.4399 158.361 15.9545 157.439 15.9545V22.0852H153.152V7.83301H157.439Z" fill="black"/>
<path d="M168.278 13.3525H164.209V12.398C164.209 11.2962 164.334 10.4454 164.59 9.84538C164.847 9.2454 165.354 8.72179 166.123 8.25817C166.887 7.80001 167.885 7.57092 169.107 7.57092C170.574 7.57092 171.681 7.83273 172.423 8.35089C173.165 8.86905 173.617 9.50721 173.765 10.2599C173.917 11.0126 173.988 12.5725 173.988 14.9288V22.0849H169.767V20.814C169.499 21.3213 169.161 21.7031 168.741 21.9595C168.321 22.2158 167.825 22.3413 167.241 22.3413C166.483 22.3413 165.785 22.1285 165.152 21.7031C164.519 21.2777 164.203 20.345 164.203 18.905V17.7323C164.203 16.6633 164.372 15.9379 164.71 15.5506C165.049 15.1634 165.883 14.7106 167.214 14.1979C168.638 13.6416 169.401 13.2652 169.499 13.0689C169.597 12.878 169.652 12.4798 169.652 11.8853C169.652 11.1381 169.597 10.6581 169.483 10.429C169.374 10.2054 169.188 10.0908 168.932 10.0908C168.638 10.0908 168.458 10.1835 168.387 10.3745C168.316 10.5654 168.278 11.0562 168.278 11.8526V13.3471V13.3525ZM169.652 15.3052C168.959 15.8124 168.556 16.2379 168.441 16.5815C168.332 16.9251 168.272 17.4215 168.272 18.0651C168.272 18.8014 168.321 19.2814 168.419 19.4941C168.518 19.7068 168.708 19.8159 168.992 19.8159C169.276 19.8159 169.439 19.7341 169.521 19.565C169.603 19.3959 169.647 18.9541 169.647 18.2396V15.3052H169.652Z" fill="black"/>
<path d="M49.9723 30.3212H47.9215V29.4976C47.9215 29.2085 47.8996 29.0176 47.8505 28.9139C47.8015 28.8103 47.7196 28.7612 47.5942 28.7612C47.4687 28.7612 47.3815 28.8049 47.3433 28.8976C47.2997 28.9903 47.2778 29.1867 47.2778 29.503V32.8738C47.2778 33.1301 47.3106 33.321 47.376 33.4465C47.4415 33.5719 47.5342 33.6374 47.6596 33.6374C47.8069 33.6374 47.9051 33.5719 47.9596 33.4356C48.0142 33.3047 48.036 33.0538 48.036 32.6829V31.832H49.9777C49.9777 32.4047 49.9559 32.8302 49.9177 33.1192C49.8796 33.4029 49.7596 33.6974 49.5578 33.9974C49.3559 34.2974 49.0887 34.521 48.7614 34.6737C48.4342 34.8264 48.0305 34.9028 47.5506 34.9028C46.9342 34.9028 46.4488 34.7992 46.0888 34.5864C45.7288 34.3792 45.4779 34.0846 45.3252 33.7028C45.1779 33.3265 45.1016 32.7865 45.1016 32.0884V30.0593C45.1016 29.4539 45.1616 28.9958 45.287 28.6849C45.407 28.374 45.6688 28.1012 46.067 27.8558C46.4651 27.6158 46.9506 27.4904 47.5233 27.4904C48.096 27.4904 48.576 27.6104 48.9796 27.8503C49.3832 28.0903 49.6505 28.3958 49.7814 28.7612C49.9123 29.1267 49.9832 29.6448 49.9832 30.3157L49.9723 30.3212Z" fill="black"/>
<path d="M55.543 30.1307V31.8815C55.543 32.5251 55.5103 32.9942 55.4449 33.2942C55.3794 33.5942 55.2431 33.8723 55.0303 34.1341C54.8176 34.3959 54.5449 34.5868 54.2122 34.7123C53.8795 34.8377 53.4977 34.8977 53.0668 34.8977C52.5868 34.8977 52.1777 34.8432 51.845 34.7396C51.5123 34.6359 51.2505 34.4723 51.065 34.2596C50.8796 34.0469 50.7487 33.7851 50.6669 33.4851C50.5905 33.1796 50.5469 32.7269 50.5469 32.1215V30.2888C50.5469 29.6234 50.6178 29.1052 50.765 28.7343C50.9123 28.3635 51.1687 28.0635 51.5396 27.8344C51.9105 27.6053 52.3904 27.4962 52.9741 27.4962C53.4649 27.4962 53.8795 27.5671 54.234 27.7144C54.5831 27.8617 54.8558 28.0471 55.0467 28.2816C55.2376 28.5162 55.3685 28.7562 55.4394 29.0016C55.5103 29.2471 55.543 29.6289 55.543 30.1307ZM53.3668 29.5907C53.3668 29.2252 53.345 28.9962 53.3068 28.898C53.2686 28.8053 53.1813 28.7562 53.0559 28.7562C52.9304 28.7562 52.8377 28.8053 52.7995 28.898C52.7559 28.9907 52.7341 29.2252 52.7341 29.5907V32.8196C52.7341 33.1578 52.7559 33.376 52.7995 33.4796C52.8432 33.5833 52.925 33.6323 53.0504 33.6323C53.1759 33.6323 53.2631 33.5887 53.3068 33.4905C53.3504 33.3978 53.3668 33.196 53.3668 32.8851V29.5907Z" fill="black"/>
<path d="M56.2578 34.7721V27.627H58.4177V33.2722H59.1868V27.627H61.3522V33.2722H61.8158V36.1521H60.3595V34.7721H56.2578Z" fill="black"/>
<path d="M67.7483 34.7721H65.8502V30.9105L64.3393 34.7721H62.3594V27.627H64.2575V31.4559L65.7465 27.627H67.7537V34.7721H67.7483Z" fill="black"/>
<path d="M70.4696 30.3925H68.4297V29.9125C68.4297 29.3616 68.4951 28.9362 68.6206 28.6362C68.746 28.3362 69.0024 28.0689 69.3897 27.8398C69.7715 27.6108 70.2733 27.4962 70.8896 27.4962C71.6259 27.4962 72.1823 27.6271 72.5532 27.8889C72.9241 28.1507 73.1531 28.4671 73.2241 28.8489C73.295 29.2307 73.3386 30.0052 73.3386 31.1888V34.7778H71.2223V34.1396C71.0914 34.3959 70.9169 34.5868 70.7096 34.7123C70.4969 34.8377 70.2514 34.9032 69.9569 34.9032C69.5751 34.9032 69.226 34.7941 68.9097 34.5814C68.5933 34.3687 68.4351 33.8996 68.4351 33.1796V32.5906C68.4351 32.056 68.517 31.6906 68.686 31.4997C68.8551 31.3033 69.2751 31.0797 69.9405 30.8234C70.6551 30.5452 71.0369 30.3543 71.086 30.2561C71.135 30.1579 71.1623 29.9616 71.1623 29.6616C71.1623 29.2907 71.135 29.0452 71.0805 28.9307C71.026 28.8162 70.9332 28.7616 70.8023 28.7616C70.6551 28.7616 70.5623 28.8107 70.5296 28.9034C70.4914 28.9962 70.4751 29.2471 70.4751 29.6452V30.3925H70.4696ZM71.1569 31.3742C70.8078 31.6306 70.606 31.8433 70.5514 32.0179C70.4969 32.1924 70.4696 32.4378 70.4696 32.7596C70.4696 33.1305 70.4914 33.3705 70.5405 33.4742C70.5896 33.5778 70.6823 33.6378 70.8296 33.6378C70.966 33.6378 71.0532 33.5942 71.0969 33.5123C71.1405 33.4251 71.1569 33.2069 71.1569 32.8469V31.3742Z" fill="black"/>
<path d="M77.3903 34.7721V29.1214H76.6213V32.7322C76.6213 33.3867 76.5449 33.8613 76.3976 34.1394C76.2504 34.4176 76.0104 34.5976 75.6831 34.6685C75.3559 34.7394 74.8268 34.7721 74.085 34.7721H73.7305V33.6049C74.0086 33.6049 74.1995 33.5667 74.3032 33.5013C74.4068 33.4358 74.4613 33.2013 74.4613 32.7977V27.627H79.5557V34.7721H77.3958H77.3903Z" fill="black"/>
<path d="M85.3312 32.727C85.3312 33.3815 85.2548 33.8506 85.1021 34.1342C84.9494 34.4178 84.7094 34.5923 84.3821 34.6632C84.0548 34.7342 83.5203 34.7669 82.784 34.7669H80.2695V27.6217H82.4295V29.9998H82.784C83.4767 29.9998 83.9948 30.0434 84.333 30.1252C84.6712 30.2071 84.9275 30.3871 85.0857 30.6707C85.2493 30.9488 85.3257 31.3961 85.3257 32.0015V32.727H85.3312ZM83.1658 32.4652V32.1815C83.1658 31.8106 83.1276 31.587 83.0567 31.5106C82.9803 31.4343 82.7731 31.3852 82.4295 31.3743V33.2724C82.7185 33.2724 82.9094 33.2342 83.0131 33.1633C83.1167 33.0869 83.1658 32.8579 83.1658 32.4706V32.4652Z" fill="black"/>
<path d="M91.1365 34.7721H88.9711V32.1377H88.1912V34.7721H86.0312V27.627H88.1912V30.1959H88.9711V27.627H91.1365V34.7721Z" fill="black"/>
<path d="M93.8563 30.3925H91.8164V29.9125C91.8164 29.3616 91.8819 28.9362 92.0073 28.6362C92.1328 28.3362 92.3891 28.0689 92.7764 27.8398C93.1582 27.6108 93.66 27.4962 94.2763 27.4962C95.0127 27.4962 95.569 27.6271 95.9399 27.8889C96.3108 28.1507 96.5399 28.4671 96.6108 28.8489C96.6817 29.2307 96.7253 30.0052 96.7253 31.1888V34.7778H94.609V34.1396C94.4781 34.3959 94.3036 34.5868 94.0963 34.7123C93.8836 34.8377 93.6382 34.9032 93.3436 34.9032C92.9618 34.9032 92.6127 34.7941 92.2964 34.5814C91.98 34.3687 91.8219 33.8996 91.8219 33.1796V32.5906C91.8219 32.056 91.9037 31.6906 92.0728 31.4997C92.2418 31.3033 92.6618 31.0797 93.3273 30.8234C94.0418 30.5452 94.4236 30.3543 94.4727 30.2561C94.5218 30.1579 94.549 29.9616 94.549 29.6616C94.549 29.2907 94.5218 29.0452 94.4672 28.9307C94.4127 28.8162 94.32 28.7616 94.189 28.7616C94.0418 28.7616 93.9491 28.8107 93.9163 28.9034C93.8781 28.9962 93.8618 29.2471 93.8618 29.6452V30.3925H93.8563ZM94.5436 31.3742C94.1945 31.6306 93.9927 31.8433 93.9381 32.0179C93.8836 32.1924 93.8563 32.4378 93.8563 32.7596C93.8563 33.1305 93.8782 33.3705 93.9272 33.4742C93.9763 33.5778 94.0691 33.6378 94.2163 33.6378C94.3527 33.6378 94.4399 33.5942 94.4836 33.5123C94.5272 33.4251 94.5436 33.2069 94.5436 32.8469V31.3742Z" fill="black"/>
<path d="M102.334 34.7718H100.169V31.9629C99.8904 31.9629 99.694 32.0229 99.5904 32.1429C99.4868 32.2628 99.4322 32.4865 99.4322 32.8083V34.7718H97.4414V33.0974C97.4414 32.6719 97.4632 32.361 97.5123 32.1756C97.5614 31.9847 97.665 31.8374 97.8341 31.7338C98.0032 31.6301 98.2868 31.5156 98.685 31.412C98.1668 31.3683 97.8287 31.2156 97.6705 30.9702C97.5178 30.7193 97.4414 30.272 97.4414 29.6339C97.4414 28.9248 97.6487 28.4121 98.0577 28.1012C98.4668 27.7903 99.3559 27.6376 100.725 27.6376H102.334V34.7828V34.7718ZM100.169 30.7193V29.0121H99.9504C99.7922 29.0121 99.6668 29.0557 99.5741 29.1484C99.4813 29.2411 99.4322 29.4539 99.4322 29.792V29.8848C99.4322 30.2284 99.4868 30.452 99.5904 30.5611C99.694 30.6702 99.8904 30.7193 100.169 30.7193Z" fill="black"/>
<path d="M111.808 30.3212H109.757V29.4976C109.757 29.2085 109.736 29.0176 109.686 28.9139C109.637 28.8103 109.556 28.7612 109.43 28.7612C109.305 28.7612 109.217 28.8049 109.179 28.8976C109.136 28.9903 109.114 29.1867 109.114 29.503V32.8738C109.114 33.1301 109.147 33.321 109.212 33.4465C109.277 33.5719 109.37 33.6374 109.496 33.6374C109.643 33.6374 109.741 33.5719 109.796 33.4356C109.85 33.3047 109.872 33.0538 109.872 32.6829V31.832H111.814C111.814 32.4047 111.792 32.8302 111.754 33.1192C111.716 33.4029 111.596 33.6974 111.394 33.9974C111.192 34.2974 110.925 34.521 110.597 34.6737C110.27 34.8264 109.866 34.9028 109.387 34.9028C108.77 34.9028 108.285 34.7992 107.925 34.5864C107.565 34.3792 107.314 34.0846 107.161 33.7028C107.014 33.3265 106.938 32.7865 106.938 32.0884V30.0593C106.938 29.4539 106.997 28.9958 107.123 28.6849C107.243 28.374 107.505 28.1012 107.903 27.8558C108.301 27.6158 108.787 27.4904 109.359 27.4904C109.932 27.4904 110.412 27.6104 110.816 27.8503C111.219 28.0903 111.486 28.3958 111.617 28.7612C111.748 29.1267 111.819 29.6448 111.819 30.3157L111.808 30.3212Z" fill="black"/>
<path d="M117.381 31.3195H114.566V32.8631C114.566 33.1849 114.588 33.3922 114.637 33.4849C114.686 33.5776 114.773 33.6267 114.904 33.6267C115.068 33.6267 115.177 33.5667 115.237 33.4412C115.292 33.3158 115.319 33.0758 115.319 32.7213V31.7777H117.381V32.3067C117.381 32.7485 117.353 33.0867 117.299 33.3267C117.244 33.5667 117.113 33.8176 116.906 34.0849C116.699 34.3521 116.442 34.5539 116.126 34.6903C115.81 34.8266 115.417 34.8921 114.942 34.8921C114.468 34.8921 114.075 34.8266 113.726 34.6903C113.372 34.5594 113.099 34.3739 112.903 34.1449C112.706 33.9158 112.57 33.6594 112.493 33.3812C112.417 33.1031 112.379 32.6995 112.379 32.1649V30.0814C112.379 29.4541 112.461 28.9632 112.63 28.6032C112.799 28.2433 113.077 27.9651 113.459 27.7742C113.841 27.5833 114.282 27.4851 114.784 27.4851C115.395 27.4851 115.897 27.5997 116.295 27.8342C116.693 28.0687 116.971 28.3742 117.13 28.756C117.288 29.1378 117.37 29.6778 117.37 30.3705V31.3195H117.381ZM115.199 30.1577V29.6341C115.199 29.2632 115.177 29.0232 115.139 28.9196C115.101 28.8105 115.019 28.756 114.899 28.756C114.746 28.756 114.653 28.7996 114.621 28.8923C114.588 28.9851 114.566 29.2305 114.566 29.6341V30.1577H115.204H115.199Z" fill="black"/>
<path d="M122.402 27.6217V29.1216H121.158V34.7723H118.987V29.1216H117.738V27.6217H122.402Z" fill="black"/>
<path d="M127.898 32.727C127.898 33.3815 127.821 33.8506 127.668 34.1342C127.516 34.4178 127.276 34.5923 126.948 34.6632C126.621 34.7342 126.087 34.7669 125.35 34.7669H122.836V27.6217H124.996V29.9998H125.35C126.043 29.9998 126.561 30.0434 126.899 30.1252C127.238 30.2071 127.494 30.3871 127.652 30.6707C127.816 30.9488 127.892 31.3961 127.892 32.0015V32.727H127.898ZM125.732 32.4652V32.1815C125.732 31.8106 125.694 31.587 125.623 31.5106C125.547 31.4343 125.339 31.3852 124.996 31.3743V33.2724C125.285 33.2724 125.476 33.2342 125.579 33.1633C125.683 33.0869 125.732 32.8579 125.732 32.4706V32.4652Z" fill="black"/>
<path d="M137.402 30.1307V31.8815C137.402 32.5251 137.37 32.9942 137.304 33.2942C137.239 33.5942 137.102 33.8723 136.89 34.1341C136.677 34.3959 136.404 34.5868 136.072 34.7123C135.739 34.8377 135.357 34.8977 134.926 34.8977C134.446 34.8977 134.037 34.8432 133.704 34.7396C133.372 34.6359 133.11 34.4723 132.924 34.2596C132.739 34.0469 132.608 33.7851 132.526 33.4851C132.45 33.1796 132.406 32.7269 132.406 32.1215V30.2888C132.406 29.6234 132.477 29.1052 132.624 28.7343C132.772 28.3635 133.028 28.0635 133.399 27.8344C133.77 27.6053 134.25 27.4962 134.833 27.4962C135.324 27.4962 135.739 27.5671 136.093 27.7144C136.442 27.8617 136.715 28.0471 136.906 28.2816C137.097 28.5162 137.228 28.7562 137.299 29.0016C137.37 29.2471 137.402 29.6289 137.402 30.1307ZM135.226 29.5907C135.226 29.2252 135.204 28.9962 135.166 28.898C135.128 28.8053 135.041 28.7562 134.915 28.7562C134.79 28.7562 134.697 28.8053 134.659 28.898C134.615 28.9907 134.593 29.2252 134.593 29.5907V32.8196C134.593 33.1578 134.615 33.376 134.659 33.4796C134.703 33.5833 134.784 33.6323 134.91 33.6323C135.035 33.6323 135.123 33.5887 135.166 33.4905C135.21 33.3978 135.226 33.196 135.226 32.8851V29.5907Z" fill="black"/>
<path d="M146.82 30.3212H144.769V29.4976C144.769 29.2085 144.747 29.0176 144.698 28.9139C144.649 28.8103 144.567 28.7612 144.442 28.7612C144.316 28.7612 144.229 28.8049 144.191 28.8976C144.147 28.9903 144.125 29.1867 144.125 29.503V32.8738C144.125 33.1301 144.158 33.321 144.224 33.4465C144.289 33.5719 144.382 33.6374 144.507 33.6374C144.655 33.6374 144.753 33.5719 144.807 33.4356C144.862 33.3047 144.884 33.0538 144.884 32.6829V31.832H146.825C146.825 32.4047 146.804 32.8302 146.765 33.1192C146.727 33.4029 146.607 33.6974 146.405 33.9974C146.204 34.2974 145.936 34.521 145.609 34.6737C145.282 34.8264 144.878 34.9028 144.398 34.9028C143.782 34.9028 143.296 34.7992 142.936 34.5864C142.576 34.3792 142.326 34.0846 142.173 33.7028C142.026 33.3265 141.949 32.7865 141.949 32.0884V30.0593C141.949 29.4539 142.009 28.9958 142.135 28.6849C142.255 28.374 142.516 28.1012 142.915 27.8558C143.313 27.6158 143.798 27.4904 144.371 27.4904C144.944 27.4904 145.424 27.6104 145.827 27.8503C146.231 28.0903 146.498 28.3958 146.629 28.7612C146.76 29.1267 146.831 29.6448 146.831 30.3157L146.82 30.3212Z" fill="black"/>
<path d="M149.411 30.3925H147.371V29.9125C147.371 29.3616 147.437 28.9362 147.562 28.6362C147.687 28.3362 147.944 28.0689 148.331 27.8398C148.713 27.6108 149.215 27.4962 149.831 27.4962C150.567 27.4962 151.124 27.6271 151.495 27.8889C151.865 28.1507 152.095 28.4671 152.165 28.8489C152.236 29.2307 152.28 30.0052 152.28 31.1888V34.7778H150.164V34.1396C150.033 34.3959 149.858 34.5868 149.651 34.7123C149.438 34.8377 149.193 34.9032 148.898 34.9032C148.516 34.9032 148.167 34.7941 147.851 34.5814C147.535 34.3687 147.377 33.8996 147.377 33.1796V32.5906C147.377 32.056 147.458 31.6906 147.627 31.4997C147.797 31.3033 148.217 31.0797 148.882 30.8234C149.596 30.5452 149.978 30.3543 150.027 30.2561C150.076 30.1579 150.104 29.9616 150.104 29.6616C150.104 29.2907 150.076 29.0452 150.022 28.9307C149.967 28.8162 149.875 28.7616 149.744 28.7616C149.596 28.7616 149.504 28.8107 149.471 28.9034C149.433 28.9962 149.416 29.2471 149.416 29.6452V30.3925H149.411ZM150.098 31.3742C149.749 31.6306 149.547 31.8433 149.493 32.0179C149.438 32.1924 149.411 32.4378 149.411 32.7596C149.411 33.1305 149.433 33.3705 149.482 33.4742C149.531 33.5778 149.624 33.6378 149.771 33.6378C149.907 33.6378 149.995 33.5942 150.038 33.5123C150.082 33.4251 150.098 33.2069 150.098 32.8469V31.3742Z" fill="black"/>
<path d="M158.416 34.7721H156.518V30.9105L155.007 34.7721H153.027V27.6269H154.925V31.4559L156.414 27.6269H158.422V34.7721H158.416ZM156.327 25.5216H157.244C157.222 26.0125 157.08 26.4052 156.813 26.6997C156.551 26.9997 156.18 27.147 155.711 27.147C155.242 27.147 154.871 26.9942 154.609 26.6942C154.347 26.3943 154.205 26.0015 154.184 25.5161H155.1C155.144 26.007 155.345 26.2524 155.711 26.2524C156.076 26.2524 156.284 26.007 156.327 25.5161V25.5216Z" fill="black"/>
<path d="M163.503 27.6217V29.1216H162.26V34.7723H160.089V29.1216H158.84V27.6217H163.503Z" fill="black"/>
<path d="M165.88 30.3925H163.84V29.9125C163.84 29.3616 163.905 28.9362 164.031 28.6362C164.156 28.3362 164.413 28.0689 164.8 27.8398C165.182 27.6108 165.683 27.4962 166.3 27.4962C167.036 27.4962 167.592 27.6271 167.963 27.8889C168.334 28.1507 168.563 28.4671 168.634 28.8489C168.705 29.2307 168.749 30.0052 168.749 31.1888V34.7778H166.632V34.1396C166.502 34.3959 166.327 34.5868 166.12 34.7123C165.907 34.8377 165.662 34.9032 165.367 34.9032C164.985 34.9032 164.636 34.7941 164.32 34.5814C164.003 34.3687 163.845 33.8996 163.845 33.1796V32.5906C163.845 32.056 163.927 31.6906 164.096 31.4997C164.265 31.3033 164.685 31.0797 165.351 30.8234C166.065 30.5452 166.447 30.3543 166.496 30.2561C166.545 30.1579 166.572 29.9616 166.572 29.6616C166.572 29.2907 166.545 29.0452 166.491 28.9307C166.436 28.8162 166.343 28.7616 166.212 28.7616C166.065 28.7616 165.972 28.8107 165.94 28.9034C165.902 28.9962 165.885 29.2471 165.885 29.6452V30.3925H165.88ZM166.567 31.3742C166.218 31.6306 166.016 31.8433 165.962 32.0179C165.907 32.1924 165.88 32.4378 165.88 32.7596C165.88 33.1305 165.902 33.3705 165.951 33.4742C166 33.5778 166.092 33.6378 166.24 33.6378C166.376 33.6378 166.463 33.5942 166.507 33.5123C166.551 33.4251 166.567 33.2069 166.567 32.8469V31.3742Z" fill="black"/>
<path d="M173.813 27.6217L172.945 31.0361L173.998 34.7669H171.882C171.669 33.8233 171.511 33.0106 171.402 32.3343C171.254 33.1851 171.102 33.9924 170.927 34.7669H169.105L170.044 31.0361L169.105 27.6217H170.927C171.222 29.0835 171.38 29.9125 171.402 30.1089C171.614 28.8871 171.773 28.0581 171.882 27.6217H173.813Z" fill="black"/>
</g>
<defs>
<clipPath id="clip0_6950_141019">
<rect width="173.333" height="40" fill="white" transform="translate(0.664062)"/>
</clipPath>
</defs>
</svg>
