<svg width="95" height="40" viewBox="0 0 95 40" fill="none" xmlns="http://www.w3.org/2000/svg">
<g clip-path="url(#clip0_6950_126900)">
<path d="M31.3912 31.5152H22.8978L20.3524 19.897C20.2312 19.4097 20.0396 18.4424 19.779 16.9964C19.5561 15.7915 19.3649 14.581 19.2057 13.3661C19.1087 14.1564 18.9512 15.1394 18.733 16.3115C18.5148 17.4861 18.299 18.5649 18.0869 19.5503C17.8748 20.5346 16.9924 24.5237 15.4409 31.5152H6.94752L0.363281 4.84851H7.29298L10.1851 18.2182C10.8396 21.1734 11.2881 23.5261 11.5306 25.2776C11.6881 24.0364 11.9706 22.3528 12.3766 20.2243C12.7827 18.097 13.1609 16.3334 13.5124 14.9346L15.859 4.84851H22.516L24.7899 14.9346C25.1778 16.5528 25.5718 18.4194 25.9718 20.5346C26.3718 22.6509 26.6384 24.2315 26.7718 25.2776C26.9293 23.9273 27.3596 21.5867 28.0627 18.2546L31.0093 4.84851H37.939L31.3912 31.5152Z" fill="#131313"/>
<path d="M82.2276 31.5152H74.8822V10.7394H68.2422V4.84851H88.8482V10.7394H82.2276V31.5152Z" fill="#333333"/>
<path d="M70.3718 30.4102C72.4797 27.3233 73.6997 23.6284 73.6997 19.6498C73.6997 8.79478 64.5971 0 53.3663 0C48.5406 0 44.1079 1.62116 40.6241 4.3366C34.8766 14.3067 33.6295 31.187 50.1198 31.849C55.054 32.0449 58.0227 29.782 59.4121 26.6815C57.8532 28.4446 55.7115 29.5253 53.3392 29.5253C51.76 29.5253 50.2825 29.0457 49.0082 28.2014C37.5063 24.1012 41.9051 6.50489 53.7933 5.20121C67.6946 3.67462 74.7841 18.0962 70.7039 29.4375C70.609 29.7685 70.5006 30.0927 70.3718 30.4102Z" fill="#4F4F4F"/>
<path fill-rule="evenodd" clip-rule="evenodd" d="M70.7232 29.4645C70.6283 29.7955 70.5198 30.1197 70.3978 30.4372C66.7717 35.7938 60.5091 39.3333 53.3856 39.3333C51.2913 39.3333 49.2715 39.0293 47.3737 38.4552C54.4023 39.7453 61.8985 36.8678 65.4975 28.458C70.0183 17.9002 59.8042 6.09281 50.8101 10.3078C50.8033 10.3011 50.7897 10.3078 50.783 10.3146C47.2585 11.5642 44.6965 15.2996 44.6965 19.7173C44.6965 23.3581 46.4384 26.5329 49.0207 28.2351C37.5256 24.1282 41.9244 6.53863 53.8058 5.23495C67.7138 3.70836 74.7966 18.1299 70.7232 29.4645Z" fill="#8C8C8C"/>
<path fill-rule="evenodd" clip-rule="evenodd" d="M65.4765 28.4311C61.8775 36.8408 54.3812 39.7184 47.3527 38.4282C47.3459 38.4282 47.3391 38.4282 47.3324 38.4215C47.3256 38.4282 47.3188 38.4215 47.3188 38.4215C39.0431 35.9357 33.0312 28.4784 33.0312 19.6566C33.0312 13.4691 35.9864 7.95721 40.6088 4.36365C34.868 14.3405 33.6413 31.1938 50.1112 31.8558C55.0455 32.0517 58.0074 29.7888 59.4104 26.6951C60.9964 24.9118 61.9859 22.4328 61.9859 19.6903C61.9859 16.3197 60.5016 13.3543 58.231 11.5778C56.8348 10.4835 55.1471 9.84856 53.3307 9.84856C52.4428 9.84856 51.5888 9.99717 50.789 10.2809C59.7831 6.07262 69.9972 17.8733 65.4765 28.4311Z" fill="#6C6C6C"/>
</g>
<defs>
<clipPath id="clip0_6950_126900">
<rect width="94.5454" height="40" fill="white" transform="translate(0.121094)"/>
</clipPath>
</defs>
</svg>
