<svg width="141" height="140" viewBox="0 0 141 140" fill="none" xmlns="http://www.w3.org/2000/svg">
<path d="M34.3333 86.6177C34.9325 84.9143 35.6205 83.2387 36.1088 81.5077C36.7967 79.0553 38.0174 78.6336 40.1424 79.477C41.757 80.115 43.4436 80.5866 45.0859 81.1637C46.1734 81.5465 46.7671 82.5397 46.5673 83.5439C46.3177 84.7867 45.1081 85.5136 43.8597 85.1585C43.4658 85.0475 43.0719 84.9088 42.6835 84.7812L42.5392 84.9199C43.3992 86.1627 44.1982 87.4555 45.1248 88.6484C49.2527 93.9248 54.3961 97.7976 60.821 99.8782C62.1415 100.305 62.7574 101.387 62.3967 102.552C62.025 103.751 60.8654 104.284 59.5282 103.851C52.8092 101.698 47.272 97.7809 42.7834 92.3879C41.3464 90.6624 40.1091 88.7704 38.7442 86.9006C38.6721 87.117 38.5833 87.3833 38.489 87.6497C38.1284 88.6595 37.4404 89.2476 36.5249 89.2642C35.5317 89.2809 34.8549 88.7982 34.4665 87.8882C34.4443 87.8328 34.3832 87.7884 34.3388 87.7384C34.3388 87.3667 34.3388 86.995 34.3388 86.6232L34.3333 86.6177Z" fill="#4D7BF1"/>
<path d="M38.7107 59.6531C38.744 48.0516 48.2705 38.5529 59.7833 38.6472C71.407 38.7415 80.7725 48.1404 80.7448 59.6864C80.7171 71.2991 71.1962 80.7978 59.6778 80.6868C48.043 80.5759 38.6774 71.1881 38.7051 59.6531H38.7107ZM61.8584 49.1835C61.8417 48.9227 61.8361 48.7618 61.8195 48.6009C61.6919 47.4357 60.793 46.6423 59.6501 46.6756C58.5293 46.7089 57.6749 47.5855 57.6416 48.7618C57.6305 49.1779 57.6694 49.5164 57.1478 49.7549C54.4125 51.0033 52.9865 53.8052 53.558 56.6792C54.1406 59.6088 56.5542 61.6339 59.6335 61.7671C60.9429 61.8225 61.8417 62.6936 61.8306 63.8976C61.8195 65.1071 60.904 65.9671 59.6001 65.9782C58.2741 65.9893 56.9481 65.9616 55.622 65.9893C54.3348 66.0115 53.4249 66.927 53.4415 68.1254C53.4582 69.3072 54.3625 70.1506 55.6331 70.1672C56.2767 70.1783 56.9259 70.1672 57.5861 70.1672C57.6138 70.3226 57.6305 70.4113 57.6416 70.4946C57.7414 71.8539 58.5627 72.6917 59.7777 72.6751C60.9817 72.6584 61.8361 71.7485 61.8195 70.4169C61.8139 69.9286 62.0137 69.7511 62.4187 69.5625C65.0875 68.3085 66.4801 65.4678 65.8975 62.566C65.3316 59.7697 62.857 57.7001 59.9441 57.5892C58.5293 57.5337 57.6194 56.6737 57.6471 55.4198C57.6693 54.1936 58.5959 53.378 59.9775 53.3724C61.3035 53.3669 62.6295 53.4002 63.9556 53.3558C65.1984 53.3114 66.075 52.3571 66.0362 51.1864C65.9974 50.0379 65.1096 49.2056 63.8779 49.1835C63.2287 49.1724 62.5796 49.1835 61.8749 49.1835H61.8584Z" fill="#4D7BF1"/>
<path d="M59.9182 84.8648C63.114 84.8315 66.1489 84.2378 69.1173 83.0671C69.206 83.3002 69.2837 83.4833 69.3448 83.6719C70.7263 87.8775 73.567 90.6073 77.8559 91.5949C82.1336 92.577 85.8399 91.3175 88.9081 88.1771C89.402 87.6722 89.7182 87.1008 89.6572 86.3739C89.585 85.5028 89.1467 84.8759 88.3367 84.5707C87.4378 84.2323 86.6278 84.4598 85.9953 85.1644C84.7136 86.5903 83.1323 87.417 81.2348 87.6778C78.0001 88.1272 74.4714 85.9301 73.456 82.8008C73.4283 82.7176 73.4283 82.6233 73.4005 82.4346H74.1662C76.4688 82.4346 78.7714 82.4346 81.0739 82.4346C82.5942 82.4346 83.5873 81.5913 83.5651 80.3207C83.5485 79.0668 82.5775 78.2512 81.1016 78.2512C79.7534 78.2512 78.4051 78.2512 77.0569 78.2456C77.018 78.2456 76.9848 78.2068 76.8461 78.1347C77.118 77.885 77.4009 77.6797 77.6117 77.4189C78.6492 76.1706 79.7201 74.9388 80.6799 73.6294C81.0683 73.0968 81.4179 72.9969 82.006 73.1412C83.5429 73.5185 84.8468 74.2675 85.9065 75.4382C86.4391 76.0263 87.0771 76.3592 87.8817 76.2371C88.6751 76.1151 89.2577 75.6768 89.5296 74.9055C89.807 74.1232 89.6849 73.3908 89.13 72.7583C87.7041 71.1271 85.9564 69.9842 83.8924 69.3184C83.6761 69.2463 83.4486 69.1852 83.1268 69.0909C84.2697 66.1225 84.9133 63.0821 84.9244 59.8252C88.7861 60.6907 92.0762 62.444 94.8615 65.1183C98.7065 68.8079 100.892 73.3187 101.336 78.6396C102.285 89.9637 93.9904 100.045 82.6219 101.238C71.0924 102.447 61.9211 94.3857 59.9126 84.8703L59.9182 84.8648Z" fill="#4D7BF1"/>
<path d="M101.336 53.2447C101.491 52.8175 101.608 52.4735 101.741 52.135C102.179 51.042 103.272 50.4983 104.332 50.8478C105.441 51.2085 106.046 52.3237 105.686 53.4611C105.036 55.4973 104.36 57.5225 103.655 59.5365C103.244 60.7072 102.151 61.2232 100.947 60.8293C98.961 60.1857 96.9803 59.5143 95.0051 58.8319C93.8511 58.4324 93.2906 57.3172 93.6402 56.2186C94.0008 55.0923 95.1327 54.5208 96.3201 54.8704C96.714 54.9869 97.1024 55.1145 97.6239 55.2754C95.915 52.2904 93.901 49.7493 91.5319 47.4911C87.9976 44.1233 83.9528 41.5988 79.2756 40.1174C77.9772 39.7068 77.3725 38.5805 77.7498 37.4098C78.1215 36.2668 79.2923 35.7231 80.5906 36.1392C86.2221 37.9313 91.0491 41.0217 95.1937 45.2052C97.4131 47.4467 99.3328 49.9213 100.942 52.6344C101.047 52.8064 101.164 52.9728 101.336 53.2336V53.2447Z" fill="#4D7BF1"/>
</svg>
