<svg width="141" height="140" viewBox="0 0 141 140" fill="none" xmlns="http://www.w3.org/2000/svg">
<path d="M65.4091 38C66.7336 38.1662 68.0635 38.2896 69.3773 38.5094C73.0345 39.1315 76.5202 40.2362 79.5661 42.4241C80.4402 43.0515 81.266 43.7915 81.9685 44.6012C84.7141 47.7544 84.6229 51.5939 81.7808 54.6559C79.6733 56.9243 76.9974 58.2649 74.107 59.1926C68.3853 61.0266 62.5509 61.2518 56.6575 60.2436C53.0861 59.6323 49.6862 58.5384 46.6779 56.4524C44.7313 55.101 43.1493 53.4494 42.5273 51.0684C42.4683 50.8485 42.3986 50.634 42.3396 50.4195V48.666C42.9831 45.6416 44.9297 43.6092 47.4393 42.0165C50.4263 40.1235 53.7349 39.0886 57.1937 38.5148C58.4646 38.3057 59.7463 38.1716 61.0225 38.0054C62.4865 38.0054 63.9505 38.0054 65.4091 38.0054V38Z" fill="#4D7BF1"/>
<path d="M42.3396 57.8086C47.08 62.0074 52.8126 63.6805 58.9419 64.3508C62.0897 64.694 65.2375 64.6351 68.5193 64.2329C68.085 64.7209 67.731 65.1177 67.3878 65.5145C65.7952 67.3378 64.5028 69.3541 63.5429 71.5688C63.366 71.9763 63.1622 72.1211 62.7117 72.1104C57.8158 71.987 53.0753 71.1827 48.6673 68.9304C46.769 67.9598 45.0798 66.7211 43.7928 64.9836C43.0582 63.9916 42.656 62.8654 42.3503 61.6964V57.8086H42.3396Z" fill="#4D7BF1"/>
<path d="M42.3396 80.3799C44.2272 82.053 46.3239 83.3882 48.6566 84.3696C52.5444 86.0051 56.6146 86.8149 60.8134 87.0401C62.0414 87.1045 62.0468 87.0884 62.3793 88.2467C62.9638 90.3059 63.8164 92.2471 64.9157 94.0811C64.9962 94.2205 65.0659 94.3653 65.1785 94.5798C64.6422 94.612 64.165 94.6602 63.6877 94.6656C58.6845 94.6978 53.8314 93.9631 49.268 91.8074C47.1337 90.7939 45.2193 89.4854 43.7821 87.5603C43.0421 86.5736 42.6453 85.4474 42.3396 84.2731V80.3852V80.3799Z" fill="#4D7BF1"/>
<path d="M42.3386 69.0967C44.3174 70.8609 46.5428 72.2337 48.9989 73.2312C52.7258 74.7434 56.619 75.5049 60.6194 75.7515C60.9948 75.773 61.3701 75.7891 61.7455 75.8159C61.8259 75.8159 61.9064 75.8481 62.0619 75.8802C61.5471 78.2987 61.2361 80.7279 61.4935 83.318C60.3942 83.2161 59.3377 83.1464 58.2921 83.0124C54.4793 82.5083 50.8114 81.5216 47.4813 79.516C45.9476 78.5883 44.5265 77.4997 43.5988 75.95C43.0518 75.0383 42.7462 73.9819 42.3333 72.9899V69.102L42.3386 69.0967Z" fill="#4D7BF1"/>
<path d="M85.8716 60.8228C97.283 60.8389 106.565 70.1481 106.539 81.5488C106.512 92.9602 97.1972 102.237 85.7965 102.2C74.4119 102.162 65.1563 92.8798 65.1616 81.5006C65.1616 70.0945 74.4709 60.8013 85.8716 60.8174V60.8228ZM83.9572 72.4326C83.7212 72.5452 83.5067 72.6364 83.303 72.7382C80.0962 74.3684 79.1953 78.4815 81.4529 81.2753C82.5844 82.6749 84.0805 83.3399 85.8716 83.3989C86.8958 83.4311 87.6627 84.2033 87.7163 85.1739C87.7699 86.1123 87.0728 86.9703 86.1236 87.1312C85.2067 87.2867 84.3218 86.7022 84.0269 85.7423C83.9786 85.5921 83.9411 85.4366 83.9036 85.3026H80.2195C80.2195 85.5171 80.1981 85.7048 80.2195 85.8817C80.5091 87.9087 81.5441 89.421 83.3995 90.3058C83.866 90.5256 83.9733 90.7777 83.9625 91.2442C83.9304 92.365 83.9518 93.4911 83.9518 94.6333H87.7163C87.7163 93.475 87.7431 92.3489 87.7056 91.2281C87.6895 90.7401 87.8396 90.5149 88.2847 90.2951C90.2259 89.3459 91.3253 87.7586 91.454 85.6082C91.588 83.3828 90.6388 81.6453 88.7512 80.4441C87.845 79.8704 86.8422 79.6505 85.7751 79.613C84.7884 79.5754 84.0269 78.8139 83.9625 77.8701C83.8982 76.9317 84.5739 76.0683 85.523 75.886C86.4347 75.7144 87.3409 76.2936 87.6412 77.2427C87.6895 77.3982 87.727 77.5538 87.7699 77.7039H91.5022C91.336 75.1353 90.0597 73.4193 87.7002 72.4111V68.3893H83.9518V72.4272L83.9572 72.4326Z" fill="#4D7BF1"/>
</svg>
