<svg width="140" height="140" viewBox="0 0 140 140" fill="none" xmlns="http://www.w3.org/2000/svg">
<path d="M78.1413 59.8697C82.0363 59.8697 85.8102 59.8697 89.5841 59.8697C91.1355 59.8697 92.6905 59.8624 94.2419 59.8697C97.528 59.8917 99.9889 62.3526 100.154 65.6424C100.297 68.5361 99.8019 71.2354 98.5623 73.8981C95.7419 79.9495 93.1013 86.0854 90.3873 92.1882C88.9679 95.3863 86.496 96.9817 83.0155 96.9927C77.0924 97.0073 71.1656 96.9927 65.2425 97C62.4479 97.0037 60.0713 96.0428 58.1165 94.0329C57.1519 93.039 56.1727 92.0598 55.1824 91.0879C54.7313 90.6441 54.5076 90.149 54.5113 89.4998C54.5223 82.1171 54.5113 74.7343 54.5406 67.3552C54.5406 66.8747 54.713 66.2402 55.0431 65.9395C60.5261 60.9883 64.5054 54.8305 68.7634 48.9C69.7646 47.5027 70.7915 46.12 71.7561 44.7007C73.1351 42.6762 74.9762 41.631 77.4335 42.1187C79.8724 42.6029 81.2001 44.3229 81.8859 46.5931C82.359 48.1592 82.1793 49.7069 81.5705 51.2179C80.5106 53.8512 79.458 56.4882 78.4054 59.1215C78.321 59.3379 78.2477 59.5579 78.1377 59.8697H78.1413Z" fill="#4D7BF1"/>
<path d="M49.6609 79.4286C49.6609 82.7991 49.6829 86.1659 49.6536 89.5364C49.6353 91.7919 48.2269 93.7064 46.1291 94.4509C43.9982 95.2064 41.6803 94.5793 40.228 92.8409C39.4688 91.935 39.0177 90.886 39.0177 89.6941C39.0067 82.8138 38.9774 75.9334 39.0324 69.0531C39.0544 66.1961 41.5007 63.9882 44.398 64.0139C47.2367 64.0359 49.6059 66.2878 49.6463 69.1118C49.694 72.552 49.6573 75.9921 49.6573 79.4323H49.6609V79.4286Z" fill="#4D7BF1"/>
</svg>
