<svg width="123" height="40" viewBox="0 0 123 40" fill="none" xmlns="http://www.w3.org/2000/svg">
<g clip-path="url(#clip0_6795_158143)">
<path d="M18.6685 20.4052C18.6401 21.184 18.1672 21.8382 17.8077 22.4612C15.8401 25.836 13.863 29.2003 11.8292 32.5232C10.344 34.953 8.40477 34.953 6.90067 32.5024C4.829 29.1173 2.5303 25.3375 0.714039 21.7863C0.193757 20.7582 0.212676 19.7095 0.723499 18.6711C2.49246 15.0886 5.16009 11.122 7.17501 7.69531C8.38585 5.6393 10.3629 5.40047 11.5832 7.26957C13.9954 10.9455 15.8117 14.8913 18.1009 18.6711C18.3942 19.1487 18.6969 19.751 18.6685 20.4156V20.4052ZM9.37911 32.1701C11.7819 28.0997 13.9292 24.5172 16.0198 20.9036C16.1995 20.6025 16.1995 19.9691 16.0198 19.6679C14.8752 17.7262 13.6644 15.8363 12.113 13.3338C11.2805 18.8788 8.57504 21.8174 3.8452 22.835L9.37911 32.1701Z" fill="#7E7E7E"/>
<path d="M30.7015 31.1322H26L32.111 11.2678H37.9381L44.0491 31.1322H39.3476L35.1002 16.2729H34.9583L30.7204 31.1322H30.7015ZM30.0771 23.3131H39.9057V26.9579H30.0771V23.3131Z" fill="white"/>
<path d="M46 11.2678H51.4204L56.0178 23.5727H56.2259L60.8233 11.2678H66.2437V31.1322H61.9869V18.9311H61.8355L57.4841 31.0076H54.7597L50.4082 18.8584H50.2569V31.1322H46V11.2678Z" fill="white"/>
<path d="M68.9743 31.1322V11.2678H73.3447V27.2382H80.8746V31.1426H68.9648L68.9743 31.1322Z" fill="white"/>
<path d="M83.1462 31.1322V11.2678H90.695C92.0477 11.2678 93.1829 11.4755 94.1005 11.9012C95.0181 12.3166 95.7086 12.9085 96.1722 13.6665C96.6357 14.4245 96.8627 15.2968 96.8627 16.2936C96.8627 17.0516 96.7208 17.7266 96.4276 18.3185C96.1343 18.9104 95.737 19.3984 95.2357 19.793C94.7248 20.1772 94.1383 20.4576 93.4762 20.6133V20.8106C94.2045 20.8522 94.8856 21.0702 95.5005 21.4648C96.1154 21.8594 96.6262 22.4097 96.9952 23.1055C97.3735 23.8116 97.5627 24.6319 97.5627 25.5976C97.5627 26.6671 97.3168 27.6225 96.8249 28.4532C96.333 29.2943 95.614 29.9484 94.6775 30.4365C93.741 30.9245 92.6059 31.1634 91.2626 31.1634H83.1367L83.1462 31.1322ZM87.5166 19.4296H89.9382C90.4112 19.4296 90.8369 19.3465 91.2153 19.17C91.5842 18.9934 91.8775 18.7442 92.0856 18.4119C92.2937 18.0797 92.3977 17.6851 92.3977 17.2178C92.3977 16.5532 92.1802 16.0236 91.7545 15.6498C91.3288 15.2656 90.7423 15.0787 90.0139 15.0787H87.526V19.4399L87.5166 19.4296ZM87.5166 27.259H90.222C91.168 27.259 91.868 27.0617 92.3221 26.6671C92.7761 26.2725 92.9937 25.7222 92.9937 25.0161C92.9937 24.5073 92.8802 24.0608 92.6626 23.687C92.445 23.3131 92.1329 23.0328 91.7356 22.8251C91.3383 22.6174 90.8558 22.524 90.2977 22.524H87.5166V27.259Z" fill="white"/>
<path d="M106.009 31.4125C104.581 31.4125 103.36 31.0906 102.339 30.4468C101.317 29.803 100.532 28.8996 99.9831 27.747C99.4345 26.5944 99.1602 25.2548 99.1602 23.7284C99.1602 22.202 99.4345 20.8521 99.9831 19.6994C100.532 18.5468 101.317 17.6434 102.339 16.9996C103.36 16.3558 104.581 16.0339 106.009 16.0339C107.437 16.0339 108.658 16.3558 109.679 16.9996C110.701 17.6434 111.486 18.5468 112.035 19.6994C112.583 20.8521 112.858 22.202 112.858 23.7284C112.858 25.2548 112.583 26.5944 112.035 27.747C111.486 28.8996 110.701 29.803 109.679 30.4468C108.658 31.0906 107.437 31.4125 106.009 31.4125ZM106.037 27.83C106.558 27.83 106.993 27.6535 107.352 27.3108C107.712 26.9578 107.986 26.4801 108.175 25.8571C108.364 25.2341 108.459 24.5176 108.459 23.7076C108.459 22.8977 108.364 22.15 108.175 21.5374C107.986 20.9144 107.712 20.4263 107.352 20.0837C106.993 19.741 106.558 19.5645 106.037 19.5645C105.517 19.5645 105.054 19.741 104.685 20.0837C104.316 20.4263 104.032 20.9144 103.843 21.5374C103.654 22.1604 103.559 22.8873 103.559 23.7076C103.559 24.528 103.654 25.2444 103.843 25.8571C104.032 26.4801 104.316 26.9682 104.685 27.3108C105.054 27.6639 105.508 27.83 106.037 27.83Z" fill="white"/>
<path d="M122.745 16.2312V19.7202H114.184V16.2312H122.745ZM115.971 12.6592H120.295V26.449C120.295 26.7397 120.332 26.9786 120.427 27.1551C120.512 27.3316 120.635 27.4562 120.805 27.5289C120.966 27.6016 121.165 27.6431 121.401 27.6431C121.562 27.6431 121.742 27.6224 121.931 27.5912C122.12 27.5601 122.253 27.5289 122.347 27.4978L123 30.9244C122.792 30.9867 122.508 31.0698 122.13 31.1633C121.751 31.2567 121.307 31.319 120.786 31.3502C119.774 31.4021 118.904 31.2671 118.185 30.9556C117.466 30.6441 116.908 30.156 116.53 29.4811C116.151 28.8165 115.962 27.9754 115.981 26.9682V12.6592H115.971Z" fill="white"/>
</g>
<defs>
<clipPath id="clip0_6795_158143">
<rect width="122.667" height="40" fill="white" transform="translate(0.332031)"/>
</clipPath>
</defs>
</svg>
