<svg width="126" height="40" viewBox="0 0 126 40" fill="none" xmlns="http://www.w3.org/2000/svg">
<g clip-path="url(#clip0_6795_158147)">
<path d="M13.1247 24.8732H6.86171L5.88253 28.0482H0.667969L7.60532 8.49731H12.3626L19.4524 28.0533H14.0947L13.1201 24.8783L13.1247 24.8732ZM9.98398 14.5967L8.04872 20.6552H11.9377L9.98398 14.5967Z" fill="white"/>
<path d="M34.394 18.8505V28.0482H29.7014V19.5714C29.7014 17.8177 29.1056 16.9434 27.9232 16.9434C26.459 16.9434 25.6184 18.0733 25.6184 19.9957V28.0533H20.9258V12.9658H24.2189L24.8656 14.52C25.8817 13.2674 27.392 12.5159 29.1564 12.5159C32.3202 12.5159 34.3987 15.0057 34.3987 18.8505H34.394Z" fill="white"/>
<path d="M46.2903 23.4978V28.0481H43.0618C40.0458 28.0481 38.2168 26.0081 38.2168 22.6542V16.9638H35.7227V15.747L41.8286 8.54834H42.794V12.9657H46.2164V16.9689H42.9094V21.7697C42.9094 22.8485 43.496 23.5029 44.489 23.5029H46.2903V23.4978Z" fill="white"/>
<path d="M48.4766 12.9656H53.1692V28.0531H48.4766V12.9656ZM48.5135 6.66675H53.1369V11.0739H48.5135V6.66675Z" fill="white"/>
<path d="M55.5053 21.7337H60.5259C60.5259 23.1294 61.5005 23.8094 62.609 23.8094C63.6297 23.8094 64.5996 23.2112 64.5996 22.1427C64.5996 20.9157 63.2233 20.5629 61.542 20.1079C58.9879 19.4023 55.727 18.5383 55.727 14.0851C55.727 10.2353 58.2812 8.02661 62.4473 8.02661C66.6134 8.02661 69.1122 10.4347 69.1122 14.4123H64.2301C64.2301 13.1751 63.3988 12.5973 62.3873 12.5973C61.5189 12.5973 60.6876 13.0115 60.6876 13.9266C60.6876 15.0361 62.0178 15.4042 63.6805 15.8695C66.2809 16.6108 69.6803 17.572 69.6803 22.0404C69.6803 26.5089 66.715 28.5284 62.6136 28.5284C58.2904 28.5284 55.4961 25.9977 55.4961 21.7337H55.5053Z" fill="white"/>
<path d="M92.2248 12.9656L87.8832 28.0531H84.1004L81.4031 21.2941L78.7658 28.0531H74.983L70.5352 12.9656H75.4495L77.5141 20.8851L80.7333 13.0116H81.9989L85.3983 20.9567L87.4305 12.9604H92.2248V12.9656Z" fill="white"/>
<path d="M107.936 12.9501V28.0376H104.306L103.904 26.9691C102.787 27.9712 101.373 28.5438 99.7936 28.5438C95.6275 28.5438 92.6484 25.1797 92.6484 20.4913C92.6484 15.803 95.6275 12.4951 99.7936 12.4951C101.401 12.4951 102.833 13.0882 103.96 14.1158L104.44 12.9501H107.936ZM103.47 20.5067C103.47 18.5485 102.177 17.0761 100.422 17.0761C98.6667 17.0761 97.3688 18.5485 97.3688 20.5067C97.3688 22.4648 98.662 23.9475 100.422 23.9475C102.182 23.9475 103.47 22.4751 103.47 20.5067Z" fill="white"/>
<path d="M126.002 20.5066C126.002 25.2051 123.023 28.5591 118.857 28.5591C117.624 28.5591 116.497 28.2012 115.536 27.557V33.4979H110.895V12.9654H114.086L114.673 14.1618C115.795 13.0881 117.236 12.4695 118.857 12.4695C123.023 12.4695 126.002 15.8081 126.002 20.5066ZM121.277 20.5066C121.277 18.5229 119.984 17.0555 118.229 17.0555C116.474 17.0555 115.181 18.528 115.181 20.5066C115.181 22.4852 116.474 23.9577 118.229 23.9577C119.984 23.9577 121.277 22.4852 121.277 20.5066Z" fill="white"/>
</g>
<defs>
<clipPath id="clip0_6795_158147">
<rect width="125.333" height="40" fill="white" transform="translate(0.667969)"/>
</clipPath>
</defs>
</svg>
