<svg width="215" height="40" viewBox="0 0 215 40" fill="none" xmlns="http://www.w3.org/2000/svg">
<g clip-path="url(#clip0_6810_76682)">
<path d="M77.9226 7.73962C77.9226 7.73962 75.1408 6.30642 70.5928 6.53057C66.0449 6.75472 60.5722 9.0234 58.5483 14.1517C56.8125 18.5532 58.4649 26.4528 66.2116 27.5125C69.1526 27.9132 71.9421 27.5125 71.9421 27.5125L69.6681 38H52.4844V2.15623L80.6135 2C80.6135 2 79.1582 3.54189 78.5063 5.02264C77.9833 6.22491 77.9151 7.73962 77.9151 7.73962H77.9226Z" fill="#7C7C7C"/>
<path d="M83.5742 2C83.5742 2 85.2813 6.32183 87.8457 9.99708C89.3142 12.0933 92.393 16 92.393 16C92.393 16 97.0223 10.4395 101.092 7.60817C104.097 5.51872 105.781 4.32086 105.781 4.32086L98.6996 4.43656L100.906 2.01361H83.5742V2Z" fill="#7C7C7C"/>
<path d="M113.926 30.0001V14.7839L111.23 17.0482V8.66675C111.23 8.66675 102.54 15.3064 100.087 17.9191L97.6406 20.5318C97.6406 20.5318 100.05 24.3079 104.494 26.8579C110.371 30.223 113.919 29.9931 113.919 29.9931L113.926 30.0001Z" fill="#7C7C7C"/>
<path d="M114.666 33.4751C114.666 33.4751 113.09 36.3785 109.138 36.2468C104.772 36.1013 99.2741 32.1447 95.9407 28.7424L92.6074 25.3333C92.6074 25.3333 90.9181 28.3821 87.17 31.6666C83.5878 34.8055 81.3555 35.8449 81.3555 35.8449C81.3555 35.8449 84.6888 36.6556 86.446 36.8843L88.2032 37.113L86.3781 37.9999H114.659V33.4751H114.666Z" fill="#7C7C7C"/>
<path d="M88.0177 20.869L83.7033 16L83.4557 19.3412H66.5508C66.5508 19.3412 66.5733 21.0948 68.4491 22.0314C70.3249 22.968 72.2608 22.4167 73.3263 21.6993C74.3917 20.9819 74.6994 20.6099 74.6994 20.6099L82.5778 21.4801C82.5778 21.4801 81.8875 23.3333 79.5765 25.0537C77.7607 26.4022 76.0725 26.7409 76.0725 26.7409L76.0125 30.6667C76.0125 30.6667 80.3794 28.8865 83.4557 26.0966C86.1719 23.6322 88.0177 20.8623 88.0177 20.8623V20.869Z" fill="#7C7C7C"/>
<path d="M66.5508 15.3333C66.5508 15.3333 67.2837 11.3333 71.0728 11.3333C74.6934 11.3333 74.6934 15.3333 74.6934 15.3333H66.5508Z" fill="#7C7C7C"/>
<path d="M125.982 20.5135H125.265L125.092 19.1203C124.865 18.8349 124.496 18.597 123.967 18.4067C123.402 18.1961 122.843 18.0941 122.307 18.0941C121.077 18.0941 120.134 18.4883 119.485 19.2834C118.995 19.8815 118.753 20.765 118.753 21.9135C118.753 23.3814 119.146 24.5572 119.93 25.4338C120.806 26.3989 121.96 26.8814 123.409 26.8814C124.292 26.8814 125.182 26.6571 126.08 26.2154L126.337 26.562L125.801 27.2892C125.665 27.4659 125.22 27.6426 124.458 27.8125C123.696 27.9824 122.986 28.0707 122.322 28.0707C120.73 28.0707 119.402 27.6426 118.338 26.7795C117.123 25.794 116.52 24.4756 116.52 22.831C116.52 21.8116 116.746 20.9145 117.206 20.1261C117.667 19.3446 118.338 18.699 119.229 18.2029C120.76 17.3398 122.141 16.9116 123.371 16.9116C124.375 16.9116 125.364 17.1767 126.329 17.7136C126.103 18.5359 125.99 19.4737 125.967 20.5135H125.982Z" fill="#7C7C7C"/>
<path d="M127.422 26.9969L128.561 26.9289C128.999 26.9017 129.263 26.7998 129.361 26.6367C129.459 26.4736 129.504 26.0182 129.504 25.2843V13.4592C129.504 12.8339 129.293 12.5213 128.87 12.5213H127.444V11.8893C129.112 11.6582 130.432 11.3796 131.406 11.0398L131.625 11.2165V18.9844L133.541 17.4824C133.821 17.2718 134.107 17.129 134.402 17.0407C134.696 16.9523 135.081 16.9116 135.556 16.9116C138.371 16.9116 139.774 18.2368 139.774 20.8804V25.2843C139.774 26.0182 139.82 26.4736 139.918 26.6367C140.016 26.8066 140.28 26.9017 140.718 26.9289L141.759 26.9969V27.6765C140.688 27.6289 139.978 27.6085 139.646 27.6085C139.284 27.6085 138.62 27.6289 137.654 27.6765V21.1999C137.654 20.1805 137.337 19.4261 136.711 18.9232C136.183 18.5086 135.564 18.298 134.839 18.298C133.828 18.298 132.968 18.631 132.266 19.3038C131.836 19.7047 131.625 20.0853 131.625 20.4387V25.2775C131.625 26.0114 131.67 26.4668 131.768 26.6299C131.866 26.7998 132.13 26.8949 132.568 26.9221L133.707 26.9901V27.6697C132.304 27.6221 131.255 27.6017 130.561 27.6017C129.867 27.6017 128.818 27.6221 127.414 27.6697V26.9901L127.422 26.9969Z" fill="#7C7C7C"/>
<path d="M150.243 25.7398L147.096 27.7039C146.9 27.833 146.545 27.8942 146.032 27.8942C145.126 27.8942 144.402 27.6971 143.866 27.3029C143.179 26.8068 142.84 26.0728 142.84 25.0942C142.84 24.1156 143.225 23.3069 143.987 22.7292C144.757 22.1583 146.002 21.7302 147.722 21.4447L150.235 21.0302C150.22 20.4389 150.137 19.9632 149.978 19.603C149.827 19.2428 149.571 18.937 149.216 18.6788C148.696 18.2982 147.888 18.1079 146.794 18.1079C146.198 18.1079 145.79 18.1758 145.572 18.3186C145.353 18.4613 145.104 18.8011 144.84 19.3448L144.508 20.0448L143.851 19.8884V18.4069L145.187 17.6797C146.145 17.1632 147.171 16.8982 148.265 16.8982C149.782 16.8982 150.854 17.2788 151.473 18.0331C152.001 18.672 152.265 19.8069 152.265 21.4311V25.6107C152.265 26.1816 152.303 26.5418 152.386 26.6913C152.469 26.8408 152.657 26.9223 152.974 26.9359L153.963 26.9835V27.6631C153.729 27.6563 153.555 27.6495 153.442 27.6427C152.793 27.6155 152.34 27.5951 152.091 27.5951C151.797 27.5951 151.133 27.6155 150.114 27.6631L150.235 25.7262L150.243 25.7398ZM150.243 24.7816V21.7709C148.265 22.0224 146.937 22.335 146.273 22.6952C145.896 22.9059 145.594 23.1981 145.36 23.5719C145.134 23.9457 145.021 24.3398 145.021 24.7612C145.021 25.3185 145.239 25.7738 145.692 26.134C146.054 26.4398 146.469 26.5893 146.93 26.5893C147.662 26.5893 148.545 26.2088 149.563 25.4408C149.82 25.2505 150.046 25.0262 150.243 24.7816Z" fill="#7C7C7C"/>
<path d="M165.08 27.6767V21.2001C165.08 20.1807 164.763 19.4263 164.137 18.9234C163.608 18.5089 162.99 18.2982 162.265 18.2982C161.254 18.2982 160.394 18.6312 159.692 19.2904C159.262 19.6982 159.051 20.0855 159.051 20.4389V25.2777C159.051 26.0117 159.096 26.467 159.194 26.6301C159.292 26.8 159.556 26.8952 159.994 26.9223L161.133 26.9903V27.6699C159.73 27.6223 158.681 27.6019 157.987 27.6019C157.292 27.6019 156.243 27.6223 154.84 27.6699V26.9903L155.979 26.9223C156.409 26.8952 156.674 26.7932 156.772 26.6233C156.87 26.4534 156.923 26.0049 156.923 25.2777V20.1399C156.923 19.3787 156.862 18.9166 156.741 18.7399C156.621 18.5632 156.311 18.4817 155.806 18.4817H154.862V17.8428C156.251 17.6865 157.572 17.3739 158.824 16.905L159.043 16.9933V18.9642L160.96 17.4691C161.45 17.0885 162.122 16.8982 162.974 16.8982C165.789 16.8982 167.193 18.2234 167.193 20.8671V25.2709C167.193 26.0049 167.238 26.4602 167.336 26.6233C167.434 26.7932 167.698 26.8884 168.136 26.9155L169.177 26.9835V27.6631C168.106 27.6155 167.396 27.5951 167.064 27.5951C166.702 27.5951 166.038 27.6155 165.072 27.6631L165.08 27.6767Z" fill="#7C7C7C"/>
<path d="M182.111 18.9847H179.787C179.968 19.3925 180.059 19.807 180.059 20.2216C180.059 21.4041 179.493 22.3623 178.361 23.0963C177.236 23.8235 176.082 24.1905 174.897 24.1905C174.724 24.1905 174.52 24.1769 174.294 24.1429C174.203 24.2176 174.097 24.306 173.969 24.4011C173.403 24.8225 173.116 25.1759 173.116 25.4613C173.116 26.0458 173.758 26.3448 175.048 26.3448H179.108C180.044 26.3448 180.776 26.6166 181.311 27.1671C181.832 27.704 182.089 28.3564 182.089 29.1312C182.089 30.3069 181.583 31.3467 180.579 32.2505C179.244 33.4602 177.463 34.0651 175.244 34.0651C173.856 34.0651 172.671 33.8136 171.683 33.3039C170.415 32.6583 169.773 31.7408 169.773 30.5651C169.773 30.1981 169.849 29.8448 169.992 29.4914C170.136 29.138 170.302 28.9205 170.483 28.8253L172.701 27.7448C172.083 27.5817 171.645 27.3982 171.396 27.2011C171.147 26.9972 171.019 26.739 171.019 26.4196C171.019 26.1001 171.147 25.7739 171.403 25.4477L173.411 24.0681C172.814 24.007 172.294 23.8507 171.849 23.5992C170.86 23.0351 170.362 22.172 170.362 21.0167C170.362 19.5963 171.079 18.5158 172.505 17.775C173.622 17.2041 174.776 16.9187 175.969 16.9187C177.161 16.9187 178.172 17.2381 179.063 17.8769L182.655 17.7886L182.768 18.0536L182.126 18.9915L182.111 18.9847ZM176.218 27.9351C174.686 27.9351 173.728 28.0098 173.358 28.1593C172.86 28.3496 172.46 28.6622 172.158 29.0972C171.856 29.5253 171.698 30.0011 171.698 30.5108C171.698 31.3603 172.037 32.0467 172.724 32.57C173.411 33.1 174.301 33.3583 175.395 33.3583C176.489 33.3583 177.365 33.1476 178.165 32.7331C179.432 32.0806 180.074 31.1496 180.074 29.9331C180.074 29.2467 179.832 28.7506 179.342 28.4312C178.829 28.0982 177.787 27.9283 176.21 27.9283L176.218 27.9351ZM175.056 17.6934C174.331 17.6934 173.743 17.8905 173.297 18.2847C172.754 18.7672 172.482 19.4944 172.482 20.4662C172.482 21.4381 172.784 22.1856 173.388 22.7293C173.901 23.1846 174.543 23.4089 175.32 23.4089C176.097 23.4089 176.738 23.1778 177.214 22.7157C177.689 22.2536 177.931 21.6487 177.931 20.9012C177.931 19.7662 177.576 18.8963 176.867 18.3051C176.376 17.8973 175.78 17.6934 175.063 17.6934H175.056Z" fill="#7C7C7C"/>
<path d="M193.64 26.018L193.134 26.786C193.029 26.9491 192.591 27.1801 191.821 27.4792C190.81 27.8733 189.837 28.0704 188.916 28.0704C187.452 28.0704 186.215 27.7034 185.188 26.9763C183.875 26.0384 183.219 24.5909 183.219 22.6268C183.219 21.4307 183.445 20.4521 183.89 19.6977C184.343 18.9434 185.083 18.2977 186.124 17.754C187.196 17.19 188.214 16.9045 189.18 16.9045C190.486 16.9045 191.58 17.2579 192.463 17.9647C193.429 18.7395 193.911 19.8268 193.911 21.2404C193.911 21.4715 193.896 21.7365 193.859 22.0287C192.334 22.2462 190.803 22.355 189.271 22.355H185.573C185.603 23.0142 185.671 23.5375 185.769 23.9248C185.867 24.3122 186.041 24.6928 186.275 25.0598C186.577 25.5423 186.992 25.9365 187.497 26.2287C188.214 26.6365 189.052 26.8403 190.01 26.8403C190.554 26.8403 191.036 26.7724 191.467 26.6365C191.889 26.5005 192.5 26.2151 193.3 25.7734L193.632 26.0044L193.64 26.018ZM191.663 21.5123C191.633 20.7511 191.557 20.1734 191.444 19.7657C191.331 19.3579 191.127 18.9569 190.848 18.5764C190.395 17.9647 189.739 17.6657 188.893 17.6657C188.282 17.6657 187.724 17.8084 187.218 18.1006C186.713 18.3929 186.328 18.787 186.064 19.2832C185.777 19.8132 185.633 20.5336 185.641 21.4579C186.773 21.553 187.837 21.6006 188.833 21.6006C189.625 21.6006 190.569 21.5734 191.67 21.519L191.663 21.5123Z" fill="#7C7C7C"/>
<path d="M195.242 26.9969L196.404 26.929C196.841 26.9018 197.106 26.7998 197.204 26.6367C197.294 26.4668 197.347 26.0183 197.347 25.2843V20.1465C197.347 19.3854 197.287 18.9232 197.166 18.7465C197.045 18.5699 196.736 18.4883 196.23 18.4883H195.287V17.8495C196.675 17.6932 197.996 17.3805 199.249 16.9116L199.467 17V19.365L200.894 17.8495C201.467 17.2242 202.169 16.9116 202.999 16.9116C203.474 16.9116 203.874 16.9932 204.184 17.1563L203.965 19.8951H203.429C203.022 19.1951 202.456 18.8485 201.731 18.8485C201.135 18.8485 200.622 19.0796 200.184 19.5417C199.709 20.031 199.467 20.6358 199.467 21.3562V25.2775C199.467 26.0455 199.52 26.5008 199.626 26.6571C199.732 26.8066 200.079 26.9018 200.652 26.929L201.973 26.9969V27.6765C200.109 27.629 198.894 27.6086 198.336 27.6086C197.724 27.6086 196.69 27.629 195.227 27.6765V26.9969H195.242Z" fill="#7C7C7C"/>
<path d="M205.744 24.3468H206.498V25.2846C206.498 25.7875 206.717 26.2089 207.155 26.5351C207.773 26.9972 208.611 27.2283 209.667 27.2283C210.399 27.2283 211.026 27.0924 211.546 26.8273C212.331 26.4263 212.724 25.8623 212.724 25.1351C212.724 24.7002 212.595 24.3536 212.346 24.1021C212.097 23.8507 211.682 23.674 211.116 23.5584C209.328 23.205 208.075 22.872 207.366 22.5798C206.211 22.0973 205.63 21.3157 205.63 20.2284C205.63 19.141 206.083 18.3187 206.989 17.7342C207.834 17.1905 208.958 16.9187 210.369 16.9187C211.328 16.9187 212.429 17.109 213.674 17.4896C213.614 18.108 213.569 18.9643 213.539 20.0653H212.837V19.542C212.837 19.073 212.618 18.6721 212.165 18.3391C211.584 17.9041 210.814 17.6799 209.841 17.6799C208.219 17.6799 207.404 18.2711 207.404 19.4604C207.404 19.9769 207.6 20.3779 208 20.6497C208.4 20.9216 209.117 21.1458 210.158 21.3225C211.501 21.5536 212.429 21.7779 212.927 21.9885C213.516 22.24 213.939 22.5458 214.203 22.8992C214.467 23.2526 214.595 23.7011 214.595 24.238C214.595 25.4001 214.037 26.3312 212.927 27.0448C211.878 27.7244 210.55 28.071 208.928 28.071C207.849 28.071 206.687 27.8875 205.449 27.5273C205.63 26.7254 205.728 25.6652 205.736 24.3536L205.744 24.3468Z" fill="#7C7C7C"/>
<path d="M0.667969 13.0387V12.1824L2.67522 12.2164C3.8524 12.2367 4.59946 12.2503 4.93903 12.2503C5.6559 12.2503 6.59916 12.2367 7.76125 12.2164C8.8177 12.196 9.51948 12.1824 9.87414 12.1824C13.0963 12.1824 14.7112 13.2154 14.7112 15.2882C14.7112 16.226 14.3867 16.96 13.7528 17.4901C13.3453 17.8367 12.9001 18.1153 12.4096 18.3396C11.9191 18.5638 11.1343 18.8425 10.0552 19.1755C11.0815 19.2367 11.8588 19.3318 12.3945 19.4541C12.9303 19.5833 13.4359 19.7939 13.8962 20.0862C14.8394 20.6842 15.3073 21.6221 15.3073 22.8861C15.3073 24.4968 14.5602 25.7812 13.0586 26.7463C11.8135 27.5414 10.2514 27.9356 8.38757 27.9356C8.20647 27.9356 7.49714 27.922 6.27468 27.888C5.81437 27.8744 5.30124 27.8676 4.73529 27.8676C4.04105 27.8676 2.96951 27.888 1.51313 27.9356V27.4055L2.3281 26.9909C2.66767 26.821 2.84123 26.3793 2.84123 25.6725V15.3561C2.84123 14.3299 2.78086 13.7047 2.66012 13.4872C2.53939 13.2629 2.19227 13.1338 1.61877 13.0998L0.667969 13.0319L0.667969 13.0387ZM6.44824 13.4193V18.659H7.21039C8.49322 18.659 9.41383 18.4483 9.97224 18.027C10.6061 17.5648 10.923 16.8173 10.923 15.7979C10.923 14.9755 10.6967 14.3639 10.2514 13.9629C9.78359 13.5348 9.00635 13.3241 7.91972 13.3241C7.46695 13.3241 6.98401 13.3513 6.45578 13.4125L6.44824 13.4193ZM6.44824 19.8551V26.5832C6.81799 26.6443 7.18775 26.6715 7.55751 26.6715C8.92334 26.6715 9.90433 26.3997 10.508 25.8628C11.1494 25.2851 11.4664 24.4016 11.4664 23.2191C11.4664 21.9415 11.0513 21.0376 10.2288 20.4939C9.57985 20.0658 8.56868 19.8551 7.21039 19.8551H6.44824Z" fill="white"/>
<path d="M28.5203 22.2747C27.162 22.5806 25.8189 22.7369 24.4832 22.7369H21.1252C21.178 23.6883 21.3818 24.4427 21.7364 24.9999C22.0232 25.4417 22.408 25.8087 22.8985 26.0941C23.5399 26.4611 24.2191 26.6446 24.9435 26.6446C25.8792 26.6446 26.8828 26.3727 27.9544 25.8359L28.2562 26.1757L27.6978 27.2902C26.8678 27.6708 26.1735 27.9358 25.6151 28.0717C25.0567 28.2077 24.4077 28.2824 23.6682 28.2824C21.8194 28.2824 20.3857 27.8203 19.3594 26.896C18.3256 25.965 17.8125 24.565 17.8125 22.6893C17.8125 21.5883 18.0087 20.6777 18.3935 19.9709C18.7784 19.2641 19.3972 18.6728 20.2499 18.2175L21.4497 17.5787C22.1062 17.2253 22.8457 17.0486 23.6758 17.0486C25.2152 17.0486 26.4376 17.4563 27.3507 18.2651C28.143 18.9719 28.5354 19.9165 28.5354 21.099V22.2883L28.5203 22.2747ZM25.2755 21.5204C25.2454 20.2087 25.019 19.332 24.6039 18.8903C24.2493 18.5165 23.7663 18.3262 23.1702 18.3262C22.4458 18.3262 21.9175 18.5641 21.5855 19.0466C21.3667 19.3456 21.2233 19.6651 21.1403 20.0117C21.0648 20.3515 21.012 20.8544 20.9818 21.5272C21.3516 21.5408 21.6233 21.5544 21.8044 21.5611C22.3703 21.5815 22.7778 21.5951 23.0268 21.5951H23.1249L25.2755 21.5272V21.5204Z" fill="white"/>
<path d="M38.7824 20.3649H37.8618L37.5977 19.0397C37.5524 18.8086 37.3034 18.598 36.8507 18.4145C36.3979 18.231 35.9074 18.1358 35.3867 18.1358C34.6774 18.1358 34.1265 18.2718 33.7266 18.5368C33.3267 18.8018 33.1305 19.1688 33.1305 19.631C33.1305 19.9911 33.2361 20.2698 33.4549 20.4669C33.6738 20.664 34.036 20.8135 34.5416 20.9086L36.6243 21.3232C37.6204 21.527 38.375 21.8057 38.873 22.1523C39.5446 22.6416 39.8842 23.3484 39.8842 24.2862C39.8842 25.326 39.5069 26.1891 38.7598 26.8755C38.4504 27.1474 38.1335 27.3648 37.8015 27.5279C36.8054 28.0173 35.6961 28.2619 34.4887 28.2619C33.2135 28.2619 31.8929 28.0444 30.5195 27.6095L30.6931 24.3678H31.6892L31.8174 25.9513C32.1721 26.325 32.5117 26.5901 32.8286 26.7396C33.4021 27.0182 34.0284 27.1542 34.7 27.1542C35.4245 27.1542 35.998 26.9979 36.4205 26.6784C36.8431 26.359 37.0544 25.9309 37.0544 25.394C37.0544 24.9862 36.9337 24.6804 36.6922 24.4629C36.4507 24.2455 36.0281 24.0688 35.432 23.9328L33.2361 23.4503C31.4326 23.0562 30.5271 22.0911 30.5271 20.562C30.5271 19.3999 31.0025 18.5096 31.9533 17.8844C32.3683 17.6125 32.9192 17.4019 33.6059 17.2523C34.2926 17.1028 35.0396 17.0281 35.847 17.0281C37.0544 17.0281 38.1033 17.2048 38.9937 17.5582L38.7975 20.3581L38.7824 20.3649Z" fill="white"/>
<path d="M48.9107 26.495L47.6506 27.8542C47.4015 28.1329 46.8507 28.2688 46.0055 28.2688C44.8887 28.2688 44.0813 28.0377 43.5757 27.5688C43.0701 27.1067 42.8211 26.3591 42.8211 25.3397V19.366L41.1836 19.4543V18.9514L42.8664 17.9592V16.5728C42.8664 16.1786 42.8362 15.4718 42.7683 14.4592C43.9304 14.0719 44.9717 13.6845 45.8923 13.2971L46.2545 13.535C46.0432 14.5544 45.9451 15.5942 45.9451 16.6612V18L48.8655 17.8641L48.6542 19.3592H45.9451V24.8504C45.9451 25.4144 46.0583 25.8018 46.2923 26.0193C46.5186 26.2368 46.9412 26.3455 47.5449 26.3455C47.8769 26.3455 48.2618 26.2436 48.707 26.0397L48.9183 26.4746L48.9107 26.495Z" fill="white"/>
</g>
<defs>
<clipPath id="clip0_6810_76682">
<rect width="213.929" height="40" fill="white" transform="translate(0.667969)"/>
</clipPath>
</defs>
</svg>
