<svg width="145" height="40" viewBox="0 0 145 40" fill="none" xmlns="http://www.w3.org/2000/svg">
<path d="M140.033 4.66675H59.6133V9.7417V30.0001C59.6133 32.6902 59.6135 32.0001 59.6133 34.6667H140.033C142.747 34.6667 144.947 32.4861 144.947 29.796V9.53759C144.947 6.84751 142.747 4.66675 140.033 4.66675Z" fill="url(#paint0_linear_4760_67649)"/>
<path d="M59.6146 4.66675V34.6667H5.22296C2.49445 34.6667 0.28125 32.4853 0.28125 29.796V9.53759C0.28125 6.84822 2.49445 4.66675 5.22296 4.66675H59.6146Z" fill="url(#paint1_linear_4760_67649)"/>
<path d="M6.94922 11.3339H12.9663C16.6258 11.2923 17.7606 13.2652 17.7606 15.571C17.7606 17.6687 17.2387 18.6047 16.4346 18.982C17.5513 19.4931 18.2826 20.6579 18.2826 22.9576C18.2826 26.1696 16.732 27.9999 12.8571 27.9999H6.94922V11.3339ZM12.4262 17.7519C14.1801 17.7519 14.5078 17.4131 14.5048 15.9869C14.5048 14.8133 14.1042 14.4359 12.6144 14.4448L10.2324 14.4359L10.2385 17.7519H12.4262ZM10.105 24.7166L12.6144 24.7315C14.5351 24.7523 14.9508 24.268 14.9781 22.815C15.0054 21.1927 14.6019 20.7083 12.4111 20.7083L10.105 20.7143V24.7166Z" fill="white"/>
<path d="M30.178 20.8209L23.5032 20.8328V24.7343H30.9479V27.9999H20.2812V11.3333H30.7347L30.7495 14.4384H23.4617L23.4765 17.6743L30.178 17.7545V20.8209Z" fill="white"/>
<path d="M139.51 20.8209L132.835 20.8328V24.7343H140.28V27.9999H129.613V11.3333H140.067L140.082 14.4384H132.794L132.809 17.6743L139.51 17.7545V20.8209Z" fill="#1F1F1F"/>
<path d="M34.8335 22.0235C34.8896 24.5459 36.0966 25.4914 37.8089 25.4914C39.6398 25.4914 40.2791 24.7708 40.2791 23.5296C40.2791 21.9373 39.6834 21.1427 37.2569 20.9486C34.2939 20.7115 32.1637 19.4149 32.0857 15.6975C32.0077 11.9647 34.4717 10.7205 37.5314 10.6682C41.6047 10.5973 43.2546 13.1905 43.0831 16.5753L39.8924 16.526C39.8674 14.6689 39.2343 13.748 37.5251 13.748C36.0842 13.748 35.3387 14.25 35.3512 15.3464C35.3668 16.6554 36.053 17.3206 38.4296 17.5916C43.0363 18.1183 43.6133 20.847 43.6133 23.3633C43.6133 26.2244 41.8729 28.6667 37.6655 28.6667C34.1598 28.6667 31.543 27.1329 31.6147 22.0081L34.8303 22.0235H34.8335Z" fill="white"/>
<path d="M48.2335 14.5156H44.2812V11.3333H54.9479V14.5692H51.2261V27.9999H48.2335V14.5156Z" fill="white"/>
<path d="M74.9492 21.9225C74.5785 26.3232 72.8125 28.6667 69.0266 28.6667C64.3795 28.6667 62.9492 24.5648 62.9492 19.5666C62.9492 14.5685 64.8436 10.6667 69.1521 10.6667C73.1365 10.6667 74.885 13.3983 74.885 16.7827L71.9135 16.7981C71.7412 15.2091 71.2187 13.8171 69.193 13.8171C66.7381 13.8171 66.1163 16.4224 66.1163 19.5697C66.1163 22.9018 66.6855 25.3377 69.2046 25.3377C71.175 25.3377 71.7266 23.8903 71.9514 21.9256H74.9492V21.9225Z" fill="#1F1F1F"/>
<path d="M76.9492 11.3333H79.8778V17.5561H84.6844V11.3333H87.6159V27.9999H84.5658V20.7247H79.8778V27.9999H76.9492V11.3333Z" fill="#1F1F1F"/>
<path d="M92.8612 24.4474L92.0174 27.9999H88.9492C89.1243 27.3521 93.1195 12.069 93.3147 11.3333H96.4173L100.949 27.9999H97.8323L96.9483 24.4766L92.8583 24.4474H92.8612ZM96.1848 21.4898C95.3582 18.113 95.2836 17.7554 94.9822 16.199H94.7899C94.4685 18.0515 94.2819 18.6231 93.5874 21.4898H96.1848Z" fill="#1F1F1F"/>
<path d="M102.281 27.9999V11.3333H105.443C107.731 16.4159 109.391 19.0012 110.426 21.4253L110.508 11.3333H113.615L113.56 27.9999H110.453C107.872 22.5655 105.427 17.8991 105.427 17.8991C105.479 20.4052 105.485 27.9999 105.485 27.9999H102.284H102.281Z" fill="#1F1F1F"/>
<path d="M127.61 28.4111H125.123C125.03 27.8382 125.172 27.1729 125.138 26.5169C124.446 28.2663 122.879 28.6667 121.197 28.6667C117.293 28.6667 115.521 24.7643 115.617 19.6667C115.736 13.4388 117.424 10.6667 121.973 10.6667C126.119 10.6667 127.379 13.7868 127.379 16.9347L124.379 16.9501C124.338 14.9573 123.542 13.8023 121.721 13.8023C119.381 13.8023 118.643 15.8782 118.646 19.7807C118.646 23.1041 119.375 25.254 121.643 25.254C123.667 25.254 124.524 24.3392 124.524 22.0907V22.0076L121.614 22.0353V18.8844H127.613V28.4142L127.61 28.4111Z" fill="#1F1F1F"/>
<defs>
<linearGradient id="paint0_linear_4760_67649" x1="0.27994" y1="19.6667" x2="144.947" y2="19.6667" gradientUnits="userSpaceOnUse">
<stop stop-color="white"/>
<stop offset="1" stop-color="#E2E2E2"/>
</linearGradient>
<linearGradient id="paint1_linear_4760_67649" x1="0.28125" y1="19.6667" x2="59.6146" y2="19.6667" gradientUnits="userSpaceOnUse">
<stop stop-color="#7C7C7C"/>
<stop offset="1" stop-color="#4B4B4B"/>
</linearGradient>
</defs>
</svg>
