<svg width="202" height="40" viewBox="0 0 202 40" fill="none" xmlns="http://www.w3.org/2000/svg">
<path d="M187.222 14.3167C187.201 14.3427 187.17 14.3833 187.129 14.4384C187.051 14.4297 186.973 14.4181 186.898 14.4065C186.919 14.4094 186.936 14.4094 186.956 14.4094C186.982 14.4094 187.008 14.4065 187.031 14.4007C187.04 14.4007 187.046 14.4007 187.054 14.3978C187.074 14.392 187.095 14.3862 187.115 14.3775C187.161 14.3601 187.198 14.3369 187.222 14.3167Z" fill="#ADADAD"/>
<path d="M201.426 24.0317C200.956 20.1642 196.262 13.7977 195.737 13.4208C195.55 13.2875 195.27 12.5366 196.193 10.684C196.825 9.41419 197.777 7.75877 198.287 6.88323C198.457 6.59331 198.431 6.23671 198.218 5.97579C198.007 5.71487 197.664 5.6163 197.347 5.72647C196.663 5.9584 195.679 6.25121 194.88 6.32079C194.309 6.36718 193.819 6.15844 193.25 5.91781C192.506 5.59891 191.664 5.23941 190.443 5.35248C189.431 5.44815 188.649 5.66269 187.96 5.85403C187.244 6.05117 186.627 6.21933 185.952 6.19033C184.397 6.11786 182.513 5.68008 182.262 5.45685C182.063 5.25971 181.821 5.28579 181.668 5.39596C181.29 5.67138 181.241 5.70617 184.134 11.5219C184.59 12.4351 184.276 13.502 183.171 14.7776C182.692 15.3314 178.506 20.2976 178.512 24.7913C178.517 29.543 181.89 34.6658 189.278 34.689H189.333C191.479 34.689 194.592 34.2715 197.338 32.2972C199.522 30.7287 201.957 28.3717 201.426 24.0317ZM182.695 6.55273C183.687 6.83684 185.083 7.01949 185.911 7.05718C186.722 7.09487 187.434 6.90062 188.187 6.69188C188.842 6.51213 189.587 6.3063 190.524 6.21933C191.528 6.12655 192.232 6.42517 192.91 6.71798C193.527 6.9818 194.168 7.25432 194.955 7.18474C195.769 7.11516 196.727 6.84554 197.445 6.60781C196.822 7.6776 195.997 9.13007 195.417 10.2955C195.238 10.655 195.099 10.9797 194.993 11.2783C194.658 11.3566 193.977 11.5132 193.135 11.6581L194.341 9.47507L193.582 9.0547L192.05 11.8292C191.387 11.922 190.68 11.9944 189.99 12.0205C189.488 12.0408 188.972 12.0176 188.473 11.9683L186.99 9.06629L186.22 9.46347L187.432 11.8379C186.309 11.661 185.375 11.4059 184.982 11.2899C184.959 11.2378 184.936 11.1856 184.91 11.1334C183.774 8.84885 183.073 7.38478 182.695 6.55273ZM194.722 13.2324C193.83 13.3918 191.851 13.7107 189.999 13.7455C188.981 13.7658 187.913 13.6701 187.008 13.5455C186.162 13.4295 185.461 13.2933 185.075 13.2121C185.173 12.8845 185.213 12.5656 185.199 12.2554C186.128 12.5018 187.876 12.8961 189.613 12.8961C189.748 12.8961 189.887 12.8932 190.022 12.8903C191.848 12.8207 193.744 12.4525 194.736 12.2322C194.664 12.6409 194.673 12.9714 194.722 13.2324ZM196.836 31.5898C194.274 33.4308 191.352 33.8192 189.333 33.8192H189.278C181.472 33.796 179.383 28.134 179.377 24.7913C179.371 21.3993 182.17 17.2593 183.823 15.3488C184.212 14.8965 184.521 14.4587 184.743 14.0325C185 14.0876 185.502 14.192 186.145 14.2964C185.929 14.5979 185.637 15.0124 185.239 15.5894L185.952 16.0851C186.393 15.4444 186.895 14.7399 187.126 14.4384C187.879 14.5341 188.73 14.6095 189.575 14.6153V16.2968H190.44V14.6037C191.24 14.5718 192.033 14.4964 192.745 14.4123L194.658 16.8099L195.333 16.2649L193.747 14.2761C194.361 14.1833 194.851 14.0963 195.128 14.0441C195.163 14.076 195.198 14.1021 195.224 14.1224C195.757 14.5776 200.145 20.6803 200.569 24.1361C200.944 27.2092 199.828 29.4386 196.836 31.5898Z" fill="black"/>
<path d="M194.725 13.2324C193.834 13.3918 191.855 13.7107 190.003 13.7455C188.984 13.7658 187.917 13.6702 187.011 13.5455C186.166 13.4295 185.465 13.2933 185.078 13.2121C185.176 12.8845 185.217 12.5656 185.202 12.2554C186.131 12.5018 187.879 12.8961 189.616 12.8961C189.752 12.8961 189.89 12.8932 190.026 12.8903C191.852 12.8207 193.747 12.4525 194.739 12.2322C194.667 12.641 194.676 12.9715 194.725 13.2324Z" fill="#ADADAD"/>
<path d="M197.445 6.60786C196.822 7.67764 195.997 9.13012 195.417 10.2956C195.239 10.6551 195.1 10.9798 194.993 11.2784C194.659 11.3567 193.978 11.5132 193.136 11.6582L194.341 9.47511L193.583 9.05474L192.051 11.8292C191.387 11.922 190.681 11.9945 189.991 12.0206C189.489 12.0409 188.973 12.0177 188.474 11.9684L186.991 9.06633L186.221 9.46351L187.432 11.8379C186.31 11.6611 185.375 11.4059 184.983 11.29C184.96 11.2378 184.937 11.1856 184.911 11.1334C183.774 8.8489 183.073 7.38483 182.695 6.55277C183.688 6.83689 185.084 7.01953 185.912 7.05722C186.723 7.09491 187.435 6.90066 188.188 6.69192C188.843 6.51218 189.587 6.30635 190.525 6.21937C191.529 6.1266 192.233 6.42521 192.91 6.71802C193.528 6.98185 194.168 7.25436 194.956 7.18478C195.769 7.1152 196.727 6.84559 197.445 6.60786Z" fill="#ADADAD"/>
<path d="M191.966 22.1532C191.952 22.8809 191.513 23.1476 191.357 23.2172H188.672C188.675 22.1445 188.669 21.4835 188.66 21.1008C189.471 21.1008 190.501 21.1037 190.922 21.1153C191.412 21.1298 191.983 21.411 191.966 22.1532Z" fill="#ADADAD"/>
<path d="M190.993 24.1479C190.396 24.1305 189.257 24.1392 188.668 24.145C188.668 24.7451 188.662 25.4438 188.654 26.2497H191.273C191.388 26.2497 191.498 26.2179 191.576 26.1599C191.876 25.9482 192.032 25.6177 192.04 25.1857C192.055 24.4407 191.487 24.1624 190.993 24.1479ZM190.993 24.1479C190.396 24.1305 189.257 24.1392 188.668 24.145C188.668 24.7451 188.662 25.4438 188.654 26.2497H191.273C191.388 26.2497 191.498 26.2179 191.576 26.1599C191.876 25.9482 192.032 25.6177 192.04 25.1857C192.055 24.4407 191.487 24.1624 190.993 24.1479ZM190.993 24.1479C190.396 24.1305 189.257 24.1392 188.668 24.145C188.668 24.7451 188.662 25.4438 188.654 26.2497H191.273C191.388 26.2497 191.498 26.2179 191.576 26.1599C191.876 25.9482 192.032 25.6177 192.04 25.1857C192.055 24.4407 191.487 24.1624 190.993 24.1479ZM190.993 24.1479C190.396 24.1305 189.257 24.1392 188.668 24.145C188.668 24.7451 188.662 25.4438 188.654 26.2497H191.273C191.388 26.2497 191.498 26.2179 191.576 26.1599C191.876 25.9482 192.032 25.6177 192.04 25.1857C192.055 24.4407 191.487 24.1624 190.993 24.1479ZM190.993 24.1479C190.396 24.1305 189.257 24.1392 188.668 24.145C188.668 24.7451 188.662 25.4438 188.654 26.2497H191.273C191.388 26.2497 191.498 26.2179 191.576 26.1599C191.876 25.9482 192.032 25.6177 192.04 25.1857C192.055 24.4407 191.487 24.1624 190.993 24.1479ZM190.993 24.1479C190.396 24.1305 189.257 24.1392 188.668 24.145C188.668 24.7451 188.662 25.4438 188.654 26.2497H191.273C191.388 26.2497 191.498 26.2179 191.576 26.1599C191.876 25.9482 192.032 25.6177 192.04 25.1857C192.055 24.4407 191.487 24.1624 190.993 24.1479ZM200.571 24.1363C200.147 20.6805 195.759 14.5778 195.225 14.1226C195.199 14.1023 195.165 14.0762 195.13 14.0443C194.853 14.0965 194.363 14.1835 193.748 14.2762L195.335 16.2651L194.66 16.8101L192.747 14.4125C192.035 14.4966 191.241 14.572 190.442 14.6038V16.297H189.577V14.6154C188.732 14.6096 187.881 14.5343 187.128 14.4386C186.897 14.7401 186.395 15.4446 185.953 16.0853L185.241 15.5896C185.639 15.0126 185.93 14.5981 186.147 14.2965C185.503 14.1922 185.001 14.0878 184.745 14.0327C184.523 14.4589 184.214 14.8967 183.824 15.3489C182.171 17.2595 179.373 21.3995 179.379 24.7915C179.385 28.1342 181.473 33.7962 189.28 33.8194H189.334C191.354 33.8194 194.276 33.4309 196.838 31.59C199.829 29.4388 200.946 27.2094 200.571 24.1363ZM188.146 20.2311H188.29V19.315H189.156V20.234C189.375 20.2311 189.588 20.2311 189.793 20.234V19.315H190.659V20.2398C190.771 20.2427 190.866 20.2427 190.944 20.2456C192.061 20.2775 192.854 21.0893 192.831 22.1706C192.816 22.9215 192.508 23.3941 192.199 23.6811C192.649 24.0232 192.917 24.5653 192.906 25.2031C192.886 26.1512 192.381 26.6556 192.078 26.8702C191.85 27.0325 191.57 27.1195 191.273 27.1195H190.659V27.9457H189.793V27.1195H189.156V27.9457H188.29V27.1195H187.113V26.2497H187.788C187.817 23.2404 187.805 21.7474 187.794 21.1008C187.257 21.1037 186.874 21.1037 186.874 21.1037V20.234C186.874 20.234 187.43 20.234 188.146 20.2311ZM191.576 26.1599C191.876 25.9482 192.032 25.6177 192.04 25.1857C192.055 24.4407 191.487 24.1624 190.993 24.1479C190.396 24.1305 189.257 24.1392 188.668 24.145C188.668 24.7451 188.662 25.4438 188.654 26.2497H191.273C191.388 26.2497 191.498 26.2179 191.576 26.1599ZM190.993 24.1479C190.396 24.1305 189.257 24.1392 188.668 24.145C188.668 24.7451 188.662 25.4438 188.654 26.2497H191.273C191.388 26.2497 191.498 26.2179 191.576 26.1599C191.876 25.9482 192.032 25.6177 192.04 25.1857C192.055 24.4407 191.487 24.1624 190.993 24.1479ZM190.993 24.1479C190.396 24.1305 189.257 24.1392 188.668 24.145C188.668 24.7451 188.662 25.4438 188.654 26.2497H191.273C191.388 26.2497 191.498 26.2179 191.576 26.1599C191.876 25.9482 192.032 25.6177 192.04 25.1857C192.055 24.4407 191.487 24.1624 190.993 24.1479ZM190.993 24.1479C190.396 24.1305 189.257 24.1392 188.668 24.145C188.668 24.7451 188.662 25.4438 188.654 26.2497H191.273C191.388 26.2497 191.498 26.2179 191.576 26.1599C191.876 25.9482 192.032 25.6177 192.04 25.1857C192.055 24.4407 191.487 24.1624 190.993 24.1479ZM190.993 24.1479C190.396 24.1305 189.257 24.1392 188.668 24.145C188.668 24.7451 188.662 25.4438 188.654 26.2497H191.273C191.388 26.2497 191.498 26.2179 191.576 26.1599C191.876 25.9482 192.032 25.6177 192.04 25.1857C192.055 24.4407 191.487 24.1624 190.993 24.1479Z" fill="#ADADAD"/>
<path d="M0.5 11.2667C1.602 11.0463 3.83198 10.8782 5.92636 10.8782C8.48809 10.8782 10.0574 11.1275 11.4075 11.9306C12.7028 12.6235 13.6375 13.8962 13.6375 15.5835C13.6375 17.2708 12.674 18.7958 10.5796 19.5698V19.6249C12.6999 20.2047 14.2693 21.8109 14.2693 24.2201C14.2693 25.9074 13.499 27.2381 12.3422 28.1774C10.9921 29.2559 8.7333 29.8647 5.04361 29.8647C2.97807 29.8647 1.43468 29.7256 0.5 29.5893L0.5 11.2667ZM4.65992 18.4073H6.03599C8.24 18.4073 9.42278 17.494 9.42278 16.1111C9.42278 14.7283 8.34962 13.9513 6.44852 13.9513C5.5398 13.9513 5.01764 14.0064 4.65704 14.0614V18.4073H4.65992ZM4.65992 26.6844C5.07245 26.7394 5.56864 26.7394 6.28408 26.7394C8.18518 26.7394 9.86415 25.9915 9.86415 24.0548C9.86415 22.1182 8.18518 21.4253 6.0908 21.4253H4.65992V26.6844Z" fill="white"/>
<path d="M21.3214 12.374C21.3214 13.5366 20.4387 14.4788 19.0626 14.4788C17.6865 14.4788 16.8586 13.5366 16.8874 12.374C16.8586 11.1564 17.7414 10.2432 19.0915 10.2432C20.4416 10.2432 21.2955 11.1564 21.3214 12.374ZM16.9971 29.6733V16.1371H21.183V29.6733H16.9971Z" fill="white"/>
<path d="M29.2229 12.4583V16.1402H32.226V19.2394H29.2229V24.1389C29.2229 25.7712 29.6094 26.5191 30.8759 26.5191C31.4528 26.5191 31.7009 26.4901 32.1163 26.409L32.1452 29.5922C31.5942 29.8126 30.6018 29.9807 29.419 29.9807C28.0689 29.9807 26.941 29.4821 26.2803 28.7892C25.5101 27.9861 25.1235 26.6844 25.1235 24.7767V19.2423H23.332V16.1431H25.1235V12.4612H29.2286L29.2229 12.4583Z" fill="white"/>
<path d="M44.6209 29.3399C43.8766 29.6733 42.4717 29.9778 40.8764 29.9778C36.526 29.9778 33.7422 27.2931 33.7422 23.0314C33.7422 19.074 36.4424 15.8357 41.4533 15.8357C42.5553 15.8357 43.767 16.0299 44.6497 16.3604L43.9891 19.4886C43.4929 19.2683 42.7486 19.074 41.6466 19.074C39.4426 19.074 38.0117 20.6512 38.0377 22.8661C38.0377 25.3565 39.6907 26.6582 41.7274 26.6582C42.7198 26.6582 43.49 26.493 44.1247 26.2147L44.6209 29.3428V29.3399Z" fill="white"/>
<path d="M59.9355 22.7528C59.9355 27.7075 56.4391 29.9775 52.8301 29.9775C48.8923 29.9775 45.8633 27.3769 45.8633 23.0021C45.8633 18.6273 48.7279 15.8325 53.0523 15.8325C57.3766 15.8325 59.9384 18.6824 59.9384 22.7528H59.9355ZM50.1848 22.892C50.1848 25.2171 51.1483 26.9624 52.9398 26.9624C54.5639 26.9624 55.6111 25.3301 55.6111 22.892C55.6111 20.8712 54.8409 18.8244 52.9398 18.8244C50.929 18.8244 50.1848 20.9002 50.1848 22.892Z" fill="white"/>
<path d="M66.8488 12.374C66.8488 13.5366 65.966 14.4788 64.59 14.4788C63.2139 14.4788 62.3859 13.5366 62.4148 12.374C62.3859 11.1564 63.2687 10.2432 64.6188 10.2432C65.9689 10.2432 66.8228 11.1564 66.8488 12.374ZM62.5244 29.6733V16.1371H66.7103V29.6733H62.5244Z" fill="white"/>
<path d="M70.0706 20.4569C70.0706 18.7696 70.0157 17.3288 69.9609 16.1401H73.5958L73.7891 17.9956H73.8728C74.4238 17.1374 75.7998 15.8357 78.0327 15.8357C80.7877 15.8357 82.8532 17.6622 82.8532 21.6485V29.6762H78.6674V22.1761C78.6674 20.4308 78.0615 19.2422 76.547 19.2422C75.3902 19.2422 74.7007 20.0453 74.4267 20.8193C74.317 21.0977 74.2622 21.4832 74.2622 21.8717V29.6762H70.0763V20.4598L70.0706 20.4569Z" fill="white"/>
<path d="M101.882 15.7342H101.799C101.222 18.1145 97.7629 25.89 97.7629 25.89H94.4857C94.4857 25.89 90.9749 18.1695 90.5335 15.7342H90.4787C90.3691 18.2536 90.6114 29.6734 90.6114 29.6734H86.5352L86.5409 11.0173H92.7087C92.7087 11.0173 95.6829 18.5406 96.0955 20.7266H96.1791C96.7013 18.5667 99.9236 11.0173 99.9236 11.0173H105.982L106.14 29.6734H102.006C102.006 29.6734 101.88 18.4479 101.88 15.7342H101.882Z" fill="white"/>
<path d="M120.83 26.3796C120.83 27.6814 120.885 28.9251 121.023 29.6731H117.25L117.002 28.3163H116.918C116.036 29.3948 114.659 29.9775 113.061 29.9775C110.335 29.9775 108.711 27.9858 108.711 25.8259C108.711 22.3092 111.85 20.6219 116.615 20.6509V20.4567C116.615 19.7377 116.229 18.7143 114.163 18.7143C112.787 18.7143 111.327 19.1839 110.445 19.7377L109.674 17.0241C110.612 16.4993 112.455 15.8325 114.908 15.8325C119.396 15.8325 120.83 18.491 120.83 21.6743V26.3796ZM116.754 23.2804C114.55 23.2514 112.842 23.7791 112.842 25.4113C112.842 26.4898 113.557 27.0174 114.495 27.0174C115.542 27.0174 116.396 26.3246 116.67 25.4664C116.725 25.2461 116.754 24.9967 116.754 24.7474V23.2804Z" fill="white"/>
<path d="M124.133 20.5961C124.133 18.6044 124.078 17.3027 124.023 16.1401H127.632L127.771 18.6305H127.88C128.57 16.6649 130.223 15.8357 131.515 15.8357C131.902 15.8357 132.092 15.8357 132.398 15.8908V19.8771C132.095 19.793 131.737 19.7379 131.27 19.7379C129.727 19.7379 128.682 20.5671 128.405 21.8688C128.351 22.1471 128.322 22.4776 128.322 22.8111V29.6762H124.136V20.5961H124.133Z" fill="white"/>
<path d="M138.704 21.8396H138.759C139.062 21.2859 139.394 20.7321 139.723 20.2074L142.449 16.1399H147.105L142.008 23.5588L148.175 29.6731H143.026L138.702 25.4375V29.6731H134.516V10.0198H138.702V21.8396H138.704Z" fill="white"/>
<path d="M152.282 24.2488C152.42 25.9911 154.128 26.8232 156.084 26.8232C157.515 26.8232 158.672 26.629 159.802 26.2695L160.353 29.1193C158.977 29.6731 157.295 29.9775 155.478 29.9775C150.906 29.9775 148.289 27.2929 148.289 23.0572C148.289 19.6246 150.409 15.8325 155.091 15.8325C159.442 15.8325 161.095 19.2361 161.095 22.5875C161.095 23.3065 161.011 23.9443 160.956 24.2488H152.282ZM157.212 21.3699C157.212 20.3465 156.77 18.6302 154.843 18.6302C153.081 18.6302 152.365 20.2363 152.256 21.3699H157.215H157.212Z" fill="white"/>
<path d="M168.281 12.4583V16.1402H171.285V19.2394H168.281V24.1389C168.281 25.7712 168.668 26.5191 169.934 26.5191C170.511 26.5191 170.76 26.4901 171.175 26.409L171.204 29.5922C170.653 29.8126 169.66 29.9807 168.478 29.9807C167.128 29.9807 166 29.4821 165.339 28.7892C164.569 27.9861 164.182 26.6844 164.182 24.7767V19.2423H162.391V16.1431H164.182V12.4612H168.287L168.281 12.4583Z" fill="white"/>
<path d="M189.67 32.4742C187.076 32.4742 185.218 31.5987 185.129 31.5552L185.501 30.7695C185.524 30.7811 187.838 31.8625 190.795 31.5436C193.778 31.2218 196.201 29.6012 196.224 29.5867L196.706 30.3086C196.599 30.381 194.081 32.0626 190.884 32.4104C190.466 32.4568 190.059 32.4742 189.667 32.4742H189.67Z" fill="black"/>
<path d="M184.151 30.7925C184.044 30.7171 183.104 30.0416 182.734 29.4531L183.464 28.9863C183.701 29.3603 184.402 29.9054 184.65 30.0822L184.151 30.7925Z" fill="black"/>
<path d="M187.222 14.3167C187.201 14.3427 187.17 14.3833 187.129 14.4384C187.051 14.4297 186.973 14.4181 186.898 14.4065C186.919 14.4094 186.936 14.4094 186.956 14.4094C186.982 14.4094 187.008 14.4065 187.031 14.4007C187.04 14.4007 187.046 14.4007 187.054 14.3978C187.074 14.392 187.095 14.3862 187.115 14.3775C187.161 14.3601 187.198 14.3369 187.222 14.3167Z" fill="black"/>
<path d="M187.222 14.3167C187.201 14.3427 187.17 14.3833 187.129 14.4384C187.051 14.4297 186.973 14.4181 186.898 14.4065C186.919 14.4094 186.936 14.4094 186.956 14.4094C186.982 14.4094 187.008 14.4065 187.031 14.4007C187.04 14.4007 187.046 14.4007 187.054 14.3978C187.074 14.392 187.095 14.3862 187.115 14.3775C187.161 14.3601 187.198 14.3369 187.222 14.3167Z" fill="black"/>
<path d="M191.966 22.153C191.952 22.8807 191.513 23.1474 191.357 23.217H188.672C188.675 22.1443 188.669 21.4833 188.66 21.1006C189.471 21.1006 190.501 21.1035 190.922 21.1151C191.412 21.1296 191.983 21.4108 191.966 22.153Z" fill="#C0C0C0"/>
<path d="M190.995 24.1473C190.397 24.1299 189.258 24.1386 188.669 24.1444C188.669 24.7445 188.664 25.4432 188.655 26.2492H191.274C191.39 26.2492 191.499 26.2173 191.577 26.1593C191.877 25.9477 192.033 25.6172 192.042 25.1852C192.056 24.4401 191.488 24.1618 190.995 24.1473ZM190.995 24.1473C190.397 24.1299 189.258 24.1386 188.669 24.1444C188.669 24.7445 188.664 25.4432 188.655 26.2492H191.274C191.39 26.2492 191.499 26.2173 191.577 26.1593C191.877 25.9477 192.033 25.6172 192.042 25.1852C192.056 24.4401 191.488 24.1618 190.995 24.1473ZM190.995 24.1473C190.397 24.1299 189.258 24.1386 188.669 24.1444C188.669 24.7445 188.664 25.4432 188.655 26.2492H191.274C191.39 26.2492 191.499 26.2173 191.577 26.1593C191.877 25.9477 192.033 25.6172 192.042 25.1852C192.056 24.4401 191.488 24.1618 190.995 24.1473ZM190.995 24.1473C190.397 24.1299 189.258 24.1386 188.669 24.1444C188.669 24.7445 188.664 25.4432 188.655 26.2492H191.274C191.39 26.2492 191.499 26.2173 191.577 26.1593C191.877 25.9477 192.033 25.6172 192.042 25.1852C192.056 24.4401 191.488 24.1618 190.995 24.1473ZM190.995 24.1473C190.397 24.1299 189.258 24.1386 188.669 24.1444C188.669 24.7445 188.664 25.4432 188.655 26.2492H191.274C191.39 26.2492 191.499 26.2173 191.577 26.1593C191.877 25.9477 192.033 25.6172 192.042 25.1852C192.056 24.4401 191.488 24.1618 190.995 24.1473ZM190.995 24.1473C190.397 24.1299 189.258 24.1386 188.669 24.1444C188.669 24.7445 188.664 25.4432 188.655 26.2492H191.274C191.39 26.2492 191.499 26.2173 191.577 26.1593C191.877 25.9477 192.033 25.6172 192.042 25.1852C192.056 24.4401 191.488 24.1618 190.995 24.1473ZM189.734 17.5518C186.388 17.5518 183.676 20.277 183.676 23.64C183.676 27.003 186.388 29.7282 189.734 29.7282C193.08 29.7282 195.792 27.003 195.792 23.64C195.792 20.277 193.08 17.5518 189.734 17.5518ZM192.079 26.8696C191.851 27.032 191.572 27.119 191.274 27.119H190.66V27.9452H189.794V27.119H189.157V27.9452H188.292V27.119H187.114V26.2492H187.79C187.818 23.2399 187.807 21.7468 187.795 21.1003C187.259 21.1032 186.875 21.1032 186.875 21.1032V20.2335C186.875 20.2335 187.432 20.2335 188.147 20.2306H188.292V19.3144H189.157V20.2335C189.376 20.2306 189.59 20.2306 189.794 20.2335V19.3144H190.66V20.2393C190.772 20.2422 190.868 20.2422 190.946 20.2451C192.062 20.277 192.855 21.0887 192.832 22.1701C192.818 22.921 192.509 23.3935 192.2 23.6806C192.65 24.0227 192.919 24.5648 192.907 25.2026C192.887 26.1506 192.382 26.6551 192.079 26.8696ZM190.995 24.1473C190.397 24.1299 189.258 24.1386 188.669 24.1444C188.669 24.7445 188.664 25.4432 188.655 26.2492H191.274C191.39 26.2492 191.499 26.2173 191.577 26.1593C191.877 25.9477 192.033 25.6172 192.042 25.1852C192.056 24.4401 191.488 24.1618 190.995 24.1473ZM190.995 24.1473C190.397 24.1299 189.258 24.1386 188.669 24.1444C188.669 24.7445 188.664 25.4432 188.655 26.2492H191.274C191.39 26.2492 191.499 26.2173 191.577 26.1593C191.877 25.9477 192.033 25.6172 192.042 25.1852C192.056 24.4401 191.488 24.1618 190.995 24.1473ZM190.995 24.1473C190.397 24.1299 189.258 24.1386 188.669 24.1444C188.669 24.7445 188.664 25.4432 188.655 26.2492H191.274C191.39 26.2492 191.499 26.2173 191.577 26.1593C191.877 25.9477 192.033 25.6172 192.042 25.1852C192.056 24.4401 191.488 24.1618 190.995 24.1473ZM190.995 24.1473C190.397 24.1299 189.258 24.1386 188.669 24.1444C188.669 24.7445 188.664 25.4432 188.655 26.2492H191.274C191.39 26.2492 191.499 26.2173 191.577 26.1593C191.877 25.9477 192.033 25.6172 192.042 25.1852C192.056 24.4401 191.488 24.1618 190.995 24.1473ZM190.995 24.1473C190.397 24.1299 189.258 24.1386 188.669 24.1444C188.669 24.7445 188.664 25.4432 188.655 26.2492H191.274C191.39 26.2492 191.499 26.2173 191.577 26.1593C191.877 25.9477 192.033 25.6172 192.042 25.1852C192.056 24.4401 191.488 24.1618 190.995 24.1473Z" fill="#C0C0C0"/>
<path d="M189.733 17.1169C186.153 17.1169 183.242 20.0422 183.242 23.64C183.242 27.2379 186.153 30.1631 189.733 30.1631C193.313 30.1631 196.224 27.2379 196.224 23.64C196.224 20.0422 193.313 17.1169 189.733 17.1169ZM189.733 29.2934C186.632 29.2934 184.108 26.7566 184.108 23.64C184.108 20.5234 186.632 17.9867 189.733 17.9867C192.834 17.9867 195.358 20.5234 195.358 23.64C195.358 26.7566 192.834 29.2934 189.733 29.2934Z" fill="black"/>
<path d="M192.195 23.6808C192.504 23.3938 192.813 22.9212 192.827 22.1704C192.85 21.089 192.057 20.2772 190.941 20.2453C190.863 20.2424 190.767 20.2424 190.655 20.2395V19.3147H189.79V20.2337C189.585 20.2308 189.371 20.2308 189.152 20.2337V19.3147H188.287V20.2308H188.142C187.427 20.2337 186.867 20.2337 186.867 20.2337V21.1035C186.867 21.1035 187.254 21.1035 187.79 21.1006C187.802 21.7471 187.813 23.2402 187.785 26.2495H187.11V27.1192H188.287V27.9455H189.152V27.1192H189.79V27.9455H190.655V27.1192H191.269C191.567 27.1192 191.846 27.0322 192.074 26.8699C192.377 26.6553 192.882 26.1509 192.902 25.2029C192.914 24.5651 192.646 24.0229 192.195 23.6808ZM190.917 21.1151C191.408 21.1296 191.979 21.4108 191.962 22.153C191.947 22.8807 191.509 23.1474 191.353 23.217H188.667C188.67 22.1443 188.664 21.4833 188.656 21.1006C189.466 21.1006 190.496 21.1035 190.917 21.1151ZM191.572 26.1596C191.494 26.2176 191.385 26.2495 191.269 26.2495H188.65C188.659 25.4435 188.664 24.7448 188.664 24.1447C189.253 24.1389 190.392 24.1302 190.99 24.1476C191.483 24.1621 192.051 24.4404 192.037 25.1855C192.028 25.6175 191.872 25.948 191.572 26.1596Z" fill="black"/>
</svg>
