<svg width="134" height="40" viewBox="0 0 134 40" fill="none" xmlns="http://www.w3.org/2000/svg">
<path d="M48.4208 9.22632C52.1362 9.22632 55.929 10.7185 55.929 14.5461C55.929 16.6654 54.6131 18.4819 52.9231 19.455C55.4387 20.3092 56.6901 21.9852 56.6901 23.8774C56.6901 28.9485 53.2843 30.4622 48.911 30.4622H37.1328V9.22632H48.4337H48.4208ZM42.4995 17.4655H47.6597C48.9497 17.4655 49.7367 16.3626 49.7367 15.3246C49.7367 14.2001 48.9497 13.1837 47.3372 13.1837H42.4866V17.4547L42.4995 17.4655ZM42.4995 26.9265H48.0467C49.7754 26.9265 50.6655 25.5858 50.6655 24.245C50.6655 22.9042 49.7496 21.5635 48.0467 21.5635H42.4995V26.9157V26.9265Z" fill="white"/>
<path d="M64.6099 13.2269H58.3789V9.04248H64.6099V13.2269ZM64.6099 30.646H58.3789V14.9894H64.6099V30.646Z" fill="white"/>
<path d="M78.5005 18.5359H75.1334V24.1152C75.1334 25.6614 75.2882 26.2669 77.2104 26.2669C77.6232 26.2669 78.0876 26.2669 78.5005 26.202V30.5379C77.0814 30.6244 76.5138 30.6568 75.2237 30.6568C70.6827 30.6568 68.9282 29.3269 68.9282 25.5317V18.5251H66.2578V14.7948H68.9282V9.04248H75.1334V14.8056H78.5005V18.5359Z" fill="white"/>
<path d="M99.1588 28.8944C99.1588 34.8413 95.0048 36.7443 89.3415 36.7443C85.1875 36.7443 81.2141 35.3495 80.6207 30.9055H85.7809C86.1163 31.9868 87.071 33.1113 89.793 33.1113C92.515 33.1113 93.6632 31.5002 93.6632 29.8459V27.9753C92.4118 29.435 90.1026 30.0297 88.0514 30.0297C83.562 30.0297 80.1562 27.0779 80.1562 22.2122C80.1562 17.3465 83.7039 14.3298 88.1288 14.3298C90.3993 14.3298 92.6956 15.0867 93.8567 16.7627L93.8954 14.8056H99.1846V28.8836L99.1588 28.8944ZM85.2262 22.2338C85.2262 25.8236 87.6773 26.2021 89.5221 26.2021C92.1796 26.2021 93.431 24.5045 93.431 22.3744C93.431 19.455 91.4701 18.2656 89.5995 18.2656C87.1742 18.2656 85.2262 19.1631 85.2262 22.2446V22.2338Z" fill="white"/>
<path d="M110.769 30.9055C105.364 30.9055 100.965 28.0186 100.965 22.8069C100.965 17.9196 104.964 14.4055 110.537 14.4055C116.11 14.4055 120.109 17.952 120.109 23.4773V23.9314H106.525C106.628 25.9317 107.673 27.4671 110.318 27.4671C112.292 27.4671 113.44 26.6886 114.111 25.7479H119.722C118.652 29.262 114.523 30.9055 110.756 30.9055H110.769ZM110.318 17.8331C108.537 17.8331 106.86 19.1414 106.525 20.9255H114.123C113.956 19.3144 112.279 17.8331 110.331 17.8331H110.318Z" fill="white"/>
<path d="M133.153 18.5359H129.386V24.1152C129.386 25.6614 129.941 26.9373 131.863 26.9373C132.276 26.9373 132.74 26.9373 133.153 26.8724V30.5487C131.734 30.6352 131.166 30.6676 129.876 30.6676C125.335 30.6676 123.581 29.3377 123.581 25.5425V18.5359H120.91V14.8056H123.581V9.04248H129.425V14.8056H133.166V18.5359H133.153Z" fill="white"/>
<path d="M14.2631 13.2267L23.1387 20.9901L11.4766 30.6674H20.0167L30.3243 21.9092C30.8919 21.4226 30.9048 20.6441 30.3243 20.1576L22.3131 13.2051L14.2502 13.2375L14.2631 13.2267Z" fill="white"/>
<path d="M16.6598 20.7739L7.78416 13.0105L19.4592 3.33325H10.919L0.598539 12.0914C0.0309136 12.578 0.0180131 13.3565 0.598539 13.8431L8.6098 20.7956L16.6727 20.7631L16.6598 20.7739Z" fill="white"/>
</svg>
