<svg width="117" height="40" viewBox="0 0 117 40" fill="none" xmlns="http://www.w3.org/2000/svg">
<g clip-path="url(#clip0_6795_158133)">
<path d="M7.65938 26.8527C7.94713 26.1745 8.03957 25.2435 7.9367 24.0595C7.93514 24.0401 7.93735 24.0206 7.94316 24.0022C7.94898 23.9837 7.95829 23.9668 7.9705 23.9525C7.9827 23.9382 7.99753 23.9268 8.01404 23.919C8.03056 23.9112 8.04839 23.9072 8.06641 23.9073L11.3651 23.9097C11.4427 23.9097 11.4844 23.9508 11.4904 24.0329C11.6693 26.5048 11.2622 29.4744 8.70602 30.2766C7.22775 30.7405 5.24405 30.7212 3.85523 30.2355C1.42201 29.3874 0.970256 26.7464 0.943419 24.2649C0.918073 22.0709 0.915091 19.8761 0.934473 17.6806C0.959074 14.6965 1.64118 11.8598 4.84149 11.4418C9.23382 10.8715 11.629 12.5001 11.4031 17.4848C11.402 17.5109 11.3916 17.5355 11.3741 17.5535C11.3566 17.5715 11.3334 17.5815 11.3092 17.5815L8.00826 17.5767C7.98594 17.5767 7.96384 17.5718 7.94338 17.5622C7.92291 17.5525 7.90452 17.5384 7.88938 17.5207C7.87424 17.503 7.86267 17.482 7.85542 17.4592C7.84816 17.4364 7.84538 17.4122 7.84724 17.3882C7.90539 16.6826 7.84873 15.9763 7.67727 15.2691C7.26353 13.5584 5.22616 13.8387 4.77664 15.3247C4.58132 15.9755 4.48367 16.7004 4.48367 17.4993C4.48516 19.6933 4.49336 21.8881 4.50827 24.0837C4.51423 24.8988 4.61114 25.701 4.799 26.4903C5.1613 28.0053 7.03766 28.3315 7.65938 26.8527Z" fill="white"/>
<path d="M57.063 27.4351L57.0653 23.3733C57.0653 23.3559 57.0621 23.3386 57.0559 23.3225C57.0497 23.3063 57.0407 23.2917 57.0292 23.2793C57.0178 23.267 57.0043 23.2572 56.9893 23.2505C56.9744 23.2439 56.9584 23.2404 56.9423 23.2404L55.5042 23.2308C55.4476 23.2291 55.4193 23.1977 55.4193 23.1365L55.4215 20.5729C55.4215 20.4859 55.4625 20.4424 55.5445 20.4424L60.5116 20.44C60.5454 20.44 60.5778 20.4545 60.6017 20.4803C60.6256 20.5061 60.6391 20.5412 60.6391 20.5777L60.6346 29.8151C60.6339 29.8443 60.6243 29.8724 60.6073 29.8951C60.5903 29.9178 60.5669 29.9338 60.5407 29.9407C59.0944 30.3193 57.6132 30.5528 56.0969 30.6414C52.0691 30.8758 50.1704 29.501 49.8864 25.0478C49.8312 24.2021 49.8014 22.1289 49.7969 18.8283C49.7924 15.5108 50.2889 12.2392 53.8605 11.536C57.9151 10.7387 60.9879 12.4228 60.61 17.3544C60.6083 17.38 60.5976 17.404 60.5802 17.4215C60.5628 17.439 60.5398 17.4487 60.5161 17.4486L57.2218 17.4414C57.202 17.4414 57.1825 17.4371 57.1643 17.4286C57.1462 17.42 57.1299 17.4076 57.1164 17.3919C57.103 17.3762 57.0927 17.3577 57.0862 17.3375C57.0797 17.3174 57.0771 17.296 57.0787 17.2747C57.1681 15.7572 56.8685 13.8967 54.9787 14.2084C53.5049 14.4525 53.4154 16.1728 53.3931 17.439C53.3461 20.2781 53.1806 23.3298 53.5407 26.1399C53.8001 28.1527 55.5713 28.0246 56.9624 27.5824C57.0295 27.5599 57.063 27.5108 57.063 27.4351Z" fill="white"/>
<path d="M28.5737 26.4179L27.9139 30.209C27.9082 30.2404 27.8926 30.2686 27.8698 30.2889C27.8469 30.3092 27.8183 30.3202 27.7887 30.3202L24.6107 30.3226C24.5916 30.3224 24.5728 30.3176 24.5556 30.3085C24.5385 30.2994 24.5234 30.2862 24.5116 30.27C24.4998 30.2537 24.4915 30.2348 24.4874 30.2147C24.4833 30.1945 24.4834 30.1736 24.4877 30.1535L28.3679 11.6908C28.3744 11.6607 28.3901 11.6339 28.4124 11.6146C28.4347 11.5953 28.4624 11.5847 28.4909 11.5845L32.4695 11.582C32.4985 11.5818 32.5266 11.5921 32.5494 11.6115C32.5721 11.6308 32.5881 11.6579 32.5947 11.6884L36.466 30.1583C36.4704 30.1786 36.4705 30.1997 36.4662 30.2201C36.462 30.2404 36.4535 30.2595 36.4414 30.2757C36.4294 30.292 36.414 30.3052 36.3966 30.3141C36.3791 30.3231 36.3601 30.3276 36.3407 30.3274L33.1606 30.3178C33.1307 30.3177 33.1018 30.3063 33.0789 30.2855C33.056 30.2648 33.0406 30.236 33.0353 30.2042L32.4024 26.4227C32.3972 26.391 32.3818 26.3622 32.3589 26.3414C32.336 26.3207 32.3071 26.3092 32.2772 26.3092L28.6989 26.3068C28.6693 26.3067 28.6407 26.3178 28.6178 26.3381C28.595 26.3583 28.5794 26.3866 28.5737 26.4179ZM30.5618 15.3852C30.5305 15.1952 30.4985 15.1952 30.4657 15.3852L29.0836 23.4217C29.0816 23.4315 29.0817 23.4416 29.0839 23.4514C29.0861 23.4611 29.0904 23.4703 29.0964 23.4781C29.1024 23.486 29.1099 23.4924 29.1186 23.4968C29.1272 23.5013 29.1366 23.5037 29.1462 23.5039H31.7762C31.8702 23.5039 31.9089 23.454 31.8925 23.3541L30.5618 15.3852Z" fill="white"/>
<path d="M40.8287 19.865L40.8354 30.1317C40.8354 30.2606 40.7757 30.325 40.6565 30.325L37.4763 30.3323C37.4401 30.3323 37.4054 30.3167 37.3798 30.2891C37.3542 30.2614 37.3398 30.224 37.3398 30.1849L37.3577 11.7077C37.3577 11.675 37.37 11.6437 37.3918 11.6205C37.4136 11.5974 37.4432 11.5844 37.474 11.5844L40.7124 11.582C40.7454 11.582 40.7778 11.5928 40.8053 11.613C40.8328 11.6333 40.8542 11.662 40.8667 11.6956L44.8229 22.2353C44.89 22.4174 44.9235 22.4101 44.9235 22.2136L44.9258 11.756C44.9258 11.6416 44.9787 11.5844 45.0846 11.5844L48.2871 11.582C48.3221 11.582 48.3557 11.5968 48.3804 11.6231C48.4052 11.6494 48.4191 11.685 48.4191 11.7222L48.4213 30.1414C48.4213 30.1903 48.4035 30.2373 48.3716 30.2721C48.3398 30.3069 48.2966 30.3268 48.2513 30.3274L45.0286 30.3347C44.9619 30.3347 44.8967 30.3129 44.8412 30.2719C44.7858 30.231 44.7428 30.1729 44.7178 30.1051L40.9203 19.8457C40.8577 19.6765 40.8272 19.683 40.8287 19.865Z" fill="white"/>
<path d="M65.7507 22.2813L65.7574 27.4062C65.7574 27.4395 65.7696 27.4714 65.7914 27.495C65.8133 27.5186 65.8428 27.5318 65.8737 27.5318L70.8519 27.5246C70.8828 27.5246 70.9124 27.5378 70.9342 27.5614C70.956 27.5849 70.9682 27.6169 70.9682 27.6502V30.1945C70.9682 30.2279 70.956 30.2598 70.9342 30.2834C70.9124 30.3069 70.8828 30.3202 70.8519 30.3202L62.3088 30.3226C62.278 30.3226 62.2484 30.3094 62.2266 30.2858C62.2048 30.2622 62.1925 30.2303 62.1925 30.1969L62.1836 11.7077C62.1836 11.6744 62.1958 11.6424 62.2177 11.6188C62.2395 11.5953 62.269 11.582 62.2999 11.582H70.758C70.7889 11.582 70.8184 11.5953 70.8402 11.6188C70.8621 11.6424 70.8743 11.6744 70.8743 11.7077L70.8721 14.2496C70.8721 14.2829 70.8598 14.3149 70.838 14.3384C70.8162 14.362 70.7866 14.3752 70.7558 14.3752L65.867 14.3777C65.8361 14.3777 65.8065 14.3909 65.7847 14.4145C65.7629 14.438 65.7507 14.47 65.7507 14.5033L65.7529 19.2078C65.7529 19.2243 65.7559 19.2406 65.7618 19.2559C65.7676 19.2711 65.7762 19.2849 65.787 19.2966C65.7978 19.3083 65.8106 19.3175 65.8247 19.3238C65.8388 19.3302 65.8539 19.3334 65.8692 19.3334L70.5769 19.3479C70.6077 19.3479 70.6373 19.3611 70.6591 19.3847C70.6809 19.4083 70.6932 19.4402 70.6932 19.4736L70.6909 22.0276C70.6909 22.0609 70.6787 22.0928 70.6569 22.1164C70.6351 22.14 70.6055 22.1532 70.5746 22.1532L65.867 22.1556C65.8361 22.1556 65.8065 22.1689 65.7847 22.1924C65.7629 22.216 65.7507 22.2479 65.7507 22.2813Z" fill="white"/>
<path d="M79.0743 22.9819L79.0766 30.1292C79.0766 30.1799 79.0582 30.2284 79.0255 30.2642C78.9928 30.3 78.9484 30.3201 78.9021 30.3201H75.6526C75.6152 30.3201 75.5794 30.3043 75.553 30.2762C75.5266 30.2482 75.5117 30.21 75.5117 30.1703V11.6955C75.5117 11.6665 75.5225 11.6386 75.5417 11.6178C75.561 11.597 75.5871 11.585 75.6146 11.5844C77.6095 11.5763 79.6014 11.5796 81.5903 11.5941C82.0927 11.5973 82.7256 11.7358 83.489 12.0097C86.1056 12.9423 86.2376 16.2671 85.9334 18.768C85.8335 19.5814 85.6643 20.2604 85.4258 20.8049C84.5289 22.849 81.2235 22.9094 79.251 22.8031C79.1332 22.7967 79.0743 22.8563 79.0743 22.9819ZM79.0788 14.4791L79.0699 19.9398C79.0699 19.9661 79.0795 19.9913 79.0967 20.0099C79.1139 20.0285 79.1372 20.0389 79.1616 20.0389L80.5973 20.0413C81.0902 20.0419 81.5631 19.828 81.9121 19.4464C82.261 19.0649 82.4574 18.547 82.458 18.0068L82.4625 16.4218C82.4628 16.1543 82.415 15.8893 82.3219 15.6421C82.2288 15.3948 82.0921 15.1701 81.9198 14.9807C81.7474 14.7913 81.5427 14.641 81.3173 14.5384C81.0919 14.4357 80.8503 14.3827 80.6063 14.3824L79.1705 14.38C79.1585 14.38 79.1465 14.3826 79.1354 14.3876C79.1243 14.3925 79.1142 14.3998 79.1057 14.409C79.0971 14.4182 79.0904 14.4291 79.0858 14.4412C79.0812 14.4532 79.0788 14.4661 79.0788 14.4791Z" fill="white"/>
<path d="M95.2481 21.2301C97.0164 21.504 97.8886 22.6195 97.8647 24.5766C97.8349 26.9349 97.8685 28.8075 97.9654 30.1945C97.9714 30.2782 97.9348 30.3201 97.8558 30.3201H94.6197C94.5813 30.3199 94.5442 30.3049 94.5154 30.2778C94.4866 30.2507 94.468 30.2134 94.4632 30.1727C94.2418 28.375 94.3334 26.4468 94.3021 24.6298C94.2641 22.4721 92.5801 22.6171 91.1533 22.6146C91.1212 22.6146 91.0905 22.6284 91.0679 22.6529C91.0452 22.6773 91.0325 22.7105 91.0325 22.7451L91.0347 30.1969C91.0347 30.2308 91.0222 30.2634 91 30.2874C90.9778 30.3115 90.9476 30.3249 90.9162 30.3249L87.6958 30.3322C87.6335 30.3322 87.5738 30.3052 87.5297 30.2572C87.4857 30.2091 87.4609 30.144 87.4609 30.0761L87.4632 11.7028C87.4632 11.6727 87.4743 11.6438 87.494 11.6225C87.5137 11.6012 87.5404 11.5892 87.5683 11.5892C89.3172 11.5828 91.0705 11.5723 92.8283 11.5578C96.306 11.5288 97.9072 12.9592 97.8826 16.8398C97.8782 17.7708 97.7306 18.5964 97.4398 19.3164C96.9635 20.498 96.2098 20.7734 95.2414 21.16C95.1594 21.1923 95.1617 21.2156 95.2481 21.2301ZM91.0191 14.496L91.0459 19.7248C91.0459 19.7523 91.056 19.7788 91.0741 19.7983C91.0921 19.8177 91.1166 19.8287 91.1421 19.8287L92.5421 19.819C92.7738 19.8178 93.0031 19.7661 93.2167 19.667C93.4304 19.5678 93.6242 19.4231 93.7873 19.2412C93.9503 19.0592 94.0793 18.8435 94.1668 18.6064C94.2544 18.3693 94.2989 18.1155 94.2977 17.8594L94.2887 16.3227C94.2863 15.8056 94.0981 15.3106 93.7655 14.9468C93.4329 14.5829 92.9832 14.3799 92.5152 14.3824L91.1152 14.3921C91.0897 14.3921 91.0653 14.403 91.0472 14.4225C91.0292 14.442 91.0191 14.4684 91.0191 14.496Z" fill="white"/>
<path d="M116.256 20.3723V21.5466C115.7 26.57 112.097 30.523 107.3 30.3297C98.4434 29.9769 95.6166 17.306 103.417 12.7055C106.186 11.0745 109.503 11.2412 112.177 13.0462C114.524 14.6296 115.884 17.0717 116.256 20.3723ZM115.268 20.9498C115.268 18.7344 114.453 16.6098 113.004 15.0433C111.554 13.4768 109.587 12.5967 107.537 12.5967C105.486 12.5967 103.52 13.4768 102.07 15.0433C100.62 16.6098 99.8054 18.7344 99.8054 20.9498C99.8054 23.1651 100.62 25.2898 102.07 26.8563C103.52 28.4228 105.486 29.3028 107.537 29.3028C109.587 29.3028 111.554 28.4228 113.004 26.8563C114.453 25.2898 115.268 23.1651 115.268 20.9498Z" fill="white"/>
<path d="M16.3104 22.3415L16.3148 30.2669C16.3148 30.2996 16.3028 30.3309 16.2814 30.354C16.2601 30.3771 16.231 30.3901 16.2008 30.3901H12.8641C12.8338 30.3901 12.8048 30.3771 12.7834 30.354C12.762 30.3309 12.75 30.2996 12.75 30.2669V11.7631C12.75 11.7469 12.753 11.7309 12.7587 11.7159C12.7644 11.701 12.7728 11.6874 12.7834 11.676C12.794 11.6645 12.8066 11.6554 12.8204 11.6492C12.8342 11.6431 12.8491 11.6399 12.8641 11.6399H16.2008C16.231 11.6399 16.2601 11.6529 16.2814 11.676C16.3028 11.6991 16.3148 11.7304 16.3148 11.7631L16.3126 19.2946C16.3126 19.3273 16.3246 19.3586 16.346 19.3817C16.3674 19.4048 16.3964 19.4178 16.4267 19.4178L19.5755 19.4154C19.6058 19.4154 19.6348 19.4024 19.6562 19.3793C19.6776 19.3562 19.6896 19.3249 19.6896 19.2922V11.7655C19.6896 11.7328 19.7016 11.7015 19.723 11.6784C19.7444 11.6553 19.7734 11.6423 19.8037 11.6423L23.1404 11.6375C23.1706 11.6375 23.1997 11.6504 23.221 11.6735C23.2424 11.6967 23.2545 11.728 23.2545 11.7607V30.2669C23.2545 30.2996 23.2424 30.3309 23.221 30.354C23.1997 30.3771 23.1706 30.3901 23.1404 30.3901L19.8037 30.3925C19.7734 30.3925 19.7444 30.3795 19.723 30.3564C19.7016 30.3333 19.6896 30.302 19.6896 30.2693V22.3415C19.6896 22.3088 19.6776 22.2775 19.6562 22.2544C19.6348 22.2313 19.6058 22.2183 19.5755 22.2183H16.4244C16.3942 22.2183 16.3652 22.2313 16.3438 22.2544C16.3224 22.2775 16.3104 22.3088 16.3104 22.3415Z" fill="white"/>
<path d="M107.565 28.5564C111.47 28.5564 114.635 25.1368 114.635 20.9186C114.635 16.7003 111.47 13.2808 107.565 13.2808C103.661 13.2808 100.496 16.7003 100.496 20.9186C100.496 25.1368 103.661 28.5564 107.565 28.5564Z" fill="#B5B5B5"/>
</g>
<defs>
<clipPath id="clip0_6795_158133">
<rect width="115.333" height="40" fill="white" transform="translate(0.921875)"/>
</clipPath>
</defs>
</svg>
