<svg width="137" height="40" viewBox="0 0 137 40" fill="none" xmlns="http://www.w3.org/2000/svg">
<g clip-path="url(#clip0_6795_158139)">
<path fill-rule="evenodd" clip-rule="evenodd" d="M15.1425 6.72052C15.1425 6.31432 15.2653 5.91724 15.4955 5.57951C15.7256 5.24176 16.0527 4.97853 16.4355 4.82308C16.8182 4.66764 17.2394 4.62697 17.6456 4.70621C18.052 4.78546 18.4252 4.98106 18.7181 5.26828C19.011 5.55551 19.2105 5.92146 19.2913 6.31985C19.3721 6.71824 19.3307 7.13118 19.1721 7.50646C19.0136 7.88174 18.7451 8.2025 18.4007 8.42817C18.0562 8.65385 17.6513 8.7743 17.237 8.7743C16.962 8.77443 16.6895 8.7214 16.4353 8.61823C16.1812 8.51506 15.9502 8.3638 15.7557 8.17306C15.5611 7.98232 15.4068 7.75586 15.3017 7.50663C15.1965 7.25739 15.1424 6.99026 15.1425 6.72052ZM15.0748 33.2787C15.075 32.8725 15.198 32.4755 15.4282 32.1379C15.6585 31.8003 15.9857 31.5372 16.3685 31.3819C16.7512 31.2266 17.1723 31.1861 17.5785 31.2655C17.9847 31.3449 18.3578 31.5405 18.6507 31.8278C18.9435 32.115 19.1428 32.481 19.2236 32.8794C19.3043 33.2777 19.2628 33.6906 19.1043 34.0658C18.9457 34.441 18.6773 34.7618 18.3328 34.9873C17.9884 35.213 17.5834 35.3334 17.1693 35.3334C16.894 35.3337 16.6215 35.2807 16.3672 35.1776C16.1128 35.0744 15.8818 34.923 15.6873 34.7321C15.4927 34.5412 15.3384 34.3146 15.2333 34.0652C15.1282 33.8158 15.0743 33.5485 15.0748 33.2787ZM21.8634 26.623C21.8634 26.2168 21.9863 25.8197 22.2165 25.482C22.4466 25.1442 22.7736 24.881 23.1564 24.7255C23.5391 24.5701 23.9603 24.5295 24.3665 24.6087C24.7729 24.6879 25.1461 24.8836 25.439 25.1708C25.7319 25.458 25.9314 25.824 26.0122 26.2223C26.093 26.6207 26.0516 27.0337 25.8931 27.409C25.7345 27.7842 25.4661 28.105 25.1216 28.3307C24.7772 28.5564 24.3722 28.6768 23.958 28.6768C23.6829 28.6769 23.4104 28.6239 23.1562 28.5207C22.9021 28.4175 22.6711 28.2663 22.4766 28.0755C22.282 27.8848 22.1278 27.6584 22.0226 27.4091C21.9174 27.1598 21.8633 26.8928 21.8634 26.623ZM28.6521 19.9663C28.6519 19.5601 28.7746 19.163 29.0046 18.8251C29.2346 18.4872 29.5617 18.2238 29.9444 18.0682C30.3271 17.9126 30.7483 17.8718 31.1546 17.9509C31.561 18.03 31.9343 18.2256 32.2273 18.5127C32.5204 18.7999 32.7199 19.1659 32.8008 19.5643C32.8817 19.9627 32.8403 20.3757 32.6818 20.7511C32.5233 21.1264 32.2548 21.4472 31.9104 21.6729C31.566 21.8986 31.1609 22.0191 30.7466 22.0191C30.4716 22.0192 30.1993 21.9663 29.9452 21.8632C29.6911 21.7601 29.4602 21.6088 29.2656 21.4182C29.0711 21.2276 28.9168 21.0013 28.8115 20.7521C28.7064 20.503 28.6521 20.236 28.6521 19.9663ZM7.46675 22.6645L7.73165 22.9241C7.98017 23.1741 8.29065 23.3563 8.63264 23.453C8.97462 23.5497 9.33634 23.5576 9.68239 23.4759C10.1665 23.3698 10.6685 23.3698 11.1526 23.4759C11.4987 23.5576 11.8605 23.5497 12.2024 23.453C12.5444 23.3563 12.8549 23.1741 13.1034 22.9241L13.4023 22.6302C13.6575 22.3869 13.8437 22.0824 13.9424 21.747C14.0411 21.4116 14.0488 21.0566 13.9648 20.7174C13.9115 20.481 13.8846 20.2396 13.8848 19.9976C13.8848 19.1329 14.235 18.3037 14.8584 17.6921C15.4818 17.0806 16.3275 16.737 17.2093 16.7367C17.4562 16.7369 17.7024 16.7636 17.9434 16.8163C18.2894 16.898 18.6512 16.89 18.9932 16.7933C19.3352 16.6966 19.6457 16.5144 19.8942 16.2645L20.193 15.9706C20.4485 15.7273 20.6347 15.4229 20.7334 15.0875C20.8321 14.7519 20.8398 14.397 20.7556 14.0577C20.7023 13.821 20.6754 13.5793 20.6755 13.3369C20.676 12.6615 20.8904 12.0029 21.2891 11.4522C21.6878 10.9015 22.2512 10.4859 22.9015 10.2628C23.5516 10.0398 24.2564 10.0203 24.9183 10.2071C25.5802 10.3939 26.1665 10.7778 26.5963 11.3056C27.0261 11.8334 27.278 12.4792 27.3171 13.1535C27.3563 13.8278 27.1809 14.4973 26.8151 15.0696C26.4492 15.6419 25.9112 16.0885 25.2752 16.348C24.6392 16.6073 23.9367 16.6664 23.265 16.5173C22.9188 16.4356 22.557 16.4437 22.215 16.5406C21.873 16.6375 21.5626 16.8199 21.3142 17.07L21.0153 17.3629C20.7604 17.6065 20.5743 17.9109 20.4756 18.2462C20.3767 18.5816 20.3685 18.9363 20.4517 19.2757C20.575 19.8129 20.5577 20.372 20.4014 20.9009C20.2452 21.4298 19.955 21.9113 19.558 22.3008C19.1609 22.6902 18.67 22.9748 18.1305 23.1282C17.5912 23.2815 17.021 23.2986 16.4731 23.1779C16.1271 23.0962 15.7654 23.1041 15.4233 23.2008C15.0814 23.2976 14.7709 23.4798 14.5224 23.7296L14.2236 24.0235C13.968 24.2667 13.7814 24.571 13.6826 24.9066C13.5837 25.242 13.5759 25.597 13.6599 25.9364C13.7694 26.4134 13.7681 26.9084 13.656 27.3847C13.544 27.8611 13.324 28.3067 13.0126 28.6885C12.7011 29.0702 12.306 29.3784 11.8567 29.5902C11.4073 29.802 10.9151 29.9119 10.4165 29.9119C9.9179 29.9119 9.42577 29.802 8.97635 29.5902C8.52697 29.3784 8.13194 29.0702 7.82049 28.6885C7.50902 28.3067 7.28908 27.8611 7.17703 27.3847C7.06497 26.9084 7.06366 26.4134 7.17312 25.9364C7.25705 25.597 7.24916 25.2421 7.15031 24.9066C7.05145 24.5711 6.86501 24.2667 6.60942 24.0235L6.34452 23.7638C6.09611 23.5138 5.78568 23.3314 5.44369 23.2345C5.10169 23.1376 4.73988 23.1295 4.39375 23.2112C3.72149 23.3608 3.01843 23.3018 2.38182 23.0425C1.7452 22.7832 1.20654 22.3363 0.840278 21.7637C0.47402 21.191 0.29826 20.5209 0.337395 19.846C0.376529 19.1712 0.628608 18.5249 1.05871 17.9966C1.48881 17.4684 2.07567 17.0842 2.73816 16.8974C3.40065 16.7105 4.10599 16.7301 4.75661 16.9535C5.40724 17.1769 5.97101 17.593 6.36989 18.1443C6.76877 18.6956 6.98309 19.3548 6.98316 20.0307C6.9833 20.2728 6.95641 20.5143 6.90305 20.7506C6.81966 21.0902 6.82779 21.4451 6.92661 21.7806C7.02544 22.1162 7.21158 22.4208 7.46675 22.6645ZM8.35385 13.3772C8.35385 12.971 8.47669 12.5739 8.70683 12.2361C8.93698 11.8984 9.2641 11.6352 9.64685 11.4797C10.0295 11.3243 10.4506 11.2836 10.857 11.3629C11.2633 11.4421 11.6365 11.6377 11.9293 11.9249C12.2223 12.2122 12.4217 12.5781 12.5026 12.9765C12.5834 13.3749 12.542 13.7878 12.3834 14.1631C12.2249 14.5383 11.9564 14.8592 11.612 15.0848C11.2675 15.3105 10.8626 15.4309 10.4483 15.4309C9.89349 15.4307 9.36137 15.2146 8.96867 14.8301C8.57603 14.4457 8.35493 13.9243 8.35385 13.3802V13.3772Z" fill="#9F9F9F"/>
<path d="M36.4084 27.5588C36.2497 27.5588 36.1198 27.5084 36.0187 27.4076C35.9177 27.3068 35.8672 27.1773 35.8672 27.0189V12.9813C35.8672 12.8229 35.9177 12.6934 36.0187 12.5926C36.1198 12.4918 36.2497 12.4414 36.4084 12.4414H39.2007C39.3595 12.4414 39.4893 12.4918 39.5904 12.5926C39.6914 12.6934 39.7419 12.8229 39.7419 12.9813V18.186H41.0623L44.266 12.8517C44.3381 12.7366 44.4391 12.643 44.569 12.571C44.6989 12.4846 44.8648 12.4414 45.0668 12.4414H48.1839C48.3282 12.4414 48.4437 12.4918 48.5303 12.5926C48.6168 12.679 48.6601 12.7797 48.6601 12.8949C48.6601 12.9813 48.6313 13.0677 48.5736 13.1541L44.5474 19.7193L48.9632 26.8245C49.0065 26.8821 49.0282 26.9613 49.0282 27.0621C49.0282 27.2061 48.9776 27.3284 48.8766 27.4292C48.79 27.5156 48.6746 27.5588 48.5303 27.5588H45.3267C45.0957 27.5588 44.9225 27.5084 44.8071 27.4076C44.7061 27.3068 44.6267 27.2204 44.569 27.1484L41.2138 21.6414H39.7419V27.0189C39.7419 27.1773 39.6914 27.3068 39.5904 27.4076C39.4893 27.5084 39.3595 27.5588 39.2007 27.5588H36.4084Z" fill="white"/>
<path d="M57.4004 27.5917C56.1882 27.5917 55.1636 27.3973 54.3265 27.0086C53.504 26.6198 52.869 26.0656 52.4217 25.3457C51.9888 24.6114 51.7434 23.7403 51.6857 22.7325C51.6713 22.4445 51.6641 22.1207 51.6641 21.7607C51.6641 21.3864 51.6713 21.0624 51.6857 20.7888C51.7434 19.7666 52.0033 18.8956 52.465 18.1758C52.9268 17.4558 53.569 16.9015 54.3915 16.5128C55.2285 16.1241 56.2315 15.9297 57.4004 15.9297C58.5837 15.9297 59.5866 16.1241 60.4092 16.5128C61.2462 16.9015 61.8955 17.4558 62.3574 18.1758C62.8191 18.8956 63.0789 19.7666 63.1366 20.7888C63.151 21.0624 63.1582 21.3864 63.1582 21.7607C63.1582 22.1207 63.151 22.4445 63.1366 22.7325C63.0789 23.7403 62.8263 24.6114 62.379 25.3457C61.946 26.0656 61.3111 26.6198 60.4741 27.0086C59.6516 27.3973 58.627 27.5917 57.4004 27.5917ZM57.4004 24.957C58.0497 24.957 58.5188 24.7626 58.8074 24.3738C59.1104 23.9851 59.2836 23.402 59.3268 22.6246C59.3413 22.4086 59.3485 22.1207 59.3485 21.7607C59.3485 21.4007 59.3413 21.1128 59.3268 20.8969C59.2836 20.1338 59.1104 19.5579 58.8074 19.1692C58.5188 18.766 58.0497 18.5644 57.4004 18.5644C56.7654 18.5644 56.2964 18.766 55.9934 19.1692C55.6903 19.5579 55.5243 20.1338 55.4955 20.8969C55.481 21.1128 55.4738 21.4007 55.4738 21.7607C55.4738 22.1207 55.481 22.4086 55.4955 22.6246C55.5243 23.402 55.6903 23.9851 55.9934 24.3738C56.2964 24.7626 56.7654 24.957 57.4004 24.957Z" fill="white"/>
<path d="M66.8516 27.1597C66.7073 27.1597 66.5846 27.1093 66.4835 27.0086C66.3825 26.9077 66.332 26.7853 66.332 26.6414V16.4696C66.332 16.3112 66.3825 16.1816 66.4835 16.0809C66.5846 15.98 66.7145 15.9297 66.8732 15.9297H69.4275C69.5718 15.9297 69.6945 15.98 69.7955 16.0809C69.9109 16.1816 69.9686 16.3112 69.9686 16.4696V24.3522L68.9945 23.877L74.3411 16.2752C74.4134 16.1744 74.4999 16.0952 74.601 16.0377C74.702 15.9657 74.8174 15.9297 74.9473 15.9297H77.2634C77.4077 15.9297 77.5304 15.98 77.6314 16.0809C77.7324 16.1816 77.7829 16.304 77.7829 16.448V26.6198C77.7829 26.7782 77.7324 26.9077 77.6314 27.0086C77.5304 27.1093 77.4005 27.1597 77.2418 27.1597H74.6875C74.5288 27.1597 74.3989 27.1093 74.2978 27.0086C74.1968 26.9077 74.1463 26.7782 74.1463 26.6198V18.9747L75.1421 19.1691L69.7522 26.8142C69.6945 26.9149 69.6151 27.0013 69.5141 27.0733C69.4131 27.1309 69.2904 27.1597 69.146 27.1597H66.8516Z" fill="white"/>
<path d="M81.5411 27.1597C81.3824 27.1597 81.2525 27.1093 81.1515 27.0086C81.0505 26.9077 81 26.7782 81 26.6198V16.4696C81 16.3112 81.0505 16.1816 81.1515 16.0809C81.2525 15.98 81.3824 15.9297 81.5411 15.9297H84.0954C84.2397 15.9297 84.3624 15.98 84.4634 16.0809C84.5789 16.1816 84.6366 16.3112 84.6366 16.4696V20.0545H88.5331V16.4696C88.5331 16.3112 88.583 16.1816 88.6845 16.0809C88.7852 15.98 88.9152 15.9297 89.0738 15.9297H91.6284C91.7727 15.9297 91.8956 15.98 91.9963 16.0809C92.112 16.1816 92.1691 16.3112 92.1691 16.4696V26.6198C92.1691 26.7782 92.112 26.9077 91.9963 27.0086C91.8956 27.1093 91.7727 27.1597 91.6284 27.1597H89.0738C88.9152 27.1597 88.7852 27.1093 88.6845 27.0086C88.583 26.9077 88.5331 26.7782 88.5331 26.6198V22.8836H84.6366V26.6198C84.6366 26.7782 84.5789 26.9077 84.4634 27.0086C84.3624 27.1093 84.2397 27.1597 84.0954 27.1597H81.5411Z" fill="white"/>
<path d="M95.7772 27.6668C95.6195 27.6668 95.4904 27.6157 95.3897 27.5135C95.2891 27.4113 95.2383 27.2799 95.2383 27.1193V12.8811C95.2383 12.7205 95.2891 12.589 95.3897 12.4868C95.4904 12.3846 95.6195 12.3335 95.7772 12.3335H98.5572C98.7157 12.3335 98.8449 12.3846 98.9455 12.4868C99.0462 12.589 99.096 12.7205 99.096 12.8811V18.1602H100.411L103.6 12.7497C103.672 12.6329 103.772 12.5379 103.902 12.4649C104.031 12.3773 104.196 12.3335 104.398 12.3335H107.501C107.644 12.3335 107.759 12.3846 107.846 12.4868C107.932 12.5744 107.975 12.6767 107.975 12.7935C107.975 12.8811 107.946 12.9687 107.888 13.0564L103.88 19.7154L108.277 26.9221C108.32 26.9804 108.341 27.0608 108.341 27.163C108.341 27.309 108.291 27.4332 108.19 27.5354C108.104 27.623 107.989 27.6668 107.846 27.6668H104.656C104.426 27.6668 104.253 27.6157 104.138 27.5135C104.039 27.4113 103.959 27.3236 103.902 27.2507L100.561 21.6649H99.096V27.1193C99.096 27.2799 99.0462 27.4113 98.9455 27.5135C98.8449 27.6157 98.7157 27.6668 98.5572 27.6668H95.7772Z" fill="#9F9F9F"/>
<path d="M112.182 27.9869C112.038 27.9869 111.916 27.9358 111.815 27.8336C111.715 27.7314 111.664 27.6072 111.664 27.4612V17.1441C111.664 16.9835 111.715 16.8521 111.815 16.7498C111.916 16.6476 112.045 16.5964 112.203 16.5964H114.746C114.889 16.5964 115.011 16.6476 115.112 16.7498C115.227 16.8521 115.285 16.9835 115.285 17.1441V25.1394L114.315 24.6574L119.638 16.9469C119.71 16.8447 119.796 16.7644 119.896 16.706C119.997 16.633 120.112 16.5964 120.242 16.5964H122.547C122.691 16.5964 122.813 16.6476 122.914 16.7498C123.014 16.8521 123.065 16.9762 123.065 17.1222V27.4394C123.065 27.6 123.014 27.7314 122.914 27.8336C122.813 27.9358 122.684 27.9869 122.526 27.9869H119.983C119.825 27.9869 119.696 27.9358 119.595 27.8336C119.494 27.7314 119.444 27.6 119.444 27.4394V19.685L120.435 19.8822L115.069 27.6364C115.011 27.7387 114.933 27.8263 114.832 27.8994C114.732 27.9577 114.61 27.9869 114.466 27.9869H112.182Z" fill="#9F9F9F"/>
<path d="M130.017 27.9869C129.874 27.9869 129.744 27.9358 129.63 27.8336C129.529 27.7314 129.478 27.6 129.478 27.4394V19.466H126.203C126.06 19.466 125.929 19.4149 125.815 19.3127C125.714 19.2104 125.664 19.079 125.664 18.9184V17.1441C125.664 16.9835 125.714 16.8521 125.815 16.7498C125.929 16.6476 126.06 16.5964 126.203 16.5964H136.331C136.475 16.5964 136.597 16.6476 136.698 16.7498C136.812 16.8521 136.87 16.9835 136.87 17.1441V18.9184C136.87 19.079 136.812 19.2104 136.698 19.3127C136.597 19.4149 136.475 19.466 136.331 19.466H133.055V27.4394C133.055 27.6 133.005 27.7314 132.905 27.8336C132.804 27.9358 132.675 27.9869 132.517 27.9869H130.017Z" fill="#9F9F9F"/>
</g>
<defs>
<clipPath id="clip0_6795_158139">
<rect width="136.667" height="40" fill="white" transform="translate(0.332031)"/>
</clipPath>
</defs>
</svg>
