<svg width="176" height="40" viewBox="0 0 176 40" fill="none" xmlns="http://www.w3.org/2000/svg">
<path d="M57.8071 31.6108C51.9537 31.6108 47.1914 26.8542 47.1914 21.0077C47.1914 15.1612 51.9537 10.4045 57.8071 10.4045C61.492 10.4045 64.8614 12.2688 66.8171 15.3943L65.0741 16.484C63.4958 13.9618 60.7853 12.4607 57.814 12.4607C53.0997 12.4607 49.2569 16.2921 49.2569 21.0077C49.2569 25.7233 53.0928 29.5546 57.814 29.5546C60.8127 29.5546 63.5438 28.0262 65.1152 25.4697L66.8719 26.5457C64.9231 29.7191 61.5401 31.6108 57.8208 31.6108H57.8071Z" fill="#7C7C7C"/>
<path d="M78.0766 31.6108C72.2232 31.6108 67.4609 26.8542 67.4609 21.0077C67.4609 15.1612 72.2232 10.4045 78.0766 10.4045C83.93 10.4045 88.6923 15.1612 88.6923 21.0077C88.6923 26.8542 83.93 31.6108 78.0766 31.6108ZM78.0766 12.4676C73.3623 12.4676 69.5196 16.299 69.5196 21.0145C69.5196 25.7301 73.3555 29.5615 78.0766 29.5615C82.7977 29.5615 86.6337 25.7301 86.6337 21.0145C86.6337 16.299 82.7977 12.4676 78.0766 12.4676Z" fill="white"/>
<path d="M20.0236 40C8.9825 40 0 31.0281 0 20C0 8.9719 8.9825 0 20.0236 0C29.3767 0 37.3985 6.34682 39.5189 15.4352L37.5152 15.9013C35.6075 7.75189 28.416 2.0562 20.0236 2.0562C10.1147 2.0562 2.05863 10.1028 2.05863 20C2.05863 29.8972 10.1147 37.9438 20.0236 37.9438C29.9325 37.9438 37.4946 30.4592 37.968 20.8979L40.0267 21.0007C39.4983 31.6518 30.7148 40 20.0305 40H20.0236Z" fill="#7C7C7C"/>
<path d="M165.381 31.22C159.528 31.22 154.766 26.4633 154.766 20.6168C154.766 14.7704 159.528 10.0137 165.381 10.0137C171.235 10.0137 175.997 14.7704 175.997 20.6168C175.997 26.4633 171.235 31.22 165.381 31.22ZM165.381 12.0767C160.667 12.0767 156.824 15.9081 156.824 20.6237C156.824 25.3392 160.66 29.1706 165.381 29.1706C170.102 29.1706 173.938 25.3392 173.938 20.6237C173.938 15.9081 170.102 12.0767 165.381 12.0767Z" fill="white"/>
<path d="M142.359 31.6108H135.655V12.9268L137.714 14.9076V29.5546H142.359C147.074 29.5546 150.916 25.7233 150.916 21.0077C150.916 16.2921 147.08 12.4607 142.359 12.4607H137.48L135.477 10.4045H142.352C148.206 10.4045 152.968 15.1612 152.968 21.0077C152.968 26.8542 148.206 31.6108 142.352 31.6108H142.359Z" fill="#7C7C7C"/>
<path d="M93.4883 10.7197H91.4297V30.8979H93.4883V10.7197Z" fill="white"/>
<path d="M112.767 30.5965L100.195 13.811V30.5828H98.1367V10.103H99.9964L113.007 27.4916V10.4183H115.066V30.5828L112.767 30.5965Z" fill="white"/>
<path d="M125.921 31.2202C125.866 31.2202 125.818 31.2202 125.763 31.2202C121.481 31.1653 118.62 28.9789 117.906 25.2298L119.931 24.8459C120.603 28.362 123.492 29.1365 125.798 29.164C127.541 29.1914 128.927 28.7459 129.798 27.8891C130.478 27.2243 130.821 26.3264 130.821 25.2366C130.821 23.0365 129.99 21.8439 125.619 21.8439C119.766 21.8439 118.888 18.3141 118.888 16.203C118.888 13.9618 120.761 10.4045 125.791 10.4045C127.849 10.4045 129.455 11.0145 130.581 12.2208C132.324 14.092 132.159 16.6965 132.152 16.8062L130.1 16.6623L131.13 16.7376L130.1 16.6691C130.1 16.6691 130.203 14.8254 129.064 13.6191C128.344 12.8583 127.246 12.4676 125.791 12.4676C121.818 12.4676 120.946 15.1681 120.946 16.2099C120.946 17.7452 121.433 19.7945 125.619 19.7945C128.995 19.7945 132.879 20.4114 132.879 25.2435C132.879 26.8816 132.317 28.3072 131.246 29.3627C130.004 30.5827 128.172 31.227 125.928 31.227L125.921 31.2202Z" fill="white"/>
<path d="M19.8063 34.6746C12.7589 34.6746 6.13011 29.2188 5.21059 22.5772C4.51065 17.5121 5.14198 13.6739 10.4327 9.05426C13.8637 6.05906 16.3752 6.19614 17.8712 6.83356C18.8456 7.25166 19.6691 8.22493 19.9779 9.32157C20.2249 10.1989 20.1082 11.0419 19.6485 11.6862C19.2436 12.2551 18.5574 12.6937 17.7614 13.2009C17.3085 13.4888 16.7938 13.8178 16.2929 14.1948C13.6441 16.1961 12.1825 17.2928 12.2305 21.1036C12.258 23.1941 13.3696 24.702 14.296 25.5998C15.7645 27.0186 17.8369 27.9097 19.5455 27.8891C23.8412 27.8137 27.8693 24.5101 27.9928 20.9665C28.0751 18.4854 28.0408 15.3325 28.0065 12.8034C27.9928 11.6931 27.9791 10.6992 27.9791 9.93158C27.9791 9.16393 27.7595 8.31403 26.1057 8.31403C24.8705 8.31403 24.102 9.24617 24.102 10.1098V20.1235C24.102 20.3017 24.1157 22.118 22.8943 23.3723C22.1943 24.0851 21.2336 24.4621 20.1014 24.4621C17.1781 24.4621 15.7508 22.4813 15.641 20.521C15.5792 19.4244 15.9841 18.3826 16.8075 17.5121C17.384 16.8952 18.3515 16.2373 19.1064 16.2373C19.6759 16.2373 20.1357 16.6965 20.1357 17.2654C20.1357 17.8342 19.7171 18.2455 19.1887 18.2935C18.873 18.3963 17.6241 19.1913 17.6928 20.4045C17.7202 20.8774 17.9741 22.4059 20.1014 22.4059C20.6778 22.4059 21.1101 22.2551 21.4189 21.9329C22.0433 21.2955 22.0433 20.1578 22.0433 20.144V10.1029C22.0433 7.97818 23.8618 6.25098 26.1057 6.25098C28.5692 6.25098 30.0377 7.62178 30.0377 9.92473C30.0377 10.6924 30.0514 11.6725 30.0651 12.776C30.0995 15.3257 30.1338 18.5059 30.0514 21.0351C29.8936 25.6821 25.0009 29.8425 19.5867 29.9384C17.2948 29.9933 14.7352 28.8829 12.8687 27.0735C11.16 25.4216 10.2062 23.3106 10.1787 21.131C10.117 16.2852 12.2992 14.6403 15.0577 12.5567C15.6273 12.1317 16.1762 11.7753 16.6566 11.4669C17.2193 11.1105 17.7957 10.7404 17.9672 10.4936C18.0976 10.3086 18.029 9.99326 17.9947 9.86989C17.8575 9.3764 17.4526 8.88291 17.0546 8.71156C15.6822 8.12212 13.8637 8.77325 11.7845 10.5896C6.69968 15.031 6.70653 18.3757 7.24863 22.2825C8.04464 28.0604 13.9666 32.7897 20.1425 32.5978C30.9435 32.2825 32.7345 21.3024 32.8031 20.8363C32.8855 20.2743 33.4139 19.8904 33.9766 19.9727C34.5393 20.0549 34.9235 20.5759 34.8412 21.1379C34.8206 21.2681 32.7482 34.277 20.2043 34.6471C20.0739 34.6471 19.9367 34.6471 19.8063 34.6471V34.6746Z" fill="white"/>
</svg>
