<svg width="156" height="40" viewBox="0 0 156 40" fill="none" xmlns="http://www.w3.org/2000/svg">
<path d="M71.5917 14.72L71.582 14.7264V14.72H71.5917Z" fill="white"/>
<path d="M91.3121 4.93467C90.9926 4.7733 90.7183 4.53771 90.5117 4.25047L90.5698 4.19238L91.3121 4.93467Z" fill="white"/>
<path d="M97.287 5.38647L97.2773 5.39294V5.38647H97.287Z" fill="white"/>
<path d="M74.0331 15.6785L74.0234 15.6881V15.6785H74.0331Z" fill="white"/>
<path d="M81.8424 11.2281H81.8359L81.8392 11.2249L81.8424 11.2281Z" fill="white"/>
<path d="M95.5262 16.8921L94.5354 17.8829L94.1094 17.4569C94.3547 17.047 94.7258 16.7242 95.1712 16.5403L95.5262 16.8953V16.8921Z" fill="white"/>
<path d="M97.2923 5.38653H97.2891V5.3833L97.2923 5.38653Z" fill="white"/>
<path d="M110.308 16.6243V16.6275H110.305L110.308 16.6243Z" fill="white"/>
<path d="M117.569 9.36263L117.549 9.38199C117.123 9.16576 116.775 8.82043 116.559 8.39119L116.578 8.37183L117.569 9.36263Z" fill="white"/>
<path d="M9.80286 33.0901V35.9883C9.80286 38.7799 7.98585 39.9224 4.97149 39.9224H4.9134C1.90227 39.9224 0.0820312 38.8057 0.0820312 35.9883V24.8248C0.0820312 22.1396 1.89904 20.8906 4.9134 20.8906H4.97149C7.98263 20.8906 9.80286 22.1396 9.80286 24.8248V27.2711C9.80286 27.8295 9.48981 28.149 8.8637 28.149H8.06654C7.46947 28.149 7.12737 27.8295 7.12737 27.2711V25.3057C7.12737 23.6855 6.3883 23.1014 4.93922 23.1014C3.49013 23.1014 2.75106 23.6855 2.75106 25.3057V35.5106C2.75106 37.1307 3.49013 37.7149 4.93922 37.7149C6.3883 37.7149 7.12737 37.1307 7.12737 35.5106V33.0933C7.12737 32.535 7.46947 32.2155 8.06654 32.2155H8.8637C9.48981 32.2155 9.80286 32.535 9.80286 33.0933V33.0901Z" fill="white"/>
<path d="M22.1101 39.7095H21.3129C20.7739 39.7095 20.4318 39.4965 20.2608 38.993L17.7596 32.0832H15.4294V38.8349C15.4294 39.3932 15.0873 39.7127 14.4902 39.7127H13.6931C13.067 39.7127 12.7539 39.3932 12.7539 38.8349V21.9848C12.7539 21.4264 13.067 21.1069 13.6931 21.1069H17.7273C20.7384 21.1069 22.5587 22.3043 22.5587 25.0411V28.1491C22.5587 30.008 21.7066 31.1505 20.2285 31.7088L22.9008 38.6993C23.1008 39.2835 22.7878 39.7095 22.1036 39.7095H22.1101ZM15.4326 29.9015H17.6208C19.0989 29.9015 19.8929 29.3432 19.8929 27.6972V25.5188C19.8929 23.8696 19.0957 23.3145 17.6208 23.3145H15.4326V29.9048V29.9015Z" fill="white"/>
<path d="M30.7443 38.8317C30.7443 39.39 30.4022 39.7095 29.8052 39.7095H29.008C28.4109 39.7095 28.0688 39.39 28.0688 38.8317V32.8514L24.2605 22.0881C24.0346 21.5039 24.3445 21.1038 25.0287 21.1038H25.8807C26.4487 21.1038 26.7908 21.3426 26.9328 21.8751L29.434 30.0855L31.9352 21.8751C32.0772 21.3426 32.4193 21.1038 32.9583 21.1038H33.7813C34.4622 21.1038 34.7753 21.5039 34.5494 22.0881L30.7411 32.8514V38.8317H30.7443Z" fill="white"/>
<path d="M41.8523 21.0715H37.8181C37.192 21.0715 36.8789 21.391 36.8789 21.9494V38.7995C36.8789 39.3578 37.192 39.6773 37.8181 39.6773H38.612C39.2091 39.6773 39.5512 39.3578 39.5512 38.7995V23.2791H41.7393C43.2175 23.2791 44.0114 23.8374 44.0114 25.4833V27.849C44.0114 29.4691 43.2175 30.0275 41.7393 30.0275C41.2391 30.0275 40.8324 30.4341 40.8324 30.9344V31.3539C40.8324 31.8542 41.2391 32.2608 41.7393 32.2608H41.8523C44.8634 32.2608 46.6837 31.0635 46.6837 28.3267V25.0057C46.6837 22.2689 44.8666 21.0715 41.8523 21.0715Z" fill="white"/>
<path d="M57.2823 21.9816V22.4334C57.2823 23.0176 56.9692 23.3113 56.3431 23.3113H53.8129V38.8317C53.8129 39.39 53.4708 39.7095 52.8737 39.7095H52.0766C51.4795 39.7095 51.1374 39.39 51.1374 38.8317V23.3113H48.6071C48.0101 23.3113 47.668 23.0176 47.668 22.4334V21.9816C47.668 21.4233 48.0101 21.1038 48.6071 21.1038H56.3367C56.9628 21.1038 57.2759 21.4233 57.2759 21.9816H57.2823Z" fill="white"/>
<path d="M63.7337 20.894H63.9596C66.9708 20.894 68.791 22.0914 68.791 24.8282V35.9917C68.791 38.7285 66.974 39.9258 63.9596 39.9258H63.7337C60.7226 39.9258 58.9023 38.7285 58.9023 35.9917V24.8282C58.9023 22.0656 60.7194 20.894 63.7337 20.894ZM63.8467 37.7151C65.3248 37.7151 66.1187 37.1568 66.1187 35.5108V25.3058C66.1187 23.6567 65.3216 23.1016 63.8467 23.1016C62.3718 23.1016 61.5746 23.6599 61.5746 25.3058V35.5108C61.5746 37.16 62.3718 37.7151 63.8467 37.7151Z" fill="white"/>
<path d="M95.0101 38.6316L92.3379 31.6669C93.816 31.1118 94.668 29.9726 94.668 28.1201V25.0218C94.668 22.2947 92.851 21.1038 89.8366 21.1038H85.8024C85.1763 21.1038 84.8633 21.42 84.8633 21.9784V38.7639C84.8633 39.319 85.1763 39.6385 85.8024 39.6385H86.5964C87.1934 39.6385 87.5355 39.3222 87.5355 38.7639V32.0381H89.8657L92.3669 38.9221C92.538 39.4255 92.8768 39.6385 93.419 39.6385H94.213C94.8939 39.6385 95.207 39.2157 95.0069 38.6316H95.0101ZM91.999 27.6715C91.999 29.3142 91.2051 29.8693 89.7269 29.8693H87.5388V23.3016H89.7269C91.2051 23.3016 91.999 23.8567 91.999 25.4994V27.6715Z" fill="white"/>
<path d="M102.19 20.894H101.964C98.9531 20.894 97.1328 22.0591 97.1328 24.8121V35.9336C97.1328 38.6607 98.9498 39.8516 101.964 39.8516H102.19C105.201 39.8516 107.021 38.6607 107.021 35.9336V24.8121C107.021 22.0849 105.204 20.894 102.19 20.894ZM104.349 35.4559C104.349 37.0986 103.555 37.6538 102.077 37.6538C100.599 37.6538 99.8051 37.0986 99.8051 35.4559V25.2897C99.8051 23.647 100.599 23.0919 102.077 23.0919C103.555 23.0919 104.349 23.647 104.349 25.2897V35.4559Z" fill="white"/>
<path d="M120.528 38.751L116.83 30.5567C116.617 30.0823 116.617 29.5368 116.836 29.0624L119.96 22.2559C120.302 21.675 120.015 21.2231 119.279 21.2231H118.34C117.83 21.2231 117.459 21.4361 117.259 21.8848L114.335 29.1366C114.241 29.3722 114.19 29.624 114.19 29.8789V30.3179C114.19 30.5438 114.238 30.7697 114.328 30.9762L117.885 39.0382C118.056 39.5417 118.395 39.7547 118.937 39.7547H119.731C120.412 39.7547 120.725 39.3319 120.525 38.7477L120.528 38.751ZM112.089 21.2231H111.291C110.665 21.2231 110.355 21.5394 110.355 22.0978V38.8833C110.355 39.4384 110.669 39.7579 111.291 39.7579H112.089C112.686 39.7579 113.028 39.4416 113.028 38.8833V22.0978C113.028 21.5427 112.686 21.2231 112.089 21.2231Z" fill="white"/>
<path d="M130.103 37.4408H125.243V31.3508H129.135C129.761 31.3508 130.074 31.0312 130.074 30.4761V29.9985C130.074 29.4434 129.761 29.1239 129.135 29.1239H125.243V23.2985H130.016C130.642 23.2985 130.955 23.008 130.955 22.4239V21.972C130.955 21.4169 130.642 21.0974 130.016 21.0974H123.509C122.883 21.0974 122.57 21.4137 122.57 21.972V38.7576C122.57 39.3127 122.883 39.6322 123.509 39.6322H130.103C130.729 39.6322 131.042 39.3159 131.042 38.7576V38.309C131.042 37.728 130.729 37.4343 130.103 37.4343V37.4408Z" fill="white"/>
<path d="M143.541 38.6316L140.869 31.6669C142.347 31.1118 143.199 29.9726 143.199 28.1201V25.0218C143.199 22.2947 141.382 21.1038 138.368 21.1038H134.334C133.708 21.1038 133.395 21.42 133.395 21.9784V38.7639C133.395 39.319 133.708 39.6385 134.334 39.6385H135.128C135.725 39.6385 136.067 39.3222 136.067 38.7639V32.0381H138.397L140.898 38.9221C141.069 39.4255 141.408 39.6385 141.95 39.6385H142.744C143.425 39.6385 143.738 39.2157 143.538 38.6316H143.541ZM140.53 27.6715C140.53 29.3142 139.736 29.8693 138.258 29.8693H136.07V23.3016H138.258C139.736 23.3016 140.53 23.8567 140.53 25.4994V27.6715Z" fill="white"/>
<path d="M152.465 29.8435L149.88 28.5203C148.744 27.9103 148.318 27.5133 148.318 26.4031V25.1315C148.318 23.6502 149.086 23.066 150.448 23.066C151.81 23.066 152.578 23.6502 152.578 25.1315V26.7743C152.578 27.3294 152.891 27.6489 153.517 27.6489H154.256C154.882 27.6489 155.195 27.3294 155.195 26.7743V24.7087C155.195 22.0332 153.207 20.8972 150.48 20.8972H150.422C147.695 20.8972 145.707 22.0365 145.707 24.7087V27.0389C145.707 28.814 146.672 29.6079 148.492 30.5858L151.048 31.909C152.213 32.519 152.639 32.9934 152.639 34.1068V35.5624C152.639 37.0179 151.871 37.6795 150.48 37.6795C149.089 37.6795 148.321 37.0179 148.321 35.5624V33.7099C148.321 33.1548 148.008 32.8352 147.382 32.8352H146.643C146.017 32.8352 145.707 33.1515 145.707 33.7099V35.9884C145.707 38.7962 147.44 39.8548 150.451 39.8548H150.509C153.52 39.8548 155.254 38.7704 155.254 35.9884V33.4194C155.254 31.6443 154.172 30.7439 152.468 29.8467L152.465 29.8435Z" fill="white"/>
<path d="M92.316 3.67277C92.717 3.67277 93.0422 3.34766 93.0422 2.94662C93.0422 2.54557 92.717 2.22046 92.316 2.22046C91.915 2.22046 91.5898 2.54557 91.5898 2.94662C91.5898 3.34766 91.915 3.67277 92.316 3.67277Z" fill="#D9D9D9"/>
<path d="M107.898 11.4152C108.299 11.4152 108.624 11.0901 108.624 10.689C108.624 10.288 108.299 9.96289 107.898 9.96289C107.497 9.96289 107.172 10.288 107.172 10.689C107.172 11.0901 107.497 11.4152 107.898 11.4152Z" fill="#D9D9D9"/>
<path d="M118.546 8.11369C118.948 8.11369 119.273 7.78858 119.273 7.38753C119.273 6.98649 118.948 6.66138 118.546 6.66138C118.145 6.66138 117.82 6.98649 117.82 7.38753C117.82 7.78858 118.145 8.11369 118.546 8.11369Z" fill="#D9D9D9"/>
<path d="M96.0191 19.3256C96.4202 19.3256 96.7453 19.0005 96.7453 18.5994C96.7453 18.1984 96.4202 17.8733 96.0191 17.8733C95.6181 17.8733 95.293 18.1984 95.293 18.5994C95.293 19.0005 95.6181 19.3256 96.0191 19.3256Z" fill="#D9D9D9"/>
<path d="M118.549 4.44086C116.923 4.44086 115.599 5.76408 115.599 7.39067C115.599 7.84896 115.709 8.30725 115.912 8.71389C115.948 8.7849 115.987 8.85268 116.025 8.92045L109.719 15.2299H103.636L99.6369 11.2312L99.6304 11.2377V11.2312H81.8315L76.5095 16.5532L76.5192 16.5629H76.5095V20.1097H75.4219V16.2724L81.4022 10.2921H94.3633L97.865 6.79039H103.164L105.44 9.06568C105.13 9.53364 104.949 10.092 104.949 10.6955C104.949 12.3221 106.272 13.6453 107.899 13.6453C109.526 13.6453 110.849 12.3221 110.849 10.6955C110.849 9.06891 109.526 7.74568 107.899 7.74568C107.376 7.74568 106.886 7.88124 106.46 8.12329L106.469 8.11361L103.749 5.39294H97.2873L97.2809 5.39939L93.7856 8.89463H80.8019V8.91722L74.0341 15.685L74.0245 15.6947V20.113H72.982V15.3171L80.3727 7.92641H88.8316V7.90383L88.8381 7.91028L91.1069 5.64144C91.4845 5.80927 91.8976 5.89963 92.314 5.89963C93.9405 5.89963 95.2638 4.57641 95.2638 2.94982C95.2638 1.32323 93.9405 0 92.314 0C90.6874 0 89.3642 1.32323 89.3642 2.94982C89.3642 3.57593 89.5578 4.17299 89.9225 4.67968C89.9451 4.70873 89.9677 4.741 89.9935 4.77005L88.241 6.52252H79.7918L71.5781 14.7329V22.8465H71.6362V39.0608C71.6362 39.6579 71.9493 40 72.5754 40H76.6096C79.6207 40 81.3829 38.4928 81.3829 36.0787V32.8126C81.3829 31.3636 80.8439 29.9435 79.0527 29.6595C80.7277 29.4594 81.2699 27.8974 81.2699 26.5354V24.0342C81.2699 23.0402 81.002 22.2011 80.476 21.5588V18.1088L83.4936 15.0912H91.7298L93.5823 16.9437C93.5468 16.9921 93.5145 17.0437 93.4855 17.0954C93.2112 17.5504 93.0659 18.0765 93.0659 18.609C93.0659 20.2356 94.3892 21.5588 96.0158 21.5588C97.6423 21.5588 98.9656 20.2356 98.9656 18.609C98.9656 16.9824 97.6423 15.6592 96.0158 15.6592C95.6252 15.6592 95.2476 15.7334 94.8926 15.8819C94.8023 15.9206 94.7151 15.9626 94.628 16.0077L92.3107 13.6905H82.9126L79.0979 17.5053L79.1076 17.5149H79.0721V20.539C78.7235 20.3937 78.3362 20.284 77.907 20.2098V17.1373L82.4092 12.6351H98.872L102.816 16.6403L103.061 16.6339H110.297L117.013 9.91447C117.081 9.9532 117.149 9.99193 117.216 10.0274C117.623 10.234 118.081 10.3405 118.543 10.3405C120.169 10.3405 121.493 9.01726 121.493 7.39067C121.493 5.76408 120.169 4.44086 118.543 4.44086H118.549ZM107.899 9.18187C108.732 9.18187 109.406 9.85961 109.406 10.689C109.406 11.5185 108.732 12.1962 107.899 12.1962C107.066 12.1962 106.392 11.5185 106.392 10.689C106.392 9.85961 107.069 9.18187 107.899 9.18187ZM92.3172 1.43941C93.1498 1.43941 93.8244 2.11393 93.8244 2.94659C93.8244 3.77925 93.1498 4.45377 92.3172 4.45377C92.0784 4.45377 91.8492 4.39891 91.6362 4.29241C91.4232 4.1859 91.236 4.02453 91.094 3.83088C90.9068 3.57269 90.8068 3.26933 90.8068 2.94659C90.8068 2.11393 91.4813 1.43941 92.314 1.43941H92.3172ZM94.7216 17.8248C94.8894 17.5472 95.1444 17.3277 95.4413 17.2019C95.622 17.1276 95.8157 17.0889 96.0158 17.0889C96.8484 17.0889 97.5229 17.7634 97.5229 18.5961C97.5229 19.4288 96.8484 20.1033 96.0158 20.1033C95.1831 20.1033 94.5086 19.4255 94.5086 18.5961C94.5086 18.325 94.5828 18.0571 94.7216 17.8215V17.8248ZM78.7138 35.6205C78.7138 37.0115 78.0587 37.6666 76.7258 37.6666H74.3117V30.8472H76.7258C78.0038 30.8472 78.7138 31.4152 78.7138 32.6384V35.6205ZM78.6009 24.4828V26.7839C78.6009 28.0071 77.8909 28.5751 76.6128 28.5751H74.3117V22.4367H76.6128C77.1615 22.4367 77.5939 22.5464 77.9134 22.7723C78.375 23.0983 78.6009 23.6631 78.6009 24.4828ZM118.549 8.89786C118.31 8.89786 118.084 8.84299 117.871 8.73649C117.584 8.59126 117.345 8.35244 117.2 8.0652C117.094 7.85542 117.042 7.62628 117.042 7.38745C117.042 6.55479 117.717 5.88026 118.549 5.88026C119.382 5.88026 120.056 6.55479 120.056 7.38745C120.056 8.22011 119.382 8.89463 118.549 8.89463V8.89786Z" fill="#8E8E8E"/>
</svg>
