<svg width="98" height="40" viewBox="0 0 98 40" fill="none" xmlns="http://www.w3.org/2000/svg">
<path fill-rule="evenodd" clip-rule="evenodd" d="M23.8321 14.073C24.8354 14.1365 25.8388 13.9278 26.7303 13.4621C27.6219 12.9995 28.3714 12.298 28.8973 11.4423C29.5803 10.4716 29.9067 9.29238 29.819 8.10707C29.7465 7.43276 29.5259 7.19991 29.1602 7.40553C28.2414 7.91655 27.2199 8.22497 26.1712 8.30963C25.053 8.45478 23.9227 8.50618 22.7955 8.46385C21.8193 8.41245 20.3112 8.29454 18.2773 8.11312C16.2403 7.92867 14.832 7.81676 14.0462 7.77745C13.4841 7.73512 12.9582 7.71093 12.4717 7.70185C11.9851 7.69278 11.163 7.72303 10.0055 7.79258C8.96591 7.84701 7.93232 7.9861 6.91384 8.20684C5.91048 8.44571 4.94036 8.79949 4.01859 9.26213C3.07869 9.69755 2.24154 10.3265 1.56457 11.1096C0.63374 12.1438 0.0897372 13.4682 0.0262712 14.8591C-0.0492835 15.5002 0.0383648 16.1503 0.286184 16.746C0.530982 17.3416 0.923866 17.8678 1.42857 18.2699C2.2355 18.8989 3.23281 19.2345 4.25734 19.2194C5.20328 19.2436 6.14621 19.0652 7.01962 18.6993C7.6845 18.4211 8.29498 18.028 8.82084 17.5352C9.08982 17.2872 9.31347 16.9909 9.47969 16.6643C9.522 16.5948 9.54617 16.5161 9.54617 16.4345C9.54617 16.3529 9.52502 16.2742 9.47969 16.2047C9.34067 16.0656 9.19258 15.9386 9.0324 15.8237C8.83596 15.6786 8.67276 15.4911 8.55792 15.2734C8.35845 14.971 8.28894 14.6021 8.35845 14.2483C8.41889 13.7554 8.57303 13.2747 8.8148 12.8423C9.12307 12.3131 9.58546 11.8868 10.1385 11.6177C10.8306 11.2669 11.6073 11.1127 12.381 11.1701H12.4112L8.67276 22.8903C7.94744 25.1551 8.01997 27.0782 8.88432 28.6596C9.75169 30.241 11.4169 31.0937 13.88 31.2147C15.0889 31.2782 16.3008 31.124 17.4552 30.7551C18.4979 30.4437 19.4801 29.9508 20.3535 29.3007C21.0426 28.7806 21.6833 28.197 22.2635 27.5559C22.6836 27.1024 23.0403 26.5944 23.3213 26.041C23.4059 25.9322 23.4634 25.8052 23.4936 25.6691C23.5238 25.533 23.5208 25.3939 23.4906 25.2609C23.409 25.1067 23.1944 25.1218 22.8529 25.3063C21.7226 25.9019 20.4895 26.286 19.2202 26.4372C18.1262 26.6367 16.9959 26.4644 16.0106 25.9473C15.1765 25.4575 14.9317 24.641 15.2762 23.4981C15.2793 23.4769 15.515 22.7421 15.9774 21.2937H21.0244C21.0728 21.3028 21.1212 21.2907 21.1635 21.2605C21.2028 21.2332 21.23 21.1879 21.239 21.1395L22.2303 18.0794L22.2424 18.016L22.1064 17.9252H17.0593C17.1923 17.5594 17.4522 16.7671 17.8391 15.5546C18.2259 14.3421 18.4979 13.4894 18.6551 12.9995C20.3263 13.5831 22.0671 13.946 23.8351 14.073H23.8321ZM35.1562 21.6626C35.1562 21.6626 35.1562 21.6324 35.1562 21.6172C35.1532 21.6021 35.1471 21.59 35.1381 21.5779C35.129 21.5658 35.1169 21.5568 35.1048 21.5507C35.0927 21.5447 35.0776 21.5416 35.0625 21.5386H25.9748C25.9264 21.5386 25.8811 21.5507 25.8418 21.5779C25.8025 21.6051 25.7753 21.6445 25.7602 21.6898L24.914 24.3205L25.0409 24.4415H34.1559C34.1861 24.4475 34.2193 24.4415 34.2435 24.4233C34.2707 24.4052 34.2888 24.381 34.2949 24.3477L35.1562 21.6535V21.6626ZM60.3885 24.508L61.8935 19.7334C62.3861 18.2457 62.371 17.0332 61.8512 16.0928C61.6034 15.6392 61.2317 15.2643 60.7783 15.0133C60.325 14.7654 59.8112 14.6505 59.2944 14.6838C58.2276 14.7261 57.185 15.0315 56.2632 15.5697C55.0452 16.2621 53.9814 17.1995 53.1443 18.3244C53.2259 17.8617 53.2108 17.387 53.102 16.9274C52.9932 16.4708 52.7937 16.0384 52.5126 15.6604C52.2346 15.3339 51.8871 15.0738 51.4911 14.9045C51.0983 14.7352 50.6691 14.6596 50.24 14.6807C49.1913 14.7231 48.1698 15.0164 47.2601 15.5364C46.0603 16.2017 45.0085 17.1088 44.1744 18.1974C44.2621 17.7468 44.256 17.2842 44.1472 16.8367C44.0415 16.3892 43.839 15.9719 43.5579 15.612C43.2466 15.2855 42.8658 15.0345 42.4457 14.8743C42.0256 14.714 41.5723 14.6475 41.125 14.6807C40.2335 14.7019 39.3571 14.9378 38.5773 15.3702C37.852 15.6967 37.2234 16.2077 36.761 16.8548C36.7338 16.882 36.7126 16.9123 36.6975 16.9486C36.6824 16.9848 36.6794 17.0211 36.6824 17.0604C36.6824 17.0997 36.6975 17.136 36.7157 17.1693C36.7338 17.2026 36.761 17.2298 36.7912 17.254C36.9242 17.3568 37.0904 17.4928 37.2929 17.6682C37.4168 17.8345 37.5075 18.025 37.5558 18.2276C37.6072 18.4302 37.6163 18.6389 37.583 18.8445C37.5196 19.7516 37.3413 20.6466 37.0511 21.5054C36.6159 22.9114 35.5884 25.9413 33.9745 30.5948L33.9624 30.6583L34.032 30.746H40.1791C40.2244 30.7249 40.2637 30.7007 40.3 30.6704C40.3332 30.6432 40.3544 30.6039 40.3634 30.5646L42.9625 22.3641C43.2345 21.5084 43.6607 20.7101 44.2137 20.0056C44.8967 19.2103 45.4951 18.8626 46.0059 18.9654C46.5771 19.0682 46.6859 19.6578 46.3353 20.7403C46.0331 21.7805 45.8094 22.5062 45.6704 22.9114C45.2292 24.2389 44.4283 26.797 43.2647 30.5918C43.2587 30.5918 43.2527 30.5979 43.2496 30.6039C43.2466 30.61 43.2436 30.616 43.2406 30.622C43.2406 30.6281 43.2406 30.6342 43.2406 30.6402C43.2406 30.6462 43.2466 30.6523 43.2496 30.6553L43.3282 30.746H49.4784C49.5237 30.7249 49.563 30.7007 49.5993 30.6704C49.6325 30.6432 49.6537 30.6039 49.6627 30.5646L51.8478 22.9145L52.014 22.3641C52.2648 21.4993 52.691 20.698 53.2652 20.0056C53.9482 19.2103 54.5466 18.8626 55.0573 18.9654C55.6285 19.0682 55.7373 19.6578 55.3867 20.7403L53.5009 26.676C53.0657 28.0821 53.1473 29.2099 53.7487 30.0536C54.0721 30.4829 54.4952 30.8246 54.9848 31.0454C55.4744 31.2661 56.0093 31.3629 56.5473 31.3205C57.4388 31.2994 58.3153 31.0635 59.095 30.6311C59.8143 30.3106 60.4368 29.8086 60.9053 29.1767C60.9536 29.1343 60.9869 29.0739 60.9929 29.0104C60.999 28.9469 60.9808 28.8803 60.9415 28.8289C60.8237 28.714 60.6877 28.6203 60.5366 28.5538C60.322 28.4298 60.1527 28.2363 60.0621 28.0034C59.914 27.6134 59.8535 27.1961 59.8868 26.7788C59.9503 26.0017 60.1134 25.2337 60.3764 24.4989L60.3885 24.508ZM79.5038 23.6522C80.2352 21.3481 80.0538 19.3373 78.9598 17.6229C77.8658 15.9084 76.1099 14.9589 73.6952 14.7775C71.2684 14.6233 68.8627 15.3278 66.9013 16.7671C64.8734 18.1157 63.3593 20.1114 62.6068 22.4276C61.8754 24.7317 62.0597 26.7425 63.1659 28.457C64.272 30.1715 66.0309 31.121 68.4396 31.3024C70.8755 31.4717 73.2932 30.7702 75.2607 29.3248C77.2674 27.9611 78.7573 25.9624 79.4978 23.6492L79.5038 23.6522ZM68.5544 22.857C68.9231 21.6203 69.5094 20.4591 70.2892 19.4311C70.54 19.047 70.8845 18.7326 71.2895 18.5209C71.6945 18.3062 72.1478 18.2004 72.6072 18.2095C72.994 18.2276 73.3597 18.3909 73.6257 18.6721C73.8946 18.9503 74.0427 19.3222 74.0458 19.7093C74.1485 20.9037 73.9823 22.1071 73.5622 23.2289C73.1995 24.4747 72.6162 25.6479 71.8365 26.6881C71.5857 27.0661 71.2442 27.3715 70.8452 27.5801C70.4433 27.7888 69.996 27.8916 69.5427 27.8795C69.1558 27.8614 68.7902 27.692 68.5212 27.4108C68.2552 27.1296 68.1071 26.7547 68.1071 26.3646C68.0014 25.1793 68.1525 23.9818 68.5514 22.86L68.5544 22.857ZM96.0201 24.508C96.283 23.6704 96.5792 22.7572 96.9026 21.7654C97.2259 20.7736 97.4435 20.0963 97.5584 19.7304C98.0298 18.2427 98.0057 17.0302 97.4859 16.0898C97.238 15.6363 96.8663 15.2613 96.413 15.0103C95.9596 14.7593 95.4459 14.6475 94.9291 14.6807C93.8441 14.7261 92.7863 15.0254 91.8404 15.5516C90.5952 16.2198 89.5042 17.1421 88.6399 18.2609C88.7366 17.8073 88.7336 17.3386 88.6278 16.885C88.522 16.4345 88.3195 16.0112 88.0324 15.6453C87.7181 15.3127 87.3373 15.0526 86.9112 14.8863C86.4851 14.72 86.0287 14.6505 85.5724 14.6807C84.6808 14.7019 83.8044 14.9378 83.0247 15.3702C82.2993 15.6967 81.6707 16.2077 81.2083 16.8548C81.166 16.9002 81.1418 16.9576 81.1388 17.0181C81.1358 17.0786 81.1539 17.139 81.1902 17.1904C81.2929 17.2933 81.4108 17.381 81.5378 17.4505C81.7251 17.5866 81.8672 17.7801 81.9367 18.0008C82.0606 18.3969 82.1029 18.8112 82.0636 19.2255C81.9911 20.0026 81.8218 20.7676 81.5589 21.5054C81.1026 22.9114 80.0569 25.9413 78.4219 30.5948C78.4158 30.61 78.4128 30.6281 78.4158 30.6462C78.4158 30.6644 78.4219 30.6795 78.4309 30.6946C78.44 30.7097 78.4521 30.7218 78.4672 30.7309C78.4823 30.74 78.4974 30.746 78.5156 30.7491H84.6325C84.6808 30.743 84.7262 30.7218 84.7594 30.6886C84.7926 30.6553 84.8168 30.613 84.8229 30.5646L87.422 22.3641C87.6939 21.5084 88.1382 20.7162 88.7275 20.0388C89.4559 19.2224 90.1057 18.8656 90.6799 18.9684C91.2722 19.0712 91.4022 19.6609 91.0697 20.7434L89.1869 26.679C88.7306 28.0851 88.8031 29.213 89.4015 30.0566C89.7249 30.486 90.148 30.8277 90.6376 31.0484C91.1272 31.2691 91.6621 31.3659 92.2 31.3235C93.0916 31.3024 93.968 31.0665 94.7477 30.6341C95.4701 30.3076 96.1017 29.8086 96.5883 29.1797C96.6306 29.1313 96.6548 29.0709 96.6548 29.0074C96.6548 28.9439 96.6336 28.8803 96.5943 28.832C96.4764 28.7171 96.3404 28.6233 96.1893 28.5568C95.9747 28.4328 95.8085 28.2393 95.7148 28.0065C95.5667 27.6164 95.5063 27.1991 95.5396 26.7819C95.6 26.0048 95.7632 25.2367 96.0261 24.5019L96.0201 24.508Z" fill="white"/>
</svg>
