<svg width="199" height="40" viewBox="0 0 199 40" fill="none" xmlns="http://www.w3.org/2000/svg">
<g clip-path="url(#clip0_4936_62850)">
<path d="M10.7693 28.3899C9.24358 29.0919 7.35455 29.3332 5.90145 29.3332C2.15973 29.3332 0.234375 27.3917 0.234375 24.3204C0.234375 20.7116 3.11635 16.9602 7.85103 16.9602C10.4908 16.9602 12.392 18.2875 12.392 20.4922C12.392 23.5196 9.15881 24.6056 3.92766 24.4849C3.92766 24.825 4.06086 25.3515 4.32726 25.6915C4.83585 26.2948 5.71982 26.6129 6.83386 26.6129C8.25063 26.6129 9.44943 26.3277 10.4908 25.867L10.7572 28.3789L10.7693 28.3899ZM8.79554 20.5032C8.79554 19.9218 8.26274 19.516 7.37877 19.516C5.58662 19.516 4.56945 20.8432 4.30305 21.9621C7.294 21.984 8.79554 21.6001 8.79554 20.5361V20.5142V20.5032Z" fill="white"/>
<path d="M31.3184 19.2856C31.3184 22.2582 30.1681 25.1431 28.1095 26.9858C26.4263 28.4667 24.1498 29.3332 21.4616 29.3332C16.7875 29.3332 14.1719 26.3277 14.1719 22.5324C14.1719 19.5818 15.3707 16.6531 17.4898 14.8103C19.173 13.3624 21.4737 12.4849 24.065 12.4849C28.8239 12.4849 31.3305 15.3916 31.3305 19.2856H31.3184ZM20.4928 16.6202C19.0519 17.9255 18.2527 20.4483 18.2527 22.4008C18.2527 24.7043 19.403 26.4155 22.0186 26.4155C23.1447 26.4155 24.2104 25.9548 25.0338 25.2308C26.4505 23.9474 27.2255 21.26 27.2255 19.3734C27.2255 17.3441 26.4263 15.3807 23.5928 15.3807C22.394 15.3807 21.3163 15.8633 20.4928 16.6202Z" fill="white"/>
<path d="M35.5788 13.0223C36.8624 12.803 38.5214 12.6384 40.3135 12.6384C42.1057 12.6384 43.5709 12.8578 44.7818 13.505C45.9806 14.0644 46.8646 15.1064 46.8646 16.4776C46.8646 18.5397 45.1814 19.845 43.2318 20.3496V20.4264C44.9634 20.909 46.0654 22.1924 46.0654 23.9803C46.0654 25.7683 45.024 27.0078 43.6072 27.8524C42.0815 28.7738 39.817 29.1796 36.8261 29.1796C34.7917 29.1796 33.1691 29.037 32.2852 28.8615L35.5788 13.0223ZM36.5355 26.3825C36.9956 26.4264 37.4437 26.4593 38.0007 26.4593C40.0834 26.4593 41.9846 25.7134 41.9846 23.8926C41.9846 22.2692 40.483 21.7865 38.703 21.7865H37.5042L36.5476 26.3825H36.5355ZM38.0854 19.2417H39.369C41.476 19.2417 42.917 18.4191 42.917 17.037C42.917 15.8523 41.8514 15.3478 40.3741 15.3478C39.7081 15.3478 39.1753 15.3916 38.8725 15.4684L38.0733 19.2417H38.0854Z" fill="white"/>
<path d="M62.8388 29.0589L63.9286 22.3349C64.2192 20.5689 64.6188 18.3203 65.1274 15.9729H65.0426C64.0497 18.079 62.9356 20.3276 61.9427 22.1155L58.2615 28.7957H55.2705L54.6288 22.1923C54.4713 20.4044 54.3381 18.1448 54.2292 15.9729H54.1807C53.6721 18.1228 53.1393 20.5909 52.6792 22.3349L50.887 29.0589H47.3633L51.88 12.748H57.0385L57.5955 18.9455C57.7045 20.4702 57.8861 22.3349 57.9225 24.1448H58.0314C58.7217 22.3349 59.6904 20.4154 60.4654 18.9455L63.7954 12.748H69.0023L66.5684 29.0589H62.8267H62.8388Z" fill="white"/>
<path d="M81.4396 22.1375H75.0218L74.1984 26.0863H81.3912L80.7736 29.0589H69.7422L73.157 12.748H83.813L83.1712 15.7206H76.3901L75.6393 19.2088H82.0572L81.4396 22.1375Z" fill="white"/>
<path d="M83.5469 29.0591L86.9738 12.7483H91.4905L93.8639 18.9677C94.5904 21.0518 95.0627 22.741 95.4986 24.5289H95.5834C95.6681 22.8617 95.8982 21.0628 96.4068 18.6715L97.6298 12.7373H101.214L97.8236 29.0482H93.8396L91.3331 22.5326C90.5339 20.3278 90.0495 18.858 89.5651 16.8397L89.4804 16.8616C89.2624 18.4631 88.8386 20.7556 88.3058 23.3224L87.1312 29.0372H83.5469V29.0591Z" fill="white"/>
<path d="M108.939 21.4685L108.43 23.9365H101.516L102.024 21.4685H108.939Z" fill="white"/>
<path d="M128.361 19.2856C128.361 22.2582 127.211 25.1431 125.152 26.9858C123.469 28.4667 121.193 29.3332 118.505 29.3332C113.83 29.3332 111.215 26.3277 111.215 22.5324C111.215 19.5818 112.414 16.6531 114.533 14.8103C116.216 13.3624 118.517 12.4849 121.108 12.4849C125.867 12.4849 128.373 15.3916 128.373 19.2856H128.361ZM117.536 16.6202C116.095 17.9255 115.296 20.4483 115.296 22.4008C115.296 24.7043 116.446 26.4155 119.062 26.4155C120.188 26.4155 121.253 25.9548 122.077 25.2308C123.494 23.9474 124.268 21.26 124.268 19.3734C124.268 17.3441 123.469 15.3807 120.636 15.3807C119.437 15.3807 118.359 15.8633 117.536 16.6202Z" fill="white"/>
<path d="M132.614 13.0223C133.898 12.803 135.557 12.6384 137.349 12.6384C139.141 12.6384 140.606 12.8578 141.817 13.505C143.016 14.0644 143.9 15.1064 143.9 16.4776C143.9 18.5397 142.217 19.845 140.267 20.3496V20.4264C141.999 20.909 143.101 22.1924 143.101 23.9803C143.101 25.7683 142.059 27.0078 140.642 27.8524C139.117 28.7738 136.852 29.1796 133.861 29.1796C131.827 29.1796 130.204 29.037 129.32 28.8615L132.614 13.0223ZM133.571 26.3825C134.031 26.4264 134.479 26.4593 135.036 26.4593C137.119 26.4593 139.02 25.7134 139.02 23.8926C139.02 22.2692 137.518 21.7865 135.738 21.7865H134.539L133.583 26.3825H133.571ZM135.121 19.2417H136.404C138.511 19.2417 139.952 18.4191 139.952 17.037C139.952 15.8523 138.887 15.3478 137.409 15.3478C136.743 15.3478 136.21 15.3916 135.908 15.4684L135.108 19.2417H135.121Z" fill="white"/>
<path d="M159.87 29.0589L160.96 22.3349C161.25 20.5689 161.65 18.3203 162.159 15.9729H162.074C161.081 18.079 159.967 20.3276 158.974 22.1155L155.293 28.7957H152.302L151.66 22.1923C151.503 20.4044 151.369 18.1448 151.26 15.9729H151.212C150.703 18.1228 150.171 20.5909 149.71 22.3349L147.918 29.0589H144.395L148.923 12.748H154.082L154.639 18.9455C154.748 20.4702 154.929 22.3349 154.966 24.1448H155.075C155.765 22.3349 156.734 20.4154 157.509 18.9455L160.851 12.748H166.058L163.624 29.0589H159.882H159.87Z" fill="white"/>
<path d="M178.483 22.1375H172.065L171.241 26.0863H178.434L177.817 29.0589H166.785L170.2 12.748H180.856L180.214 15.7206H173.433L172.682 19.2088H179.1L178.483 22.1375Z" fill="white"/>
<path d="M180.59 29.0591L184.017 12.7483H188.533L190.907 18.9677C191.633 21.0518 192.106 22.741 192.542 24.5289H192.626C192.711 22.8617 192.941 21.0628 193.45 18.6715L194.673 12.7373H198.257L194.867 29.0482H190.883L188.376 22.5326C187.577 20.3278 187.092 18.858 186.608 16.8397L186.523 16.8616C186.305 18.4631 185.882 20.7556 185.349 23.3224L184.174 29.0372H180.59V29.0591Z" fill="white"/>
</g>
<defs>
<clipPath id="clip0_4936_62850">
<rect width="198" height="40" fill="white" transform="translate(0.253906)"/>
</clipPath>
</defs>
</svg>
