<svg width="137" height="41" viewBox="0 0 137 41" fill="none" xmlns="http://www.w3.org/2000/svg">
<path d="M50.9103 8.49174V16.7136H53.7308C54.9244 16.7136 55.7201 16.5375 56.118 16.1766C56.6485 15.7101 56.9491 14.8826 57.011 13.6942H57.5768V20.9301H57.011C56.8695 19.9177 56.7192 19.2664 56.5778 18.9847C56.3921 18.6238 56.0915 18.3421 55.6671 18.1396C55.2427 17.9371 54.5972 17.8315 53.7308 17.8315H50.9103V24.6889C50.9103 25.6132 50.9545 26.1677 51.0341 26.3702C51.1137 26.5726 51.2639 26.7311 51.4673 26.8456C51.6707 26.96 50.2914 27.0216 50.8661 27.0216H54.4116C55.5875 27.0216 56.4451 26.9424 56.9845 26.7751C57.515 26.6079 58.0278 26.291 58.5229 25.8068C59.1595 25.173 59.8138 24.2135 60.4769 22.9371H61.0958L59.2921 28.1484H44.9688V27.585H45.7114C46.2065 27.585 46.6752 27.4706 47.1173 27.2329C47.4444 27.0656 47.6654 26.8279 47.7892 26.4934C47.9042 26.1677 47.966 25.4987 47.966 24.4864V10.9741C47.966 9.65371 47.8334 8.84384 47.5682 8.53574C47.1968 8.13082 46.5779 7.91959 45.7203 7.91959H44.9775V7.3562H59.301L59.5308 11.9072H58.9296C58.7174 10.8157 58.4787 10.0586 58.2135 9.65371C57.9482 9.24878 57.568 8.93189 57.0464 8.72062C56.6396 8.57097 55.9146 8.49174 54.8713 8.49174H50.9103Z" fill="white"/>
<path d="M66.3471 11.9069L68.1154 14.5389C68.6105 15.2696 68.973 15.7273 69.2118 15.921C69.4505 16.1146 69.7511 16.2203 70.1136 16.2379V16.4579H66.5681V16.2379C66.8069 16.2379 66.9748 16.2115 67.0898 16.1675C67.1782 16.1323 67.2489 16.0795 67.3019 16.0002C67.355 15.9298 67.3815 15.8506 67.3815 15.7714C67.3815 15.6745 67.3639 15.5865 67.3285 15.4897C67.302 15.4192 67.187 15.2432 66.9925 14.9527L65.5955 12.84L63.8626 15.0495C63.6769 15.2872 63.5708 15.4369 63.5355 15.5161C63.5001 15.5953 63.4824 15.6745 63.4824 15.7625C63.4824 15.8946 63.5355 16.0002 63.6504 16.0794C63.7654 16.1587 63.9687 16.2115 64.2781 16.2291V16.4492H61.3516V16.2291C61.5549 16.2115 61.7406 16.1675 61.8909 16.1059C62.1385 16.0002 62.386 15.8594 62.6071 15.6834C62.8369 15.5073 63.0933 15.2344 63.3851 14.8646L65.3303 12.4175L63.7035 10.0496C63.2614 9.40695 62.89 8.98442 62.5806 8.78195C62.2711 8.57949 61.9174 8.47387 61.5107 8.46506V8.245H65.3303V8.46506C65.0031 8.47387 64.7821 8.52668 64.6672 8.62351C64.5522 8.72034 64.4903 8.81715 64.4903 8.93158C64.4903 9.08123 64.5876 9.30129 64.7821 9.58298L66.0465 11.4668L67.5142 9.61823C67.6822 9.39816 67.7883 9.2485 67.8236 9.16928C67.859 9.09005 67.8855 9.002 67.8855 8.92277C67.8855 8.84355 67.859 8.76432 67.8148 8.7027C67.7529 8.61468 67.6733 8.5619 67.5849 8.52669C67.4876 8.49148 67.302 8.47387 67.0102 8.46506V8.245H69.9368V8.46506C69.7069 8.47387 69.5212 8.51788 69.3709 8.57069C69.1499 8.66752 68.9554 8.79076 68.7697 8.94921C68.584 9.10766 68.3276 9.39814 67.9916 9.82067L66.3559 11.9069H66.3471Z" fill="white"/>
<path d="M77.7587 8.05141L77.9444 10.8419H77.7587C77.5023 10.0057 77.1487 9.40704 76.6801 9.03732C76.2114 8.6676 75.6544 8.48274 75.0001 8.48274C74.4519 8.48274 73.9568 8.62361 73.5147 8.8965C73.0727 9.16939 72.7279 9.61833 72.4714 10.2169C72.215 10.8243 72.0913 11.5725 72.0913 12.4792C72.0913 13.2187 72.2062 13.8701 72.4537 14.4159C72.6925 14.9616 73.055 15.3753 73.5324 15.6658C74.0099 15.9563 74.5581 16.106 75.177 16.106C75.7163 16.106 76.1849 15.9915 76.5916 15.7627C76.9983 15.5338 77.4493 15.0849 77.9444 14.3982L78.13 14.5215C77.7145 15.2521 77.2371 15.7891 76.6801 16.1236C76.1319 16.4669 75.4687 16.6341 74.7172 16.6341C73.3467 16.6341 72.2946 16.1324 71.5431 15.1201C70.9861 14.3718 70.7031 13.4827 70.7031 12.4616C70.7031 11.643 70.8888 10.8859 71.2602 10.1993C71.6315 9.51268 72.1354 8.98451 72.7809 8.60599C73.4263 8.22747 74.1337 8.0426 74.9029 8.0426C75.4953 8.0426 76.0877 8.19225 76.6712 8.48274C76.8392 8.57077 76.963 8.6148 77.0337 8.6148C77.1398 8.6148 77.237 8.57959 77.3166 8.50036C77.4227 8.39473 77.4935 8.23626 77.5377 8.0426H77.7499L77.7587 8.05141Z" fill="white"/>
<path d="M81.1302 12.0566H84.9675V9.70623C84.9675 9.2837 84.941 9.01081 84.8879 8.87877C84.8437 8.78194 84.7641 8.69392 84.6315 8.6147C84.4547 8.51787 84.269 8.46506 84.0745 8.46506H83.7827V8.245H87.3105V8.46506H87.0188C86.8242 8.46506 86.6386 8.50905 86.4617 8.60589C86.3291 8.6675 86.2407 8.76435 86.1965 8.89639C86.1523 9.02843 86.1257 9.29249 86.1257 9.69742V14.9967C86.1257 15.4104 86.1522 15.6921 86.2053 15.8242C86.2495 15.921 86.3291 16.009 86.4529 16.0882C86.6297 16.1851 86.8154 16.2379 87.0099 16.2379H87.3017V16.4579H83.7739V16.2379H84.0656C84.4016 16.2379 84.6492 16.1411 84.7995 15.9386C84.9056 15.8066 84.9498 15.4985 84.9498 15.0055V12.5055H81.1126V15.0055C81.1126 15.4193 81.1391 15.7009 81.1921 15.833C81.2363 15.9298 81.3159 16.0178 81.4485 16.0971C81.6253 16.1939 81.811 16.2467 82.0055 16.2467H82.3062V16.4668H78.7695V16.2467H79.0613C79.4061 16.2467 79.6537 16.1499 79.804 15.9474C79.9012 15.8154 79.9543 15.5073 79.9543 15.0143V9.71504C79.9543 9.29251 79.9278 9.01962 79.8747 8.88758C79.8305 8.79075 79.7509 8.70273 79.6271 8.62351C79.4503 8.52668 79.2647 8.47388 79.0702 8.47388H78.7784V8.25381H82.315V8.47388H82.0144C81.8199 8.47388 81.6342 8.51787 81.4574 8.6147C81.3336 8.67632 81.2452 8.77316 81.1921 8.9052C81.1479 9.03724 81.1214 9.3013 81.1214 9.70623V12.0566H81.1302Z" fill="white"/>
<path d="M93.2803 13.7115H90.0885L89.5315 15.0056C89.39 15.3225 89.3281 15.5602 89.3281 15.7186C89.3281 15.8418 89.39 15.9563 89.505 16.0531C89.6287 16.1499 89.8852 16.2115 90.283 16.2379V16.458H87.6836V16.2379C88.0284 16.1763 88.2495 16.0971 88.3556 16.0003C88.5589 15.8066 88.7888 15.4105 89.0452 14.8207L91.9453 8.06018H92.1574L95.031 14.9C95.2608 15.4457 95.473 15.8066 95.6587 15.9651C95.8444 16.1323 96.1096 16.2203 96.4456 16.2379V16.458H93.1919V16.2379C93.519 16.2203 93.7401 16.1675 93.855 16.0707C93.97 15.9739 94.0319 15.8683 94.0319 15.7274C94.0319 15.5514 93.9523 15.2697 93.7843 14.8823L93.2891 13.7028L93.2803 13.7115ZM93.1123 13.2627L91.7154 9.94399L90.283 13.2627H93.1211H93.1123Z" fill="white"/>
<path d="M96.4062 8.245H98.6431L103.692 14.4069V9.67104C103.692 9.16928 103.639 8.85238 103.524 8.72914C103.373 8.56188 103.135 8.47388 102.808 8.47388H102.525V8.25381H105.398V8.47388H105.106C104.762 8.47388 104.514 8.5795 104.364 8.79076C104.275 8.9228 104.231 9.2133 104.231 9.67985V16.6076H104.01L98.5725 9.98793V15.0495C98.5725 15.5513 98.6255 15.8682 98.7404 15.9914C98.8908 16.1587 99.1295 16.2467 99.4566 16.2467H99.7483V16.4668H96.8748V16.2467H97.1578C97.5114 16.2467 97.759 16.1411 97.9093 15.9298C97.9977 15.7978 98.0419 15.5073 98.0419 15.0495V9.33653C97.8032 9.05484 97.6175 8.86998 97.4938 8.78195C97.37 8.69392 97.1843 8.61467 96.9456 8.53545C96.8306 8.50024 96.6538 8.48263 96.4062 8.48263V8.26256V8.245Z" fill="white"/>
<path d="M113.225 8.05141L113.438 10.6482H113.225C113.013 10.0056 112.73 9.51271 112.394 9.18701C111.899 8.71166 111.271 8.47398 110.502 8.47398C109.45 8.47398 108.654 8.88769 108.106 9.71515C107.646 10.4106 107.417 11.2469 107.417 12.2152C107.417 12.9986 107.567 13.7116 107.876 14.363C108.177 15.0056 108.575 15.481 109.07 15.7803C109.565 16.0796 110.069 16.2292 110.591 16.2292C110.891 16.2292 111.192 16.194 111.475 16.1148C111.758 16.0356 112.032 15.9211 112.297 15.7715V13.3947C112.297 12.981 112.262 12.7169 112.2 12.5849C112.138 12.4528 112.041 12.3648 111.908 12.2944C111.775 12.2239 111.546 12.1975 111.21 12.1975V11.9687H114.401V12.1975H114.251C113.933 12.1975 113.721 12.3032 113.597 12.5144C113.517 12.6641 113.473 12.9546 113.473 13.3947V15.9123C113.004 16.1588 112.545 16.3436 112.094 16.4669C111.643 16.5813 111.13 16.6429 110.582 16.6429C108.99 16.6429 107.779 16.1324 106.948 15.1201C106.329 14.3542 106.02 13.4739 106.02 12.4792C106.02 11.7574 106.196 11.062 106.541 10.4018C106.957 9.60954 107.523 9.01095 108.248 8.57961C108.849 8.2275 109.565 8.05141 110.387 8.05141C110.688 8.05141 110.962 8.07784 111.21 8.12185C111.457 8.16587 111.802 8.28029 112.253 8.43874C112.483 8.52677 112.633 8.56199 112.713 8.56199C112.792 8.56199 112.854 8.52678 112.907 8.45636C112.96 8.38594 112.996 8.24507 113.004 8.0426H113.225V8.05141Z" fill="white"/>
<path d="M117.185 8.69417V11.9424H118.997C119.466 11.9424 119.784 11.8719 119.944 11.7311C120.156 11.5462 120.271 11.2205 120.297 10.7452H120.518V13.6061H120.297C120.244 13.21 120.182 12.9459 120.129 12.8402C120.058 12.6994 119.935 12.585 119.767 12.5057C119.599 12.4265 119.342 12.3825 118.997 12.3825H117.185V15.0937C117.185 15.4547 117.203 15.6747 117.229 15.754C117.265 15.8332 117.318 15.8948 117.397 15.9388C117.477 15.9828 117.636 16.0093 117.857 16.0093H119.254C119.722 16.0093 120.058 15.974 120.271 15.9124C120.483 15.8508 120.686 15.7187 120.881 15.5339C121.128 15.2874 121.394 14.9089 121.65 14.3983H121.897L121.181 16.4582H114.824V16.2381H115.116C115.311 16.2381 115.496 16.1941 115.673 16.0973C115.806 16.0357 115.894 15.9388 115.938 15.8068C115.982 15.6747 116.009 15.4107 116.009 15.0146V9.68007C116.009 9.16071 115.956 8.83498 115.85 8.72055C115.7 8.5621 115.461 8.4741 115.116 8.4741H114.824V8.25403H121.181L121.27 10.0498H121.031C120.943 9.61844 120.854 9.31914 120.748 9.16069C120.642 9.00224 120.492 8.87901 120.288 8.79098C120.129 8.72937 119.837 8.70292 119.431 8.70292H117.167L117.185 8.69417Z" fill="white"/>
<path d="M130.615 16.4579H128.414L125.62 12.6199C125.416 12.6199 125.248 12.6288 125.116 12.6288C125.063 12.6288 125.01 12.6288 124.948 12.6288C124.886 12.6288 124.824 12.6288 124.762 12.6199V15.0055C124.762 15.5249 124.815 15.8418 124.93 15.965C125.08 16.141 125.319 16.2291 125.629 16.2291H125.947V16.4492H122.41V16.2291H122.72C123.064 16.2291 123.321 16.1147 123.471 15.8858C123.56 15.7626 123.595 15.4633 123.595 14.9967V9.68861C123.595 9.16925 123.542 8.85238 123.427 8.72914C123.268 8.55308 123.029 8.46506 122.72 8.46506H122.41V8.245H125.416C126.292 8.245 126.937 8.30659 127.353 8.43863C127.768 8.57067 128.122 8.79953 128.414 9.14284C128.705 9.48615 128.847 9.89109 128.847 10.3664C128.847 10.8682 128.679 11.3083 128.352 11.678C128.025 12.0478 127.512 12.3119 126.813 12.4703L128.52 14.8295C128.909 15.3752 129.245 15.7273 129.528 15.9122C129.811 16.097 130.173 16.2027 130.624 16.2555V16.4756L130.615 16.4579ZM124.753 12.2326C124.833 12.2326 124.895 12.2326 124.957 12.2326C125.01 12.2326 125.063 12.2326 125.098 12.2326C125.885 12.2326 126.477 12.0654 126.875 11.7221C127.273 11.3788 127.476 10.9474 127.476 10.4281C127.476 9.9087 127.317 9.49499 126.99 9.17809C126.672 8.86119 126.239 8.69395 125.708 8.69395C125.469 8.69395 125.151 8.72911 124.753 8.80833V12.2238V12.2326Z" fill="white"/>
<path d="M136.22 8.05115V10.8945H135.999C135.928 10.3487 135.795 9.91734 135.61 9.59163C135.424 9.26593 135.15 9.01065 134.805 8.8258C134.451 8.63213 134.098 8.5441 133.717 8.5441C133.293 8.5441 132.948 8.67614 132.674 8.93143C132.4 9.18671 132.259 9.47719 132.259 9.80289C132.259 10.0494 132.347 10.2783 132.524 10.4895C132.78 10.7888 133.373 11.1938 134.319 11.7043C135.088 12.1181 135.618 12.435 135.901 12.655C136.184 12.8751 136.396 13.1303 136.556 13.4296C136.706 13.7289 136.785 14.0458 136.785 14.3715C136.785 14.9965 136.547 15.5335 136.06 15.9825C135.574 16.4314 134.955 16.6603 134.186 16.6603C133.947 16.6603 133.717 16.6427 133.514 16.6075C133.39 16.5899 133.125 16.5106 132.736 16.3874C132.338 16.2642 132.091 16.1937 131.984 16.1937C131.878 16.1937 131.799 16.2202 131.746 16.2818C131.693 16.3434 131.64 16.4666 131.613 16.6603H131.392V13.8434H131.613C131.719 14.4332 131.861 14.8733 132.038 15.1638C132.214 15.4543 132.488 15.7008 132.86 15.8945C133.231 16.0881 133.629 16.1849 134.071 16.1849C134.575 16.1849 134.982 16.0529 135.274 15.7888C135.565 15.5247 135.716 15.2078 135.716 14.8469C135.716 14.6445 135.663 14.442 135.548 14.2307C135.433 14.0282 135.265 13.8346 135.026 13.6585C134.867 13.5353 134.434 13.28 133.726 12.8839C133.019 12.4877 132.515 12.1797 132.223 11.942C131.923 11.7043 131.702 11.4491 131.542 11.1674C131.392 10.8857 131.312 10.5776 131.312 10.2343C131.312 9.64449 131.542 9.13389 131.993 8.71136C132.444 8.28882 133.028 8.06877 133.726 8.06877C134.168 8.06877 134.628 8.17439 135.123 8.38566C135.353 8.48249 135.512 8.53529 135.601 8.53529C135.707 8.53529 135.795 8.50009 135.857 8.43847C135.928 8.37685 135.981 8.25362 136.016 8.05996H136.237L136.22 8.05115Z" fill="white"/>
<path d="M73.3657 40.9918L66.1067 23.3422L64.3384 37.3562C64.1085 38.6678 64.135 39.4513 64.418 39.7682C64.7982 40.1995 65.4082 40.4196 66.2393 40.4196H66.982V40.9918H59.6523V40.4196H60.395C61.288 40.4196 61.9158 40.1555 62.2871 39.6185C62.517 39.284 62.7027 38.4214 62.9679 37.3562L64.7363 23.6503C64.7363 22.726 64.6301 22.0482 64.4268 21.6432C64.2853 21.3439 64.0112 21.0975 63.6222 20.895C63.2332 20.6926 62.6054 20.5957 61.7478 20.5957V20.0236H67.7159L74.4797 36.4319L81.1109 20.0236H87.079V20.5957H86.3451C85.4433 20.5957 84.8067 20.8598 84.4353 21.3968C84.2054 21.7313 84.0905 22.4795 84.0905 23.6591L85.8589 37.365C86.1153 38.8438 86.3628 39.4601 86.6457 39.777C87.0259 40.2083 87.636 40.4284 88.4671 40.4284H89.201V41.0005H80.2533V40.4284H80.996C81.8978 40.4284 82.5255 40.1643 82.888 39.6273C83.1179 39.2928 83.1091 38.6502 82.8704 37.365L81.1021 23.351L73.8608 41.0005H73.348L73.3657 40.9918Z" fill="white"/>
<path d="M94.3233 21.7397C95.3932 21.7397 96.3215 22.1447 97.1084 22.9545C97.8953 23.7644 98.2844 24.7767 98.2844 25.9915C98.2844 27.2063 97.8865 28.2802 97.0996 29.0989C96.3127 29.9264 95.3489 30.3313 94.226 30.3313C93.1032 30.3313 92.1394 29.9263 91.3614 29.1253C90.5922 28.3242 90.2031 27.2855 90.2031 26.0091C90.2031 24.7327 90.6452 23.6412 91.5382 22.8137C92.3163 22.1007 93.2447 21.7397 94.3233 21.7397ZM94.2084 22.1799C93.4745 22.1799 92.8733 22.4528 92.4312 22.9986C91.8742 23.6764 91.6001 24.6711 91.6001 25.9827C91.6001 27.2943 91.8919 28.3595 92.4666 29.0813C92.9087 29.6271 93.4922 29.9087 94.2172 29.9087C94.9953 29.9087 95.6319 29.6094 96.1359 29.002C96.6398 28.4034 96.8962 27.4528 96.8962 26.1499C96.8962 24.7415 96.6221 23.694 96.0651 23.0073C95.623 22.4616 95.0041 22.1799 94.2172 22.1799H94.2084Z" fill="white"/>
<path d="M98.6016 21.9336H100.839L105.887 28.0955V23.3596C105.887 22.8579 105.834 22.541 105.719 22.4177C105.569 22.2505 105.33 22.1625 105.003 22.1625H104.72V21.9424H107.593V22.1625H107.302C106.957 22.1625 106.709 22.2681 106.559 22.4794C106.471 22.6114 106.426 22.9019 106.426 23.3685V30.2962H106.205L100.768 23.6765V28.7381C100.768 29.2399 100.821 29.5568 100.936 29.68C101.086 29.8473 101.325 29.9353 101.652 29.9353H101.944V30.1554H99.0702V29.9353H99.3531C99.7067 29.9353 99.9543 29.8297 100.105 29.6184C100.193 29.4864 100.237 29.1959 100.237 28.7381V23.0251C99.9985 22.7434 99.8128 22.5586 99.6891 22.4706C99.5653 22.3825 99.3796 22.3033 99.1409 22.2241C99.0259 22.1889 98.8491 22.1713 98.6016 22.1713V21.9512V21.9336Z" fill="white"/>
<path d="M111.615 29.9263V30.1464H108.078V29.9263H108.37C108.715 29.9263 108.962 29.8295 109.113 29.627C109.21 29.4949 109.263 29.1869 109.263 28.6939V23.3859C109.263 22.9721 109.236 22.6992 109.183 22.5584C109.139 22.4616 109.06 22.3735 108.936 22.2943C108.759 22.1974 108.573 22.1446 108.379 22.1446H108.087V21.9246H111.624V22.1446H111.323C110.987 22.1446 110.739 22.2415 110.589 22.4439C110.483 22.576 110.439 22.8841 110.439 23.377V28.6851C110.439 29.0988 110.465 29.3805 110.518 29.5125C110.563 29.6094 110.642 29.6974 110.775 29.7766C110.952 29.8735 111.137 29.9263 111.332 29.9263H111.632H111.615Z" fill="white"/>
<path d="M119.134 21.9334L119.223 23.8612H118.993C118.949 23.5179 118.887 23.2802 118.807 23.1305C118.683 22.8929 118.515 22.7256 118.303 22.6112C118.091 22.4968 117.817 22.4439 117.481 22.4439H116.323V28.7203C116.323 29.2221 116.376 29.5389 116.491 29.6622C116.641 29.8294 116.88 29.9175 117.207 29.9175H117.49V30.1376H113.989V29.9175H114.28C114.625 29.9175 114.873 29.8119 115.023 29.6006C115.111 29.4686 115.156 29.1781 115.156 28.7203V22.4439H114.165C113.776 22.4439 113.502 22.4703 113.343 22.532C113.131 22.6112 112.954 22.752 112.804 22.9721C112.653 23.1922 112.565 23.4827 112.538 23.8524H112.309L112.406 21.9246H119.143L119.134 21.9334Z" fill="white"/>
<path d="M123.874 21.7397C124.944 21.7397 125.872 22.1447 126.659 22.9545C127.446 23.7644 127.835 24.7767 127.835 25.9915C127.835 27.2063 127.437 28.2802 126.65 29.0989C125.863 29.9264 124.9 30.3313 123.777 30.3313C122.654 30.3313 121.69 29.9263 120.912 29.1253C120.143 28.3242 119.754 27.2855 119.754 26.0091C119.754 24.7327 120.196 23.6412 121.089 22.8137C121.867 22.1007 122.795 21.7397 123.874 21.7397ZM123.759 22.1799C123.025 22.1799 122.424 22.4528 121.982 22.9986C121.425 23.6764 121.151 24.6711 121.151 25.9827C121.151 27.2943 121.443 28.3595 122.017 29.0813C122.459 29.6271 123.043 29.9087 123.768 29.9087C124.546 29.9087 125.183 29.6094 125.687 29.002C126.191 28.4034 126.447 27.4528 126.447 26.1499C126.447 24.7415 126.173 23.694 125.616 23.0073C125.174 22.4616 124.555 22.1799 123.768 22.1799H123.759Z" fill="white"/>
<path d="M136.736 30.1466H134.535L131.741 26.3085C131.537 26.3085 131.369 26.3174 131.237 26.3174C131.184 26.3174 131.131 26.3174 131.069 26.3174C131.007 26.3174 130.945 26.3174 130.883 26.3085V28.6941C130.883 29.2135 130.936 29.5304 131.051 29.6536C131.201 29.8297 131.44 29.9177 131.75 29.9177H132.068V30.1378H128.531V29.9177H128.841C129.186 29.9177 129.442 29.8033 129.592 29.5744C129.681 29.4512 129.716 29.1519 129.716 28.6853V23.3773C129.716 22.8579 129.663 22.541 129.548 22.4177C129.389 22.2417 129.15 22.1537 128.841 22.1537H128.531V21.9336H131.537C132.413 21.9336 133.058 21.9952 133.474 22.1272C133.889 22.2593 134.243 22.4882 134.535 22.8315C134.827 23.1748 134.968 23.5797 134.968 24.055C134.968 24.5568 134.8 24.997 134.473 25.3667C134.146 25.7364 133.633 26.0005 132.934 26.1589L134.641 28.5181C135.03 29.0638 135.366 29.416 135.649 29.6008C135.932 29.7857 136.294 29.8913 136.745 29.9441V30.1642L136.736 30.1466ZM130.874 25.9212C130.954 25.9212 131.016 25.9212 131.078 25.9212C131.131 25.9212 131.184 25.9212 131.219 25.9212C132.006 25.9212 132.598 25.754 132.996 25.4107C133.394 25.0674 133.598 24.636 133.598 24.1167C133.598 23.5973 133.438 23.1836 133.111 22.8667C132.793 22.5498 132.36 22.3825 131.829 22.3825C131.59 22.3825 131.272 22.4178 130.874 22.497V25.9125V25.9212Z" fill="white"/>
<path d="M110.071 39.2395C110.23 39.2395 110.371 39.2923 110.477 39.4068C110.584 39.5212 110.645 39.6533 110.645 39.8117C110.645 39.9702 110.592 40.1022 110.477 40.2167C110.363 40.3311 110.23 40.3839 110.071 40.3839C109.912 40.3839 109.779 40.3311 109.664 40.2167C109.549 40.1022 109.496 39.9702 109.496 39.8117C109.496 39.6533 109.549 39.5124 109.664 39.4068C109.779 39.3011 109.912 39.2395 110.071 39.2395Z" fill="#C5CEC5"/>
<path d="M117.789 33.0863L117.948 35.4631H117.789C117.576 34.7501 117.267 34.2395 116.869 33.9226C116.471 33.6057 115.994 33.456 115.437 33.456C114.968 33.456 114.553 33.5705 114.172 33.8082C113.792 34.0458 113.5 34.4156 113.288 34.9349C113.076 35.4543 112.961 36.0881 112.961 36.8627C112.961 37.4965 113.067 38.0423 113.271 38.5089C113.474 38.9754 113.783 39.3275 114.19 39.574C114.597 39.8204 115.065 39.9437 115.587 39.9437C116.047 39.9437 116.445 39.8469 116.798 39.6532C117.152 39.4596 117.532 39.0722 117.948 38.4912L118.107 38.5969C117.753 39.2219 117.346 39.6708 116.878 39.9613C116.409 40.2518 115.852 40.3926 115.207 40.3926C114.04 40.3926 113.138 39.9613 112.501 39.1074C112.024 38.4648 111.785 37.7166 111.785 36.8451C111.785 36.1497 111.944 35.5071 112.254 34.9173C112.563 34.3275 112.996 33.8786 113.553 33.5617C114.11 33.2448 114.703 33.0775 115.357 33.0775C115.861 33.0775 116.365 33.2008 116.86 33.4473C117.002 33.5265 117.108 33.5617 117.17 33.5617C117.267 33.5617 117.347 33.5265 117.417 33.4648C117.506 33.368 117.568 33.2448 117.612 33.0775H117.797L117.789 33.0863Z" fill="#C5CEC5"/>
<path d="M122.363 33.0863C123.273 33.0863 124.06 33.4296 124.732 34.1162C125.404 34.8029 125.731 35.6656 125.731 36.6955C125.731 37.7254 125.395 38.6409 124.723 39.3451C124.051 40.0493 123.238 40.4014 122.274 40.4014C121.311 40.4014 120.497 40.0581 119.834 39.3715C119.171 38.6849 118.844 37.8046 118.844 36.7131C118.844 35.6215 119.224 34.6973 119.984 33.993C120.647 33.3856 121.434 33.0775 122.354 33.0775L122.363 33.0863ZM122.265 33.4648C121.638 33.4648 121.134 33.6937 120.754 34.1603C120.276 34.7413 120.046 35.5863 120.046 36.6955C120.046 37.8046 120.294 38.7113 120.78 39.3275C121.16 39.7941 121.655 40.0317 122.274 40.0317C122.937 40.0317 123.477 39.7765 123.91 39.2659C124.343 38.7553 124.555 37.9455 124.555 36.8451C124.555 35.648 124.317 34.7589 123.848 34.1691C123.468 33.7026 122.946 33.4648 122.274 33.4648H122.265Z" fill="#C5CEC5"/>
<path d="M130.478 40.2432L127.764 34.3541V39.0284C127.764 39.4597 127.808 39.7238 127.905 39.8295C128.029 39.9703 128.232 40.0496 128.515 40.0496H128.763V40.2432H126.314V40.0496H126.561C126.862 40.0496 127.065 39.9615 127.189 39.7854C127.268 39.6798 127.304 39.4245 127.304 39.0284V34.4598C127.304 34.1517 127.268 33.9228 127.198 33.7907C127.153 33.6939 127.056 33.6059 126.932 33.5443C126.809 33.4827 126.596 33.4475 126.305 33.4475V33.2538H128.294L130.84 38.7291L133.351 33.2538H135.341V33.4475H135.093C134.793 33.4475 134.58 33.5355 134.457 33.7115C134.377 33.8172 134.342 34.0724 134.342 34.4686V39.0372C134.342 39.4685 134.386 39.7326 134.483 39.8382C134.607 39.9791 134.81 40.0583 135.093 40.0583H135.341V40.252H132.352V40.0583H132.6C132.901 40.0583 133.113 39.9703 133.228 39.7942C133.307 39.6886 133.343 39.4333 133.343 39.0372V34.3629L130.637 40.252H130.469L130.478 40.2432Z" fill="#C5CEC5"/>
<path d="M19.1851 21.2205L17.2223 16.4494L16.7448 20.2434C16.6829 20.5955 16.6918 20.8068 16.7625 20.8948C16.8686 21.0092 17.0278 21.0709 17.2576 21.0709H17.461V21.2293H15.4805V21.0709H15.6839C15.9226 21.0709 16.0994 21.0004 16.1966 20.8508C16.2585 20.7628 16.3116 20.5251 16.3823 20.2434L16.8598 16.5374C16.8598 16.2821 16.8333 16.1061 16.7714 15.9917C16.736 15.9124 16.6564 15.842 16.5592 15.7892C16.4619 15.7364 16.2851 15.71 16.0552 15.71V15.5515H17.6732L19.5034 19.9881L21.2983 15.5515H22.9163V15.71H22.7217C22.4742 15.71 22.3062 15.7804 22.2089 15.93C22.147 16.0181 22.1205 16.2205 22.1205 16.5374L22.5979 20.2434C22.6687 20.6395 22.7306 20.8068 22.8102 20.8948C22.9163 21.0092 23.0754 21.0709 23.3053 21.0709H23.4998V21.2293H21.0772V21.0709H21.2806C21.5281 21.0709 21.6961 21.0004 21.7934 20.8508C21.8553 20.7628 21.8553 20.5867 21.7934 20.2434L21.316 16.4494L19.3531 21.2205H19.2117H19.1851Z" fill="white"/>
<path d="M10.5568 15.8419V19.3013H11.7416C12.2456 19.3013 12.5816 19.2221 12.7496 19.0725C12.9706 18.8788 13.1032 18.5267 13.1209 18.0249H13.3596V21.0707H13.1209C13.059 20.6482 12.9971 20.3752 12.9352 20.252C12.8556 20.1024 12.7319 19.9792 12.555 19.8999C12.3782 19.8119 12.1041 19.7679 11.7416 19.7679H10.5568V22.6552C10.5568 23.0425 10.5745 23.2802 10.6099 23.3594C10.6452 23.4386 10.7071 23.509 10.7956 23.5619C10.884 23.6147 10.3005 23.6323 10.548 23.6323H12.0422C12.5373 23.6323 12.8999 23.5971 13.1209 23.5267C13.3419 23.4562 13.563 23.3242 13.7663 23.1217C14.0316 22.8576 14.3057 22.4527 14.5886 21.9157H14.845L14.0847 24.1076H8.05469V23.87H8.36412C8.56748 23.87 8.77082 23.8171 8.95649 23.7203C9.09796 23.6499 9.18638 23.5443 9.23943 23.4122C9.29248 23.2714 9.31018 22.9897 9.31018 22.5671V16.8806C9.31018 16.326 9.25713 15.9827 9.14219 15.8506C8.98304 15.6746 8.72663 15.5954 8.36412 15.5954H8.05469V15.3577H14.0847L14.1819 17.2767H13.9255C13.8371 16.819 13.731 16.5021 13.6249 16.326C13.5188 16.1499 13.3508 16.0267 13.1386 15.9299C12.9618 15.8682 12.6611 15.8331 12.2279 15.8331H10.5657L10.5568 15.8419Z" fill="white"/>
<path d="M22.3174 26.7485C22.3174 26.7485 17.5253 29.1164 11.0444 28.509C6.75618 28.1041 3.8738 25.921 3.23721 22.9369C2.85702 21.1411 4.27166 17.2855 6.03998 15.3841C7.8083 13.4827 8.03819 13.069 8.03819 13.069C8.03819 13.069 5.32384 14.6534 3.13996 17.3383C1.43353 19.4334 -0.493977 24.6358 1.93746 28.1041C4.14786 31.2555 7.93211 34.5654 15.5182 34.0988C21.4686 33.7291 25.4208 30.9386 25.4208 30.9386L22.3262 26.7573L22.3174 26.7485Z" fill="url(#paint0_linear_8924_89847)"/>
<path d="M12.5841 9.94404C12.5841 9.94404 15.9616 8.23632 20.5503 8.64125C23.583 8.90533 26.5096 11.599 27.0047 13.7028C27.4379 15.5514 26.7925 18.0866 26.0144 19.7503C25.5016 20.8507 23.8129 23.87 23.8129 23.87C23.8129 23.87 26.3681 21.2908 27.659 19.2133C28.6846 17.5496 30.1258 13.2451 27.8977 10.0497C26.3416 7.81377 22.575 4.57436 17.2082 4.95288C12.9996 5.24338 9.94922 6.44931 9.94922 6.44931L12.5929 9.96167L12.5841 9.94404Z" fill="url(#paint1_linear_8924_89847)"/>
<path d="M15.5078 24.8383L22.9966 29.5478L23.1735 37.3999L32.4307 24.4686L15.5078 24.8383Z" fill="white"/>
<path fill-rule="evenodd" clip-rule="evenodd" d="M32.7294 24.3128C32.7886 24.4243 32.7796 24.5595 32.7061 24.6622L23.4489 37.5935C23.3652 37.7104 23.2157 37.7608 23.0778 37.7186C22.94 37.6764 22.8448 37.551 22.8415 37.4075L22.6687 29.7342L15.3318 25.1202C15.2069 25.0417 15.1485 24.891 15.188 24.7493C15.2275 24.6076 15.3556 24.5084 15.5033 24.5052L32.4261 24.1355C32.5527 24.1327 32.6701 24.2013 32.7294 24.3128ZM16.6289 25.1474L23.1782 29.2661C23.2731 29.3258 23.3316 29.4288 23.3341 29.5405L23.4884 36.3897L31.7733 24.8165L16.6289 25.1474Z" fill="white"/>
<path d="M17.3745 12.3032L10.8229 7.9722V1.00037L2.34375 12.3032H17.3745Z" fill="white"/>
<path fill-rule="evenodd" clip-rule="evenodd" d="M10.9273 0.684014C11.0642 0.729288 11.1565 0.856747 11.1565 1.00035V7.79339L17.5585 12.0254C17.6815 12.1068 17.7365 12.2587 17.6939 12.3994C17.6512 12.5402 17.521 12.6365 17.3733 12.6365H2.34262C2.21592 12.6365 2.10008 12.5653 2.04331 12.4525C1.98654 12.3397 1.99856 12.2047 2.07437 12.1037L10.5535 0.800879C10.6398 0.685829 10.7904 0.63874 10.9273 0.684014ZM3.01055 11.9698H16.2638L10.6365 8.24988C10.5431 8.18811 10.4869 8.08385 10.4869 7.97218V2.00368L3.01055 11.9698Z" fill="white"/>
<defs>
<linearGradient id="paint0_linear_8924_89847" x1="0.779225" y1="23.5971" x2="25.4119" y2="23.5971" gradientUnits="userSpaceOnUse">
<stop stop-color="white" stop-opacity="0.4"/>
<stop offset="1" stop-color="white"/>
</linearGradient>
<linearGradient id="paint1_linear_8924_89847" x1="29.1019" y1="14.2781" x2="10.0311" y2="14.4252" gradientUnits="userSpaceOnUse">
<stop stop-color="white" stop-opacity="0.4"/>
<stop offset="1" stop-color="white"/>
</linearGradient>
</defs>
</svg>
