<svg width="178" height="40" viewBox="0 0 178 40" fill="none" xmlns="http://www.w3.org/2000/svg">
<path d="M122.311 11.9998L122.314 25.6665C122.314 28.6041 122.314 29.6665 122.314 33.8926H33.0807C32.453 33.8376 32.0454 33.5852 31.6733 32.9317C30.5281 30.9097 29.2275 28.9782 28.0369 26.9788C27.5225 26.115 26.7784 25.675 25.8434 25.5683C25.2934 25.5036 24.9569 25.2576 24.7046 24.8079C24.3034 24.0962 23.7243 23.433 23.5302 22.6695C23.2908 21.7248 24.3746 21.4109 24.8405 20.7995C28.3863 16.1536 28.6063 10.1878 25.3775 5.27671C25.206 5.01789 24.8113 4.75578 25.0184 4.41932C25.0669 4.34491 25.1284 4.29639 25.1996 4.27051H122.311C122.314 6.33317 122.314 5.72889 122.314 8.6665L122.311 11.9998Z" fill="#616161"/>
<path d="M177.715 9.62173V28.6062C177.715 31.5438 175.279 33.9251 172.273 33.9251H122.285V4.30298H172.273C175.279 4.30298 177.715 6.68411 177.715 9.62173Z" fill="#E4E4E4"/>
<path d="M39.9471 10.0293V13.5557H35.5051V17.1825H39.4003V20.683H35.5051V24.74H40.1218V28.2665H31.8945V10.0293H39.9471Z" fill="white"/>
<path d="M41.3082 10.0293H45.2034L46.4523 15.2025H46.4976L47.7464 10.0293H51.509L48.6199 18.5768L51.6837 28.2665H47.8984L46.3455 22.3815H46.3228L44.8993 28.2665H41.1367L44.1779 18.4248L41.3114 10.0293H41.3082Z" fill="white"/>
<path d="M52.6836 14.9989C52.6836 14.1189 52.8001 13.3456 53.033 12.6792C53.2659 12.0127 53.5895 11.4628 54.0068 11.0292C54.4242 10.5989 54.9159 10.2722 55.4853 10.0522C56.0547 9.83217 56.6727 9.72217 57.3456 9.72217C58.0185 9.72217 58.6365 9.83217 59.2059 10.0522C59.7753 10.2722 60.267 10.5989 60.6844 11.0292C61.1017 11.4595 61.4253 12.0095 61.6582 12.6792C61.8911 13.3489 62.0076 13.9894 62.0076 14.8694L58.3971 15.2836V14.643C58.3971 14.4909 58.3906 14.3162 58.3744 14.1221C58.3582 13.928 58.3194 13.7468 58.2547 13.5753C58.19 13.4071 58.0865 13.2615 57.9474 13.145C57.8082 13.0253 57.6077 12.9671 57.3456 12.9671C57.0836 12.9671 56.8797 13.0253 56.7341 13.145C56.5886 13.2647 56.4818 13.4071 56.4171 13.5753C56.3524 13.7436 56.3136 13.928 56.3071 14.1221C56.3006 14.3162 56.2974 14.4909 56.2974 14.643V23.6467C56.2974 23.7665 56.3006 23.9217 56.3071 24.1158C56.3136 24.31 56.3524 24.4976 56.4171 24.6723C56.4818 24.8502 56.5886 25.0023 56.7341 25.1284C56.8797 25.2546 57.0836 25.3194 57.3456 25.3194C57.6077 25.3194 57.8082 25.2546 57.9474 25.1284C58.0865 25.0023 58.1868 24.8502 58.2547 24.6723C58.3227 24.4944 58.3615 24.31 58.3744 24.1158C58.3874 23.9217 58.3971 23.7665 58.3971 23.6467V22.9123L62.0076 23.2908C62.0076 24.9311 61.5967 26.222 60.7717 27.1602C59.9468 28.0984 58.8047 28.5676 57.3456 28.5676C55.8865 28.5676 54.7639 28.0984 53.9324 27.1602C53.1009 26.222 52.6836 24.9311 52.6836 23.2908V14.9957V14.9989Z" fill="white"/>
<path d="M67.2395 10.0293V16.8525H69.3392V10.0293H72.9497V28.2665H69.3392V20.505H67.2395V28.2665H63.6289V10.0293H67.2395Z" fill="white"/>
<path d="M81.6164 10.0293L84.5702 28.2665H80.7623L80.4356 24.5395H77.8959L77.5238 28.2665H73.8906L76.8024 10.0293H81.6164ZM80.0862 21.3721L79.3129 14.4713H79.1091L78.2712 21.3721H80.0862Z" fill="white"/>
<path d="M88.8563 10.0293L92.0334 19.1042H92.0754V10.0293H95.4789V28.2665H92.551L89.2737 18.8195H89.2316V28.2665H85.8281V10.0293H88.8563Z" fill="white"/>
<path d="M97.5469 14.9989C97.5469 14.1189 97.6633 13.3456 97.8963 12.6792C98.1292 12.0127 98.4528 11.4628 98.8701 11.0292C99.2875 10.5989 99.7792 10.2722 100.349 10.0522C100.918 9.83217 101.536 9.72217 102.209 9.72217C102.82 9.72217 103.412 9.79332 103.982 9.93891C104.551 10.0813 105.046 10.3271 105.47 10.6733C105.894 11.0195 106.234 11.4821 106.489 12.0548C106.745 12.6307 106.871 13.5883 106.871 14.4521L103.435 15.1994V14.4133C103.435 13.9571 103.348 13.6012 103.173 13.3489C102.998 13.0965 102.707 12.9671 102.296 12.9671C102.047 12.9671 101.85 13.0253 101.704 13.145C101.559 13.2647 101.445 13.4103 101.364 13.5883C101.284 13.7662 101.229 13.9474 101.199 14.135C101.17 14.3227 101.154 14.4909 101.154 14.643V23.6467C101.154 23.7664 101.157 23.9217 101.164 24.1158C101.17 24.31 101.209 24.4976 101.274 24.6723C101.339 24.8502 101.445 25.0023 101.591 25.1284C101.737 25.2546 101.94 25.3193 102.202 25.3193C102.976 25.3193 103.364 24.8632 103.364 23.9508V21.1912H102.096V18.218L106.68 18.2018L106.619 24.1223C106.615 24.517 106.541 24.9117 106.399 25.2805C106.111 26.0181 105.512 27.1893 104.438 27.7975C103.425 28.3702 101.944 28.3573 101.077 28.2635C100.423 28.1923 98.1551 27.5452 97.6989 25.2837C97.5728 24.6529 97.5469 23.9864 97.5469 23.2941V14.9989Z" fill="white"/>
<path d="M116.545 10.0293V13.5557H112.103V17.1825H115.998V20.683H112.103V24.74H116.719V28.2665H108.492V10.0293H116.545Z" fill="white"/>
<path d="M129.794 23.4234C129.794 23.6726 129.807 23.9088 129.836 24.1353C129.865 24.3585 129.92 24.559 130.004 24.7337C130.088 24.9084 130.208 25.0443 130.363 25.1446C130.518 25.2449 130.722 25.2934 130.978 25.2934C131.372 25.2934 131.673 25.1608 131.877 24.8955C132.081 24.6302 132.162 24.297 132.184 23.8959C132.269 22.4271 132.168 21.4079 131.414 21.0197C129.137 19.8485 128.694 19.4182 128.364 19.1012C128.03 18.7841 127.733 18.4347 127.464 18.053C127.196 17.6712 126.985 17.2344 126.83 16.7427C126.675 16.2509 126.597 15.6653 126.597 14.9827C126.597 13.2195 126.989 11.9383 127.772 11.1392C128.554 10.3401 129.651 9.94214 131.065 9.94214C132.589 9.94214 133.702 10.3498 134.401 11.1651C135.099 11.9804 135.449 13.0771 135.449 14.4586V14.6559L132.165 15.358V15.1056C132.165 14.8888 132.155 14.6592 132.133 14.4198C132.11 14.1804 132.061 13.9668 131.984 13.7824C131.906 13.598 131.796 13.4459 131.657 13.3197C131.515 13.1936 131.317 13.1321 131.065 13.1321C130.696 13.1321 130.405 13.2518 130.185 13.4944C129.965 13.7371 129.858 14.0639 129.858 14.4812C129.858 14.7465 129.693 15.8821 130.295 16.4386C131.224 17.2991 133.857 18.2115 134.811 19.5315C135.109 19.9456 135.798 20.6929 135.704 23.8894C135.691 24.3229 135.627 24.805 135.471 25.3355C135.316 25.8694 135.054 26.3675 134.689 26.8334C134.32 27.2993 133.834 27.6908 133.226 28.0079C132.618 28.3249 131.858 28.4834 130.939 28.4834C130.02 28.4834 129.337 28.3378 128.758 28.0466C128.179 27.7555 127.717 27.3899 127.37 26.9499C127.024 26.5099 126.778 26.0311 126.629 25.5135C126.481 24.9991 126.406 24.0543 126.406 23.5884L129.794 22.8476V23.417V23.4234Z" fill="#464646"/>
<path d="M140.616 10.0293V23.3456C140.616 23.5818 140.619 23.8148 140.626 24.0445C140.632 24.2742 140.668 24.4715 140.732 24.6397C140.797 24.8079 140.897 24.9438 141.04 25.0441C141.182 25.1444 141.379 25.1962 141.632 25.1962C141.884 25.1962 142.078 25.1444 142.214 25.0441C142.347 24.9438 142.447 24.8079 142.512 24.6397C142.576 24.4715 142.615 24.2709 142.628 24.0445C142.641 23.8148 142.651 23.585 142.651 23.3456V10.0293H146.145V23.2939C146.145 24.9341 145.747 26.225 144.948 27.1632C144.149 28.1015 143.046 28.5706 141.635 28.5706C140.224 28.5706 139.137 28.1015 138.332 27.1632C137.526 26.225 137.125 24.9341 137.125 23.2939V10.0293H140.619H140.616Z" fill="#464646"/>
<path d="M151.286 10.0293L154.217 18.6577H154.256L157.106 10.0293H160.348V28.2665H157.022L156.941 19.4504H156.902L155.304 24.7433H153.169L151.648 19.3695H151.629V28.2665H148.125V10.0293H151.286Z" fill="#464646"/>
<path d="M162.535 14.9989C162.535 14.1189 162.648 13.3456 162.875 12.6792C163.101 12.0127 163.415 11.4628 163.816 11.0292C164.217 10.5989 164.696 10.2722 165.246 10.0522C165.796 9.83217 166.398 9.72217 167.045 9.72217C167.692 9.72217 168.294 9.83217 168.844 10.0522C169.394 10.2722 169.869 10.5989 170.274 11.0292C170.675 11.4595 170.989 12.0095 171.215 12.6792C171.442 13.3489 171.555 14.1221 171.555 14.9989V23.2941C171.555 24.9344 171.157 26.2252 170.358 27.1634C169.559 28.1017 168.456 28.5708 167.045 28.5708C165.635 28.5708 164.548 28.1017 163.742 27.1634C162.936 26.2252 162.535 24.9344 162.535 23.2941V14.9989ZM166.029 23.65C166.029 23.7697 166.032 23.925 166.039 24.1191C166.045 24.3132 166.081 24.5008 166.146 24.6755C166.21 24.8535 166.311 25.0055 166.453 25.1317C166.595 25.2579 166.793 25.3226 167.045 25.3226C167.297 25.3226 167.492 25.2579 167.627 25.1317C167.76 25.0055 167.86 24.8535 167.925 24.6755C167.99 24.4976 168.029 24.3132 168.042 24.1191C168.055 23.925 168.064 23.7697 168.064 23.65V14.6462C168.064 14.4942 168.058 14.3194 168.042 14.1253C168.029 13.9312 167.99 13.75 167.925 13.5786C167.86 13.4103 167.763 13.2647 167.627 13.1483C167.492 13.0286 167.301 12.9704 167.045 12.9704C166.79 12.9704 166.592 13.0286 166.453 13.1483C166.311 13.268 166.21 13.4103 166.146 13.5786C166.081 13.7468 166.045 13.9312 166.039 14.1253C166.032 14.3194 166.029 14.4942 166.029 14.6462V23.65Z" fill="#464646"/>
<path d="M25.3763 13.1061C25.276 16.5646 24.0855 19.787 21.3905 22.3622C20.9408 22.7925 20.9084 23.1031 21.2481 23.5722C21.5296 23.9605 21.7464 24.3972 22.002 24.8048C22.484 25.5716 22.814 26.4483 24.0628 26.2866C24.629 26.2122 25.1563 26.7234 25.496 27.2669C27.1104 29.8454 28.7539 32.4044 30.336 35.0024C31.1674 36.3676 30.8472 37.61 29.5401 38.5288C28.9966 38.9106 28.4563 39.2988 27.8804 39.6256C26.7319 40.2758 25.5607 40.0882 24.8522 38.9915C23.1246 36.3094 21.4714 33.5757 19.8052 30.8548C19.3749 30.1528 19.4137 29.3924 19.8052 28.7001C20.0349 28.2892 19.9832 27.998 19.7437 27.6389C19.2779 26.9368 18.8087 26.2316 18.4238 25.4842C18.1229 24.9051 17.822 24.8372 17.217 25.0701C14.2503 26.2154 11.2512 26.2543 8.30709 25.0216C3.70979 23.0934 1.1604 19.5378 0.419524 14.6849C-0.547819 8.34055 3.66773 1.89592 9.70473 0.381823C17.2429 -1.50757 24.6387 3.83062 25.2922 11.6341C25.3278 12.0547 25.344 12.4753 25.3796 13.1158L25.3763 13.1061Z" fill="#C8C8C8"/>
<path d="M2.10242 12.9865C2.02801 7.0013 6.82266 1.92195 12.6267 1.84107C18.5828 1.76019 23.4907 6.67456 23.5425 12.7633C23.591 18.9168 18.8967 23.9768 13.0764 24.0382C6.99736 24.1029 2.18006 19.2532 2.10242 12.9865Z" fill="white"/>
<path d="M4.2737 14.8209C4.2737 9.92266 8.07513 5.73624 12.8439 5.27683C13.8274 5.18301 13.9407 4.84331 13.656 4.06361C13.6042 3.92449 13.5718 3.7724 13.5557 3.62358C13.5298 3.42299 13.4424 3.18357 13.6689 3.04769C13.8468 2.94093 14.0215 3.0639 14.1704 3.15772C15.7848 4.16065 17.3959 5.16683 19.0103 6.16977C19.3953 6.40917 19.4471 6.68094 19.1915 7.06594C18.1465 8.64798 17.1177 10.2462 16.0792 11.8347C15.9659 12.0094 15.8365 12.2197 15.5971 12.1938C15.3351 12.1647 15.3189 11.9091 15.2639 11.7117C15.2089 11.5079 15.1733 11.3009 15.128 11.0938C14.7851 9.53119 14.7786 9.49559 13.1739 9.79C10.6504 10.2526 8.37925 11.2071 6.73574 13.3003C5.94957 14.3 5.52574 15.4388 5.37369 16.6908C5.3381 16.9852 5.3381 17.3605 4.92399 17.3508C4.59076 17.3411 4.55517 17.0014 4.49693 16.7393C4.34488 16.0308 4.24782 15.3158 4.2737 14.8209Z" fill="#626262"/>
<path d="M21.2757 11.3429C21.0298 16.4514 17.5066 20.2496 12.7055 20.8222C11.8222 20.9258 11.5084 21.1781 11.8514 22.0322C11.9161 22.1972 11.9225 22.3848 11.9452 22.566C12.0131 23.1095 11.8093 23.2486 11.3402 22.9542C9.72902 21.9513 8.1211 20.9419 6.50024 19.9519C6.1023 19.7092 6.04082 19.4634 6.30288 19.0751C7.37699 17.4737 8.43168 15.8626 9.49608 14.2546C9.59314 14.1058 9.67726 13.9149 9.88755 13.9246C10.1626 13.9376 10.1884 14.1867 10.237 14.384C10.3178 14.7043 10.3858 15.0278 10.4472 15.3546C10.6802 16.5678 10.6834 16.5969 11.8675 16.4158C14.8666 15.9596 17.4872 14.8338 19.2083 12.1647C19.7583 11.3106 20.0204 10.3626 20.1627 9.36936C20.1983 9.12024 20.1854 8.7644 20.5639 8.7644C20.9166 8.7644 20.9489 9.08141 20.9877 9.3564C21.0977 10.1296 21.211 10.9029 21.2757 11.3461V11.3429Z" fill="#626262"/>
</svg>
