<svg width="118" height="40" viewBox="0 0 118 40" fill="none" xmlns="http://www.w3.org/2000/svg">
<path d="M0.669577 10.6615C0.65785 10.5001 0.71062 10.3387 0.816161 10.2147C0.871863 10.1571 0.93929 10.111 1.01551 10.0821C1.09174 10.0533 1.17089 10.0389 1.25298 10.0447H14.469C14.554 10.0389 14.6391 10.0533 14.7182 10.0821C14.7974 10.111 14.8677 10.1571 14.9293 10.2176C15.0378 10.3502 15.0935 10.5174 15.0847 10.6874V14.008C15.0817 14.1665 15.026 14.3222 14.9293 14.449C14.8736 14.5182 14.8062 14.5729 14.727 14.6104C14.6478 14.6479 14.5599 14.668 14.4719 14.6652H5.82934V18.0001H12.496C12.6455 17.9944 12.7921 18.0347 12.9182 18.1183C12.9768 18.1673 13.0208 18.2307 13.0501 18.2999C13.0794 18.3691 13.0882 18.4469 13.0794 18.5218V21.3812C13.0794 21.4879 13.0471 21.5916 12.9885 21.6781C12.9299 21.7675 12.8449 21.8366 12.7452 21.877C12.6719 21.9087 12.5898 21.9231 12.5107 21.9173H5.844V25.359H14.8062C14.8882 25.3474 14.9733 25.3561 15.0524 25.382C15.1316 25.4079 15.2019 25.4541 15.2606 25.5146C15.3192 25.5751 15.3632 25.6472 15.3896 25.725C15.4159 25.8057 15.4218 25.8893 15.4101 25.97V29.3424C15.4101 29.3886 15.3984 29.4347 15.3808 29.4779C15.3632 29.5211 15.3339 29.5586 15.3016 29.5903C15.3016 29.8353 15.0876 29.9622 14.7622 29.9622H1.26764C1.11226 29.9708 0.956884 29.9218 0.836685 29.8209C0.780983 29.7633 0.73701 29.697 0.710625 29.622C0.684239 29.5471 0.672511 29.4664 0.681306 29.3886V10.6615H0.669577ZM16.7352 29.6422L16.9492 29.2329C17.0225 29.0974 17.1134 28.9562 17.2072 28.815L23.2084 19.7843L20.1799 15.1869L17.1427 10.5952C17.0958 10.5318 17.0548 10.4626 17.0166 10.3934C16.9873 10.3271 16.9668 10.258 16.958 10.183C16.958 10.1081 17.0254 10.0793 17.1134 10.0793C17.2043 10.085 17.2922 10.0619 17.3714 10.0187H22.0093C22.1735 10.0187 22.3347 10.0677 22.4725 10.1599C22.6103 10.2522 22.7188 10.3819 22.7862 10.5347L26.0521 15.4751L29.3561 10.5404C29.4206 10.3934 29.5232 10.2666 29.6522 10.1773C29.7812 10.0879 29.9366 10.0331 30.0949 10.0274H34.8061C34.8823 10.0331 34.9556 10.0475 35.0289 10.0706C35.0553 10.0793 35.0788 10.0994 35.0934 10.1196C35.1081 10.1427 35.1169 10.1686 35.1169 10.1974C35.111 10.3242 35.0582 10.4482 34.9703 10.5404L28.8753 19.7815L35.1344 29.1868C35.2136 29.2934 35.281 29.4087 35.3338 29.5298C35.3807 29.6105 35.4042 29.6999 35.4012 29.7921C35.4012 29.9276 35.3191 29.9939 35.1579 29.9939H30.3881C30.2385 29.9939 30.092 29.9478 29.9747 29.8584C29.8457 29.7633 29.7431 29.6393 29.6786 29.4923L26.055 24.082L22.4696 29.4923C22.4051 29.6365 22.3025 29.7633 22.1735 29.8584C22.0533 29.9478 21.9067 29.9939 21.7601 29.9939H16.9756C16.9082 29.9939 16.8437 29.9737 16.7909 29.9333C16.7645 29.9132 16.744 29.8872 16.7293 29.8584C16.7147 29.8296 16.7088 29.795 16.7088 29.7633C16.7088 29.7229 16.7176 29.6797 16.7381 29.6451L16.7352 29.6422ZM38.1042 10.6327C38.0984 10.4799 38.1511 10.33 38.2508 10.2147C38.3065 10.1571 38.374 10.111 38.4502 10.0821C38.5264 10.0533 38.6056 10.0389 38.6876 10.0447H43.05C43.1848 10.0447 43.3168 10.0793 43.434 10.1427C43.5777 10.2147 43.7008 10.3243 43.7829 10.4626C44.9087 12.2987 46.0286 14.106 47.1368 15.8873L50.5141 21.3149V10.552C50.5463 10.405 50.6343 10.2753 50.7574 10.1859C50.86 10.0966 50.9919 10.0504 51.1268 10.0504H54.9262C55.0963 10.0476 55.2605 10.1023 55.3924 10.2061C55.4569 10.258 55.5038 10.3243 55.536 10.4021C55.5683 10.477 55.5829 10.5577 55.5771 10.6413V29.4721C55.5829 29.5471 55.5741 29.622 55.5448 29.6883C55.5155 29.7575 55.4715 29.8181 55.4129 29.8671C55.2868 29.9564 55.1315 30.0025 54.9761 29.9939H50.6958C50.5786 29.9939 50.4671 29.9535 50.3851 29.8757C50.2825 29.7777 50.1916 29.671 50.1124 29.5557L46.6003 23.7131C45.4305 21.7646 44.2579 19.8161 43.0822 17.8676V29.4058C43.094 29.5644 43.0471 29.72 42.9474 29.8469C42.8829 29.9016 42.8067 29.9449 42.7216 29.9708C42.6396 29.9968 42.5516 30.0054 42.4666 29.9968H38.6818C38.5997 30.0054 38.5147 29.9968 38.4384 29.9651C38.3622 29.9362 38.2919 29.8872 38.2391 29.8238C38.1424 29.7114 38.0925 29.5673 38.0984 29.4203V10.6327H38.1042ZM99.781 20.0351C99.781 20.9488 99.6608 21.8597 99.4175 22.7446C99.1829 23.5747 98.837 24.3703 98.3885 25.1111C97.506 26.5811 96.2483 27.8032 94.7444 28.6564C93.1759 29.524 91.4052 29.9766 89.6051 29.9708H83.0352C82.8857 29.9708 82.7362 29.9362 82.6043 29.8671C82.4782 29.7921 82.4196 29.6422 82.4196 29.403V10.6615C82.4196 10.5722 82.4342 10.4857 82.4665 10.4021C82.4987 10.3214 82.5486 10.2464 82.6131 10.183C82.6688 10.1196 82.7421 10.0706 82.8212 10.0389C82.9004 10.0072 82.9854 9.99566 83.0733 10.0014H89.6432C90.555 10.0014 91.4638 10.1167 92.3463 10.3531C93.1935 10.5779 94.0085 10.9123 94.7678 11.3446C95.5154 11.7741 96.2073 12.293 96.8259 12.8896C97.4445 13.4892 97.981 14.1665 98.4178 14.9044C98.8634 15.6596 99.2123 16.4667 99.4468 17.3083C99.6843 18.1961 99.7957 19.1127 99.781 20.0322V20.0351ZM87.5823 14.8468V25.1831H89.3002L89.8866 25.1399C90.5345 25.088 91.1677 24.9208 91.7541 24.647C92.3081 24.376 92.8095 24.0128 93.2346 23.5718C93.6714 23.1193 94.0173 22.5861 94.2489 22.0038C94.4981 21.3812 94.6242 20.7125 94.6183 20.0409C94.6271 19.3491 94.4893 18.6631 94.2225 18.0261C93.9528 17.3862 93.5541 16.8097 93.0499 16.3254C92.5661 15.8614 91.9945 15.4982 91.3671 15.2561C90.7133 14.9938 90.0126 14.8612 89.309 14.8669L87.5823 14.8439V14.8468ZM103.261 10.6586C103.249 10.4972 103.302 10.3358 103.41 10.2118C103.466 10.1542 103.534 10.1081 103.61 10.0793C103.686 10.0504 103.768 10.036 103.847 10.0418H117.069C117.151 10.036 117.236 10.0476 117.315 10.0793C117.395 10.1081 117.465 10.1542 117.521 10.2147C117.635 10.3444 117.694 10.5145 117.685 10.6846V14.0051C117.685 14.1665 117.626 14.3222 117.521 14.4461C117.465 14.5153 117.392 14.5701 117.312 14.6046C117.23 14.6392 117.142 14.6536 117.054 14.6479H108.418V17.9828H115.084C115.234 17.9771 115.383 18.0174 115.507 18.101C115.565 18.15 115.609 18.2134 115.638 18.2826C115.668 18.3518 115.677 18.4296 115.671 18.5046V21.3783C115.671 21.5109 115.618 21.6406 115.521 21.7357C115.471 21.7963 115.407 21.8453 115.331 21.877C115.257 21.9087 115.178 21.9202 115.096 21.9173H108.429V25.359H117.392C117.474 25.3474 117.559 25.3561 117.638 25.382C117.717 25.4079 117.787 25.454 117.846 25.5117C117.905 25.5722 117.949 25.6443 117.975 25.725C118.001 25.8057 118.007 25.8893 117.996 25.97V29.3424C117.996 29.4347 117.952 29.524 117.884 29.5903C117.884 29.8353 117.67 29.9651 117.336 29.9651H103.847C103.771 29.9708 103.692 29.9593 103.619 29.9362C103.545 29.9132 103.478 29.8728 103.419 29.8238C103.364 29.7662 103.32 29.6999 103.293 29.6249C103.267 29.55 103.255 29.4693 103.264 29.3915V10.6644L103.261 10.6586Z" fill="white"/>
<path fill-rule="evenodd" clip-rule="evenodd" d="M75.5661 11.9469L68.5287 22.3131L65.7522 20.3066C65.2937 19.9757 64.7407 20.2535 64.841 20.7617L66.3224 28.1907C66.394 28.5512 66.7751 28.826 67.1304 28.7728L74.4085 27.6676C74.9042 27.5908 74.9672 26.9614 74.5116 26.6304L71.7322 24.624L78.1134 15.224C79.9042 18.7493 79.7695 23.1583 77.4028 26.6422C74.0245 31.6185 67.374 32.8271 62.5487 29.3431C57.7234 25.8592 56.5515 19.0005 59.9297 14.0243C63.308 9.048 69.9585 7.83938 74.7838 11.3234C75.056 11.5214 75.3168 11.7282 75.5661 11.9439V11.9469Z" fill="white"/>
<path fill-rule="evenodd" clip-rule="evenodd" d="M71.8081 11.9517C71.7345 11.5734 71.3431 11.2819 70.9782 11.3408L63.5031 12.5004C62.9911 12.5811 62.9293 13.2415 63.3972 13.5887L66.2489 15.694L59.3359 26.0932C60.0599 27.3365 60.9928 28.4372 62.0846 29.3333L69.5362 18.1186L72.3879 20.2239C72.8587 20.5711 73.4267 20.2797 73.3237 19.7464L71.8022 11.9517H71.8081Z" fill="#8F8F8F"/>
</svg>
