<svg width="150" height="40" viewBox="0 0 150 40" fill="none" xmlns="http://www.w3.org/2000/svg">
<g clip-path="url(#clip0_6795_158137)">
<path d="M52.5766 13.8644V20.5708H50.4169L50.3206 19.3013C49.0843 20.2993 47.4706 20.8023 45.4635 20.8023C43.9381 20.8023 42.6054 20.5468 41.4815 20.0359C40.3575 19.5249 39.4824 18.7904 38.8723 17.8403C38.2621 16.8902 37.957 15.7725 37.957 14.4791V14.2316C37.957 12.9622 38.2621 11.8525 38.8803 10.8944C39.4985 9.93636 40.3735 9.19386 41.5136 8.67492C42.6536 8.14799 43.9783 7.88452 45.4795 7.88452C46.8845 7.88452 48.1128 8.06815 49.1886 8.44339C50.2644 8.81863 51.0833 9.34556 51.6694 10.0401C52.2554 10.7347 52.5444 11.5251 52.5444 12.4273V12.5231H50.1199V12.4273C50.1199 12.0121 49.9112 11.6209 49.5017 11.2617C49.0923 10.9024 48.5303 10.615 47.8238 10.4074C47.1173 10.1998 46.3466 10.096 45.5036 10.096C43.8819 10.096 42.6295 10.4553 41.7303 11.1659C40.8312 11.8844 40.3816 12.8904 40.3816 14.1997V14.5191C40.3816 15.8523 40.8151 16.8663 41.6902 17.5609C42.5653 18.2555 43.8337 18.6068 45.5036 18.6068C46.5072 18.6068 47.4063 18.463 48.2011 18.1676C48.9959 17.8722 49.6543 17.4731 50.1922 16.9701V16.004H43.7936V13.8724H52.5846L52.5766 13.8644Z" fill="white"/>
<path d="M65.6871 16.6027H56.9202C57.0085 17.2734 57.3377 17.7923 57.9077 18.1596C58.4777 18.5268 59.2324 18.7104 60.1717 18.7104C61.0468 18.7104 61.7613 18.5827 62.3152 18.3272C62.8692 18.0717 63.1662 17.7284 63.2305 17.2973H65.6951C65.5667 18.415 65.0208 19.2773 64.0574 19.8841C63.094 20.4908 61.8014 20.7942 60.1717 20.7942C59.0156 20.7942 58.0121 20.6026 57.1611 20.2114C56.3101 19.8282 55.6598 19.2773 55.2022 18.5588C54.7445 17.8402 54.5117 17.0019 54.5117 16.0439V15.6606C54.5117 14.6866 54.7445 13.8323 55.2022 13.1138C55.6598 12.3953 56.3181 11.8364 57.1691 11.4532C58.0201 11.07 59.0236 10.8704 60.1717 10.8704C61.9058 10.8704 63.2545 11.2855 64.234 12.1238C65.2054 12.9621 65.6951 14.1118 65.6951 15.5808V16.5868L65.6871 16.6027ZM58.0602 13.4332C57.5143 13.7365 57.153 14.1597 56.9925 14.7026H63.2064C63.0538 14.1597 62.7086 13.7365 62.1707 13.4332C61.6328 13.1298 60.9584 12.9781 60.1476 12.9781C59.3367 12.9781 58.6142 13.1298 58.0683 13.4332H58.0602Z" fill="white"/>
<path d="M71.7222 13.1219V17.3054C71.7222 17.7126 71.8346 18.0239 72.0675 18.2395C72.3003 18.4551 72.6294 18.5588 73.063 18.5588H75.3189V20.5708H72.8542C71.7945 20.5708 70.9595 20.2833 70.3494 19.7165C69.7392 19.1496 69.4342 18.3672 69.4342 17.3772V13.1219H66.0703V11.11H68.8642C69.105 11.11 69.2736 11.07 69.3619 10.9742C69.4502 10.8864 69.4984 10.7188 69.4984 10.4792V8.5791H71.7383V11.11H75.905V13.1219H71.7383H71.7222Z" fill="white"/>
<path d="M89.5004 15.2217C89.8215 15.6688 89.9821 16.2037 89.9821 16.8265V17.034C89.9821 17.7446 89.7974 18.3673 89.4201 18.8943C89.0428 19.4292 88.5129 19.8363 87.8225 20.1317C87.132 20.4271 86.3292 20.5709 85.414 20.5709H77.7148V8.10815H85.0367C86.4737 8.10815 87.5977 8.38759 88.3925 8.95444C89.1873 9.52129 89.5887 10.3117 89.5887 11.3416V11.5492C89.5887 12.6909 89.107 13.5611 88.1356 14.1679C88.7377 14.4233 89.1953 14.7746 89.5084 15.2217H89.5004ZM80.0992 10.2318V13.2178H85.0126C85.7351 13.2178 86.273 13.106 86.6263 12.8745C86.9795 12.6429 87.1481 12.2996 87.1481 11.8286V11.621C87.1481 11.1659 86.9634 10.8226 86.6022 10.5831C86.2409 10.3516 85.711 10.2318 85.0286 10.2318H80.0992ZM87.5495 16.7466C87.5495 16.2756 87.3729 15.9243 87.0116 15.6928C86.6584 15.4612 86.1044 15.3415 85.3658 15.3415H80.0912V18.4392H85.3658C86.0562 18.4392 86.5861 18.3114 86.9715 18.048C87.3568 17.7845 87.5415 17.4252 87.5415 16.9542V16.7466H87.5495Z" fill="white"/>
<path d="M93.4508 19.8921C92.929 19.4371 92.6641 18.7824 92.6641 17.9361V7.34961H94.9602V17.5289C94.9602 17.8962 95.0485 18.1597 95.2251 18.3193C95.4017 18.479 95.6988 18.5589 96.1002 18.5589H96.9191V20.5708H95.6747C94.7033 20.5708 93.9646 20.3392 93.4348 19.8842L93.4508 19.8921Z" fill="white"/>
<path d="M100.69 20.2194C99.8226 19.8362 99.1563 19.2773 98.6906 18.5588C98.225 17.8402 97.9922 16.9859 97.9922 16.0119V15.7245C97.9922 14.7345 98.225 13.8803 98.6826 13.1457C99.1402 12.4192 99.8066 11.8604 100.674 11.4612C101.541 11.07 102.568 10.8704 103.748 10.8704C104.929 10.8704 105.932 11.07 106.783 11.4612C107.634 11.8524 108.292 12.4112 108.75 13.1457C109.208 13.8723 109.441 14.7345 109.441 15.7245V16.0119C109.441 16.9859 109.208 17.8322 108.75 18.5588C108.292 19.2853 107.634 19.8362 106.783 20.2194C105.932 20.6026 104.921 20.8022 103.748 20.8022C102.576 20.8022 101.557 20.6106 100.69 20.2194ZM106.181 17.9919C106.775 17.5209 107.072 16.8582 107.072 16.0039V15.7165C107.072 14.8463 106.775 14.1677 106.197 13.6807C105.611 13.2016 104.792 12.9621 103.732 12.9621C102.673 12.9621 101.822 13.2016 101.236 13.6727C100.65 14.1437 100.369 14.8303 100.369 15.7165V16.0039C100.369 16.8502 100.666 17.5129 101.26 17.9919C101.854 18.4709 102.681 18.7025 103.732 18.7025C104.784 18.7025 105.595 18.4629 106.189 17.9919H106.181Z" fill="white"/>
<path d="M113.759 20.2194C112.908 19.8362 112.25 19.2773 111.784 18.5588C111.319 17.8402 111.086 16.9939 111.086 16.0279V15.7245C111.086 14.7345 111.319 13.8803 111.776 13.1457C112.234 12.4192 112.892 11.8604 113.751 11.4612C114.61 11.07 115.622 10.8704 116.778 10.8704C117.838 10.8704 118.785 11.046 119.628 11.4053C120.471 11.7566 121.121 12.2516 121.595 12.8903C122.069 13.521 122.301 14.2395 122.301 15.0379V15.0938H119.933V15.0379C119.933 14.4311 119.636 13.9361 119.058 13.5449C118.472 13.1617 117.717 12.9621 116.786 12.9621C115.726 12.9621 114.907 13.2016 114.329 13.6807C113.751 14.1597 113.462 14.8463 113.462 15.7325V15.996C113.462 16.8582 113.751 17.5209 114.329 17.9919C114.907 18.4629 115.726 18.6945 116.786 18.6945C117.717 18.6945 118.472 18.5029 119.058 18.1276C119.644 17.7444 119.933 17.2574 119.933 16.6426V16.5868H122.301V16.6426C122.301 17.457 122.069 18.1755 121.611 18.7983C121.153 19.429 120.503 19.916 119.668 20.2593C118.833 20.6106 117.87 20.7782 116.77 20.7782C115.614 20.7782 114.602 20.5866 113.751 20.1954L113.759 20.2194Z" fill="white"/>
<path d="M135.718 20.2514V20.5708H132.867L129.199 16.6348L126.87 18.5748V20.5708H124.574V7.34961H126.87V15.7645L132.49 11.11H135.493V11.4373L130.981 15.1977L135.718 20.2514Z" fill="white"/>
<path d="M44.7658 30.5264C44.9665 30.7739 45.0709 31.0773 45.0709 31.4286V31.5484C45.0709 32.0833 44.8622 32.5064 44.4527 32.8178C44.0433 33.1291 43.4893 33.2888 42.8069 33.2888H38.9453V26.814H42.5902C43.3047 26.814 43.8586 26.9577 44.26 27.2371C44.6534 27.5165 44.8541 27.9157 44.8541 28.4187V28.5464C44.8541 28.8658 44.7739 29.1532 44.6053 29.3927C44.4367 29.6402 44.2038 29.8318 43.8907 29.9755C44.2761 30.0953 44.5651 30.2789 44.7658 30.5264ZM39.7 27.4926V29.6881H42.5821C43.0719 29.6881 43.4492 29.6003 43.7061 29.4167C43.963 29.2331 44.0915 28.9776 44.0915 28.6343V28.5145C44.0915 28.1952 43.963 27.9397 43.6981 27.764C43.4331 27.5884 43.0638 27.5006 42.5902 27.5006H39.7V27.4926ZM44.3002 31.4126C44.3002 31.0693 44.1717 30.8059 43.9148 30.6302C43.6579 30.4466 43.2806 30.3588 42.7909 30.3588H39.7V32.6102H42.7909C43.2645 32.6102 43.6419 32.5144 43.8988 32.3228C44.1557 32.1312 44.2922 31.8677 44.2922 31.5324V31.4126H44.3002Z" fill="white"/>
<path d="M46.8047 32.0514V26.4148H47.5433V31.9316C47.5433 32.1791 47.5995 32.3627 47.7199 32.4745C47.8403 32.5863 48.041 32.6422 48.314 32.6422H48.7395V33.2809H48.1856C47.2623 33.2809 46.8047 32.8737 46.8047 32.0434V32.0514Z" fill="white"/>
<path d="M50.7945 33.0974C50.3529 32.8978 50.0158 32.6184 49.7829 32.2511C49.5501 31.8839 49.4297 31.4527 49.4297 30.9577V30.7661C49.4297 30.2632 49.5501 29.832 49.7829 29.4568C50.0158 29.0816 50.3529 28.8021 50.7945 28.6025C51.228 28.4029 51.7499 28.3071 52.344 28.3071C52.9381 28.3071 53.4358 28.4029 53.8693 28.6105C54.3029 28.8101 54.6401 29.0975 54.8729 29.4648C55.1057 29.832 55.2261 30.2711 55.2261 30.7661V30.9577C55.2261 31.4527 55.1057 31.8839 54.8729 32.2511C54.6401 32.6184 54.3029 32.9058 53.8693 33.0974C53.4358 33.297 52.93 33.3928 52.344 33.3928C51.7579 33.3928 51.2441 33.297 50.8025 33.0974H50.7945ZM53.8934 32.2511C54.2707 31.9318 54.4634 31.5006 54.4634 30.9577V30.7661C54.4634 30.2153 54.2707 29.7761 53.8934 29.4568C53.5161 29.1374 52.9942 28.9778 52.3279 28.9778C51.6616 28.9778 51.1237 29.1374 50.7463 29.4488C50.369 29.7682 50.1843 30.1993 50.1843 30.7582V30.9498C50.1843 31.4927 50.377 31.9238 50.7624 32.2431C51.1477 32.5625 51.6696 32.7142 52.3279 32.7142C52.9862 32.7142 53.5081 32.5545 53.8934 32.2431V32.2511Z" fill="white"/>
<path d="M57.5955 33.0973C57.162 32.8977 56.8248 32.6183 56.5839 32.2511C56.3431 31.8838 56.2227 31.4527 56.2227 30.9657V30.7661C56.2227 30.2711 56.3431 29.8399 56.5759 29.4647C56.8087 29.0975 57.1459 28.81 57.5875 28.6025C58.021 28.4029 58.5348 28.2991 59.1289 28.2991C59.6588 28.2991 60.1324 28.3869 60.5499 28.5625C60.9674 28.7382 61.2965 28.9777 61.5374 29.297C61.7782 29.6164 61.8987 29.9597 61.8987 30.3509V30.3988H61.144V30.3509C61.144 30.0874 61.0557 29.8559 60.8791 29.6483C60.7024 29.4408 60.4616 29.2811 60.1565 29.1613C59.8514 29.0416 59.5062 28.9857 59.1209 28.9857C58.4545 28.9857 57.9247 29.1454 57.5473 29.4647C57.17 29.7841 56.9773 30.2232 56.9773 30.782V30.9577C56.9773 31.5006 57.17 31.9317 57.5473 32.2511C57.9247 32.5704 58.4545 32.7221 59.1209 32.7221C59.5062 32.7221 59.8514 32.6662 60.1565 32.5465C60.4616 32.4267 60.7024 32.267 60.8791 32.0594C61.0557 31.8519 61.136 31.6203 61.136 31.3569V31.309H61.8906V31.3569C61.8906 31.7481 61.7702 32.1073 61.5374 32.4107C61.3046 32.7221 60.9754 32.9616 60.5579 33.1293C60.1405 33.2969 59.6588 33.3847 59.1209 33.3847C58.5348 33.3847 58.029 33.2889 57.5955 33.0893V33.0973Z" fill="white"/>
<path d="M68.8012 33.1771V33.2888H67.9021L65.4374 30.9496L64.0003 32.0194V33.2888H63.2617V26.4148H64.0003V31.1332L67.7254 28.4187H68.6808V28.5305L66.0074 30.5264L68.8093 33.185L68.8012 33.1771Z" fill="white"/>
<path d="M70.6736 33.0973C70.2401 32.8977 69.9029 32.6183 69.6621 32.2511C69.4212 31.8838 69.3008 31.4527 69.3008 30.9657V30.7661C69.3008 30.2711 69.4212 29.8399 69.654 29.4647C69.8868 29.0975 70.224 28.81 70.6656 28.6025C71.0991 28.4029 71.6129 28.2991 72.207 28.2991C72.7369 28.2991 73.2106 28.3869 73.628 28.5625C74.0455 28.7382 74.3747 28.9777 74.6155 29.297C74.8564 29.6164 74.9768 29.9597 74.9768 30.3509V30.3988H74.2221V30.3509C74.2221 30.0874 74.1338 29.8559 73.9572 29.6483C73.7806 29.4408 73.5397 29.2811 73.2346 29.1613C72.9296 29.0416 72.5844 28.9857 72.199 28.9857C71.5326 28.9857 71.0028 29.1454 70.6255 29.4647C70.2481 29.7841 70.0554 30.2232 70.0554 30.782V30.9577C70.0554 31.5006 70.2481 31.9317 70.6255 32.2511C71.0028 32.5704 71.5326 32.7221 72.199 32.7221C72.5844 32.7221 72.9296 32.6662 73.2346 32.5465C73.5397 32.4267 73.7806 32.267 73.9572 32.0594C74.1338 31.8519 74.2141 31.6203 74.2141 31.3569V31.309H74.9688V31.3569C74.9688 31.7481 74.8483 32.1073 74.6155 32.4107C74.3827 32.7221 74.0535 32.9616 73.6361 33.1293C73.2186 33.2969 72.7369 33.3847 72.199 33.3847C71.6129 33.3847 71.1072 33.2889 70.6736 33.0893V33.0973Z" fill="white"/>
<path d="M81.0206 28.9457C81.4621 29.3689 81.6789 29.9756 81.6789 30.774V33.2889H80.9403V30.774C80.9403 30.1992 80.7797 29.7521 80.4506 29.4487C80.1214 29.1453 79.6477 28.9936 79.0295 28.9936C78.6201 28.9936 78.2347 29.0894 77.8815 29.281C77.5282 29.4727 77.2553 29.7281 77.0706 30.0395V33.2969H76.332V26.4229H77.0706V29.1533C77.3275 28.8819 77.6326 28.6743 77.9778 28.5306C78.3231 28.3869 78.7004 28.315 79.0938 28.315C79.9367 28.315 80.571 28.5226 81.0125 28.9457H81.0206Z" fill="white"/>
<path d="M89.5774 32.6423V33.281H88.9753C88.6541 33.281 88.3812 33.2091 88.1724 33.0734C87.9637 32.9377 87.8192 32.7381 87.755 32.4906C87.201 33.0893 86.4062 33.3847 85.3706 33.3847C84.6721 33.3847 84.1342 33.265 83.7649 33.0335C83.3956 32.8019 83.2109 32.4666 83.2109 32.0195C83.2109 31.2291 83.805 30.7741 85.0013 30.6463L87.7228 30.3589C87.7228 29.9038 87.5623 29.5605 87.2492 29.329C86.928 29.0975 86.4624 28.9857 85.8522 28.9857C85.2903 28.9857 84.8327 29.0895 84.4955 29.305C84.1583 29.5206 83.9817 29.792 83.9817 30.1353V30.1912H83.2591V30.1353C83.2591 29.7761 83.3715 29.4647 83.5883 29.1853C83.805 28.9058 84.1101 28.6903 84.5035 28.5306C84.8969 28.3789 85.3545 28.2991 85.8683 28.2991C86.6872 28.2991 87.3295 28.4827 87.7871 28.842C88.2447 29.2012 88.4695 29.7122 88.4695 30.3589V32.0036C88.4695 32.2031 88.5257 32.3548 88.6461 32.4666C88.7665 32.5784 88.9351 32.6263 89.1599 32.6263H89.5934L89.5774 32.6423ZM86.7996 32.4826C87.209 32.299 87.5141 32.0435 87.7148 31.7161V30.9736L85.1458 31.2371C84.7363 31.285 84.4312 31.3728 84.2386 31.5006C84.0459 31.6283 83.9495 31.804 83.9495 32.0275C83.9495 32.5065 84.4232 32.746 85.3706 32.746C85.9165 32.746 86.3982 32.6582 86.8076 32.4746L86.7996 32.4826Z" fill="white"/>
<path d="M90.6564 27.3888C90.5601 27.293 90.5039 27.1732 90.5039 27.0295C90.5039 26.8858 90.5521 26.766 90.6564 26.6782C90.7608 26.5904 90.8812 26.5425 91.0338 26.5425C91.1863 26.5425 91.3148 26.5904 91.4111 26.6782C91.5074 26.766 91.5636 26.8858 91.5636 27.0295C91.5636 27.1732 91.5155 27.293 91.4111 27.3888C91.3148 27.4846 91.1863 27.5325 91.0338 27.5325C90.8812 27.5325 90.7528 27.4846 90.6564 27.3888ZM91.4031 28.4187V33.2888H90.6645V28.4187H91.4031Z" fill="white"/>
<path d="M98.0284 28.9378C98.4619 29.3529 98.6867 29.9677 98.6867 30.7661V33.281H97.9481V30.7661C97.9481 30.1832 97.7875 29.7362 97.4584 29.4328C97.1292 29.1294 96.6555 28.9777 96.0374 28.9777C95.6199 28.9777 95.2345 29.0735 94.8813 29.2571C94.528 29.4408 94.2631 29.6962 94.0784 30.0156V33.281H93.3398V28.4108H94.0222L94.0544 29.1533C94.3032 28.8819 94.6083 28.6743 94.9616 28.5226C95.3148 28.3709 95.6921 28.2991 96.1016 28.2991C96.9446 28.2991 97.5868 28.5067 98.0284 28.9298V28.9378Z" fill="white"/>
<path d="M109.884 26.8139V27.4925H105.22V29.704H109.683V30.3826H105.22V32.6021H109.884V33.2808H104.465V26.8059H109.884V26.8139Z" fill="white"/>
<path d="M116.771 33.177V33.2888H115.904L113.905 31.2609L111.906 33.2888H111.039V33.177L113.383 30.8298L111.079 28.5305V28.4187H111.93L113.897 30.3907L115.88 28.4187H116.707V28.5305L114.403 30.8298L116.755 33.177H116.771Z" fill="white"/>
<path d="M122.354 28.6105C122.787 28.8101 123.124 29.0975 123.365 29.4648C123.598 29.832 123.718 30.2632 123.718 30.7582V30.9338C123.718 31.4288 123.598 31.8599 123.357 32.2352C123.116 32.6104 122.779 32.8898 122.354 33.0974C121.92 33.297 121.414 33.4008 120.828 33.4008C120.435 33.4008 120.057 33.3369 119.712 33.2012C119.367 33.0655 119.062 32.8818 118.805 32.6343V34.9656H118.066V28.4189H118.749L118.781 29.0975C119.03 28.85 119.335 28.6504 119.688 28.5147C120.041 28.379 120.419 28.3071 120.828 28.3071C121.414 28.3071 121.92 28.4029 122.354 28.6105ZM122.956 30.7582C122.956 30.2073 122.763 29.7682 122.386 29.4568C122.008 29.1374 121.478 28.9858 120.812 28.9858C120.387 28.9858 119.993 29.0656 119.64 29.2253C119.279 29.3849 118.998 29.6005 118.805 29.864V31.836C119.006 32.1074 119.287 32.323 119.64 32.4827C120.001 32.6423 120.395 32.7222 120.812 32.7222C121.478 32.7222 122.008 32.5625 122.386 32.2511C122.763 31.9318 122.956 31.5006 122.956 30.9418V30.7661V30.7582Z" fill="white"/>
<path d="M125.266 32.0514V26.4148H126.004V31.9316C126.004 32.1791 126.06 32.3627 126.181 32.4745C126.301 32.5863 126.502 32.6422 126.775 32.6422H127.2V33.2809H126.646C125.723 33.2809 125.266 32.8737 125.266 32.0434V32.0514Z" fill="white"/>
<path d="M129.248 33.0974C128.806 32.8978 128.469 32.6184 128.236 32.2511C128.003 31.8839 127.883 31.4527 127.883 30.9577V30.7661C127.883 30.2632 128.003 29.832 128.236 29.4568C128.469 29.0816 128.806 28.8021 129.248 28.6025C129.681 28.4029 130.203 28.3071 130.797 28.3071C131.391 28.3071 131.889 28.4029 132.322 28.6105C132.756 28.8101 133.093 29.0975 133.326 29.4648C133.559 29.832 133.679 30.2711 133.679 30.7661V30.9577C133.679 31.4527 133.559 31.8839 133.326 32.2511C133.093 32.6184 132.756 32.9058 132.322 33.0974C131.889 33.297 131.383 33.3928 130.797 33.3928C130.211 33.3928 129.697 33.297 129.256 33.0974H129.248ZM132.347 32.2511C132.724 31.9318 132.917 31.5006 132.917 30.9577V30.7661C132.917 30.2153 132.724 29.7761 132.347 29.4568C131.969 29.1374 131.447 28.9778 130.781 28.9778C130.115 28.9778 129.577 29.1374 129.199 29.4488C128.822 29.7682 128.637 30.1993 128.637 30.7582V30.9498C128.637 31.4927 128.83 31.9238 129.216 32.2431C129.601 32.5625 130.123 32.7142 130.781 32.7142C131.439 32.7142 131.961 32.5545 132.347 32.2431V32.2511Z" fill="white"/>
<path d="M138.751 28.4187V29.0734H137.691C137.306 29.0734 136.969 29.1452 136.672 29.281C136.375 29.4167 136.142 29.6163 135.965 29.8638V33.2888H135.227V28.4187H135.909L135.941 29.0814C136.158 28.8658 136.423 28.6981 136.744 28.5864C137.057 28.4746 137.402 28.4187 137.78 28.4187H138.751Z" fill="white"/>
<path d="M144.839 31.0935H139.958C139.974 31.5965 140.174 31.9957 140.552 32.2911C140.929 32.5785 141.427 32.7222 142.069 32.7222C142.655 32.7222 143.121 32.6184 143.49 32.4029C143.851 32.1953 144.044 31.9159 144.068 31.5646H144.855C144.815 32.1314 144.55 32.5785 144.052 32.9059C143.554 33.2332 142.896 33.3929 142.077 33.3929C141.491 33.3929 140.985 33.2971 140.56 33.0975C140.126 32.8979 139.797 32.6184 139.564 32.2512C139.331 31.8839 139.211 31.4528 139.211 30.9658V30.7502C139.211 30.2552 139.331 29.8241 139.564 29.4569C139.797 29.0896 140.134 28.8022 140.56 28.6106C140.993 28.411 141.499 28.3152 142.077 28.3152C142.655 28.3152 143.129 28.411 143.554 28.6026C143.98 28.7942 144.301 29.0736 144.526 29.4329C144.75 29.7922 144.863 30.2233 144.863 30.7183V31.0935H144.839ZM140.584 29.377C140.214 29.6405 140.014 30.0078 139.966 30.4788H144.068C144.028 30.0157 143.827 29.6485 143.474 29.377C143.113 29.1136 142.647 28.9778 142.053 28.9778C141.459 28.9778 140.953 29.1136 140.592 29.377H140.584Z" fill="white"/>
<path d="M149.919 28.4187V29.0734H148.859C148.474 29.0734 148.137 29.1452 147.84 29.281C147.543 29.4167 147.31 29.6163 147.133 29.8638V33.2888H146.395V28.4187H147.077L147.109 29.0814C147.326 28.8658 147.591 28.6981 147.912 28.5864C148.225 28.4746 148.57 28.4187 148.948 28.4187H149.919Z" fill="white"/>
<path d="M24.6708 9.02612H0.585938V32.9775H24.6708V9.02612Z" fill="#636363"/>
<path d="M24.6699 9.02612H8.61328V24.9937H24.6699V9.02612Z" fill="#8F8F8F"/>
<path opacity="0.5" d="M29.666 5.03442H13.6094V21.002H29.666V5.03442Z" fill="white"/>
</g>
<defs>
<clipPath id="clip0_6795_158137">
<rect width="149.333" height="40" fill="white" transform="translate(0.585938)"/>
</clipPath>
</defs>
</svg>
