<svg width="96" height="40" viewBox="0 0 96 40" fill="none" xmlns="http://www.w3.org/2000/svg">
<g clip-path="url(#clip0_6795_158135)">
<path d="M42 6.48999H44.71V12.9972H46.268L51.0135 6.48999H54.1772L48.5542 14.0837L54.5652 22.3103H51.3597L46.2322 15.2598H44.716V22.3103H42.006V6.48999H42Z" fill="white"/>
<path d="M54.6992 6.48999H57.7256L61.8145 14.6688L64.823 6.48999H67.7121L63.1934 18.2388C62.2921 20.6088 61.4564 22.3043 58.4479 22.3043H57.4092V20.0477H57.8868C59.6059 20.0477 60.1014 19.1223 60.555 18.0119L54.6992 6.48999Z" fill="white"/>
<path d="M75.2557 6.48999C79.0939 6.48999 81.0876 8.23321 81.0876 11.3017C81.0876 14.3703 79.0998 16.1374 75.2557 16.1374H72.4561V22.3043H69.7461V6.48999H75.2616H75.2557ZM75.1661 13.8807C77.4285 13.8807 78.2821 12.8838 78.2821 11.3077C78.2821 9.73165 77.4225 8.75259 75.1661 8.75259H72.4561V13.8807H75.1661Z" fill="white"/>
<path d="M93.2159 17.4747L95.5857 18.4001C94.9768 20.8418 92.9174 22.579 89.5329 22.579C86.1484 22.579 83.9278 20.6149 83.3428 17.8329C83.0921 16.6568 83.0742 15.9822 83.0742 14.4002C83.0742 12.8182 83.0981 12.1615 83.3428 10.9675C83.9099 8.20942 86.1424 6.22144 89.5329 6.22144C92.6966 6.22144 94.6843 7.71391 95.4544 10.084L93.0607 10.9436C92.4936 9.38549 91.5684 8.47806 89.5389 8.47806C87.5093 8.47806 86.5781 9.69593 86.1961 11.1227C85.9275 12.1376 85.8797 12.7943 85.8797 14.4002C85.8797 16.0061 85.9275 16.6628 86.1961 17.6777C86.5781 19.0806 87.5093 20.3224 89.5389 20.3224C91.5684 20.3224 92.7264 19.1224 93.2219 17.4747H93.2159Z" fill="white"/>
<path d="M44.523 25.0566C46.075 25.0566 46.8212 25.6895 46.8212 26.7581C46.8212 27.6297 46.3735 28.0416 45.7825 28.2804V28.3162C46.5406 28.5371 46.9585 29.0744 46.9585 29.946C46.9585 31.1101 46.1407 31.8504 44.5887 31.8504H41.8906V25.0566H44.523ZM43.0546 26.0297V27.8625H44.3738C45.2453 27.8625 45.6572 27.4924 45.6572 26.9133C45.6572 26.2626 45.1617 26.0297 44.2902 26.0297H43.0606H43.0546ZM43.0546 28.8356V30.8833H44.3917C45.2632 30.8833 45.7527 30.5549 45.7527 29.8744C45.7527 29.0983 45.2573 28.8356 44.2843 28.8356H43.0546Z" fill="white"/>
<path d="M51.6099 30.4235L52.5291 30.8772C52.1889 31.6175 51.5084 31.9458 50.5414 31.9458C49.5744 31.9458 48.8163 31.4981 48.5536 30.7041C48.4163 30.3041 48.3984 29.9459 48.3984 29.4205C48.3984 28.8952 48.4163 28.537 48.5536 28.137C48.8163 27.343 49.5744 26.8953 50.5414 26.8953C51.5084 26.8953 52.2307 27.343 52.4933 28.137C52.6187 28.537 52.6485 28.8773 52.6485 29.3967V29.7847H49.5206C49.5206 30.113 49.5326 30.328 49.64 30.5429C49.7833 30.8653 50.0579 31.0503 50.5414 31.0503C51.0249 31.0503 51.4069 30.8533 51.6099 30.4175V30.4235ZM49.5206 28.9549H51.5203C51.5084 28.6803 51.5024 28.5191 51.4069 28.3042C51.2816 28.0116 51.0309 27.7908 50.5414 27.7908C50.0519 27.7908 49.7654 28.0116 49.6281 28.3042C49.5326 28.5191 49.5206 28.6922 49.5206 28.9549Z" fill="white"/>
<path d="M54.2773 26.9968H55.3637V27.4803H55.3996C55.7219 27.0803 56.2352 26.8953 56.7187 26.8953C57.4171 26.8953 58.0499 27.2475 58.3304 28.0415C58.4677 28.4295 58.4856 28.8952 58.4856 29.4205C58.4856 29.9459 58.4677 30.3996 58.3304 30.7876C58.0499 31.5816 57.4171 31.9398 56.7187 31.9398C56.2352 31.9398 55.7219 31.7548 55.3996 31.3548H55.3637V33.7786H54.2773V26.9848V26.9968ZM55.3637 29.9101C55.3637 30.5906 55.7876 31.0563 56.3725 31.0563C56.7605 31.0563 57.1008 30.8593 57.244 30.4474C57.3395 30.1668 57.3634 29.916 57.3634 29.4265C57.3634 28.937 57.3455 28.6982 57.244 28.4057C57.1067 27.9997 56.7605 27.7967 56.3725 27.7967C55.7876 27.7967 55.3637 28.2624 55.3637 28.9429V29.916V29.9101Z" fill="white"/>
<path d="M62.9064 30.4056L63.8376 30.8593C63.5153 31.5757 62.8467 31.9458 61.9752 31.9458C61.0022 31.9458 60.2382 31.4921 59.9755 30.6921C59.8382 30.2921 59.8203 29.9459 59.8203 29.4205C59.8203 28.8952 59.8382 28.5489 59.9755 28.1489C60.2382 27.3549 61.0022 26.8953 61.9752 26.8953C62.8467 26.8953 63.4914 27.2057 63.8018 27.9221L62.8586 28.3579C62.6915 27.934 62.3632 27.7848 61.9752 27.7848C61.4917 27.7848 61.1992 28.0475 61.0619 28.4355C60.9724 28.6862 60.9425 29.0086 60.9425 29.4146C60.9425 29.8205 60.9604 30.1429 61.0619 30.3936C61.2052 30.7996 61.4917 31.0444 61.9752 31.0444C62.3632 31.0444 62.7393 30.8115 62.9064 30.3936V30.4056Z" fill="white"/>
<path d="M66.3794 26.9968V30.2086L68.4387 26.9968H69.5251V31.8504H68.4387V28.6386L66.3794 31.8504H65.293V26.9968H66.3794Z" fill="white"/>
<path d="M73.258 30.0057L72.279 31.8504H71.0195L72.1656 29.8922C71.6523 29.7072 71.1747 29.337 71.1747 28.5132C71.1747 27.3491 72.2492 26.9968 73.0312 26.9968H75.2517V31.8504H74.1653V30.0057H73.264H73.258ZM74.1593 27.8326H73.2162C72.6551 27.8326 72.2969 28.0356 72.2969 28.5132C72.2969 29.0744 72.7506 29.1758 73.3953 29.1758H74.1593V27.8386V27.8326Z" fill="white"/>
<path d="M83.0299 25.0566C84.6774 25.0566 85.531 25.8029 85.531 27.1222C85.531 28.4416 84.6774 29.1998 83.0299 29.1998H81.8242V31.8504H80.6602V25.0566H83.0299ZM82.9881 28.2326C83.9611 28.2326 84.3253 27.8088 84.3253 27.1282C84.3253 26.4476 83.9552 26.0297 82.9881 26.0297H81.8242V28.2326H82.9881Z" fill="white"/>
<path d="M87.0685 26.9968H88.1549V27.4803H88.1907C88.4533 27.1579 88.8234 26.8953 89.3368 26.8953C89.9456 26.8953 90.3098 27.1758 90.5963 27.5937L89.7606 28.2027C89.5934 27.94 89.3726 27.7848 89.0502 27.7848C88.5429 27.7848 88.1489 28.2206 88.1489 28.9131V31.8443H87.0625V26.9908L87.0685 26.9968Z" fill="white"/>
<path d="M93.4456 31.9458C92.4726 31.9458 91.7384 31.4981 91.4638 30.7041C91.3265 30.3041 91.3086 29.9459 91.3086 29.4205C91.3086 28.8952 91.3265 28.537 91.4638 28.137C91.7384 27.343 92.4726 26.8953 93.4456 26.8953C94.4186 26.8953 95.1528 27.343 95.4273 28.137C95.5646 28.537 95.5826 28.8952 95.5826 29.4205C95.5826 29.9459 95.5646 30.3041 95.4273 30.7041C95.1528 31.4981 94.4186 31.9458 93.4456 31.9458ZM94.341 30.4593C94.4603 30.1369 94.4603 29.8265 94.4603 29.4205C94.4603 29.0146 94.4603 28.7041 94.341 28.3818C94.2156 28.0415 93.935 27.7908 93.4456 27.7908C92.9561 27.7908 92.6815 28.0415 92.5502 28.3818C92.4308 28.7041 92.4308 29.0146 92.4308 29.4205C92.4308 29.8265 92.4308 30.1369 92.5502 30.4593C92.6755 30.8115 92.9561 31.0503 93.4456 31.0503C93.935 31.0503 94.2096 30.8056 94.341 30.4593Z" fill="white"/>
<path d="M5.02927 6.32886H2.64159C1.32291 6.32886 0.253906 7.39799 0.253906 8.71682V30.8055C0.253906 32.1243 1.32291 33.1935 2.64159 33.1935H5.02927C6.34796 33.1935 7.41696 32.1243 7.41696 30.8055V8.71682C7.41696 7.39799 6.34796 6.32886 5.02927 6.32886Z" fill="#DBDBDB"/>
<path d="M13.3886 6.32886H11.001C9.68228 6.32886 8.61328 7.39799 8.61328 8.71682V30.8055C8.61328 32.1243 9.68228 33.1935 11.001 33.1935H13.3886C14.7073 33.1935 15.7763 32.1243 15.7763 30.8055V8.71682C15.7763 7.39799 14.7073 6.32886 13.3886 6.32886Z" fill="#DBDBDB"/>
<path d="M21.7402 6.32886H19.3525C18.0338 6.32886 16.9648 7.39799 16.9648 8.71682V30.8055C16.9648 32.1243 18.0338 33.1935 19.3525 33.1935H21.7402C23.0589 33.1935 24.1279 32.1243 24.1279 30.8055V8.71682C24.1279 7.39799 23.0589 6.32886 21.7402 6.32886Z" fill="#DBDBDB"/>
<path d="M30.0996 6.32886H27.7119C26.3932 6.32886 25.3242 7.39799 25.3242 8.71682V30.8055C25.3242 32.1243 26.3932 33.1935 27.7119 33.1935H30.0996C31.4183 33.1935 32.4873 32.1243 32.4873 30.8055V8.71682C32.4873 7.39799 31.4183 6.32886 30.0996 6.32886Z" fill="#DBDBDB"/>
<path d="M5.02927 16.9673H2.64159C1.32291 16.9673 0.253906 18.0364 0.253906 19.3553V30.8055C0.253906 32.1244 1.32291 33.1935 2.64159 33.1935H5.02927C6.34796 33.1935 7.41696 32.1244 7.41696 30.8055V19.3553C7.41696 18.0364 6.34796 16.9673 5.02927 16.9673Z" fill="#B7B7B7"/>
<path d="M13.3886 14.3882H11.001C9.68228 14.3882 8.61328 15.4573 8.61328 16.7761V30.8054C8.61328 32.1243 9.68228 33.1934 11.001 33.1934H13.3886C14.7073 33.1934 15.7763 32.1243 15.7763 30.8054V16.7761C15.7763 15.4573 14.7073 14.3882 13.3886 14.3882Z" fill="#B7B7B7"/>
<path d="M21.7402 10.5078H19.3525C18.0338 10.5078 16.9648 11.5769 16.9648 12.8958V30.8055C16.9648 32.1244 18.0338 33.1935 19.3525 33.1935H21.7402C23.0589 33.1935 24.1279 32.1244 24.1279 30.8055V12.8958C24.1279 11.5769 23.0589 10.5078 21.7402 10.5078Z" fill="#B7B7B7"/>
<path d="M30.0996 8.11987H27.7119C26.3932 8.11987 25.3242 9.189 25.3242 10.5078V30.8056C25.3242 32.1244 26.3932 33.1935 27.7119 33.1935H30.0996C31.4183 33.1935 32.4873 32.1244 32.4873 30.8056V10.5078C32.4873 9.189 31.4183 8.11987 30.0996 8.11987Z" fill="#B7B7B7"/>
<path d="M5.02927 21.8506H2.64159C1.32291 21.8506 0.253906 22.9197 0.253906 24.2386V30.8055C0.253906 32.1243 1.32291 33.1934 2.64159 33.1934H5.02927C6.34796 33.1934 7.41696 32.1243 7.41696 30.8055V24.2386C7.41696 22.9197 6.34796 21.8506 5.02927 21.8506Z" fill="#838383"/>
<path d="M13.3886 25.0803H11.001C9.68228 25.0803 8.61328 26.1495 8.61328 27.4683V30.8055C8.61328 32.1243 9.68228 33.1934 11.001 33.1934H13.3886C14.7073 33.1934 15.7763 32.1243 15.7763 30.8055V27.4683C15.7763 26.1495 14.7073 25.0803 13.3886 25.0803Z" fill="#838383"/>
<path d="M21.7402 16.0779H19.3525C18.0338 16.0779 16.9648 17.147 16.9648 18.4658V30.8057C16.9648 32.1245 18.0338 33.1936 19.3525 33.1936H21.7402C23.0589 33.1936 24.1279 32.1245 24.1279 30.8057V18.4658C24.1279 17.147 23.0589 16.0779 21.7402 16.0779Z" fill="#838383"/>
<path d="M30.0996 11.9465H27.7119C26.3932 11.9465 25.3242 13.0157 25.3242 14.3345V30.8055C25.3242 32.1243 26.3932 33.1935 27.7119 33.1935H30.0996C31.4183 33.1935 32.4873 32.1243 32.4873 30.8055V14.3345C32.4873 13.0157 31.4183 11.9465 30.0996 11.9465Z" fill="#838383"/>
</g>
<defs>
<clipPath id="clip0_6795_158135">
<rect width="95.3317" height="40" fill="white" transform="translate(0.253906)"/>
</clipPath>
</defs>
</svg>
