<svg width="175" height="40" viewBox="0 0 175 40" fill="none" xmlns="http://www.w3.org/2000/svg">
<path d="M43.8125 11.1709H45.57V17.5912L52.4625 11.1709H54.7781L46.4987 18.848L55.4236 28.282H53.1289L45.5742 20.3114V28.282H43.8167V11.1709H43.8125Z" fill="white"/>
<path d="M57.8772 16.064L60.5809 23.0045C60.8596 23.7794 61.1694 24.7017 61.3729 25.4093H61.426C61.6561 24.7059 61.9084 23.8089 62.2181 22.9582L64.6651 16.064H67.0369L63.6695 24.4364C62.0632 28.4667 60.9658 30.5303 59.4348 31.7896C58.3374 32.7119 57.24 33.0741 56.6825 33.1709L56.1205 31.3768C56.6825 31.2084 57.4214 30.8673 58.0852 30.3324C58.6958 29.8692 59.4613 29.0479 59.9702 27.9529C60.072 27.7339 60.1472 27.5655 60.1472 27.4434C60.1472 27.3212 60.0941 27.1528 59.9924 26.8833L55.4258 16.0598H57.8728L57.8772 16.064Z" fill="white"/>
<path d="M68.3581 20.0877C68.3581 18.6129 68.3058 17.4231 68.2578 16.3242H70.2424L70.3428 18.2989H70.3951C71.298 16.8943 72.733 16.0598 74.7176 16.0598C77.6575 16.0598 79.8689 18.4187 79.8689 21.9179C79.8689 26.0614 77.2039 28.1064 74.3382 28.1064C72.7287 28.1064 71.3198 27.4413 70.5914 26.2969H70.539V32.5598H68.3538V20.0836L68.3581 20.0877ZM70.5434 23.1572C70.5434 23.4671 70.5957 23.7521 70.6437 24.0124C71.045 25.4665 72.3797 26.4663 73.9631 26.4663C76.301 26.4663 77.6575 24.6568 77.6575 22.0129C77.6575 19.7035 76.3751 17.7288 74.0372 17.7288C72.528 17.7288 71.1192 18.7534 70.6961 20.3232C70.6219 20.5835 70.5434 20.8933 70.5434 21.1784V23.1531V23.1572Z" fill="white"/>
<path d="M90.2159 27.5806C89.6989 27.8704 88.56 28.282 87.1023 28.282C83.8333 28.282 81.7031 25.8628 81.7031 22.2801C81.7031 18.6974 83.9888 16.0598 87.526 16.0598C88.6922 16.0598 89.7223 16.3748 90.2587 16.6646L89.8117 18.3111C89.3413 18.0212 88.6028 17.7524 87.526 17.7524C85.0383 17.7524 83.6972 19.7391 83.6972 22.1835C83.6972 24.8926 85.3104 26.5642 87.4599 26.5642C88.5794 26.5642 89.318 26.2492 89.8777 25.9846L90.212 27.5806H90.2159Z" fill="white"/>
<path d="M101.753 20.8325H95.4153V26.5597H102.479V28.282H93.3125V12.3931H102.118V14.1153H95.4195V19.1389H101.757V20.8366L101.753 20.8325Z" fill="#C5C5C5"/>
<path d="M104.312 15.4487H106.057V20.8553L112.341 15.4487H114.768L107.891 21.3206L115.312 28.2779H112.846L106.611 22.3474L106.062 22.8084V28.2821H104.317V15.4487H104.312Z" fill="#C5C5C5"/>
<path d="M125.656 27.5806C125.102 27.8704 123.882 28.282 122.32 28.282C118.817 28.282 116.535 25.8628 116.535 22.2801C116.535 18.6974 118.984 16.0598 122.774 16.0598C124.023 16.0598 125.127 16.3748 125.702 16.6646L125.223 18.3111C124.719 18.0212 123.928 17.7524 122.774 17.7524C120.109 17.7524 118.672 19.7391 118.672 22.1835C118.672 24.8926 120.4 26.5642 122.703 26.5642C123.903 26.5642 124.694 26.2492 125.294 25.9846L125.652 27.5806H125.656Z" fill="#C5C5C5"/>
<path d="M137.313 16.0598V28.282H135.162V17.8259H129.66V28.282H127.535V16.0598H137.313Z" fill="#C5C5C5"/>
<path d="M142.298 22.5565C142.346 25.4319 144.086 26.6139 146.1 26.6139C147.543 26.6139 148.413 26.3498 149.168 26.0103L149.509 27.5318C148.798 27.8713 147.586 28.282 145.822 28.282C142.409 28.282 140.371 25.8887 140.371 22.3637C140.371 18.8387 142.342 16.0598 145.568 16.0598C149.187 16.0598 150.149 19.4172 150.149 21.5674C150.149 22.0033 150.101 22.3386 150.081 22.5565H142.298ZM148.206 21.035C148.23 19.6812 147.678 17.5813 145.413 17.5813C143.375 17.5813 142.481 19.5638 142.322 21.035H148.206Z" fill="#C5C5C5"/>
<path d="M152.689 20.0877C152.689 18.6129 152.639 17.4231 152.594 16.3242H154.474L154.569 18.2989H154.619C155.474 16.8943 156.833 16.0598 158.714 16.0598C161.499 16.0598 163.594 18.4187 163.594 21.9179C163.594 26.0614 161.069 28.1064 158.354 28.1064C156.829 28.1064 155.495 27.4413 154.804 26.2969H154.755V32.5598H152.685V20.0836L152.689 20.0877ZM154.759 23.1572C154.759 23.4671 154.809 23.7521 154.854 24.0124C155.234 25.4665 156.499 26.4663 157.999 26.4663C160.214 26.4663 161.499 24.6568 161.499 22.0129C161.499 19.7035 160.284 17.7288 158.069 17.7288C156.639 17.7288 155.304 18.7534 154.904 20.3232C154.833 20.5835 154.759 20.8933 154.759 21.1784V23.1531V23.1572Z" fill="#C5C5C5"/>
<path d="M173.979 16.0598V17.8259H170.422V28.282H168.373V17.8259H164.816V16.0598H173.983H173.979Z" fill="#C5C5C5"/>
<path d="M31.1223 17.3993C30.6356 15.4944 29.6508 13.6883 28.5291 12.0457C28.358 11.7948 26.5215 10.0381 25.7002 10.1788C24.6774 10.3575 24.3884 10.5894 24.4341 11.5552C27.974 13.3879 28.3086 15.905 28.4683 16.5324C26.6964 16.6046 24.6964 16.4792 22.723 16.6655C21.3808 16.7948 20.3276 17.0951 19.2667 17.6769C19.1945 17.7187 19.031 17.8594 18.9512 17.8556C18.8409 17.8556 18.6888 17.7035 18.609 17.6579C17.5557 17.0837 16.5139 16.7909 15.1793 16.6617C13.2059 16.4716 11.2059 16.6008 9.43404 16.5286C9.59373 15.9012 9.92454 13.3841 13.4683 11.5514C13.5139 10.5894 13.2249 10.3537 12.2021 10.175C11.3808 10.0343 9.54431 11.791 9.37321 12.0419C8.25534 13.6845 7.27054 15.4868 6.78005 17.3955C6.35419 19.0609 6.61275 21.2777 6.76484 22.0001C6.8599 22.4602 7.21731 23.3347 7.66978 23.5666C9.89412 24.7187 15.2363 24.3537 16.1565 23.9279C17.5823 23.2625 18.1489 22.0115 18.5405 20.9165C18.6432 20.6275 18.7877 20.3499 18.955 20.0077C19.1223 20.3499 19.2629 20.6237 19.3694 20.9165C19.761 22.0115 20.3276 23.2625 21.7534 23.9279C22.6698 24.3537 28.012 24.7187 30.2401 23.5666C30.6926 23.3347 31.05 22.4602 31.1451 22.0001C31.2972 21.2739 31.5557 19.0609 31.1299 17.3955L31.1223 17.3993ZM12.8409 22.4298C9.06903 22.4412 8.57472 22.1446 8.51008 18.7454C11.4264 18.7834 13.609 18.7263 16.5025 18.791C16.1071 22.2435 15.723 22.4183 12.8409 22.4259V22.4298ZM25.0652 22.4298C22.1831 22.4221 21.7991 22.2473 21.4036 18.7948C24.2972 18.7302 26.4797 18.7872 29.396 18.7492C29.3352 22.1484 28.8409 22.445 25.0652 22.4336V22.4298Z" fill="#C5C5C5"/>
<path d="M18.9492 38C9.02527 38 0.949219 29.9278 0.949219 20C0.949219 10.0722 9.02147 2 18.9492 2C28.877 2 36.9493 10.0722 36.9493 20C36.9493 29.9278 28.877 38 18.9492 38ZM18.9492 6.26996C11.3789 6.26996 5.21919 12.4297 5.21919 20C5.21919 27.5703 11.3789 33.73 18.9492 33.73C26.5196 33.73 32.6793 27.5703 32.6793 20C32.6793 12.4297 26.5196 6.26996 18.9492 6.26996Z" fill="#C5C5C5"/>
</svg>
