<svg width="98" height="40" viewBox="0 0 98 40" fill="none" xmlns="http://www.w3.org/2000/svg">
<path d="M7.73856 21.0073C7.43511 23.4286 5.72855 25.7824 5.72855 25.7824C5.72855 25.7824 6.85675 20.984 4.60554 16.6003C3.26986 14.0028 0.979752 12.2322 0.167969 11.6593C1.15611 10.0883 2.38805 8.68587 3.80932 7.50635C4.52255 8.37219 5.90232 10.205 6.8749 12.1285C8.19243 14.7442 8.04201 18.5887 7.73856 21.0073Z" fill="#F4F4F4"/>
<path d="M12.9664 10.423C12.9664 13.7724 12.3828 16.5591 11.042 19.5404C9.91118 22.0549 7.4084 24.9765 7.4084 24.9765C7.4084 24.9765 9.55068 20.7277 8.47954 14.786C7.79744 11.0063 5.38543 8.05623 4.43359 7.00892C6.71074 5.27982 9.4236 4.09511 12.3777 3.64404C12.6059 5.18909 12.9664 7.69848 12.9664 10.423Z" fill="#DFDFDF"/>
<path d="M32.0159 16.454C30.6413 17.6594 27.887 20.0262 25.1352 22.0898C21.7558 24.6251 18.1326 27.1448 10.352 29.8668C6.73395 31.1345 3.11075 31.8914 1.49756 32.1948C1.20449 32.2518 0.97885 32.2907 0.831017 32.3166C0.706527 32.3373 0.582036 32.2829 0.514603 32.1766L0.317493 31.8759C0.265622 31.7929 0.299338 31.6866 0.387519 31.6478C0.501636 31.5985 0.670217 31.5233 0.888076 31.417C1.88141 30.9219 3.89141 29.7372 6.29045 27.3393C9.72691 23.9044 12.2764 19.6918 13.0752 16.2129C13.8766 12.7365 14.2215 9.94977 13.7236 6.53564C13.5083 5.03726 13.3631 4.1092 13.2723 3.5337C13.8559 3.47666 14.4472 3.44556 15.0437 3.44556C23.1693 3.44556 30.0111 8.96208 32.0159 16.454Z" fill="#B8B8B8"/>
<path d="M32.2877 17.6371C31.5382 18.3914 29.1625 20.8827 27.3392 23.952C26.1721 25.9196 25.6249 28.0428 25.6249 28.0428C25.6249 28.0428 21.0732 32.4757 16.231 33.803C10.5952 35.3532 6.30286 35.1614 4.41735 34.9955C3.86492 34.9462 3.51998 34.8995 3.40845 34.8995C2.91827 34.8995 2.35547 34.2359 2.35547 34.2359C2.35547 34.2359 2.67188 34.1581 3.2269 34.0078C5.26544 33.4504 10.5252 31.9002 15.2377 29.5567C22.9639 25.7148 30.4826 18.8788 32.1995 17.2119C32.2332 17.3519 32.2644 17.4945 32.2877 17.6371Z" fill="white"/>
<path d="M25.4586 29.4409L25.3341 33.0858C25.3341 33.0858 21.1767 35.9659 14.8951 36.5647C9.63015 37.065 4.38857 35.5718 3.9347 35.3981C3.48083 35.2245 3.25 35.0015 3.25 35.0015C3.25 35.0015 8.65757 35.8622 13.4816 35.1052C18.8425 34.2653 22.738 31.7689 23.9933 30.7319C25.2485 29.695 25.4586 29.4409 25.4586 29.4409Z" fill="#B8B8B8"/>
<path d="M38.7995 3.44246C39.0018 3.40098 39.3726 3.36987 39.7306 3.36987C40.2052 3.36987 40.4957 3.4269 40.7343 3.59282C40.9521 3.72243 41.0974 3.95056 41.0974 4.24868C41.0974 4.57013 40.8951 4.86825 40.5138 5.00824V5.01861C40.8821 5.11193 41.2219 5.40228 41.2219 5.88705C41.2219 6.19813 41.087 6.4444 40.8847 6.61031C40.6357 6.82807 40.2233 6.93695 39.5827 6.93695C39.23 6.93695 38.9577 6.91103 38.7969 6.89029V3.44246H38.7995ZM39.4349 4.82678H39.7617C40.2052 4.82678 40.4542 4.61939 40.4542 4.32127C40.4542 3.99463 40.2052 3.84168 39.798 3.84168C39.6113 3.84168 39.5023 3.85205 39.4349 3.8676V4.82418V4.82678ZM39.4349 6.43922C39.5179 6.45477 39.6268 6.45477 39.7721 6.45477C40.1844 6.45477 40.5475 6.29923 40.5475 5.86631C40.5475 5.4619 40.1948 5.2934 39.7513 5.2934H39.4349V6.43663V6.43922Z" fill="white"/>
<path d="M44.2806 6.79707C44.1302 6.87484 43.7956 6.95779 43.3755 6.95779C42.2629 6.95779 41.5859 6.25526 41.5859 5.18981C41.5859 4.03621 42.3873 3.33887 43.4585 3.33887C43.8812 3.33887 44.1821 3.42701 44.3118 3.49441L44.1717 4.0051C44.0057 3.93252 43.7775 3.8703 43.4844 3.8703C42.7712 3.8703 42.2551 4.31878 42.2551 5.16129C42.2551 5.93122 42.7089 6.42636 43.4792 6.42636C43.7386 6.42636 44.0109 6.37451 44.1769 6.29674L44.2806 6.80225V6.79707Z" fill="white"/>
<path d="M46.7875 5.3452H45.4648V6.37437H46.9432V6.90061H44.8242V3.39575H46.8653V3.922H45.4648V4.82673H46.7875V5.34779V5.3452Z" fill="white"/>
<path d="M49.5087 3.39575V3.922H48.1445V6.90321H47.5039V3.39575H49.5087Z" fill="white"/>
<path d="M52.2459 3.39575V6.38992L52.5779 6.40547L52.5415 7.76905H52.0514L52.015 6.90061H49.8857L49.8494 7.76905H49.3592L49.3281 6.40547L49.6082 6.38992C49.7431 6.14624 49.8676 5.8896 49.9454 5.61481C50.0543 5.24151 50.0958 4.81377 50.0958 4.30826V3.39575H52.2407H52.2459ZM50.6949 4.47158C50.6949 4.95116 50.6431 5.38149 50.5289 5.7522C50.4615 5.98033 50.363 6.20586 50.2696 6.37696H51.6079V3.91941H50.6975V4.47158H50.6949Z" fill="white"/>
<path d="M53.8216 5.90774L53.5207 6.90061H52.8594L53.9824 3.39575H54.7994L55.9379 6.90061H55.2506L54.9342 5.90774H53.8216ZM54.8253 5.42297L54.5504 4.55972C54.4829 4.34715 54.4259 4.10606 54.374 3.90385H54.3636C54.3118 4.10606 54.2599 4.35233 54.1977 4.55972L53.9279 5.42297H54.8279H54.8253Z" fill="white"/>
<path d="M57.5078 3.44246C57.7101 3.40098 58.081 3.36987 58.4389 3.36987C58.9135 3.36987 59.204 3.4269 59.4426 3.59282C59.6605 3.72243 59.8083 3.95056 59.8083 4.24868C59.8083 4.57013 59.606 4.86825 59.2247 5.00824V5.01861C59.593 5.11193 59.9328 5.40228 59.9328 5.88705C59.9328 6.19813 59.7979 6.4444 59.5956 6.61031C59.3466 6.82807 58.9343 6.93695 58.2937 6.93695C57.9409 6.93695 57.6686 6.91103 57.5078 6.89029V3.44246ZM58.1432 4.82678H58.47C58.9135 4.82678 59.1625 4.61939 59.1625 4.32127C59.1625 3.99463 58.9135 3.84168 58.5063 3.84168C58.3196 3.84168 58.2107 3.85205 58.1432 3.8676V4.82418V4.82678ZM58.1432 6.43922C58.2262 6.45477 58.3352 6.45477 58.4804 6.45477C58.8902 6.45477 59.2559 6.29923 59.2559 5.86631C59.2559 5.4619 58.9006 5.2934 58.4596 5.2934H58.1432V6.43663V6.43922Z" fill="white"/>
<path d="M63.2012 3.39575V6.90061H62.5606V3.91941H61.1445V6.90061H60.5039V3.39575H63.1986H63.2012Z" fill="white"/>
<path d="M65.8969 5.3452H64.5742V6.37437H66.0525V6.90061H63.9336V3.39575H65.9747V3.922H64.5742V4.82673H65.8969V5.34779V5.3452Z" fill="white"/>
<path d="M66.6211 3.44246C66.8493 3.40098 67.1683 3.36987 67.5989 3.36987C68.0683 3.36987 68.4107 3.46838 68.6337 3.65503C68.8412 3.82613 68.9786 4.10351 68.9786 4.43015C68.9786 4.75678 68.8749 5.03935 68.6778 5.226C68.4236 5.48005 68.0216 5.5993 67.5703 5.5993C67.451 5.5993 67.3421 5.59411 67.2591 5.57856V6.90066H66.6237V3.44246H66.6211ZM67.2565 5.07564C67.3343 5.09638 67.4381 5.10156 67.5677 5.10156C68.0475 5.10156 68.338 4.86825 68.338 4.45607C68.338 4.04388 68.0683 3.85724 67.6248 3.85724C67.4484 3.85724 67.324 3.87279 67.2565 3.88834V5.07305V5.07564Z" fill="white"/>
<path d="M71.4907 5.3452H70.168V6.37437H71.6463V6.90061H69.5273V3.39575H71.5685V3.922H70.168V4.82673H71.4907V5.34779V5.3452Z" fill="white"/>
<path d="M74.8982 3.39575V6.38992L75.2302 6.40547L75.1939 7.76905H74.7037L74.6674 6.90061H72.5381L72.5018 7.76905H72.0116L71.9805 6.40547L72.2606 6.38992C72.3954 6.14624 72.5199 5.8896 72.5977 5.61481C72.7067 5.24151 72.7482 4.81377 72.7482 4.30826V3.39575H74.893H74.8982ZM73.3473 4.47158C73.3473 4.95116 73.2954 5.38149 73.1813 5.7522C73.1139 5.98033 73.0153 6.20586 72.9219 6.37696H74.2602V3.91941H73.3499V4.47158H73.3473Z" fill="white"/>
<path d="M76.3283 3.39575V4.6349C76.3283 5.19225 76.3127 5.70554 76.2868 6.17475L76.2972 6.17994C76.4787 5.7859 76.707 5.36335 76.9378 4.96672L77.8637 3.39575H78.5147V6.90061H77.9207V5.65628C77.9207 5.10411 77.9259 4.65823 77.9674 4.20457H77.9571C77.7911 4.60638 77.5576 5.0419 77.332 5.41779L76.4476 6.90061H75.7344V3.39575H76.3283Z" fill="white"/>
<path d="M79.5232 6.95765C79.295 6.95765 79.1342 6.78655 79.1367 6.55324C79.1367 6.31474 79.2976 6.14624 79.5258 6.14624C79.754 6.14624 79.9148 6.31215 79.9226 6.55324C79.9226 6.78655 79.767 6.95765 79.5258 6.95765H79.5206H79.5232ZM79.2846 5.8196L79.1912 3.39575H79.8681L79.7748 5.8196H79.2846Z" fill="white"/>
<path d="M41.6445 31.1223C42.1528 31.1223 42.5937 31.2156 42.9698 31.4049C43.141 31.4852 43.2292 31.5345 43.2344 31.5475C43.2292 31.8326 43.2214 32.0867 43.2084 32.3122H43.2006C42.7338 31.9778 42.2384 31.8119 41.7145 31.8119H41.6108C40.9391 31.8119 40.3814 32.0789 39.9405 32.6103C39.6734 32.9784 39.5385 33.3984 39.5385 33.8676C39.5385 34.5883 39.842 35.1586 40.4489 35.576C40.8094 35.8015 41.1932 35.9156 41.603 35.9156H41.7327C42.1373 35.9156 42.5315 35.8041 42.9128 35.5838V34.5753H41.5019C41.4863 34.5753 41.4318 34.3939 41.3385 34.0283C41.3359 34.0232 41.3177 33.9609 41.2814 33.8443L41.297 33.8339H43.6364C43.6364 33.8339 43.6519 33.8417 43.6519 33.8521V35.9156C43.4704 36.0737 43.2681 36.2033 43.0398 36.3044C42.5912 36.504 42.1191 36.6026 41.6212 36.6026C40.6382 36.6026 39.8524 36.2241 39.2662 35.4645C38.9368 34.9797 38.7734 34.4794 38.7734 33.9635V33.7924C38.7734 33.0381 39.0665 32.3848 39.6552 31.8326C40.1999 31.3608 40.8638 31.1249 41.6419 31.1249L41.6445 31.1223Z" fill="white"/>
<path d="M44.8124 31.1226H47.0481C47.642 31.1226 48.1503 31.2782 48.5705 31.5918C49.0062 31.9496 49.2241 32.4032 49.2241 32.9554V33.1032C49.2241 33.7357 48.9518 34.2283 48.4071 34.5808C48.2878 34.656 48.1633 34.7156 48.0336 34.7519V34.7701L49.3097 36.5769V36.5951H48.4694C48.4512 36.5821 48.057 36.0222 47.2841 34.9178C47.1337 34.9282 46.9806 34.9334 46.8224 34.9334H45.5879V36.5769C45.5879 36.5769 45.5827 36.5951 45.5723 36.5951H44.815C44.815 36.5951 44.7969 36.5899 44.7969 36.5769V31.1356C44.7969 31.1356 44.8047 31.1174 44.815 31.1174L44.8124 31.1226ZM45.5853 31.8096V34.262H46.9703C47.6835 34.262 48.1452 34.0157 48.3552 33.5205C48.4071 33.378 48.4305 33.2458 48.4305 33.1239V32.9684C48.4305 32.4136 48.127 32.0481 47.5175 31.8718C47.3282 31.8303 47.144 31.8096 46.9625 31.8096H45.5853Z" fill="white"/>
<path d="M52.6042 31.1217C53.5197 31.1217 54.2718 31.4665 54.8632 32.1561C55.2392 32.6564 55.4286 33.206 55.4286 33.81V33.9085C55.4286 34.7925 55.0525 35.5184 54.3004 36.0913C53.7869 36.4309 53.2163 36.5994 52.5964 36.5994C51.616 36.5994 50.8328 36.2209 50.2466 35.4639C49.9121 34.9843 49.7461 34.4659 49.7461 33.9085V33.81C49.7461 32.9779 50.091 32.2753 50.7809 31.705C51.3074 31.3162 51.9169 31.1191 52.6042 31.1191V31.1217ZM50.5164 33.7996V33.9215C50.5164 34.4788 50.7342 34.9688 51.17 35.3887C51.5745 35.7387 52.0492 35.9124 52.5964 35.9124C53.2967 35.9124 53.8595 35.6324 54.2848 35.0725C54.5312 34.7121 54.6557 34.3311 54.6557 33.9215V33.7996C54.6557 33.1412 54.3626 32.589 53.7713 32.1483C53.4056 31.9228 53.014 31.8087 52.5938 31.8087C51.8702 31.8087 51.2893 32.1016 50.8535 32.6901C50.6279 33.0478 50.5138 33.416 50.5138 33.797L50.5164 33.7996Z" fill="white"/>
<path d="M56.3046 31.1191H57.0542C57.0542 31.1191 57.0723 31.1269 57.0723 31.1373V34.2559C57.0723 35.0362 57.3472 35.5443 57.8945 35.7854C58.1097 35.8657 58.3406 35.9072 58.5818 35.9072C59.2794 35.9072 59.7411 35.6298 59.9641 35.0751C60.0627 34.8314 60.1146 34.541 60.1146 34.2066V31.1373C60.1146 31.1373 60.1197 31.1191 60.1301 31.1191H60.8537C60.8537 31.1191 60.8719 31.1269 60.8719 31.1373V34.2896C60.8719 35.2876 60.4854 35.985 59.71 36.379C59.3702 36.5268 58.9915 36.5994 58.574 36.5994C57.5106 36.5994 56.8052 36.1561 56.4525 35.2669C56.3435 34.948 56.2891 34.6214 56.2891 34.2896V31.1373C56.2891 31.1373 56.2968 31.1191 56.3046 31.1191Z" fill="white"/>
<path d="M62.0299 31.1217H64.2655C64.8594 31.1217 65.3678 31.2773 65.7879 31.5909C66.2237 31.9487 66.4415 32.4024 66.4415 32.9545V33.1023C66.4415 33.7556 66.151 34.2585 65.5701 34.6162C65.2174 34.8366 64.6986 34.948 64.0139 34.948H62.8028V36.5786C62.8028 36.5786 62.7976 36.5968 62.7872 36.5968H62.0299C62.0299 36.5968 62.0117 36.5916 62.0117 36.5786V31.1373C62.0117 31.1373 62.0221 31.1191 62.0299 31.1191V31.1217ZM62.8028 31.8087V34.2507H64.2214C64.8958 34.2507 65.347 34.0096 65.5701 33.5274C65.6219 33.3745 65.6453 33.2371 65.6453 33.1178V32.9649C65.6453 32.4101 65.3418 32.0446 64.7324 31.8683C64.543 31.8269 64.3589 31.8061 64.1773 31.8061H62.8002L62.8028 31.8087Z" fill="white"/>
<path d="M69.915 8.91474V8.29517H68.2317C64.6993 13.7754 63.1562 16.3029 62.583 17.1818C61.6908 15.7948 59.188 11.6549 56.9991 8.29517H55.1758V22.2109H57.7693V14.1694C58.646 15.5486 59.4448 16.7929 61.2499 19.5797L62.5544 21.441L63.7579 19.756L63.7501 19.7508C63.8019 19.6808 63.8538 19.603 63.9109 19.5149C65.7834 16.627 66.8079 15.0431 67.3707 14.1668C67.3603 15.3904 67.3551 16.417 67.3551 17.2258V20.6166C67.3551 20.8836 67.3499 21.6924 67.337 22.2135H69.9305V12.3937C69.9305 11.5771 69.9253 10.4157 69.915 8.91474Z" fill="white"/>
<path d="M53.5868 8.91474V8.29517H51.9036C48.3712 13.7754 46.828 16.3029 46.2549 17.1818C45.3627 15.7948 42.8599 11.6549 40.6709 8.29517H38.8477V22.2109H41.4412V14.1694C42.3178 15.5486 43.1166 16.7929 44.9218 19.5797L46.2263 21.441L47.4297 19.756L47.422 19.7508C47.4738 19.6808 47.5257 19.603 47.5828 19.5149C49.4553 16.627 50.4798 15.0431 51.0426 14.1668C51.0322 15.3904 51.027 16.417 51.027 17.2258V20.6166C51.027 20.8836 51.0218 21.6924 51.0088 22.2135H53.6024V12.3937C53.6024 11.5771 53.5972 10.4157 53.5868 8.91474Z" fill="white"/>
<path d="M95.4422 9.49973C94.371 8.70128 93.0639 8.29688 91.5622 8.29688H85.7656V22.2126H88.4422V18.2541H90.9579C92.693 18.2541 93.982 17.9741 94.8924 17.3986C96.4018 16.4732 97.1669 15.1407 97.1669 13.4401V13.0824C97.1669 11.641 96.5911 10.4408 95.4422 9.49973ZM94.4826 13.4764C94.4826 13.7149 94.4307 13.9949 94.327 14.3137C93.8523 15.3144 92.9109 15.8017 91.4533 15.8017H88.4422V10.7207H91.3521C91.7516 10.7207 92.1665 10.7674 92.5867 10.8555C93.8809 11.2314 94.4852 11.9469 94.4852 13.1083V13.4738L94.4826 13.4764Z" fill="white"/>
<path d="M82.8565 14.8011L78.3541 14.7933H77.2233V17.3416H78.1803C78.2062 17.3442 78.2322 17.3468 78.2607 17.3468H81.2537V19.1485C80.4626 19.571 79.6405 19.7862 78.8105 19.7862H78.4993C77.5942 19.7862 76.7331 19.5321 75.9524 19.0396C74.5986 18.1063 73.9398 16.8698 73.9398 15.2625C73.9398 14.2282 74.2381 13.2923 74.8139 12.4965C75.802 11.304 77.0132 10.7233 78.5175 10.7233H78.7664C79.9258 10.7233 81.041 11.0992 82.0784 11.8328L82.8124 9.44529V9.4401C82.5219 9.27419 82.636 9.34159 81.9539 9.01755C80.9995 8.53796 79.8713 8.29688 78.6005 8.29688C76.6449 8.29688 74.9539 8.8983 73.569 10.0986C72.0828 11.4932 71.3281 13.1705 71.3281 15.0811V15.4932C71.3281 16.8076 71.7483 18.0908 72.5912 19.3299C74.0695 21.2431 76.0717 22.2126 78.546 22.2126C79.7857 22.2126 80.9839 21.9612 82.1043 21.4634C82.6827 21.2042 83.23 20.8283 83.8005 20.2606V14.8011H82.8565Z" fill="white"/>
<path d="M44.6885 23.7793C44.4551 23.7845 44.3228 23.7871 44.2994 23.7871H44.2839C42.6681 26.2939 41.8433 27.5693 41.807 27.616H41.7992C41.7396 27.5201 40.9123 26.242 39.3146 23.7871C39.2887 23.7871 39.1538 23.7871 38.9048 23.7793C38.8867 23.7793 38.8789 23.7845 38.8789 23.7974V29.2388C38.8789 29.2388 38.8841 29.2569 38.8971 29.2569H39.6155C39.6155 29.2569 39.6336 29.2518 39.6336 29.2388V25.5162H39.6414C39.9578 26.0243 40.614 27.0483 41.6151 28.5881H41.9626C41.9782 28.5829 42.0638 28.4559 42.222 28.207C43.3294 26.4987 43.9078 25.6017 43.9571 25.5162H43.9675V25.5239C43.9597 26.2861 43.9571 26.8901 43.9571 27.3386V28.7514C43.9571 28.8629 43.9571 29.0288 43.9493 29.2492L43.9675 29.2569H44.6859C44.6859 29.2569 44.704 29.2518 44.704 29.2388V25.3269C44.704 24.9692 44.7014 24.4559 44.6963 23.7871C44.6885 23.7871 44.6859 23.7871 44.6859 23.7793H44.6885Z" fill="white"/>
<path d="M48.4401 23.7793C47.7528 23.7793 47.1434 23.9737 46.6169 24.3652C45.927 24.9355 45.582 25.638 45.582 26.4702V26.5687C45.582 27.126 45.748 27.6445 46.0826 28.1241C46.6687 28.881 47.452 29.2595 48.4324 29.2595C49.0548 29.2595 49.6228 29.091 50.1363 28.7514C50.8884 28.1811 51.2645 27.4527 51.2645 26.5687V26.4702C51.2645 25.8661 51.0752 25.314 50.6991 24.8162C50.1078 24.1267 49.3557 23.7819 48.4401 23.7819V23.7793ZM50.4916 26.579C50.4916 26.986 50.3671 27.3697 50.1208 27.73C49.6954 28.29 49.1326 28.57 48.4324 28.57C47.8877 28.57 47.4105 28.3963 47.0059 28.0463C46.5702 27.6263 46.3523 27.1364 46.3523 26.579V26.4572C46.3523 26.0761 46.4664 25.7054 46.6921 25.3503C47.1278 24.7618 47.7087 24.4689 48.4324 24.4689C48.8525 24.4689 49.2441 24.5829 49.6098 24.8085C50.1986 25.2492 50.4916 25.7987 50.4916 26.4598V26.5816V26.579Z" fill="white"/>
<path d="M56.1102 23.7793L56.0946 23.7871C56.0998 25.3529 56.1024 26.5998 56.1024 27.5278V27.7534L52.5233 23.7793H52.1861C52.1861 23.7793 52.1706 23.7845 52.168 23.7974V29.2388C52.168 29.2388 52.1732 29.2569 52.1861 29.2569H52.9305C52.9305 29.2569 52.9486 29.2518 52.9486 29.2388V25.2855L56.4473 29.2595H56.8649C56.8649 29.2595 56.8831 29.2543 56.8831 29.2414V23.8C56.8831 23.8 56.8779 23.7845 56.8649 23.7819H56.1076L56.1102 23.7793Z" fill="white"/>
<path d="M65.0285 26.6568H65.0207C64.4631 25.7339 64.1648 25.2466 64.1259 25.1895C63.5864 24.2848 63.2986 23.8156 63.2622 23.7793H62.4375V23.7974L64.6057 27.3438V29.2388C64.6057 29.2388 64.6109 29.2569 64.6213 29.2569H65.3708C65.3708 29.2569 65.389 29.2518 65.389 29.2388V27.3775C65.4227 27.3075 65.7806 26.7112 66.4679 25.5862C67.1915 24.4041 67.5546 23.8026 67.5546 23.7793H66.7895C66.665 23.9711 66.0789 24.9303 65.0311 26.6568H65.0285Z" fill="white"/>
<path d="M75.7666 23.7793C75.5332 23.7845 75.4009 23.7871 75.3776 23.7871H75.362C73.7462 26.2939 72.9215 27.5693 72.8852 27.616H72.8774C72.8177 27.5201 71.9904 26.242 70.3928 23.7871C70.3668 23.7871 70.2319 23.7871 69.983 23.7793C69.9648 23.7793 69.957 23.7845 69.957 23.7974V29.2388C69.957 29.2388 69.9622 29.2569 69.9752 29.2569H70.6936C70.6936 29.2569 70.7118 29.2518 70.7118 29.2388V25.5162H70.7195C71.036 26.0243 71.6921 27.0483 72.6932 28.5881H73.0408C73.0563 28.5829 73.1419 28.4559 73.3001 28.207C74.4076 26.4987 74.9859 25.6017 75.0352 25.5162H75.0456V25.5239C75.0378 26.2861 75.0352 26.8901 75.0352 27.3386V28.7514C75.0352 28.8629 75.0326 29.0288 75.0274 29.2492L75.0456 29.2569H75.764C75.764 29.2569 75.7822 29.2518 75.7822 29.2388V25.3269C75.7822 24.9692 75.7822 24.4559 75.7744 23.7871C75.7666 23.7871 75.764 23.7871 75.764 23.7793H75.7666Z" fill="white"/>
<path d="M79.2484 23.7793H78.9968L76.3125 29.2518L76.3307 29.2595H77.1372C77.1372 29.2595 77.2073 29.1377 77.3214 28.9044C77.63 28.233 77.7882 27.896 77.7986 27.896H80.4129C80.7942 28.7203 81.012 29.1766 81.0613 29.2595H81.8679L81.886 29.2518C81.8731 29.2206 81.8653 29.2051 81.8601 29.2051C80.1925 25.7184 79.321 23.9089 79.2458 23.7793H79.2484ZM78.0943 27.253L79.0928 25.1247H79.1109L80.1095 27.253H78.0943Z" fill="white"/>
<path d="M86.6039 23.7974V23.7793H85.7947C85.6754 23.9193 85.0478 24.6814 83.9092 26.0683H83.1934V23.8C83.1934 23.8 83.1882 23.7845 83.1778 23.7819H82.4205C82.4205 23.7819 82.4049 23.7871 82.4023 23.8V29.2414C82.4023 29.2414 82.4075 29.2595 82.4205 29.2595H83.1778C83.1778 29.2595 83.1934 29.2543 83.1934 29.2414V26.8331H83.917C85.276 28.4118 85.9737 29.2206 86.0126 29.2595H86.9177V29.2414C85.3979 27.406 84.6095 26.4494 84.5524 26.3768L86.6039 23.8026V23.7974Z" fill="white"/>
<path d="M95.2198 27.4316V27.4135C95.3495 27.3746 95.474 27.3176 95.5933 27.2424C96.1379 26.8872 96.4103 26.3947 96.4103 25.7647V25.617C96.4103 25.0648 96.1924 24.6085 95.7567 24.2534C95.3365 23.9397 94.8282 23.7842 94.2343 23.7842H91.9986C91.9986 23.7842 91.9831 23.7894 91.9805 23.8023V29.2437C91.9805 29.2437 91.9857 29.2618 91.9986 29.2618H92.7559C92.7559 29.2618 92.7715 29.2566 92.7715 29.2437V27.6001H94.006C94.1642 27.6001 94.3173 27.5949 94.4677 27.5846C95.2406 28.6889 95.6348 29.2489 95.6529 29.2618H96.4933V29.2437L95.2172 27.4368L95.2198 27.4316ZM94.1565 26.9209H92.7741V24.4686H94.1513C94.3328 24.4686 94.517 24.4893 94.7063 24.5308C95.3158 24.7071 95.6192 25.0726 95.6192 25.6273V25.7829C95.6192 25.9047 95.5933 26.0369 95.544 26.1795C95.3339 26.6747 94.8749 26.9209 94.1591 26.9209H94.1565Z" fill="white"/>
<path d="M90.9564 28.5777H88.0879V26.8123H90.8371V26.1435H88.0879V24.4663L90.8553 24.4481H91.1691V23.7793H87.3228C87.3228 23.7793 87.3073 23.7845 87.3047 23.7974V29.2388C87.3047 29.2388 87.3099 29.2569 87.3228 29.2569H91.278V28.5777H90.9538H90.9564Z" fill="white"/>
<path d="M61.5189 28.5777H58.6504V26.8123H61.3996V26.1435H58.6504V24.4663L61.4178 24.4481H61.7316V23.7793H57.8853C57.8853 23.7793 57.8698 23.7845 57.8672 23.7974V29.2388C57.8672 29.2388 57.8724 29.2569 57.8853 29.2569H61.8405V28.5777H61.5163H61.5189Z" fill="white"/>
<path d="M36.4914 3.33325H35.9727V36.6009H36.4914V3.33325Z" fill="white"/>
</svg>
