<svg width="147" height="40" viewBox="0 0 147 40" fill="none" xmlns="http://www.w3.org/2000/svg">
<g clip-path="url(#clip0_6795_158145)">
<path d="M40.8073 10.4421H44.4289L49.3705 23.2187C49.468 23.4787 49.559 23.7388 49.6371 23.9989C49.7216 24.2525 49.7866 24.5126 49.8451 24.7791H49.9427C50.0012 24.5191 50.0662 24.259 50.1507 23.9924C50.2352 23.7258 50.3198 23.4722 50.4173 23.2187L55.3719 10.4421H59.0195V28.2577H56.2691V15.8974C56.2691 15.6438 56.2691 15.3642 56.2821 15.0456C56.2886 14.7335 56.3082 14.4474 56.3407 14.1938H56.2431C56.1911 14.4474 56.1261 14.7335 56.0351 15.0456C55.944 15.3577 55.853 15.6438 55.7555 15.8974L50.97 28.2577H48.5967L43.8372 15.8974C43.7397 15.6438 43.6422 15.3642 43.5511 15.0456C43.4601 14.7335 43.3886 14.4474 43.3366 14.1938H43.239C43.2716 14.4474 43.2911 14.7335 43.2976 15.0456C43.3041 15.3577 43.3106 15.6438 43.3106 15.8974V28.2577H40.8008V10.4421H40.8073Z" fill="white"/>
<path d="M62.0391 21.6127C62.0391 19.649 62.6112 18.056 63.7556 16.8337C64.9 15.6113 66.4149 15.0066 68.3005 15.0066C70.1861 15.0066 71.7011 15.6178 72.8389 16.8337C73.9833 18.056 74.549 19.649 74.549 21.6127V22.0028C74.549 23.9794 73.9768 25.5724 72.8389 26.7948C71.6946 28.0172 70.1861 28.6219 68.3005 28.6219C66.4149 28.6219 64.9 28.0107 63.7556 26.7948C62.6112 25.5789 62.0391 23.9794 62.0391 22.0028V21.6127ZM64.8284 22.0808C64.8284 23.3682 65.121 24.4215 65.7062 25.2408C66.2914 26.0601 67.1562 26.4632 68.3005 26.4632C69.4449 26.4632 70.2967 26.0536 70.8818 25.2408C71.467 24.428 71.7596 23.3747 71.7596 22.0808V21.5541C71.7596 20.2667 71.467 19.2134 70.8753 18.3877C70.2836 17.5619 69.4254 17.1588 68.3005 17.1588C67.1757 17.1588 66.3044 17.5684 65.7127 18.3877C65.121 19.2069 64.8284 20.2602 64.8284 21.5541V22.0808Z" fill="white"/>
<path d="M77.2852 15.3708H79.8079L79.9055 16.9508H79.964C80.3866 16.3981 80.9328 15.9494 81.6025 15.6178C82.2722 15.2862 83.007 15.1172 83.8197 15.1172C85.1266 15.1172 86.1734 15.4878 86.9667 16.2355C87.7599 16.9833 88.1566 18.2447 88.1566 20.0262V28.2643H85.4257V19.9807C85.4257 19.0249 85.2176 18.3487 84.795 17.9456C84.3724 17.5424 83.7742 17.3409 82.9874 17.3409C82.3372 17.3409 81.7456 17.5229 81.2254 17.8806C80.7052 18.2382 80.3021 18.7193 80.016 19.311V28.2708H77.2852V15.3708Z" fill="white"/>
<path d="M90.7578 21.6127C90.7578 19.6556 91.3105 18.0626 92.4223 16.8402C93.5342 15.6178 94.9841 15.0066 96.7787 15.0066C98.5733 15.0066 99.9647 15.5788 100.953 16.7231C101.941 17.8675 102.435 19.428 102.435 21.3916V22.4579H92.5264V20.4878H99.7241V20.2082C99.7241 19.35 99.477 18.6217 98.9764 18.0235C98.4757 17.4254 97.767 17.1263 96.8502 17.1263C95.7384 17.1263 94.9061 17.5424 94.3534 18.3812C93.8008 19.2199 93.5212 20.2732 93.5212 21.5541V22.0808C93.5212 23.3422 93.8138 24.3955 94.4055 25.2343C94.9971 26.0731 95.8944 26.4892 97.1038 26.4892C97.8775 26.4892 98.5473 26.3136 99.1064 25.9625C99.6656 25.6114 100.121 25.2018 100.472 24.7271L102.305 26.0601C101.896 26.7298 101.246 27.328 100.355 27.8481C99.464 28.3683 98.3847 28.6284 97.1298 28.6284C95.1012 28.6284 93.5277 28.0172 92.4223 26.7948C91.317 25.5724 90.7643 23.9794 90.7643 22.0093V21.6192L90.7578 21.6127Z" fill="white"/>
<path d="M103.324 15.3706H110.86V17.4122H103.324V15.3706ZM105.502 16.5344V12.2366H108.22V24.831C108.22 25.4032 108.337 25.8063 108.565 26.0469C108.792 26.2875 109.131 26.411 109.579 26.411C109.8 26.411 110.015 26.385 110.223 26.3395C110.431 26.2875 110.639 26.229 110.854 26.1444V28.2641C110.652 28.3616 110.379 28.4462 110.034 28.5242C109.69 28.5957 109.319 28.6347 108.909 28.6347C107.876 28.6347 107.05 28.3291 106.432 27.7244C105.815 27.1197 105.509 26.1639 105.509 24.87V16.5474L105.502 16.5344Z" fill="white"/>
<path d="M112.188 21.6127C112.188 19.649 112.76 18.056 113.904 16.8337C115.048 15.6113 116.563 15.0066 118.449 15.0066C120.335 15.0066 121.85 15.6178 122.987 16.8337C124.132 18.056 124.697 19.649 124.697 21.6127V22.0028C124.697 23.9794 124.125 25.5724 122.987 26.7948C121.843 28.0172 120.335 28.6219 118.449 28.6219C116.563 28.6219 115.048 28.0107 113.904 26.7948C112.76 25.5789 112.188 23.9794 112.188 22.0028V21.6127ZM114.977 22.0808C114.977 23.3682 115.269 24.4215 115.855 25.2408C116.44 26.0601 117.305 26.4632 118.449 26.4632C119.593 26.4632 120.445 26.0536 121.03 25.2408C121.615 24.428 121.908 23.3747 121.908 22.0808V21.5541C121.908 20.2667 121.615 19.2134 121.024 18.3877C120.432 17.5619 119.574 17.1588 118.449 17.1588C117.324 17.1588 116.453 17.5684 115.861 18.3877C115.269 19.2069 114.977 20.2602 114.977 21.5541V22.0808Z" fill="white"/>
<path d="M127.434 15.3707H129.956L130.054 16.9377H130.125C130.425 16.424 130.828 15.9754 131.335 15.5853C131.842 15.1952 132.434 15.0066 133.11 15.0066C133.279 15.0066 133.461 15.0261 133.656 15.0651C133.845 15.1041 133.981 15.1431 134.053 15.1756V17.6334C133.897 17.6009 133.734 17.5749 133.565 17.5554C133.396 17.5359 133.201 17.5229 132.993 17.5229C132.323 17.5229 131.744 17.7049 131.257 18.0756C130.769 18.4462 130.405 18.9013 130.164 19.4475V28.2578H127.434V15.3707Z" fill="white"/>
<path d="M135.469 31.1576C135.684 31.2227 135.918 31.2747 136.171 31.3202C136.431 31.3592 136.672 31.3787 136.913 31.3787C137.478 31.3787 137.966 31.1772 138.389 30.7805C138.811 30.3774 139.227 29.5256 139.643 28.2122L139.591 28.1992L134.734 15.3772H137.426L140.326 23.5243C140.443 23.8429 140.534 24.1419 140.612 24.415C140.69 24.6881 140.762 24.9547 140.827 25.2083H140.898C140.963 24.9547 141.041 24.6881 141.126 24.415C141.21 24.1419 141.301 23.8429 141.399 23.5243L144.143 15.3772H146.666L141.418 29.9158C140.996 31.0926 140.424 31.9964 139.708 32.6401C138.993 33.2773 138.122 33.6024 137.082 33.6024C136.737 33.6024 136.438 33.5829 136.184 33.5439C135.924 33.5049 135.684 33.4399 135.456 33.3618L135.469 31.1707V31.1576Z" fill="white"/>
<path d="M14.402 4.03101C6.45003 4.03101 0 10.4745 0 18.4265C0 26.3785 6.45003 32.8285 14.402 32.8285C22.354 32.8285 28.804 26.3785 28.804 18.4265C28.804 10.4745 22.354 4.03101 14.402 4.03101ZM14.402 27.1133C9.61002 27.1133 5.7218 23.225 5.7218 18.4265C5.7218 13.628 9.61002 9.7463 14.402 9.7463C19.194 9.7463 23.0822 13.6345 23.0822 18.4265C23.0822 23.2185 19.2005 27.1133 14.402 27.1133Z" fill="url(#paint0_linear_6795_158145)"/>
<path d="M31.469 34.9028C30.8384 35.6115 29.9541 35.9691 29.0698 35.9691C28.3026 35.9691 27.5288 35.696 26.9176 35.1434L21.9566 30.683C19.7589 32.0484 17.1711 32.8286 14.4012 32.8286C7.63907 32.8286 1.95628 28.1602 0.4218 21.8727C0.382787 21.6841 0.363281 21.4891 0.363281 21.294C0.363281 19.714 1.64418 18.4331 3.23068 18.4331C4.50508 18.4331 5.59092 19.2719 5.95504 20.4292C5.96154 20.4357 5.96154 20.4422 5.96154 20.4487C5.98105 20.5398 6.00055 20.6308 6.03306 20.7218C6.03306 20.7283 6.03956 20.7413 6.03956 20.7543C7.05388 24.4215 10.4154 27.1133 14.4012 27.1133C18.582 27.1133 22.0606 24.1679 22.8929 20.2342C22.9059 20.1887 22.9124 20.1431 22.9189 20.0911C23.2115 18.8167 24.3558 17.8674 25.7147 17.8674C27.2947 17.8674 28.5821 19.1483 28.5821 20.7283C28.5821 20.8129 28.5821 20.8974 28.5691 20.9819C28.5431 21.1835 28.4976 21.385 28.4521 21.5801C28.088 23.2316 27.4378 24.7726 26.5535 26.151L31.2285 30.3513C32.5419 31.5347 32.6524 33.5829 31.469 34.9028Z" fill="#777777"/>
</g>
<defs>
<linearGradient id="paint0_linear_6795_158145" x1="0" y1="18.433" x2="28.804" y2="18.433" gradientUnits="userSpaceOnUse">
<stop offset="0.24" stop-color="#777777"/>
<stop offset="1" stop-color="#777777" stop-opacity="0.1"/>
</linearGradient>
<clipPath id="clip0_6795_158145">
<rect width="146.666" height="40" fill="white"/>
</clipPath>
</defs>
</svg>
