<svg width="132" height="40" viewBox="0 0 132 40" fill="none" xmlns="http://www.w3.org/2000/svg">
<path d="M16.0568 8H13.3527C11.4307 8 8.85327 9.82393 8.5113 12.7902L8.28331 14.1377H0.965749V16.4949H7.88118L7.33972 19.6727H0V22.0299H6.93759L6.53229 24.4187C6.51013 24.586 6.50696 24.7501 6.50063 24.9078C6.34864 27.9372 8.95142 29.2121 10.7151 29.2121H13.1152C15.0721 29.2121 17.6337 28.0477 18.3176 24.4219L19.9293 12.7902C19.9515 12.6261 19.9388 12.462 19.961 12.3074C20.2745 10.272 18.6723 8 16.0632 8H16.0568ZM15.4742 13.0648C15.471 13.0995 14.1538 23.6866 14.1538 23.6866C14.1032 24.0116 13.7865 25.6778 12.9443 25.6778H12.1495C11.3864 25.58 11.4117 24.8952 11.5732 23.9422C11.5795 23.9075 12.9316 13.1878 12.9316 13.1878C13.0361 12.6104 13.0804 11.5374 14.0905 11.5374H14.7206C15.851 11.5374 15.5344 12.5031 15.4742 13.0648Z" fill="white"/>
<path d="M31.3426 18.398L34.4415 29.2121H29.264L26.8254 19.5246L25.3659 29.2121H20.6055L23.8023 8H28.5628L27.1507 17.3643L32.4609 8H37.5752L31.3426 18.398Z" fill="white"/>
<path d="M49.0408 14.1572C48.9636 13.8953 48.8338 13.6596 48.6917 13.4337C48.1788 12.5858 47.3662 11.9671 46.4084 11.7347C46.1426 11.6725 45.8677 11.6365 45.5834 11.6365H42.9015C40.1981 11.6365 37.9457 13.7021 37.4791 16.4225L37.4142 16.9332L36.4564 24.1942C36.4564 24.1942 36.0949 26.4268 36.7963 27.6184C37.3092 28.4924 38.0476 29.2127 38.9745 29.5629C39.4071 29.7299 39.8675 29.8183 40.3525 29.8183H42.778C44.2363 29.6841 45.4505 29.3927 46.1272 28.8395C46.9923 28.1487 47.5176 27.4678 47.8543 25.8997L47.9192 25.4119L48.1139 23.9519L48.3518 22.135H43.915L43.7852 23.1368L43.7728 23.2481L43.3001 26.3646C43.2383 26.8294 42.883 26.9636 42.5061 26.9636H42.1415C41.8047 26.9636 41.369 26.7902 41.369 26.4039C41.369 26.3613 41.3721 26.3122 41.3783 26.2664L41.6688 22.9764L41.8943 21.261L42.2434 18.6421L42.5679 15.866L42.6049 15.5747C42.6667 15.1098 42.7749 14.1736 43.3866 14.1474H43.9119C44.2826 14.1408 44.4897 14.55 44.4526 15.4208C44.4526 15.4699 44.1591 17.9873 44.1591 17.9873H48.8091C48.8091 17.9873 49.2324 14.7988 49.0408 14.1539V14.1572Z" fill="white"/>
<path d="M63.6316 14.5811C63.6316 14.7877 63.6158 15.0039 63.5876 15.2233L61.6483 29.2121H57.1349C57.1349 29.2121 58.7976 17.0482 58.9044 16.3742C59.0584 15.4204 58.3041 15.0929 57.9647 15.0929H57.3455C56.9746 15.0929 56.2108 15.0039 55.9877 16.3837L54.2087 29.2121H49.6953L52.9075 8H57.4209L56.4497 13.055C57.0877 12.2189 59.1339 11.6848 59.9951 11.6848H60.7274C62.5755 11.6848 63.6347 12.842 63.6347 14.5779L63.6316 14.5811Z" fill="white"/>
<path d="M78.1709 15.7709C78.158 15.9344 78.1579 16.101 78.1352 16.271L76.1343 29.6549L70.7477 29.7039L70.9747 28.1579C70.4169 29.4686 68.8959 29.8183 67.7576 29.8183H67.3068C65.3675 29.8183 64.2422 28.6221 64.2422 26.8277C64.2422 26.6186 64.2584 26.4029 64.2876 26.1806L64.6151 23.8437C64.9946 21.3925 67.1803 20.5787 69.2202 19.7158C71.2763 18.8464 72.4859 18.3431 72.4859 18.3431C72.4859 18.3431 72.807 16.6566 72.8556 15.748C72.8913 15.0519 72.8978 14.1531 71.967 14.14C70.6147 14.1204 70.5855 15.4375 70.5174 15.9016L70.3488 17.8529H65.7632L66.1231 15.2741C66.4182 13.2576 69.2462 11.6365 71.3152 11.6365H73.4977C76.3451 11.6365 78.346 13.6073 78.1709 15.7709ZM71.9897 21.2781C71.9897 21.2781 70.3423 21.8664 69.8202 23.4221C69.3986 24.6772 69.3045 26.0564 69.3824 26.5336C69.4472 26.9421 69.658 27.1382 70.2482 27.0761C70.8352 27.0337 71.2795 26.1969 71.2795 26.1969C71.2795 26.1969 71.9249 22.6671 71.9897 21.2781Z" fill="white"/>
<path d="M91.5132 14.5403C91.5132 14.7474 91.5009 14.9642 91.4732 15.1841L89.7034 29.209H85.2668C85.2668 29.209 86.7621 17.5365 86.8268 17.0137C86.8731 16.6504 87.1506 15.0853 86.1855 15.0566H85.6707C85.1188 15.0981 84.7519 15.4901 84.5083 16.9978L82.9112 29.2122H78.7891L80.9966 11.799H84.5946L84.6193 13.6063C85.1465 12.4333 86.2472 11.6365 87.2061 11.6365H88.8617C90.5482 11.6365 91.5163 12.7967 91.5163 14.5371L91.5132 14.5403Z" fill="white"/>
<path d="M107.877 11.8012L105.161 30.7789C104.863 32.9683 102.874 34.6668 100.619 34.6668H93.557L94.0223 31.2051H99.5899C100.088 31.2051 100.452 30.879 100.517 30.4528L100.865 28.0018C100.272 28.9705 99.2852 29.6035 98.3611 29.6035H97.0732C95.1168 29.6035 93.1867 28.3925 93.3407 26.0062C93.3538 25.7963 93.3571 25.58 93.3866 25.3539L94.9104 15.8893C95.2086 13.7645 97.4664 11.6365 99.6555 11.6365H101.11C102.205 11.6365 103.005 12.5277 103.123 13.8097L103.83 11.7979H107.874L107.877 11.8012ZM100.085 26.1418C100.776 26.1418 101.11 25.7608 101.215 25.06C101.215 25.06 102.444 16.6998 102.447 16.6546C102.624 15.2951 102.484 15.1013 101.743 15.1013H100.835C100.065 15.1013 99.9733 15.6988 99.8062 16.6481C99.8062 16.6481 98.6101 24.8405 98.6003 24.8857C98.4495 25.6962 98.7707 26.145 99.4064 26.145H100.088L100.085 26.1418Z" fill="white"/>
<path d="M120.579 16.2758L119.793 21.4903H113.107L112.584 25.2214C112.523 25.6853 112.873 26.3355 113.434 26.3159H113.919C114.512 26.2734 114.891 25.6853 114.949 25.2214L115.25 23.2741H119.549L119.187 25.1822C118.914 27.1653 116.213 29.8183 114.307 29.8183H111.808C109.902 29.8183 107.653 27.1653 107.897 25.1822L109.289 16.2726C109.7 13.2374 112.263 11.6365 114.169 11.6365H116.668C118.574 11.6365 120.884 13.2178 120.579 16.2726V16.2758ZM113.492 18.4845H115.857L116.19 16.5732C116.351 15.4689 116.02 15.1487 115.369 15.1487H114.884C114.156 15.1879 113.922 15.9459 113.823 16.5732L113.492 18.4845Z" fill="white"/>
<path d="M131.513 11.6429L130.608 16.1599L129.053 16.3047C128.187 16.3787 127.832 16.8516 127.633 18.161L126.21 29.2122H121.816L124.17 11.6365H127.915L127.942 13.9143C128.466 12.592 129.5 11.6365 131.039 11.6365H131.513V11.6429Z" fill="white"/>
</svg>
