<svg width="77" height="40" viewBox="0 0 77 40" fill="none" xmlns="http://www.w3.org/2000/svg">
<path d="M53.0794 8.66675H60.7756V16.2223H53.0794V8.66675Z" fill="white"/>
<path d="M0.167969 8.66675H7.86417V16.2223H0.167969V8.66675Z" fill="white"/>
<path d="M26.1427 8.66675H33.8389V16.2223H26.1427V8.66675Z" fill="white"/>
<path d="M60.7756 16.2223H68.4718V23.7779H60.7756V16.2223Z" fill="white"/>
<path d="M7.86417 8.66675H15.5604V16.2223H7.86417V8.66675Z" fill="white"/>
<path d="M7.86417 23.7779H15.5604V31.3334H7.86417V23.7779Z" fill="white"/>
<path d="M0.167969 16.2223H7.86417V23.7779H0.167969V16.2223Z" fill="white"/>
<path d="M15.5604 16.2223H23.2566V23.7779H15.5604V16.2223Z" fill="white"/>
<path d="M33.8389 16.2223H41.5351V23.7779H33.8389V16.2223Z" fill="white"/>
<path d="M26.1427 16.2223H33.8389V23.7779H26.1427V16.2223Z" fill="white"/>
<path d="M53.0794 23.7779H60.7756V31.3334H53.0794V23.7779Z" fill="white"/>
<path d="M0.167969 23.7779H7.86417V31.3334H0.167969V23.7779Z" fill="white"/>
<path d="M26.1427 23.7779H33.8389V31.3334H26.1427V23.7779Z" fill="white"/>
<path d="M68.4718 8.66675H76.168V16.2223H68.4718V8.66675Z" fill="white"/>
<path d="M15.5604 8.66675H23.2566V16.2223H15.5604V8.66675Z" fill="white"/>
<path d="M41.5351 8.66675H49.2313V16.2223H41.5351V8.66675Z" fill="white"/>
<path d="M68.4718 23.7779H76.168V31.3334H68.4718V23.7779Z" fill="white"/>
<path d="M15.5604 23.7779H23.2566V31.3334H15.5604V23.7779Z" fill="white"/>
<path d="M41.5351 23.7779H49.2313V31.3334H41.5351V23.7779Z" fill="white"/>
</svg>
