<svg width="201" height="40" viewBox="0 0 201 40" fill="none" xmlns="http://www.w3.org/2000/svg">
<g clip-path="url(#clip0_4936_71788)">
<path d="M37.9689 14.4286C39.5809 14.4286 40.6066 15.3143 40.6066 16.9381C40.6066 18.5619 39.7274 19.4476 37.9689 19.4476H36.357V14.4286H37.9689ZM62.5875 25.2048C62.5875 26.3857 62.0014 27.2714 60.6825 27.2714C59.5102 27.2714 58.7775 26.3857 58.7775 25.2048V20.6286C58.7775 19.4476 59.5102 18.5619 60.6825 18.5619C62.0014 18.5619 62.5875 19.4476 62.5875 20.6286V25.2048ZM76.9484 15.1667H74.0176V14.281C74.0176 13.5429 74.4572 13.3952 75.0434 13.3952H76.8018V10H74.3107C72.1126 10 70.2076 11.4762 70.2076 13.8381V15.1667H68.4491V18.5619H70.2076V30.2238H73.8711V18.5619H76.8018V15.1667H76.9484ZM60.6825 14.8714C57.019 14.8714 55.114 17.381 55.114 20.3333V25.0571C55.114 28.3048 57.019 30.6667 60.6825 30.6667C64.346 30.6667 66.3975 28.1571 66.3975 25.0571V20.3333C66.3975 17.381 64.346 14.8714 60.6825 14.8714ZM54.0883 18.7095V14.8714H53.6486C51.8902 14.8714 50.7179 15.6095 49.9852 16.9381V15.1667H46.6148V30.2238H50.2782V21.3667C50.2782 19.5952 51.4505 18.5619 53.209 18.5619H54.0883V18.7095ZM32.2539 10.7381V30.3714H36.357V23.1381H37.9689C41.9255 23.1381 44.5632 20.9238 44.5632 16.9381C44.5632 13.1 41.779 10.7381 37.9689 10.7381H32.2539ZM153.735 30.3714H157.545V20.481C157.545 19.3 158.131 18.5619 159.157 18.5619C160.329 18.5619 160.769 19.3 160.769 20.481V30.3714H164.432V19.7429C164.432 17.0857 162.967 15.019 160.036 15.019C158.424 15.019 157.252 15.6095 156.519 16.6429C155.786 15.6095 154.761 15.019 153.149 15.019C151.683 15.019 150.511 15.6095 149.925 16.6429V15.1667H146.848V30.2238H150.511V19.8905C150.658 19.0048 151.244 18.4143 152.27 18.4143C153.295 18.4143 153.735 19.1524 153.735 20.3333V30.3714ZM170.587 20.6286C170.587 19.4476 171.173 18.5619 172.492 18.5619C173.811 18.5619 174.397 19.4476 174.397 20.6286V20.9238H170.44V20.6286H170.587ZM172.492 14.8714C168.975 14.8714 166.923 17.381 166.923 20.3333V25.0571C166.923 28.3048 168.975 30.6667 172.492 30.6667C175.423 30.6667 177.474 29.1905 178.5 27.1238L175.423 25.3524C174.544 27.2714 170.44 28.3048 170.44 25.0571V24.0238H178.06V20.481C178.207 17.381 176.009 14.8714 172.492 14.8714ZM187.586 30.3714H191.249V19.5952C191.249 17.0857 189.784 15.019 186.706 15.019C185.387 15.019 184.215 15.6095 183.482 16.6429V15.1667H180.112V30.2238H183.922V20.3333C183.922 19.1524 184.508 18.4143 185.68 18.4143C186.853 18.4143 187.439 19.3 187.439 20.481V30.3714H187.586ZM200.921 18.5619V15.1667H198.136V11.181H194.473V15.3143H192.568V18.7095H194.473V26.681C194.473 28.8952 196.085 30.519 198.576 30.519H200.627V26.9762H199.162C198.576 26.9762 198.136 26.8286 198.136 25.9429V18.5619H200.921Z" fill="white"/>
<path fill-rule="evenodd" clip-rule="evenodd" d="M12.5234 19.414V12.1209V4.68188L18.6633 8.4743L24.8031 12.1209L18.6633 15.7674L12.5234 19.414Z" fill="url(#paint0_linear_4936_71788)"/>
<path fill-rule="evenodd" clip-rule="evenodd" d="M12.5257 19.414L6.5321 15.7674L0.246094 12.1209L6.5321 8.4743L12.5257 4.68188V12.1209V19.414Z" fill="url(#paint1_linear_4936_71788)"/>
<path fill-rule="evenodd" clip-rule="evenodd" d="M12.5257 19.414L6.5321 23.0605L0.246094 26.8529V19.414V12.1208L6.5321 15.7674L12.5257 19.414Z" fill="url(#paint2_linear_4936_71788)"/>
<path fill-rule="evenodd" clip-rule="evenodd" d="M12.5257 19.4141V26.853V34.0003L6.5321 30.4996L0.246094 26.853L6.5321 23.0606L12.5257 19.4141Z" fill="url(#paint3_linear_4936_71788)"/>
<path fill-rule="evenodd" clip-rule="evenodd" d="M12.5234 19.4141V26.853V34.0003L18.6633 30.4996L24.8031 26.853L18.6633 23.0606L12.5234 19.4141Z" fill="url(#paint4_linear_4936_71788)"/>
<path fill-rule="evenodd" clip-rule="evenodd" d="M12.5234 19.414L18.6633 23.0605L24.8031 26.8529V19.414V12.1208L18.6633 15.7674L12.5234 19.414Z" fill="url(#paint5_linear_4936_71788)"/>
<path d="M115.232 20.4985C115.232 19.3023 115.839 18.4051 117.054 18.4051C118.421 18.4051 119.181 19.3023 119.181 20.4985V20.7976H115.08V20.4985H115.232ZM117.206 14.6667C113.561 14.6667 111.586 17.2088 111.586 20.1995V24.9845C111.586 28.2742 113.713 30.6667 117.358 30.6667C120.396 30.6667 122.523 29.1714 123.586 27.078L120.396 25.2836C119.485 27.2275 115.232 28.2742 115.232 24.9845V23.9378H123.13V20.349C123.13 17.2088 121.004 14.6667 117.206 14.6667Z" fill="url(#paint6_linear_4936_71788)"/>
<path d="M84.2539 15.3333H80.2539V29.9999H84.2539V15.3333Z" fill="url(#paint7_linear_4936_71788)"/>
<path d="M82.2539 10C83.3308 10 84.2539 10.9231 84.2539 12C84.2539 13.0769 83.3308 14 82.2539 14C81.0231 14 80.2539 13.0769 80.2539 12C80.2539 10.9231 81.0231 10 82.2539 10Z" fill="url(#paint8_linear_4936_71788)"/>
<path d="M144.254 18.4579V15.1806H141.587V11.3333H138.078V15.3231H136.254V18.6004H138.078V26.2951C138.078 28.4325 139.622 29.9999 142.008 29.9999H143.973V26.5801H142.57C142.008 26.5801 141.587 26.4376 141.587 25.5826V18.4579H144.254Z" fill="url(#paint9_linear_4936_71788)"/>
<path d="M131.081 20.0499H134.636V19.7509C134.636 16.1621 131.649 14.6667 129.516 14.6667C126.387 14.6667 124.396 16.4611 124.396 19.3023C124.396 21.8443 125.534 23.0406 127.809 23.7882L129.232 24.3864C130.227 24.6854 131.365 24.9845 131.365 25.8817C131.365 26.6294 130.654 27.078 129.658 27.078C128.663 27.078 127.809 26.4798 127.809 25.2836V25.134H124.254V25.7322C124.254 28.4238 126.387 30.6667 129.658 30.6667C132.929 30.6667 134.921 28.7228 134.921 25.7322C134.921 23.4892 133.641 21.9938 131.507 21.2462L130.227 20.7976C128.947 20.1995 127.809 20.0499 127.809 19.3023C127.809 18.7041 128.236 18.2555 129.374 18.2555C130.369 18.2555 130.938 18.8537 130.938 19.7509V20.0499H131.081Z" fill="url(#paint10_linear_4936_71788)"/>
<path d="M98.2539 15.3333L102.82 29.9999H106.502L110.921 15.3333H107.238L104.587 24.5889L102.231 15.3333H98.2539Z" fill="url(#paint11_linear_4936_71788)"/>
<path d="M93.8592 30.0001H97.5872V19.2373C97.5872 16.7309 96.096 14.6667 92.9644 14.6667C91.6223 14.6667 90.4293 15.2565 89.6837 16.2885V14.8142H86.2539V29.8526H89.982V19.9744C90.1311 18.795 90.7276 18.0578 91.9206 18.0578C93.1136 18.0578 93.71 18.9424 93.71 20.1219V30.0001H93.8592Z" fill="url(#paint12_linear_4936_71788)"/>
</g>
<defs>
<linearGradient id="paint0_linear_4936_71788" x1="12.0626" y1="11.5881" x2="23.4769" y2="11.5881" gradientUnits="userSpaceOnUse">
<stop stop-color="white"/>
<stop offset="0.0001" stop-color="#9C9C9C"/>
<stop offset="0.6118" stop-color="#9C9C9C"/>
<stop offset="1" stop-color="#5F5F5F"/>
</linearGradient>
<linearGradient id="paint1_linear_4936_71788" x1="5.85225" y1="15.411" x2="11.6995" y2="4.90435" gradientUnits="userSpaceOnUse">
<stop stop-color="#DCDCDC"/>
<stop offset="0.6118" stop-color="#A4A4A4"/>
<stop offset="1" stop-color="#595959"/>
</linearGradient>
<linearGradient id="paint2_linear_4936_71788" x1="1.34595" y1="18.9588" x2="12.342" y2="18.9588" gradientUnits="userSpaceOnUse">
<stop stop-color="#D4D4D4"/>
<stop offset="0.6118" stop-color="#9A9A9A"/>
<stop offset="1" stop-color="#8C8C8C"/>
</linearGradient>
<linearGradient id="paint3_linear_4936_71788" x1="8.81988" y1="30.6666" x2="4.56052" y2="18.7936" gradientUnits="userSpaceOnUse">
<stop stop-color="#EFEFEF"/>
<stop offset="0.6118" stop-color="#8C8C8C"/>
<stop offset="1" stop-color="#5B5B5B"/>
</linearGradient>
<linearGradient id="paint4_linear_4936_71788" x1="12.0626" y1="26.2544" x2="23.4769" y2="26.2544" gradientUnits="userSpaceOnUse">
<stop stop-color="#E5E5E5"/>
<stop offset="0.6118" stop-color="#989898"/>
<stop offset="1" stop-color="#696969"/>
</linearGradient>
<linearGradient id="paint5_linear_4936_71788" x1="18.1479" y1="22.7614" x2="23.9791" y2="12.282" gradientUnits="userSpaceOnUse">
<stop stop-color="#E4E4E4"/>
<stop offset="0.6118" stop-color="#989898"/>
<stop offset="1" stop-color="#737373"/>
</linearGradient>
<linearGradient id="paint6_linear_4936_71788" x1="124.972" y1="16.7922" x2="122.558" y2="30.4159" gradientUnits="userSpaceOnUse">
<stop stop-color="#8D8D8D"/>
<stop offset="0.502" stop-color="#DCDCDC"/>
<stop offset="1" stop-color="#9D9D9D"/>
</linearGradient>
<linearGradient id="paint7_linear_4936_71788" x1="84.716" y1="17.2816" x2="79.6433" y2="27.69" gradientUnits="userSpaceOnUse">
<stop stop-color="#8D8D8D"/>
<stop offset="0.502" stop-color="#DCDCDC"/>
<stop offset="1" stop-color="#9D9D9D"/>
</linearGradient>
<linearGradient id="paint8_linear_4936_71788" x1="84.716" y1="10.5314" x2="84.2572" y2="13.9833" gradientUnits="userSpaceOnUse">
<stop stop-color="#8D8D8D"/>
<stop offset="0.502" stop-color="#DCDCDC"/>
<stop offset="1" stop-color="#9D9D9D"/>
</linearGradient>
<linearGradient id="paint9_linear_4936_71788" x1="145.178" y1="13.8129" x2="140.54" y2="28.768" gradientUnits="userSpaceOnUse">
<stop stop-color="#8D8D8D"/>
<stop offset="0.502" stop-color="#DCDCDC"/>
<stop offset="1" stop-color="#9D9D9D"/>
</linearGradient>
<linearGradient id="paint10_linear_4936_71788" x1="136.153" y1="16.7922" x2="133.458" y2="30.3066" gradientUnits="userSpaceOnUse">
<stop stop-color="#8D8D8D"/>
<stop offset="0.502" stop-color="#DCDCDC"/>
<stop offset="1" stop-color="#9D9D9D"/>
</linearGradient>
<linearGradient id="paint11_linear_4936_71788" x1="112.384" y1="17.2816" x2="110.447" y2="29.8642" gradientUnits="userSpaceOnUse">
<stop stop-color="#8D8D8D"/>
<stop offset="0.502" stop-color="#DCDCDC"/>
<stop offset="1" stop-color="#9D9D9D"/>
</linearGradient>
<linearGradient id="paint12_linear_4936_71788" x1="98.8966" y1="16.7036" x2="96.5508" y2="29.7479" gradientUnits="userSpaceOnUse">
<stop stop-color="#8D8D8D"/>
<stop offset="0.502" stop-color="#DCDCDC"/>
<stop offset="1" stop-color="#9D9D9D"/>
</linearGradient>
<clipPath id="clip0_4936_71788">
<rect width="200.667" height="40" fill="white" transform="translate(0.253906)"/>
</clipPath>
</defs>
</svg>
