<svg width="105" height="40" viewBox="0 0 105 40" fill="none" xmlns="http://www.w3.org/2000/svg">
<g clip-path="url(#clip0_6795_158149)">
<path d="M19.4861 8L7.46484 19.9169L19.4643 31.6451L23.8363 27.218L16.3611 19.9169L23.8363 12.536L19.4861 8Z" fill="white"/>
<path d="M4.35026 31.8263L16.3715 19.9166L4.37926 8.18115L0 12.6083L7.47519 19.9166L0 27.2903L4.35026 31.8263Z" fill="#8D8D8D"/>
<path d="M40.7924 21.3902C40.8504 21.3685 42.634 19.8662 43.2213 18.9009C43.8086 17.9356 44.1421 16.5567 44.0769 15.2068C43.9899 13.4069 43.2721 11.4401 40.8432 10.1918C39.5309 9.51688 37.9358 9.53865 36.4059 9.53865H29.8008V29.4026H34.7963V22.2902H36.5872L40.7924 29.4026H45.875L40.7924 21.3975V21.3902ZM34.7311 13.4069H37.073C37.8923 13.4069 39.3278 14.1109 39.3278 16.1866C39.3278 18.0227 37.9068 18.7775 37.0947 18.7775H34.7311V13.4069Z" fill="white"/>
<path d="M52.5893 29.526C51.6177 29.526 50.7404 29.3881 50.0009 29.018C47.9128 27.9656 47.5938 26.2892 47.5938 25.2804C47.5938 22.82 49.2323 20.65 53.2128 19.8444C55.0762 19.467 56.461 20.0694 56.548 19.1913C56.6133 18.5236 55.591 17.7252 54.3947 17.7398C53.1186 17.7543 52.0383 18.0083 51.1247 18.7123L48.9713 16.0923C49.4354 15.6133 50.6244 15.0399 51.5452 14.6771C52.466 14.3142 53.5319 14.1255 54.7427 14.1255C55.5837 14.1255 56.3958 14.2271 57.1716 14.423C57.9474 14.619 58.6362 14.9311 59.2379 15.3448C59.8397 15.7584 60.3183 16.2955 60.6663 16.9414C61.0143 17.5873 61.1883 18.3712 61.1883 19.2711V29.526H57.1933V27.4213H57.0773C56.8308 27.8931 55.1559 29.0253 54.5759 29.2285C54.0031 29.4317 53.3433 29.5333 52.5893 29.5333V29.526ZM53.8074 26.0134C54.3004 26.0134 54.7427 25.9118 55.1197 25.7158C55.4967 25.5199 55.794 25.2513 56.0115 24.9175C56.229 24.5836 56.3378 24.199 56.3378 23.7708V22.4862C56.2363 22.5515 53.1838 22.3918 52.2775 23.8143C52.1325 24.0393 52.031 24.2933 52.031 24.6054C52.031 25.0626 52.1978 25.411 52.5313 25.6505C52.8648 25.89 53.2926 26.0134 53.8074 26.0134Z" fill="white"/>
<path d="M72.1302 29.3298C71.9199 29.3878 71.0208 29.7217 70.4698 29.7362C69.462 29.7798 68.5702 29.6419 67.8016 29.337C67.0403 29.025 66.4531 28.5387 66.0325 27.8855C65.612 27.2323 65.3945 26.405 65.4017 25.4107V17.5H63.3281V15.1848C63.3281 15.1848 64.4592 14.5171 64.974 13.5591C65.5758 12.4269 65.409 10.6924 65.409 10.6924H69.6215V14.3357H72.4782V17.5H69.6215V24.8591C69.6215 25.251 69.6795 25.5486 69.7955 25.7663C69.9188 25.9841 70.0855 26.1365 70.303 26.2163C70.5206 26.3034 70.7598 26.3469 71.0426 26.3469C71.2383 26.3469 71.4414 26.3252 71.6299 26.2961C71.8256 26.2598 71.9851 26.2236 72.0866 26.209L72.1229 29.3298H72.1302Z" fill="white"/>
<path d="M89.222 23.9084V22.5077C89.222 21.2086 89.4757 14.7712 82.3268 14.8655C80.8332 14.8873 79.5354 15.1921 78.4333 15.8526C77.324 16.513 76.4757 17.4347 75.8667 18.6104C75.2504 19.7934 74.9531 21.1651 74.9531 22.7255C74.9531 24.2858 75.1634 25.7664 75.8667 26.8913C77.3168 29.221 79.4846 29.9758 82.6603 30.1064C83.9074 30.1572 86.5828 29.8669 88.6274 28.9379L88.6927 25.1059C87.2571 26.318 85.0022 26.4413 83.4216 26.4268C82.1383 26.4123 79.8907 26.151 79.8834 23.8939C82.073 23.8939 89.2147 23.9084 89.2147 23.9084H89.222ZM82.3631 18.4943C84.5019 18.4943 85.1255 20.3305 85.1255 20.9401H79.7674C79.7892 20.3958 80.42 18.4943 82.3703 18.4943H82.3631Z" fill="white"/>
<path d="M103.733 15.889L102.312 18.9082C99.2453 17.4784 96.9034 17.6816 96.9034 18.6396C96.9034 19.5976 97.7807 19.9968 99.9195 20.3814C101.406 20.65 103.16 21.4918 103.886 22.1668C104.611 22.8417 104.973 23.7272 104.973 24.8158C104.973 25.8101 104.683 26.6883 104.096 27.4358C103.516 28.1906 102.718 28.7712 101.703 29.1921C100.688 29.613 99.528 29.8235 98.2084 29.8235C96.2001 29.8235 93.6262 29.5695 92.1181 28.7494L92.1036 24.8811C94.0757 25.8028 95.7723 25.948 97.7662 25.948C98.948 25.948 99.5715 25.6069 99.5715 25.1496C99.5715 24.1989 97.0556 23.7417 96.1203 23.5602C94.634 23.2772 93.5319 22.3845 92.8069 21.6515C92.0818 20.9185 91.7266 19.9823 91.7266 18.8501C91.7266 17.8776 91.9948 17.0357 92.5241 16.3245C93.0534 15.6205 93.8002 15.0762 94.7717 14.6915C95.7361 14.3069 96.8671 14.1182 98.1649 14.1182C100.079 14.1182 102.015 14.4593 103.741 15.8817L103.733 15.889Z" fill="white"/>
</g>
<defs>
<clipPath id="clip0_6795_158149">
<rect width="104.667" height="40" fill="white"/>
</clipPath>
</defs>
</svg>
