<svg width="155" height="40" viewBox="0 0 155 40" fill="none" xmlns="http://www.w3.org/2000/svg">
<g clip-path="url(#clip0_8924_89839)">
<path fill-rule="evenodd" clip-rule="evenodd" d="M17.6545 12.6015C17.6545 17.352 13.8143 21.203 9.07724 21.203C4.34015 21.203 0.5 17.352 0.5 12.6015C0.5 7.85103 4.34015 4 9.07724 4C13.8143 4 17.6545 7.85103 17.6545 12.6015ZM14.2236 9.10544C14.2236 9.7184 13.728 10.2153 13.1168 10.2153C12.5056 10.2153 12.0101 9.7184 12.0101 9.10544C12.0101 8.49248 12.5056 7.99556 13.1168 7.99556C13.728 7.99556 14.2236 8.49248 14.2236 9.10544ZM9.02187 9.10536C10.1221 9.10536 11.0141 8.50912 11.0141 7.77353C11.0141 7.03797 10.1221 6.44168 9.02187 6.44168C7.92168 6.44168 7.02977 7.03797 7.02977 7.77353C7.02977 8.50912 7.92168 9.10536 9.02187 9.10536Z" fill="#797979"/>
<path d="M97.8778 16.8783C97.8778 15.9758 97.5618 15.2634 96.9291 14.7414C96.2971 14.2118 95.1409 13.712 93.4597 13.2422C91.7785 12.7648 90.5513 12.2464 89.7781 11.687C88.6769 10.8963 88.1272 9.85951 88.1272 8.57663C88.1272 7.33102 88.6362 6.32035 89.6552 5.54463C90.6813 4.76146 91.9907 4.36987 93.5826 4.36987C94.6606 4.36987 95.6237 4.57872 96.4719 4.99641C97.3273 5.4141 97.9895 5.99589 98.4579 6.74177C98.9263 7.48765 99.1609 8.31927 99.1609 9.23671H97.7773C97.7773 8.12535 97.3983 7.23406 96.6394 6.56276C95.8806 5.88401 94.8617 5.54463 93.5826 5.54463C92.3402 5.54463 91.3508 5.82434 90.6151 6.38375C89.8786 6.9357 89.51 7.65921 89.51 8.55423C89.51 9.38215 89.8411 10.0572 90.5034 10.5794C91.1649 11.1014 92.2253 11.5639 93.6831 11.9666C95.1409 12.362 96.2453 12.7759 96.9961 13.2086C97.7478 13.6337 98.3127 14.1446 98.6917 14.7414C99.0715 15.3381 99.2614 16.0429 99.2614 16.8559C99.2614 18.1388 98.7476 19.1682 97.7214 19.9438C96.7025 20.7196 95.3564 21.1074 93.6831 21.1074C92.5373 21.1074 91.4848 20.9023 90.5257 20.4921C89.5738 20.0818 88.8485 19.5075 88.3498 18.7691C87.859 18.0306 87.6133 17.1841 87.6133 16.2294H88.9857C88.9857 17.378 89.4134 18.2842 90.2688 18.9481C91.1242 19.6119 92.262 19.9438 93.6831 19.9438C94.947 19.9438 95.9628 19.6642 96.7288 19.1047C97.4948 18.5454 97.8778 17.8032 97.8778 16.8783Z" fill="#797979"/>
<path d="M103.599 14.2489V20.8835H102.227V4.59351H107.76C109.449 4.59351 110.78 5.02612 111.754 5.89134C112.736 6.75656 113.227 7.94624 113.227 9.46035C113.227 10.9895 112.754 12.1716 111.81 13.0071C110.873 13.835 109.512 14.2489 107.727 14.2489H103.599ZM103.599 13.0854H107.76C109.091 13.0854 110.107 12.7683 110.806 12.1343C111.505 11.5003 111.854 10.6165 111.854 9.48275C111.854 8.35651 111.505 7.46142 110.806 6.79759C110.114 6.1263 109.129 5.78319 107.85 5.76827H103.599V13.0854Z" fill="#797979"/>
<path d="M123.534 16.3187H116.16L114.486 20.8835H113.047L119.194 4.59351H120.5L126.647 20.8835H125.219L123.534 16.3187ZM116.584 15.144H123.099L119.841 6.27174L116.584 15.144Z" fill="#797979"/>
<path d="M140.414 15.8042C140.228 17.5198 139.614 18.8325 138.573 19.7425C137.539 20.6525 136.159 21.1074 134.434 21.1074C133.229 21.1074 132.162 20.8054 131.232 20.2012C130.31 19.597 129.595 18.743 129.09 17.6391C128.584 16.5278 128.327 15.2598 128.32 13.8351V11.7206C128.32 10.2735 128.572 8.99063 129.078 7.87178C129.584 6.75296 130.31 5.89146 131.254 5.2873C132.206 4.67568 133.299 4.36987 134.535 4.36987C136.275 4.36987 137.646 4.8435 138.651 5.79078C139.663 6.73058 140.25 8.03215 140.414 9.69543H139.03C138.688 6.92824 137.189 5.54463 134.535 5.54463C133.062 5.54463 131.886 6.09658 131.009 7.20049C130.139 8.30439 129.703 9.82975 129.703 11.7765V13.768C129.703 15.6476 130.128 17.1468 130.975 18.2656C131.83 19.3845 132.983 19.9438 134.434 19.9438C135.87 19.9438 136.952 19.6007 137.68 18.9146C138.409 18.2209 138.859 17.1841 139.03 15.8042H140.414Z" fill="#797979"/>
<path d="M152.723 13.0742H145.126V19.7199H153.861V20.8835H143.754V4.59351H153.805V5.76827H145.126V11.9106H152.723V13.0742Z" fill="#797979"/>
<path d="M97.8778 16.8783C97.8778 15.9758 97.5618 15.2634 96.9291 14.7414C96.2971 14.2118 95.1409 13.712 93.4597 13.2422C91.7785 12.7648 90.5513 12.2464 89.7781 11.687C88.6769 10.8963 88.1272 9.85951 88.1272 8.57663C88.1272 7.33102 88.6362 6.32035 89.6552 5.54463C90.6813 4.76146 91.9907 4.36987 93.5826 4.36987C94.6606 4.36987 95.6237 4.57872 96.4719 4.99641C97.3273 5.4141 97.9895 5.99589 98.4579 6.74177C98.9263 7.48765 99.1609 8.31927 99.1609 9.23671H97.7773C97.7773 8.12535 97.3983 7.23406 96.6394 6.56276C95.8806 5.88401 94.8617 5.54463 93.5826 5.54463C92.3402 5.54463 91.3508 5.82434 90.6151 6.38375C89.8786 6.9357 89.51 7.65921 89.51 8.55423C89.51 9.38215 89.8411 10.0572 90.5034 10.5794C91.1649 11.1014 92.2253 11.5639 93.6831 11.9666C95.1409 12.362 96.2453 12.7759 96.9961 13.2086C97.7478 13.6337 98.3127 14.1446 98.6917 14.7414C99.0715 15.3381 99.2614 16.0429 99.2614 16.8559C99.2614 18.1388 98.7476 19.1682 97.7214 19.9438C96.7025 20.7196 95.3564 21.1074 93.6831 21.1074C92.5373 21.1074 91.4848 20.9023 90.5257 20.4921C89.5738 20.0818 88.8485 19.5075 88.3498 18.7691C87.859 18.0306 87.6133 17.1841 87.6133 16.2294H88.9857C88.9857 17.378 89.4134 18.2842 90.2688 18.9481C91.1242 19.6119 92.262 19.9438 93.6831 19.9438C94.947 19.9438 95.9628 19.6642 96.7288 19.1047C97.4948 18.5454 97.8778 17.8032 97.8778 16.8783Z" fill="#797979"/>
<path d="M32.8225 16.6098C32.8225 15.9758 32.5994 15.491 32.1531 15.1553C31.7068 14.8122 30.9035 14.4542 29.7433 14.0813C28.583 13.7009 27.6644 13.3279 26.9876 12.9624C25.1431 11.963 24.2207 10.6166 24.2207 8.92343C24.2207 8.04335 24.4662 7.26016 24.9571 6.57395C25.4554 5.88028 26.1658 5.33952 27.088 4.95166C28.0177 4.5638 29.059 4.36987 30.2119 4.36987C31.3722 4.36987 32.406 4.58245 33.3133 5.0076C34.2208 5.4253 34.9236 6.01827 35.422 6.78653C35.9278 7.55479 36.1806 8.42743 36.1806 9.40455H32.8336C32.8336 8.65871 32.5994 8.08063 32.1308 7.67039C31.6622 7.2527 31.004 7.04386 30.1561 7.04386C29.3379 7.04386 28.702 7.21914 28.2483 7.5697C27.7946 7.9128 27.5677 8.36775 27.5677 8.93463C27.5677 9.46423 27.8317 9.90807 28.3599 10.2661C28.8954 10.6241 29.6801 10.9598 30.7139 11.273C32.618 11.8474 34.0051 12.5597 34.8753 13.4099C35.7455 14.2602 36.1806 15.3194 36.1806 16.5874C36.1806 17.9971 35.6488 19.1047 34.5852 19.9103C33.5216 20.7084 32.0899 21.1074 30.2899 21.1074C29.0404 21.1074 27.9024 20.8799 26.8761 20.425C25.8496 19.9625 25.0649 19.3322 24.522 18.5342C23.9865 17.7361 23.7188 16.8112 23.7188 15.7594H27.0768C27.0768 17.557 28.1479 18.4558 30.2899 18.4558C31.0858 18.4558 31.7068 18.2954 32.1531 17.9747C32.5994 17.6466 32.8225 17.1916 32.8225 16.6098Z" fill="white"/>
<path d="M51.1099 16.1847L53.2967 4.59375H56.6325L53.0289 20.8838H49.6596L47.0155 9.98643L44.3714 20.8838H41.002L37.3984 4.59375H40.7343L42.9321 16.1623L45.6098 4.59375H48.4435L51.1099 16.1847Z" fill="white"/>
<path d="M67.129 17.5273H61.2606L60.1449 20.8838H56.5859L62.6329 4.59375H65.7344L71.8147 20.8838H68.2558L67.129 17.5273ZM62.1643 14.8086H66.2253L64.1836 8.71099L62.1643 14.8086Z" fill="white"/>
<path d="M76.679 15.1443V20.8838H73.332V4.59375H79.6689C80.8888 4.59375 81.9596 4.81752 82.882 5.26505C83.8116 5.71257 84.5258 6.3503 85.0245 7.17823C85.5224 7.99869 85.7713 8.93475 85.7713 9.98643C85.7713 11.5827 85.2247 12.8432 84.1316 13.7681C83.0456 14.6856 81.5399 15.1443 79.6132 15.1443H76.679ZM76.679 12.4255H79.6689C80.5537 12.4255 81.2271 12.2167 81.6883 11.799C82.1567 11.3812 82.3913 10.7846 82.3913 10.0088C82.3913 9.21075 82.1567 8.56555 81.6883 8.07331C81.2199 7.58101 80.5728 7.32741 79.747 7.31249H76.679V12.4255Z" fill="white"/>
<path d="M32.8225 16.6098C32.8225 15.9758 32.5994 15.491 32.1531 15.1553C31.7068 14.8122 30.9035 14.4542 29.7433 14.0813C28.583 13.7009 27.6644 13.3279 26.9876 12.9624C25.1431 11.963 24.2207 10.6166 24.2207 8.92343C24.2207 8.04335 24.4662 7.26016 24.9571 6.57395C25.4554 5.88028 26.1658 5.33952 27.088 4.95166C28.0177 4.5638 29.059 4.36987 30.2119 4.36987C31.3722 4.36987 32.406 4.58245 33.3133 5.0076C34.2208 5.4253 34.9236 6.01827 35.422 6.78653C35.9278 7.55479 36.1806 8.42743 36.1806 9.40455H32.8336C32.8336 8.65871 32.5994 8.08063 32.1308 7.67039C31.6622 7.2527 31.004 7.04386 30.1561 7.04386C29.3379 7.04386 28.702 7.21914 28.2483 7.5697C27.7946 7.9128 27.5677 8.36775 27.5677 8.93463C27.5677 9.46423 27.8317 9.90807 28.3599 10.2661C28.8954 10.6241 29.6801 10.9598 30.7139 11.273C32.618 11.8474 34.0051 12.5597 34.8753 13.4099C35.7455 14.2602 36.1806 15.3194 36.1806 16.5874C36.1806 17.9971 35.6488 19.1047 34.5852 19.9103C33.5216 20.7084 32.0899 21.1074 30.2899 21.1074C29.0404 21.1074 27.9024 20.8799 26.8761 20.425C25.8496 19.9625 25.0649 19.3322 24.522 18.5342C23.9865 17.7361 23.7188 16.8112 23.7188 15.7594H27.0768C27.0768 17.557 28.1479 18.4558 30.2899 18.4558C31.0858 18.4558 31.7068 18.2954 32.1531 17.9747C32.5994 17.6466 32.8225 17.1916 32.8225 16.6098Z" fill="white"/>
<path d="M51.1099 16.1847L53.2967 4.59375H56.6325L53.0289 20.8838H49.6596L47.0155 9.98643L44.3714 20.8838H41.002L37.3984 4.59375H40.7343L42.9321 16.1623L45.6098 4.59375H48.4435L51.1099 16.1847Z" fill="white"/>
<path d="M67.129 17.5273H61.2606L60.1449 20.8838H56.5859L62.6329 4.59375H65.7344L71.8147 20.8838H68.2558L67.129 17.5273ZM62.1643 14.8086H66.2253L64.1836 8.71099L62.1643 14.8086Z" fill="white"/>
<path d="M76.679 15.1443V20.8838H73.332V4.59375H79.6689C80.8888 4.59375 81.9596 4.81752 82.882 5.26505C83.8116 5.71257 84.5258 6.3503 85.0245 7.17823C85.5224 7.99869 85.7713 8.93475 85.7713 9.98643C85.7713 11.5827 85.2247 12.8432 84.1316 13.7681C83.0456 14.6856 81.5399 15.1443 79.6132 15.1443H76.679ZM76.679 12.4255H79.6689C80.5537 12.4255 81.2271 12.2167 81.6883 11.799C82.1567 11.3812 82.3913 10.7846 82.3913 10.0088C82.3913 9.21075 82.1567 8.56555 81.6883 8.07331C81.2199 7.58101 80.5728 7.32741 79.747 7.31249H76.679V12.4255Z" fill="white"/>
<path d="M28.8666 32.0849H29.8242C29.7743 32.545 29.643 32.9567 29.4302 33.32C29.2174 33.6834 28.9165 33.9717 28.5275 34.1851C28.1385 34.3951 27.653 34.5001 27.0712 34.5001C26.6455 34.5001 26.2582 34.4201 25.9091 34.2601C25.5632 34.1001 25.2657 33.8734 25.0163 33.58C24.7669 33.2834 24.574 32.9284 24.4378 32.515C24.3047 32.0983 24.2383 31.6349 24.2383 31.1248V30.3998C24.2383 29.8897 24.3047 29.428 24.4378 29.0147C24.574 28.598 24.7686 28.2413 25.0213 27.9446C25.2773 27.6479 25.5849 27.4196 25.9439 27.2596C26.3031 27.0996 26.7071 27.0195 27.1559 27.0195C27.7046 27.0195 28.1684 27.1228 28.5474 27.3296C28.9264 27.5362 29.2207 27.8229 29.4302 28.1896C29.643 28.553 29.7743 28.9747 29.8242 29.4547H28.8666C28.8201 29.1147 28.7336 28.823 28.6073 28.5796C28.4809 28.3329 28.3013 28.1429 28.0687 28.0096C27.8359 27.8763 27.5316 27.8096 27.1559 27.8096C26.8334 27.8096 26.5491 27.8712 26.3031 27.9946C26.0603 28.118 25.8558 28.2929 25.6896 28.5196C25.5267 28.7464 25.4037 29.018 25.3205 29.3347C25.2374 29.6514 25.1959 30.0031 25.1959 30.3898V31.1248C25.1959 31.4816 25.2324 31.8166 25.3056 32.13C25.382 32.4433 25.4968 32.7183 25.6497 32.955C25.8026 33.1917 25.9972 33.3784 26.2333 33.5151C26.4693 33.6484 26.7486 33.7151 27.0712 33.7151C27.4801 33.7151 27.806 33.65 28.0487 33.52C28.2914 33.39 28.4742 33.2033 28.5973 32.96C28.7237 32.7167 28.8134 32.4249 28.8666 32.0849ZM31.9189 29.8397V34.4001H30.9962V28.9896H31.894L31.9189 29.8397ZM33.6047 28.9596L33.5997 29.8197C33.5232 29.8031 33.4501 29.7931 33.3802 29.7897C33.3137 29.7831 33.2373 29.7797 33.1508 29.7797C32.938 29.7797 32.7502 29.8131 32.5872 29.8797C32.4243 29.9464 32.2863 30.0398 32.1733 30.1598C32.0602 30.2798 31.9704 30.4232 31.904 30.5898C31.8408 30.7532 31.7992 30.9332 31.7793 31.1299L31.5199 31.2799C31.5199 30.9532 31.5515 30.6464 31.6147 30.3598C31.6812 30.0731 31.7826 29.8197 31.9189 29.5997C32.0553 29.3764 32.2282 29.203 32.4376 29.0797C32.6504 28.953 32.9031 28.8896 33.1957 28.8896C33.2622 28.8896 33.3387 28.898 33.4251 28.9147C33.5116 28.928 33.5715 28.943 33.6047 28.9596ZM36.0635 33.84L37.5647 28.9896H38.5522L36.3877 35.2352C36.3378 35.3685 36.2713 35.5119 36.1882 35.6652C36.1084 35.8219 36.0053 35.9703 35.879 36.1103C35.7526 36.2503 35.5997 36.3636 35.4201 36.4503C35.2439 36.5403 35.0328 36.5853 34.7867 36.5853C34.7136 36.5853 34.6204 36.5753 34.5074 36.5553C34.3944 36.5353 34.3146 36.5186 34.268 36.5053L34.263 35.7552C34.2896 35.7586 34.3312 35.7619 34.3878 35.7652C34.4476 35.7719 34.4891 35.7752 34.5124 35.7752C34.7219 35.7752 34.8998 35.7469 35.046 35.6902C35.1924 35.6369 35.3153 35.5452 35.4152 35.4152C35.5182 35.2885 35.6064 35.1135 35.6794 34.8902L36.0635 33.84ZM34.9613 28.9896L36.3628 33.19L36.6022 34.1651L35.9388 34.5052L33.9538 28.9896H34.9613ZM40.3078 30.0298V36.4803H39.3802V28.9896H40.228L40.3078 30.0298ZM43.9437 31.6499V31.7549C43.9437 32.1483 43.8971 32.5133 43.804 32.85C43.7109 33.1833 43.5746 33.4734 43.3951 33.72C43.2188 33.9668 43.0011 34.1584 42.7417 34.2951C42.4823 34.4318 42.1848 34.5001 41.8489 34.5001C41.5065 34.5001 41.2039 34.4435 40.9412 34.3301C40.6785 34.2168 40.4558 34.0517 40.273 33.8351C40.0901 33.6184 39.9437 33.3584 39.834 33.055C39.7276 32.7516 39.6545 32.41 39.6146 32.03V31.4699C39.6545 31.0699 39.7292 30.7115 39.839 30.3948C39.9488 30.0781 40.0933 29.808 40.273 29.5848C40.4558 29.358 40.6769 29.1864 40.9363 29.0697C41.1956 28.9496 41.4948 28.8896 41.834 28.8896C42.1731 28.8896 42.474 28.9564 42.7367 29.0897C42.9994 29.2197 43.2205 29.4064 43.4 29.6497C43.5796 29.8931 43.7143 30.1848 43.804 30.5248C43.8971 30.8615 43.9437 31.2365 43.9437 31.6499ZM43.016 31.7549V31.6499C43.016 31.3799 42.9877 31.1265 42.9312 30.8898C42.8747 30.6498 42.7866 30.4398 42.6669 30.2598C42.5506 30.0764 42.4009 29.9331 42.2181 29.8297C42.0352 29.7231 41.8173 29.6697 41.5646 29.6697C41.3319 29.6697 41.1291 29.7097 40.9562 29.7897C40.7867 29.8697 40.642 29.9781 40.5223 30.1148C40.4026 30.2481 40.3045 30.4015 40.228 30.5748C40.1549 30.7448 40.1 30.9215 40.0634 31.1048V32.4C40.13 32.6333 40.223 32.8533 40.3428 33.06C40.4625 33.2634 40.622 33.4284 40.8215 33.5551C41.021 33.6784 41.272 33.74 41.5746 33.74C41.824 33.74 42.0384 33.6884 42.2181 33.5851C42.4009 33.4784 42.5506 33.3334 42.6669 33.15C42.7866 32.9667 42.8747 32.7567 42.9312 32.52C42.9877 32.28 43.016 32.0249 43.016 31.7549ZM47.38 28.9896V29.6997H44.4624V28.9896H47.38ZM45.4499 27.6746H46.3725V33.06C46.3725 33.2433 46.4008 33.3817 46.4574 33.4751C46.5139 33.5684 46.587 33.63 46.6768 33.66C46.7666 33.69 46.863 33.7051 46.966 33.7051C47.0426 33.7051 47.1224 33.6984 47.2055 33.6851C47.2919 33.6684 47.3568 33.6551 47.4 33.6451L47.405 34.4001C47.3318 34.4235 47.2354 34.4452 47.1157 34.4652C46.9993 34.4884 46.858 34.5001 46.6918 34.5001C46.4657 34.5001 46.2579 34.4552 46.0683 34.3651C45.8788 34.2751 45.7275 34.1251 45.6144 33.9151C45.5047 33.7017 45.4499 33.415 45.4499 33.055V27.6746ZM48.1182 31.7549V31.6399C48.1182 31.2499 48.1747 30.8882 48.2877 30.5548C48.4008 30.2181 48.5637 29.9264 48.7765 29.6797C48.9894 29.4297 49.247 29.2364 49.5496 29.0997C49.8522 28.9596 50.1913 28.8896 50.567 28.8896C50.946 28.8896 51.2869 28.9596 51.5895 29.0997C51.8953 29.2364 52.1547 29.4297 52.3675 29.6797C52.5836 29.9264 52.7482 30.2181 52.8612 30.5548C52.9743 30.8882 53.0309 31.2499 53.0309 31.6399V31.7549C53.0309 32.1449 52.9743 32.5066 52.8612 32.84C52.7482 33.1733 52.5836 33.4651 52.3675 33.7151C52.1547 33.9617 51.897 34.1551 51.5944 34.2951C51.2952 34.4318 50.956 34.5001 50.577 34.5001C50.198 34.5001 49.8572 34.4318 49.5546 34.2951C49.252 34.1551 48.9926 33.9617 48.7765 33.7151C48.5637 33.4651 48.4008 33.1733 48.2877 32.84C48.1747 32.5066 48.1182 32.1449 48.1182 31.7549ZM49.0409 31.6399V31.7549C49.0409 32.0249 49.0724 32.28 49.1356 32.52C49.1988 32.7567 49.2935 32.9667 49.4199 33.15C49.5496 33.3334 49.7108 33.4784 49.9037 33.5851C50.0966 33.6884 50.3209 33.74 50.577 33.74C50.8297 33.74 51.0508 33.6884 51.2403 33.5851C51.4332 33.4784 51.5927 33.3334 51.7191 33.15C51.8455 32.9667 51.9402 32.7567 52.0034 32.52C52.0699 32.28 52.1032 32.0249 52.1032 31.7549V31.6399C52.1032 31.3732 52.0699 31.1215 52.0034 30.8848C51.9402 30.6448 51.8438 30.4332 51.7141 30.2498C51.5878 30.0631 51.4282 29.9164 51.2354 29.8097C51.0459 29.7031 50.8231 29.6497 50.567 29.6497C50.3143 29.6497 50.0915 29.7031 49.8987 29.8097C49.7092 29.9164 49.5496 30.0631 49.4199 30.2498C49.2935 30.4332 49.1988 30.6448 49.1356 30.8848C49.0724 31.1215 49.0409 31.3732 49.0409 31.6399ZM61.4746 33.6151V34.4001H57.6292V33.6151H61.4746ZM57.8238 27.1196V34.4001H56.8612V27.1196H57.8238ZM60.9658 30.2498V31.0348H57.6292V30.2498H60.9658ZM61.4247 27.1196V27.9096H57.6292V27.1196H61.4247ZM63.1503 28.9896L64.3324 30.9598L65.5294 28.9896H66.6117L64.8461 31.6599L66.6666 34.4001H65.5992L64.3523 32.37L63.1055 34.4001H62.0332L63.8486 31.6599L62.0881 28.9896H63.1503ZM69.654 33.74C69.8734 33.74 70.0763 33.6951 70.2625 33.6051C70.4487 33.5151 70.6016 33.3917 70.7213 33.235C70.841 33.075 70.9092 32.8933 70.9258 32.69H71.8036C71.7869 33.01 71.6789 33.3084 71.4794 33.5851C71.2832 33.8584 71.0256 34.0801 70.7064 34.2501C70.3871 34.4168 70.0364 34.5001 69.654 34.5001C69.2483 34.5001 68.8943 34.4284 68.5917 34.2851C68.2924 34.1418 68.0431 33.9451 67.8436 33.6951C67.6474 33.4451 67.4994 33.1584 67.3997 32.835C67.3032 32.5083 67.255 32.1632 67.255 31.7999V31.5899C67.255 31.2265 67.3032 30.8832 67.3997 30.5598C67.4994 30.2331 67.6474 29.9448 67.8436 29.6948C68.0431 29.4447 68.2924 29.248 68.5917 29.1047C68.8943 28.9613 69.2483 28.8896 69.654 28.8896C70.0763 28.8896 70.4454 28.9764 70.7612 29.1497C71.0771 29.3197 71.3248 29.5531 71.5044 29.8497C71.6872 30.1431 71.7869 30.4764 71.8036 30.8498H70.9258C70.9092 30.6264 70.846 30.4248 70.7363 30.2448C70.6299 30.0648 70.4836 29.9214 70.2974 29.8148C70.1145 29.7048 69.9001 29.6497 69.654 29.6497C69.3714 29.6497 69.1337 29.7064 68.9408 29.8197C68.7513 29.9297 68.6 30.0798 68.4869 30.2698C68.3772 30.4564 68.2974 30.6648 68.2476 30.8948C68.201 31.1215 68.1778 31.3532 68.1778 31.5899V31.7999C68.1778 32.0366 68.201 32.27 68.2476 32.5C68.2941 32.73 68.3722 32.9384 68.4819 33.125C68.595 33.3117 68.7463 33.4617 68.9358 33.5751C69.1286 33.6851 69.368 33.74 69.654 33.74ZM73.7636 26.7195V34.4001H72.841V26.7195H73.7636ZM73.5442 31.4899L73.1602 31.4749C73.1635 31.1048 73.2183 30.7632 73.3248 30.4498C73.4311 30.1331 73.5808 29.8581 73.7736 29.6248C73.9665 29.3914 74.1959 29.2114 74.4619 29.0847C74.7312 28.9547 75.0288 28.8896 75.3546 28.8896C75.6207 28.8896 75.86 28.9264 76.0728 28.9996C76.2857 29.0697 76.4669 29.183 76.6165 29.3397C76.7694 29.4964 76.8859 29.6997 76.9656 29.9497C77.0454 30.1964 77.0853 30.4981 77.0853 30.8548V34.4001H76.1577V30.8448C76.1577 30.5615 76.1161 30.3348 76.0329 30.1648C75.9498 29.9914 75.8284 29.8664 75.6689 29.7897C75.5093 29.7097 75.3131 29.6697 75.0804 29.6697C74.8509 29.6697 74.6414 29.718 74.4519 29.8148C74.2658 29.9114 74.1045 30.0448 73.9682 30.2148C73.8351 30.3848 73.7304 30.5798 73.6539 30.7998C73.5808 31.0165 73.5442 31.2465 73.5442 31.4899ZM81.6491 33.4751V30.6898C81.6491 30.4764 81.606 30.2915 81.519 30.1348C81.436 29.9748 81.31 29.8514 81.14 29.7648C80.9708 29.678 80.761 29.6348 80.512 29.6348C80.279 29.6348 80.0745 29.6748 79.8983 29.7548C79.7254 29.8348 79.589 29.9397 79.4893 30.0698C79.3929 30.1998 79.3447 30.3398 79.3447 30.4898H78.4219C78.4219 30.2964 78.4718 30.1048 78.5716 29.9148C78.6713 29.7248 78.8143 29.5531 79.0005 29.3997C79.19 29.243 79.4161 29.1197 79.6788 29.0297C79.9448 28.9364 80.2407 28.8896 80.5663 28.8896C80.9589 28.8896 81.3044 28.9564 81.6036 29.0897C81.9068 29.223 82.1422 29.4247 82.3122 29.6948C82.4853 29.9614 82.5715 30.2964 82.5715 30.6998V33.22C82.5715 33.4 82.5866 33.5917 82.6162 33.7951C82.6497 33.9984 82.6976 34.1734 82.7614 34.3201V34.4001H81.7983C81.752 34.2935 81.7153 34.1518 81.689 33.9751C81.6618 33.7951 81.6491 33.6284 81.6491 33.4751ZM81.8087 31.1199L81.8182 31.7699H80.8855C80.6229 31.7699 80.3884 31.7916 80.1825 31.8349C79.9764 31.8749 79.8035 31.9366 79.6638 32.02C79.5242 32.1032 79.4178 32.2083 79.3447 32.3349C79.2715 32.4583 79.2349 32.6033 79.2349 32.77C79.2349 32.94 79.2732 33.095 79.3496 33.235C79.4261 33.375 79.5408 33.4867 79.6938 33.57C79.85 33.65 80.0412 33.69 80.2673 33.69C80.5495 33.69 80.7993 33.63 81.0155 33.51C81.2318 33.39 81.4025 33.2433 81.5294 33.07C81.6587 32.8967 81.7289 32.7283 81.7384 32.565L82.1326 33.01C82.1095 33.15 82.0464 33.305 81.9427 33.4751C81.8398 33.6451 81.7017 33.8084 81.5294 33.9651C81.3594 34.1184 81.1568 34.2468 80.9206 34.3501C80.6876 34.4501 80.4251 34.5001 80.1326 34.5001C79.7669 34.5001 79.446 34.4284 79.1701 34.2851C78.8974 34.1418 78.6846 33.9501 78.5317 33.71C78.382 33.4667 78.3072 33.195 78.3072 32.895C78.3072 32.605 78.3638 32.35 78.4768 32.13C78.5898 31.9066 78.7528 31.7216 78.9656 31.5749C79.1784 31.4248 79.4344 31.3116 79.7337 31.2348C80.0329 31.1582 80.3668 31.1199 80.7363 31.1199H81.8087ZM84.9453 30.1448V34.4001H84.0229V28.9896H84.8958L84.9453 30.1448ZM84.7259 31.4899L84.3421 31.4749C84.3453 31.1048 84.4003 30.7632 84.5065 30.4498C84.6134 30.1331 84.7626 29.8581 84.9557 29.6248C85.148 29.3914 85.3778 29.2114 85.6435 29.0847C85.9132 28.9547 86.2108 28.8896 86.5364 28.8896C86.8029 28.8896 87.0423 28.9264 87.2545 28.9996C87.4676 29.0697 87.6487 29.183 87.7987 29.3397C87.9511 29.4964 88.0676 29.6997 88.1474 29.9497C88.2272 30.1964 88.2671 30.4981 88.2671 30.8548V34.4001H87.3399V30.8448C87.3399 30.5615 87.2976 30.3348 87.2146 30.1648C87.1316 29.9914 87.0104 29.8664 86.8508 29.7897C86.6912 29.7097 86.4949 29.6697 86.2619 29.6697C86.0329 29.6697 85.823 29.718 85.6339 29.8148C85.4472 29.9114 85.286 30.0448 85.1504 30.2148C85.0171 30.3848 84.9126 30.5798 84.836 30.7998C84.7626 31.0165 84.7259 31.2465 84.7259 31.4899ZM93.1648 28.9896H94.0026V34.2851C94.0026 34.7618 93.906 35.1685 93.7137 35.5052C93.5206 35.8419 93.2509 36.0969 92.9054 36.2703C92.5631 36.4469 92.1674 36.5353 91.7181 36.5353C91.5322 36.5353 91.3128 36.5053 91.0598 36.4453C90.8109 36.3886 90.5651 36.2903 90.3218 36.1503C90.0824 36.0136 89.8813 35.8286 89.7185 35.5952L90.2021 35.0452C90.4287 35.3185 90.6649 35.5085 90.9106 35.6152C91.1596 35.7219 91.4061 35.7752 91.6487 35.7752C91.9415 35.7752 92.1937 35.7202 92.4067 35.6102C92.6198 35.5002 92.7842 35.3368 92.9007 35.1202C93.0203 34.9068 93.0802 34.6435 93.0802 34.3301V30.1798L93.1648 28.9896ZM89.4488 31.7549V31.6499C89.4488 31.2365 89.4975 30.8615 89.594 30.5248C89.6938 30.1848 89.835 29.8931 90.0177 29.6497C90.2037 29.4064 90.4287 29.2197 90.6912 29.0897C90.9537 28.9564 91.2497 28.8896 91.5785 28.8896C91.9176 28.8896 92.2136 28.9496 92.4666 29.0697C92.7227 29.1864 92.939 29.358 93.1153 29.5848C93.2948 29.808 93.4361 30.0781 93.539 30.3948C93.6419 30.7115 93.7137 31.0699 93.7536 31.4699V31.9299C93.7169 32.3266 93.6451 32.6833 93.539 33C93.4361 33.3167 93.2948 33.5868 93.1153 33.81C92.939 34.0334 92.7227 34.2051 92.4666 34.3251C92.2105 34.4418 91.9112 34.5001 91.5689 34.5001C91.2466 34.5001 90.9537 34.4318 90.6912 34.2951C90.4319 34.1584 90.2092 33.9668 90.0225 33.72C89.8366 33.4734 89.6938 33.1833 89.594 32.85C89.4975 32.5133 89.4488 32.1483 89.4488 31.7549ZM90.372 31.6499V31.7549C90.372 32.0249 90.3984 32.2783 90.4518 32.515C90.5085 32.7516 90.5931 32.96 90.7064 33.14C90.8221 33.32 90.9705 33.4617 91.15 33.5651C91.3295 33.6651 91.5442 33.7151 91.7931 33.7151C92.0995 33.7151 92.3517 33.65 92.5512 33.52C92.7506 33.39 92.9086 33.2184 93.0251 33.005C93.1448 32.7916 93.2382 32.56 93.3044 32.31V31.1048C93.2677 30.9215 93.2111 30.7448 93.1352 30.5748C93.0618 30.4015 92.9653 30.2481 92.8456 30.1148C92.7291 29.9781 92.5847 29.8697 92.4115 29.7897C92.2392 29.7097 92.0357 29.6697 91.8035 29.6697C91.5506 29.6697 91.3327 29.7231 91.15 29.8297C90.9705 29.9331 90.8221 30.0764 90.7064 30.2598C90.5931 30.4398 90.5085 30.6498 90.4518 30.8898C90.3984 31.1265 90.372 31.3799 90.372 31.6499ZM97.6435 34.5001C97.2677 34.5001 96.927 34.4368 96.6214 34.3101C96.319 34.1801 96.0573 33.9984 95.8378 33.7651C95.6224 33.5317 95.4556 33.255 95.3391 32.935C95.2234 32.615 95.1652 32.2649 95.1652 31.8849V31.6749C95.1652 31.2348 95.2298 30.8432 95.3591 30.4998C95.4891 30.1531 95.6655 29.8597 95.8881 29.6197C96.1107 29.3797 96.3637 29.198 96.6461 29.0747C96.9286 28.9513 97.2214 28.8896 97.5238 28.8896C97.9092 28.8896 98.242 28.9564 98.5213 29.0897C98.8037 29.223 99.0351 29.4097 99.2147 29.6497C99.3942 29.8864 99.5274 30.1664 99.6136 30.4898C99.6998 30.8098 99.7437 31.1599 99.7437 31.5399V31.9549H95.7133V31.1999H98.8205V31.1299C98.8077 30.8898 98.7574 30.6565 98.6713 30.4298C98.5883 30.2031 98.455 30.0164 98.2723 29.8697C98.0888 29.7231 97.8398 29.6497 97.5238 29.6497C97.3148 29.6497 97.1217 29.6948 96.9454 29.7848C96.769 29.8714 96.6182 30.0014 96.4913 30.1748C96.3653 30.3481 96.2671 30.5598 96.1969 30.8098C96.1275 31.0599 96.0924 31.3482 96.0924 31.6749V31.8849C96.0924 32.1416 96.1275 32.3833 96.1969 32.61C96.2703 32.8333 96.3748 33.03 96.5113 33.2C96.6509 33.37 96.8193 33.5034 97.0156 33.6C97.215 33.6968 97.4409 33.7451 97.6938 33.7451C98.0194 33.7451 98.2954 33.6784 98.5213 33.5451C98.7479 33.4117 98.945 33.2333 99.1149 33.01L99.6735 33.4551C99.557 33.6317 99.4094 33.8 99.2298 33.9601C99.0503 34.1201 98.8293 34.2501 98.5659 34.3501C98.3066 34.4501 97.9994 34.5001 97.6435 34.5001ZM106.182 27.7646L103.778 34.4001H102.796L105.564 27.1196H106.197L106.182 27.7646ZM108.197 34.4001L105.788 27.7646L105.773 27.1196H106.406L109.185 34.4001H108.197ZM108.072 31.7049V32.495H103.993V31.7049H108.072ZM113.514 28.9896H114.351V34.2851C114.351 34.7618 114.255 35.1685 114.062 35.5052C113.869 35.8419 113.6 36.0969 113.254 36.2703C112.912 36.4469 112.516 36.5353 112.068 36.5353C111.881 36.5353 111.662 36.5053 111.409 36.4453C111.16 36.3886 110.914 36.2903 110.67 36.1503C110.431 36.0136 110.23 35.8286 110.067 35.5952L110.551 35.0452C110.777 35.3185 111.014 35.5085 111.259 35.6152C111.509 35.7219 111.755 35.7752 111.997 35.7752C112.29 35.7752 112.542 35.7202 112.755 35.6102C112.969 35.5002 113.133 35.3368 113.249 35.1202C113.369 34.9068 113.429 34.6435 113.429 34.3301V30.1798L113.514 28.9896ZM109.798 31.7549V31.6499C109.798 31.2365 109.846 30.8615 109.943 30.5248C110.043 30.1848 110.184 29.8931 110.366 29.6497C110.552 29.4064 110.777 29.2197 111.04 29.0897C111.302 28.9564 111.598 28.8896 111.928 28.8896C112.267 28.8896 112.562 28.9496 112.815 29.0697C113.071 29.1864 113.288 29.358 113.464 29.5848C113.644 29.808 113.785 30.0781 113.888 30.3948C113.991 30.7115 114.062 31.0699 114.102 31.4699V31.9299C114.066 32.3266 113.994 32.6833 113.888 33C113.785 33.3167 113.644 33.5868 113.464 33.81C113.288 34.0334 113.071 34.2051 112.815 34.3251C112.559 34.4418 112.26 34.5001 111.918 34.5001C111.595 34.5001 111.302 34.4318 111.04 34.2951C110.781 34.1584 110.558 33.9668 110.371 33.72C110.185 33.4734 110.043 33.1833 109.943 32.85C109.846 32.5133 109.798 32.1483 109.798 31.7549ZM110.721 31.6499V31.7549C110.721 32.0249 110.747 32.2783 110.801 32.515C110.857 32.7516 110.942 32.96 111.055 33.14C111.172 33.32 111.319 33.4617 111.499 33.5651C111.678 33.6651 111.893 33.7151 112.142 33.7151C112.448 33.7151 112.7 33.65 112.9 33.52C113.099 33.39 113.257 33.2184 113.374 33.005C113.494 32.7916 113.587 32.56 113.653 32.31V31.1048C113.616 30.9215 113.561 30.7448 113.484 30.5748C113.411 30.4015 113.314 30.2481 113.194 30.1148C113.078 29.9781 112.933 29.8697 112.76 29.7897C112.588 29.7097 112.385 29.6697 112.152 29.6697C111.899 29.6697 111.681 29.7231 111.499 29.8297C111.319 29.9331 111.172 30.0764 111.055 30.2598C110.942 30.4398 110.857 30.6498 110.801 30.8898C110.747 31.1265 110.721 31.3799 110.721 31.6499ZM119.249 28.9896H120.087V34.2851C120.087 34.7618 119.991 35.1685 119.798 35.5052C119.605 35.8419 119.336 36.0969 118.99 36.2703C118.647 36.4469 118.252 36.5353 117.803 36.5353C117.616 36.5353 117.397 36.5053 117.145 36.4453C116.895 36.3886 116.649 36.2903 116.407 36.1503C116.167 36.0136 115.966 35.8286 115.803 35.5952L116.286 35.0452C116.513 35.3185 116.749 35.5085 116.995 35.6152C117.245 35.7219 117.49 35.7752 117.733 35.7752C118.026 35.7752 118.279 35.7202 118.491 35.6102C118.704 35.5002 118.868 35.3368 118.985 35.1202C119.105 34.9068 119.164 34.6435 119.164 34.3301V30.1798L119.249 28.9896ZM115.534 31.7549V31.6499C115.534 31.2365 115.582 30.8615 115.678 30.5248C115.778 30.1848 115.919 29.8931 116.102 29.6497C116.289 29.4064 116.513 29.2197 116.775 29.0897C117.038 28.9564 117.334 28.8896 117.664 28.8896C118.003 28.8896 118.299 28.9496 118.551 29.0697C118.807 29.1864 119.023 29.358 119.2 29.5848C119.379 29.808 119.52 30.0781 119.623 30.3948C119.726 30.7115 119.798 31.0699 119.838 31.4699V31.9299C119.801 32.3266 119.729 32.6833 119.623 33C119.52 33.3167 119.379 33.5868 119.2 33.81C119.023 34.0334 118.807 34.2051 118.551 34.3251C118.295 34.4418 117.995 34.5001 117.653 34.5001C117.331 34.5001 117.038 34.4318 116.775 34.2951C116.516 34.1584 116.293 33.9668 116.107 33.72C115.921 33.4734 115.778 33.1833 115.678 32.85C115.582 32.5133 115.534 32.1483 115.534 31.7549ZM116.456 31.6499V31.7549C116.456 32.0249 116.483 32.2783 116.536 32.515C116.593 32.7516 116.677 32.96 116.791 33.14C116.907 33.32 117.055 33.4617 117.234 33.5651C117.414 33.6651 117.628 33.7151 117.877 33.7151C118.184 33.7151 118.436 33.65 118.635 33.52C118.836 33.39 118.993 33.2184 119.109 33.005C119.229 32.7916 119.322 32.56 119.389 32.31V31.1048C119.352 30.9215 119.296 30.7448 119.219 30.5748C119.146 30.4015 119.05 30.2481 118.93 30.1148C118.813 29.9781 118.669 29.8697 118.496 29.7897C118.323 29.7097 118.121 29.6697 117.888 29.6697C117.635 29.6697 117.417 29.7231 117.234 29.8297C117.055 29.9331 116.907 30.0764 116.791 30.2598C116.677 30.4398 116.593 30.6498 116.536 30.8898C116.483 31.1265 116.456 31.3799 116.456 31.6499ZM122.411 29.8397V34.4001H121.489V28.9896H122.386L122.411 29.8397ZM124.097 28.9596L124.092 29.8197C124.016 29.8031 123.942 29.7931 123.873 29.7897C123.806 29.7831 123.729 29.7797 123.643 29.7797C123.43 29.7797 123.243 29.8131 123.08 29.8797C122.917 29.9464 122.779 30.0398 122.666 30.1598C122.552 30.2798 122.463 30.4232 122.396 30.5898C122.333 30.7532 122.292 30.9332 122.272 31.1299L122.012 31.2799C122.012 30.9532 122.044 30.6464 122.107 30.3598C122.173 30.0731 122.275 29.8197 122.411 29.5997C122.548 29.3764 122.721 29.203 122.93 29.0797C123.143 28.953 123.396 28.8896 123.688 28.8896C123.755 28.8896 123.831 28.898 123.918 28.9147C124.004 28.928 124.064 28.943 124.097 28.9596ZM127.089 34.5001C126.714 34.5001 126.373 34.4368 126.067 34.3101C125.765 34.1801 125.503 33.9984 125.284 33.7651C125.068 33.5317 124.902 33.255 124.785 32.935C124.669 32.615 124.611 32.2649 124.611 31.8849V31.6749C124.611 31.2348 124.676 30.8432 124.805 30.4998C124.935 30.1531 125.111 29.8597 125.334 29.6197C125.557 29.3797 125.81 29.198 126.092 29.0747C126.375 28.9513 126.667 28.8896 126.97 28.8896C127.355 28.8896 127.688 28.9564 127.967 29.0897C128.25 29.223 128.481 29.4097 128.661 29.6497C128.84 29.8864 128.973 30.1664 129.06 30.4898C129.146 30.8098 129.19 31.1599 129.19 31.5399V31.9549H125.159V31.1999H128.266V31.1299C128.254 30.8898 128.203 30.6565 128.117 30.4298C128.034 30.2031 127.901 30.0164 127.718 29.8697C127.535 29.7231 127.286 29.6497 126.97 29.6497C126.761 29.6497 126.568 29.6948 126.391 29.7848C126.215 29.8714 126.064 30.0014 125.937 30.1748C125.811 30.3481 125.713 30.5598 125.643 30.8098C125.573 31.0599 125.538 31.3482 125.538 31.6749V31.8849C125.538 32.1416 125.573 32.3833 125.643 32.61C125.716 32.8333 125.821 33.03 125.957 33.2C126.097 33.37 126.265 33.5034 126.461 33.6C126.661 33.6968 126.887 33.7451 127.14 33.7451C127.465 33.7451 127.741 33.6784 127.967 33.5451C128.194 33.4117 128.391 33.2333 128.561 33.01L129.119 33.4551C129.003 33.6317 128.855 33.8 128.676 33.9601C128.496 34.1201 128.275 34.2501 128.012 34.3501C127.753 34.4501 127.445 34.5001 127.089 34.5001ZM133.763 28.9896H134.6V34.2851C134.6 34.7618 134.505 35.1685 134.312 35.5052C134.118 35.8419 133.85 36.0969 133.503 36.2703C133.161 36.4469 132.765 36.5353 132.317 36.5353C132.13 36.5353 131.911 36.5053 131.658 36.4453C131.409 36.3886 131.163 36.2903 130.92 36.1503C130.68 36.0136 130.479 35.8286 130.316 35.5952L130.8 35.0452C131.026 35.3185 131.263 35.5085 131.508 35.6152C131.758 35.7219 132.004 35.7752 132.246 35.7752C132.539 35.7752 132.792 35.7202 133.004 35.6102C133.218 35.5002 133.382 35.3368 133.498 35.1202C133.618 34.9068 133.678 34.6435 133.678 34.3301V30.1798L133.763 28.9896ZM130.047 31.7549V31.6499C130.047 31.2365 130.095 30.8615 130.192 30.5248C130.292 30.1848 130.433 29.8931 130.615 29.6497C130.802 29.4064 131.026 29.2197 131.289 29.0897C131.551 28.9564 131.847 28.8896 132.177 28.8896C132.516 28.8896 132.812 28.9496 133.064 29.0697C133.32 29.1864 133.537 29.358 133.713 29.5848C133.893 29.808 134.034 30.0781 134.137 30.3948C134.24 30.7115 134.311 31.0699 134.351 31.4699V31.9299C134.315 32.3266 134.243 32.6833 134.137 33C134.034 33.3167 133.893 33.5868 133.713 33.81C133.537 34.0334 133.32 34.2051 133.064 34.3251C132.808 34.4418 132.509 34.5001 132.167 34.5001C131.844 34.5001 131.551 34.4318 131.289 34.2951C131.03 34.1584 130.807 33.9668 130.62 33.72C130.434 33.4734 130.292 33.1833 130.192 32.85C130.095 32.5133 130.047 32.1483 130.047 31.7549ZM130.97 31.6499V31.7549C130.97 32.0249 130.996 32.2783 131.05 32.515C131.106 32.7516 131.191 32.96 131.304 33.14C131.421 33.32 131.568 33.4617 131.748 33.5651C131.927 33.6651 132.142 33.7151 132.391 33.7151C132.697 33.7151 132.949 33.65 133.149 33.52C133.348 33.39 133.506 33.2184 133.623 33.005C133.743 32.7916 133.836 32.56 133.902 32.31V31.1048C133.865 30.9215 133.81 30.7448 133.733 30.5748C133.66 30.4015 133.563 30.2481 133.443 30.1148C133.327 29.9781 133.182 29.8697 133.009 29.7897C132.837 29.7097 132.634 29.6697 132.401 29.6697C132.148 29.6697 131.93 29.7231 131.748 29.8297C131.568 29.9331 131.421 30.0764 131.304 30.2598C131.191 30.4398 131.106 30.6498 131.05 30.8898C130.996 31.1265 130.97 31.3799 130.97 31.6499ZM139.184 33.4751V30.6898C139.184 30.4764 139.141 30.2915 139.054 30.1348C138.971 29.9748 138.845 29.8514 138.675 29.7648C138.506 29.678 138.296 29.6348 138.047 29.6348C137.814 29.6348 137.61 29.6748 137.434 29.7548C137.261 29.8348 137.124 29.9397 137.024 30.0698C136.928 30.1998 136.88 30.3398 136.88 30.4898H135.957C135.957 30.2964 136.007 30.1048 136.107 29.9148C136.207 29.7248 136.349 29.5531 136.536 29.3997C136.725 29.243 136.951 29.1197 137.214 29.0297C137.48 28.9364 137.776 28.8896 138.102 28.8896C138.494 28.8896 138.84 28.9564 139.139 29.0897C139.442 29.223 139.678 29.4247 139.848 29.6948C140.021 29.9614 140.107 30.2964 140.107 30.6998V33.22C140.107 33.4 140.122 33.5917 140.152 33.7951C140.185 33.9984 140.233 34.1734 140.296 34.3201V34.4001H139.334C139.287 34.2935 139.251 34.1518 139.224 33.9751C139.197 33.7951 139.184 33.6284 139.184 33.4751ZM139.344 31.1199L139.354 31.7699H138.421C138.158 31.7699 137.924 31.7916 137.718 31.8349C137.512 31.8749 137.339 31.9366 137.199 32.02C137.06 32.1032 136.953 32.2083 136.88 32.3349C136.807 32.4583 136.77 32.6033 136.77 32.77C136.77 32.94 136.808 33.095 136.885 33.235C136.961 33.375 137.076 33.4867 137.229 33.57C137.385 33.65 137.577 33.69 137.802 33.69C138.085 33.69 138.335 33.63 138.551 33.51C138.767 33.39 138.938 33.2433 139.065 33.07C139.194 32.8967 139.264 32.7283 139.274 32.565L139.668 33.01C139.645 33.15 139.582 33.305 139.478 33.4751C139.375 33.6451 139.237 33.8084 139.065 33.9651C138.895 34.1184 138.692 34.2468 138.456 34.3501C138.223 34.4501 137.96 34.5001 137.668 34.5001C137.302 34.5001 136.981 34.4284 136.705 34.2851C136.432 34.1418 136.22 33.9501 136.067 33.71C135.917 33.4667 135.843 33.195 135.843 32.895C135.843 32.605 135.899 32.35 136.012 32.13C136.125 31.9066 136.288 31.7216 136.501 31.5749C136.713 31.4248 136.969 31.3116 137.269 31.2348C137.568 31.1582 137.902 31.1199 138.272 31.1199H139.344ZM143.817 28.9896V29.6997H140.9V28.9896H143.817ZM141.887 27.6746H142.81V33.06C142.81 33.2433 142.838 33.3817 142.895 33.4751C142.951 33.5684 143.024 33.63 143.114 33.66C143.204 33.69 143.3 33.7051 143.404 33.7051C143.48 33.7051 143.559 33.6984 143.643 33.6851C143.729 33.6684 143.794 33.6551 143.837 33.6451L143.843 34.4001C143.769 34.4235 143.673 34.4452 143.553 34.4652C143.437 34.4884 143.295 34.5001 143.129 34.5001C142.903 34.5001 142.695 34.4552 142.505 34.3651C142.316 34.2751 142.165 34.1251 142.052 33.9151C141.942 33.7017 141.887 33.415 141.887 33.055V27.6746ZM144.555 31.7549V31.6399C144.555 31.2499 144.612 30.8882 144.725 30.5548C144.839 30.2181 145.001 29.9264 145.214 29.6797C145.427 29.4297 145.684 29.2364 145.987 29.0997C146.289 28.9596 146.629 28.8896 147.004 28.8896C147.383 28.8896 147.725 28.9596 148.027 29.0997C148.333 29.2364 148.592 29.4297 148.805 29.6797C149.021 29.9264 149.186 30.2181 149.299 30.5548C149.411 30.8882 149.468 31.2499 149.468 31.6399V31.7549C149.468 32.1449 149.411 32.5066 149.299 32.84C149.186 33.1733 149.021 33.4651 148.805 33.7151C148.592 33.9617 148.334 34.1551 148.032 34.2951C147.733 34.4318 147.394 34.5001 147.014 34.5001C146.635 34.5001 146.295 34.4318 145.992 34.2951C145.689 34.1551 145.43 33.9617 145.214 33.7151C145.001 33.4651 144.839 33.1733 144.725 32.84C144.612 32.5066 144.555 32.1449 144.555 31.7549ZM145.478 31.6399V31.7549C145.478 32.0249 145.51 32.28 145.573 32.52C145.636 32.7567 145.731 32.9667 145.858 33.15C145.987 33.3334 146.148 33.4784 146.341 33.5851C146.534 33.6884 146.758 33.74 147.014 33.74C147.267 33.74 147.488 33.6884 147.678 33.5851C147.871 33.4784 148.03 33.3334 148.156 33.15C148.283 32.9667 148.377 32.7567 148.441 32.52C148.507 32.28 148.541 32.0249 148.541 31.7549V31.6399C148.541 31.3732 148.507 31.1215 148.441 30.8848C148.377 30.6448 148.282 30.4332 148.152 30.2498C148.025 30.0631 147.866 29.9164 147.673 29.8097C147.483 29.7031 147.26 29.6497 147.004 29.6497C146.752 29.6497 146.529 29.7031 146.336 29.8097C146.146 29.9164 145.987 30.0631 145.858 30.2498C145.731 30.4332 145.636 30.6448 145.573 30.8848C145.51 31.1215 145.478 31.3732 145.478 31.6399ZM151.548 29.8397V34.4001H150.625V28.9896H151.523L151.548 29.8397ZM153.234 28.9596L153.229 29.8197C153.152 29.8031 153.08 29.7931 153.009 29.7897C152.943 29.7831 152.867 29.7797 152.78 29.7797C152.567 29.7797 152.379 29.8131 152.216 29.8797C152.053 29.9464 151.915 30.0398 151.802 30.1598C151.69 30.2798 151.599 30.4232 151.533 30.5898C151.47 30.7532 151.429 30.9332 151.409 31.1299L151.149 31.2799C151.149 30.9532 151.18 30.6464 151.244 30.3598C151.311 30.0731 151.412 29.8197 151.548 29.5997C151.684 29.3764 151.857 29.203 152.067 29.0797C152.279 28.953 152.532 28.8896 152.825 28.8896C152.891 28.8896 152.968 28.898 153.054 28.9147C153.141 28.928 153.201 28.943 153.234 28.9596Z" fill="#C3C3C3"/>
</g>
<defs>
<clipPath id="clip0_8924_89839">
<rect width="154" height="40" fill="white" transform="translate(0.5)"/>
</clipPath>
</defs>
</svg>
