<svg width="110" height="40" viewBox="0 0 110 40" fill="none" xmlns="http://www.w3.org/2000/svg">
<path d="M32.6667 19.6667C32.6667 10.6461 25.354 3.33337 16.3333 3.33337C7.31268 3.33337 0 10.6461 0 19.6667C0 28.6874 7.31268 36 16.3333 36C25.354 36 32.6667 28.6874 32.6667 19.6667Z" fill="url(#paint0_linear_8924_89857)"/>
<path d="M9.33203 16.8422V23.1579C9.33203 24.0885 9.69001 24.981 10.3272 25.639C10.9644 26.297 11.8287 26.6667 12.7298 26.6667H20.8848C21.5459 26.6665 22.1927 26.4672 22.7457 26.0932C23.2988 25.7191 23.7342 25.1866 23.9987 24.5609H20.5441C19.7331 24.5609 18.9553 24.2282 18.3819 23.636C17.8084 23.0438 17.4862 22.2406 17.4862 21.4031V18.5962C17.4862 17.7587 17.8084 16.9554 18.3819 16.3632C18.9553 15.771 19.7331 15.4383 20.5441 15.4383H23.9987C23.7341 14.8126 23.2985 14.2802 22.7452 13.9063C22.192 13.5325 21.5452 13.3333 20.884 13.3334H12.729C11.828 13.3336 10.964 13.7034 10.3269 14.3614C9.6899 15.0194 9.33203 15.9117 9.33203 16.8422Z" fill="white"/>
<path fill-rule="evenodd" clip-rule="evenodd" d="M18.668 18.3329V20.9995C18.668 21.9199 19.4893 22.6666 20.5015 22.6666H24.1686C25.1809 22.6666 26.0013 21.9207 26.0013 20.9995V18.3329C26.0013 17.4126 25.18 16.6666 24.1677 16.6666H20.5015C19.4893 16.6666 18.6689 17.4126 18.6689 18.3329H18.668ZM22.3351 19.6666C22.3351 19.9319 22.2192 20.1863 22.0129 20.3739C21.8065 20.5615 21.5267 20.6669 21.2349 20.6669C20.9432 20.6669 20.6633 20.5615 20.457 20.3739C20.2507 20.1863 20.1348 19.9319 20.1348 19.6666C20.1348 19.4013 20.2507 19.1469 20.457 18.9593C20.6633 18.7717 20.9432 18.6664 21.2349 18.6664C21.5267 18.6664 21.8065 18.7717 22.0129 18.9593C22.2192 19.1469 22.3351 19.4013 22.3351 19.6666Z" fill="white"/>
<path d="M44.8041 29.1247L39.332 10.8752H43.0873L46.7089 24.9013L50.3834 10.8752H54.5142L58.2159 24.9013L61.8375 10.8752H65.5928L60.1736 29.1247H56.311L52.4756 15.75L48.613 29.1247H44.8041ZM72.538 20.6778C72.538 19.1914 71.4915 18.2793 69.8557 18.2793C68.38 18.2793 67.3343 19.1657 67.1733 20.5735L64.1691 20.0521C64.5982 17.445 66.9851 15.7765 69.8557 15.7765C73.3964 15.7765 75.8105 17.6271 75.8105 21.1206V29.1247H72.538V27.2212C71.787 28.499 70.1503 29.3333 68.4873 29.3333C65.8321 29.3333 63.9809 27.6648 63.9809 25.4227C63.9809 22.8413 65.9931 21.4599 70.0166 21.0428L72.538 20.8078V20.6778ZM67.2534 25.3184C67.2534 26.2305 68.0044 26.9083 69.2383 26.9083C71.3306 26.9083 72.538 25.3705 72.538 23.4413V23.1541L69.963 23.4413C68.1654 23.6499 67.2534 24.3798 67.2534 25.3184ZM77.7352 29.1247V10.6666H81.1158V29.1247H77.7352ZM83.0141 29.1247V10.6666H86.3939V29.1247H83.0141ZM87.5675 22.5549C87.5675 19.1392 89.7671 15.7765 94.247 15.7765C98.8071 15.7765 101.033 19.0614 101.033 22.1113C101.033 22.5806 101.007 23.1541 100.979 23.4148H90.9473C91.2428 25.3962 92.5567 26.5698 94.488 26.5698C96.071 26.5698 97.1976 25.8398 97.5459 24.5619L100.711 25.3962C99.9601 27.8733 97.5996 29.3333 94.4344 29.3333C89.9553 29.3333 87.5675 25.9698 87.5675 22.5549ZM91.0282 21.0163H97.4122C97.2513 19.4521 96.2047 18.2793 94.247 18.2793C92.584 18.2793 91.4037 19.2435 91.0282 21.0163ZM109.999 28.994C109.328 29.229 108.604 29.3333 107.826 29.3333C105.09 29.3333 103.051 27.899 103.051 24.8226V18.7486H100.771V15.9851H103.051V12.1266H106.431V15.9851H109.838V18.7486H106.431V24.5098C106.431 25.7612 107.128 26.439 108.175 26.439C108.684 26.439 109.274 26.3612 109.757 26.1262L109.999 28.994Z" fill="white"/>
<defs>
<linearGradient id="paint0_linear_8924_89857" x1="16.3333" y1="3.33337" x2="16.3333" y2="36" gradientUnits="userSpaceOnUse">
<stop stop-color="#9C9C9C"/>
<stop offset="1" stop-color="#616161"/>
</linearGradient>
</defs>
</svg>
