<svg width="166" height="40" viewBox="0 0 166 40" fill="none" xmlns="http://www.w3.org/2000/svg">
<g clip-path="url(#clip0_6950_104106)">
<path d="M43.6911 14.0822H60.3652V17.1375H53.8099V34.3163H50.2028V17.1375H43.6758V14.0811H43.6899L43.6911 14.0822ZM59.6534 19.6646H62.7358V22.4928H62.7934C62.8958 22.0928 63.084 21.7069 63.3605 21.3352C63.9516 20.5384 64.7518 19.9207 65.6723 19.5505C66.1398 19.3652 66.6376 19.2683 67.1405 19.2646C67.517 19.2646 67.7946 19.2787 67.9405 19.294C68.0852 19.3081 68.2299 19.3363 68.3899 19.3505V22.4634C68.1538 22.4221 67.9164 22.3888 67.6781 22.3634C67.4415 22.3354 67.2035 22.3213 66.9652 22.3211C66.4123 22.3211 65.8899 22.4352 65.3958 22.6505C64.9017 22.8634 64.4793 23.1916 64.117 23.6069C63.7303 24.0713 63.4342 24.604 63.244 25.1775C63.0264 25.8058 62.924 26.5187 62.924 27.334V34.3022H59.6393V19.6646H59.6534ZM83.4946 34.3175H80.2675V32.2752H80.2087C79.8017 33.0187 79.2064 33.6046 78.4064 34.0469C77.6064 34.4893 76.7923 34.7175 75.964 34.7175C74.0017 34.7175 72.5758 34.2469 71.7052 33.2893C70.8323 32.3328 70.3958 30.8905 70.3958 28.9622V19.6658H73.6817V28.6481C73.6817 29.934 73.9287 30.8481 74.4381 31.3763C74.9323 31.9046 75.644 32.1763 76.5452 32.1763C77.2428 32.1763 77.8099 32.0763 78.2746 31.8611C78.7405 31.6469 79.1181 31.3763 79.3946 31.0187C79.6852 30.6763 79.8887 30.2481 80.0205 29.7622C80.1499 29.2763 80.2087 28.7481 80.2087 28.1775V19.6799H83.4946V34.3175ZM89.0911 29.6199C89.1934 30.5611 89.5558 31.2199 90.1817 31.6046C90.8205 31.9763 91.577 32.1763 92.464 32.1763C92.7699 32.1763 93.1181 32.1469 93.5111 32.1046C93.9028 32.0611 94.2805 31.9611 94.6158 31.834C94.964 31.7046 95.2393 31.5046 95.4723 31.2481C95.6911 30.9893 95.7923 30.6622 95.7781 30.2481C95.7762 30.0559 95.7339 29.8663 95.6538 29.6915C95.5738 29.5168 95.4578 29.3609 95.3134 29.234C95.0217 28.9634 94.6593 28.7634 94.2075 28.5916C93.7043 28.4173 93.1893 28.2789 92.6664 28.1775C92.0852 28.0634 91.504 27.934 90.9087 27.8058C90.309 27.676 89.7168 27.5138 89.1346 27.3199C88.5886 27.1449 88.0736 26.8848 87.6087 26.5493C87.1557 26.2331 86.7863 25.8116 86.5322 25.3211C86.257 24.8211 86.1252 24.2069 86.1252 23.4646C86.1252 22.6646 86.3287 22.0081 86.7217 21.4646C87.118 20.9256 87.6297 20.4819 88.2193 20.1658C88.853 19.8308 89.5342 19.5947 90.2393 19.4658C90.9805 19.3375 91.6934 19.2658 92.3617 19.2658C93.1323 19.2658 93.8734 19.3516 94.5723 19.5093C95.2488 19.6541 95.8937 19.92 96.4758 20.294C97.0428 20.6516 97.5075 21.1222 97.8864 21.694C98.264 22.2646 98.497 22.9646 98.5981 23.7787H95.1675C95.0075 23.0081 94.6581 22.4799 94.0923 22.2222C93.5252 21.9516 92.8711 21.8222 92.144 21.8222C91.9111 21.8222 91.6346 21.8363 91.3158 21.8799C91.0086 21.9207 90.7063 21.9925 90.4134 22.094C90.1458 22.1926 89.9029 22.3483 89.7017 22.5505C89.604 22.6559 89.528 22.7796 89.4782 22.9145C89.4283 23.0493 89.4055 23.1927 89.4111 23.3363C89.4111 23.7363 89.5558 24.0505 89.8323 24.2928C90.1087 24.5352 90.4723 24.7352 90.9228 24.9069C91.3734 25.0646 91.8828 25.2069 92.464 25.3211C93.0452 25.4352 93.6405 25.5634 94.2523 25.6928C94.8475 25.8211 95.4287 25.9928 96.0111 26.1775C96.5923 26.3634 97.1005 26.6211 97.5523 26.9493C98.0028 27.2775 98.3664 27.6775 98.6417 28.1634C98.9181 28.6481 99.064 29.2622 99.064 29.9763C99.064 30.8469 98.8605 31.5763 98.4523 32.1905C98.0464 32.7905 97.5228 33.2893 96.8828 33.6611C96.2129 34.047 95.4869 34.3264 94.7311 34.4893C93.9621 34.6585 93.1772 34.7444 92.3899 34.7458C91.5082 34.7557 90.6289 34.6501 89.7746 34.4316C88.9746 34.2175 88.277 33.9034 87.6958 33.4905C87.1214 33.0731 86.6491 32.5309 86.3146 31.9046C85.9805 31.2763 85.8052 30.5187 85.777 29.6481H89.0911V29.6199ZM99.9358 19.6669H102.422V15.2669H105.708V19.6669H108.672V22.0787H105.709V29.9058C105.709 30.2469 105.723 30.534 105.752 30.7905C105.78 31.034 105.853 31.2481 105.956 31.4187C106.067 31.5979 106.236 31.734 106.435 31.8046C106.653 31.8905 106.929 31.934 107.308 31.934C107.539 31.934 107.772 31.934 108.005 31.9187C108.238 31.9046 108.47 31.8763 108.703 31.8187V34.3175C108.339 34.3611 107.976 34.3893 107.642 34.4316C107.289 34.4726 106.935 34.4918 106.58 34.4893C105.709 34.4893 105.011 34.4034 104.486 34.2469C103.964 34.0893 103.542 33.8469 103.251 33.5328C102.945 33.2187 102.757 32.8328 102.64 32.3611C102.527 31.8305 102.464 31.2905 102.452 30.7481V22.1058H99.9664V19.6634H99.937L99.9358 19.6669ZM110.998 19.6669H114.11V21.6505H114.169C114.632 20.794 115.272 20.194 116.1 19.8234C116.947 19.447 117.865 19.2568 118.791 19.2658C119.968 19.2658 120.985 19.4658 121.858 19.8799C122.73 20.2799 123.457 20.8375 124.038 21.5505C124.619 22.2646 125.042 23.0928 125.332 24.0363C125.628 25.0179 125.775 26.0382 125.769 27.0634C125.769 28.0481 125.638 29.0046 125.376 29.9199C125.135 30.8028 124.736 31.6346 124.198 32.3752C123.67 33.0891 122.983 33.6709 122.192 34.0752C121.378 34.5034 120.433 34.7175 119.329 34.7175C118.846 34.717 118.364 34.6737 117.889 34.5881C117.415 34.5027 116.952 34.3642 116.509 34.1752C116.069 33.9915 115.657 33.7459 115.286 33.4458C114.921 33.154 114.602 32.8076 114.342 32.4187H114.283V39.7305H110.998V19.6646V19.6669ZM122.483 27.0058C122.483 26.3545 122.396 25.7063 122.222 25.0787C122.061 24.4841 121.794 23.9231 121.436 23.4222C121.095 22.9457 120.654 22.5504 120.143 22.2646C119.594 21.968 118.979 21.8157 118.355 21.8222C116.973 21.8222 115.926 22.2928 115.229 23.2363C114.531 24.1787 114.182 25.4363 114.182 27.0058C114.182 27.7481 114.27 28.434 114.458 29.0622C114.646 29.6905 114.909 30.234 115.286 30.6905C115.651 31.1481 116.086 31.5046 116.596 31.7611C117.104 32.0328 117.7 32.1611 118.369 32.1611C119.125 32.1611 119.75 32.0046 120.273 31.7046C120.78 31.4129 121.217 31.0133 121.552 30.534C121.886 30.0481 122.135 29.5046 122.279 28.8916C122.413 28.2719 122.481 27.6398 122.483 27.0058ZM128.283 14.0822H131.569V17.1387H128.283V14.0822ZM128.283 19.6658H131.569V34.3175H128.283V19.6658ZM134.505 14.0822H137.791V34.3175H134.505V14.0822ZM147.865 34.7175C146.672 34.7175 145.611 34.5175 144.682 34.1328C143.791 33.7674 142.984 33.2228 142.312 32.5328C141.659 31.829 141.159 30.9973 140.843 30.0905C140.497 29.0894 140.325 28.0366 140.335 26.9775C140.335 25.8634 140.509 24.8363 140.843 23.8928C141.159 22.9864 141.659 22.1552 142.312 21.4516C142.951 20.7658 143.751 20.2375 144.682 19.8516C145.611 19.4658 146.672 19.2658 147.865 19.2658C149.057 19.2658 150.118 19.4658 151.049 19.8516C151.979 20.2375 152.764 20.7811 153.418 21.4516C154.071 22.155 154.571 22.9862 154.886 23.8928C155.22 24.8352 155.395 25.8634 155.395 26.9775C155.395 28.1069 155.22 29.1481 154.886 30.0905C154.571 30.9975 154.071 31.8292 153.418 32.5328C152.778 33.2187 151.979 33.7469 151.049 34.1328C150.118 34.5175 149.057 34.7175 147.865 34.7175ZM147.865 32.1611C148.592 32.1611 149.231 32.0046 149.769 31.7046C150.293 31.4129 150.745 31.0077 151.092 30.5187C151.44 30.034 151.688 29.4763 151.863 28.8622C152.023 28.2481 152.11 27.6199 152.11 26.9775C152.11 26.3493 152.023 25.7352 151.863 25.1069C151.713 24.511 151.452 23.9489 151.092 23.4505C150.744 22.9661 150.292 22.5661 149.769 22.2799C149.231 21.9799 148.592 21.8222 147.865 21.8222C147.138 21.8222 146.498 21.9799 145.96 22.2799C145.441 22.5705 144.99 22.9697 144.638 23.4505C144.284 23.9519 144.023 24.513 143.868 25.1069C143.707 25.7176 143.623 26.346 143.619 26.9775C143.619 27.6199 143.708 28.2481 143.868 28.8622C144.028 29.4763 144.289 30.034 144.638 30.5187C144.986 31.0046 145.423 31.4046 145.96 31.7046C146.498 32.0187 147.138 32.1611 147.865 32.1611ZM156.355 19.6669H158.84V15.2669H162.126V19.6669H165.091V22.0787H162.126V29.9058C162.126 30.2469 162.14 30.534 162.169 30.7905C162.198 31.034 162.271 31.2481 162.373 31.4187C162.484 31.5981 162.653 31.7343 162.852 31.8046C163.071 31.8905 163.346 31.934 163.725 31.934C163.957 31.934 164.19 31.934 164.423 31.9187C164.656 31.9046 164.888 31.8763 165.12 31.8187V34.3175C164.757 34.3611 164.393 34.3893 164.059 34.4316C163.707 34.4726 163.353 34.4918 162.998 34.4893C162.126 34.4893 161.428 34.4034 160.904 34.2469C160.382 34.0893 159.959 33.8469 159.669 33.5328C159.364 33.2187 159.175 32.8328 159.058 32.3611C158.945 31.8305 158.882 31.2905 158.87 30.7481V22.1058H156.384V19.6634H156.355V19.6669Z" fill="white"/>
<path d="M39.8529 14.0812H24.7929L20.1411 0L15.4729 14.0824L0.414062 14.0671L12.6105 22.7776L7.94465 36.8435L20.1411 28.1471L32.3235 36.8435L27.6717 22.7776L39.8529 14.0812Z" fill="#9B9B9B"/>
<path d="M28.7171 25.9635L27.67 22.7788L20.1406 28.1482L28.7171 25.9635Z" fill="#3E3E3E"/>
</g>
<defs>
<clipPath id="clip0_6950_104106">
<rect width="164.706" height="40" fill="white" transform="translate(0.414062)"/>
</clipPath>
</defs>
</svg>
