<svg width="174" height="40" viewBox="0 0 174 40" fill="none" xmlns="http://www.w3.org/2000/svg">
<g clip-path="url(#clip0_6950_135780)">
<path fill-rule="evenodd" clip-rule="evenodd" d="M32.5114 14.1928H1.62891C3.89791 7.86035 9.95768 3.33325 17.0701 3.33325C24.1826 3.33325 30.2423 7.86035 32.5114 14.1928Z" fill="white"/>
<path fill-rule="evenodd" clip-rule="evenodd" d="M33.4773 19.7397C33.4773 21.6651 33.1446 23.5086 32.5337 25.2267H1.60766C0.996777 23.5086 0.664062 21.6651 0.664062 19.7397C0.664062 17.8143 1.00223 15.9271 1.62948 14.1926H32.5119C33.1392 15.9271 33.4773 17.7925 33.4773 19.7397Z" fill="#989898"/>
<path fill-rule="evenodd" clip-rule="evenodd" d="M32.5315 25.2268C30.2735 31.592 24.2028 36.1464 17.0685 36.1464C9.93424 36.1464 3.86356 31.592 1.60547 25.2268H32.5315Z" fill="#525252"/>
<path d="M45.6812 4.69116H50.192C51.6156 4.69116 52.6955 4.80025 53.4318 5.02388C54.1682 5.2475 54.7573 5.69476 55.21 6.3711C55.6627 7.04744 55.8863 8.1383 55.8863 9.63824C55.8863 10.6528 55.7281 11.3618 55.4063 11.7654C55.09 12.1691 54.4573 12.4745 53.5191 12.6872C54.5664 12.9218 55.2754 13.3145 55.6463 13.8654C56.0172 14.4162 56.2027 15.2562 56.2027 16.3853V17.9997C56.2027 19.1724 56.0663 20.0451 55.799 20.6124C55.5318 21.1796 55.1009 21.5669 54.5173 21.7741C53.9282 21.9814 52.7282 22.085 50.9065 22.085H45.6758V4.69116H45.6812ZM50.2029 7.66377V11.5309C50.3938 11.5254 50.5465 11.52 50.6556 11.52C51.0974 11.52 51.381 11.4109 51.5065 11.1927C51.6265 10.9746 51.6865 10.3473 51.6865 9.31644C51.6865 8.771 51.6374 8.3892 51.5337 8.17103C51.4356 7.95285 51.3047 7.8165 51.141 7.7565C50.9774 7.6965 50.6665 7.66923 50.2029 7.65832V7.66377ZM50.2029 14.2362V19.1015C50.841 19.0797 51.2447 18.9815 51.4192 18.8015C51.5937 18.6215 51.681 18.1797 51.681 17.4816V15.8616C51.681 15.1144 51.5992 14.6671 51.4465 14.509C51.2937 14.3508 50.8738 14.2635 50.2029 14.2417V14.2362Z" fill="white"/>
<path d="M67.5299 15.207H61.912V18.2887C61.912 18.9323 61.9556 19.3468 62.0538 19.5322C62.1465 19.7177 62.3265 19.8104 62.5883 19.8104C62.9156 19.8104 63.1392 19.685 63.2483 19.4395C63.3574 19.1941 63.4174 18.7141 63.4174 18.005V16.1233H67.5299V17.176C67.5299 18.0541 67.4754 18.7359 67.3608 19.205C67.2518 19.6795 66.9899 20.1813 66.5809 20.7213C66.1718 21.2558 65.6536 21.6594 65.0264 21.9321C64.3991 22.2049 63.6137 22.3358 62.6701 22.3358C61.7265 22.3358 60.9465 22.2049 60.2429 21.9376C59.5393 21.6703 58.9939 21.3104 58.6066 20.8467C58.2139 20.3831 57.9467 19.8759 57.7939 19.3195C57.6412 18.7632 57.5703 17.9559 57.5703 16.8978V12.7416C57.5703 11.498 57.7394 10.5108 58.0776 9.7908C58.4157 9.07083 58.9666 8.51994 59.7302 8.13814C60.4938 7.75633 61.3774 7.56543 62.3701 7.56543C63.5864 7.56543 64.59 7.79451 65.3809 8.25813C66.1718 8.72175 66.7281 9.33263 67.0445 10.0962C67.3608 10.8598 67.5245 11.9289 67.5245 13.3143V15.207H67.5299ZM63.1774 12.8889V11.8471C63.1774 11.1107 63.1392 10.6362 63.0574 10.418C62.981 10.2053 62.8174 10.0962 62.5719 10.0962C62.2719 10.0962 62.0865 10.189 62.0156 10.369C61.9447 10.549 61.9065 11.0453 61.9065 11.8471V12.8889H63.1719H63.1774Z" fill="white"/>
<path d="M75.5871 7.82737C77.6489 7.82737 78.7288 8.66189 78.8216 10.3309C78.8652 11.1272 78.887 11.9999 78.887 12.949V16.4289C78.887 18.0379 78.7779 19.1397 78.5652 19.7287C77.9325 21.3814 76.378 22.2105 73.8908 22.2105C72.9582 22.2105 72.3527 22.1941 72.0636 22.1668C71.4637 22.0905 70.951 21.905 70.5255 21.6214C69.8546 21.1578 69.4074 20.5251 69.1838 19.7178C69.0256 19.1288 68.9492 18.1961 68.9492 16.9143V8.54734C68.9492 7.36375 69.3419 6.40379 70.1328 5.662C70.9182 4.92021 71.9491 4.54932 73.2145 4.54932C73.7436 4.54932 74.5017 4.5875 75.489 4.6584C76.4762 4.72931 77.1253 4.76749 77.4307 4.76749C77.8125 4.76749 78.1343 4.72386 78.3961 4.63659V6.88377C78.047 6.98195 77.7634 7.03649 77.5562 7.03649C77.1689 7.03649 76.618 7.00922 75.9089 6.94922C75.1944 6.89468 74.6872 6.86195 74.3763 6.86195C73.7872 6.86195 73.4272 7.14013 73.2909 7.70192C73.2472 7.86555 73.2254 8.32917 73.2254 9.08732C73.9127 8.24736 74.6981 7.83283 75.5762 7.83283L75.5871 7.82737ZM74.5563 19.156V11.8745C74.5563 11.2363 74.5399 10.8436 74.5017 10.6909C74.4254 10.3636 74.229 10.1946 73.9236 10.1946C73.6181 10.1946 73.4109 10.3636 73.3345 10.7018C73.2963 10.86 73.28 11.2472 73.28 11.8745V18.6924C73.28 19.5106 73.4927 19.9196 73.9236 19.9196C74.3545 19.9196 74.5563 19.6633 74.5563 19.156Z" fill="white"/>
<path d="M94.8405 22.0854H90.3079V8.16045H88.9661V22.0799H84.4336V4.68604H94.8405V22.0854Z" fill="white"/>
<path d="M100.934 7.82715L100.857 9.08711C101.245 8.57985 101.67 8.19805 102.134 7.94715C102.597 7.69625 103.11 7.5708 103.661 7.5708C104.332 7.5708 104.915 7.75079 105.406 8.11078C105.897 8.47077 106.203 8.89075 106.323 9.35982C106.443 9.8289 106.503 10.6361 106.503 11.7652V17.7704C106.503 19.0685 106.426 19.9903 106.273 20.5358C106.121 21.0812 105.804 21.523 105.33 21.8448C104.855 22.1721 104.277 22.3357 103.606 22.3357C103.072 22.3357 102.57 22.2102 102.112 21.9593C101.654 21.7084 101.234 21.3375 100.857 20.8412V24.1083H96.5156V7.82715H100.928H100.934ZM102.166 11.9724C102.166 11.0943 102.134 10.5598 102.068 10.3743C102.003 10.1889 101.823 10.0962 101.534 10.0962C101.245 10.0962 101.065 10.2052 100.983 10.418C100.901 10.6307 100.857 11.1543 100.857 11.9779V17.8849C100.857 18.7467 100.901 19.2813 100.988 19.494C101.075 19.7067 101.261 19.8158 101.545 19.8158C101.828 19.8158 101.997 19.7176 102.068 19.5212C102.134 19.3249 102.172 18.8449 102.172 18.0868V11.9724H102.166Z" fill="white"/>
<path d="M117.756 12.8346V16.3254C117.756 17.6072 117.69 18.5453 117.565 19.1453C117.434 19.7453 117.161 20.3016 116.736 20.8198C116.316 21.3379 115.77 21.7198 115.11 21.9707C114.45 22.2216 113.687 22.3415 112.83 22.3415C111.871 22.3415 111.058 22.2379 110.392 22.0252C109.727 21.8125 109.209 21.4961 108.838 21.0707C108.467 20.6452 108.205 20.1271 108.047 19.5271C107.889 18.9217 107.812 18.0163 107.812 16.8054V13.151C107.812 11.8256 107.954 10.7893 108.243 10.0475C108.527 9.30023 109.045 8.70571 109.792 8.253C110.54 7.80029 111.489 7.57666 112.65 7.57666C113.627 7.57666 114.461 7.72393 115.159 8.01301C115.858 8.30209 116.398 8.67844 116.774 9.14751C117.15 9.61658 117.412 10.0911 117.554 10.5875C117.696 11.0838 117.761 11.831 117.761 12.8401L117.756 12.8346ZM113.414 11.7601C113.414 11.0293 113.376 10.5711 113.294 10.3802C113.218 10.1893 113.049 10.0966 112.787 10.0966C112.525 10.0966 112.356 10.1893 112.274 10.3802C112.187 10.5711 112.143 11.0293 112.143 11.7601V18.1908C112.143 18.8617 112.187 19.3035 112.274 19.5053C112.361 19.7071 112.531 19.8107 112.781 19.8107C113.032 19.8107 113.207 19.718 113.294 19.5326C113.376 19.3471 113.42 18.9435 113.42 18.3272V11.7547L113.414 11.7601Z" fill="white"/>
<path d="M129.236 18.3218C129.236 19.7781 128.92 20.7653 128.287 21.2944C127.654 21.818 126.274 22.0853 124.158 22.0853H119.184V7.82764H124.305C126.062 7.82764 127.267 8.11672 127.932 8.69488C128.592 9.27304 128.925 10.2657 128.925 11.6729C128.925 13.282 128.085 14.1983 126.411 14.4219C127.283 14.5637 127.976 14.9074 128.478 15.4473C128.985 15.9873 129.236 16.6691 129.236 17.4818V18.3218ZM123.487 13.1238C124.147 13.1238 124.551 13.042 124.698 12.8784C124.845 12.7147 124.916 12.3875 124.916 11.902C124.916 11.493 124.834 11.2093 124.671 11.0511C124.507 10.893 124.114 10.8166 123.487 10.8166V13.1238ZM124.916 17.6563V17.1709C124.916 16.5546 124.834 16.1728 124.671 16.0146C124.507 15.8619 124.114 15.7855 123.487 15.7855V19.0799C124.065 19.0799 124.452 18.9981 124.638 18.829C124.823 18.6599 124.916 18.2672 124.916 17.6509V17.6563Z" fill="white"/>
<path d="M140.319 15.207H134.701V18.2887C134.701 18.9323 134.745 19.3468 134.843 19.5322C134.936 19.7177 135.116 19.8104 135.377 19.8104C135.705 19.8104 135.928 19.685 136.037 19.4395C136.146 19.1941 136.206 18.7141 136.206 18.005V16.1233H140.319V17.176C140.319 18.0541 140.264 18.7359 140.15 19.205C140.041 19.6795 139.779 20.1813 139.37 20.7213C138.961 21.2558 138.443 21.6594 137.815 21.9321C137.188 22.2049 136.403 22.3358 135.459 22.3358C134.516 22.3358 133.736 22.2049 133.032 21.9376C132.328 21.6703 131.783 21.3104 131.396 20.8467C131.003 20.3831 130.736 19.8759 130.583 19.3195C130.43 18.7632 130.359 17.9559 130.359 16.8978V12.7416C130.359 11.498 130.528 10.5108 130.867 9.7908C131.205 9.07083 131.756 8.51994 132.519 8.13814C133.283 7.75633 134.167 7.56543 135.159 7.56543C136.376 7.56543 137.379 7.79451 138.17 8.25813C138.961 8.72175 139.517 9.33263 139.834 10.0962C140.15 10.8598 140.314 11.9289 140.314 13.3143V15.207H140.319ZM135.966 12.8889V11.8471C135.966 11.1107 135.928 10.6362 135.846 10.418C135.77 10.2053 135.606 10.0962 135.361 10.0962C135.061 10.0962 134.876 10.189 134.805 10.369C134.734 10.549 134.696 11.0453 134.696 11.8471V12.8889H135.961H135.966Z" fill="white"/>
<path d="M146.152 7.82715L146.076 9.08711C146.463 8.57985 146.889 8.19805 147.352 7.94715C147.816 7.69625 148.329 7.5708 148.88 7.5708C149.55 7.5708 150.134 7.75079 150.625 8.11078C151.116 8.47077 151.421 8.89075 151.541 9.35982C151.661 9.8289 151.721 10.6361 151.721 11.7652V17.7704C151.721 19.0685 151.645 19.9903 151.492 20.5358C151.339 21.0812 151.023 21.523 150.549 21.8448C150.074 22.1721 149.496 22.3357 148.825 22.3357C148.29 22.3357 147.789 22.2102 147.331 21.9593C146.872 21.7084 146.452 21.3375 146.076 20.8412V24.1083H141.734V7.82715H146.147H146.152ZM147.385 11.9724C147.385 11.0943 147.352 10.5598 147.287 10.3743C147.221 10.1889 147.041 10.0962 146.752 10.0962C146.463 10.0962 146.283 10.2052 146.201 10.418C146.12 10.6307 146.076 11.1543 146.076 11.9779V17.8849C146.076 18.7467 146.12 19.2813 146.207 19.494C146.294 19.7067 146.48 19.8158 146.763 19.8158C147.047 19.8158 147.216 19.7176 147.287 19.5212C147.352 19.3249 147.391 18.8449 147.391 18.0868V11.9724H147.385Z" fill="white"/>
<path d="M157.439 7.83301V13.3746C158.35 13.3746 158.803 12.8892 158.803 11.9238V9.50749C158.803 8.53116 158.967 7.97482 159.288 7.83301H163.466C163.145 8.29663 162.981 8.98387 162.981 9.89475V11.8801C162.981 12.5728 162.697 13.151 162.13 13.6091C161.923 13.7782 161.487 14.0237 160.821 14.34C160.39 14.5473 159.91 14.6564 159.37 14.6727C159.621 14.7164 160.09 14.8364 160.777 15.0273C162.261 15.5018 163.003 16.3254 163.003 17.509V20.0125C163.003 20.9289 163.166 21.6216 163.488 22.0852H159.31C158.988 21.6488 158.825 21.0925 158.825 20.4107V17.4054C158.825 16.4399 158.361 15.9545 157.439 15.9545V22.0852H153.152V7.83301H157.439Z" fill="white"/>
<path d="M168.278 13.3524H164.209V12.3979C164.209 11.2961 164.334 10.4452 164.59 9.84526C164.847 9.24528 165.354 8.72167 166.123 8.25805C166.887 7.79988 167.885 7.5708 169.107 7.5708C170.574 7.5708 171.681 7.83261 172.423 8.35077C173.165 8.86893 173.617 9.50709 173.765 10.2598C173.917 11.0125 173.988 12.5724 173.988 14.9287V22.0848H169.767V20.8139C169.499 21.3212 169.161 21.703 168.741 21.9593C168.321 22.2157 167.825 22.3411 167.241 22.3411C166.483 22.3411 165.785 22.1284 165.152 21.703C164.519 21.2775 164.203 20.3449 164.203 18.9049V17.7322C164.203 16.6632 164.372 15.9378 164.71 15.5505C165.049 15.1632 165.883 14.7105 167.214 14.1978C168.638 13.6415 169.401 13.2651 169.499 13.0688C169.597 12.8779 169.652 12.4797 169.652 11.8852C169.652 11.1379 169.597 10.658 169.483 10.4289C169.374 10.2052 169.188 10.0907 168.932 10.0907C168.638 10.0907 168.458 10.1834 168.387 10.3743C168.316 10.5652 168.278 11.0561 168.278 11.8525V13.3469V13.3524ZM169.652 15.305C168.959 15.8123 168.556 16.2377 168.441 16.5814C168.332 16.925 168.272 17.4213 168.272 18.0649C168.272 18.8013 168.321 19.2813 168.419 19.494C168.518 19.7067 168.708 19.8158 168.992 19.8158C169.276 19.8158 169.439 19.734 169.521 19.5649C169.603 19.3958 169.647 18.954 169.647 18.2395V15.305H169.652Z" fill="white"/>
<path d="M49.9723 30.3213H47.9215V29.4977C47.9215 29.2086 47.8996 29.0177 47.8505 28.9141C47.8015 28.8104 47.7196 28.7613 47.5942 28.7613C47.4687 28.7613 47.3815 28.805 47.3433 28.8977C47.2997 28.9904 47.2778 29.1868 47.2778 29.5031V32.8739C47.2778 33.1303 47.3106 33.3212 47.376 33.4466C47.4415 33.5721 47.5342 33.6375 47.6596 33.6375C47.8069 33.6375 47.9051 33.5721 47.9596 33.4357C48.0142 33.3048 48.036 33.0539 48.036 32.683V31.8321H49.9777C49.9777 32.4048 49.9559 32.8303 49.9177 33.1194C49.8796 33.403 49.7596 33.6975 49.5578 33.9975C49.3559 34.2975 49.0887 34.5211 48.7614 34.6738C48.4342 34.8266 48.0305 34.9029 47.5506 34.9029C46.9342 34.9029 46.4488 34.7993 46.0888 34.5866C45.7288 34.3793 45.4779 34.0848 45.3252 33.703C45.1779 33.3266 45.1016 32.7866 45.1016 32.0885V30.0595C45.1016 29.454 45.1616 28.9959 45.287 28.685C45.407 28.3741 45.6688 28.1014 46.067 27.8559C46.4651 27.6159 46.9506 27.4905 47.5233 27.4905C48.096 27.4905 48.576 27.6105 48.9796 27.8505C49.3832 28.0905 49.6505 28.3959 49.7814 28.7613C49.9123 29.1268 49.9832 29.6449 49.9832 30.3158L49.9723 30.3213Z" fill="white"/>
<path d="M55.543 30.1308V31.8816C55.543 32.5252 55.5103 32.9943 55.4449 33.2943C55.3794 33.5943 55.2431 33.8725 55.0303 34.1343C54.8176 34.3961 54.5449 34.587 54.2122 34.7124C53.8795 34.8379 53.4977 34.8979 53.0668 34.8979C52.5868 34.8979 52.1777 34.8433 51.845 34.7397C51.5123 34.6361 51.2505 34.4724 51.065 34.2597C50.8796 34.047 50.7487 33.7852 50.6669 33.4852C50.5905 33.1798 50.5469 32.727 50.5469 32.1216V30.289C50.5469 29.6235 50.6178 29.1054 50.765 28.7345C50.9123 28.3636 51.1687 28.0636 51.5396 27.8345C51.9105 27.6054 52.3904 27.4963 52.9741 27.4963C53.4649 27.4963 53.8795 27.5672 54.234 27.7145C54.5831 27.8618 54.8558 28.0472 55.0467 28.2818C55.2376 28.5163 55.3685 28.7563 55.4394 29.0017C55.5103 29.2472 55.543 29.629 55.543 30.1308ZM53.3668 29.5908C53.3668 29.2254 53.345 28.9963 53.3068 28.8981C53.2686 28.8054 53.1813 28.7563 53.0559 28.7563C52.9304 28.7563 52.8377 28.8054 52.7995 28.8981C52.7559 28.9908 52.7341 29.2254 52.7341 29.5908V32.8198C52.7341 33.1579 52.7559 33.3761 52.7995 33.4797C52.8432 33.5834 52.925 33.6325 53.0504 33.6325C53.1759 33.6325 53.2631 33.5888 53.3068 33.4907C53.3504 33.3979 53.3668 33.1961 53.3668 32.8852V29.5908Z" fill="white"/>
<path d="M56.2578 34.7721V27.627H58.4177V33.2722H59.1868V27.627H61.3522V33.2722H61.8158V36.1521H60.3595V34.7721H56.2578Z" fill="white"/>
<path d="M67.7483 34.7721H65.8502V30.9105L64.3393 34.7721H62.3594V27.627H64.2575V31.4559L65.7465 27.627H67.7537V34.7721H67.7483Z" fill="white"/>
<path d="M70.4696 30.3926H68.4297V29.9126C68.4297 29.3617 68.4951 28.9363 68.6206 28.6363C68.746 28.3363 69.0024 28.069 69.3897 27.84C69.7715 27.6109 70.2733 27.4963 70.8896 27.4963C71.6259 27.4963 72.1823 27.6272 72.5532 27.8891C72.9241 28.1509 73.1531 28.4672 73.2241 28.849C73.295 29.2308 73.3386 30.0053 73.3386 31.1889V34.7779H71.2223V34.1397C71.0914 34.3961 70.9169 34.587 70.7096 34.7124C70.4969 34.8379 70.2514 34.9033 69.9569 34.9033C69.5751 34.9033 69.226 34.7942 68.9097 34.5815C68.5933 34.3688 68.4351 33.8997 68.4351 33.1798V32.5907C68.4351 32.0562 68.517 31.6907 68.686 31.4998C68.8551 31.3035 69.2751 31.0798 69.9405 30.8235C70.6551 30.5453 71.0369 30.3544 71.086 30.2562C71.135 30.1581 71.1623 29.9617 71.1623 29.6617C71.1623 29.2908 71.135 29.0454 71.0805 28.9308C71.026 28.8163 70.9332 28.7617 70.8023 28.7617C70.6551 28.7617 70.5623 28.8108 70.5296 28.9036C70.4914 28.9963 70.4751 29.2472 70.4751 29.6453V30.3926H70.4696ZM71.1569 31.3744C70.8078 31.6307 70.606 31.8434 70.5514 32.018C70.4969 32.1925 70.4696 32.438 70.4696 32.7598C70.4696 33.1307 70.4914 33.3707 70.5405 33.4743C70.5896 33.5779 70.6823 33.6379 70.8296 33.6379C70.966 33.6379 71.0532 33.5943 71.0969 33.5125C71.1405 33.4252 71.1569 33.207 71.1569 32.847V31.3744Z" fill="white"/>
<path d="M77.3903 34.7721V29.1214H76.6213V32.7322C76.6213 33.3867 76.5449 33.8613 76.3976 34.1394C76.2504 34.4176 76.0104 34.5976 75.6831 34.6685C75.3559 34.7394 74.8268 34.7721 74.085 34.7721H73.7305V33.6049C74.0086 33.6049 74.1995 33.5667 74.3032 33.5013C74.4068 33.4358 74.4613 33.2013 74.4613 32.7977V27.627H79.5557V34.7721H77.3958H77.3903Z" fill="white"/>
<path d="M85.3312 32.7271C85.3312 33.3816 85.2548 33.8507 85.1021 34.1343C84.9494 34.4179 84.7094 34.5925 84.3821 34.6634C84.0548 34.7343 83.5203 34.767 82.784 34.767H80.2695V27.6218H82.4295V29.9999H82.784C83.4767 29.9999 83.9948 30.0436 84.333 30.1254C84.6712 30.2072 84.9275 30.3872 85.0857 30.6708C85.2493 30.949 85.3257 31.3962 85.3257 32.0017V32.7271H85.3312ZM83.1658 32.4653V32.1817C83.1658 31.8108 83.1276 31.5871 83.0567 31.5108C82.9803 31.4344 82.7731 31.3853 82.4295 31.3744V33.2725C82.7185 33.2725 82.9094 33.2343 83.0131 33.1634C83.1167 33.0871 83.1658 32.858 83.1658 32.4707V32.4653Z" fill="white"/>
<path d="M91.1365 34.7721H88.9711V32.1377H88.1912V34.7721H86.0312V27.627H88.1912V30.1959H88.9711V27.627H91.1365V34.7721Z" fill="white"/>
<path d="M93.8563 30.3926H91.8164V29.9126C91.8164 29.3617 91.8819 28.9363 92.0073 28.6363C92.1328 28.3363 92.3891 28.069 92.7764 27.84C93.1582 27.6109 93.66 27.4963 94.2763 27.4963C95.0127 27.4963 95.569 27.6272 95.9399 27.8891C96.3108 28.1509 96.5399 28.4672 96.6108 28.849C96.6817 29.2308 96.7253 30.0053 96.7253 31.1889V34.7779H94.609V34.1397C94.4781 34.3961 94.3036 34.587 94.0963 34.7124C93.8836 34.8379 93.6382 34.9033 93.3436 34.9033C92.9618 34.9033 92.6127 34.7942 92.2964 34.5815C91.98 34.3688 91.8219 33.8997 91.8219 33.1798V32.5907C91.8219 32.0562 91.9037 31.6907 92.0728 31.4998C92.2418 31.3035 92.6618 31.0798 93.3273 30.8235C94.0418 30.5453 94.4236 30.3544 94.4727 30.2562C94.5218 30.1581 94.549 29.9617 94.549 29.6617C94.549 29.2908 94.5218 29.0454 94.4672 28.9308C94.4127 28.8163 94.32 28.7617 94.189 28.7617C94.0418 28.7617 93.9491 28.8108 93.9163 28.9036C93.8781 28.9963 93.8618 29.2472 93.8618 29.6453V30.3926H93.8563ZM94.5436 31.3744C94.1945 31.6307 93.9927 31.8434 93.9381 32.018C93.8836 32.1925 93.8563 32.438 93.8563 32.7598C93.8563 33.1307 93.8782 33.3707 93.9272 33.4743C93.9763 33.5779 94.0691 33.6379 94.2163 33.6379C94.3527 33.6379 94.4399 33.5943 94.4836 33.5125C94.5272 33.4252 94.5436 33.207 94.5436 32.847V31.3744Z" fill="white"/>
<path d="M102.334 34.7717H100.169V31.9627C99.8904 31.9627 99.694 32.0227 99.5904 32.1427C99.4868 32.2627 99.4322 32.4864 99.4322 32.8082V34.7717H97.4414V33.0972C97.4414 32.6718 97.4632 32.3609 97.5123 32.1755C97.5614 31.9846 97.665 31.8373 97.8341 31.7337C98.0032 31.63 98.2868 31.5155 98.685 31.4119C98.1668 31.3682 97.8287 31.2155 97.6705 30.9701C97.5178 30.7192 97.4414 30.2719 97.4414 29.6337C97.4414 28.9247 97.6487 28.412 98.0577 28.1011C98.4668 27.7902 99.3559 27.6375 100.725 27.6375H102.334V34.7826V34.7717ZM100.169 30.7192V29.0119H99.9504C99.7922 29.0119 99.6668 29.0556 99.5741 29.1483C99.4813 29.241 99.4322 29.4537 99.4322 29.7919V29.8846C99.4322 30.2283 99.4868 30.4519 99.5904 30.561C99.694 30.6701 99.8904 30.7192 100.169 30.7192Z" fill="white"/>
<path d="M111.808 30.3213H109.757V29.4977C109.757 29.2086 109.736 29.0177 109.686 28.9141C109.637 28.8104 109.556 28.7613 109.43 28.7613C109.305 28.7613 109.217 28.805 109.179 28.8977C109.136 28.9904 109.114 29.1868 109.114 29.5031V32.8739C109.114 33.1303 109.147 33.3212 109.212 33.4466C109.277 33.5721 109.37 33.6375 109.496 33.6375C109.643 33.6375 109.741 33.5721 109.796 33.4357C109.85 33.3048 109.872 33.0539 109.872 32.683V31.8321H111.814C111.814 32.4048 111.792 32.8303 111.754 33.1194C111.716 33.403 111.596 33.6975 111.394 33.9975C111.192 34.2975 110.925 34.5211 110.597 34.6738C110.27 34.8266 109.866 34.9029 109.387 34.9029C108.77 34.9029 108.285 34.7993 107.925 34.5866C107.565 34.3793 107.314 34.0848 107.161 33.703C107.014 33.3266 106.938 32.7866 106.938 32.0885V30.0595C106.938 29.454 106.997 28.9959 107.123 28.685C107.243 28.3741 107.505 28.1014 107.903 27.8559C108.301 27.6159 108.787 27.4905 109.359 27.4905C109.932 27.4905 110.412 27.6105 110.816 27.8505C111.219 28.0905 111.486 28.3959 111.617 28.7613C111.748 29.1268 111.819 29.6449 111.819 30.3158L111.808 30.3213Z" fill="white"/>
<path d="M117.381 31.3195H114.566V32.8631C114.566 33.1849 114.588 33.3922 114.637 33.4849C114.686 33.5776 114.773 33.6267 114.904 33.6267C115.068 33.6267 115.177 33.5667 115.237 33.4412C115.292 33.3158 115.319 33.0758 115.319 32.7213V31.7777H117.381V32.3067C117.381 32.7485 117.353 33.0867 117.299 33.3267C117.244 33.5667 117.113 33.8176 116.906 34.0849C116.699 34.3521 116.442 34.5539 116.126 34.6903C115.81 34.8266 115.417 34.8921 114.942 34.8921C114.468 34.8921 114.075 34.8266 113.726 34.6903C113.372 34.5594 113.099 34.3739 112.903 34.1449C112.706 33.9158 112.57 33.6594 112.493 33.3812C112.417 33.1031 112.379 32.6995 112.379 32.1649V30.0814C112.379 29.4541 112.461 28.9632 112.63 28.6032C112.799 28.2433 113.077 27.9651 113.459 27.7742C113.841 27.5833 114.282 27.4851 114.784 27.4851C115.395 27.4851 115.897 27.5997 116.295 27.8342C116.693 28.0687 116.971 28.3742 117.13 28.756C117.288 29.1378 117.37 29.6778 117.37 30.3705V31.3195H117.381ZM115.199 30.1577V29.6341C115.199 29.2632 115.177 29.0232 115.139 28.9196C115.101 28.8105 115.019 28.756 114.899 28.756C114.746 28.756 114.653 28.7996 114.621 28.8923C114.588 28.9851 114.566 29.2305 114.566 29.6341V30.1577H115.204H115.199Z" fill="white"/>
<path d="M122.402 27.6218V29.1218H121.158V34.7725H118.987V29.1218H117.738V27.6218H122.402Z" fill="white"/>
<path d="M127.898 32.7271C127.898 33.3816 127.821 33.8507 127.668 34.1343C127.516 34.4179 127.276 34.5925 126.948 34.6634C126.621 34.7343 126.087 34.767 125.35 34.767H122.836V27.6218H124.996V29.9999H125.35C126.043 29.9999 126.561 30.0436 126.899 30.1254C127.238 30.2072 127.494 30.3872 127.652 30.6708C127.816 30.949 127.892 31.3962 127.892 32.0017V32.7271H127.898ZM125.732 32.4653V32.1817C125.732 31.8108 125.694 31.5871 125.623 31.5108C125.547 31.4344 125.339 31.3853 124.996 31.3744V33.2725C125.285 33.2725 125.476 33.2343 125.579 33.1634C125.683 33.0871 125.732 32.858 125.732 32.4707V32.4653Z" fill="white"/>
<path d="M137.402 30.1308V31.8816C137.402 32.5252 137.37 32.9943 137.304 33.2943C137.239 33.5943 137.102 33.8725 136.89 34.1343C136.677 34.3961 136.404 34.587 136.072 34.7124C135.739 34.8379 135.357 34.8979 134.926 34.8979C134.446 34.8979 134.037 34.8433 133.704 34.7397C133.372 34.6361 133.11 34.4724 132.924 34.2597C132.739 34.047 132.608 33.7852 132.526 33.4852C132.45 33.1798 132.406 32.727 132.406 32.1216V30.289C132.406 29.6235 132.477 29.1054 132.624 28.7345C132.772 28.3636 133.028 28.0636 133.399 27.8345C133.77 27.6054 134.25 27.4963 134.833 27.4963C135.324 27.4963 135.739 27.5672 136.093 27.7145C136.442 27.8618 136.715 28.0472 136.906 28.2818C137.097 28.5163 137.228 28.7563 137.299 29.0017C137.37 29.2472 137.402 29.629 137.402 30.1308ZM135.226 29.5908C135.226 29.2254 135.204 28.9963 135.166 28.8981C135.128 28.8054 135.041 28.7563 134.915 28.7563C134.79 28.7563 134.697 28.8054 134.659 28.8981C134.615 28.9908 134.593 29.2254 134.593 29.5908V32.8198C134.593 33.1579 134.615 33.3761 134.659 33.4797C134.703 33.5834 134.784 33.6325 134.91 33.6325C135.035 33.6325 135.123 33.5888 135.166 33.4907C135.21 33.3979 135.226 33.1961 135.226 32.8852V29.5908Z" fill="white"/>
<path d="M146.82 30.3213H144.769V29.4977C144.769 29.2086 144.747 29.0177 144.698 28.9141C144.649 28.8104 144.567 28.7613 144.442 28.7613C144.316 28.7613 144.229 28.805 144.191 28.8977C144.147 28.9904 144.125 29.1868 144.125 29.5031V32.8739C144.125 33.1303 144.158 33.3212 144.224 33.4466C144.289 33.5721 144.382 33.6375 144.507 33.6375C144.655 33.6375 144.753 33.5721 144.807 33.4357C144.862 33.3048 144.884 33.0539 144.884 32.683V31.8321H146.825C146.825 32.4048 146.804 32.8303 146.765 33.1194C146.727 33.403 146.607 33.6975 146.405 33.9975C146.204 34.2975 145.936 34.5211 145.609 34.6738C145.282 34.8266 144.878 34.9029 144.398 34.9029C143.782 34.9029 143.296 34.7993 142.936 34.5866C142.576 34.3793 142.326 34.0848 142.173 33.703C142.026 33.3266 141.949 32.7866 141.949 32.0885V30.0595C141.949 29.454 142.009 28.9959 142.135 28.685C142.255 28.3741 142.516 28.1014 142.915 27.8559C143.313 27.6159 143.798 27.4905 144.371 27.4905C144.944 27.4905 145.424 27.6105 145.827 27.8505C146.231 28.0905 146.498 28.3959 146.629 28.7613C146.76 29.1268 146.831 29.6449 146.831 30.3158L146.82 30.3213Z" fill="white"/>
<path d="M149.411 30.3926H147.371V29.9126C147.371 29.3617 147.437 28.9363 147.562 28.6363C147.687 28.3363 147.944 28.069 148.331 27.84C148.713 27.6109 149.215 27.4963 149.831 27.4963C150.567 27.4963 151.124 27.6272 151.495 27.8891C151.865 28.1509 152.095 28.4672 152.165 28.849C152.236 29.2308 152.28 30.0053 152.28 31.1889V34.7779H150.164V34.1397C150.033 34.3961 149.858 34.587 149.651 34.7124C149.438 34.8379 149.193 34.9033 148.898 34.9033C148.516 34.9033 148.167 34.7942 147.851 34.5815C147.535 34.3688 147.377 33.8997 147.377 33.1798V32.5907C147.377 32.0562 147.458 31.6907 147.627 31.4998C147.797 31.3035 148.217 31.0798 148.882 30.8235C149.596 30.5453 149.978 30.3544 150.027 30.2562C150.076 30.1581 150.104 29.9617 150.104 29.6617C150.104 29.2908 150.076 29.0454 150.022 28.9308C149.967 28.8163 149.875 28.7617 149.744 28.7617C149.596 28.7617 149.504 28.8108 149.471 28.9036C149.433 28.9963 149.416 29.2472 149.416 29.6453V30.3926H149.411ZM150.098 31.3744C149.749 31.6307 149.547 31.8434 149.493 32.018C149.438 32.1925 149.411 32.438 149.411 32.7598C149.411 33.1307 149.433 33.3707 149.482 33.4743C149.531 33.5779 149.624 33.6379 149.771 33.6379C149.907 33.6379 149.995 33.5943 150.038 33.5125C150.082 33.4252 150.098 33.207 150.098 32.847V31.3744Z" fill="white"/>
<path d="M158.416 34.7721H156.518V30.9105L155.007 34.7721H153.027V27.6269H154.925V31.4559L156.414 27.6269H158.422V34.7721H158.416ZM156.327 25.5216H157.244C157.222 26.0125 157.08 26.4052 156.813 26.6997C156.551 26.9997 156.18 27.147 155.711 27.147C155.242 27.147 154.871 26.9942 154.609 26.6942C154.347 26.3943 154.205 26.0015 154.184 25.5161H155.1C155.144 26.007 155.345 26.2524 155.711 26.2524C156.076 26.2524 156.284 26.007 156.327 25.5161V25.5216Z" fill="white"/>
<path d="M163.503 27.6218V29.1218H162.26V34.7725H160.089V29.1218H158.84V27.6218H163.503Z" fill="white"/>
<path d="M165.88 30.3926H163.84V29.9126C163.84 29.3617 163.905 28.9363 164.031 28.6363C164.156 28.3363 164.413 28.069 164.8 27.84C165.182 27.6109 165.683 27.4963 166.3 27.4963C167.036 27.4963 167.592 27.6272 167.963 27.8891C168.334 28.1509 168.563 28.4672 168.634 28.849C168.705 29.2308 168.749 30.0053 168.749 31.1889V34.7779H166.632V34.1397C166.502 34.3961 166.327 34.587 166.12 34.7124C165.907 34.8379 165.662 34.9033 165.367 34.9033C164.985 34.9033 164.636 34.7942 164.32 34.5815C164.003 34.3688 163.845 33.8997 163.845 33.1798V32.5907C163.845 32.0562 163.927 31.6907 164.096 31.4998C164.265 31.3035 164.685 31.0798 165.351 30.8235C166.065 30.5453 166.447 30.3544 166.496 30.2562C166.545 30.1581 166.572 29.9617 166.572 29.6617C166.572 29.2908 166.545 29.0454 166.491 28.9308C166.436 28.8163 166.343 28.7617 166.212 28.7617C166.065 28.7617 165.972 28.8108 165.94 28.9036C165.902 28.9963 165.885 29.2472 165.885 29.6453V30.3926H165.88ZM166.567 31.3744C166.218 31.6307 166.016 31.8434 165.962 32.018C165.907 32.1925 165.88 32.438 165.88 32.7598C165.88 33.1307 165.902 33.3707 165.951 33.4743C166 33.5779 166.092 33.6379 166.24 33.6379C166.376 33.6379 166.463 33.5943 166.507 33.5125C166.551 33.4252 166.567 33.207 166.567 32.847V31.3744Z" fill="white"/>
<path d="M173.813 27.6218L172.945 31.0362L173.998 34.767H171.882C171.669 33.8234 171.511 33.0107 171.402 32.3344C171.254 33.1852 171.102 33.9925 170.927 34.767H169.105L170.044 31.0362L169.105 27.6218H170.927C171.222 29.0836 171.38 29.9126 171.402 30.109C171.614 28.8872 171.773 28.0582 171.882 27.6218H173.813Z" fill="white"/>
</g>
<defs>
<clipPath id="clip0_6950_135780">
<rect width="173.333" height="40" fill="white" transform="translate(0.664062)"/>
</clipPath>
</defs>
</svg>
