<svg width="232" height="60" viewBox="0 0 232 60" fill="none" xmlns="http://www.w3.org/2000/svg">
<mask id="mask0_4756_145412" style="mask-type:luminance" maskUnits="userSpaceOnUse" x="0" y="0" width="232" height="60">
<path d="M231.522 0H0V60H231.522V0Z" fill="white"/>
</mask>
<g mask="url(#mask0_4756_145412)">
<path d="M103.564 31.32H108.467L103.564 46.68H99.3785L96.8671 38.4L94.4754 46.5599H90.2898L85.3867 31.2H90.2898L92.4424 39.3599L94.8341 31.2H99.0197L101.411 39.3599L103.564 31.32Z" fill="white"/>
<path d="M113.731 40.8C114.21 42.24 115.525 42.96 117.319 42.96C118.515 42.96 119.471 42.6 120.189 41.76L123.777 43.92C122.342 46.08 120.069 47.04 117.199 47.04C114.688 47.04 112.655 46.32 111.1 44.76C109.665 43.2 108.828 41.28 108.828 39C108.828 36.72 109.546 34.8 111.1 33.24C112.655 31.68 114.568 30.96 116.84 30.96C118.993 30.96 120.906 31.68 122.342 33.24C123.777 34.8 124.494 36.72 124.494 39C124.494 39.6 124.375 40.32 124.255 40.8H113.731ZM113.612 37.44H120.069C119.591 35.88 118.515 35.04 116.84 35.04C115.166 34.92 114.09 35.76 113.612 37.44Z" fill="white"/>
<path d="M127.242 46.68V24.24H131.787V46.56H127.242V46.68Z" fill="white"/>
<path d="M135.016 46.68V24.24H139.56V46.56H135.016V46.68Z" fill="white"/>
<path d="M150.204 47.04C147.932 47.04 146.018 46.32 144.464 44.76C142.909 43.2 142.191 41.28 142.191 39C142.191 36.72 142.909 34.8 144.464 33.24C146.018 31.68 147.932 30.96 150.204 30.96C151.639 30.96 152.954 31.32 154.27 32.04C155.466 32.76 156.422 33.72 157.14 34.92L153.074 37.2C152.476 36 151.519 35.52 150.084 35.52C149.127 35.52 148.29 35.88 147.573 36.48C146.975 37.2 146.616 38.04 146.616 39C146.616 40.08 146.975 40.92 147.573 41.52C148.171 42.24 149.008 42.48 150.084 42.48C151.519 42.48 152.476 41.88 153.074 40.8L157.02 43.08C156.303 44.28 155.466 45.24 154.15 45.96C153.074 46.68 151.639 47.04 150.204 47.04Z" fill="white"/>
<path d="M163.599 34.08C163.838 33.12 164.436 32.4 165.273 31.8C166.11 31.32 167.067 30.96 168.143 30.96V36.12C167.067 35.88 165.991 36.12 165.034 36.72C164.077 37.32 163.599 38.28 163.599 39.6V46.56H159.055V31.32H163.599V34.08Z" fill="white"/>
<path d="M180.101 31.3199H184.884L179.742 46.1999C178.905 48.5999 177.828 50.2799 176.393 51.3599C174.958 52.4399 173.284 52.9199 171.132 52.7999V48.4799C172.208 48.4799 173.045 48.2399 173.523 47.8799C174.121 47.5199 174.6 46.7999 174.839 45.9599L168.859 31.3199H173.882L177.231 40.6799L180.101 31.3199Z" fill="white"/>
<path d="M195.647 30.84C197.68 30.84 199.354 31.68 200.79 33.24C202.225 34.8 202.942 36.72 202.942 39C202.942 41.28 202.225 43.2 200.79 44.76C199.354 46.32 197.68 47.16 195.647 47.16C193.734 47.16 192.179 46.56 191.103 45.24V52.8H186.559V31.32H191.103V32.76C192.179 31.56 193.614 30.84 195.647 30.84ZM192.06 41.76C192.777 42.48 193.614 42.72 194.691 42.72C195.767 42.72 196.604 42.36 197.321 41.76C198.039 41.04 198.278 40.2 198.278 39C198.278 37.8 197.919 36.96 197.321 36.24C196.604 35.52 195.767 35.28 194.691 35.28C193.614 35.28 192.777 35.64 192.06 36.24C191.342 36.96 191.103 37.8 191.103 39C191.103 40.2 191.462 41.04 192.06 41.76Z" fill="white"/>
<path d="M213.944 35.76H210.835V41.16C210.835 41.76 211.074 42.12 211.552 42.36C212.03 42.48 212.868 42.6 213.944 42.48V46.68C211.074 47.04 209.041 46.68 207.964 45.84C206.888 45 206.29 43.44 206.29 41.16V35.76H203.898V31.32H206.29V28.44L210.835 27.12V31.44H213.944V35.76Z" fill="white"/>
<path d="M229.253 44.76C227.698 46.32 225.785 47.16 223.512 47.16C221.24 47.16 219.327 46.32 217.772 44.76C216.218 43.2 215.5 41.28 215.5 39C215.5 36.72 216.218 34.8 217.772 33.24C219.327 31.68 221.24 30.84 223.512 30.84C225.785 30.84 227.698 31.68 229.253 33.24C230.807 34.8 231.525 36.72 231.525 39C231.525 41.28 230.807 43.2 229.253 44.76ZM221.001 41.64C221.719 42.36 222.436 42.6 223.512 42.6C224.589 42.6 225.306 42.24 226.024 41.64C226.741 40.92 226.98 40.08 226.98 39C226.98 37.92 226.622 37.08 226.024 36.36C225.306 35.64 224.589 35.4 223.512 35.4C222.436 35.4 221.719 35.76 221.001 36.36C220.284 37.08 220.044 37.92 220.044 39C220.044 40.08 220.403 40.92 221.001 41.64Z" fill="white"/>
<path d="M80.0061 2.16C79.7669 0.479999 77.9731 -0.480001 76.538 0.119999L62.3071 6.12L59.0782 7.44C57.7628 7.92 58.002 9.84 59.3174 10.08C60.9916 10.32 62.9051 10.8 65.0576 11.4H65.1772L65.0576 11.52C66.971 16.2 68.0473 21.24 68.0473 26.52C68.0473 29.4 67.6886 32.28 67.0906 35.04L76.7772 18C78.2123 19.2 79.5277 20.52 80.7236 21.84C81.6803 22.92 83.3545 22.08 83.1154 20.64L80.0061 2.16Z" fill="url(#paint0_linear_4756_145412)"/>
<path d="M68.0467 26.64C68.0467 21.36 66.9704 16.2 65.057 11.64L63.3828 14.64C66.1333 18.96 67.688 24.12 67.688 29.64C67.688 31.56 67.4488 33.48 67.09 35.28L67.2096 35.16C67.8076 32.4 68.0467 29.52 68.0467 26.64Z" fill="#686868"/>
<path d="M63.3833 14.64L50.4679 37.56L40.9008 16.8C40.0637 14.88 38.2699 13.44 36.2369 13.08C35.7586 12.96 35.2802 12.96 34.8019 12.96C32.2905 12.96 29.8988 14.4 28.8225 16.8L27.1483 20.52L26.1916 22.68L18.8967 38.52L18.538 37.92L12.439 27.24L11.9606 26.28C11.2431 24.96 9.56888 24.48 8.25342 25.2L1.43693 29.16C0.121461 29.88 -0.356889 31.56 0.360637 32.88L13.7545 56.52C14.9503 58.68 17.1029 59.88 19.4947 59.88C19.6142 59.88 19.7338 59.88 19.7338 59.88C20.0926 59.88 20.4514 59.88 20.6905 59.76C22.7235 59.4 24.5173 57.96 25.474 56.04L26.4307 54L34.8019 35.76L35.1606 36.48L43.7709 55.2C44.1297 55.92 44.6081 56.64 45.0864 57.12C46.2823 58.32 47.8369 59.04 49.5112 59.04C49.9895 59.04 50.5874 59.04 51.0658 58.92C52.9792 58.56 54.6534 57.36 55.6101 55.68L55.9689 54.96L58.5998 50.28L67.0905 35.28C67.4493 33.48 67.6885 31.56 67.6885 29.64C67.6885 24.12 66.1338 18.96 63.3833 14.64Z" fill="url(#paint1_linear_4756_145412)"/>
</g>
<defs>
<linearGradient id="paint0_linear_4756_145412" x1="70.673" y1="0.000239372" x2="70.673" y2="35.1673" gradientUnits="userSpaceOnUse">
<stop stop-color="#CFCFCF"/>
<stop offset="1" stop-color="#191919"/>
</linearGradient>
<linearGradient id="paint1_linear_4756_145412" x1="9.08156" y1="15.2377" x2="91.3625" y2="72.8977" gradientUnits="userSpaceOnUse">
<stop stop-color="#DADADA"/>
<stop offset="1" stop-color="#363535"/>
</linearGradient>
</defs>
</svg>
