<svg width="95" height="40" viewBox="0 0 95 40" fill="none" xmlns="http://www.w3.org/2000/svg">
<g clip-path="url(#clip0_6950_122652)">
<path d="M31.5123 31.5151H23.0189L20.4735 19.8969C20.3523 19.4096 20.1607 18.4423 19.9001 16.9963C19.6772 15.7914 19.486 14.5809 19.3268 13.366C19.2298 14.1563 19.0723 15.1393 18.8541 16.3114C18.6359 17.486 18.4201 18.5648 18.208 19.5502C17.9959 20.5344 17.1135 24.5235 15.5619 31.5151H7.06862L0.484375 4.84839H7.41407L10.3062 18.2181C10.9607 21.1732 11.4092 23.526 11.6516 25.2775C11.8092 24.0363 12.0916 22.3526 12.4977 20.2241C12.9038 18.0969 13.2819 16.3332 13.6335 14.9344L15.9801 4.84839H22.6371L24.911 14.9344C25.2989 16.5526 25.6929 18.4193 26.0929 20.5344C26.4929 22.6508 26.7595 24.2314 26.8929 25.2775C27.0504 23.9272 27.4807 21.5866 28.1838 18.2544L31.1304 4.84839H38.0601L31.5123 31.5151Z" fill="#757575"/>
<path d="M82.3487 31.5151H75.0033V10.7393H68.3633V4.84839H88.9693V10.7393H82.3487V31.5151Z" fill="#F8F8F8"/>
<path d="M70.4929 30.4102C72.6008 27.3233 73.8208 23.6284 73.8208 19.6498C73.8208 8.79478 64.7182 0 53.4874 0C48.6617 0 44.229 1.62116 40.7452 4.3366C34.9977 14.3067 33.7506 31.187 50.2409 31.849C55.1751 32.0449 58.1438 29.782 59.5332 26.6815C57.9743 28.4446 55.8326 29.5253 53.4603 29.5253C51.8811 29.5253 50.4036 29.0457 49.1293 28.2014C37.6274 24.1012 42.0262 6.50489 53.9144 5.20121C67.8157 3.67462 74.9052 18.0962 70.825 29.4375C70.7301 29.7685 70.6217 30.0927 70.4929 30.4102Z" fill="#808080"/>
<path fill-rule="evenodd" clip-rule="evenodd" d="M70.8443 29.4646C70.7494 29.7956 70.6409 30.1198 70.5189 30.4373C66.8928 35.7939 60.6302 39.3334 53.5067 39.3334C51.4124 39.3334 49.3926 39.0294 47.4948 38.4553C54.5234 39.7455 62.0196 36.8679 65.6186 28.4581C70.1394 17.9004 59.9253 6.09293 50.9312 10.3079C50.9244 10.3012 50.9108 10.3079 50.9041 10.3147C47.3796 11.5643 44.8176 15.2998 44.8176 19.7174C44.8176 23.3583 46.5595 26.533 49.1418 28.2352C37.6467 24.1283 42.0455 6.53875 53.9269 5.23507C67.8349 3.70848 74.9177 18.13 70.8443 29.4646Z" fill="#EAEAEA"/>
<path fill-rule="evenodd" clip-rule="evenodd" d="M65.5976 28.431C61.9986 36.8407 54.5023 39.7183 47.4738 38.4281C47.467 38.4281 47.4602 38.4281 47.4535 38.4213C47.4467 38.4281 47.4399 38.4213 47.4399 38.4213C39.1642 35.9356 33.1523 28.4782 33.1523 19.6564C33.1523 13.469 36.1075 7.95709 40.7299 4.36353C34.9891 14.3404 33.7623 31.1937 50.2323 31.8557C55.1666 32.0515 58.1285 29.7887 59.5315 26.695C61.1175 24.9117 62.107 22.4327 62.107 19.6902C62.107 16.3196 60.6227 13.3542 58.3521 11.5777C56.9559 10.4834 55.2682 9.84844 53.4518 9.84844C52.5639 9.84844 51.7099 9.99705 50.9101 10.2808C59.9042 6.0725 70.1183 17.8732 65.5976 28.431Z" fill="#A0A0A0"/>
</g>
<defs>
<clipPath id="clip0_6950_122652">
<rect width="94.5454" height="40" fill="white" transform="translate(0.121094)"/>
</clipPath>
</defs>
</svg>
